<?xml version="1.0" encoding="utf-8"?>
<!-- Generator: Adobe Illustrator 27.1.0, SVG Export Plug-In . SVG Version: 6.00 Build 0)  -->
<svg version="1.1" id="Capa_1" xmlns="http://www.w3.org/2000/svg" xmlns:xlink="http://www.w3.org/1999/xlink" x="0px" y="0px"
	 viewBox="0 0 2373.1 1804.6" style="enable-background:new 0 0 2373.1 1804.6;" xml:space="preserve">
<style type="text/css">
	.st0{fill:#F7F0DF;}
	.st1{fill:#F7F1E1;}
	.st2{fill:#F5F3ED;}
	.st3{fill:#F6F4EC;}
	.st4{fill:#F4F4EB;}
	.st5{fill:#F8F6F1;}
	.st6{fill:#FEFDF5;}
	.st7{fill:#F8F6F0;}
	.st8{fill:#FAF7F1;}
	.st9{fill:#FBF9F5;}
	.st10{fill:#F7F6ED;}
	.st11{fill:#FBFAF0;}
	.st12{fill:#F3F1EA;}
	.st13{fill:#F4F3EF;}
	.st14{fill:#FDFBFA;}
	.st15{fill:#F4F3EB;}
	.st16{fill:#F7F6E9;}
	.st17{fill:#F4F3EA;}
	.st18{fill:#D7D4D2;}
	.st19{fill:#F9F6F7;}
	.st20{fill:#A59DA2;}
	.st21{fill:#E3DEE0;}
	.st22{fill:#E7E2E5;}
	.st23{fill:#FCFAF9;}
	.st24{fill:#B4B3B7;}
	.st25{fill:#FBFBF9;}
	.st26{fill:#F7F7F4;}
	.st27{fill:#FAFBF6;}
	.st28{fill:#F6FAF6;}
	.st29{fill:#F9F9F6;}
	.st30{fill:#FCFDF7;}
	.st31{fill:#F7F8F6;}
	.st32{fill:#F5F5F2;}
	.st33{fill:#F9F8F3;}
	.st34{fill:#ACA7A8;}
	.st35{fill:#717158;}
	.st36{fill:#FEFDFD;}
	.st37{fill:#FBFAF9;}
	.st38{fill:#EDEAEA;}
	.st39{fill:#BBBABC;}
	.st40{fill:#FDFDFC;}
	.st41{fill:#FCFCFB;}
	.st42{fill:#FEFEFE;}
	.st43{fill:#F3F0F2;}
	.st44{fill:#625D61;}
	.st45{fill:#F6F6F3;}
	.st46{fill:#F6F5F2;}
	.st47{fill:#847462;}
	.st48{fill:#FAF9F9;}
	.st49{fill:#F6F3F3;}
	.st50{fill:#847961;}
	.st51{fill:#FAF9F8;}
	.st52{fill:#EBE9EA;}
	.st53{fill:#423B2F;}
	.st54{fill:#FBFCF9;}
	.st55{fill:#CBCBCB;}
	.st56{fill:#F5F3F1;}
	.st57{fill:#5E554B;}
	.st58{fill:#C8CACA;}
	.st59{fill:#97958C;}
	.st60{fill:#B1ACAC;}
	.st61{fill:#FDFCFB;}
	.st62{fill:#B7B6B6;}
	.st63{fill:#888277;}
	.st64{fill:#F3F2F1;}
	.st65{fill:#DBDADB;}
	.st66{fill:#CECFD2;}
	.st67{fill:#BBB9B9;}
	.st68{fill:#4B494A;}
	.st69{fill:#C8CBCE;}
	.st70{fill:#FBFBF7;}
	.st71{fill:#9B9597;}
	.st72{fill:#6B6665;}
	.st73{fill:#D0D0D1;}
	.st74{fill:#CCCCCC;}
	.st75{fill:#F9F6FC;}
	.st76{fill:#EEEFED;}
	.st77{fill:#C7C4C5;}
	.st78{fill:#C8C4C8;}
	.st79{fill:#D5D6D7;}
	.st80{fill:#EDECEA;}
	.st81{fill:#D5D3D0;}
	.st82{fill:#DAD8D8;}
	.st83{fill:#1F1911;}
	.st84{fill:#ABA6A8;}
	.st85{fill:#696665;}
	.st86{fill:#D3D2D1;}
	.st87{fill:#6D6B6A;}
	.st88{fill:#BDBDBD;}
	.st89{fill:#5F5D56;}
	.st90{fill:#54504B;}
	.st91{fill:#424245;}
	.st92{fill:#D2D0D5;}
	.st93{fill:#CCCFCE;}
	.st94{fill:#D3D3D4;}
	.st95{fill:#DCDDDD;}
	.st96{fill:#615F5B;}
	.st97{fill:#FCFBFB;}
	.st98{fill:#6C696A;}
	.st99{fill:#1C1B1C;}
	.st100{fill:#DADCDE;}
	.st101{fill:#C3C4C5;}
	.st102{fill:#9E9E97;}
	.st103{fill:#C9C7C8;}
	.st104{fill:#53504C;}
	.st105{fill:#DFDFE1;}
	.st106{fill:#D7D5D5;}
	.st107{fill:#B0B1B2;}
	.st108{fill:#E1E2E4;}
	.st109{fill:#D0D1D2;}
	.st110{fill:#504C45;}
	.st111{fill:#8E8D87;}
	.st112{fill:#D8D9DA;}
	.st113{fill:#E3DFE1;}
	.st114{fill:#414048;}
	.st115{fill:#837E81;}
	.st116{fill:#86807D;}
	.st117{fill:#9B9C8F;}
	.st118{fill:#AFAEAE;}
	.st119{fill:#595B5E;}
	.st120{fill:#544F42;}
	.st121{fill:#C9C7C6;}
	.st122{fill:#8A7F81;}
	.st123{fill:#2B2312;}
	.st124{fill:#BBBBBA;}
	.st125{fill:#292A31;}
	.st126{fill:#D7D7D6;}
	.st127{fill:#2D2C2D;}
	.st128{fill:#BFBFC0;}
	.st129{fill:#E3E3E3;}
	.st130{fill:#313136;}
	.st131{fill:#E7E5E4;}
	.st132{fill:#736A62;}
	.st133{fill:#8A8990;}
	.st134{fill:#837D7E;}
	.st135{fill:#BBBAB9;}
	.st136{fill:#E9E7E6;}
	.st137{fill:#EFEEED;}
	.st138{fill:#55524C;}
	.st139{fill:#87847E;}
	.st140{fill:#8D8B8C;}
	.st141{fill:#D9D8CE;}
	.st142{fill:#2C2B33;}
	.st143{fill:#393940;}
	.st144{fill:#5D5954;}
	.st145{fill:#E0DCE3;}
	.st146{fill:#AAA4A3;}
	.st147{fill:#A1A09F;}
	.st148{fill:#978F8D;}
	.st149{fill:#88867B;}
	.st150{fill:#95938C;}
	.st151{fill:#8A8988;}
	.st152{fill:#424141;}
	.st153{fill:#A6A095;}
	.st154{fill:#7F7D75;}
	.st155{fill:#B5B6B5;}
	.st156{fill:#AEADAC;}
	.st157{fill:#878283;}
	.st158{fill:#AEA9AE;}
	.st159{fill:#EAEBEC;}
	.st160{fill:#272A28;}
	.st161{fill:#ABA7A6;}
	.st162{fill:#908C80;}
	.st163{fill:#504E52;}
	.st164{fill:#918C82;}
	.st165{fill:#B4B3AC;}
	.st166{fill:#CECEC8;}
	.st167{fill:#646465;}
	.st168{fill:#A3A39F;}
	.st169{fill:#2C2C2E;}
	.st170{fill:#A09E9B;}
	.st171{fill:#BFC0C1;}
	.st172{fill:#A2A3A5;}
	.st173{fill:#818182;}
	.st174{fill:#F4F3F2;}
	.st175{fill:#808082;}
	.st176{fill:#D4D3D3;}
	.st177{fill:#C8C8BD;}
	.st178{fill:#9B9897;}
	.st179{fill:#979897;}
	.st180{fill:#AEADB0;}
	.st181{fill:#989A8B;}
	.st182{fill:#A7A7A8;}
	.st183{fill:#4D443C;}
	.st184{fill:#403F3F;}
	.st185{fill:#8E9094;}
	.st186{fill:#3E3426;}
	.st187{fill:#DCDBDD;}
	.st188{fill:#4B4B51;}
	.st189{fill:#2E2B20;}
	.st190{fill:#D2CDC3;}
	.st191{fill:#4B463A;}
	.st192{fill:#070606;}
	.st193{fill:#D5CEC9;}
	.st194{fill:#5D5B5B;}
	.st195{fill:#A8A6A3;}
	.st196{fill:#434247;}
	.st197{fill:#515752;}
	.st198{fill:#A09997;}
	.st199{fill:#C2C2B8;}
	.st200{fill:#766F72;}
	.st201{fill:#595657;}
	.st202{fill:#9A9892;}
	.st203{fill:#5F5D5D;}
	.st204{fill:#797878;}
	.st205{fill:#3B3836;}
	.st206{fill:#79746A;}
	.st207{fill:#959691;}
	.st208{fill:#EFEFEC;}
	.st209{fill:#535251;}
	.st210{fill:#44443E;}
	.st211{fill:#AAA9A6;}
	.st212{fill:#504E4E;}
	.st213{fill:#3B3A3B;}
	.st214{fill:#8D8D83;}
	.st215{fill:#515246;}
	.st216{fill:#ABABAF;}
	.st217{fill:#918E89;}
	.st218{fill:#A0A29E;}
	.st219{fill:#AAA69A;}
	.st220{fill:#565154;}
	.st221{fill:#42424B;}
	.st222{fill:#B0B1AF;}
	.st223{fill:#424344;}
	.st224{fill:#8F9093;}
	.st225{fill:#504D4D;}
	.st226{fill:#8E8C84;}
	.st227{fill:#8C8D8B;}
	.st228{fill:#4F514E;}
	.st229{fill:#7E7A81;}
	.st230{fill:#3E3F3E;}
	.st231{fill:#B8B5AE;}
	.st232{fill:#B2B3B3;}
	.st233{fill:#919191;}
	.st234{fill:#C0BFBE;}
	.st235{fill:#565050;}
	.st236{fill:#D1D1D2;}
	.st237{fill:#AFB8BD;}
	.st238{fill:#777C7F;}
	.st239{fill:#777466;}
	.st240{fill:#4E4B41;}
	.st241{fill:#060201;}
	.st242{fill:#6D6A63;}
	.st243{fill:#3F3B34;}
	.st244{fill:#3D372F;}
	.st245{fill:#5D5753;}
	.st246{fill:#444034;}
	.st247{fill:#424238;}
	.st248{fill:#D6D2C8;}
	.st249{fill:#232418;}
	.st250{fill:#302A1C;}
	.st251{fill:#504C43;}
	.st252{fill:#F0EBE6;}
	.st253{fill:#AEA89F;}
	.st254{fill:#8F8A80;}
	.st255{fill:#655A4B;}
	.st256{fill:#B9AFA2;}
	.st257{fill:#A59E96;}
	.st258{fill:#949289;}
	.st259{fill:#464343;}
	.st260{fill:#666559;}
	.st261{fill:#DAD4C4;}
	.st262{fill:#C0BBB3;}
	.st263{fill:#6F6F65;}
	.st264{fill:#413D3B;}
	.st265{fill:#414337;}
	.st266{fill:#7A7976;}
	.st267{fill:#7C7A78;}
	.st268{fill:#050404;}
	.st269{fill:#8D8E89;}
	.st270{fill:#44403A;}
</style>
<path class="st0" d="M1216.7,311.1c28.7,8,59.7,10.4,87.7,20.6c79,29,134.6,72.8,160.4,136.2c-44.3,11.7-57.3,8.2-78.6-22
	c-9.1-13-18.5-25.7-31.6-36.7c-23.5-19.7-50.8-32.1-88.6-27.9c-17.2,1.9-34.5,6.2-51.7,4.7c-30.4-2.6-44.3,7.3-46.6,28.8
	c-15.7,16.9-20.7,36.8-28.6,55.9c-3.8,9.3-8.6,18.2-18.4,25.1c-5.6,3.6-12,5.9-19.1,7.1c-28.8,2.2-57.7,0.8-86.5,1.1
	c-5.7,1-20.6-1.4-5.9,7.7c15,9.3,32.4,16.2,48.2,24.8c36.5,19.8,38.7,27.8,23.5,59.3c-9.3,19.4-26.4,37.4-22.7,59.6
	c0.8,10-3.5,18-17.6,20.2c-15.2,2.4-25.8-4.2-30.9-13.7c-6.6-12.2-17.4-17.5-34.6-17.8c-11.1-0.2-22.1-2.9-29.8-8.7
	c-21.3-15.8-35.6-9.9-47.5,7.1c-2,2.9-5.5,5-9.5,6.4c-22.7-26.7-39.4-55-40.3-87.3c-5.6-18.1,1.8-36.8-4.2-54.9
	c8.9-38.8,29.1-74.1,60.6-105.9c48.6-49,115.1-76.1,193.7-89.1c35.2-5.8,70.2-7.4,105.3-0.5C1207.9,309.1,1212.2,309,1216.7,311.1z"
	/>
<path class="st1" d="M1163.9,415c0.1-7.3,0.5-14.5,0.4-21.8c-0.1-9.2,6.2-13.3,18.1-12.8c25,1.1,49.6-1.4,74.1-4.9
	c62.4-9.1,98.1,17.6,126.9,53c5.6,6.9,9.6,14.5,14.8,21.5c10.6,14.5,23,26.5,48.5,15.5c7-3,12.4,0.5,18.2,2.4
	c26.2,58.6,16.3,115.3-18.4,170.1c-14.3,22.6-37.1,40.9-60.1,58.9c-34.2-8.2-41.7-26.2-17.5-43.7c11.7-8.4,25.4-15.2,36.3-24.3
	c20.1-16.8,19.6-33-2.5-48.8c-13.4-9.5-30.1-15.9-44.5-24.5c-12.8-7.7-24.4-5.2-34.2,3.4c-9.7,8.6-5.9,16.5,3.8,23.5
	c9.3,6.8,20.6,11.9,30,18.7c25.1,18.1,28.3,28.9,13.2,46.4c-17.4,20.2-45.7,27.8-72.8,19.6c-13.4-4.1-24.4-10.5-33-19.2
	c-13.3-23.8-29.6-46.9-36.3-72.5c-0.9-10.4,1.1-20.3,9.8-28.9c3.3-2.8,7.4-4.7,11.9-6.3c27.2-10,49.4-25.5,80.5-38.1
	c-10.2,0.4-14.3,1.5-18.6,1.6c-32.5,0-64.8,1.3-97.1-0.7c-13.6-2.1-22.2-8.8-28.3-17.6c-2.4-3.5-4.1-7.1-5.5-10.8
	C1176.8,454.6,1154.9,437.3,1163.9,415z"/>
<path class="st2" d="M758.3,1452.1c21.6,5.1,43.2,10.2,64.7,15.4c43.1,16.1,38.9,46.3,40.3,74.8c-8,21.4-21.7,40.6-44,55.6
	c-15.3,10.4-15.3,19.4-1.5,30.9c17.4,14.4,31.2,31.1,46,47c8.4,9,18.9,19,4.3,30.3c-12.5,3.8-25.1,7.5-37.6,11.3
	c-26.5,5.4-41.8-3.5-54.8-20.3c-16.2-20.9-25.9-44.5-47.8-62.9c-7.8-4.8-16.7-4.5-25.8-2.9c-21.2,6.6-25.7,19.7-26.8,35
	c-0.9,13.3,4.7,26.9-3.8,39.8c-6.3,3.3-12.6,6.5-18.9,9.8c-20.4,9.2-42.3,5.5-63,2.2c-23.4-3.7-10.7-17.4-10-27.5
	c10.7-40.3,2.3-81.1,4.7-121.6c-1.3-38.8,3.5-77.2,10.3-115.6l0.5,0.2C649.3,1447.4,703.8,1450.4,758.3,1452.1z"/>
<path class="st3" d="M1014.5,1112.5c26.2-2.8,52.2-12.6,78.8-1.1c7.2,6.2,6.3,13.4,4.9,20.8c-7.2,25.4-2.6,51.1-3.1,76.6
	c0.4,10.1,0.5,20.3,0,30.4c-0.7,27.7-0.8,55.4,0.2,83.1c2.6,10.9,6.6,21.8,3.2,32.9c-3.8,12.4-11.4,22.4-31.8,21.9
	c-18.1,0-36.1,0.1-54.2,0c-11.5-0.9-17.4-7.1-23.3-13.4c-42.2-52-83.5-104.4-130.7-154.1c-3.5-2.2-6.9,3.6-4,1.2
	c0.7-0.5,1.1-0.2,2.1,0.2c9.7,4.2,9.8,11.8,12,18.7c0.4,5.1-1,9.6-6.5,13.1c-1.4,0.7-2.9,1.2-4.5,1.5c-4.8,1-6.8,5.7-12.7,5.2
	c-15.9-5.1-31.3-10.8-49.9-7.7c-10,1.7-19.6-0.2-24.2-8.6c-4.4-34.2-11-68.5,5.1-102.2c0.4-18.5,11.4-24.6,37.7-25.3
	c37-0.9,62,5,81.1,31.2c31.7,43.3,68.9,84.4,103.8,126.4c4.3-1.9,5.7,8.7,9.2,2.1c5.1-9.5,1.8-20.2,2.3-30.4
	C1013,1194.1,1004.4,1153.1,1014.5,1112.5z"/>
<path class="st4" d="M1439.1,1364.9c6.8-8,13.6-16,20.5-24c11.9-22.6,8.7-48.9,31.3-68.7c16.1-35.6,33.7-70.9,47.7-107
	c6.4-16.5,16.5-30.9,28.9-44.6c22.4-24.7,56.9-11.1,86.1-13.4c22.2-1.8,17.2,14.5,22.4,23.6c39.2,67.6,63.6,138.9,91.8,209.1
	c13.8,34.3,11.2,35.2-35.8,35.1c-7.6,0-15.2,0.4-22.8,0.6c-17.7,4.7-19.3-5.6-21.8-13.7c-3.6-11.5-7-23-12.5-34
	c-1.2-2.2-2.6-4.3-4.3-6.3c-26-7.8-53-7.6-80.2-6c-3.2,0.3-6.3,0.8-9.5,0.9c-42.2,0.8-46.1,0.6-47.6,29.5c-1,20.1-13.1,26-34.4,29.5
	c-15.9,3.7-32.1,1.3-48.2,1.6C1440,1377.2,1434.1,1373.6,1439.1,1364.9z"/>
<path class="st5" d="M1990.9,1452.6c18.7,25.4,26.4,53.8,38.4,81c22.8,51.8,48.3,103,68.1,155.7c8.4,22.2-5.2,23.9-24.8,26.2
	c-9.5,1.1-19.5,0-29.3,0c-35.2-4.1-24.9-26.4-30.6-42.2c-2.2-2.9-4.7-5.6-8-8c-3.8-2-7.9-3.6-12.2-5c-37.9-1.9-75.5-8.6-113.8-3.2
	c-19.7,5.8-14.3,21.1-17,31c-5.2,18.8-16.3,27.9-41.1,28.9c-15.7-0.3-41,10.9-34.4-16c-0.5-39.8,27.4-73.9,41.5-110.7
	c15.5-40.4,33-80.8,58.3-118.7c5.3-8,7.6-19.5,25.1-19.5C1937.7,1449.7,1964.3,1448.7,1990.9,1452.6z"/>
<path class="st6" d="M1296.6,1661.5c1.5,0.7,3.2,1.1,4.9,1.5c41.9,3.3,83.8,2.9,125.7,0.3c12.2-1,24.8-1.8,25.4,11.1
	c0.7,15.6,2.6,32.2-25.1,37.5c-48.4,4.9-97.3-1.7-145.7,3.4c-28.2,3.7-55.1-2-83.5-5.9c9.8-11.5,13.3-23.8,12.5-36.8
	c6.1-64.4,0.9-128.9,2.9-193.3c0.3-8.5-4.4-17.8,4.2-25.6c1.8-0.2,3.5-0.7,5.1-1.3c76.4-2.4,152.7-4.8,229,1.3
	c0.1,0.8,0.4,1.6,0.4,2.4c1.7,45.6,0.5,46.8-60.5,45.5c-22.4-0.5-44.8,1.4-67.4-4.2c-15.4-3.8-31.8,0.2-28.9,17
	c2.4,13.9-7.5,28.7,6.2,41.6c22,2.9,44.1,3,66.1,0c4.3-0.2,8.8-1.2,12.8-0.4c13,2.5,32.6-7.2,38.4,7.2c6.5,16.2-0.6,31.2-22.3,40.2
	c-2.7,1.1-6.2,1.2-9.3,1.8c-27.9,4.4-56.4-0.6-84.4,2.7C1283,1624.2,1292,1643,1296.6,1661.5z"/>
<path class="st7" d="M2133.5,1515.7c12.7-38.7,66.5-67,125.9-67.9c24.7-0.3,49.2-0.4,73.4,4.7c23.5,4.9,34.8,15.4,30.5,30.8
	c-6.3,22.1-24,31.8-49.8,26.5c-14.2-2.9-28.7-5.9-42-10.6c-15-5.3-28.1-1.9-40.1,3.1c-23.4,9.7-22.8,22.5-1,35.1
	c27.3,15.8,61.4,21.7,90,35.8c42.6,20.9,59.5,45.4,49.9,75.7c-9.8,31-53.9,60.5-96.5,62c-12.4,0.5-22.3,5.1-33.8,5.9
	c-10.7,2.7-21.6,1.5-32.5,1c-27.8-6.3-57.8-3.9-85.1-11.9c-6.2-17.2,3.1-33.7,7.6-49.5c4.4-16,26.6-9.6,39.9-5.3
	c22.4,7.3,44.5,14.5,68.5,18.9c12.5,2.3,22.8,2.6,32.8-3.5c8-4,5.1-12,10.9-16.9c11.8-10.7,0.8-17.3-8.3-23.8
	c-11.5-8.2-25.6-13.9-39.4-19.8c-24.9-10.1-52.8-16.5-73.4-31.6C2139.6,1558.4,2124.8,1539.9,2133.5,1515.7z"/>
<path class="st1" d="M888.4,649c1.1-9.2,8.4-16.2,14.5-23.8c11.2-14.2,24-11.9,36.2-2.2c6.8,5.4,12.7,11.9,22.4,13
	c26.2,3,56.2,0.4,59.6,29.6c0.6,4.7,10.7,8.1,19.1,6.2c11.6-2.7,12.7-10,12.4-17.6c20.5-29.7,60.5-41.6,95.9-57.5
	c5.4-2.4,12.7-0.7,17.9,3c3.1,3.5,5.6,7.7,3.8,11.5c-8,16,2.2,23.4,21.3,28.9c19.5,5.5,30.8,17.2,36.6,32.2
	c12.6,32.4,24.9,38.3,71.6,39.3c14.8,0.3,35.7-8.4,42.1,11.1c-87.3,40.7-181.4,50.7-278.9,27.7C989.2,732.9,929.9,698.7,888.4,649z"
	/>
<path class="st8" d="M548.1,1451.7c21.7,10,9.6,25.8,12,39.2c-8.3,19.4-30.4,16.6-50.3,17.3c-20.4-0.1-40.8,0.1-61.3-0.8
	c-12.1-0.5-27.9-6.2-33.5,6.7c-4.9,11.3-7,23.7,6.7,33.7c3.1,2.2,6.8,3.9,10.1,6c13,16.2,25.8,32.5,7.8,51.3
	c-32.1,14-36.5,26.6-18.2,52.5c29.8,6.3,59.9,2,89.9,2.4c3.3-0.1,6.5-0.3,9.7-0.1c19.8,1.3,44.1-1.6,46.9,20
	c2.5,18.7-7.5,32.8-34.3,37.5c-67-5.1-134.2-3.8-201.3-3.8c-9.5,0-17.1-1.7-20.7-9c-4.5-10.7-3.5-21.4,1.1-32
	c17.2-39.6,9.8-79.6,4.3-119.7c-3.9-33.6-5.2-67.1,8.8-99.9c19.1-0.4,38.2-0.9,57.3-1.3C438.2,1449.4,493.1,1449.7,548.1,1451.7z"/>
<path class="st9" d="M1033.4,1604c20.2-40.2,40.6-80.2,53.5-122.3c3.1-10.2,12.5-25,22.9-27.1c21.3-4.4,45.6-3.4,67.9-0.9
	c11.1,1.3,5.3,12.2,2.2,18.5c-22.2,45.6-44.9,91.2-67.3,136.8c-13.5,27.5-26.6,55.1-40.6,82.5c-5.4,10.7-12.3,21.1-31.7,20.1
	c-54.9,5.2-60,3.7-78.1-21.6c-18.8-45.5-46.2-88.9-60.3-135.6c-2.6-8.6-6.6-17.1-13.6-24.6c-10.6-24.1-29-46.3-32.3-72.2
	c23.4-9.5,48.7-3.4,73.1-4.6c12.5-0.6,10.3,7.2,12.7,13.4c17.3,45.9,35.6,91.6,53.5,137.3c12.6,6.5,15,17.1,19.8,26.8
	c2.3,5.3,4.5,10.7,5.4,16.2c1.2,2.6-0.9,5.7,2.4,7.9c2.5-3.3,1.1-6.9,1.6-10.4c-0.1-6-0.1-12-0.3-18
	C1024,1618.1,1026.5,1610.6,1033.4,1604z"/>
<path class="st10" d="M1431.1,1320.3c-30.6,30.4-71.3,48.6-121.4,55.5c-35.4,4-71.3-1.4-106.7,3c-19.5,0.3-39,0.5-58.5,0.8
	c-10-2.8-11.8-8.8-11.2-15.8c3.6-9.8,0.5-20.9,10.1-29.5c21.7-9.3,48-1.5,69.7-10.7c3.2-0.8,6.5-1.3,9.9-1.4
	c22.5,1.6,44.8,3.1,67.6,0.7c29.6-3.1,50.5-12.9,59.4-34.7c5.3-6.1,14-9.8,19.3-15.8c19.9-24.4,0.6-48.1-2.1-72.1
	c-11.7-28.5-36.8-41.8-77.4-38.7c-9.5,0.7-19.3-0.2-28.8-2.1c-18.2-3.2-35.2-8-47.1-19.7c-6.9-6.9-10.7-13.9-5.2-22.3
	c5.2-7.9,14.6-8.2,24.8-8.4c11.8-0.2,23.8,1.7,35.4-1.5c41.4-4,81.5,3.9,118.1,15.2c39.4,12.2,57.7,40.5,66,71.3
	c7.9,22.9,5.2,46.4,7.2,69.7C1459.3,1285.1,1457.6,1306.2,1431.1,1320.3z"/>
<path class="st11" d="M188.2,1161.4c-0.4,62.3-2.6,124.7-0.3,187c0.8,20.5-13,23.8-32.6,26.2c-7.4,0.9-16.4-1.5-22.6,0.7
	c-37.3,13.2-34.4-6.5-30.8-21.9c12.2-52.1,3.1-104.6,6.1-156.8c0.3-5.7-1.3-11.5,0.2-17c4.2-16.1-5.5-21.6-25.7-20.1
	c-24.4-2.7-48.8-3.1-73.1,0.2c-2.2,0-5.6,0.6-6.3-0.2c-11.8-13.4,13-52.5,34.4-52.6c77.9-0.5,156-1.8,233.7,4.5
	c6.6,0.5,14.1,0.1,13.7,6.9c-0.7,13.1,7.4,27.9-11.5,38C245.4,1161.8,215.8,1152.3,188.2,1161.4z"/>
<path class="st12" d="M730.8,1112.4c0.3,16-0.3,31.8-18.9,43.3c-35,5.6-70.8-1.1-105.8,3.8c-12.6,2.9-34.2-3.9-36.4,8.8
	c-2.7,15-14,33.6,10.5,46.1c37.1,5.9,75-1.8,112.1,4.2c14,32,3.5,44.3-37.9,44.2c-10.8,0-21.6-0.1-32.4,0
	c-47.2,0.4-51.6,3.5-55.8,38.9c-14.3,20-61.8,27.4-80.8,12.7c1.4-64.5-2.6-128.9,2.1-193.3c2.2-8.9,8.4-14.4,21.7-14.4
	c68.2,0.2,136.3,0.1,204.4,0.5C719.3,1107.2,725.1,1110.6,730.8,1112.4z"/>
<path class="st3" d="M1675.7,1569.8c-26.5,26.7-52.8,53.5-79.7,80.1c-4.8,4.7-17,7.5-10.7,14.8c5.3,6.1,16.1,2.2,24.5,1.9
	c35.2-4.5,70.4-2,105.6-0.4c1.1,0.2,2.2,0.6,3.2,0.5c39.1-6.5,48.3,10.9,49.8,34.4c4.1,5.1,5,9.9-2,14.1l-2.1,0.1l-2.1-0.2
	c-85.9-2.3-171.8-3.1-257.6,0.4c-9.6,0-19.1,0-27.2,0c-8.8-51.5,37.8-82.5,72.9-118c29.6-29.9,64.7-57.1,86.5-91.2
	c-1.6-4.9,2.5-6.6,7.6-7.7c14.6-0.2,18.6,7.2,17.7,15.7C1660,1533.8,1668.4,1551.6,1675.7,1569.8z"/>
<path class="st13" d="M417.7,1365.4c-3.2,5.6-7.9,9.4-17,9.5c-21.4,0.3-42.7-0.6-64,4.2c-12.9,2.9-23.1,0.7-16.1-14
	c6.7-13.9,8-29.2,11.6-43.8c3.6-29.3,3.6-58.6,0-87.8c-13.2-36.4-0.4-73-1.2-109.5c-0.2-8.2,2-15.8,13.9-16.3
	c22.8-1.1,45.8-1,68.7-0.3c13.8,0.4,8,9.5,9.1,15.2c4.9,25.8-11.3,50.9-5.1,76.9c4.1,32.3,0.8,64.7,1.8,97.1
	C418.5,1319.3,421.9,1342.4,417.7,1365.4z"/>
<path class="st14" d="M2154,1277.2c3.2-41.6,11.5-83.1,7.4-125c-0.3-3.2-0.1-6.5-0.3-9.7c-2.2-35.6-2.2-35.7,48.2-35.9
	c32.6-0.1,65.3-0.4,97.9,0.2c9.8,0.2,26.4-5.6,24.4,10.5c-1.5,13-3.1,26.7-25.9,28c-19.5,1.1-39.1,0-58.7,0.3
	c-29.1,0.4-37.9,11.7-27.2,34.2c21.6,5.8,44.5-0.7,66.3,3.9c14.6,1.1,21.2,7.1,19.2,17.8c-1.8,10.1-10.6,15.8-23.6,16.6
	c-14,0.9-28.3,1.3-42.3,0.3c-24.8-1.8-25.3,10.6-25.5,22.9c-0.2,12.1,2.8,22.2,24.8,21.2c20.6-0.9,41.3-0.2,61.9,0
	c12.5,0.1,26.9-2.5,30.5,11.4c3.2,12.5-7.7,17-20.1,20.8c-3.8,1.2-8,1.8-12,2.7c-17.7,9.2-37.9,5.7-57.3,6.5
	c-18.9-1.4-38,0.6-56.8-2.2C2168.1,1298.2,2152.8,1293.4,2154,1277.2z"/>
<path class="st15" d="M17.5,1559.9c9.6-68.5,99.7-117.5,177.6-111.7c28.4,2.1,56.4,6.4,84.7,9.7c7.5,0.9,10.8,4.8,13.2,9.5
	c5.4,13.8,12.7,27.6-3.4,40.4c-18.8,11.8-40.5,10.6-61.7,6.1c-84-18-115.6,13.6-110.9,68.8c1.1,13.6,3,27.3,2.2,41
	c-1.5,3-4.3,7.5-8.4,5.8c-32.8-13.5-47.9,3.9-64.2,19.6c-15.5-4.3-16.8-14.6-18.7-24.6c-0.5-5-0.4-10-0.6-15
	C25.3,1592.8,16,1576.9,17.5,1559.9z"/>
<path class="st0" d="M1341.8,722.5c-11.2-10-26.4-6.2-39.6-4.9c-22.9,2.3-42.5-4.1-62.7-9.6c-13.4-3.7-16.5-11.5-16.5-21.3
	c0-23-15.3-38.9-44.9-44.8c-23.4-4.6-26.9-12.3-15.5-27.1c2.9-3.7,1.1-9.5,1.5-14.3c7-5.9,14.1-2.7,21.3-0.2
	c31,13.4,57.1,31.6,84.9,48.1c50.3,24.1,70.3,22.5,95.4-5.1c11.7-12.9,9.5-22.3-5-31.6c-13.1-8.4-26.6-16.5-39.8-24.8
	c-15.3-9.8-20.6-20.4-4.7-32.8c13.7-10.8,28.5-13.8,45.7-4.5c14,7.6,28.4,14.8,42.2,22.5c30.2,16.9,32.7,41.2,6.3,61.3
	c-7.6,5.8-15,11.8-23.5,16.8c-35.5,20.9-35.7,24.8-0.7,46.7C1373.3,707.2,1360.2,717.4,1341.8,722.5z"/>
<path class="st16" d="M1269,1107.5c-10.2,6.8-22.8,3.5-34.3,3.9c-9.7,0.3-16.3,2.5-20.7,9.2c-5.2,7.8,2.7,11.5,7.4,16.7
	c10,11.1,26.8,12.3,41.1,17.1c-1.6,2.3-4,4.1-7.2,5.2c-17.5,3.2-24.2,11.8-23.4,24.8c0.5,9.6-0.2,19.3-3.3,28.7
	c-6.1,27.4-1.3,55.1-2.9,82.5c-0.6,10.4,1.9,21.3-9,30c-19.6,19.2-47.6,6.2-71.1,10.1c-14.9-9.7-8.6-23-10.4-34.9
	c0.1-27.6,0.1-55.2-0.1-82.8c0.2-26.5-0.1-52.9,0.2-79.4c0.1-9.6-0.6-19.4,9-27.3C1185.4,1101.1,1227.5,1108.8,1269,1107.5z"/>
<path class="st17" d="M2023.5,1296c-9.4,7.6-21.8,5.4-33.4,5.7c-20.6,0.6-42.1-1.2-61.6,2.6c-23.2,4.6-29.5-0.4-29.9-16.6
	c-0.5-16.9,1.5-33.3,7.8-49.5c3.9-40.6,3.8-81.3,0.1-121.9c-0.3-5.1,5.7-8.1,9.7-8.2c44.6-0.3,89.5-7,133.5,3.3
	c-9.9,12.5-24.5,22.9-29.7,37.5c-2.8,1.1-5.8,1.8-8.9,2.4c-23.4,0.1-32.4,9-31.3,26c1.1,16.8,1.7,33.9-0.2,50.6
	c-2.1,19,8.5,28.7,33.1,31.1C2024.3,1270.1,2032.3,1281.7,2023.5,1296z"/>
<path class="st6" d="M1675.7,1569.8c-23.8-13-22.4-32-21.4-50.7c0.4-7,5.5-14.3-7.9-17.5c-42.8-3.5-85.7-4.1-128.6-0.7
	c-14.1,0-28.2,0-42.5,0c15.9-46.8,15.9-46.8,69-49c70.2-2.4,140.4-2.4,210.6,0c17.2,22.9-2.6,41.6-16.4,58.6
	C1721.1,1531.8,1697,1550.1,1675.7,1569.8z"/>
<path class="st18" d="M2220.5,1341.5c28.3-0.3,56.5-1.1,84.7-0.6c12.3,0.2,27.5-0.6,27.9,14.1c0.4,14.5-7.9,23.8-27.9,24.3
	c-26.1,0.6-52.2-0.1-78.2-0.3c-35.1-3-70.3-2.7-105.4-0.1c-65.2,0.4-130.5,0.2-195.7,1.3c-24.6,0.4-23.8-7.7-17.1-20.5
	c7.2-13.7,20.2-19.5,40-19.2c59.8,0.7,119.6,0.8,179.4,1.2C2158.9,1344.1,2189.7,1344.3,2220.5,1341.5z"/>
<path class="st14" d="M2023.5,1144.9c-19.1-23.2,15.1-23.3,26.2-33.4c53.4-0.8,96.1,34.7,91.9,81.2c-5.6,62.8-38.2,90.2-95.7,102.8
	c-6.9,1.5-14.9,0.4-22.4,0.5c5.5-11.7-21.1-19.8-6.6-32.5c10.8-12.6,34-16.3,40.7-31.7c5.9-20.4,1.9-41,2.4-61.5
	C2058.5,1153.4,2027.7,1159.6,2023.5,1144.9z"/>
<path class="st9" d="M48.7,1648.4c9.6-35.3,16.8-37.5,66.9-20.4c43.2,34.5,95.5,32.6,150.3,21c7.4-1.6,15-0.8,21.4,3.2
	c10.5,28.8,1.7,45.9-28.3,55.1c-16.2,6.7-36.3,1.6-52.2,9.5c-55.5,8.6-102.6-3.5-141.4-33.2C53.3,1674.2,36.6,1664.7,48.7,1648.4z"
	/>
<path class="st19" d="M489.5,1321.2c15-5.9,29.2-13.7,47.8-6.6c18,6.8,14.8-14.1,29-12.9c-2.5,18.7,8.2,26,34,24.7
	c30.4-1.5,61.1-1.3,91.5,0c10.8,0.5,31.1-7.7,31.8,6.3c0.7,14.4,16.5,35.5-17.9,42.8c-49.8,3.6-99.6,0.5-149.5,1.7
	c-11.8,0.3-23.9-1.9-35.3,1.9c-9.8,0.1-19.7-0.2-29.4,0.4c-17,1-20.2-8.6-14.7-15.3c9.1-11.1,2.9-22.2,5.9-32.9
	C486.4,1328.6,483.5,1323.2,489.5,1321.2z"/>
<path class="st20" d="M1925.4,1780.1c19.5,0.1,38.9,0.1,58.4,0.2c13.2,4.8,29.1-2.6,41.6,5.2c0.2,8.2-3,14.5-15.5,15.7
	c-272.3,0.1-544.6,0-816.8,0c-10.6,0-21.3,0-32,0c-15.8,1.1-13.2-9.7-18.3-15.6c-0.9-2.2-0.3-4.1,1.9-5.7c6.5,0.1,13.1,0.1,19.6,0.2
	c59.3,4,118.7,0.7,178.1,1.8c63.1,0,126.1,0,189.1,0c119.5,0,238.9,0,358.4-0.1C1901.7,1781.8,1913.8,1783.4,1925.4,1780.1z"/>
<path class="st21" d="M55.5,1044.1c-12-0.3-24-0.4-35.9-1.1c-11.9-0.7-12.9-4.5-4.2-10.2c65.5-3.7,131.1-0.6,196.6-1.6
	c50.2,0,100.5,0,150.7,0c29.1,0,58.2,0,87.3,0c93.9,0,187.9,0,281.8-0.1c10.8,0,21.9,1.4,32.4-1.6c15.1,0,30.3,0,45.4,0
	c78.4,3.7,156.8,0.7,235.2,1.6c45.8,0.5,91.6-0.9,137.3,0.7c5.7,3.9,5.5,8.1,1.4,12.5c-52.4,1.9-104.8,2.6-157.2-0.4
	c-17.4,0-34.8,0.1-52.2,0.1c-52.6,2.4-105.1,2.7-157.7-0.1c-26.1,0-52.2,0-78.4,0.1c-52.6,2.6-105.3,2.6-157.9,0
	c-43.5,0-87.1,0.1-130.6,0.1c-24.3,2.3-48.5,2.5-72.8-0.1c-45.8,0-91.6-0.1-137.3-0.1C178.1,1046.8,116.8,1046.7,55.5,1044.1z"/>
<path class="st22" d="M1183.9,1042.4c0-2.7,0-5.4,0-8.1c6.7-5.2,15.3-2.3,23.1-3.1c44.9,0,89.8,0,134.8,0c45.7,0,91.4,0,137.1,0
	c66.3,0,132.6,0,198.8,0c23.5-0.9,47.1,1.9,70.5-1.7c2.1-0.6,4.2-0.6,6.2,0.1c25.9,3.6,52.1,1.5,78.2,1.5
	c137.3,0.3,274.6,0.1,412,0.2c11.8,0,24-1.9,35.5,1.9c17,0,33.9,0,56,0c-20.8,22.2-46.8,12.7-68.8,14.6
	c-60.7-4.9-121.5-0.6-182.2-2.2c-22.7-0.6-45.6,2.2-68.1-1.8c-120.2,0-240.4,0-360.5,0c-67.9,3.3-135.9,2.7-203.8,0.3
	c-45.7,0.1-91.3,0.1-137,0.2c-32.2,3.1-64.5,0.6-96.8,1.4C1207.1,1044.3,1194.6,1048.9,1183.9,1042.4z"/>
<path class="st23" d="M776.5,1286.9c0.7-16.2,1.4-32.4,2.1-48.6c24.9-3,51.7-13.2,70.1,9.7c9.7,27.4-1.3,55.7,5.9,83.2
	c0.4,9.7,1.3,19.4,1.2,29.1c0,8.6-6.7,15.1-17.8,14c-21-2.2-39.7,7.1-60.3,5.1c-6.3-5.5-8.8-11.6-6.7-18.8
	C779.1,1336.4,769.1,1311.3,776.5,1286.9z"/>
<path class="st24" d="M1144.4,1784.1c15.9,1.2,11.7,7.5,6.6,14.1c-50.2,6.1-100.6,2.8-150.9,1.7c-21.7,0.6-42.8,7.1-64.9,3.2
	c-54.1-4.1-108.3-0.7-162.4-1.9c-11.8-0.3-23.9,1.7-35.4-1.7c-8.5,0.1-17,0.2-25.6,0.3c-39,3.2-78.1,0.6-117.1,1.5
	c-36.6-0.3-73.1,0.5-109.7-0.4c-8.9-12.7,4.5-14.4,15.4-15.9c10.4-1.5,21.2-0.5,31.6-2.9c44.9-0.3,89.7-0.1,134.6-0.1
	c54.4,0,108.8,0,163.2,0c82.3,0,164.5,0,246.7,0C1099.1,1783.1,1122,1779.3,1144.4,1784.1z"/>
<path class="st25" d="M1787.5,706c15.9,0.6,27.6,3.5,13.5,16.9c-16.2,15.4-35.9,28-58.2,38.4c-4.5,2.1-10,6.1-14.6,3.1
	c-23.6-15.3-60.4-12.3-80.3-32.4c-12.7-8.9-8.8-19.5-5.2-30c6.1-11.8,12.4-23.5,18.2-35.4c2.3-4.7,3.7-8.7,12.7-8.2
	c8.8,0.5,10.7,5.4,12.4,9.5c4.1,9.7,5.4,20.1,10.1,29.5c7.1,14.3,16.4,26.9,41.9,15.4c8.8-4,21.6,2,30-5.2
	C1773.9,703,1780.4,702.3,1787.5,706z"/>
<path class="st26" d="M512.9,704.1c27.7-5.9,50.6,0,72.7,5.2c23.6,5.5,36.1,3.1,41.2-16.7c3.8-14.8,9.6-37.2,29.6-37.1
	c21.7,0.1,19.1,23.4,22.3,37c2.8,12.1,22.7,29.6-3.7,37.1c-37.8,10.8-73.1,47.8-119.6,10.1C541.6,728.6,524.7,719.8,512.9,704.1z"/>
<path class="st27" d="M915.4,871.6c0,39.4-49.7,65.8-106.9,53.4c-13.9-3-42.5,4.4-41.8-12.9c0.5-14,26.1-16,43.4-20.1
	c47.5-11.1,47.5-11.2,34.6-49.7c-2.1-6.3-5.5-14.2,2.3-17.5c6.1-2.6,15.8-1.9,24.1,2.9C891.2,839.6,914.1,849.4,915.4,871.6z"/>
<path class="st28" d="M777.4,774.8c27.6,10.9,36,33.1,52.9,50.3c11.4,11.7-6.3,16.3-11.7,20.6c-12.2,9.8-27.9,17.1-36.5,29.7
	c-4.3,6.3-13.5,6.6-22.6,7.4c-32.8,2.7-57.7-11.4-83.5-22c-19.6-8,2.8-15.6,6.6-16c17.8-1.9,34.8-9,53.4-6.3
	c29.1,4.2,32.9-6.9,27.3-24.1c-4.8-10.2-1.8-20.8-2.3-31.2C760.6,774.9,766,771.2,777.4,774.8z"/>
<path class="st29" d="M1479.9,845.4c-0.7,5.9-0.5,10.8-2.1,15.4c-11.1,31.5-11,32.7,32.7,35.8c16.9,1.2,31.7,3.3,33.7,16.8
	c2.3,15.4-18.5,14.3-30.1,16.9c-53.9,12-68.2,10.1-89.7-28.6c-6.1-11.1-30.9-17.8-22.7-29.5c10.1-14.4,29.5-25.3,45.7-37.2
	c7-5.1,16.5-9.4,26.7-5.9C1484.8,832.7,1475.2,840.9,1479.9,845.4z"/>
<path class="st30" d="M672.6,779.8c2,0.2,3.8,0.6,5.5,1.3c9.5,2.2,10.3-2,10.7-7.4c0.7-9.4-2.6-19,2.4-28.2
	c5.8-9.2-7.4-26,14.1-27.8c15.8-1.3,21.6,13.3,29.2,22.3c8.2,9.8,14.8,20.4,22.1,30.7c4.8,5.5-1.6,7-6.1,9.1
	c-13.5,23-46.3,29.1-70.2,42.8c-12.2,7-29.2-1-42.5-6.7c-17.4-7.5-34.8-15.1-51.5-23.4c-6.8-3.4-10.1-8.8-0.7-13.5
	C614.7,777.4,643.7,775.9,672.6,779.8z"/>
<path class="st31" d="M1564.3,818.1c-7.5,18.8,1.8,30.4,37.5,25.6c7.6-1,14.7,4.9,24.2,4.8c10.9-0.1,28,0.1,28.1,10.4
	c0.1,7.3-11.6,14.5-26.3,14.3c-5.6-0.1-11.2,4.2-16.9,6.4c-28.8,10.7-55.4,12.7-75-11.1c-0.5-0.7-1.7-1-2.4-1.6
	c-43.3-33.6-43.4-33.7-8.6-73.6c7.2-8.3,16.5-16,31.6-12.8c15.8,3.4,5.4,13.6,7.6,20.6C1565.3,804.9,1564.3,809.1,1564.3,818.1z"/>
<path class="st32" d="M1635.4,737c0.3,3.2,0.5,6.5,1,9.7c5.1,38.2,5.1,38.2,55.5,38.2c5.4,0,11.1-0.6,16.3,0.2
	c8.7,1.3,21.6-4.6,25.7,4.4c4.6,10.1-7.3,16.1-16.8,21.1c-47.9,25.4-102.4,17.4-136.1-19.7c-1.2-1.3-2.5-2.6-3.2-4
	c-7.4-15.6,29.6-58,52.3-60.1C1635.2,729.1,1633.1,733.6,1635.4,737z"/>
<path class="st33" d="M200.2,911.3c-29.3-26.3-27.3-46.3,5.7-58.6c16.1-1.4,12.7,11.4,20.8,15.7c13.8,10.1,31.8,13.5,49.5,16.9
	c17,3.3,29.4,9.8,34.6,22.6c0.4,16,4.9,32.4-7.3,47.4c-10.3,2.2-17-3.3-24.9-6.3c-14.8-9-30.4-16.7-49.3-20.8
	C217,925.6,206.1,920.5,200.2,911.3z"/>
<path class="st34" d="M528.1,1785c-12.7,9.5-36.8-2.6-46,13.5c-25.5,6.2-51.7,2.6-77.5,2.5c-90.3-0.3-180.6,2.1-270.8-1.2
	c-8.6,1.1-17.3,2.1-25.9,3.2c-7.4-7.2-7.4-13.9,2.3-20c58.3-3.6,116.9,2.2,175.1-3c23.9,0.1,47.8,0.2,71.7,0.3
	c46.5,3.9,93.2,0.5,139.7,1.8C507.3,1782.4,518.5,1779.2,528.1,1785z"/>
<path class="st35" d="M922.4,1681.7c-2-34.2-16-66-34.3-97c2.1-19.3-18.3-40,6.7-57.8c6.6,1.3,7,5.6,8.2,9.4
	c16.2,51.3,45.5,99.4,65.4,149.9c4.8,13.9-5.1,19.4-21.8,20.9C938.5,1698.6,930.5,1690.2,922.4,1681.7z"/>
<path class="st36" d="M1984.5,839.3c33.4,3.7,54.4,15.5,61.5,42.3c8.6,32.6,5.9,60.8-31.3,83.4c-7.8,4.7-14.8,5.7-23.5,5
	c-14.1-12.7-2.6-25.6-0.6-38.5c6.8-18.8,5.8-37.7,1.2-56.7C1991.6,862.8,1975.4,852.5,1984.5,839.3z"/>
<path class="st37" d="M2234.9,965.5c-24.6,6.7-47.1-1-57.3-19.6c-19.7-35.9,2.9-83.7,48.7-102.9c7.6-1.9,12,1.2,15.7,5.5
	c1.3,12-7.8,22.3-9.8,33.8c-6.8,18.9-21.5,37.6-1.1,56.8c1.1,2.1,1.9,4.3,2.5,6.5C2234.6,952.1,2238.4,958.7,2234.9,965.5z"/>
<path class="st38" d="M423.9,946.1c-5.8,9.3,8.2,16.4,4.9,25.4c-1,0.4-2.3,1.3-2.8,1.1c-19.1-8.6-54.1,9.1-59.4-11.4
	c-3.6-14.2,3.6-32.8,2.7-49.6c-5.9-6.1-6.7-12.6-2.7-19.5c12-11.3,31.3-16.5,42.7-28.7c4.6-4.9,13.7-4.3,16.7,3.6
	C424.9,893.5,428.9,919.9,423.9,946.1z"/>
<path class="st39" d="M2017.3,1798.1c2.2-4.2,4.5-8.4,6.7-12.7c20.6-7.7,42.6-3.2,63.8-3.2c66.3,0.1,132.6-2.3,198.9,1.2
	c18.8,0,37.6,0,59.4,0c-6.9,15.4-21.1,14.8-33.6,16.2c-90.4,3.7-180.9,0.6-271.4,1.6C2033,1800.5,2024.1,1803.4,2017.3,1798.1z"/>
<path class="st40" d="M1013.7,917.3c-9.9,15-5.1,35.8-31.9,44c-24.8,2.3-49.6,2.7-74.4-0.2c-12.4,0.3-22.6-3.2-33.9-9.9
	c18.3-10.7,33.8-19.9,57.2-21.8c12.7-1,34.9-3,29.5-21.5C976.3,891.9,999.1,895.9,1013.7,917.3z"/>
<path class="st41" d="M1322.8,940.9c-7.6-11.5-31.3-20.8-23.7-33.2c13-21.3,39.6-35.3,69.1-44.2c14.6-4.4,20.6,1.5,20.2,13.5
	c-0.6,16.8-18.8,28.4-20.8,44.4C1360.7,938.1,1348.9,948.6,1322.8,940.9z"/>
<path class="st42" d="M75.3,842.6c4.4,1.9,8.8,3.7,13.2,5.6l-0.6,0.5c2.9,2,5.2,4.4,6.8,7.1c3.8,17.3,7.8,34.6-4.9,51.1
	c-0.8,9.7-1.6,19.4-2.4,29.2c-18.6,9-34.9,9.1-47.1-6.7c-0.1-28.6-4.5-57.3,2.3-85.8C53.5,843.2,64.4,842.9,75.3,842.6z"/>
<path class="st43" d="M1819.3,926.1c-2.2,18.6,9.9,16.4,27.8,12.2c32.1-7.7,40.5-3,39.3,16.6c-0.8,11.9-8.4,15.4-22.5,15.4
	c-28.3-0.1-56.6,0.1-84.8-0.2c-5.7-0.1-14.4,2.4-16.5-3.9c-2-6-3.6-12.5,4.4-17.9c11.2-7.5,21.8-15.5,32.6-23.3
	C1806.1,925.6,1813.1,921.9,1819.3,926.1z"/>
<path class="st44" d="M2017.3,1798.1c6.5,0.5,13.1,1,19.6,1.5c2,1,2.5,1.8,1.7,2.5c-0.8,0.6-1.5,0.9-2.3,0.9
	c-170.3,0.3-340.7,0.8-511,0.9c-113.6,0-227.1-0.6-340.7-0.9c-2.3-0.4-3.2-1.1-2.8-2c0.5-1,1-1.5,1.6-1.5
	c195.1-0.2,390.3-0.3,585.4-0.5C1851.6,1798.9,1934.4,1798.4,2017.3,1798.1z"/>
<path class="st45" d="M1774.2,608.4c2.2,0.4,4.3,0.8,6.5,1.2c9.8,24.3,11.8,48.6-0.3,72.8c-3,3.6-7.3,5-12.9,4.6
	c-46.4,1-58.2-11.2-36.2-42.3C1741.1,630.9,1742.6,609,1774.2,608.4z"/>
<path class="st46" d="M1957,843.7c9.4,9.6,1.2,19.1-0.5,28.6c-5.4,17.8,1,36.1-3.6,54c-14.4,9.4-31.4,7.3-48.2,6
	c-13.3-26.3-6.9-51.3,11.8-74.3C1924.6,847.9,1938,839.6,1957,843.7z"/>
<path class="st47" d="M2133.5,1515.7c3.5,39,34.2,62.3,80.4,76.3c9.7,2.9,21.8,2.4,27.1,11.1c4.2,9.2,20.6,12.4,20.7,23.6
	c-1.2,3.6-4.2,5.8-9,6.6c-19.2-9-39.6-15.9-60.1-23C2119.2,1584.9,2107,1563.6,2133.5,1515.7z"/>
<path class="st48" d="M2102.2,842.6c12.8,4.4,29.3-5.3,40.4,5.7c-0.6,29.2-1.3,58.5-1.9,87.7c-25.7-2.7-38.2-16.3-48.1-32
	c-1.6-12.1,2.6-24.4-2.5-36.4C2087.9,857.6,2066.4,842.4,2102.2,842.6z"/>
<path class="st40" d="M569,682.5c-18.8,2.9-25-9.3-26.5-18.2c-3-18.2-1.6-36.9-0.4-55.3c0.3-4.6,5.4-11.5,10.6-13
	c8.9-2.6,11.3,4.3,14.7,9.5c9.6,14.7,21.3,28.7,30.1,43.6C608.3,667.4,595.2,682.4,569,682.5z"/>
<path class="st49" d="M1322.8,940.9c20.8,0.9,31.4-11.1,44.8-19.5c18.3,7.1,34.3,17.2,55.4,21.1c13.8,2.5,20,11.3,15.8,22.5
	c-34.3,4.3-68.6,4.5-102.9-0.1C1328.9,957.7,1321.9,950.5,1322.8,940.9z"/>
<path class="st50" d="M731.6,1628c28.3,18.7,34.7,46.9,53.9,69.7c12,14.1,23.2,21.4,44.9,19.6c-49.4,10.6-73,2.9-93.2-30.4
	c-4-6.6-8.2-13.2-12.4-19.8C718,1653.2,695.6,1637.8,731.6,1628z"/>
<path class="st51" d="M1819.3,926.1c-6.5-1.4-14,6.4-19.8-1.2c22-20.9,40-42.9,39.3-70.7c-1.5-3.4-9.2-5-4.9-10
	c18.4-2.7,36.3,0,43.7,12.8c7.6,13.2,10,27.9-7.6,40.6C1854.4,908.9,1835.6,916.1,1819.3,926.1z"/>
<path class="st52" d="M371.6,892.1c0-11.4,0.1-22.7,0.1-34.1c1.1-6,2.6-11.8,12-13.7c21.2-1.9,42.4-4.6,63.7-5.5
	c18.9-0.8,26.8,8.3,27.7,21.6c0.6,8-0.8,15-13.3,16.6c-14.6,1.9-11.3-6.6-12.1-12.5c-2.2-14.9-11.6-15-25.2-6.9
	c1.7,2.5,0.8,4.2-2.6,5.4C408.1,875.5,395.7,889.4,371.6,892.1z"/>
<path class="st53" d="M894.8,1526.9c-10.2,18.8-4.8,38.5-6.7,57.8c-11.2-11.4-5.6-25.7-12.5-38.2c-7-12.7-12.5-5.2-19.3-1
	c-2.3-28.1,0.7-57.5-33.4-78c10.7,1.2,21.1,3.3,21.8-9.6c0.2-4.5,7.1-5.4,11.1-0.2C876.8,1478.3,882.2,1503.7,894.8,1526.9z"/>
<path class="st54" d="M1013.7,917.3c-16.1-8.6-31.1-20.8-53.6-9.4c-15.2-10.3-17.6-26.1-29.8-37.9c-4.5-4.3-4.6-10.7,7.5-11.6
	c34.9-2.6,55.5,16.9,79,30C1028.3,894.9,1022.4,907.9,1013.7,917.3z"/>
<path class="st55" d="M1368.9,286.6c21.3-24.9,41.5-48.7,62.1-72.4c5.3-6.1,11.5-11.7,17.8-17.2c5.1-4.4,13.4-9.3,19.6-6.2
	c8.9,4.5,1.9,10.7-1.5,16.8c-16.5,28.9-46.1,50.7-71.5,74.7C1388.8,288.5,1380.7,288.1,1368.9,286.6z"/>
<path class="st56" d="M2303.7,902c14,19,12.5,37.6-3.4,55.6c-10.1,11.4-24.9,14.6-42.2,12.4c-2.6-0.3-4.6-2.9-6.9-4.4
	c-5.2-5.7-1.8-11.6-0.9-17.5c0.9-7.2,1.4-14.5,4.4-21.5C2265.5,912.2,2275.9,897.5,2303.7,902z"/>
<path class="st57" d="M48.7,1648.4c-1.7,16,14.8,24.3,27.2,33.6c35.9,26.8,80.1,38.1,130.9,34.8c-44.4,5.3-88.8,10.8-131.5-5.6
	c-20.1-22.9-50.7-41.2-54.9-71.1c-0.9-6.2-4.7-12.4-2.7-18.8c1.1-3.7,2.7-8.4,9.8-7.4c6.5,1,4.1,6.7,7.3,9.7
	C37.6,1632.4,40,1641.4,48.7,1648.4z"/>
<path class="st58" d="M872.5,190.1c7.5-0.2,12.6,3.5,16,7.4c24,27.9,47.5,56,71,84c2.4,2.8,3.4,6.3-0.4,8.8
	c-5.2,3.5-10.5,1.3-14.2-1.6c-34.1-26.6-58.8-58.1-81.9-90.3C858.6,192.4,864,189.6,872.5,190.1z"/>
<path class="st59" d="M862.2,1242.8c0.2-4.8,0.5-9.6,0.7-14.4c26.6,7.3,36.1,25.9,48.9,41.8c19.4,24,38.2,48.4,57.7,72.4
	c5.9,7.3,10.1,16.5,24.7,17.2c4.6,4.6,9.1,9.1,13.7,13.7c-10.9,6.2-22.5,4-34.1,1.4c-32.3-37.9-64.7-75.8-97-113.8
	C871.7,1255.2,867,1248.9,862.2,1242.8z"/>
<path class="st60" d="M2280,1033.2c-168,0-336,0.1-504,0c-7.5,0-15.4,0.8-21.6-3.7c170.5-0.2,341.1-0.5,511.6-0.7
	C2271.3,1028.9,2276.9,1028.9,2280,1033.2z"/>
<path class="st61" d="M2096.3,906.8c14.8,9.7,29.6,19.4,44.3,29.2c0.1,15.8,11,35.4-28.2,35c-26.6-0.2-40-3.9-23.8-25.2
	c1.9-2.6,1-6.3,1.4-9.5C2096.7,927,2087.1,915.8,2096.3,906.8z"/>
<path class="st62" d="M1354.2,200.1c2.9,36.1-17.7,63.7-55.7,85.4c9.2-30.8,18.6-61.2,36.8-89.7
	C1345.2,188.6,1349.4,195.1,1354.2,200.1z"/>
<path class="st63" d="M35,1623.5c-2.3-1.7-4.4-4.7-6.9-4.8c-9.9-0.7-5.3,5.5-4.6,7.7c8.9,26.4,18.3,52.5,48.4,71.2
	c3.5,2.1,22.4,6.4,3.4,13.5c-59-28.9-87.1-82.1-64.6-122.1c23.1-3.2,19.8,11.2,24.4,20.2C35.2,1614,35.1,1618.8,35,1623.5z"/>
<path class="st64" d="M2303.7,902c-18.1,4.3-32.2,12.5-42.5,24.4c-9.4-3-12.7-9.2-15-15.8c-3.4-13.9-0.4-26.7,11.5-38
	c10.6-9.4,3.8-32.6,35.8-25.1c23.1,8.7,17.1,26.1,6.7,33C2282.1,892.2,2297.8,895.4,2303.7,902z"/>
<path class="st65" d="M1528.3,404.8c29-30.4,78.3-38.8,113.6-62.1c6.3-4.1,14-1.8,20.6,2.5c6.2,4,3.2,8-0.7,9.8
	C1619.5,374.8,1577.1,394.7,1528.3,404.8z"/>
<path class="st66" d="M640.4,339.9c18.3-4.9,29.4-5.1,40.4-0.2c31.3,13.9,62.7,27.7,93.8,41.8c5.1,2.3,12.1,6.2,7.1,11.3
	c-2,2.1-11,2.7-14.9,1.2C725.1,378.4,680.8,365.9,640.4,339.9z"/>
<path class="st67" d="M1014.7,281.7c-12-19.8-23.6-39.7-36-59.3c-6.4-10-4.5-18.5,9.3-21.8c14.4-3.4,16.9,5.7,20.1,14
	c7.1,18.3,15.6,36.3,23.5,54.4c7.7,5.4,7,12.8,1.6,17.2C1026.3,291.7,1020.1,285.4,1014.7,281.7z"/>
<path class="st68" d="M133.8,1799.8c116.1-0.4,232.2-0.9,348.3-1.3c37.2,0.4,74.5,0.8,111.7,1.2c1.9,1,2.5,1.9,1.6,2.6
	c-0.7,0.6-1.5,0.9-2.3,0.9c-145.9,0.1-291.7,0.3-437.6,0.3C148,1803.6,140.1,1804.1,133.8,1799.8z"/>
<path class="st69" d="M1466.6,375.4c21.7-28.9,54.1-45.5,86.9-61.8c4.6-2.3,11.3-3.2,14.8,0.6c5.5,5.9-0.3,11.1-5.5,14.9
	C1535.9,348.5,1508.7,367.9,1466.6,375.4z"/>
<path class="st70" d="M1204.2,930.9c1.1,20.8-17.5,23.5-33.5,24.5c-15.3,0.9-27.1-7.4-25.6-19.3c1.4-11.2,4.4-25.8,26.2-24.3
	C1187.6,912.9,1206.1,916.1,1204.2,930.9z"/>
<path class="st71" d="M1203.8,1032.8c-6.6,0.5-13.2,1-19.9,1.5c-112.1-0.3-224.3-0.5-336.4-1c-12.7-0.1-26.2,3-37.8-3.7
	c131.2,0,262.5,0,393.7-0.1C1203.5,1030.6,1203.6,1031.7,1203.8,1032.8z"/>
<path class="st72" d="M1925.4,1780.1c-8.4,5.3-18.6,3.8-28.2,3.8c-121.8,0.1-243.6,0.1-365.4,0.1c-2.2-0.7-3-1.5-2.5-2.4
	c0.6-1,1.2-1.5,1.9-1.5C1662.6,1780.1,1794,1780.1,1925.4,1780.1z"/>
<path class="st73" d="M745.2,498.5c-47.5,5.7-92.9,0.7-142.9-14.3C658.6,465.5,698.7,499.3,745.2,498.5z"/>
<path class="st29" d="M1904.7,932.2c13.1-11,30.5-3.9,45.7-5.9c6,2,3,7.2,6.7,10.1c-6.1,12.6,4.1,22.8,9.1,33.8
	c-15.4,13.3-24,0.2-32.9-5.5C1919.7,956.1,1908.6,945.8,1904.7,932.2z"/>
<path class="st74" d="M1773.8,541.3c3.5,6.1-4.4,9.6-6.2,14.5c-1.8,0.3-3.7,0.5-5.5,0.6c-33,4.9-66.7-1.2-99.7,3.2
	c-12.7,1.1-25.5,2.4-43.2-2.6c24-17.8,51.4-9.3,75.3-11.1C1720.9,544.1,1747.4,542.8,1773.8,541.3z"/>
<path class="st75" d="M43.3,931.4c13.7,6.6,29.2,4.3,44.1,4.6c14.5,27.4-0.5,38.8-37.6,38.2c-20.2-10.9-6.6-26.6-10-39.8
	C41,933.4,42.1,932.4,43.3,931.4z"/>
<path class="st76" d="M1814.7,859.1c-1.6,2.9-4.2,5.7-4.7,8.7c-2.2,13.8-13,23-30.6,21.8c-8.2-0.5-16.2-10.8-18-19
	c-3-13.9,7.9-20.6,25-22.9C1799.2,846.9,1817.4,838.7,1814.7,859.1z"/>
<path class="st77" d="M1591.5,496.8c39.9-2.2,74.8-20.3,115.3-19c5,0.2,11.6-1.4,13.8,3.6c2.1,4.7-3.3,9.2-7.4,9.4
	C1672.6,492,1633.7,508.3,1591.5,496.8z"/>
<path class="st78" d="M107.5,1785.4c0.2,5.9,0.3,11.7,0.5,17.6c-20.5,0.3-41,1.1-61.6,0.8c-7.7-0.1-18.7,4-22.5-4.4
	c-3.3-7.2,5-11.6,11.7-15.7c20.9-3.7,42.2-0.8,63.3-1.7C102.7,1781.7,105.6,1782.8,107.5,1785.4z"/>
<path class="st79" d="M745,301.4c24.7-1.5,37.8,11.6,52.5,22.8c8.1,6.2,16.5,12.1,24.8,18.1c2.7,4.9-0.4,7.9-6.1,9.9
	c-31.4-10-56-26.9-79.3-44.8C735.5,302.4,738.8,300.8,745,301.4z"/>
<path class="st80" d="M1158.6,170.5c3.4-11.1-12.1-31.3,12.4-31.3c18.5,0,10.1,19.7,9,30.7c-2.6,26.1-7.2,52-11,78.1
	c-17.4-6.6-6-18.1-7.6-27.2C1158.5,204.1,1163.9,187.1,1158.6,170.5z"/>
<path class="st81" d="M232.1,955.8c4.3,3.3,8.6,6.7,12.9,10c1.5,12.9-15.1,2.9-19.4,8.5c-23.4,1-45.1,0.2-45.7-23.4
	c-4.8-5-5.4-9.7,1.7-13.9c3.9-0.6,7.8-1.1,11.7-1.7c4.4,1.9,8.7,3.9,13.1,5.8C219.8,941.4,229,945.7,232.1,955.8z"/>
<path class="st82" d="M717.4,554.9c-23.7,1.6-47.4,3.2-71.1,4.8c-24.3-4.3-49.4,1.2-73.8-3.1c-9.6-19.9,15.7-5.8,20.4-11.6
	c26-3,52.2-0.6,78.3-1.4c12.8,0.1,25.7-0.5,38.4,0.3C719,544.6,723.8,547.8,717.4,554.9z"/>
<path class="st83" d="M671.4,1706c0.2-19.4,0.7-38.8,0.6-58.2c-0.1-16.7,8.3-26.3,32.9-23.6c16.7,10.4,10.9,25.1,13.1,38.3
	c-4.1-0.9-9-1.1-12.2-2.9c-23.6-13.3-26.1-3.3-27.2,12.2C677.8,1683.2,686.1,1696.1,671.4,1706z"/>
<path class="st84" d="M764.3,1029.5c-6.2,4.4-14.1,3.9-21.6,3.9c-98.2-0.4-196.3-0.8-294.5-1.2c0.4-1,0.9-2.1,1.3-3.1
	C554.4,1029.2,659.3,1029.4,764.3,1029.5z"/>
<path class="st85" d="M528.1,1785c-45.5-0.4-91-0.6-136.5-1.2c-11.6-0.2-24,2.3-34.6-3.6c103,0.1,206.1,0.2,309.1,0.3
	c1.7,1,2.1,1.8,1.3,2.5c-0.7,0.6-1.4,0.9-2.1,0.9C619.6,1784.3,573.9,1784.7,528.1,1785z"/>
<path class="st72" d="M2286.6,1783.4c-87.6,0.7-175.1,1.3-262.7,2c-13.2-2.6-28,1.9-40.2-5.1c52.6-0.5,105.2-1.1,157.7-1.6
	c6.6,0,13.1,0.1,19.7,0.1C2202.8,1783.4,2245.3,1773.7,2286.6,1783.4z"/>
<path class="st86" d="M823.4,272.8c-29.7-12.9-39.4-39-65.1-54.5c-6.4-6.9-3.4-9.8,7.2-9.6c23.7,18.2,47.4,36.3,71.2,54.5
	C840.8,272.9,838.1,277.4,823.4,272.8z"/>
<path class="st87" d="M1217.9,1453.7c-0.3,61.4-0.2,122.8-1.2,184.2c-0.2,11.6,6.1,24.1-5.9,34.7c-0.4-67.7-1-135.4-1.1-203.1
	C1209.6,1463.8,1205.3,1456.1,1217.9,1453.7z"/>
<path class="st88" d="M611.6,330.8c-14,2.8-22.7-2.1-30.1-5.6c-13.6-6.4-36.9-14.1-24.9-27.8c8.1-9.3,24.1,4.4,35.7,9.6
	c7.4,3.3,14.7,6.7,21.8,10.3c5.1,2.6,12.8,4.6,10.7,10.5C622.4,334.3,613.6,329.8,611.6,330.8z"/>
<path class="st89" d="M1681.2,1321c5.1,15,17.7,28.5,13.7,45.2c-1.9,7.8,6.4,8.7,14.2,9.3c-15.2,13.4-25.5,13.6-32.9,0.4
	c-2.9-5.1-4.8-10.5-7.2-15.7C1667.5,1346.2,1656.5,1330.5,1681.2,1321z"/>
<path class="st90" d="M489.5,1321.2c-1.7,3.6-1,8.1-7,10.1c-0.3-65.7-0.5-131.3-0.8-197c0-4.8-0.1-9.8,5.7-13.3
	C488.1,1187.8,488.8,1254.5,489.5,1321.2z"/>
<path class="st91" d="M2036.2,1803.1c0.2-1.2,0.5-2.3,0.7-3.5c91.9,0,183.7,0.1,275.6,0.1c-6.1,4.4-13.9,4.3-21.4,4.2
	C2206,1803.7,2121.1,1803.4,2036.2,1803.1z"/>
<path class="st92" d="M383.7,844.3c-4,4.6-8,9.1-12,13.7c-14.5-12.6-20.2-0.3-24,6.1c-6.2,10.3-14.2,15.4-29.4,12.8
	c-9.9-6.7-8-15.3-7-23.8C332.4,836.8,359.1,845.3,383.7,844.3z"/>
<path class="st93" d="M1544.8,234.4c-8.8,17.7-25.1,31.2-43.5,43.6c-6,4-12.9,7.4-19.6,2.6c-6.9-4.9,1.9-8.6,5.1-11.9
	c15.7-16.1,31-32.6,57.8-39.8c2.1,1.2,2.8,2.4,2.2,3.6C1546.1,233.8,1545.4,234.4,1544.8,234.4z"/>
<path class="st94" d="M1760.4,311.5c-16.1,10.4-30.1,23.6-53.6,24.8c-6.2,0.3-16,3-17.7-6c-1.3-6.5,4.3-7.4,10.8-9.3
	c20.8-6.1,38.4-17.4,61.2-20.2C1765.1,304.5,1764.7,308,1760.4,311.5z"/>
<path class="st95" d="M1518.6,141.7c-9.4,10.7-18.5,21.4-28.2,31.9c-2.9,3.2-7.4,7.4-13.1,5.2c-6.5-2.5-4-7.5-3.1-12.3
	c3.3-16.7,17.4-28,32.6-39C1521.6,125.5,1523.4,127.6,1518.6,141.7z"/>
<path class="st96" d="M1504.6,1715.5c7.2-1.4,14.4-4.1,21.6-4.1c72.7-0.3,145.4-0.2,218.1,0c6.3,0,13.2-0.7,18,3.7
	C1676.3,1715.2,1590.4,1715.4,1504.6,1715.5z"/>
<path class="st97" d="M488.3,970.3c-8.6-0.7-21.3,3-19.4-9.5c1.8-11.7,5.6-21.2,26.4-20.1c12.7,0.6,19.6,2.1,20.3,13.3
	C516.5,969.9,503.6,970.5,488.3,970.3z"/>
<path class="st98" d="M1078.6,1784c-82.8-0.1-165.7-0.1-248.5-0.2c-2.2-0.6-3.1-1.3-2.6-2.2c0.6-1,1.2-1.5,1.8-1.5
	c83.3,0.1,166.6,0.1,249.9,0.2c1.8,1,2.3,1.9,1.5,2.6C1080.1,1783.6,1079.3,1784,1078.6,1784z"/>
<path class="st99" d="M2016.9,1043.8c77.8-0.2,155.6-0.4,233.4-0.5c6.1,0,13.3-1.1,16.9,4.5c-75.3,0.2-150.5,0.3-225.8,0.4
	C2032.8,1048.2,2023.7,1049.3,2016.9,1043.8z"/>
<path class="st100" d="M762.9,78.1c0-3.3,0.1-6.5,0.1-9.8c10.2-6.4,22.3-9.5,27.4,2.1c6.4,14.6,19.2,27.8,20.5,47
	C789.5,105.3,777.2,91,762.9,78.1z"/>
<path class="st101" d="M1256,204.6c-23.3-17.7-15.1-35.3,0.5-52.8c6.2-4.4,12.4-4.5,18.5,0.1c3.3,11.6-1,22.5-6.4,33.2
	C1262.4,190.9,1270.1,201.6,1256,204.6z"/>
<path class="st102" d="M318.3,1717.1c-18.9-5.2-5.7-10.3,0.2-15.4c3.8,12.9,17.7,9.1,28.7,9.2c62.6,0.3,125.3,0.4,187.9,0.6
	c-16.4,8.6-35.6,2.5-53.1,5.5C427.4,1717.1,372.8,1717.1,318.3,1717.1z"/>
<path class="st103" d="M1523.6,106.1c3.3-13.3,17.1-22.2,25.7-33.2c5.3-6.7,14.1-12.9,23.4-8.1c10.7,5.6,2.2,13.2-4,18.6
	c-14,12.2-28.7,23.9-43.1,35.8C1520.6,115.2,1521.6,110.7,1523.6,106.1z"/>
<path class="st104" d="M1452,1453.6c-76.3-0.4-152.7-0.8-229-1.3c7.6-6.4,17.9-4.8,27.3-4.9c59.6-0.1,119.1,0.1,178.7,0.2
	C1437.5,1447.7,1446.7,1446.5,1452,1453.6z"/>
<path class="st105" d="M458,264.5c24.7-4.2,44.7-1.4,59.6,13.1c3.3,3.2,11.7,5.2,5.4,11.1c-4.8,4.5-14.2,5.7-17.1,3.1
	C492.9,280.1,467.6,280.8,458,264.5z"/>
<path class="st106" d="M1714.6,413.6c-15.9,11.2-33.2,20.3-56.1,20.5c-4.8,0-12.2-1.1-13.9-3.5c-4.1-5.6,3.5-9,8.8-10.6
	c13.4-4.2,24.9-12.6,41.1-11C1702.1,408.3,1711.8,402.4,1714.6,413.6z"/>
<path class="st107" d="M607.1,408.7c-35.9,7.7-59.9-12-88.4-21.6c33.5,0.1,64.9,6.5,94.7,17.5C612.1,406.6,610,407.9,607.1,408.7z"
	/>
<path class="st108" d="M812.2,121.3c26.7,8.8,39.8,24.1,47.9,42.8C829.3,165.3,822,158.9,812.2,121.3z"/>
<path class="st109" d="M161.7,853.1c-0.3,4-0.7,7.9-0.7,11.9c0,6.3-3.6,11-12,12.2c-9.4,1.3-8.2-5.8-11.2-9.4
	c-3.9-4.7-7.4-9.5-11-14.3c-4.8-4.3-24.7-5.7-4.9-14.6C140.3,835.7,153.4,840.6,161.7,853.1z"/>
<path class="st110" d="M1754.9,1451.9c-70.2,0-140.4,0-210.6,0c37.8-9.7,76.8-2.7,115.1-3.3
	C1691,1448.1,1723.6,1442.8,1754.9,1451.9z"/>
<path class="st111" d="M1055.7,143.5c-5.9-17.9-0.1-34.1-9.3-48.8c-3.7-5.9,0.3-14.7,9.8-15.3c8.3-0.5,10.6,7.6,8.5,13.1
	C1059,108.6,1085.4,126.3,1055.7,143.5z"/>
<path class="st112" d="M421.6,555.2c-27.7,15.2-50.1,8.3-72-9.5c12.4-7.5,23.5,4.5,33.8-0.7c10.5-2.3,21.4-1.7,31.9-0.9
	C424.6,544.9,429.2,548.5,421.6,555.2z"/>
<path class="st113" d="M159.8,964.8c-13.1,8.4-28.2,5.6-45.2,4.1c6.2-13.2,20.4-20.2,32.6-28.5C177,941.2,162.9,954.5,159.8,964.8z"
	/>
<path class="st114" d="M1452.5,1044.1c67.9-0.1,135.9-0.2,203.8-0.3C1588.4,1050.3,1520.4,1052,1452.5,1044.1z"/>
<path class="st115" d="M1681.3,1032.2c-67.2,0.2-134.4,0.3-201.6,0.5c-0.3-1.1-0.7-2.1-1-3.2c67.9-0.1,135.9-0.2,203.8-0.4
	c2.1,1.2,2.6,2.1,1.5,2.6C1683.4,1032,1682.5,1032.2,1681.3,1032.2z"/>
<path class="st116" d="M212.4,1032.5c-65.7,0.1-131.3,0.2-197,0.3c31.5-9,64.3-2,96.4-3.8c33.6-1.9,67.7,0.1,101.5,0.4
	C213,1030.4,212.7,1031.4,212.4,1032.5z"/>
<path class="st117" d="M946.6,1707.1c7.4-6.9,22.1-9.6,21.8-20.9c10.2,29.9,42.8,24.9,71.8,25.5c-27.6,11.1-57.7,1.2-86.3,5.3
	C952.4,1717.1,949.1,1710.5,946.6,1707.1z"/>
<path class="st118" d="M600.6,478.7c-20.8,11.4-38.1,12.1-54.1-0.2c-4.4-3.4-9.3-9.6-1.9-12.1C565.7,459.2,580.1,471.7,600.6,478.7z
	"/>
<path class="st119" d="M737.3,1799.5c61.2-0.2,122.3-0.5,183.5-0.7c5.5,0,10.9,0.4,14.3,4.3C869.2,1803,803,1807.8,737.3,1799.5z"/>
<path class="st120" d="M2010.4,1662.3c2.4,1.6,4.9,3.2,7.3,4.8c4.8,16.6,1.8,32.6-6.5,48.2c-9.1-9.5-18.3-18.9-27.4-28.4
	C1971.8,1666.2,1996.2,1667.3,2010.4,1662.3z"/>
<path class="st121" d="M1544.8,234.4c-0.1-1.8-0.2-3.7-0.3-5.5c7.5-17.2,31.6-26.3,38.8-43.6c1.6-3.7,5.7-5.5,9.7-4.1
	c5.9,2,5.9,7,3.6,10.4C1584.5,209.2,1573.2,227.6,1544.8,234.4z"/>
<path class="st122" d="M1531.3,1780.1c0.2,1.3,0.4,2.6,0.6,3.9c-63.5,0.1-127,0.1-190.5,0.2c-2.1-0.9-2.8-1.7-2.2-2.7
	c0.7-0.9,1.4-1.4,2.1-1.4C1404.5,1780.1,1467.9,1780.1,1531.3,1780.1z"/>
<path class="st123" d="M2010.4,1662.3c-0.9,5.1-3.2,9.7-11.5,9.8c-13.8,0.2-15.3,6.9-15.1,14.8c-11.5-15.6-26.5-27.7-52.5-28.6
	c24.1-5.2,48.2-4.1,72.5-0.8C2006,1659.1,2008.2,1660.7,2010.4,1662.3z"/>
<path class="st124" d="M1062,151.6c34.4,8.2,23,26.7,22.2,45.9C1057.2,185.4,1057.1,169.8,1062,151.6z"/>
<path class="st125" d="M1183.9,1042.4c10.8,0.6,21.7,1.1,32.5,1.7c2.2,0.6,3,1.3,2.5,2.2c-0.6,0.9-1.2,1.4-1.8,1.4
	c-57.5,0.1-115.1,0.3-172.6,0.5c-6.6,0-13.1-0.3-18.1-4.1C1078.9,1043.5,1131.4,1042.9,1183.9,1042.4z"/>
<path class="st126" d="M450.4,541.8c19.1,1.3,37.6,5.9,57.1,4.3c6.5-0.5,13.6,0.4,13.1,7.5c-0.5,7.1-8.2,6-14.2,7
	c-23,3.9-39.1-6.5-56.3-14.9C445.7,544.2,445.8,542.9,450.4,541.8z"/>
<path class="st127" d="M55.5,1044.1c61.3,0,122.6-0.1,183.9-0.1c-14.5,7.6-31.3,5-46.8,4.4C146.9,1046.3,100.8,1052.6,55.5,1044.1z"
	/>
<path class="st128" d="M1734.8,481.3c11.8-4.5,23.3-10,35.7-13.3c7.3-2,18.8-3.8,22.4,4.3c3.7,8.3-6.7,10.8-14.6,13.2
	C1764.7,489.6,1750.8,488.1,1734.8,481.3z"/>
<path class="st129" d="M298.4,872.6c-7.7-0.8-16.2,2.1-21.2-6.6c-4-6.9-12.1-13.2-24.2-13.9c-4.3-2.6-4.2-5.1,0-7.7
	c4.2-0.7,8.4-1.3,12.6-2c15,0,27.4,3.4,33.4,14.7C307.3,862.5,315.7,867.8,298.4,872.6z"/>
<path class="st130" d="M1183.4,1799.5c0.4,1.2,0.8,2.4,1.1,3.5c-61.5-0.6-123.2,4.7-184.5-3.2c50.3-0.6,100.6-1.1,150.9-1.7
	C1161.7,1798.7,1172.6,1799.1,1183.4,1799.5z"/>
<path class="st131" d="M1157.1,21.2c4.2-7-7.7-19.4,11.2-21.1c10.7-1,15.2,7.2,12.8,13.6c-3.7,10.1,2.5,26.9-16.6,28.1
	C1152.3,42.6,1160.4,28.5,1157.1,21.2z"/>
<path class="st98" d="M520.7,1379.2c16.5-8.4,35.2-3.8,52.7-4c44-0.7,88,0.2,132.1,0.4c-4.6,1.6-9.1,3.2-13.7,4.8
	C634.8,1379.9,577.8,1379.5,520.7,1379.2z"/>
<path class="st132" d="M1014.5,1112.5c-0.6,43.6-1.3,87.3-1.9,130.9c-2.4,2-3.9,1.6-4.6-1c-0.7-38.6-1.4-77.2-2.1-115.8
	C1005.8,1120.9,1005.7,1115.2,1014.5,1112.5z"/>
<path class="st133" d="M1341.2,1780.1c0.1,1.3,0.1,2.7,0.1,4c-49.8,0-99.6,0.2-149.3,0c-9.5,0-19.7,1.9-27.7-4.1
	C1223.2,1780.2,1282.2,1780.1,1341.2,1780.1z"/>
<path class="st134" d="M285.3,1779.9c-18.1,8.6-38.1,3.6-57.2,4.1c-40.2,1-80.4,0.9-120.7,1.3c0,0,0.7-1.5,0.7-1.5
	c-2.2-1-2.9-1.8-2.1-2.6c0.8-0.7,1.6-1.1,2.5-1.1C167.5,1780.1,226.4,1780,285.3,1779.9z"/>
<path class="st135" d="M704.8,288c-15.1-3.4-24.5-11.5-34.4-21.8c27.8-7.9,42.6,2.4,55.5,16.2C723.4,293.6,713.7,290,704.8,288z"/>
<path class="st136" d="M1157.4,90.7c0.7-9.1-2.6-19.4,11.5-20.4c7.5-0.6,16.3,5.7,12.1,13.7c-4.2,8,4.9,22.6-15,22.6
	C1150.8,106.7,1163.1,94.4,1157.4,90.7z"/>
<path class="st137" d="M607.1,408.7c2.1-1.4,4.2-2.7,6.3-4.1c24.5-1.5,43.9,8.9,65,15.3c1.3,7.6-2.1,11.6-13.3,9.5
	C642.6,427.4,627.1,414.6,607.1,408.7z"/>
<path class="st138" d="M548.1,1451.7c-55,0-109.9,0.1-164.9,0.1C438.1,1444.8,493.1,1446,548.1,1451.7z"/>
<path class="st139" d="M758.3,1452.1c-54.4,0.5-108.8,1-163.2,1.5c8.3-9.4,21.5-6.1,32.3-5.6C671,1450,715.1,1442.8,758.3,1452.1z"
	/>
<path class="st140" d="M829.4,1780.1c0.3,1.2,0.5,2.5,0.7,3.7c-54.9,0.1-109.8,0.1-164.8,0.2c0.4-1.1,0.7-2.3,0.8-3.5
	C720.5,1780.4,775,1780.2,829.4,1780.1z"/>
<path class="st141" d="M1906.5,1116.4c9.1,40.6,9,81.3-0.1,121.9C1906.4,1197.6,1906.5,1157,1906.5,1116.4z"/>
<path class="st142" d="M816.4,1044c52.6,0,105.1,0.1,157.7,0.1C921.5,1050.9,869,1050.8,816.4,1044z"/>
<path class="st143" d="M580.2,1044.1c52.6,0,105.3,0,157.9,0C685.4,1050.4,632.8,1051.2,580.2,1044.1z"/>
<path class="st144" d="M587.6,1569.5c-0.8-22.7-1.5-45.4-2.3-68c5-15.8-4.1-33.1,9.2-48.1c-0.7,38.9-1.4,77.7-2.1,116.6
	C590.4,1571.9,588.8,1571.8,587.6,1569.5z"/>
<path class="st145" d="M106.9,911.7c4.6-6.6-6.9-21.3,13.7-19.4c27.5,2.5,9.3,18.9,12.8,28.8C122.5,921.2,109.4,924.8,106.9,911.7z"
	/>
<path class="st146" d="M212.4,1032.5c0.4-1,0.8-2.1,1-3.1c50.1,0,100.2,0,150.3-0.1c0.4,1.1,0.8,2.2,1.2,3.2
	C314,1032.5,263.2,1032.5,212.4,1032.5z"/>
<path class="st147" d="M1380.3,112.1c7.2-5.1,12.6-17.7,23.8-11.6c13.1,7.2-1.6,17.3-4,26.2c-4.5,2.8-1.7,10.6-11.2,9.8
	c-5.9-0.5-9.6-3.9-10.6-8C1377,123,1375.8,117.3,1380.3,112.1z"/>
<path class="st148" d="M765.5,208.7c-5.9,1.7-7.3,5.4-7.2,9.6c-15.6-13-31.2-25.9-46.8-38.9C742.8,177,747.4,199.2,765.5,208.7z"/>
<path class="st149" d="M1138.9,1218.1c0.1-35.4,0.1-70.8,0.2-106.2c1.7-0.4,3.5-0.6,5.3-0.5c-0.3,35.9-0.6,71.8-0.9,107.8
	C1141.1,1220.8,1139.6,1220.4,1138.9,1218.1z"/>
<path class="st150" d="M1281.7,1715.3c48.2-9.1,97.1-2.1,145.7-3.4C1379.2,1721,1330.3,1714.5,1281.7,1715.3z"/>
<path class="st151" d="M2293.4,847.3c-15-0.6-23.8,3-22,15.9c0.7,4.6,4.5,11.3-6.3,13.5c-7.9-9.7-11.4-21.5-25-28.5
	c-4.6-1.8-9.2-3.6-13.8-5.4C2249.9,833.9,2271.3,843.7,2293.4,847.3z"/>
<path class="st152" d="M1380.3,112.1c0.2,6.9-5.8,15,4.2,20.2c7.8,4,10.4-3.5,15.6-5.5c-1.3,12.1-5.3,23.6-12.4,34.4
	c-9.2-2.4-19-4-26.2-9.5C1388.4,143.9,1362.5,122.2,1380.3,112.1z"/>
<path class="st153" d="M2122.5,1706c28.8,0.6,58.8-4.4,84.8,9.9c-15.4,4.3-30.8,3.4-46.3,0.5C2147.1,1715,2130.7,1718.9,2122.5,1706
	z"/>
<path class="st154" d="M1517.8,1500.9c42.9-6.5,85.8-7.8,128.6,0.7c-3.2,1.5-6.4,3.1-9.6,4.6
	C1597.7,1497.4,1557.4,1503.7,1517.8,1500.9z"/>
<path class="st155" d="M1361.5,151.7c10.7,0.1,25.6-6.1,26.2,9.5c-6.6,5-13.3,9.9-19.9,14.9c-21.6,3.4-16.9-6.3-13.9-15.3
	C1356.4,157.8,1359,154.7,1361.5,151.7z"/>
<path class="st156" d="M944.9,134.5c-2.2-1.1-3.6-2-5.1-2.7c-17.9-8-12-20.3-9.8-31.7c0.1-0.8,6-2.1,7.6-1.4c14.6,7.4,13.5,18,10,29
	C946.8,129.8,945.8,132,944.9,134.5z"/>
<path class="st157" d="M1203.8,1032.8c-0.2-1.1-0.3-2.2-0.4-3.3c46.1,0,92.1,0,138.2-0.1c1.9,1.1,2.4,1.9,1.6,2.6
	c-0.8,0.6-1.5,0.9-2.4,0.9C1295.1,1032.9,1249.4,1032.8,1203.8,1032.8z"/>
<path class="st158" d="M1340.7,1032.9c0.3-1.2,0.6-2.3,0.8-3.5c45.7,0,91.4,0,137.1,0c0.2,1.1,0.5,2.2,1,3.2
	C1433.4,1032.7,1387.1,1032.8,1340.7,1032.9z"/>
<path class="st159" d="M1787.7,292.6c5.4-11.1,20.2-13.7,32-18.6c5.7-2.3,16.2-4,19.6,2.8c3,5.9-1.1,10.5-11.3,11.4
	c-9.3,0.8-18.3,3-27.4,4.6C1796.3,295.5,1792,295.2,1787.7,292.6z"/>
<path class="st160" d="M417.6,1296.5c0.1-32.4,0.1-64.9,0.2-97.3c11.4,32.4,2.5,65.4,4.5,98.1C420.1,1299,418.5,1298.8,417.6,1296.5
	z"/>
<path class="st161" d="M1714.6,413.6c-5.1-5.3-13.6-2.6-20.1-4.5c18.7-5,37.2-10.4,56.2-14.8c5.2-1.2,14.1-2.4,16.1,3.7
	c2.3,7-6.3,6.4-12.3,7.5C1741.2,408,1727.9,410.9,1714.6,413.6z"/>
<path class="st162" d="M2003.8,1657.5c-24.2,0.3-48.3,0.5-72.5,0.8c-17.5-0.4-35.1-0.8-52.6-1.2
	C1920.5,1650.2,1962.2,1648.7,2003.8,1657.5z"/>
<path class="st163" d="M42.6,843.5c0.2,29.3,0.5,58.6,0.7,87.9c0,0-1.9-0.6-1.9-0.6c-1.5,0.3-2.9,0.5-4.4,0.8
	c-0.5-28.7-1.1-57.4-1.5-86.1c0-0.6,0.9-1.7,1.6-1.8C38.9,843.3,40.8,843.5,42.6,843.5z"/>
<path class="st164" d="M1427.2,1663.3c-41.9,6.1-83.8,7.6-125.7-0.3C1343.4,1663.1,1385.3,1663.2,1427.2,1663.3z"/>
<path class="st165" d="M2011.3,1715.3c-4.3-16.6,8.2-31.9,6.5-48.2c13.4,14.7-5.6,38.9,25.6,48.4
	C2032.6,1715.3,2021.9,1715.3,2011.3,1715.3z"/>
<path class="st166" d="M332.3,1233.3c8.9,29.3,8.6,58.6,0,87.8C332.3,1291.9,332.3,1262.6,332.3,1233.3z"/>
<path class="st167" d="M421.9,862.9c0.9-1.8,1.7-3.6,2.6-5.4c8,29.6,8.4,59.1-0.6,88.6C423.3,918.4,422.6,890.7,421.9,862.9z"/>
<path class="st168" d="M1158.6,170.5c10.2,16,3.6,33,5.7,49.5c1.2,9.3-3.9,19.3,4.8,27.9c-10.7,0-11.4,0-11.3-5.7
	C1157.7,218.2,1158.2,194.4,1158.6,170.5z"/>
<path class="st169" d="M593.1,1803.2c0.2-1.2,0.5-2.3,0.7-3.5c39.3,0,78.6,0.1,118,0.1C672.6,1808.5,632.6,1801.9,593.1,1803.2z"/>
<path class="st170" d="M854.7,1331.3c-10.9-27.4-3.2-55.5-5.9-83.2c3-1.3,5.9-2.5,8.9-3.8C856.7,1273.3,855.7,1302.3,854.7,1331.3z"
	/>
<path class="st171" d="M657.1,261.4c-9.9-7.8-27.4-11.3-22.6-24.4c0.7-1.8,10.2-3.6,14.3-2.5C669.2,239.6,656.1,252.1,657.1,261.4z"
	/>
<path class="st172" d="M252.9,844.4c0,2.6,0,5.1,0,7.7c-18.3,0.4-38.1-0.5-33.4,20.6c-10.8-4.3-3.8-15.4-13.7-20
	c6.5-11.7,20.1-10.8,33.5-10.2C243.9,843.1,248.4,843.8,252.9,844.4z"/>
<path class="st173" d="M1276.2,102.7c-0.4-9.2-5.1-18.8,8.3-32c6.8,21.8,8,39.1-1.7,56.7C1269.7,120.9,1283.5,110.2,1276.2,102.7z"
	/>
<path class="st174" d="M1622.6,291.4c-8.3,7.6-17.7,13.5-32.1,10.5c-2.3-0.5-5.9-2.9-5.7-4.1c2.1-10.6,15.6-11.1,25.1-15.1
	c4.9-2.5,9.7-2.7,13.8,0.7C1627,286.1,1625.9,288.9,1622.6,291.4z"/>
<path class="st175" d="M717.4,554.9c-9.6-17.9-30.8-5.5-45.6-9.6c-1.8-1.1-2.2-1.9-1.3-2.6c0.7-0.5,1.5-0.8,2.4-0.8
	c24.2,0,48.4,0,76.9,0C739.2,551.2,727.6,552.2,717.4,554.9z"/>
<path class="st176" d="M953.6,164.3c1.2-6.1-1.3-13.1,10.1-13c16.7,0.2,9.1,10.1,10.3,15.9c1.4,7-3.4,13.8-13.4,12.3
	C949.8,177.8,955.3,169.1,953.6,164.3z"/>
<path class="st177" d="M35.3,1609.2c-6.3-8-11-17-24.4-20.2c-4.8-10.6,8.2-18.9,6.7-29.1C22,1576.7,37.7,1591.2,35.3,1609.2z"/>
<path class="st178" d="M2121.6,1378.8c35.1-6.9,70.3-6.4,105.4,0.1C2191.8,1378.9,2156.7,1378.8,2121.6,1378.8z"/>
<path class="st179" d="M1203,1378.8c35.2-8.9,71.2-1.2,106.7-3C1274.6,1384.7,1238.6,1378.1,1203,1378.8z"/>
<path class="st180" d="M1335.9,964.9c34.3,0,68.6,0.1,102.9,0.1C1404.4,973.1,1370.2,974.4,1335.9,964.9z"/>
<path class="st181" d="M2252.8,1633.3c2.5-2,5-4,7.5-6c19.8,1.8,27.5,10.5,25.5,24.7c-3.5,5.5-4.2,12.6-14.3,14.4
	C2279,1651.1,2259.6,1644.2,2252.8,1633.3z"/>
<path class="st182" d="M1622.6,291.4c1-7.1-5.7-8-12.7-8.7c13-8.2,26.1-16.5,39.1-24.7c6.2,0.5,12.2,1.3,15.1,6.2
	C1645,268.7,1634.8,280.9,1622.6,291.4z"/>
<path class="st183" d="M1643,1661.5c6.6,0,13.1,0.1,19.7,0.1c17.2,4.2,36.3-4.3,52.8,4.5c-35.2,0.1-70.4,0.2-105.6,0.4
	C1619.5,1659.6,1632.1,1663.7,1643,1661.5z"/>
<path class="st184" d="M1353.9,160.8c0.9,7-2.7,16.2,13.9,15.3c-5.8,7.6-12.8,14.8-13.5,24c-5.4-3.8-11.8-4.9-18.9-4.4
	C1349.1,186.3,1344,171.3,1353.9,160.8z"/>
<path class="st185" d="M1662.4,559.7c32.8-8.6,66.5-1.3,99.7-3.2C1729.4,565.9,1695.7,559.2,1662.4,559.7z"/>
<path class="st186" d="M1008.1,1242.4c1.5,0.3,3,0.6,4.6,1c1.9,14.1,3.8,28.2,6.1,45.1c-15.5-6.9-18-15.9-20.1-25.1
	C1010.8,1258.6,1005,1249.4,1008.1,1242.4z"/>
<path class="st187" d="M1664.2,264.1c-5.9-1-12.7-0.6-15.1-6.2c2.1-1.8,3.8-4.1,6.4-5.2c8.1-3.5,17.1-14.7,25.4-4.6
	C1687.8,256.6,1675.2,261.8,1664.2,264.1z"/>
<path class="st96" d="M1766.4,1715.2c0.7-4.7,1.3-9.4,2-14.1c5.9,0,11.8-0.1,17.8-0.1c-0.5,19.6,20.1,14,34.4,16
	C1802,1725.4,1784.2,1720.4,1766.4,1715.2z"/>
<path class="st188" d="M1217.1,1047.7c-0.3-1.2-0.5-2.4-0.7-3.6c33,0.1,66,0.2,99,0.2C1283.2,1053.7,1249.9,1046.3,1217.1,1047.7z"
	/>
<path class="st189" d="M1296.4,1604.9c30.3-0.1,60.6-0.2,90.9-0.3c-16.9,8.7-35.8,2.9-53.7,4c-12.8,0.8-26.2-1.4-37.4,5.3
	C1291.6,1610.9,1291.1,1607.9,1296.4,1604.9z"/>
<path class="st190" d="M1460.4,1213.7c-5.7,17.7,7.8,36.9-7.5,53.9c0.1-24.5,0.1-49.1,0.2-73.6
	C1463.6,1198.9,1457.1,1207.3,1460.4,1213.7z"/>
<path class="st191" d="M718,1662.5c-6.5-12.4-3.2-26.6-13.1-38.3c9.5-1.1,19.2-2.8,26.7,3.8c-23,11.1-3.6,26.1-6.7,39.1
	C722.6,1665.6,720.3,1664,718,1662.5z"/>
<path class="st192" d="M2258.5,950.7c-2.4,4.9-4.9,9.9-7.3,14.8c-5.5,3.5-10.9,3.3-16.4,0c-5.3-5.9-8.8-12.2-6.7-19.6
	C2239.7,942.7,2249.7,944.7,2258.5,950.7z"/>
<path class="st193" d="M486.4,457.8c12.5-0.9,19.1,3.1,21,9.7c1.5,5.4-5.9,5.5-11,5.5c-8.4,0.1-18.2,0.9-20.1-7.8
	C474.7,458.4,482.7,458.6,486.4,457.8z"/>
<path class="st194" d="M417.6,1296.5c1.6,0.2,3.1,0.5,4.7,0.8c-2,22.7,7.6,45.8-4.5,68.1C417.7,1342.4,417.6,1319.5,417.6,1296.5z"
	/>
<path class="st195" d="M2096.3,906.8c-3.9,9.6,3.2,20.5-6.2,29.5c0-22.9,0-45.9,0-68.8C2102.6,879.7,2092.2,893.9,2096.3,906.8z"/>
<path class="st196" d="M973.8,1375c11.4-0.5,22.7-0.9,34.1-1.4c19.4,0.7,38.8,1.3,58.2,2c-0.2,1.3-0.4,2.7-0.7,4
	C1035,1377.2,1003.6,1385.1,973.8,1375z"/>
<path class="st197" d="M823.4,272.8c10.1,1.1,13.9-2.6,13.3-9.6c14.8,12.2,2.2,26.1,7.4,42.7C824.7,296.1,836,280.4,823.4,272.8z"/>
<path class="st198" d="M2220.5,1341.5c-30.7,6.4-61.5,6.3-92.3,0.1C2158.9,1341.6,2189.7,1341.6,2220.5,1341.5z"/>
<path class="st199" d="M1681.6,1317.3c-21.7,0-43.4-0.1-65.1-0.1c-8.7-0.6-17.4-1.1-26.2-1.7
	C1621,1309.9,1651.5,1307.2,1681.6,1317.3z"/>
<path class="st200" d="M364.8,1032.5c-0.5-1.1-0.9-2.1-1.2-3.2c28.6-0.1,57.2-0.1,85.9-0.2c-0.3,1.1-0.7,2.1-1.3,3.1
	C420.4,1032.3,392.6,1032.4,364.8,1032.5z"/>
<path class="st201" d="M159.8,964.8c-0.2-9.3,13.7-22.6-12.6-24.4c9.8-10.7,24.1,4,34.5-3.4c-0.6,4.6-1.1,9.2-1.7,13.9
	C164.5,948.5,171.7,964.3,159.8,964.8z"/>
<path class="st202" d="M188.2,1161.4c14.5-12.5,33.5-4.3,50.3-5.7c11.4-0.9,23.2,0.4,34.8,0.7
	C245.9,1166.5,216.1,1155.7,188.2,1161.4z"/>
<path class="st203" d="M1256,204.6c4.2-6.5,8.4-13,12.6-19.5c1.3,12,2.8,24-2.3,36.5C1250.4,219.5,1257.8,210.5,1256,204.6z"/>
<path class="st204" d="M1787.7,292.6c4.3,0.1,8.6,0.1,12.9,0.2c-7,13.9-28.9,10-40.2,18.7c0.2-3.6,0.5-7.1,0.7-10.7
	C1767.9,294.2,1777.4,292.6,1787.7,292.6z"/>
<path class="st205" d="M450.4,541.8c-0.2,1.3-0.3,2.6-0.2,3.8c-12.1-1.1-17.8,8.4-28.5,9.6c-5.6-18.2-26.6-4.6-38.3-10.2
	C405.1,537.5,428,542,450.4,541.8z"/>
<path class="st206" d="M225.6,974.3c6.5-2.8,13-5.7,19.4-8.5c13.4,6,23.3,1,32.5-5.9c6.7,2,7.7,6.5,8.4,11
	C266.7,980.4,245.8,973.6,225.6,974.3z"/>
<path class="st207" d="M672.6,779.8c-28.9-0.3-57.9-0.6-86.8-0.8C614.8,773.6,643.8,770.9,672.6,779.8z"/>
<path class="st208" d="M285.9,970.9c-7.7-1.6-7.1-6.7-8.4-11c2.2-4.6,4.4-9.2,6.6-13.8c6.5,3.1,12.9,6.2,19.4,9.2
	C300.5,962.3,295,967.7,285.9,970.9z"/>
<path class="st209" d="M704.8,288c7.5-0.9,17.3,3,21.1-5.6c8.7,5,17.7,9.9,19.1,19c-2.7,2-5.4,4-8,6
	C730.8,296.8,715.8,294.2,704.8,288z"/>
<path class="st210" d="M2161,1716.3c15.4-0.2,30.9-0.3,46.3-0.5c11,0.3,21.9,0.7,32.9,1C2213.7,1724,2187.3,1723.5,2161,1716.3z"/>
<path class="st211" d="M1814.7,859.1c-1.9-14.1-17.7-9.2-28.3-11.4c15-7,31.3-4.8,47.4-3.5c1.6,3.3,3.3,6.6,4.9,10
	C1829.4,852.1,1821.9,855.3,1814.7,859.1z"/>
<path class="st212" d="M672.8,542c-0.3,1.1-0.7,2.2-1,3.4c-26.2-0.1-52.5-0.2-78.7-0.3C619.1,536.4,646.3,543.9,672.8,542z"/>
<path class="st213" d="M1439.1,1364.9c-0.3,12.7,12.5,9.5,22,9.8c12.6,0.4,25.2,0.4,37.8,0.6c-16.9,8.2-35.8,3.9-53.6,4
	C1429.8,1379.4,1431,1372.2,1439.1,1364.9z"/>
<path class="st214" d="M1296.4,1604.9c0,3-0.1,6-0.1,9c0.1,15.9,0.2,31.7,0.3,47.6C1282.7,1642.7,1284.6,1623.8,1296.4,1604.9z"/>
<path class="st215" d="M750.6,779.9c2-3,4-6.1,6.1-9.1c7.8-1.2,15.4-1.7,20.7,4.1c-26.7,8.9-6.2,27.1-14.1,39.6
	C749.1,804.9,766.7,789,750.6,779.9z"/>
<path class="st216" d="M298.4,872.6c11.4-4.9,1.3-10.3,0.5-15.4c4.1-1.4,8.2-2.7,12.3-4.1c12.1,6.3,4.1,16,7,23.8
	C310.6,878.2,303.4,878.3,298.4,872.6z"/>
<path class="st217" d="M1990.9,1452.6c-26.6-0.2-53.2-0.4-79.8-0.6C1937.8,1444.6,1964.4,1445.5,1990.9,1452.6z"/>
<path class="st218" d="M816.3,352.3c2-3.3,4.1-6.6,6.1-9.9c12.6,1.3,16.7,8.3,20.4,16.1C830,364.6,822.8,359.1,816.3,352.3z"/>
<path class="st219" d="M844,506.8c10.2,17.9,3.5,36.6,4.2,54.9C837.4,543.8,843.6,525.2,844,506.8z"/>
<path class="st220" d="M108.6,1780.2c-0.3,1.2-0.4,2.5-0.4,3.7c-24.2-0.1-48.4-0.2-72.7-0.3C59.2,1774.1,84.3,1781.4,108.6,1780.2z"
	/>
<path class="st221" d="M376.8,1044.1c24.3,0,48.5,0.1,72.8,0.1C425.3,1050.7,401,1051.2,376.8,1044.1z"/>
<path class="st222" d="M907.4,961c24.8,0.1,49.6,0.2,74.4,0.2C957,968.3,932.2,967.9,907.4,961z"/>
<path class="st223" d="M121.9,838.9c-8.6,6.8,3.2,9.7,4.9,14.6c-12.4,0-24.8-0.1-37.2-0.1c-0.8-1.5-1.4-3.1-1.7-4.7
	C98.4,843.9,108.1,837.5,121.9,838.9z"/>
<path class="st224" d="M572.6,556.7c24.6,1.5,49.8-5.6,73.8,3.1C621.8,558.6,596.5,566,572.6,556.7z"/>
<path class="st225" d="M1014.7,281.7c23.5,9,17.6-3.8,16.9-12.7c12.3,7.3,12.9,19.5,4,24.5C1024.6,299.7,1019,288.8,1014.7,281.7z"
	/>
<path class="st226" d="M9.3,1159.7c24.3-7.6,48.7-7.1,73.1-0.2C58.1,1159.6,33.7,1159.7,9.3,1159.7z"/>
<path class="st60" d="M1681.3,1032.2c0.5-1,1-2,1.3-3.1c21.9,0.1,43.7,0.3,65.6,0.4C1726.4,1037.3,1703.7,1032.3,1681.3,1032.2z"/>
<path class="st133" d="M1078.6,1784c0.3-1.2,0.5-2.4,0.7-3.7c21.8-0.1,43.6-0.2,65.4-0.3c-0.1,1.4-0.2,2.8-0.3,4.2
	C1122.5,1784.1,1100.5,1784,1078.6,1784z"/>
<path class="st227" d="M691.2,745.5c0.5,11.8,3,23.8,1,35.4c-2.4,14-9.1,4.4-14.1,0.2C693.3,771.4,676.8,755.3,691.2,745.5z"/>
<path class="st228" d="M1635.4,737c-1.8-3.4-3.7-6.9-5.5-10.3c8.2-7.1,2.2-18.2,12.7-24.7c-0.3,10.2-0.6,20.4,5.2,30
	C1643.6,733.6,1639.5,735.3,1635.4,737z"/>
<path class="st229" d="M37,931.5c1.5-0.2,2.9-0.5,4.4-0.8c5.8,14.2-6.5,30.3,8.4,43.5c-16.9,2.3-13.4-7.4-13.7-13.8
	C35.7,950.8,36.7,941.2,37,931.5z"/>
<path class="st230" d="M1275,151.9c-6.2,0-12.3,0-18.5-0.1c11.7-10.3-2-25.2,11.5-35.1c8.8,3.7,7,10.3,8.2,16.2
	C1268.9,139,1270.8,145.4,1275,151.9z"/>
<path class="st231" d="M1367.8,1555.8c-22,5.9-44.1,8-66.1,0C1323.7,1555.9,1345.8,1555.9,1367.8,1555.8z"/>
<path class="st232" d="M665.1,429.4c5.1-2.6,12.1-3.8,13.3-9.5c13.7,0.5,18,9.3,12.2,14.5C682.1,442.1,672.5,434.8,665.1,429.4z"/>
<path class="st233" d="M1523.6,106.1c0.7,4.4,1.4,8.8,2.1,13.2c0.1,7.9,2,16.1-7,22.4c-1-6.1,2.6-14.2-11.7-14.2
	C1512.4,120.3,1518,113.2,1523.6,106.1z"/>
<path class="st234" d="M1276.2,132.9c-12.4-2.7-7-10.3-8.2-16.2c2.7-4.7,5.4-9.3,8.2-14c10.1,7.1,4.3,16.5,6.7,24.7
	C1280.7,129.3,1278.5,131.1,1276.2,132.9z"/>
<path class="st235" d="M2286.2,1183.8c-22.2-0.1-45,5-66.3-3.9C2242,1181.4,2264.9,1175.5,2286.2,1183.8z"/>
<path class="st236" d="M1837.5,561.1c-7.9-2.4-25.2,4.2-23-9.3c2-11.9,17.9-5.6,26.8-5.4c10.2,0.2,29.5-6.1,29.5,5.4
	C1870.6,564.4,1850,558.9,1837.5,561.1z"/>
<path class="st237" d="M1924.2,550.2c14.4-2.2,34.8-28.7,40.1,5.5C1950.4,556.1,1934,566.2,1924.2,550.2z"/>
<path class="st238" d="M1924.2,550.2c11.1,10.9,26.6,4.1,40.1,5.5c-19,10.9-40,2.3-62.5,5.1C1908.6,553.1,1915.9,551,1924.2,550.2z"
	/>
<path class="st239" d="M1105.8,498.1c-33.2,6-66.3,7.9-99.4-0.4C1039.5,497.9,1072.7,498,1105.8,498.1z"/>
<path class="st240" d="M1321.9,497.9c-29.8,10.2-61.8,0.1-92.1,5.2c-6.6-0.2-13.3-0.3-19.9-0.5c-1.2-0.9-1.6-1.9-1.3-2.9
	c0.3-1,0.7-1.5,1.1-1.5C1247,498.2,1284.4,498,1321.9,497.9z"/>
<path class="st241" d="M677.6,1510.4c0.7-4.4,1.4-8.8,2.1-13.2c25.9-2.1,54.7,10.2,67.5,31c8.5,13.7,23.7,28.9-2,42.4
	c-17.5,12.2-38.8,9.3-59.6,8.5C665.8,1557.3,678.5,1533.4,677.6,1510.4z"/>
<path class="st242" d="M745.2,1570.5c15.9-12.3,4.8-24.5-2.6-35c-13.3-18.9-30.6-35.9-62.9-38.4c20.5-8.2,40.6-12.6,58.3,3.7
	c17.5,10.6,29,24.4,38.1,39.5C774,1555.1,764.2,1565.4,745.2,1570.5z"/>
<path class="st243" d="M776.1,1540.4c-18.4-10.2-29.3-24.2-38.1-39.5C777.4,1499.8,773.2,1522,776.1,1540.4z"/>
<path class="st244" d="M587.6,1569.5c1.6,0.2,3.2,0.3,4.8,0.5c0,40.9,7.1,81.9-4.7,122.5C587.7,1651.5,587.6,1610.5,587.6,1569.5z"
	/>
<path class="st245" d="M677.6,1510.4c6.2,22.7-8.1,46.6,8,68.6c-10.5,0.9-13.4-4.7-13.1-10.3
	C673.3,1549.3,666.8,1529.4,677.6,1510.4z"/>
<path class="st246" d="M994.2,1359.8c-17.2,8.9-21.3-1.7-28.4-9.9c-34.8-40.3-60-85.1-102.9-121.6c-8.3-6.6-7.5-15.4-7.3-25.1
	c33.7,19.1,49.3,48.5,71.5,74C950.6,1304.2,971.9,1332.3,994.2,1359.8z"/>
<path class="st247" d="M1086.9,1238.1c9.4,29.3,7.1,58.7,0,88C1086.9,1296.8,1086.9,1267.5,1086.9,1238.1z"/>
<path class="st248" d="M1091.1,1131c-1.5,26.2,7.7,52.7-5.4,78.5C1088.1,1183.3,1079,1156.8,1091.1,1131z"/>
<path class="st249" d="M1595.9,1272.3c-24.2,3.7-28.4-3.1-23.1-19.6c8.1-25.1,33.2-44.6,39.5-70.2c0.6-2.6,8.4-6,12.5-5.8
	c7.2,0.3,4,6.1,5.1,9.6c6.4,21.4,13,42.9,18.8,64.4c2.5,9.1-1.5,15.4-15.7,17.1C1620.5,1269.1,1608.7,1274.4,1595.9,1272.3z"/>
<path class="st250" d="M1948.4,1510.8c12,28.2,24.7,56.3,35.7,84.7c3.2,8.3-10,11.4-16.5,12c-19.4,1.7-39.3,1.9-58.8,0.9
	c-17.1-0.9-9.1-8.8-6-15.7c11.9-27.2,38.1-50.6,36.9-81.2C1942.6,1511.3,1945.5,1511.1,1948.4,1510.8z"/>
<path class="st251" d="M2285.7,1652c-6-9.6-11.7-19.5-25.5-24.7c-4-9.1-25.7-10.5-19.2-24.2c17.5,5.1,32.2,13.4,45.8,22.6
	C2299.5,1634.2,2307,1643.8,2285.7,1652z"/>
<path class="st252" d="M429.5,1555.9c30.6-0.5,61.2-1,91.9-1.5c17.8,34.6,6,49.2-39.9,49.4c-15.1,0.1-30.2-0.4-45.3-0.6
	C449.1,1586.3,431.7,1571.7,429.5,1555.9z"/>
<path class="st253" d="M318.7,1672.5c12.1-29.2,4.6-59,5.3-88.6c0.2-9.7,1-19.3,1.5-29c10.1,36.4,6.1,73.2,4.5,109.9
	C329.7,1669.4,323.7,1670.9,318.7,1672.5z"/>
<path class="st254" d="M409.2,1663.2c33.3,0.7,66.9-5,99.7,3.4C475.7,1665.2,442,1672.2,409.2,1663.2z"/>
<path class="st255" d="M1007.7,1632.8c9.1,1.3,17.2-0.4,24.4-4.7c4.2,6.4,1.3,12.9,0.2,19.3c-3.7,3.3-1.3,10.5-9.2,10.5
	c-7.8,0-5.4-7.3-9.3-10.5C1011.8,1642.6,1009.8,1637.7,1007.7,1632.8z"/>
<path class="st256" d="M1013.9,1647.5c6.2,8.6,12.3,8.4,18.4,0c1.4,9-1.4,16.8-12,23.6C1010,1664.1,1013.3,1655.5,1013.9,1647.5z"/>
<path class="st257" d="M692.3,1218.6c-27.1,0.1-54.2,0.5-81.4,0.2c-10.4-0.1-22,2.7-30.7-4.4c29.5-0.3,58.9-0.7,88.4-0.7
	C676.9,1213.6,686.4,1211.7,692.3,1218.6z"/>
<path class="st258" d="M606.1,1159.4c34.8-9.2,70.7-0.7,105.8-3.8C677.2,1166.2,641.4,1158.2,606.1,1159.4z"/>
<path class="st259" d="M776.5,1286.9c-0.3,24.7,7,49.6-5.4,73.8C773.3,1336.1,764,1311.1,776.5,1286.9z"/>
<path class="st260" d="M1356,1288.2c-0.6-8.5-1.2-16.9-1.7-25.4c-4.9-5.9-5.3-13.1-1.3-18.3c14-18.2,4.2-31.8-12.6-44.7
	c-20.8-22.5-44.4-42-84.6-43.7c2.3-0.6,4.6-1.2,6.9-1.7c9.8,0.5,19.6,1.4,29.3,1.3c53.2-0.6,66.7,6.4,82.9,43.4
	c0.9,26.1,13,52.2-0.9,78.1C1369.1,1281.9,1368.5,1290.5,1356,1288.2z"/>
<path class="st261" d="M1222.4,1209c0.9,38.8,1.7,77.6,2.6,116.4c-2.7,0.1-5.4,0.2-8.1,0.3C1219.6,1286.8,1209.8,1247.6,1222.4,1209
	z"/>
<path class="st262" d="M1373.9,1277.2c0.3-26,0.6-52.1,0.9-78.1C1380.6,1225.2,1400.3,1251.4,1373.9,1277.2z"/>
<path class="st263" d="M1138.1,1365.1c0.2-21,0.5-42,0.7-63c1-2.3,2.5-2.7,4.7-0.7c0.7,11.5,1.5,22.9,2.2,34.4
	C1141.9,1345.4,1148.7,1356.5,1138.1,1365.1z"/>
<path class="st264" d="M2153.5,1301c8-5.6,18.4-3.8,27.8-4.9c19.6,0.5,39.2,1.1,58.8,1.6C2211.7,1305.9,2182.4,1300.5,2153.5,1301z"
	/>
<path class="st265" d="M1143.5,1301.4c-1.6,0.2-3.1,0.4-4.7,0.7c0-28,0.1-56,0.1-84c1.5,0.4,3,0.8,4.5,1.1
	C1143.4,1246.6,1143.5,1274,1143.5,1301.4z"/>
<path class="st266" d="M2061.5,1194.9c2-10-5.3-21.2,7-29.9c-5.3,24.4,10.6,49.7-5.1,73.7
	C2062.8,1224.1,2062.2,1209.5,2061.5,1194.9z"/>
<path class="st267" d="M1997.7,931.5c0-19.7,0-39.4,0-59.1C2006.7,892.1,2008.5,911.8,1997.7,931.5z"/>
<path class="st268" d="M2240.1,848.3c32.2-2.1,24.5,15.2,25,28.5c-20.4,8.3-8.5,23.3-13.1,34.9c-8.6,5.8-17.5,10.5-28.6,2.9
	c-3.7-10.8,0.6-21.4,2.2-32C2225.4,870,2231.2,858.8,2240.1,848.3z"/>
<path d="M2227.8,916.6c7.3-3.6,15.3-5.6,24.2-4.9c3.4,4.8,10.4,8.2,9.2,14.6c-0.9,8.1-1.7,16.2-2.6,24.3
	c-10.7,0.4-21.2,0.2-30.3-4.7c-1-1.7-1.9-3.4-2.9-5.1C2224.5,932.6,2218.2,924.2,2227.8,916.6z"/>
<path class="st48" d="M2227.8,916.6c-0.8,8.1-1.7,16.2-2.5,24.3c-26.2-19.5-10.1-38.9,0.3-58.3
	C2226.3,893.9,2227.1,905.2,2227.8,916.6z"/>
<path class="st269" d="M1957.1,936.4c-2.2-3.4-4.5-6.7-6.7-10.1c3.1-18-5-36.6,6.2-54.1C1956.7,893.6,1956.9,915,1957.1,936.4z"/>
<path class="st270" d="M1340.3,1199.8c25.7,9.3,33.6,22.5,19.1,42.3c-4.3,5.9-3.6,13.7-5.2,20.7c-5.6-3.4-7.9-8.6-5.8-12.8
	C1357.4,1232,1347.9,1216.1,1340.3,1199.8z"/>
</svg>
