<?xml version="1.0" encoding="utf-8"?>
<!-- Generator: Adobe Illustrator 27.1.0, SVG Export Plug-In . SVG Version: 6.00 Build 0)  -->
<svg version="1.1" id="Capa_1" xmlns="http://www.w3.org/2000/svg" xmlns:xlink="http://www.w3.org/1999/xlink" x="0px" y="0px"
	 viewBox="0 0 982.1 75.2" style="enable-background:new 0 0 982.1 75.2;" xml:space="preserve">
<style type="text/css">
	.st0{fill:#F3F3F3;}
	.st1{fill:#222222;}
	.st2{fill:#272727;}
	.st3{fill:#2A2A2A;}
	.st4{fill:#151515;}
	.st5{fill:#323232;}
	.st6{fill:#5B5B5B;}
	.st7{fill:#1F1F1F;}
	.st8{fill:#3C3C3C;}
	.st9{fill:#4D4D4D;}
	.st10{fill:#1C1C1C;}
	.st11{fill:#8A8A8A;}
	.st12{fill:#858585;}
	.st13{fill:#2E2E2E;}
	.st14{fill:#1D1D1D;}
	.st15{fill:#AEAEAE;}
	.st16{fill:#B0B0B0;}
	.st17{fill:#565656;}
	.st18{fill:#5C5C5C;}
	.st19{fill:#5D5D5D;}
</style>
<path class="st0" d="M687,58.5c-2.4,0.6-4.9,1.3-7.3,1.9c-27.9-0.1-37.8-12-52.2-23.4c1.2,5.1,6.4,7.3,8,10.4c1.7,3.1,2,6-3,8.4
	s-10.7,2.1-16.2,0.8c-10.7-2.5-20.1-6-27.7-10.8c-21.9-13.8-29.5-14.5-65.9-6.3c12.2,5.2,24.2,10.3,30.2,17.9c2,2.5,3.4,5.4-1.1,7.4
	c-5,2.2-9.6,0-13.5-1.5c-6.4-2.5-11.4-5.8-17.1-8.7C500.4,44,488,43.9,464.6,53.2c-10.2,4.1-17.4,10.4-30.9,12.2l-1.8-0.1l-1.8,0.1
	c-3-9.8-0.1-12.5,27.4-25.7c-30.2-8.3-41.9-7.2-63.3,5.9c-6.2,3.8-13.8,6.8-21.9,9.2c-6.9,2.1-14.4,4.6-22,1.4
	c-7.8-3.4-4.1-7.6-1.3-11.6c1.3-1.8,3.5-3.3,4.3-5.4c-9.8,7.6-19.5,15.3-35.2,19.9c-6.9,2-14.6,4.9-22.1,2
	c-8.7-3.4-4.7-8.2-1.7-12.6c1-1.4,3.1-2.6,2.7-4.6c-12.9,7.4-19,17.4-35.8,22.6c-7.9,2.4-16.1,7-25.4,3.9
	c-10.3-3.4-6.7-9.4-4.2-14.6c0.7-1.5,2.3-2.8,2.1-5.1c-13.6-1.6-22.2,2-29.9,7.5c-13.1,9.2-29.5,15.7-52.6,15.4
	c-5.5-0.1-12.1,1-14.7-3c-2.1-3.3,0.4-6,4-8.5c5.8-3.9,12.2-7.6,20.8-9.6c-10.7,0-21.2,0.1-31.7,0.4c-15.5,0.7-25.1,9-41.3,8.9
	c-14.5-0.2-29.1,1.1-43.5-0.9c-2.2-0.7-4.1-1.5-5.9-2.4l0.3,0.1c-6.3-10.4,12.6-10.7,22.6-15.9c-6.7-3.9-15.9-5.8-25-7.4
	C11.9,30.6,4.6,19.8,0.4,7.8c-0.9-2.7-0.8-5.5,4.4-7.1c5.1-1.6,9.8-0.3,14.1,1.2c15.7,5.2,26.9,12.6,36.3,20.8
	c4.1,3.5,7.7,7.1,15.6,8.2c1.9-0.9,2.2-1.6,2.2-2.4c-0.2-5.6-5.1-13.1,6.3-15.6c13.1-2.8,21.3,4.5,30,8.8
	c9.7,4.9,11.7,12.2,19.6,17.6c7.4,2.6,14.6,5.2,21.7-0.1c-4.7-5.7-17.7-12.1-6.4-17.5c11.7-5.5,24.5,1.1,34.8,4.7
	c17.1,6.2,31.7,15.2,54.6,9.5c-8.8-1.3-14.3-5-16.1-10.4c-0.3-1.5-6-2-2.1-4.3c5.3-3.1,9.7,0.8,14.6,0.2c16.6-1.7,16.6-1.7,50.1,6.9
	c1.8-3-3.9-3.9-5.9-5.9c-3.3-3.1-6.2-6.2-1.6-9.5c4.1-2.9,10.2-2.5,15.9-2c14.3,1.3,28,3.6,40.6,7.5c6.7,2.1,13.2,4.7,22.3,3.7
	c0.3-5.9-16.4-12.7-1.1-17.2c13.5-4,25.2,2.4,32.9,7.6c13,8.9,29.1,11.7,49.2,10.6c5.7-0.3,11.9-0.5,17.2,0.6
	c25.7,5,52.1,3.9,78.5,3c19.3-1.1,38.7-2.2,58-3.2c3.1-8.8,15.5-13.5,28.7-17.6c6-1.8,13.2-3.6,18.8,0.8c-0.1,0.9-0.1,1.8-0.2,2.6
	c0,4.1-1.6,8.1-2.7,12.9c18.2-0.2,30-8.1,46.3-9.3c10.9-0.8,23.6-5.8,32,0.6c7.9,6-5.2,10.1-12.8,16.1c16.4-3.3,27.5-8.5,41.2-10.6
	c9.6-1.5,20.6-4.5,27.9,1.1c6.7,5.2-1.8,9.2-8.1,12.9c-1.4,0.8-3.4,1.5-2.7,3c12.6,2.5,23.4,1.2,33.1-4c8.2-4.4,18.3-7.5,28.8-10.1
	c7.3-1.8,15.5-3.8,22.1,0c6.5,3.7,2.1,7.9-1.5,11.7c-1.6,1.7-4.6,3-4.7,5.2c15,1.8,24.3-1.2,30.1-8.7c4.7-6.1,13.1-11,22.5-15.3
	c5.6-2.5,11.6-5.1,19.5-3.3s4.8,5.9,5.2,9.1c0.3,3-1.4,6.1,0.6,9.8c8.9-0.7,13.2-4.1,16.6-7.8C935,14.2,950.7,9.4,962,2.5
	c3.3-2.1,8.5-3.3,13.7-2c6.3,1.6,7.1,4.9,5.8,7.9c-4.9,11.9-12.7,22.9-37.5,27.3c-8.2,1.4-16.2,3.1-22.9,6c3.4,7,40.1,6.8,14.4,19.5
	c-13.8,1.1-27.7,0.6-41.6,0.5c-16-0.1-25.2-9-41.3-8.9c-9.7,0.1-19.6-1.4-29,0.5c5.8,1.9,10.6,4.2,14.9,6.8c5,3.1,13,6.2,8.1,10.8
	c-5.6,5.3-16,4.8-25.1,3.2c-16.6-2.9-32.4-6.9-42.4-15c-7.4-5.9-16.8-9.3-30.4-9.1c-1.6,0.4-2,1-1.4,1.8c4.1,6.4,12,14.3-2.2,18.5
	c-12.4,3.7-20.8-3.9-30.4-7.8C700.6,56.7,694,47.9,680,41C685.3,47.1,694.1,52,687,58.5z"/>
<path class="st1" d="M85.8,20.9c12.5,4.3,18.8,8.8,22.5,14.3c1.1,1.6,3.4,3.8-0.7,5c-3.3,1-6.9,0.2-9.7-1.3
	C89.3,34.3,87,28.5,85.8,20.9z"/>
<path class="st2" d="M896.7,19.6c-2.9,10-4.1,17.1-18.5,20.8c-1.2,0.3-5.2-0.6-5.2-1.1C872.6,31.4,882.2,26.5,896.7,19.6z"/>
<path class="st3" d="M245.3,62c4.6-10.7,12.7-16.5,29.9-21C271,50.5,261.1,55.7,245.3,62z"/>
<path class="st4" d="M877.4,49.7c16.1-1,30.1-1.1,45.3,4.3C904.1,59.3,891.8,54.1,877.4,49.7z"/>
<path class="st5" d="M705,41c19.1,4.2,26.3,10.2,31.7,20.2C720.4,56.2,712.1,50.5,705,41z"/>
<path class="st6" d="M311.7,50.2c3.7-6,10.2-10.6,23.5-14.3C330.6,43.6,322.6,47.6,311.7,50.2z"/>
<path class="st7" d="M57.7,53c16.4-3.1,27.8-5.2,40.3-3.2C86.3,54.6,86.3,54.6,57.7,53z"/>
<path class="st8" d="M288.6,19.5c17.6,1.7,28.3,4.1,40.3,8.6C311.9,29.7,302.2,25.3,288.6,19.5z"/>
<path class="st9" d="M691.6,19.4c-10.5,7-21.9,8.8-38,9.4C665.1,22.9,676.6,21.1,691.6,19.4z"/>
<path class="st10" d="M161.1,31.2c11.5,1.7,19.9,5.3,27.3,11.2C170.8,43.1,167.2,36.3,161.1,31.2z"/>
<path class="st11" d="M168.2,53.4c-11.5-4.8-26.7,0.1-38.5-4c15.7,0,31.4,0,47.7,0C176.4,52.7,171.6,52.6,168.2,53.4z"/>
<path class="st12" d="M851.9,49.5c-11.8,4.1-26.7-0.8-38.3,3.8c-1.9-0.5-4.4-0.7-5.6-1.5c-3.3-2.2,0.8-2.4,3.2-2.5
	C824.7,49.3,838.3,49.5,851.9,49.5z"/>
<path class="st13" d="M962,13.1c-2.7,8-7.6,12.6-22.2,15C942,20.7,950.4,17.6,962,13.1z"/>
<path class="st13" d="M18.7,12.3c12.6,5.3,20.6,8.4,23.8,15.8C27.7,26,23.2,21.1,18.7,12.3z"/>
<path class="st14" d="M818.7,32.2c-5.3,7.3-11.5,10.3-25.2,10.7C799.3,37.5,805,34.3,818.7,32.2z"/>
<path class="st15" d="M91.2,58.7c-16.2,3.1-32.3,3-48.3-0.2C59,58.6,75.1,58.7,91.2,58.7z"/>
<path class="st16" d="M938.7,58.6c-16.1,2.7-32.2,3.6-48.3,0.1C906.5,58.6,922.6,58.6,938.7,58.6z"/>
<path class="st16" d="M125.3,42.9c11.4-2.1,24.9,3.5,35.1-2.8c6.1,3.4,1.7,4.8-4.1,4.6C145.9,44.5,135,46,125.3,42.9z"/>
<path class="st17" d="M612.7,44.2c-10.6-1.8-16.1-6-23.5-13.4C603,35.2,608.8,39.2,612.7,44.2z"/>
<path class="st6" d="M369.6,44.5c3-5.5,9.4-9.3,21.1-13.2C386.5,38.6,378.4,41.8,369.6,44.5z"/>
<path class="st18" d="M747.3,26.5c-8.8,6.4-18.4,7.8-32.4,9.3C725.1,30.2,734.3,28.3,747.3,26.5z"/>
<path class="st19" d="M266,35c-13.5,0.1-22.2-2.7-31.3-7.9C247.5,27.7,256.4,30.3,266,35z"/>
</svg>
