<?xml version="1.0" encoding="UTF-8"?>
<svg id="Capa_1" data-name="Capa 1" xmlns="http://www.w3.org/2000/svg" viewBox="0 0 1026.1 122.72">
  <defs>
    <style>
      .cls-1 {
        fill: #a7a7a7;
      }

      .cls-2 {
        fill: #909090;
      }

      .cls-3 {
        fill: #6b6b6b;
      }

      .cls-4 {
        fill: #d7d7d7;
      }

      .cls-5 {
        fill: #313131;
      }

      .cls-6 {
        fill: #969696;
      }

      .cls-7 {
        fill: #282828;
      }

      .cls-8 {
        fill: #8f8f8f;
      }

      .cls-9 {
        fill: #8e8e8e;
      }

      .cls-10 {
        fill: #6f6f6f;
      }

      .cls-11 {
        fill: #a1a1a1;
      }

      .cls-12 {
        fill: #373737;
      }

      .cls-13 {
        fill: #ccc;
      }

      .cls-14 {
        fill: #191919;
      }

      .cls-15 {
        fill: #f3f3f3;
      }

      .cls-16 {
        fill: #acacac;
      }

      .cls-17 {
        fill: #010101;
      }

      .cls-18 {
        fill: #060606;
      }
    </style>
  </defs>
  <path class="cls-15" d="m243,70.06c7.4,7.7,10,16.3,1.7,24.1-11.3,10.6-26.7,6.9-39.6,4.2-11.8-2.5-19.3-11.7-18.7-23.3.3-5.3,2.2-10.6,3.5-16.4-46,14.6-91.6,14.8-137.6,3.3-12-3-24.5-4.8-36.6-7.7-5.7-1.3-15.7,1.9-15.7-6.3,0-6.4,9.2-4.7,14.4-6.2,11.9-3.4,24.5-5.3,35.9-9.6,48-17.7,94.7-17.9,141.2,8.4,1.8-12.9-4.8-25.7,7.8-34.8,9.8-7,21.4-4.6,32-3.9,20.8,1.2,24.7,13,20.7,28.3-2.7,1.9-5.4,3.8-8.1,5.8-8.7,2.2-17.1,3.2-14.1-8.3,1.5-6,4-11.5-6-12.5-9.6-.9-14.9,3.7-16.4,11.6-1,5.5,2.2,11.1-.2,16.7,12.8,9.8,27.5,1.9,41.2,3.2,48.9-2.9,97.9-2.5,146.8-.2,11.8,0,23.7.1,35.5.1,12.8-8.1,27.1-4.8,41-3.9,10.7,3.3,21.9,2.3,33,2.4,79.9.6,159.8-1.2,239.6.9,30.1,7.4,59.9.3,89.8-1.8,6.1-.4,11.3-4.5,12.4-9.8,1.4-6.9-1.9-12.3-13.4-14.2,1.2,7.4,18.8,10.3,8,18.9-8,6.4-17.9,6.1-26.9,2.2-11-4.7-12.6-13.7-10.3-23,4.1-16.7,26.3-23.5,44.5-13.8,4.6,3.9,9.3,7.7,13.9,11.6,10.3,8.4,21.5,10.6,36.1,7.9,42-7.7,79.3,10,118.1,18.8,5,1.1,9.6,4.3,9.6,9.3.1,6.8-6.4,9.6-12.3,12-39.5,16.3-79.5,31.3-124.9,25.8-15.4-1.9-24.5.7-29.3,15-4.2,12.7-16.9,19.3-32.7,17.6-16.2-1.8-27.2-10.4-30.6-24-3-11.9,2.8-21,17.2-24.9,6.6.1,13.2.2,19.8.3,9.1,6.4,4.3,10.4-3.4,13.6-4,1.7-8.9,2.7-7.5,7.7,1,3.5,4.4,5.1,8.4,4.9,6.1-.3,8.9-3.9,10.3-8.6,1.9-6.3-1.4-12.6.7-18.9-2.5-2.2-5-4.4-7.4-6.7-22.1-4.8-44.5-1-66.7-2.2-16.1-.6-32.3,1.4-48.4-1.2l.3-1.2c-31-3.9-61.7,1.3-92.5,1.9-68.8,1.2-137.7.4-206.5.4-23.3,0-46.3-8.5-69.7-1.2-12.9,5.2-25.3,2.9-38.8.3-14.6-2.8-30.2-1.3-45.4-1.7-13.6-2.2-27.3-.5-41-1-8.2-.4-15.9-.1-20.1,7.8-2.8,5.2-2.2,9.7,2.4,13.7,3.7,3.2,8.3,5.4,13.7,4,8.1-2.1,2.9-7,2.6-10.9-.5-5.6,3.6-7.6,9.1-8.5,3.1,1.4,6.4,2.7,9.6,4Z"/>
  <path class="cls-13" d="m652.7,62.76c-3.1.1-6.2.1-9.3.2-82.7,1.6-165.5,2-248.2-.2-14.8-.1-29.6-.1-44.4-.2,4.8-5.6,11.9-4,18.3-4,111.2-.1,222.4-.1,333.6-.1,5.8,0,11.9-.8,16.8,3.1-22.2.4-44.5.8-66.8,1.2Z"/>
  <path class="cls-5" d="m207.1,43.46c-8.5-10.2-10.1-21.2-.7-30.8,6.6-6.8,17.5-6.5,26.5-2.9,9.5,3.8,16.6,9.8,4.9,18.2-2.9,2.1-9.7,2-6.1,7.1,2.7,3.8,8,1.1,12.2.9-11.1,6.9-23.9,7.3-36.8,7.5Z"/>
  <path class="cls-5" d="m233.3,66.26c-4.9,3.3-14.1,5.8-.6,10.5,11.9,4.2,5,10-.5,13.9-8,5.6-16.7,2.8-24.5-.9-7.8-3.7-14.5-8.8-12.9-17.7,1.5-8.6,8.8-12.1,17.7-13.6,2.8-.5,5.8.2,8.7.4,1.5.2,2.4,1,2.5,2.4-1.9.8-3.7,1.5-5.6,2.3,4.2,4.5,10.2,1.6,15.2,2.7Z"/>
  <path class="cls-17" d="m395.2,62.66c82.7.1,165.5.2,248.2.2-7.1,5.2-15.5,2.8-23.3,2.8-75,.2-150,.1-225,.1-.1-.9-.1-2,.1-3.1Z"/>
  <path class="cls-5" d="m841.8,72.86c9.4,10.1,11.5,20.6,1.2,30.9-5.9,5.9-14.1,7.2-22.1,3.1-6.9-3.6-10.2-9.2-7.4-16.3,2.3-6,3.6-12,15.1-8.3,7.8,2.5,7.3-3.5,4.7-8.2,2.8-.4,5.6-.8,8.5-1.2Z"/>
  <path class="cls-10" d="m395.2,46.46c-48.9.1-97.9.1-146.8.2,21.5-6.4,43.8-3,65.6-2.9,27,.2,54.3-3.7,81.2,2.7Z"/>
  <path class="cls-3" d="m767.9,62.76c22.2.6,44.8-5.1,66.4,3.4-21.8-.2-43.5-.3-65.3-.5-1.5-.3-2.2-.8-2-1.6.2-.8.5-1.3.9-1.3Z"/>
  <path class="cls-5" d="m767.9,62.76c.1,1,.4,2,1.1,2.9-16.6-1.1-33.6,3.7-49.8-2.9h48.7Z"/>
  <path class="cls-11" d="m223.7,61.16c-1.1-.6-1.9-1.4-2.5-2.4,15.2-.8,30.5-1.8,45.4,2.4h-42.9Z"/>
  <path class="cls-4" d="m168.9,39.06c7.8,1.9,14.1,6,14.2,12.9,0,3.4-6.7,2.8-10.8,2.2-30.6-3.3-61,5.4-91.8.6-8.2-1.3-17.2-4.2-26-1.1-10,1.9-10.6-7.2-16.3-10.3,2.8-3.6,6.9-4.2,11.5-3.7,39.7-3.2,79.4-2.8,119.2-.6Z"/>
  <path class="cls-7" d="m168.9,39.06c-.8,4.3-4.6,4-8.3,4-31.7.2-63.5.4-95.2.4-5.4,0-12.1,2.4-15.7-3.8,12.7-3,25.4-6.1,38.1-9.1,16.6-1.2,33.3-2,49.9.5,10.4,2.7,20.8,5.4,31.2,8Z"/>
  <path class="cls-9" d="m470.2,47.46c83.1-.1,166.2-.1,249.3-.2,10.3,0,20.6-.1,30.9-.2-.1,1,.1,2,.5,3-91.5-.2-183.1-.4-274.6-.7-2.1.1-4.1-1.2-6.1-1.9Z"/>
  <path class="cls-14" d="m866.8,47.46c11.5-3,23-5.9,34.5-8.9,15-1.8,29.9-2.3,44.9.3,10.4,2.9,20.7,5.7,31.1,8.6v4.1h-44.1c-19.1,2.2-38.2.5-57.4.9-3.9,0-9.5,1.3-9-5Z"/>
  <path class="cls-12" d="m951,70.06c-26.9,9.3-53.8,11.2-80.9.4-.1-1.3-.7-3.2-.1-3.7,13.7-8.5,68.3-6.2,81,3.3Z"/>
  <path class="cls-18" d="m54.5,53.76c39.3-4.5,78.5-6.3,117.7.5-11.5,1.5-23.1,3.1-34.6,4.6-16.5,1.9-33,2.2-49.4-.2-11.2-1.6-22.5-3.2-33.7-4.9Z"/>
  <path class="cls-1" d="m852.6,65.96c-3,0-6.5-.3-6.6-3.4-.2-4.7,4.5-4,7.8-4,41.4-.1,82.9-.1,125.4-.1-1.5,6.4-5.8,7.5-11.1,7.4-38.5-2.4-77-3.3-115.5.1Z"/>
  <path class="cls-18" d="m852.6,65.96c22.8-8.1,46.7-2.9,70-3.3,15-.2,31.2-6.1,45.5,3.2-5.7,1.4-11.4,2.8-17.1,4.2-27-5.9-54-7.8-80.9.4-5.8-1.5-11.7-3-17.5-4.5Z"/>
  <path class="cls-2" d="m866.8,47.46c21.5,8.7,44.5-.3,66.4,4.1-25.4,4.9-51,1.3-78,4.1,3.3-6.9,7.3-7.7,11.6-8.2Z"/>
  <path class="cls-6" d="m88.2,58.76c16.5.1,32.9.1,49.4.2-16.5,4.5-32.9,5-49.4-.2Z"/>
  <path class="cls-8" d="m137.7,31.16c-16.6-.2-33.3-.3-49.9-.5,16.7-4.9,33.3-4.8,49.9.5Z"/>
  <path class="cls-16" d="m946.1,38.86c-15-.1-29.9-.2-44.9-.3,15.1-5.1,30-5,44.9.3Z"/>
</svg>