<?xml version="1.0" encoding="UTF-8"?>
<svg id="Vectores" xmlns="http://www.w3.org/2000/svg" viewBox="0 0 171.82 183.15">
  <defs>
    <style>
      .cls-1 {
        fill: #f7f7f7;
      }
    </style>
  </defs>
  <g id="logo">
    <path class="cls-1" d="m150.99,174.38c-.03.36-.04.53-.07.81h-5.55c-1.37-1.83-.24-3.99-2.05-5.67h-7c-.32.36-2.89,5.47-2.81,5.72h-5.64c-.32-.32-.63-.63-1.04-1.04-.24.35-.48.69-.7,1.01h-19.51c-.4-.27-.68-.78-.81-1.39-.87.31-1.67.7-2.2,1.47h-16.64c.24-4.53-.31-9.51-.08-13.78,1.85-2.24-1.53-7.05.4-8.59-.59-.53-.18-1.42-.65-1.97-2.45-.45-7.97,20.65-8.78,23.07-.89.06-1.27.84-1.85,1.26h-6.37c-2.67-5.06-5.67-13.88-6.3-19.59-.72,3.1-2.02,5.77-4.66,7.73.83,3.49,3.14,5.95,5.43,8.5.61,2.91-5.67,3.86-7.33,3.88-1.58-2.93-3.42-8.21-6.89-9.04v7.4c-.6.05-1.02.09-1.48.12-.1.29-.21.59-.35.96h-5.45c-.46-.78-1.63-2.11-2.75-.84-.06.25-.13.48-.21.81h-16.83v-23.11c-.36-.05-.52-.08-.79-.12-.29.62-.6,1.27-.97,2.05-.25.27-.72-.01-1.17.09-.16.34-.33.7-.49,1.05-2.63.38-4.59-3-7.84-1.24-3.2,1.72-1.01,4.91-2.99,6.78,1.11,1.37,1.24,4.97,2.18,6.79.76,4.39,9.16-.14,10.92.48v3.84c-1.55,4.47-9.16,4.43-12.76,3.21-5.76-1.95-7.76-6.87-7.83-12.65-.08-5.93,2.19-11.05,7.64-13.9,5.17-2.71,9.75-.44,14.92.33,2.86-3.7,10.63.28,14.48-1.6,2.3,1.58,5.19.86,7.5.08,2.61,1.12,5.04-.13,7.7-.06,3.04.07,6.04,2.14,9.07,1.47,1.94-2.31,3.78-.58,6.18-.94,3.35,2.99.9,14.44,5.98,15.39,1.62-4.84,3.7-9.56,4.32-14.66,2.3-.45,4.24-1.81,6.88-1.1.34.34.94.94,1.43,1.43.82-.06,1.02-.64,1.62-1.08,5.21,0,12.2-1.39,17.08.18v4.42c-.33.46-.98-.1-1.39.3-.06.25-.13.49-.22.82h-8.58c-1.13,1.26-2,2.46-.53,4.31,1.92.92,4.22.8,6.69.09.37.18.88.43,1.42.69v3.73c-.34.78-1.55.81-1.76,1.8-2.35.37-4.84-.52-7.16.78v2.64c.42.51.42,1.39,1.5,1.94,2.99,0,7.62-1.36,10.32.14,4.35-4.72,7.66-10.13,11.34-15.27-1.93-1.88-8.5-.76-10.96-.76v-4.12c.9-.43,1.64-1.17,2.15-2.24,5.87,0,13.28-.71,18.9.65v4.29c-4.16,5.14-7.6,10.92-11.63,16.13.17.89,1.15.51,1.35,1.17,2.4,0,9.14-1.39,11.22-.15,3.73-1.37,6.33-16.44,7.6-20.18,1.13-.83,2.3-1.43,3.74-1.94.79.99,4.2.55,4.96.55,1.36,4.74,2.83,9.44,4.22,14.17.81,2.76,3.6,8.33,2.71,11.19.68-.65.87-.83,1.14-1.09-.72-1.54,0-2.84.88-4.16.23.2.41.37.6.53.27-.6.49-1.24,1.24-1.63,3.2,1.41,4.73,2.23,8.28,2.72,2.81-3.37-7.09-6.68-9.21-8.48-.19-.82-1.35-1.81-1.1-3.27-2.56-2.87,2.95-7.74,4.89-8.84,4.14-2.36,6.72-1.13,11.26-1.13.5.63,1.49.55,1.92,1.51-1.02.72-.18,2.2-1.13,3.09.59,1.64-1.72,1.42-1.73,2.74h-1.76c-1.39-2.62-4.82-2.07-6.63-.69.89,3.44,6.22,3.7,8.28,6.05,4.45.93,3.26,7.81,1.55,10.27-1.19,1.72-2.63,2.82-4.53,3.75-1.14.56-3.44.36-4.22,1.33-1.09-.17-2.27.4-3.28-.4-2.45.15-4.59-1.79-7.26-1.05Zm-96.39-5.43c-.05.25.07.41.31.47.3-.2.19-.35-.32-.47.05-.25-.07-.41-.31-.47-.3.2-.19.35.32.47Zm110.1-3.92c-.1-.11-.25-.31-.27-.3-.83.51-.32.83-.67-.03-.39-.58-.62-1.29-1.65-.91.36.69.81,1.04,2.59,1.24Zm-133.05-6.58h7.61c-.1,1.6.29,3.16-.72,4.59-.85-.07-1.16.84-1.91,1.2h-5.78c-1.15,1.39-.36,3.02-.66,4.53.93.02,6.13.35,6.5.71,1.41-1.03,3-.29,4.49-.57.13.32.87,2.02,1.12,2.02v-18.31h-2.41c-.08.32-.15.56-.21.82-.53.38-1.42-.17-1.8.64-.68-1.07-6.72-.89-7.63.31v2.65c.45.45.88.89,1.4,1.41Zm22.11,2.02c1.42-.99.29-2.66,1.4-3.37-.3-1.77-1.56-2.55-2.36-3.45h-2.26c-1.25,2.04-.51,4.17-.73,6.02.41.41.6.6.8.8h3.15Zm88.04,3.12c.62-1.43-.41-2.42-.44-3.63-.02-.88-.78-1.75-1.31-2.81-.6,2.04-1.6,3.8-1.78,5.51,1.15,1.09,2.3,1.14,3.52.93Zm-117.47-8.3c-.35,1.35-.65,2.72,0,4.05v-4.05Zm19.59-1.05c-.33.99-.64,2.01,0,2.99v-2.99Zm98.31,4.66c-.52.49.32.58.3.96-.03.38-.2.85.32,1.18.27-.74.32-1.44-.02-2.14h-.6Zm-.5-1.68c.2-.66.45-1.33-.09-2.18-.28.9-.29,1.54.09,2.18Zm14.09,2.93c.4.41.67,1.36,1.52.62q-.61-.53-1.52-.62Zm-112.08,5.09c-.42.55-.42,1.08,0,1.64.42-.55.42-1.08,0-1.64Zm110.68-8.41c.33-.49.49-.83-.1-1.03-.26.33-.28.62.1,1.03Zm-88.97,1.06c.34-.48.5-.82-.08-1.04-.29.31-.27.6.08,1.04Zm77.84,3.63c-.34.48-.5.82.08,1.04.29-.31.27-.6-.08-1.04Zm24.66-8.18c-.49-.33-.83-.49-1.03.1.33.26.62.28,1.03-.1Zm-1.89-.78c-.25.17-.25.35,0,.52.25-.17.25-.35,0-.52Zm-101.14,3.7c.25-.17.25-.35,0-.52-.25.17-.25.35,0,.52Zm92.94,5.56c.17.25.35.25.52,0-.17-.25-.35-.25-.52,0Zm2.38,1.32c.25-.17.25-.35,0-.52-.25.17-.25.35,0,.52Zm-136.09,2.12c.25-.17.25-.35,0-.52-.25.17-.25.35,0,.52Zm141.91,1.6c-.25.17-.25.35,0,.52.25-.17.25-.35,0-.52Zm-110.41,3.97c-.17-.25-.35-.25-.52,0,.17.25.35.25.52,0Z"/>
    <path class="cls-1" d="m107.5,55.02c1.6,13.78-14.02,24.96-26.63,22.56-5.93-1.13-11.4-4.38-14.9-9.33-2.69-3.8-6.36-11.61-3.95-16.23-.61-10.23,10.16-18.86,19.35-20.14,10.85-1.52,21.86,4.79,25.14,15.42.78,2.53,1.35,5.09,1,7.73Zm-27.94,2.54c-1.3,2.81-1.65,5.75-3.03,9.04,2.22-1.8,5.72-5.02,8.47-5.69,2.14,2.06,4.66,3.56,7.26,5.37-.78-3.36-1.9-6.27-2.84-9.19,2.62-1.63,4.93-3.39,7.58-5.66h-9.33c-1.08-2.95-1.56-5.91-3.12-8.69-1.43,2.94-2.28,5.74-3.14,8.64-1.51,0-7.8-.95-8.67.68,2.15,1.95,4.76,3.24,6.83,5.49Z"/>
    <path class="cls-1" d="m80.27,138.99c-3.08,1.55-5.03,2.79-8.69,1.72-2.69-4.46-5.42-8.98-8.27-13.72-.95,4.18-.77,8.28-.77,12.57-.42.37-1.26.26-1.11,1.22h-5.74c-.45-8.76-.03-17.71-.03-26.6.7-.3,1.37-.65,1.75-1.34h6.4c2.63,4.86,5.65,9.5,8.7,14.56v-12.57c.73-.77,1.34-1.4,1.92-2h4.79c.26.26.51.51.78.78,0,7.11-.14,14.33-.53,21.44-.07,1.29-.02,2.55.79,3.94Zm-14.02-10.3c.05-.25-.07-.41-.31-.47-.3.2-.19.35.32.47-.05.25.07.41.31.47.3-.2.19-.35-.32-.47Zm1.06,1.33c-.17-.25-.35-.25-.52,0,.17.25.35.25.52,0Z"/>
    <path class="cls-1" d="m167.07,118.14c-1.57-.95-3.4-.44-5.19-.58-.25.24-.5.48-.77.73.15.27.3.53.46.79.08.43-.29.6-.71,1.1,2.24.08,4.3,0,6.44.05v3.56c-.28.42-.92-.09-1.45.33-.02.33-.05.75-.1,1.35h-4.66v2.59h7.01c.32.34.56.6.85.9v2.58c-.74.43-1.64.77-1.76,1.85h-11.79c-.29-.39-.09-.96-.6-1.15.87-1.98.18-4.03.29-6.12-4.97,7.3-9.35,7.32-17.77,7.32v-19.31c.5-.19,1.01-.54,1.14-1.34,6.28,0,11.26-.99,15.93,3.68.37-.8.97-1.5.89-2.52.24-.05.49-.1.81-.17.08-.24.19-.55.32-.93h12.45v3.55c-.46.05-.88.1-1.28.15-.53.39.12,1.07-.52,1.56Zm-18.21,2.79c-.73-2.11-1.91-3.06-3.55-3.39-.6.27-1.12.5-1.64.74-1.06,2.43-1.46,7.85.65,9.85h3.36c1.69-2.3,1.06-4.95,1.18-7.2Zm7.68.35c-.38.36-.38.71,0,1.07.38-.36.38-.71,0-1.07Z"/>
    <path class="cls-1" d="m105.89,131.67c-6.72,9.29-13.22,10.28-24.33,9.03.37-1.83-.56-3.77.58-5.54-.81-.83-.78-8.09.01-8.93.32-3.61-.54-8.43-.54-12.23.82-.05,1.26-.59,1.73-1.08,2.47-.59,9.11,1.44,10.83-.65,4.41-.45,9.41,2.98,11.22,6.94-.37,2.69,1.93,5.2.98,7.94-.51,1.49-.19,2.9-.49,4.52Zm-16.35-12.02c-.78,1.82-.5,3.99-.52,6.13-.02,2.66-.95,7.08,1.23,9.18h5.23c8.09-4.42-.26-21.47-5.95-15.32Z"/>
    <path class="cls-1" d="m129.25,139.78c-1.43-.16-.93,1.44-1.43,1.53-2.11-.77-3.96-.23-5.76-.49-.22-.22-.47-.47-.74-.74,0-5.59-4.7-5.67-9.2-4.09-.32.4-.97,3.06-.79,3.54-1.14.27-1.68,1.22-2.37,1.77-1.59-.91-3.3-.14-4.91-.5-1.45-1.77,3.88-13.02,4.62-15.15,1.56-4.51,3.73-8.75,5.39-12.77h7.08c2.18,2.18,2.7,8.24,3.61,11.27,1.09,3.61,1.9,10.15,4.07,13.21.53.76.41,1.45.44,2.41Zm-12.36-17.71c-1.18,1.68-1.41,3.42-1.92,5.05-.23.73.29,1.12.73,1.52h2.42c.21-2.28-.8-4.23-1.23-6.57Zm.99-1.31c-.25.17-.25.35,0,.52.25-.17.25-.35,0-.52Z"/>
    <path class="cls-1" d="m43.13,123.34c1.2.24,2.4-.33,3.42.64,1.26-.97,2.74-.45,4.06-.59.29.29.48.48.74.74v4.35c-.83.07-1.22.82-1.82,1.29h-5.78c-.45.45-.88.88-1.32,1.32,0,1.06,0,2.11,0,3.2,3.09,1.92,7.1.23,10.35.23.2.23.43.5.71.81v4.37c-1.27-.09-.95,1.51-2.15,1.73-1.65-2.12-13.91-.56-16.25-.56v-26.84c.24-.33,1.24-.07.97-1.22,2.53,0,15.44,1.6,16.69-.55.42.46.84.91,1.31,1.42.28,1.37-.96,2.67-.47,4.09.04-.06-2.23,1.43-2.25,1.44h-8.16c-.28.28-.46.46-.77.77.24,1.02-.51,2.29.73,3.36Z"/>
    <path class="cls-1" d="m2.85,183.15c-.28-.32-.51-.58-.66-.74-.09-.69.44-.83.7-1.23h166.47c.23.36.6.93.97,1.5l-.47.47H2.85Z"/>
    <path class="cls-1" d="m14.89,139.76c-1.4-.12-.94,1.43-2.05,1.67-1.12-1.1-3.9-.55-5.3-.55v-20.85c-.37-.37-.56-.56-.84-.84H.99c-.44-.36-.7-.59-.99-.83.27-1.44.99-2.79.46-4.29.92-.11,1.38-.62,1.85-1.12,4.39-1.25,13.5,2.2,17.22-.6,1.01-.29,1.38.63,2.17.56,0,1.44.33,3.72-.26,4.84-.38.73-1.52-.04-1.28,1.34h-3.85c-1.23,1.08-1.45,2.35-1.44,3.79.05,5.56.02,11.12.02,16.88Z"/>
    <path class="cls-1" d="m42.36,79.67c2.45-.55,4.81-1.26,7.31-.4.48-2.19.94-4.58,2.2-7.13,1.79,2.38,3.02,4.62,3.47,7.25.56-.19.73-.94,1.52-1.01,1.85,1.29,2.96,3.31,4.2,5.23.56-.21,1.02-.6,1.8-.41,1.2,1.63,3.34,2.43,4.63,4.15,3.62-2.84,7.2,4.17,7.2,6.73-.25.2-.59.47-1.02.81.08,1.28-.15,2.5-1.14,3.43q-3.5.81-8.52-.64c1.11-2.35,3.77-2.66,5.46-4.22-.2-1.18-.5-2.28-1.2-3.35-.97.35-1.3,1.59-2.44,1.63-.18,1.78-.94,3.13-2.83,3.6-2.51-.66-5.21-.77-7.35-2.51.64-.73,4.52-2.55,6.39-2.96-.28-1.28.53-2.7-.78-4.09-1.44,1.45-3.15,2.56-4.14,4.22-.84.15-1.6-.27-2.1.4-2.57-.45-4.48-2.23-6.88-3.31,2.06-1.47,4.32-1.89,6.73-1.81.23-.25.48-.5.72-.76v-4.36c-1.21,1.96-3.81,1.64-4.31,3.99h-2.87c-2.85-.8-4.26-2.81-6.05-4.48Z"/>
    <path class="cls-1" d="m1.7,104.87h167.51c.32.37.9.56.83,1.21-1.94,2.34-16.98.38-20.31.38-6.85,0-13.7,0-20.55,0-14.19,0-28.38,0-42.57,0-14.19,0-28.38,0-42.57,0-6.85,0-13.7,0-20.55,0-3.91,0-7.83,0-11.74,0-2.04,0-7.29-1.04-9.01.56-.94-.37-1.23-1.01-1.02-2.15Z"/>
    <path class="cls-1" d="m23.39,114.66c.2-.9,1.75-.45,1.63-1.75h6.02c.39,2.18.51,16.48.2,26.57-1.17,1.13-2.67,1.36-4.24,1.91-.7-.87-1.9-.35-3.11-.6,0-8.08,0-16.17,0-24.25,0-.67.22-1.41-.5-1.88Z"/>
    <path class="cls-1" d="m33.48,98.92h-7.46v-.66c.39-.44,1.13-.35,1.59-1.22-.23-3.03.55-6.41-.7-9.64-1.54.81-1.59,2.62-2.68,3.66-.45-.15-.26-.57-.41-.84-.55-.43-1.2,0-1.8-.28-.43-1.3-1.72-2.01-2.58-3.07h-2.17c-.55.19.1,1.16-.76,1.11.26.54.46.97.66,1.41,2.36.51,5.91,1.41,6.72,4.08,0,6.26-4.69,5.57-9.35,5.57-.13-.88-1.32-1.55-.26-2.46-1.17-.85.3-1.44.13-2.68,1.11,1.69,2.08,2.93,3.38,4.02h2.72c.25-.52.49-1.04.74-1.55-2.34-1.71-3.54-2.28-5.67-2.7-.08-.72-.59-1.18-1.15-1.7v-3.74c1.11-3.56,5.66-2.32,8.25-1.78.1.29.22.59.41,1.12.55-.72,1.02-1.32,1.35-1.75h10.58c-.44,1.79,1.04,3.36.42,5.18-1.74.48-1.69-3.68-3.57-3.57.2,1.38.25,8.95-.53,9.75.48.84,1.59.75,2.16,1.73Z"/>
    <path class="cls-1" d="m137.74,141.41v-3.45c.33-.42,1.3-.17,1.07-1.21h30.11v2.79c-.55.47-1.21,1.04-2.1,1.8q-2.33.11-3.72-.52c-.76,1.04-8.35.4-9.95.51-4,.28-8.09.08-12.11.08h-3.3Z"/>
    <path class="cls-1" d="m106.02,98.1c-3.36.85-6.67,1.79-9.83.06-.47-.93-.2-1.73-.3-2.55-.32-.34-.68-.71-1.04-1.08v-2.62c1.38-2.72,3.96-3.64,6.33-4.64.93.47.19,1.33.88,1.74.82-2.55,3.47-4.1,5.3-5.93.96,2.32.19,4.89-.27,7.26,2.13.62,4.34,1.37,6.37,2.56-.88,3.97-6.47,1.4-8.23,2.54-.45-.53-.85-1-1.36-1.6v-1.4c-.92-.29-1.56-.94-2.14-1.67-.09-.42.19-.89-.28-1.27-.68,1.39-.49,3.15-2.31,4.27,2.7,1.2,4.8,2.66,6.87,4.32Z"/>
    <path class="cls-1" d="m118.69,74.85c.6.85,2.03,4.24,2.35,5.16.56-.85,4.98-.03,5.99-.03-.48,3.72-6.17,4.34-8.69,4.8-.12-.75-.78-1.19-.74-1.92-.52-.49-1.17-.13-1.91-.27-.29-.36-.68-.83-1.25-1.53,0-3.63,1.39-4.88,2.92-7.94,1.09-.14.53.87,1.06,1.01.25-.25.5-.5.8-.8-.36-2.41.73-4.49,1.81-6.59,1.98,1.65,2.36,4.09,3.19,6.38,2.29-.35,4.51-1.32,6.92-1.07.42.32.15.8.22,1.13-1.52,1.52-3.01,3.01-4.61,4.61h-3.07c-.64-.39-.68-1.04-1.02-1.53h-2.63c-.3-.58-.49-1.24-1.34-1.44Z"/>
    <path class="cls-1" d="m148.14,96.84c-.57.57-1.31,1.31-2.11,2.11-.88.37-2.06-.34-2.89.69-.74-.4-1.48-.86-2.44-.54-1.06-1.12-2.33-2.04-2.97-3.8v-5.73c1.45-3.79,4.33-4.13,7.75-3.66,1.34.63,2.66,1.63,3.35,3.8-.11,1.98.41,4.51-.7,7.12Zm-6.09-8.74v9.2q1.37.85,2.54-.19v-8.84c-.48-.53-.88-.98-1.28-1.42-.47.47-.91.9-1.26,1.24Z"/>
    <path class="cls-1" d="m167.92,95.84c-.52,1.39-1.33,2.26-2.44,3.2-1.3,0-1.78-.12-2.8.61-1.06-.93-2.72-.4-3.99-1.63-.35-.67-.8-1.55-1.35-2.63.64-5.43,1.76-11.99,9.35-8.98.77,1.02.82,2.19.64,3.7-.19.19-.56.56-1,1,.19.8,1.14,1.12,1.6,1.95v2.77Zm-4.94-4.12c-.55.46-1.02.85-1.4,1.17v4.84c.27.27.51.51.79.79.42-.44.83-.89,1.25-1.33v-4.83c-.25-.25-.44-.44-.63-.63Zm1.27-4.6c-.54-.43-.57.2-.84.26-2.03.45-1.95,2.05-1.73,4.08.63-1.53,1.82-.42,2.53-1.16-1.22-1.06-.23-2.15.04-3.18Z"/>
    <path class="cls-1" d="m2.7,98.96c-.01-1.05.72-1.25,1.07-1.8,0-2.26.89-6.74-.53-8.68-.09-.33.2-.45.42-.73.04-.7-1.33-.82-.83-1.85h9.3c.37,1.21-.32,2.73.71,3.86-1.3.96-2.79-2.15-3.5-2.9-2.01.28-2.21.62-1.35,2.37-.17.18-.34.37-.51.56-.12.75.79,1.08.75,1.86,1.32-.32,1.1-1.68,2.32-2.14v5.72c-1.98-.36-.92-2.54-3.02-1.29v3.88c2.22.14,2.38.08,4.2-1.76v-1.01c.47-.4.96-.28,1.51-.08v3.34c-.18.18-.37.37-.64.64H2.7Z"/>
    <path class="cls-1" d="m128.34,90.48q-.65-1.11-.66-2.75c.57-.89,1.46-1.39,2.58-1.9,2.13.06,4.69-.62,6.42,1.92.09.64-.3,1.5.41,1.98-1.32,2.35-3.16,4.16-6,5.45,1.17.34,2.35.58,3.56.7.79-.67,1.5-1.4,2.16-2.2,1.16,1.03-.36,3.97-.11,5.33h-8.93v-2.44c.98-.79,1.68-2.08,3.07-2.53.07-1.1,1.46-1.59,1.83-2.54.47-1.2.27-2.64.27-3.93-.19-.15-.52-.42-.87-.69-.52-.12-.71.36-1.04.62.37,1.01.86,2.02-.36,2.99h-2.32Z"/>
    <path class="cls-1" d="m108.68,86.67c-.48-3.22,2.19-5.78,3.8-8.31,2.15,1.68,1.42,5.09,1.42,7.43,2.59-.31,4.86,1.01,7.52,1.22-2.83,3.03-5.18,2.77-8.76,3.58-.53-.5-.98-.93-1.41-1.34v-1.07c-.38-.55-1.03,0-1.44-.39-.39-.36-.75-.74-1.13-1.13Z"/>
    <path class="cls-1" d="m45.1,71.92c.99-1.94,1.97-3.88,3.03-5.97,2.08,2.68,2.51,5.49,2.18,8.53-.39.39-.83.83-1.27,1.27-.71,0-1.41,0-2.12,0-.39.44-.37,1.14-1.05,1.53h-2.72c-2.05-1.29-4.02-2.93-5.05-5.51,2.37-.95,4.49.72,7,.16Z"/>
    <path class="cls-1" d="m155.12,97.89c.93.01,1.3.44,1.7,1.05h-7.33c.17-1.05,1.4-.79,1.97-1.86-.59-3.04-.36-6.33.06-9.4-.29-.29-.54-.54-.8-.8-.18.17-.37.34-.55.51-.24-.24-.49-.49-.76-.76,1.74-1.33,3.73-.64,5.71-.86v12.13Z"/>
    <path class="cls-1" d="m42.33,70.44c-1.06-.49-1.94-1-2.56-1.91q0-6.38,1.39-8.24c1.53,2.67,3.82,4.92,3.43,7.72-.51,1.69-1.32,2.26-2.26,2.43Z"/>
    <path class="cls-1" d="m128.45,60.9c.21.21.39.39.58.58.93,2.46.8,5.02.74,7.59-.61,1.11-1.77,1.42-3.04,1.78-.17-.07-.36-.61-.9-.4-1.13-1.8-1.05-3.52,0-5.38.82-1.43,1.55-2.9,2.61-4.18Z"/>
    <path class="cls-1" d="m83.2,94.59c.64-.64,1.27-1.27,1.89-1.89h1.55c.45.45.88.88,1.32,1.32,0,.88,0,1.76,0,2.65-.53.71-1.36.94-2.1,1.34-1.03-.43-1.96-.98-2.67-1.91v-1.5Z"/>
    <path class="cls-1" d="m47.13,34.75c1.86-1.46,11.76,5.1,11.01,6.52-2.43-.59-4.49-2.28-6.89-3.12-1.09-1.45-3.54-1.32-4.12-3.4Z"/>
    <path class="cls-1" d="m128.67,55.62v1.62c-4.18-.28-8.39.49-12.71-.57.94-.97,1.9-1.08,2.98-1.07,3.22.05,6.45.02,9.73.02Z"/>
    <path class="cls-1" d="m100.71,30.87c-.74-.78-.5-1.39-.57-1.98,1.62-2.13,3.77-9.09,6.71-9.29-.32,2.22-1.7,3.9-2.67,5.77-1,1.94-2.66,3.41-3.48,5.49Z"/>
    <path class="cls-1" d="m63.04,19.88c.53-.4.97-.21,1.36-.23,2.09,3.51,4.41,6.89,5.79,11.11-2.94-2.01-3.54-5.6-5.94-8.08-.81-.84-.73-1.94-1.22-2.81Z"/>
    <path class="cls-1" d="m54.1,56.4c-3.04,1.98-9.06.81-12.47.81-.49-.44-.1-.92-.46-1.55,2.92-.14,5.85.12,8.76-.06,1.47-.09,2.81.31,4.17.8Z"/>
    <path class="cls-1" d="m85.84,26.54c-.51-.05-.68-.07-1-.11.2-3.84-.59-7.99-.59-11.89.51-.35.94-.19,1.36-.19.25.25.5.5.76.76-.93,1.67-.46,3.5-.52,5.27-.07,1.99-.02,3.99-.02,6.15Z"/>
    <path class="cls-1" d="m110.31,41.72c3.17-2.51,6.4-4.96,10.4-6.66.11.17.31.52.72,1.19.03.11-.36.44-.71.62-3.37,1.77-6.57,3.92-10.41,4.85Z"/>
    <path class="cls-1" d="m106.07,39.08c1.35-2.98,4.3-4.35,6.36-6.61.57-.29,1.18-.11,1.77-.11.88.51-5.6,5.53-5.82,5.77-.6.64-1.38.87-2.31.96Z"/>
    <path class="cls-1" d="m62.26,37.01c-.36.38-.47.49-.62.66-1.58-1.1-7.92-4.28-7.52-6.71.65-.48,1.14-.18,1.78.23,2.42,1.55,4.12,3.84,6.36,5.82Z"/>
    <path class="cls-1" d="m71.04,21.45c.35-.34.8-.65.34-1.58,3.03,2.17,2.78,6.62,4.31,9.64-1.71,1.71-3.18-4.76-3.57-5.84-.29-.8-.54-1.56-1.09-2.21Z"/>
    <path class="cls-1" d="m115.05,51.3c-.04-.29-.06-.45-.1-.82,3.12-.25,6.05-1.49,9.26-1.79.31.35.64.72,1.16,1.3-3.53.86-6.74,1.76-10.32,1.31Z"/>
    <path class="cls-1" d="m97.16,20.68c.42,0,.77,0,1.12,0,1.33,2-2.11,8.04-3.19,9.52-.17-.17-.35-.36-.63-.65.88-2.91,1.79-5.9,2.69-8.87Z"/>
    <path class="cls-1" d="m55.78,51.17c-4.14.65-7.36-.52-10.6-.94-.35-.76.26-.99.66-1.49,2.89.19,5.69,1.28,8.61,1.73.31.05.59.3,1.33.7Z"/>
    <path class="cls-1" d="m38.13,95.96v2.92c-.79.13-1.32.88-2.41.64-.3-.36-.73-.88-1.24-1.48.04-.6-.24-1.45.75-2.07h2.89Z"/>
    <path class="cls-1" d="m111.46,24.26c.55.72.25,1.35.25,1.37-1.45,1.45-2.67,2.67-3.99,3.99-.56-.13-.25-1.03-.12-1.19,1.17-1.41,1.95-3.21,3.86-4.17Z"/>
    <path class="cls-1" d="m57.51,23.85c2.24,0,3.54,3.25,4.58,4.97-1.33,1.25-4.01-2.81-4.75-3.54-.09-.49-.31-1,.16-1.43Z"/>
    <path class="cls-1" d="m62.85,19.02c-1.24-1.79-3.36-3.09-3.52-5.52.56-.36.99-.21,1.56-.19.8,1.78,2.37,3.32,1.96,5.71Z"/>
    <path class="cls-1" d="m90.75,21.68c-.68-2.19.93-4.12.28-6.26h1.58c.45,1.91-.21,3.63-.79,5.34-.12.37,0,1.14-1.07.92Z"/>
    <path class="cls-1" d="m122.32,34.94c.28-1.27,3.75-4.57,5.3-3.5v1.35c-1.64.78-3.11,2.13-5.3,2.15Z"/>
    <path class="cls-1" d="m45.15,41.93c2.47-.4,4.34.85,6.28,1.81-.07,1.55-5.06.03-5.78-.52-.33-.25-.73-.53-.5-1.28Z"/>
    <path class="cls-1" d="m79.03,21.76c-1.23-1.95-1.87-4-1.6-6.22.78-.42,1.28.15,1.35.51.36,1.87,1.13,3.73.25,5.71Z"/>
    <path class="cls-1" d="m110.82,14.53c-1.48,1.01-1.67,3.12-3.19,4.06-1.98-.4,1.78-5.4,2.35-5.86.28.59.52,1.11.84,1.79Z"/>
    <path class="cls-1" d="m135.87,57.24c-1.93-.23-4.04.49-6.04-.75,1.89-1.51,4.07-.58,6.02-.9.29.29.54.54.81.81-.23.24-.47.49-.79.83Z"/>
    <path class="cls-1" d="m39.37,57.17h-5.2c-.43-.37-.12-.84-.22-1.24.44-.57,4.72-.2,5.1-.2.19.52.91.25,1.28.71-.26.2-.54.41-.95.72Z"/>
    <path class="cls-1" d="m32.31,55.71v1.41h-5.73v-1.41h5.73Z"/>
    <path class="cls-1" d="m59.15,12.16c-1.38.41-3.58-4.2-3.47-5.18h1.36c1.51,2,2.24,3.76,2.11,5.18Z"/>
    <path class="cls-1" d="m114.5,8.04c-1.08,1.44-2.15,2.87-3.44,4.58-.8-2.47,1.67-3.67,1.26-5.49.47-.31,1.02-.14,1.28-.81.32.63.6,1.15.89,1.72Z"/>
    <path class="cls-1" d="m40.86,32.26c.02-.61-.12-.99-.68-1.25.82-.47,1.6-.18,2.32-.28,1.26.87,2.5,1.74,4.01,2.79-2.43,1.07-3.73-.98-5.65-1.26Z"/>
    <path class="cls-1" d="m133.97,27.54v1.57c-1.7.77-3.16,2.13-5.18,2.17-.18-.95.33-1.42.71-1.52,1.6-.43,2.44-2.31,4.47-2.22Z"/>
    <path class="cls-1" d="m137.69,56.46c.33-.33.58-.58.83-.83h4.8c.21.23.45.49.72.79-.19.21-.41.45-.75.81-1.77-.41-3.82.74-5.61-.77Z"/>
    <path class="cls-1" d="m118.5,44.73c1.36-2.52,3.9-2.12,5.28-3.42.72.04.86.55,1.27.81-1.74,1.85-4.04,1.97-6.55,2.61Z"/>
    <path class="cls-1" d="m39.73,30.06c-2.74.93-4.56-2.69-6.39-2.56,1.39-.67,2.23-.4,2.97-.46,1.07,1.12,2.65,1.57,3.41,3.03Z"/>
    <path class="cls-1" d="m85.8,7.78v5.25c-.17.28-.45.22-.88.24-.2-1.85-1.06-3.63-.55-5.69.16-.16.41-.41.7-.7.21.26.43.52.73.9Z"/>
    <path class="cls-1" d="m85.75,5.75c-.26.04-.42.07-.65.1-1.13-1.73-.79-3.69-.86-5.56.46-.46.96-.28,1.5-.14v5.6Z"/>
    <path class="cls-1" d="m100.61,14.65v2.42c-.46,1.09-.96,1.95-1.83,2.5-.25-.25-.49-.49-.85-.85.94-1.18.44-3.24,2.68-4.08Z"/>
    <path class="cls-1" d="m71.45,19.52c-.26.04-.42.07-.65.1-.75-1.44-1.81-2.79-1.25-4.72,1.47-.31,1.26,1.31,1.9,1.74v2.88Z"/>
    <path class="cls-1" d="m130.32,47.94v1.04c-1.3,1.01-2.74.88-4.17.74-.23-.81.33-1.37.64-1.37,1.2,0,2.24-1.38,3.53-.41Z"/>
    <path class="cls-1" d="m39.78,48.99c0-.35,0-.69,0-1.04.97-1.3,4.1.73,4.34,1.76-1.59.13-3.05.35-4.34-.72Z"/>
    <path class="cls-1" d="m53.53,29.53v.95c-.3.52-3.56-1.91-3.63-1.95v-1.43h1.2c.82.82,1.62,1.62,2.43,2.43Z"/>
    <path class="cls-1" d="m115.51,32.14c-.7-.82-.47-1.27-.53-1.67.62-.62,1.24-1.24,1.77-1.77h1.91c-.03.33.03.61-.08.79-.77,1.18-2.3,1.31-3.06,2.65Z"/>
    <path class="cls-1" d="m46.39,23.85h1.06c.6.62,1.22,1.24,1.84,1.88-.07.38.18.83-.16,1.21-.62.25-1.57-.34-3.01-1.88.07-.4-.18-.88.27-1.2Z"/>
    <path class="cls-1" d="m100.8,10.66c.5-.02.93-.17,1.37.11.35,1.35-.14,2.45-1.08,3.4-.4.27-.72.06-.95-.64-.14-1.06.64-1.87.66-2.86Z"/>
    <path class="cls-1" d="m67.33,11.4c.46-.61,1-.99,1.82-.77.27.17.81,2.74.72,3.04-.12.09-.44.34-.77.59-.92-.73-1-2.02-1.77-2.87Z"/>
    <path class="cls-1" d="m38.71,47.84v.77h-3.56c-.32-.33-.05-.79-.15-1.24,1.38-.63,2.55,0,3.71.47Z"/>
    <path class="cls-1" d="m132.08,47.24h2.87c.41.73-.19.98-.55,1.42h-2.87c-.41-.73.19-.98.55-1.42Z"/>
    <path class="cls-1" d="m119.24,28.06v-1.32c.39-.4.86-.89,1.27-1.32.49.02.83.04,1.07.05.37.25.31.56.26.78-.3,1.22-1,1.97-2.6,1.81Z"/>
    <path class="cls-1" d="m76.33,12.85c.35-.59.57-.96.7-1.18,1.03,0,1.33.62,1.39,2.39-.32.44-.78.19-1.29.28-.27-.51-.56-1.05-.8-1.49Z"/>
    <path class="cls-1" d="m56.49,21.23c.27.55.56,1.13.81,1.64-.28.68-.8.35-1.21.5-.6-.47-1.17-.95-1.48-1.49-.02-.55.67-1.43,1.12-.85.22.27.48.13.76.2Z"/>
    <path class="cls-1" d="m112.65,23.96c-.9-1.18.32-1.86.44-2.8,1.07.14,1.44.76,1.34,1.91-.54.27-1.16.57-1.78.88Z"/>
    <path class="cls-1" d="m128.69,40.37c.25.84-.44,1-.64,1.47-.86-.02-1.7.17-2.66-.2.87-1.5,2.05-1.48,3.3-1.26Z"/>
    <path class="cls-1" d="m91.87,14.33c-.49-.97.19-1.83.63-2.65.73-.03.87.5,1.24.74-.63.58-.43,1.89-1.87,1.91Z"/>
    <path class="cls-1" d="m92.98,11.12c-.62-.46-.98-1.01-.86-1.49.4-.57.64-.93.77-1.12.89-.07,1.06.51,1.45.88-.12.84-.9,1.16-1.37,1.73Z"/>
    <path class="cls-1" d="m77.88,10.47c-1.09.34-1.75.05-2.1-.85.08-.61.52-.86.96-1.14.98.24,1.31.89,1.14,2Z"/>
    <path class="cls-1" d="m54.34,20.8c-.68-.33-1.3-.64-1.92-.95.29-1.12.93-1.48,2.01-1.24.26.65.28,1.35-.09,2.18Z"/>
    <path class="cls-1" d="m44,41.62c-.59.45-1.26.19-1.89.2-.33-.39-.87-.64-.74-1.3.59-.45,1.26-.19,1.89-.2.33.39.87.64.74,1.3Z"/>
    <path class="cls-1" d="m116.59,20.21c-.48.91-1.12,1.34-2.16.76-.05-.84.81-1.18.69-1.9.95.04,1.27.48,1.48,1.14Z"/>
    <path class="cls-1" d="m129.2,40.62c.28-1.26.97-1.55,1.93-1.4.53.42.06.94.34,1.4-.83.25-1.47.27-2.27,0Z"/>
    <path class="cls-1" d="m40.91,40.63c-.82.24-1.46.26-2.1.04-.06-.53-.36-1.24.19-1.42.92-.3,1.63.13,1.91,1.38Z"/>
  </g>
</svg>