<?xml version="1.0" encoding="utf-8"?>
<!-- Generator: Adobe Illustrator 27.1.0, SVG Export Plug-In . SVG Version: 6.00 Build 0)  -->
<svg version="1.1" id="Capa_1" xmlns="http://www.w3.org/2000/svg" xmlns:xlink="http://www.w3.org/1999/xlink" x="0px" y="0px"
	 viewBox="0 0 228.1 376.1" style="enable-background:new 0 0 228.1 376.1;" xml:space="preserve">
<style type="text/css">
	.st0{fill:#FDFDFD;}
	.st1{fill:#FEFEFE;}
	.st2{fill:#414141;}
	.st3{fill:#F8F8F8;}
	.st4{fill:#BBBBBB;}
	.st5{fill:#B9B9B9;}
	.st6{fill:#B5B5B5;}
	.st7{fill:#2C2C2C;}
	.st8{fill:#BEBEBE;}
	.st9{fill:#808080;}
	.st10{fill:#9D9D9D;}
	.st11{fill:#B4B4B4;}
	.st12{fill:#7B7B7B;}
	.st13{fill:#B0B0B0;}
	.st14{fill:#909090;}
	.st15{fill:#747474;}
	.st16{fill:#757575;}
	.st17{fill:#8F8F8F;}
	.st18{fill:#323232;}
	.st19{fill:#434343;}
	.st20{fill:#4B4B4B;}
	.st21{fill:#3D3D3D;}
	.st22{fill:#383838;}
	.st23{fill:#505050;}
	.st24{fill:#4C4C4C;}
	.st25{fill:#545454;}
	.st26{fill:#F3F3F3;}
	.st27{fill:#2C2C2B;}
	.st28{fill:#353535;}
	.st29{fill:#3B3B3B;}
	.st30{fill:#ABABAB;}
	.st31{fill:#2E2E2E;}
	.st32{fill:#ADADAD;}
	.st33{fill:#D7D7D7;}
	.st34{fill:#D2D2D2;}
	.st35{fill:#363636;}
	.st36{fill:#A4A4A4;}
	.st37{fill:#999999;}
	.st38{fill:#ACACAC;}
	.st39{fill:#767676;}
	.st40{fill:#969696;}
	.st41{fill:#B3B3B3;}
	.st42{fill:#7F7F7F;}
	.st43{fill:#888888;}
	.st44{fill:#898989;}
	.st45{fill:#3C3C3C;}
	.st46{fill:#989898;}
	.st47{fill:#7D7D7D;}
	.st48{fill:#D1D1D1;}
	.st49{fill:#787878;}
	.st50{fill:#A9A9A9;}
	.st51{fill:#3A3A3A;}
	.st52{fill:#949494;}
	.st53{fill:#8C8C8B;}
	.st54{fill:#242424;}
	.st55{fill:#6C6C6C;}
	.st56{fill:#5D5D5D;}
	.st57{fill:#8C8C8C;}
	.st58{fill:#C7C7C7;}
	.st59{fill:#868686;}
	.st60{fill:#C2C2C2;}
	.st61{fill:#646464;}
	.st62{fill:#C7C7C6;}
	.st63{fill:#CCCCCC;}
	.st64{fill:#343434;}
	.st65{fill:#939393;}
	.st66{fill:#C8C8C8;}
	.st67{fill:#3F3F3F;}
	.st68{fill:#BCBCBC;}
	.st69{fill:#C4C4C4;}
	.st70{fill:#9A9A9A;}
	.st71{fill:#959595;}
	.st72{fill:#C1C1C1;}
	.st73{fill:#6D6D6C;}
	.st74{fill:#424242;}
	.st75{fill:#FCFCFC;}
	.st76{fill:#4D4D4D;}
	.st77{fill:#DCDCDC;}
	.st78{fill:#5C5C5C;}
	.st79{fill:#B6B6B5;}
	.st80{fill:#C3C3C3;}
	.st81{fill:#929292;}
	.st82{fill:#D3D3D3;}
	.st83{fill:#8E8E8E;}
	.st84{fill:#525252;}
	.st85{fill:#A3A3A3;}
	.st86{fill:#777777;}
	.st87{fill:#AAAAAA;}
	.st88{fill:#A6A6A6;}
	.st89{fill:#979797;}
	.st90{fill:#707070;}
	.st91{fill:#A5A5A5;}
	.st92{fill:#A1A1A1;}
	.st93{fill:#838383;}
	.st94{fill:#444444;}
	.st95{fill:#6E6E6E;}
	.st96{fill:#A2A2A2;}
	.st97{fill:#A8A8A8;}
	.st98{fill:#EAEAEA;}
	.st99{fill:#848484;}
	.st100{fill:#373635;}
	.st101{fill:#EFEFEF;}
	.st102{fill:#E8E8E8;}
	.st103{fill:#E0E0E0;}
	.st104{fill:#7E7E7E;}
	.st105{fill:#BABABA;}
	.st106{fill:#C5C5C5;}
	.st107{fill:#AEAEAE;}
	.st108{fill:#919191;}
	.st109{fill:#C9C9C9;}
	.st110{fill:#878787;}
	.st111{fill:#E4E4E4;}
	.st112{fill:#CACACA;}
	.st113{fill:#F5F5F5;}
	.st114{fill:#7A7A7A;}
	.st115{fill:#A0A0A0;}
	.st116{fill:#999898;}
	.st117{fill:#5E5E5E;}
	.st118{fill:#8D8D8D;}
	.st119{fill:#9F9F9F;}
	.st120{fill:#A7A7A7;}
	.st121{fill:#6A6A6A;}
	.st122{fill:#6F6F6F;}
	.st123{fill:#E5E5E5;}
	.st124{fill:#AFAFAF;}
	.st125{fill:#757474;}
	.st126{fill:#ECECEC;}
	.st127{fill:#555555;}
	.st128{fill:#9B9B9B;}
	.st129{fill:#CECECE;}
	.st130{fill:#4E4E4E;}
</style>
<path class="st0" d="M188.1,128.7c3.3,13.2,1.1,26-2,38.9c-5.7,23.1-19.1,41-38.1,54.8c-1.6,1.2-3.2,2.4-4.7,3.7
	c-2.3,2-3.8,4.5-3.5,7.8c1.4,14.2,2.4,28.3,6.2,42.2c1.9,6.8,4.6,13.2,7.7,19.4c1.3,2.7,2.7,5.3,6.1,6c1.9,0.4,2.7,2.3,3.9,3.6
	c1.8,4.5,7.2,4.9,9.8,8.8c2.4,3.6,4.6,7.4,8.6,9.8c1,0.6,1.6,0.8,2.6,0.5c3.4-0.9,6.7-2.5,10.2-0.5c4.1-0.2,8.2-0.4,12.3-0.6
	c2.2,0.3,4.3,0,6.4-0.4c2-0.5,4-0.5,5.9,0.1c3.7,1,7.3,2.9,8.3,6.5c1,3.8-2.9,5.7-5.5,7.5c-8.1,5.3-16.8,9-25.9,12.4
	c-8.1,3-16.1,6.2-24.3,8.6c-11.8,3.7-23.8,6.9-35.9,9.6c-5.4,1.4-10.9,2.8-16.3,4.2c-11.5,4-23.5,4.8-35.6,4.5
	c-4.6-0.1-10-0.2-11.6-5.7c-1.7-5.6,2.5-8.8,6.6-11.6c0.3-0.2,0.6-0.4,0.8-0.6c1.2-0.6,2.4-1.1,3.4-2c5.8-3.8,12.1-6.6,18.4-9.6
	c3.6-1.7,5.6-4.3,6.5-8.1c1.2-5.1,2.8-10.2,4.5-15.1c0.4-1.2,1-2.3,2.3-2.7c1.6,0.3,3.2,1.1,5,0.6c-2.1,0.5-3.7-0.4-5.4-1.3
	c-1.3-2.2-0.4-3.7,1.4-5c3.1,0.1,3.7-1.7,3.4-4.2c0.1-0.4,0.3-0.8,0.6-1.2c0.8-0.8,1.8-1.1,2.8-1.3c0.6-1.8-1.8-1.8-1.9-3.2
	c-1.5-1.3-2.8-2.8-3.3-4.9c-0.9-2.6-1.3-5.3-0.7-8c-0.7-7-2.7-13.6-5.8-19.9c-1.1-2.5-2.1-5-2.2-7.8c-0.1-1.6-1-3.8,1.2-4.1
	c1.7-0.2,2.1,1.7,2,3.3c0,0.2-0.1,0.6,0.1,0.5c2.9-1.3,3,1.2,3.5,2.8c0.8,2.3,0.8,4.9,3.2,6.4c0.8,1,1.2,2.1,1.4,3.4
	c0.3,6.4,2.7,12.4,2.9,18.8c0,1.5,0.7,3.7,3.2,3.6c2.7,4.1,6.8,3.9,10.9,3.6c4-0.7,4.9-2.2,3.8-7c-1.4-5.9-3.4-11.7-4.7-17.6
	c-2-7.5-4.3-14.9-5-22.6c-0.9-6.3-2.7-12.5-2.3-18.9c0.1-1.6-0.5-2.9-2.5-2.8c-1.8,0.6-3.7,0.6-5.4,1.2c-1.6,1.2-3.4,2.1-4.2,4.1
	c2.5,3.3-2.1,4.8-1.9,7.6c-0.4,1.1-0.9,2.7-2.1,2.4c-2.8-0.8-0.2,1.5-1.1,1.6c-0.1,1-0.5,1.8-1.3,2.4c-2.1,0.6-3.3-0.8-3.6-2.3
	c-0.7-3.3-2,0.8-2.7-0.4c-4.7-8.5-12.4-10.7-21.5-11.7c-17.5-2.1-32.9-9.9-47.4-19.6c-3.6-2.4-6.2-6-9.4-8.9
	c-8.1-9-14.2-19-17.6-30.7c-0.1-1.9-0.9-4.1,2-4.9c2,0.2,2.4,2,3.4,3.3c1.8,4.6,4.4,8.9,6.3,13.4c8,11.7,17.1,22.2,29.3,29.7
	c1.2,1.1,2.9,1,4.3,1.8c4.7,1.9,8.6,5.2,13.5,6.5c2,1.2,4.3,1.2,6.6,1c2.3,0.3,4.7,0.1,6.9,1.1c4.1,1.1,8.2,2.1,12.3,2.9
	c3.4,0.1,6.9,0.7,10.9-0.2c-1.5-0.6-2.8-0.7-3.7-1.5c-1.4-1.3-0.9-2.3,0.6-3c0.9-0.3,1.9-0.2,2.9-0.4c1.4-0.5,2.8-1,4.3-1.1
	c3.4,0.1,6.4-1,9.3-2.8c3.5-2.1,6.8-4.8,11.2-4.7c1.5,0,3.1,0.2,4.5-0.5c1-0.5,2.1-1,3.3-0.6c1.4,0.9,0.9,2.1,0.4,3.3
	c-1.7,5.8-1.2,11.8-0.5,17.5c2.3,20.9,7.2,41.2,14.3,61.1c1.6,4.5,3.9,6,7.5,7.6c3.5,1.6,6.1,5,10.7,5.5c-5.9-3.6-9.6-9.2-15.1-12.8
	c-2.1-1.3-3.3-3.7-4.3-6c-4.4-9.9-7.5-20.2-9.2-30.9c-0.6-4-2-7.7-2.7-11.6c0.6-2.6,0.6-5.2-1-7.6c-0.2-1.9,0.2-3.9-0.5-5.8
	c0-2.6,0.7-5.2,0.5-7.9c0-4,2.2-6.8,5.1-9.2c1.3-1.2,2.4-2.5,2.3-4.4c0.1-0.7,0.4-1.3,0.9-1.8c3.1-1.7,5-4.3,6.4-7.5
	c0.4-0.3,0.8-0.5,1.2-0.7c1.8,0,4.1,0.7,3.4-2.7c-0.3-1.3,0.8-2.7,1.2-4.2c0.6-1.3,1.4-2.4,2.6-3.2c1.9-0.3,2.4-3.5,5-2.6
	c0.7,0.5,0.3,1.5,1.3,2.2c-0.3-0.9-0.8-1.4-1.2-2.1c-0.4-0.2-0.7-0.6-0.8-1c-0.1-0.7,0.1-1.3,0.6-1.9c1.3-1.4,2.9-1.3,4.5-0.7
	c0.9,0.4,1.5,0.3,1.8-0.7c2.6-2.4,3.4-5.9,5.3-8.7c2.1-1.4,1.9-3.9,2.7-5.9c0.5-2.2-1.2-3.6-1.8-5.3c-0.3-1.2-0.1-2.3,0.6-3.3
	c3.5-1.7,1.4-5.3,2.6-7.7c0.4-0.3,0.8-0.5,1.2-0.6c2.6-0.1,3.8-1.7,3.9-4.2c0.2-3,0.5-5.9,0.9-8.8c-0.7-2.6,0.6-5.6-2-7.7
	c-1.8-3.6-1.7-7.1,0.7-10.4C186.1,128.2,187.1,128.1,188.1,128.7z"/>
<path class="st1" d="M188.1,128.7c-0.9,0.2-1.9,0.5-2.8,0.7c-2.9-3.6-3.1-7.9-3.5-12.2c0.3-4.4-2.5-7.7-4.3-11.2
	c-3.9-5.8-8.5-11.2-11.8-17.4c-0.8-3.4-2.5-6.4-5.1-8.9c-2.2-1-2.9-3.5-4.6-5c-1.9-3.5-4-6.9-5.7-10.5c-0.2-0.2-0.3-0.5-0.5-0.7
	c-0.1,0.5,0.1,0.9,0.1,1.4c-0.1,0.5-0.3,0.8-0.6,1.1c-2.9,0.7-0.7,1.5-0.1,2.4c1.1,1.7,1.9,3.6,3.5,4.9c0.7,0.9,1.5,1.7,2.3,2.4
	c0.3,0.3,0.6,0.7,0.8,1.1c1.1,1.8,1,4.3,3.2,5.5c1.1,1.1,2.3,2.1,3.2,3.5c1.3,9,6.2,16.4,10.4,24.1c0.3,0.7,0.4,1.3,0.3,2.1
	c-1.5,2.1,0.2,3.1,1.4,4.3c0.7,1.4,0.5,2.7-0.6,3.9c-0.5,0.6-2,0.8-0.8,2.1c1.2,1.3,1.4,2.9,1.7,4.6c0.1,0.4,0.1,0.9,0.1,1.3
	c0,0.5-0.1,0.9-0.3,1.4c-0.8,2.3-0.7,2.6,1.1,3.6c0.6,1.1,0.5,2.3,0.1,3.4c0,4.2-1.9,8.1-1.8,12.4c0.1,1.6-2.6,2.8-0.4,4.8
	c0.5,0.4-0.8,1.6-1.6,2.3c-3,2.8-4.4,5.9-2.1,9.7c-0.2,2.4-0.4,4.8-2,6.7c-0.6,0.6-1.1,1.2-1.6,1.8c-1.9,2.4-4.4,2.5-7.1,2
	c-3.5-0.7-2.2-3.8-2.9-5.9c0-0.7,0.2-1.4,0.4-2.1c0.8-1.9,3-3.6,0.5-5.8c-0.4-0.6-0.6-1.3-0.7-2c-0.2-4.2-1-8.4-1.9-12.5
	c-1.3-2.4-0.6-5.5-2.5-7.7c-1.9,0-3.5-0.6-4.4-2.4c1.1-3.2,2.6-6.4-2.1-8.1c-0.6-0.3-1.2-0.6-1.8-1c-0.5-0.4-0.9-1-1-1.7
	c-0.1-1.6,0.3-3.3-0.5-4.9c-0.5-0.7-1.2-1-2-1c-1.1,0.1-2.3,0.2-3.3-0.4c-1.3-0.9-1.9-2.1-2.2-3.6c-0.8-2,2.4-4.3-0.5-6.2
	c-2.4-3.7-3.3-8-5.7-11.8c-0.8-1.3-0.8-3.3-2.7-3.8c-3.3-2.4-5.5-5.6-6.5-9.5c0.8-3.6-1.9-4.2-4.4-4.9c-2.1-2.6,0.9-3.6,1.6-5.9
	c-2.1,4.2-4.7,2-7.3,1.2c-1.2,0.3-2.3,0.3-3.4-0.1c-2.6-1.3-4-3.1-2.2-6c0.3-0.4,0.6-0.8,1-1.1c1-0.6,2-1.3,3-2
	c7.2-1.6,14.2-4.2,21.6-5.3c2.3,0.2,4.6-0.4,6.9,0.3c-1.2-0.5-1.8-1.4-1.5-2.7c0.8-1.7,3.1-1.4,4.1-2.9c1.5-0.9,2.9-2,4.7-1.6
	c-5.5-9.6-9.6-19.7-13.6-30c-0.6-0.7-1-1.5-1.4-2.3c-0.8-0.5,0.6-3.2-2-2.1c-0.9,0.2-1.8-0.1-2.5-0.6c-4-3.2-8.2-2.4-12.4-0.5
	c-0.5-0.1-0.9-0.2-1.3-0.5c-3.6-2.2-7.6-1.5-11.5-1.5c-1.5,0-2.9,0.7-4.2-0.5c-0.2-0.5-0.2-0.9,0-1.4c0.9-0.4,1.9-0.8,2.9-0.6
	c1.2-0.2,2.5-0.5,3.7-0.7c3.1,0.5,5.8-2.4,9-1.3c3.1-0.2,6.2-0.3,9.3-0.5c2.5,0.2,4.9-1.8,7.4-0.1c3.5,1.6,4.1,5,5.1,8.2
	c3.3,10.7,7.4,21,13.5,30.5c0.1,0.9,0.4,1.6,1.3,2c1.9,1.9,3.8,4,4.1,6.9c2.7,5,6.5,9.4,9.9,14c1.9,1.2,3.1,3,3.5,5.2
	c1.1,1.8,1.7,3.9,3.6,5.2c4.6,2.4,7.1,6.3,8.1,11.3c1.9,6.5,7,11.6,8.2,18.4c2.5,4.2,3.8,8.8,3.6,13.7
	C188.3,128.1,188.3,128.4,188.1,128.7z"/>
<path class="st2" d="M29.9,19.9c1.7-0.3,3.2-1,4.5-2.2c6.6-1.4,13.5-0.8,20.1-2.6c0.5,0,0.9,0,1.4,0c2-0.4,4.8,3.4,5.8-1.3
	c0.1-0.2,0.2-0.4,0.3-0.6c2.3-0.7,5.1,2.6,7.1-0.8c0.6-0.7,1.2-1,2-0.4c0.8,0.4,1.1-0.4,1.6-0.7c0.9,0.5,2.6-0.6,2.7,1.4
	c-1.6,4.2-6.5,2.5-9.2,4.9c-1,0.9-2.7,1-3.3,2.6c-1,2.4-3.4,2.3-5.3,2.9c-1.9,0.6-3.8,1.1-5.3,2.4c-1.1,0.3-2.1,0.8-3.2,1.3
	c-3.7,0.9-7.6,0.8-10.6,3.7c-1.8,0.8-3.3,0.3-4.7-1.1c-0.4-0.8-1.1-1.7-0.7-2c-0.9,1.5-0.5,4.7-3.1,6.1c-1,0.3-2,1-3.1,0.5
	c-0.5-0.1-1-1.9-1.5-0.1c-0.2,0.9-0.2,1.9-0.7,2.8c-2.5,2.5-5.7,3.6-9.1,4.4c-1.9-0.9-2.4,0.7-3.3,1.7c-1.1,0.8-2.2,1-3.5,0.6
	c-1.2-0.6-1.9-1.6-2.4-2.8c-0.9-3.5,1.5-5.8,3.5-7.8c3.1-3.1,6.7-5.8,10.7-7.7c0.5-0.1,0.9-0.1,1.4-0.1C26.6,26,27.1,21.3,29.9,19.9
	z"/>
<path class="st3" d="M49.2,26.4c0.6-0.3,0.7-1.7,1.8-0.7c2.6-0.9,5.2-1.8,7.7-3c1.5-0.5,3-0.9,4.5-1.2c0.8-0.2,1.6,0,2.3,0.3
	c1.9-0.4,3.8-0.9,5.6-1.3c3.5,0.3,6.5-2.5,10-2c1.9-0.4,3.8-0.8,5.8-1.3c2.7-0.6,5.2-1.9,8.1-0.9l0.1,0.5c-0.3,3.5-4.6,2.7-5.7,5.3
	c-1.4,1.8-3.5,2.9-5.1,4.5c-1.8-0.4-2.4-3.2-4.8-2.5c-1.9,0.5-3.7,1.1-6.3,0.5c2,0.5,3.2,1.1,3.8,2.5c0.5,3.5-1.4,3.3-3.8,2.6
	c-0.8-0.3-1.6-0.3-2.4-0.1c-1.1,0.1-2.1-0.3-2.9-1c-0.8-0.8-1.7-1-2.7-0.2c-1.7,2.1-3.1,4.7-6.1,5.3c-1.8,0.3-3.4-0.3-4.9-1.2
	c-1.7-1.1-1.7,0.6-2,1.6c-0.6,1.1-1.5,1.7-2.7,2c-0.7,0.1-1.4-0.1-2-0.4c-1.7-2-3.3-0.8-5,0.1c-2.4,1.1-5,0.6-7.5,0.7
	c-3-0.4-5.6,0.7-8,2.4c-5,2.2-9.9,4.8-14.8,7.2c-3.8,1.8-5,4.1-3.6,8.3c1.4,4.4,2.7,8.9,1.1,13.6c-2.6,0.8-2-1.5-2.4-2.6
	c-1.1-2.6-1-5.5-1.5-7.5c-0.3,4.7,3.2,9.5,2,15.1c-0.7,0.6-1.5,0.7-2.4,0.4C1.9,70.6,2.9,66.4,2,62.9c-0.5-1.7-0.8-3.5-1-5.3
	c-0.1-0.8,0.1-1.7,0.1-2.5c0-2.9-2-5.7-0.7-8.7c0.7-1.5,1.7-2.6,3.1-3.3c1.9-0.7,3.7,0.1,5.6,0.2c1.2-0.4,2.4-0.9,3.6-1.3
	c0.4-0.8,1-1.2,1.9-1.3c3.4-1.5,7-2.6,10.1-4.8c0.6-1.2,1.5-1.5,2.7-1c0.5-0.7,0.6-1.8,1.9-1.4c2.5-0.3,2.8-3.4,5.1-3.9
	c1.5-0.9,2.7,1.4,4.2,0.4C41.8,27.8,45.7,27.6,49.2,26.4z"/>
<path class="st4" d="M55.7,16.1c-4,1.4-7.9,3.1-12.3,1.3c-2.2-0.9-4.4,0.6-6.5,1.1c-1.2,0.3-2.1,1.1-2.5-0.8
	c3.9-0.7,7.3-3.6,11.6-2.8c4.6-0.3,8.6-1.8,12-4.9c1.3-1.2,3-2.1,5-1.7c0.8-0.6,1.7-1.3,2.5-1.9c0.8-1.6,2-1.8,3.6-1.1
	c2.9,0.1,5.8,0.3,8.7,0.4c1.8-0.4,3.6-1.2,5.4-0.1c0.1,1.5-0.7,1.9-2,1.5c-1.5,0.1-3,0.4-4.4,0.2c-6-0.7-11.6,0.1-15.7,5.1
	C60,15,57.8,15.5,55.7,16.1z"/>
<path class="st5" d="M116.1,3.7c1.9-1,3.4,0.4,5.2-1.6c2.1-2.3,9.6,3.4,9.6,7.1c0,1.7-1.1,2-2.3,1.8c-1.3-0.2-0.9-0.8-0.7-2.1
	c0.7-3.1-3.4-5.5-6.4-4.3C119.8,5.4,117.9,6.6,116.1,3.7z"/>
<path class="st6" d="M94,4.7c4.5-0.3,8-3.6,12.4-4c2.6,0.4,5.1-0.6,7.7-0.7c-2.4,1.6-5.2,2.1-7.9,2.6c-5.8,1-10.8,4.1-16.1,6.4
	c-0.8-0.4-1-1.1-0.8-2C90.4,5.5,92.1,4.8,94,4.7z"/>
<path class="st7" d="M195,323.8c-3.4,0.8-6.8,0.8-10.2,0.5C190.5,319.9,191.6,319.9,195,323.8z"/>
<path class="st8" d="M58.8,23.8c-2.4,1.5-4.8,3.1-7.8,1.9c0.9-3.1,3.8-3.1,6.2-3.8c1.9-0.5,3.9-1,5.8-1.5c1.1-0.1,2.1,0.1,2.5,1.3
	c-0.7,0.2-1.4,0.4-2.2,0.5c-3.3,0.1-6.2,1.2-8.3,1.9C55.6,23.8,57,23.1,58.8,23.8z"/>
<path class="st9" d="M89.5,7.1c0.2,0.6,0.4,1.2,0.6,1.8c-0.1,0.1-0.3,0.2-0.4,0.3c-1.7,0.8-7.4-0.4-8.4-1.8c0.6-0.4,1.1-0.9,1.7-1.3
	c0.2-0.8,0.5-0.9,1.1-0.3c0.4,0.1,0.8,0.1,1.2,0.2C86.7,5.8,88.3,5.7,89.5,7.1z"/>
<path class="st10" d="M95.1,16.2c-2.7,0.4-5.3,1.7-8.1,0.9c0.3-0.9-0.6-2.6,1.3-2.5c3.2,0.1,6.4,0.2,9.6,0.4
	C97,15.4,96,15.8,95.1,16.2z"/>
<path class="st11" d="M75.6,12.9c-0.7-0.8-2.2,0-2.7-1.4c1.4-2.6,4.7-0.6,6.5-2.6c0.4-0.4,1.2,0.1,1.4,0.8c0.2,0.9-0.1,1.4-1.1,1.7
	C78.2,11.7,76.9,12.4,75.6,12.9z"/>
<path class="st12" d="M81.2,18.4c-3.2,1.2-6.5,2.1-10,2c2.1-1.7,5.3-0.7,7.2-3.5C79.4,15.5,80.1,18.2,81.2,18.4z"/>
<path class="st13" d="M127.3,12.4c-2.5-0.2-4.9,1.3-7.4,0.1c0.6-0.2,1.6-0.2,1.8-0.6C123.9,7.9,125.6,9.9,127.3,12.4z"/>
<path class="st14" d="M71.2,12.2c-0.7,0.1-1.4,0.3-2,0.4c-0.9-0.4-2.4,1.4-2.8-0.5c-0.2-1,0.4-2,2.2-1.8
	C70.1,10.5,72.1,9.1,71.2,12.2z"/>
<path class="st15" d="M55.7,16.1c1.1-2.2,3-3.2,5.4-3.4c0.3,0.2,0.7,0.5,1,0.7c0,0,0,0,0,0c-0.6,4-3.9,2.7-6.3,3.1L55.7,16.1z"/>
<path class="st16" d="M110.6,13c-3,0.4-5.8,2.1-9,1.3C104.6,13.6,107.3,11.2,110.6,13z"/>
<path class="st17" d="M185.3,113.9c1.1,4.4,2.3,8.8,3.4,13.2c-0.2,0.2-0.4,0.4-0.6,0.6c-1.2-4.6-2.4-9.2-3.6-13.7
	C184.8,114,185.1,114,185.3,113.9z"/>
<path class="st4" d="M22.1,26.2c3.3-0.4,5.1-2.5,6-5.6c0.6-0.2,1.2-0.4,1.9-0.6c-0.3,2.8-2.2,4.7-4.1,6.4
	C24.7,27.5,23.2,28.8,22.1,26.2z"/>
<path class="st18" d="M89.5,7.1C88,6.7,86.6,6.4,85.1,6C88,5.1,90.8,3.6,94,4.7C92.5,5.5,91,6.3,89.5,7.1z"/>
<path class="st18" d="M83.9,5.8c-0.4,0.1-0.7,0.2-1.1,0.3c-1.7-0.1-3.4-0.1-5-0.2C79.8,3,81.8,3.5,83.9,5.8z"/>
<path class="st19" d="M136.2,220.2c-0.9,0.6-1.7,1.1-2.6,1.7c-1.5-3.2-2.8-0.9-4.1,0.2c-4.7,0.7-8.5,3.2-12.2,6.1
	c-2.2,1.7-5.5,1.9-8.5,1.5c-4.8-5.7-7-13.3-13.1-18.1c-1.2-0.9-2.1-2.2-2.5-3.7c-0.7-3.2-2.4-5.1-5.8-6c-3.1-0.8-4.1-4-4.2-6.8
	c-0.1-3.2,1.3-6,4.6-6.9c4.3-1.3,6.3-4.7,8-8.4c1.3-2.7,0.7-4.5-2.6-4.7c-5.2-0.3-8.5-2.7-10.5-7.7c-1.4-3.5-4.4-6.4-7.1-8.8
	c-5.4-4.8-9.2-10.3-11.8-17c-0.2-0.4-0.4-0.9-0.4-1.3c-0.3-3.1-1.1-6.1-0.8-9.2c0.1-1.4-0.2-2.2-1.6-3.1c-2.8-1.9-3.2-4.3-0.3-6.7
	c1.5,0.5,2.7,2,5.4,0.1c-2.4,0.9-3.8,1-4.9-0.2c-0.5-0.2-0.8-0.4-1.1-0.8c-0.3-0.6-0.4-1.3-0.2-2c1.7-3,2-5.7-1.7-7.4
	c-1-0.6-1.9-1.3-1.9-2.7c0.4-0.6,0.9-0.9,1.6-1c-3.2,0.1-6.3,2.5-9.6,0.7c-0.7-0.4-1.3-0.8-1.8-1.5c-2.3-5-2.9-10.2-1.6-15.6
	c0.3-0.4,0.7-0.6,1.2-0.8c1.8,0.9,3.6,0.7,5.3-0.3c1.1,0.9,1.4,0.2,1.5-0.8c0.6-1.1,1.5-1.7,2.6-2c3.2,0,6.7,0.8,8-3.5
	c2.1-2.3,4.9-2.8,7.8-3.2c1.3,0,2.6,0.1,3.7,0.7c2.1,1.4,2.7,3.7,1.9,5.7c-1.9,4.7-1,8.2,3.3,10.9c0.3,1.2,0.2,2.4,0.3,3.5
	c-0.4,3.1,0.4,4.8,4,4.5c3.4-0.2,6.7,1.7,10.2-0.5c1.6-1.1,3.2,0.3,3.8,2.1c0.6,1.9-0.2,3.3-2,4c-2.8,1.2-5.6,2.1-8.6,2.3
	c-3.7,0.2-3.6,2.2-2.4,4.7c1.1,2.5,2.8,4.6,4.9,6.2c5.5,4.2,8.9,9.6,11.1,16.1c2.2,6.6,7.9,11.3,10.2,18.1c1.2,3.8,3.2,7.2,3.1,11.3
	c-0.7-7.4,0-15.2-7.3-20.3c-1.5-1-1.5-2.9-0.8-4.6c0.6-1.6,2-2.4,3.6-2.1c3.3,0.6,5.3-1.1,7-3.6c1-1.4,2.2-2.5,3.7-3.3
	c2.1-1.1,4.7-1.5,4.7-4.9c0-0.9,1.5-1.1,2.5-0.5c1.7,1.7,2,4.2,3.4,6.1c0.5,1.2,0.8,2.5,0.7,3.8c-1.2,2.6,0.1,5.2,0,7.8
	c0.6,2.7,3.3,2.4,5.1,3.4c4.8,2.9,5.1,6.2,0.5,9.9c-3.1-0.2-5.4-1.8-7.3-4.1c-1-1.2-2-2.7-2.8,0.1c-0.6,2.1,0.4,4.1,0.6,6.2
	c2.4,7.3,5.9,13.7,13.9,16.2c1.9,0.6,3.9,1.1,4.8,3.2c0.9,1.9,0.3,3.9,0.5,5.9c-0.1,1.4-0.6,2.7-0.9,4.1c-0.5,1.4-0.5,3-0.8,4.5
	c-0.1,1.1-0.4,2.1-0.6,3.2c-0.4,1.6-0.7,3.3-0.5,5c0.2,2.8-0.1,5.4-2.3,7.4c-2.8,0.8-4.3,3-5.4,5.5
	C137,219.1,136.6,219.7,136.2,220.2z"/>
<path class="st20" d="M47.9,106.2c0.4,0.3,0.7,0.5,1.1,0.8c1.6,2,4.5,0.4,6.2,2.2c0.4,0.6,0.6,1.2,0.4,1.9c-0.2,0.3-0.4,0.5-0.7,0.7
	c0.4-0.2,0.7-0.5,1.1-0.7c4.3,1.6,1.9,6.7,4.6,9.1l0.4,0.2c0.4,0.3,0.4,0.6,0.1,0.9c-0.2,2.1-4,6,2.4,4.7c0.8-0.2,2.1,0.7,1.7,1.2
	c-3.1,4.1,0.7,8.7-1.2,12.9c-0.7-0.4-1.6-0.1-2.3-0.2c0.8,0.2,1.6-0.2,2.3,0.2c1.5,0.8,2.7,1.8,3.1,3.7c1.1,5.7,5.4,8.8,9.2,12.6
	c2.9,2.9,6.9,6.1,8,10.1c1.6,5.7,5.2,7.1,10,6.7c4.7-0.4,5.1,2.7,4,5.2c-2.1,4.6-3.5,10.4-10.1,11.1c-3.2,0.4-2.2,3.8-3.7,5.4
	c1.9,1.3,0.1,5.4,4,5.2c2.5-0.1,3.8,1.8,4.9,3.7c0.4,0.7,0.6,1.5,0.8,2.4c0.9,4.4,5.7,5,7.7,7.8c1.9,2.6,0.6,7.3,4.8,9
	c3.3,1.4,3.4,3.6,2,6.5c-1.6,0.4-3.2,0.9-4.8,1.3c-3.1-2.1-7.4-1.2-10.4-3.7c-1.6-0.9-3.1-2.2-1.7-3.9c3.9-4.9,1.4-9.3-0.7-14.3
	c-2.7,7.3-9.7,11-12.7,17.6c-0.5,0.6-1.2,0.9-1.9,1c-0.8,0-1.5-0.1-2.1-0.5c-4.3-2.6-9.3-4.3-12.8-8.2c-0.2-0.4-0.4-0.8-0.5-1.3
	c-0.2-2.2-1.4-3.7-2.9-5.1c-0.3-0.4-0.4-0.8-0.5-1.3c3.5-4,4-8.7,3-13.8c-0.4-2,0.4-4.2,2.6-4.9c2.7-0.8,3.3,1.6,4,3.4
	c1.2,2.8,2.2,5.6,3.9,8.1c0.9,1.4,1.9,3.1,3.8,3c1.9-0.2,2.6-2.1,2.9-3.7c1.3-6.2,3.4-12.6-3.1-17.5c-2.1-1.5-1.1-3.4-0.1-5.3
	c1.1-2.2,0.4-3.5-2.4-3c-3.1,0.5-5.8,1.2-6.7,4.8c-0.3,1.4-1.1,3-2.9,3c-2,0.1-2.8-1.5-3.7-2.9c-0.3-0.4-0.6-0.9-0.6-1.4
	c0.1-7.8-5.9-12.3-9.5-18.1c-2.4-3.8-2-5,2.5-6.1c1.1-0.3,2.3-0.3,3.4-0.8c2.1-1.1,1.8-3.1,1.6-4.8c-0.1-1.7-1.7-1.8-3.1-1.7
	c-1.5,0-3,0.2-4.4,0.6c-4.2,1-7.6-0.1-10-3.7c-1.7-2.6-3.2-3.2-5.1-0.3c-1.8,2.7-4.5,4.4-7.4,5.6c-1.1,0-1.6-0.8-2.1-1.6
	c-0.3-0.6-0.1-1.2-0.3-1.8c0,0.6,0,1.2,0.2,1.8c0.5,1.3,0.1,2.2-1.3,2.6c-3.9,0-5-2.4-5.2-5.7c-0.5-3,0.8-4.6,3.7-5.9
	c2.9-1.3,6.4-2.8,5.9-7.3c-0.2-0.4-0.3-0.8-0.3-1.2c0-0.1,0.1-0.3,0.1-0.5s0.1-0.3,0.1-0.5c-5.6,1.4-5.6,1.4-7.6-4.6
	c0.2-0.3,0.4-0.5,0.6-0.7c0.6-0.5,1.4-0.5,2.1-0.9c-0.8,0.1-1.6,0-2.2,0.7c-0.2,0.3-0.3,0.6-0.5,0.9c-0.9,4.1-1,8.5-3,12.3
	c-1.6,1.2-3.3,1.5-5,0.1c-2-2.5-2.6-5.5-2.9-8.5c1.2-4.2-0.3-8.9,1.7-11.8c0.4-1.9-0.7-1.2,0-1.3c-0.9,3.9-1.2,7.9-1.4,11.9
	c-0.5,1.7,0.2,3.3,0.3,5c0.8,3.4,1.1,6.7-0.1,10.1c-2.5,2.4-3.5,0.4-4.2-1.6c-0.7-2.1-0.2-4.3-0.5-6.4c0.3-12.2,2.3-24.3,3.4-36.5
	c0.1-1.2,1-2.1,1.4-3.1c0.4-0.7,0.9-1.2,1.6-1.4c4.8,2.4,8.6,0,12.4-2.7c0.8-0.6,1.7-1.1,2-2.2c0.4-1,0.8-2,1.8-2.6
	c0.4-0.2,0.8-0.3,1.3-0.3c0.9,0.1,1.7,0.4,2.5,0.7c1.4,0.6,2.9,0.8,4.4,0.6c1.5-0.1,3-0.4,4.5,0.1c1.2,0.6,2.5,0.2,3.8,0.5
	c0.4,0.2,0.8,0.5,1,0.9c1.2,8.6,2.7,17.1,4,24.9C49.6,113.3,45.2,109.9,47.9,106.2z"/>
<path class="st21" d="M120.4,233.9c2.2-0.6,4.3-1.1,6.5-1.7c2.9,1.6,2.3,4.4,2.4,7c0.2,5.2,0.9,10.4,2.7,15.4c1,4.3,1,8.7,2.5,12.8
	c-0.2,8.1,4.3,15.1,5.1,22.9c-1,2.7-0.1,5.4,0.5,8c0.4,1.9,0.1,3.6-1.5,4.8c-0.2,0.1-0.5,0.2-0.7,0.3c-0.9,0.3-1.9,0.5-2.8,0.8
	c-6.2,1.8-6.4,1.7-8.7-4.7c-3.3-2.2-3.1-5.9-3.6-9.2c-0.4-2.4-0.4-4.9-1.2-7.3c-1.3-3.9-0.8-8.5-4.4-11.5c-1.1-4.5-2.8-8.6-5.4-12.4
	c-1.3-1.9-2.4-4-1-6.4c-0.1-0.8-0.2-1.6,0.6-2.2c3.5-0.1,1.4,3.4,2.9,4.2c-2.2-2.5-0.2-5.3,0-8.1c-0.1-1-0.7-2.6-0.3-2.8
	c1.9-1.3,2.4-2.7,1.5-4.8c0.5-1,1.4-1.4,2.4-1.6C120,237.2,120.4,235.8,120.4,233.9z"/>
<path class="st22" d="M175,136.4c-0.1-1-0.2-2-0.2-3c0.7-1.9-0.9-3.2-1.1-4.9c-0.1-0.3-0.1-0.6-0.1-0.9c0.6-2.8-1.6-5.2-1.1-8
	c2.2-0.5,1.6-1.9,1-3.3c-1-1.2-1.4-2.5-1-4c-0.2-0.6-0.4-1.2-0.5-1.7c-2.6-8.3-7.2-15.7-9.8-24c0-0.5,0.2-0.9,0.6-1.3
	c3.1-1.7,3.1,1.4,4.3,2.7c4,5.8,8,11.6,12,17.4c1.4,4.2,2.3,8.5,4.5,12.4c0.1,4,2.3,7.7,1.9,11.8c0.1,3.1-1.9,6.3,0.3,9.3
	c1.2,2.5-0.7,5.2,0.3,7.7c-2.1,4-0.8,8.8-3,12.8c-3.8,0.5-7-0.3-9.1-3.9c-0.1-1.7-0.2-3.4-0.4-5.1C174,145.7,174.9,141.1,175,136.4z
	"/>
<path class="st23" d="M49.2,222.7c-3.4-3.7-8.1-5.4-11.8-8.6c-7.4-6.1-12.3-14.2-17.9-21.6c0.6-6.6,2.7-8.4,7.8-6.7
	c0.8,0.5,1.5,1.2,2.1,1.9c9.2,9.2,16.1,20.6,26.1,29.2c1.5,1.3,3.2,2.5,5,3.2c4.4,1.5,8.6,3.3,11.1,7.7c0,2.7-2.4,2.2-3.8,3
	c-5.6-0.8-9.8-4.7-14.8-6.8C52.5,221.1,50.1,224,49.2,222.7z"/>
<path class="st22" d="M174.6,155c2.1,2.5,5.3,2.7,8,4.1c0.9,1.7-0.2,1.7-1.4,1.5l0-0.1c-2.3,0.2-1.1,2-1,2.9c0.1,2,0,3.9-1.8,5.3
	c-0.2,1-1.1,1.9-0.3,3c-1.9,3-4.6,5.6-4.8,9.4c-2.5,4.3-5,8.7-8.1,12.6c-0.3,0.4-0.5,0.8-0.8,1.2c-2.2,0.6-2.1,3.4-4,4.2
	c-1.4,0.4-1.6,1.8-2.4,2.7c-1.6,2.7-2.6,5.6-5.3,7.5c-0.2,0.3-0.5,0.6-0.7,0.8c-1.3-0.2-1.9-1.3-2.8-2c-1.2-1.3-1.2-2.7-0.1-4.1
	c6.2-7.9,9-17.8,15.2-25.7c1.4-1.7,1.7-4.5,2.5-6.8c2.4-1.2,0-4.4,2.3-5.6c0-3.8,0.3-7.6,2.7-10.9C172.8,155,173.7,154.6,174.6,155z
	"/>
<path class="st24" d="M77.9,227c-0.7-2.3,0.3-3.9,1.8-5.8c3.7-4.6,9.9-7.7,9.8-14.8c0-0.7,0.5-1.2,1.3-1.3c0.8,0,1.2,0.7,1.3,1.3
	c0.6,4.1,3.9,7.3,3.5,11.8c-0.2,2.2,0.3,4-2.2,5.4c-2.4,1.4,0.3,1.8,1,2.5c1.8,3.5,5.3,2.7,8.2,3.4c0.2,0.1,0.2,0.6,0,0.9
	c-0.2,0.3-0.5,0.4-0.8,0.2c-0.5,0.1-1.2,0-1.4,0.3c-0.7,1.2,0.6,1.4,1.2,1.4c2.6-0.2,5.1,0,8,2.2c-5.8,2.6-11.2,1.7-16.6,1.2
	c-3-2.3-6.8-2.8-10.1-4.3C80.9,230.2,78.5,229.6,77.9,227z"/>
<path class="st25" d="M27.1,186.4c-5.9-2.2-5.1,4-7.7,6c-2.2-4.5-5.1-8.7-6.2-13.7c-4-7.7-7.8-15.4-7.9-24.3
	c-0.2-0.8-0.2-1.7,0.2-2.5c1.5-1.7,3-0.9,4.4,0c1.5,1.1,0.5,2.3,0,3.5c-1.3,2.9,1.7,5.6,0.8,7.9c-0.3-1,0-2.7-0.6-4.3
	c-1.2-3-0.2-5.7,2.4-6.6c2.8-1,2.9,2.5,4,4.1c-0.5,8.2,2.4,15.2,8.4,20.9C26.8,180.3,30.4,182.5,27.1,186.4z"/>
<path class="st26" d="M6.2,151.6c0.1,0.6,0.1,1.3,0.2,1.9c-0.4,5.8,1,11.4,2.8,16.9c0.5,1.7,3.9,2.1,2,4.8c-2.1,1.2-0.7,2.9-0.7,4.4
	c-3.9-6.5-4.6-14-6.8-21.1c-1-0.8-1.1-1.7-0.4-2.8c-0.2-5.5-0.4-11.1-0.7-16.6c1.4-16.6,4.6-33.1,4.4-49.8c-0.3-5.4-0.6-10.9-1-16.3
	c0.5-0.1,1-0.3,1.5-0.4c2.8,1.7,1.3,5.1,2.8,7.3c1.7,6.1,0,12.1,0,18.2c0.2,0.6,0.4,1.2,0.6,1.9c-4.4,1.1-2.6,4.8-2.9,7.5
	C6.8,117,6,126.6,5,136.3C4.3,141.5,6.9,146.4,6.2,151.6z"/>
<path class="st27" d="M215.8,329.1c-8,3.2-15.6,7.4-23.9,9.8c-2.5,2.1-7.6,0.3-8.2,5.4c2.5-0.5,4.9-0.7,7-2c0.9-0.2,1.8-0.4,2.7-0.7
	c0.6,0.8,0.2,1.3-0.5,1.8c-4.6,0.8-8.5,4.2-13.5,3.9c-3.4-0.5-6.4,1.5-9.6,1.9c-1.1,0.1-2.5,1.5-3.2-0.5c1.3-0.5,2.5-1.2,3.6-3
	c-2.4,0.5-4.3,0.9-6.2,1.3c-4.1,0.1-7.8,2.4-11.9,2.5c-2.8,0.7-5.7,1.4-8.5,2c0-2.8,1.8-2.3,3.5-1.9c3.5-1,7-2,10.5-3
	c2.4-2,5.5-1.7,8.2-2.5c2.6-0.8,5.4-1,7.6-2.9c3.3-1.2,6.8-1.4,10-3.1c1.5-0.5,3.1-1,4.6-1.5c1.5-2.4,4.1-2.4,6.4-3
	c0.5-0.1,1-0.2,1.6-0.2c3.3,0.5,6-1.1,8.7-2.5c2.1-0.5,3.9-1.6,5.8-2.4C212.3,327.8,214.5,326.1,215.8,329.1z"/>
<path class="st28" d="M84.1,357.4c-3.8-1.7-0.7-4.2-0.4-6.1c0.4-2.7,3.3-3.1,5.2-2.3c5.9,2.7,10.6-0.3,12.3-4.7
	c2-5.3,6.7-7.8,9.1-12.2c0.8-1.5,1.6-3.8,1.1-5.2c-1.3-3.8,1.1-3.3,3.3-3.5c-2.1,5.9-4,11.9-5,18.2c-0.3,2-1.2,3.6-3.3,4.6
	C98.9,349.9,91.5,353.7,84.1,357.4z"/>
<path class="st29" d="M130.5,326.3c1.1-1.5,2.9-1.6,4.5-2.4c1.9-1.9,4.3-2.2,6.9-1.8c1.6-0.3,3.2-0.7,4.8-1c1.9,0.1,3.5,1.5,5.6,1
	c1.2-0.3,2.3-0.2,3.3,0.5l0,0c1.1,2.4-1.5,2.4-2.3,3.6c-2.2,0.6-4.3,1.1-6.5,1.7c-3.2-0.1-5.8,2.5-9.1,1.7c-1.3,0.2-2.5,0.5-3.8,0.7
	C131.2,330.3,130.1,328.9,130.5,326.3z"/>
<path class="st30" d="M138.4,290.9c-1.8-7.7-5.6-15-4.8-23.2c2.5-0.3,1.7,1.9,2.1,3c1.1,2.5,1.1,5.4,2.5,7.9c1.7,6,3.5,12,5,18.1
	c0.9,3.6,0.5,6.9-3.8,8.4c-1.7,0.6-1.3-0.8-1.6-1.6c0,0,0,0.1,0,0.1c2.2-1.5,3.1-3.3,1.6-5.8C139,295.5,137.7,293.4,138.4,290.9z"/>
<path class="st31" d="M178,334.1c-3.3,0.7-6.2,2.2-9.2,3.8c-6.3,2.3-12.8,4-19.4,5.3c-7,1.3-13.7,3.9-20.8,4.5c-0.5,0-1,0.7-1.4,1.1
	c-2,2.4-4.4,2.4-7,1.1c-0.6,0.1-1.2,0.1-1.8,0.2c0.5-3.7,3.2-2.7,5.5-2.6c4.1-1.1,8.3-2.2,12.4-3.2c5.9-2.5,12.2-3.4,18.2-5.3
	c6.6-1.8,13.1-3.6,19.7-5.2C175.4,333.5,177,332,178,334.1z"/>
<path class="st32" d="M110.7,252.8c2.4,5.3,4.6,10.7,7.1,16c0.5,1,0.3,1.8,0.3,2.8c0.5,0.7,0.9,1.4,0.2,2.2
	c-2.7,0.4-3.6-1.4-3.3-3.4c0.3-2.1-1-3.7-1.4-5.5c0,0.9-0.1,1.8-0.2,4.1c-1-3.1-1.5-4.9-2.1-6.6c-0.4-1.1-0.6-0.9-0.7,0.1
	c0,0.3,0,0.6-0.1,1c-1.8-1.8-2-4.4-3-6.5c-0.8-2.3-1.5-4.6-2.3-6.8c1.3-1.8-1.1-3.4-0.1-5.3C109.7,245.6,106.7,251.7,110.7,252.8z"
	/>
<path class="st33" d="M165.4,193.8c-0.1-0.9-2-1.2-1.3-1.6c4.9-2.4,4.2-8.7,8.2-11.6c1.4-0.8,2-2.1,2.5-3.5c0.4-1.4,0.8-3.1,2.6-3.2
	c2,0,2.5,1.8,3.2,3.3c-1.6,1.8,0.7,5.8-3.5,6.2c-2.8,2.4-3.6,6.1-5.8,9c0.1,0.9,1.4,1.7,0.5,2.6c-0.9,0.8-1.1-0.4-1.7-0.8
	C168.6,193.3,167,192.9,165.4,193.8z"/>
<path class="st34" d="M120.2,349.9c2.3-0.4,4.6-0.7,7-1.1c3.4,1.7,6.2-1,9.3-1.5c2.2-0.4,3.5-0.5,3.4,2.2c-3.2,3.4-7.7,3-11.7,4.1
	c-1.9,0.5-3.9,0.2-5.8,0.8c-2,0.9-4.5,0.2-6.4,1.5c-1.7-0.6-1.5-2.5-3-3.6C115.3,350.7,118.5,352.4,120.2,349.9z"/>
<path class="st27" d="M209,325.1c2.9-0.2,5.8-0.8,8.7-0.5c2.4,0.3,0,0.9-0.2,1.4c-3.9,2.9-8.6,3.9-12.9,5.9c-2.9,1-5.4,2.9-8.7,2.8
	l0.1,0c-1-1-3.3,1.3-3.5-1.3c-0.1-1.6,1.2-2.1,2.5-2.6C199.6,328.8,204,326.2,209,325.1z"/>
<path class="st35" d="M140.5,355.5c1.5,1,2,1.8-0.3,2.4c-4,1-8.1,1.7-11.9,3.2c-2.9,1.2-3.2-1.9-5.2-2.1c-3.9-0.4-7.5,0.1-11.2,1
	c-0.3-2.4,1.5-1.5,2.6-1.7c5.5-1.1,10.9-2.1,16.4-3.1c0.3-0.1,0.6,0.1,0.9,0.1c-0.4,0.3-0.9,0.7-1.3,1c0.5,2.3,2,0.8,3,0.6
	C135.8,356.7,138,355.5,140.5,355.5z"/>
<path class="st36" d="M130.9,254.8c-4.7-6.9-1.8-15.2-4-22.5c2.6-0.9,3.7,0.5,4,2.8c0.7,6.4,1.4,12.8,2.1,19.2
	C132.4,255,131.7,255.1,130.9,254.8z"/>
<path class="st37" d="M122.7,281.9c1.3,5.9,1.7,12,3.6,17.7c-0.2,1.2-0.5,2.5-0.9,4.8c-5.3-9-4.4-18.4-6.1-27.1
	C121.6,278,120.7,281,122.7,281.9z"/>
<path class="st32" d="M181.3,160.7c1-0.1,1.3-0.7,1.4-1.5c-0.6-1.9-2.7-3.9,0.7-5.3c0.4-0.2,0.7-2.1,0.5-2.2c-4.4-2.7,1-3.6,1-5.4
	c1.6-1.1,2.1,0.7,3.2,1.1c-0.4,3.7-0.4,7.6-1.4,11.2C186.1,160.2,184.7,164.1,181.3,160.7z"/>
<path class="st38" d="M209,325.1c-4.6,3.8-10.9,4.4-15.8,8.1c1.1,0.6,2,1,2.8,1.5c-2.6,0.6-5.3,1.3-7.9,1.9c-0.6-4.3,3.2-5,5.7-6.6
	c1.6-1,4-0.6,5.3-2.3c0.9-1.6,2.4-2.3,4.2-2.3C205.2,325.3,207.1,325.2,209,325.1z"/>
<path class="st39" d="M203.3,325.4c-1.4,0.8-2.8,1.6-4.2,2.3c-6.6-1.8-13.6,1.2-20.2-1.3c-2.3-0.9-3.5,1.5-5.4,1.8
	c-0.7-0.2-0.8-0.6-0.3-1.1c2.6-2,5.2-2.1,8.6-1.7c6,0.7,12.1-0.1,18.2-0.3C201.1,325.1,202.2,324.6,203.3,325.4z"/>
<path class="st40" d="M114.4,358.5c-0.9,0.6-1.7,1.1-2.6,1.7c-5.7,1-11.5,1-16.5,4.7c-0.7-2,1.2-1.9,1.1-3.1
	c-2.5-0.5-4.9,2.1-8.3-0.6C97.4,360.2,105.9,359.3,114.4,358.5z"/>
<path class="st41" d="M11.1,175.1c-3-3-3.5-7.1-4.7-10.9c-1.1-3.6-1.1-7.2,0-10.8c0.8,8.8,4.7,16.8,6.9,25.2
	C11.9,177.9,11.8,176.3,11.1,175.1z"/>
<path class="st42" d="M130.9,254.8c0.7-0.2,1.3-0.3,2-0.5c1.8,8.1,3.6,16.2,5.3,24.3c-2.7-3.1-1.8-7.8-4.6-10.8
	C131.8,263.6,130.9,259.3,130.9,254.8z"/>
<path class="st43" d="M178,334.1c-5.1-0.6-9.5,2-14.3,3c-3.1,0.6-6.1,1.5-9.1,2.2c-0.3-0.2-0.4-0.4-0.3-0.5c0.1-0.1,0.2-0.2,0.3-0.2
	c10-2.7,20-5.4,30-8C183,332.9,180.7,333.9,178,334.1z"/>
<path class="st44" d="M150.3,207.2c2.2,0,1.4,2,1.9,3.1c-0.8,3.6-2.1,6.7-6.3,7.3c-0.2-0.6-0.3-1.2-0.5-1.9
	C144.2,211,144.6,210.2,150.3,207.2z"/>
<path class="st45" d="M173.2,327.2c0.1,0.4,0.2,0.7,0.3,1.1c-0.1,3-2.8,6.1-4.4,4.9c-2.4-1.8-5-0.5-7-2.1c0.1-2.5,2-1.7,3.4-1.9
	C168,328.5,170.6,327.9,173.2,327.2z"/>
<path class="st46" d="M123.9,347.5c-1.7,1.2-4.4,0.3-5.5,2.6c-3.7,0.3-7.4,0.6-12.1,1c3.5-2.4,6.6-1.8,9.5-2.6
	c1.4-0.4,2.2-0.8,0.5-1.9c1.5-2.5,4.4-1.6,6.5-2.7c1.3,0.1,2.4,0.4,0.9,1.8C122.7,346.6,123.3,347,123.9,347.5z"/>
<path class="st37" d="M180.5,177.2c-1.1-0.9-2.2-1.8-3.4-2.9c-0.7,2.1-1.4,4.1-2.1,6.1c-0.8,2.5-1.8,0.4-2.8,0.2
	c0-4.3,1.5-7.6,6-8.9C180.1,173.1,181.3,174.7,180.5,177.2z"/>
<path class="st47" d="M67.6,230.7c0-0.7-2.2-2.2,0.5-1.7c1.3,0.2,2.1-0.1,3-0.6c0.7-1.8,1.8-2.8,3.9-2.1c0.3,0.2,0.6,0.3,0.9,0.5
	c0.9,0.9,3.1,0.8,2.7,2.4c-0.5,2.2-3.3,1-4.6,2.4C71.6,233.2,69.6,232,67.6,230.7z"/>
<path class="st22" d="M119.8,340.5c0.5-3.4,6.3-7.3,8.9-5.8c0.8,0.5,0.4,1.4,0.3,2.2C126.8,340.3,123.2,340.2,119.8,340.5z"/>
<path class="st48" d="M74,231.6c0.2-2.6,1.1-3.9,4-1.8c-0.1-1.8-2.3-1.6-2.1-3.1c0.7,0.1,1.3,0.1,2,0.2c1.8,1.1,3.7,2.1,5.5,3.2
	c0.2,2.1-0.4,3.4-2.9,2.7C78.5,231.4,76,232.6,74,231.6z"/>
<path class="st49" d="M80.5,232.9c1.9,0.1,2.2-1.5,2.9-2.7c2.8,1,5.5,2.2,8.3,2.9c1.8,0.5,1.4,1.5,1.2,2.6
	C88.8,234.8,84.6,233.8,80.5,232.9z"/>
<path class="st46" d="M152.9,209.5c1.3-2.8,2.1-6,5.3-7.5c0.5,2.4-2.8,5.2,0.7,7.5c0.3,0.2-0.8,1.9-1.3,1.1
	c-1.1-1.6-2.8,3.8-3.2-0.4C154.3,209,153.5,209.5,152.9,209.5z"/>
<path class="st50" d="M147.2,349.8c-1.2,0.6-2.3,1.3-3.5,1.9c-5.4,0.8-10.7,1.7-16.1,2.5c3.3-2.4,7.4-2.3,11.1-3.7
	c1.7-0.6,3.6-0.6,5.1-1.8C145.2,347.9,146.4,348.1,147.2,349.8z"/>
<path class="st32" d="M114.2,246.8c0.7,1,1.4,2.4,0.6,3.2c-2,2.1-1.1,3,0.8,4.3c1.4,1,0.2,3,0.8,4.7c-3.9-1.7-2.3-6.4-5.2-8.3
	c0-1.7,0-3.4,0-5C112.9,244.6,111.6,250.3,114.2,246.8z"/>
<path class="st51" d="M146.3,313c-1.5,0.1-3.6,1.3-3.8-0.8c-0.3-2.3,2.4-2.4,3.9-2.9c1.4-0.5,4-1,4.2,1
	C150.9,312.8,147.7,312,146.3,313z"/>
<path class="st52" d="M95.4,357.4c-3.1,3.2-7.4,1.9-11.1,2.5C87.7,358.1,90.7,354.1,95.4,357.4L95.4,357.4z"/>
<path class="st53" d="M190.8,342.4c-2.6,2.4-6.1,2.2-9.3,3.5c0.9-6.6,6.4-5.6,10.4-7c-1.7,2.2-5.3,1.3-7.1,4
	C187.3,344.1,188.9,342.1,190.8,342.4z"/>
<path class="st8" d="M118.4,292.3c-1.8-6.8-3.6-13.6-5.3-20.4c3.1,4.4,3.3,9.7,4.7,14.6C118.3,288.3,121.9,290,118.4,292.3z"/>
<path class="st4" d="M173.8,341.5c-4.8,3.5-10.7,3.7-16.2,5.2c0.5-4.5,4.6-2.2,6.6-2.8c3.2-1,6.4-2,9.5-3.2c0.3,0.2,0.4,0.4,0.3,0.5
	C174.1,341.4,173.9,341.5,173.8,341.5z"/>
<path class="st54" d="M143.7,348.7c-4.8,3.5-10.9,3.1-16.1,5.4c-0.9,0.1-1.9,0.3-2.8,0.4c-1-0.9-2.9,1.7-3.4-0.9
	c6.3-0.7,12.5-2.1,18.5-4.2C141.1,349.2,142.4,349,143.7,348.7z"/>
<path class="st55" d="M171.3,192.4c0.5-3.9,2.1-7.1,5.8-9C176.2,187.1,174.7,190.4,171.3,192.4z"/>
<path class="st4" d="M101.7,230.6c-2.5-1.4-7.7,1.6-7.4-4.5c2.4,1,4.7,2.6,7.4,2.3c2.1-0.2,1.9,1.3,2.1,2.5
	C103.1,231.3,102.4,231.3,101.7,230.6z"/>
<path class="st22" d="M136,313.1c-3,1.5-5.7,1.4-7.4,3.3c-0.5,0.5-1.5,0.4-2.2-0.4c-0.7-0.9-0.1-1.9,0.5-2
	C129.6,313.4,132,311,136,313.1z"/>
<path class="st52" d="M95.4,357.5c4.5-2.8,9.7-2.2,14.7-2.3C105.3,356.9,100.5,358,95.4,357.5C95.4,357.4,95.4,357.5,95.4,357.5z"/>
<path class="st29" d="M153.1,318.1c2.9-1.2,5.9-1.9,9.4-0.9c-2.3,1.3-5,1.2-6.6,3.2c-1.5,1.2-2.8,2.6-5,1.5
	C150,319.7,152.8,319.7,153.1,318.1z"/>
<path class="st56" d="M92,365c-4.4,2.7-9.1,3.3-13.9,3.3c-1.1,0-2.3-0.2-2.1-1.4c0.4-1.9,1.3-0.1,2,0C82.8,367.1,87.4,365.3,92,365z
	"/>
<path class="st13" d="M118.7,300.8c0.2-0.2,0.4-0.4,0.6-0.6c0,2.3,2.9,2.4,3.3,4.5c-1.7,2.2,2.8,2.6,1.4,4.7c-1.3,0.3-2.7,0.7-4,1
	C119.5,307.2,119.1,304,118.7,300.8z"/>
<path class="st57" d="M138.3,319.7c4.4-2.2,9-3.3,14.2-4.3C148.3,320,142.7,318,138.3,319.7z"/>
<path class="st40" d="M188,147.3c-1.4,0.7-2.1-0.8-3.2-1.1c-0.9-2.6-0.2-5,0.9-7.4C188.9,141,187.1,144.5,188,147.3z"/>
<path class="st58" d="M204.4,331.5c4.3-1.8,8.6-3.7,13-5.5c-0.9,0.9,1.2,3.2-1.6,3.2c-4.3-0.8-7.3,2.8-11.3,3.2
	c-0.4-0.1-0.6-0.3-0.5-0.5C204.2,331.6,204.3,331.5,204.4,331.5z"/>
<path class="st38" d="M149.4,343.2c6.5-1.8,13-3.5,19.4-5.3C162.7,340.7,156.4,343.1,149.4,343.2z"/>
<path class="st59" d="M178.5,168.7c0.4-2.6,0.6-5.2,1.1-7.8c0.2-1.1,0.9-1.2,1.7-0.4c-1.3,2.2,1.7,4.2,0,6.6
	C180.5,168.3,180.2,169.5,178.5,168.7z"/>
<path class="st60" d="M129.5,222.1c1.1-2.5,2.3-4.9,3.7-8c2.1,3-0.2,5.5,0.3,7.8C132.3,222.7,130.9,222,129.5,222.1z"/>
<path class="st61" d="M122.7,281.9c-3-0.1-2.3-3-3.4-4.5c-0.3-1.2-0.7-2.4-1-3.5c-0.1-0.7-0.1-1.5-0.2-2.2
	C121.2,274.3,121.7,278.2,122.7,281.9z"/>
<path class="st53" d="M193,343.5c0.2-0.6,0.3-1.2,0.5-1.8c3-0.8,6-1.6,9.9-2.6C200,342.5,196.4,342.8,193,343.5z"/>
<path class="st62" d="M187.4,348.1c-3.8,1.4-7.6,2.8-11.4,4.1c-0.1-0.4-0.3-0.8-0.4-1.2C179.3,349.1,183.5,348.2,187.4,348.1z"/>
<path class="st5" d="M120.4,233.9c1.2,1.7,2,3.3-0.8,4.1c-1.4,0.4-2.8,0.8-4.2,1.1C115.4,235.9,118.8,235.8,120.4,233.9z"/>
<path class="st63" d="M154.7,338.6c0,0.2-0.1,0.5-0.1,0.7c-6.1,1.7-12.2,3.3-18.2,5C142,341,148.5,340.2,154.7,338.6z"/>
<path class="st64" d="M122.8,343.9c-1.4,2.6-4.6,1.2-6.5,2.7c-1.7,0.2-3.5,1.3-5.6-0.4c2.2-0.6,4.1-1.1,6-1.6
	c1.9,0.5,3.4-1.6,5.3-0.8C122.2,343.8,122.5,343.8,122.8,343.9z"/>
<path class="st37" d="M166.7,348.8c2.6,1.3,4.7-0.8,7.1-1c1.9-0.2,3.7-1.7,5.7-0.4c-4.1,1.1-8.2,2.2-12.3,3.2
	c-0.8,0.2-2.1,0.9-2-0.9C165.2,349,166,348.9,166.7,348.8z"/>
<path class="st59" d="M153.1,318.1c0.8,2.1-2.2,2.1-2.2,3.8c0.5,0.5,0.9,1.1,0.6,1.8c-2.4,0.6-3.4-1.5-4.9-2.6
	C148.8,320.1,151,319.1,153.1,318.1z"/>
<path class="st40" d="M117.1,315.2c0.8-1.7,1.1-3.6,2.8-4.8c0.2,1.2,3.8,0.4,1.8,3C120.5,315,119.7,317.4,117.1,315.2z"/>
<path class="st65" d="M164.9,196c1.4,1.6,2.6,0,3.8-0.6c0.8,4.1-3.8,3.2-4.5,6.8C163.1,199.2,165.3,197.8,164.9,196L164.9,196z"/>
<path class="st29" d="M157,324.2c1.5-0.3,2.9-0.7,4.4,0.4c-1.7,2.6-3.6,3.2-6.2,1.2C154.7,324,155.9,324.1,157,324.2z"/>
<path class="st29" d="M115.6,321c-0.1-0.4-0.2-0.8-0.2-1.2c2.7-0.5,5.1,1.8,7.8,0.6C120.7,320.9,118.5,325.4,115.6,321z"/>
<path class="st37" d="M130.5,326.3c1.1,1.4,2.2,2.7,3.3,4.1c-1.8,1-3.6,0.7-4.8-0.7C127.6,328,129.6,327.3,130.5,326.3z"/>
<path class="st66" d="M141.8,322.1c-2.3,0.6-4.6,1.2-6.9,1.8C135.6,321,137.8,320.4,141.8,322.1z"/>
<path class="st67" d="M123.9,309.4c-0.2-1.7-3-1.1-2.8-3.3c0.1-1.3,0.2-1.8,1.5-1.4c1,1.1,2.1,2.1,2.9,3.4
	C126.7,310.2,124.5,309,123.9,309.4z"/>
<path class="st68" d="M165.5,329.2c-1.1,0.8-2.7,0.4-3.4,1.9c-1.4,0-3.6,0.1-3.3-1.7c0.2-1.4,2-2.4,3.9-0.9
	C163.4,329.1,164.5,329,165.5,329.2z"/>
<path class="st69" d="M137.6,329.7c3-0.8,5.9-2.2,9.1-1.7C143.6,328.3,141.3,332.5,137.6,329.7z"/>
<path class="st70" d="M137.4,239.7c-0.4-2.6-2.9-5.5,0.8-7.7C138.4,234.6,138.6,237.2,137.4,239.7z"/>
<path class="st71" d="M138.9,252.8c-0.8-2.3-1.7-4.7-1-7.2C140.1,247.7,140.9,250.1,138.9,252.8z"/>
<path class="st72" d="M140.5,355.5c-3.5,0.7-6.6,2.8-10.3,2.3c-0.2,0-0.4-0.5-0.4-0.8c0-0.2,0.4-0.4,0.6-0.6
	C133.9,358.2,136.9,354,140.5,355.5z"/>
<path class="st49" d="M152.1,349.6c3.9-1.2,7.7-2.7,11.9-2.5C160.2,348.4,156.4,349.9,152.1,349.6z"/>
<path class="st60" d="M138.1,218.9c3,0.3,0.4,2.9,1.6,3.9c-1.3,1-1.9-1-3-0.8c0.2-0.7,0.4-1.4-0.5-1.8c-0.1-0.6-0.2-1.3-0.2-1.9
	C137,217.3,137.8,217.2,138.1,218.9z"/>
<path class="st71" d="M121.4,353.7c0.7,1.7,2.4,0.1,3.4,0.9c-2.7,1.8-5.9,0.7-8.8,1.3C117.3,354.2,119.6,354.4,121.4,353.7z"/>
<path class="st46" d="M122,343.9c-1.7,0.8-3.4,1.3-5.3,0.8c2.8-1.3,5.2-3.8,9.4-3.2C124.4,342.5,123.2,343.2,122,343.9z"/>
<path class="st72" d="M160.6,199.2c0.7-2,0.6-4.8,4-4.2c0.1,0.4,0.2,0.7,0.3,1.1c0,0,0-0.1,0-0.1C162.6,195.7,164,200.7,160.6,199.2
	z"/>
<path class="st12" d="M119.8,340.5c3.2-0.9,6.6-1.2,9.1-3.6C127.2,341.3,123.5,340.9,119.8,340.5z"/>
<path class="st65" d="M157,324.2c-0.6,0.5-1.2,1.1-1.8,1.6c-0.7,0.2-1.4,0.3-2.1,0.5c0.8-1.2,1.5-2.4,2.3-3.6c1.5-0.4,3-0.8,6-1.6
	C159.3,322.6,158.1,323.4,157,324.2z"/>
<path class="st70" d="M151.6,323.8c-0.3-0.6-1.1-1-0.6-1.8c1.6-0.5,3.3-0.9,4.9-1.4c-0.1,0.7-0.3,1.4-0.4,2.1
	C154.2,323,152.9,323.4,151.6,323.8z"/>
<path class="st73" d="M173.8,341.5c0-0.3,0-0.5,0-0.8c3.2-0.8,6.4-1.7,9.6-2.5C180.6,340.3,177.1,340.6,173.8,341.5z"/>
<path class="st10" d="M49.2,222.7c1.3,0,1.9-1.9,3.5-1.3c0.8,0.3,1.8,0.4,1.6,1.5c-0.1,0.5-1,0.8-1.5,1.1
	C51.6,223.6,50.1,224,49.2,222.7z"/>
<path class="st13" d="M143.5,223.5c-4-3.2,2-2.8,1.7-4.7C147.7,221.5,144.6,222.2,143.5,223.5z"/>
<path class="st74" d="M131.5,140.9c-0.4-1.4-0.8-2.8-1.2-4.2c-1.3-1.9-1.4-4.3-2.1-6.4c-0.2-0.5-0.1-1-0.1-1.5
	c-0.2,0.5,0,1.2-0.5,1.7c-3.1,1.7,1.2,3.4-0.3,5.4c-4.5-0.4-7.7,2.1-10,6.1c-1.5,2.5-3.2,4.3-6.4,2.2c-1.3-0.8-2.6-0.4-3.1,1.3
	c-0.4,1.3-0.6,3,1.1,3.3c5.3,0.9,5,5.7,6.3,9.1c1.3,3.5,1.6,7.4,1.9,11.2c0.2,2-0.8,4.7-2.8,4.7c-2.8,0.1-1.6-2.8-1.5-4.3
	c0.5-7.8-4.1-13.6-7.6-19.8c-2.1-3.7-4.7-6.9-6.1-11.2c-1.5-4.8-4.4-9-8.7-12.1c-3.9-2.8-7.1-6.4-7.7-11.5c-0.3-2.5,0.3-4,3.2-3.2
	c3.7,1.1,6.6-1.8,10.1-1.9c1.1,0,1.8-1,1.5-2.2c-0.1-0.6-0.4-1.3-0.9-1.7c-1.2-1-1.9,0.1-2.3,0.9c-1.3,2.8-3.9,1.5-5.2,1
	c-2.4-1-4.7-0.8-7.1-0.9c-4-0.3-2.9-3.5-2.8-6c1,0.3,1.3,1.3,2.3,2.3c-1.3-1.9-2.5-3.4-1.9-5.4c-0.6-1.7-2-1.1-3.2-1.5
	c-2.2-0.7-4-1.7-2.2-5c1.6-2.8,2.3-6.4,1-9.9c1.9-4.1,6.2-4.4,9.6-6.3c1.7,0.5,2.2,1.8,2.3,3.7c-0.5-5.6,1.8-7,6.7-5.4
	c1.7,0.5,3.5-0.8,5.3-1c1.7-0.2,3.9-2,4.6,1.3c0.4,1.6,1.9,0.7,2.9,1.2c0.9,1.2,2,0.3,3,0.4c2.1,1.9,3.4,4.2,3.8,7
	c0.2,1.4,0.7,0.2,1.1,0.2c2.8-0.4,5,0.2,5.5,3.5c1,1.2,2.9,0,3.9,1.9c-0.9,1.1-2.3-0.5-3.6,0.6c3.2,1,4.7,3.5,5.9,6.1
	c3.3,0.6,0.9,3.5,2,4.9c1.5,3.5,0.4,8.5,5.4,10.2c0.3,0.3,0.6,0.7,0.8,1.1c1.2,0.9,1.8,2.4,0.4,3.2c-3.4,2.2,0.8,1.8,0.8,2.8
	c0.7,1.2,1.3,2.4,2,3.6c1.3,1.8,0.3,2.6-1.4,3c-3.6,1.6-2.5,4-0.8,6.1c1.1,1.4,2.7,2.4,3.2,4.3c1.2,5.2,3.3,10.2,4.2,15.4
	c-0.4,1.7,0.3,2.9,1.5,4c1.5,1.3,2.3,2.9,2.3,4.8c-0.4,2.2,1.3,4.7-1,6.7c-4.1,1.6-6.5,0.1-7.6-4c3.4-5.1,3-6.4-2.6-8.2
	c-2-0.6-2.9-2-3.5-3.9C131.9,146.1,129.8,143.6,131.5,140.9z"/>
<path class="st29" d="M73.1,27.1c0.3,1.3,1,2.5,2.4,2.4c1.3-0.1,0.9-1.3,0.9-2.2c4,1.1,2.4,5.2,3.9,7.1c-0.6-1.7-1-4-2-6.1
	c-0.9-2.1,0.6-2.1,2.1-2c0.7,0.2,1.3,0.6,1.8,1.2c1,1.1,0.7,2.4,1,3.7c0.1,0.7,0-0.2,0.2,0.5c0.2,0.5,0.3,0.6,0.3,0.1
	c0-0.6,0.1-1.1,0.3-1.5c2-1,1.8-7,6.2-2.7c0.4-1.5-3.4-3.4,0.2-4.9c0.5-0.1,0.9-0.1,1.4,0c3.8,1.7,5.9-2.3,9.1-2.7
	c0.7-0.2,1.3-0.2,2-0.2c2.8-0.3,5.5-2,8.5-0.8l0,0c1.6,0.9,3.5-1,3.9-0.6c3.1,2.6,6.7-1.4,9.7,0.9c0.7,0.3,1.4,0.5,2.1,0.8
	c1.7-0.6,1.7,1.6,2.9,1.8c1,0.2,1.2,1,1.4,1.8c1.2,4.7,2.7,9.4,3.9,14.1c0.5,1.8,0.8,3.5,2.1,4.8c1.9,1.8,2.2,4,1.5,6.4
	c-1.2,2.8,2.6,5.3,0.5,8.2c-0.1,2.6-2.5,1.3-3.6,2.1c-0.5,1.5-0.8,3.1-3.1,2.1c-1-0.4-1.8,0.4-2.4,1.1c-7.1,3.1-14.7,4.4-22.1,6
	c-1,0.7-1.8,0.2-1.7-0.7c0.4-3.5-1.8-6.4-2.1-9.3c0.3,0.9,0.7,2.2,0.9,3.5c0.3,1.4,1.2,2.8-0.1,4.2c-0.2,0.2-1.3,0-0.5,0.4
	c2.2,1,1.5,2.2,0.7,3.6l0.1,0c-1.6,0.7-3,1.9-4.9,1c-0.4-0.3-0.6-0.6-0.8-1c-0.3-1.7-0.7-3.4-2.8-3.5c-0.8,0.8,0,1.5,0.1,2.3
	c0.4,1.7,0.4,3.6-1.6,4c-1.7,0.4-2.3-1.5-2.8-2.8c-0.5-1.3-0.7-2.9-2.3-3.5c-2.1-2.2-5-3.7-6-6.8c-0.2-0.7-0.9,0.3-1.4,0.2
	c-0.7-0.1-1.2-0.6-1.6-1.1c-1.5-2.3-1-5.1-1.9-7.2c0.1,1.9,1.6,4,0.3,6.4c-0.7,1.3,0.4-0.1,0.7,0.2c2.1,1.7,3.5,3.7,2.3,6.4
	c-0.6,1.4-0.4,2.4,0.3,3.6c0.8,1.4,0.8,3.1-1,3.7c-2.4,0.9-2.7-1.1-3.2-2.7c-2.3-4.9-2.5-10.4-3.2-13.7c0.9,3.1,0.5,8.5,3,13.1
	c0,0.8,0.4,1.6,0.6,2.3c0.4,1,1.4,2.2,0.1,3.1c-1.4,0.9-2.5-0.1-3-1.4c-1-2.5-1.8,1.7-2.7,0c-0.9-0.6-1.3-1.4-1.4-2.4
	c0-0.5,0-0.9,0.2-1.4c0.1-0.6,1.4-1,0.5-1.9c-0.7-0.7-1.6-0.8-2.5-0.3c-0.6,0.6-0.8,1.4-1.2,2.1c-0.6,1.1,0,2.2-0.2,3.4
	c-0.3,1.5-1,3.5-2.6,2.5c-2.5-1.5-3.9,0.9-5.8,0.9c-3.9-3.4-3.7-7-0.3-10.8c0-0.5-1.4-0.3-0.8-0.1c0.3,0.1,0.3,0.2,0.3,0.4
	c-0.1,1.9-2.5,1.4-3.1,2.8c-1.7,1.8-1.2,3.7-0.4,5.7c0.3,0.6,0.7,1.2,1,1.8c0.2,0.5,0.2,0.9,0.3,1.4c-0.7,3-2.2,1.8-3.7,0.8
	c-2.6-3.2-5.5-6.2-6.7-10.3c-1-0.8-2.4-1.1-3.4-1.9c-2-3-0.2-6.6-1.4-9.7c-0.6-3.2-2.4-6.1-2.1-9.5c0.7-1.8,2.2-1.6,3.7-1.6
	c0.4,0.2,1,0.2,1,0.8c0.1-1-0.9-0.5-1.2-1c-0.6-1.4,0-2.2,1.3-2.7c0.7-0.1,1.4,0.1,1.9,0.5c-0.7,0,0.6-0.3,0.3,0.3
	c-0.3,0.6,0.3,0.9,0.2,0.2c0-1.4-1.4-2-1.7-3.1c-1.3-5.3-1.1-5.5,2.9-4.7c0.2,0.4,0.4,0.9,1,0.5c4.3,1.6,6.6,6,5.3,9.9
	c0.7-1.2,1.3-2.5,1.1-4.1c1.1-2.1,2.8-3.3,5.1-3.8c0.5,0,0.9,0.2,1.3,0.5c1.1,1.2,0.7,2.7,0.5,4.1c-0.1,0.7-0.4,1.4,0.1,2.2
	c0.2-0.5,0-1,0-1.5c0.2-1.9,0.2-3.9,2.7-4.3c3.3,0.6,1.7,4.9,4.5,5.9c2.9,1.8,3.7,0.3,3.2-2.3c-0.3-1.6-1.2-3-1.8-4.5
	c-0.1-0.5-0.2-0.9-0.1-1.4c0.4-1.5,1.1-3,0.8-4.7C71.5,29.7,71.1,27.9,73.1,27.1z"/>
<path class="st75" d="M150.3,207.2c-1.2,3.1-5.3,4.5-4.9,8.6c-1.4-1-2-0.4-2.5,1c-0.5,1.5-1.3,1.9-2.4,0.4c-1.4-2.4,1-3.3,1.9-4.8
	c-0.3-2.3,2.1-4.2,1.1-6.7c1.8-1.5,1.5-3.4,1-5.3c-0.9-1.1,0-2.1,0.3-3.1c1.4-1.2,1.2-2.8,0.7-4.3c0.5-1.1-0.2-2.6,1-3.6
	c1.7-1.9,0.9-3.7,0.1-5.6c0-0.5,0.1-0.9,0.3-1.3c2.2-3.6,6.5-5.7,7.2-10.5c0.2-1.2,1.2-2.4,2.9-1.5c2.7,6.3,5.1,6.6,9.9,1.3
	c-0.8,3,0.9,6.2-2.2,9.2c-2.9,2.7-3.7,7.5-6.2,10.8c-3.4,4.6-3.8,11-9.3,14.3C148.9,206.2,149.5,207.2,150.3,207.2z"/>
<path class="st76" d="M148.3,137.4c1.2,1.2,2.8,1.7,4.4,1.9c1.1,1.7-0.4,2.6-1.1,3.8c-1.7,1.5-0.3,4.9-3.5,5.7
	c-2-2.3-0.3-5.5-1.7-7.5c0.1,3.2,1.6,6.6,1.8,10.3c-0.6,1-1.8,0.6-2.7,1.2c-1.2,0.5-2.1,0.2-2.7-1c-1.9-6.7-1.5-13.8-3-20.6
	c-0.8-3.6,0.1-4.4,3.2-3.9c0.5,0.2,1,0.4,1.6,0.6c1.9,1.7,2.3,4.1,3.2,6.3C148.1,135.3,148.7,136.3,148.3,137.4z"/>
<path class="st77" d="M143,127.4c-4.3,1.4-1.9,4.6-1.1,6.4c0.4,0.9,0.9,1.2,0.6,2.4c-1.1,5.3,0.3,10.4,1,15.6
	c-2.2,0.2-1.8-1.3-1.6-2.6c-0.8-2.7-1.3-5.6-4.2-7.2c-0.3-0.2-0.6-1-0.6-1c4.8-2.8-0.5-4.1-0.9-6.1c0-0.2,0.4-0.4,0.6-0.6
	c1.3-1.9,1.2-1.8,0-4c-1.3-2.6-4-5.1-1.1-8.3c1.9,1.1,1.6-0.5,1.8-1.5c1.3-0.3,2.6-0.5,3.9-0.8c-0.2,1.8,1.1,1.2,2,1.1
	C143.9,123,147.1,125.5,143,127.4z"/>
<path class="st78" d="M137,49.3c0.9-2.6,1.8-5-2-6.3c-1.3-0.4-1.6-2.1-1.4-3.4c0.3-2.4-0.6-4.5-1.2-6.7c-0.8-3-3.3-5.8-1.2-9.1
	c5,11.7,9.7,23.6,17,34.6c-2.3,0.6-2.7-0.7-3.2-1.8C142.9,53.5,138.2,53.4,137,49.3z"/>
<path class="st75" d="M156,147.5c1.3,4.4,2.8,8.7,1.4,13.3c-1,1.8,0.9,3.4,0.4,5.2c-0.3,1.2-0.2,2.9-1.5,3.4c-1.7,0.6-2.6-0.8-3.5-2
	c-0.6-0.8-0.8-1.8-1.1-2.7c-0.1-0.4-0.1-0.7-0.1-1.1c-0.4-1.1-2.2-0.2-2.4-1.6c-0.1-2.1-0.5-4.3,1-6.2c1.1-1.5,1-3.1,0.3-4.7
	c-0.8-1.8-1.1-3.5,1-4.7C153.2,145.7,154.6,146.6,156,147.5z"/>
<path class="st79" d="M152.1,164.2c0.9,0.2,2.8-0.9,2.1,1.3c-0.6,1.9,0.6,2.1,1.5,2.8c2.1-2.2-1.5-5.6,1.7-7.5
	c0.2,0.6,0.4,1.2,0.6,1.8c1.7,2.1,0.2,4.1,0,6.2c-0.3,0.5-0.6,1.1-0.9,1.6c-1,0.4-1.9,0.9-1.8,2.1c0.7,6.3-5,7.6-8.3,10.7
	c-2-2.8-0.9-5.6,0.3-8.3c2.6-0.3,2.7-3.7,5.2-4.3c0.6-0.1-0.1,0.2,0.4-0.2c-0.3-0.1-0.7,0.1-1-0.1
	C149.8,168.1,149.3,166.1,152.1,164.2z"/>
<path class="st52" d="M162.4,85.9c0.6,2.9,4.3,4.5,3.6,8.1c3.7,0.8,3,3.7,3.4,6.4c0.5,3.4,1.7,6.7,2.6,10c-1.2-2-6-2.3-3-6.4
	c-2.8-1.2-2.8-4.3-4.3-6.3c-2.6-3.6-3-7.5-3.2-11.6C161.7,85.8,162,85.7,162.4,85.9z"/>
<path class="st10" d="M111.2,18.9c-2.8,1.5-5.9,2-9,1.7c1.4-2.6-0.3-2-1.7-1.7c-0.5,0.1-0.9,0.1-1.4,0.1c-1.7-0.3-3.1,0.3-4.4,1.6
	c-1.3,1.4-3,1.7-4.9,1.4c-0.2-0.1-0.4-0.3-0.6-0.4c0.3-0.9-3.4-0.8-0.7-1.8c2.3-0.9,4.2-2.5,6.6-3.1c5.3-2,10.8-1,16.2-0.8
	C115.2,16,110.9,17.8,111.2,18.9z"/>
<path class="st80" d="M114.2,83.5c0.1,0.8,1.1,2-0.4,2.4c-0.7,0.2-1.8,0.1-2.3-0.3c-1.5-1.4,0.9-1.3,0.8-1.7
	c-0.8-2.9-1.7-5.7-2.6-8.5c0.4-0.7,0.8-1.7,1.3-1.9c0.9-0.3,1.6,0.7,1.2,1.5c-0.7,1.4-0.1,1.8,1.1,1.8c1,0,2.3-0.9,1.8-1.5
	c-1.9-2,0.6-1.9,1-2.7c1.2,1.1,2.6,1.8,2.9,3.9c0.3,1.9-0.4,2-1.8,1.8c-1.9-0.3-1.9,0.8-1.7,2.1C116.4,81.9,114.3,82.2,114.2,83.5z"
	/>
<path class="st52" d="M105.2,70.1c-0.5-0.8,0.4-2.3-1-2.5c-1.3-0.2-2-0.7-2.4-2c-0.6-1.8-2.2-4.4-0.1-5.1c2.1-0.7,0.9,2.5,1.9,3.7
	c0.3,0.4,0.5,0.8,1.3,1c-0.9-3.5-1.9-7-2.8-10.6c3,1.9,2.3,6.6,4.3,7.7c3.8,1.9,0,4.5,1.6,6.1C107.7,70.1,106.4,70,105.2,70.1z"/>
<path class="st81" d="M124.9,19.3c-1.9,0.1-3.3,3.2-5.2,0.5c-0.6,0.6-0.7,0.7-0.8,0.8c0.2,0.1,0.3,0.1,0.5,0.2
	c0.8,0.3,1.5,0.5,1.6,1.6c-3.1,0.8-4.3-0.8-4.2-3.6c-2,0.3-3.6,3.9-5.5,0.2c3.6-4.5,8.1-3.2,12.5-1.7
	C124.7,17.6,124.6,18.6,124.9,19.3z"/>
<path class="st82" d="M134.1,111.1c-0.2-0.3-0.3-0.5-0.5-0.8c-3.7-1.3-3.7-5.1-5.3-7.8c-0.5-0.9-0.8-2.1-1.5-3
	c-2-1.4,1.7-3.5-0.6-4.8c1-0.3,2.3-1.4,2.7,0.5c1.2,5.5,5.3,9.9,6,15.7C134.8,111.3,134.5,111.4,134.1,111.1z"/>
<path class="st75" d="M171.6,155.7c1.4,3.9-0.6,7.1-2.4,10.4c-3.5-3.8-3-6.5,2-11.2c0.4,0,0.6,0.1,0.6,0.4
	C171.8,155.6,171.7,155.7,171.6,155.7z"/>
<path class="st83" d="M137,49.3c2.7,2.4,7.4,2.6,8,7.2c-1.1,0.6-2.9-1-3.5,1.6c-0.2,1.1-1.4-0.8-2.3-0.9
	C138.9,54.4,136.6,52.2,137,49.3z"/>
<path class="st84" d="M151.1,63.1c2.3,3.8,5.5,7.1,6.3,11.7c0.3,0.2,0.5,0.4,0.5,0.6c0,0.3,0,0.4,0,0.4c-0.9,0.9-1.9,1.1-3.1,0.7
	l0,0c-1.7-1.1-1.2-3.8-3.2-4.7c-0.9-2-4-3.4-1.8-6.2l0,0C150,64.6,149.1,63,151.1,63.1z"/>
<path class="st48" d="M156,147.5c-1.4,0.3-2.8,0.3-4.1-0.2c-1.7-1.4-2.2-3.1-1.3-5.2c0.7-0.9,1.5-1.9,2.2-2.8
	c0.7,0.2,1.3-3.2,1.7-0.4C154.9,141.8,155.5,144.6,156,147.5z"/>
<path class="st65" d="M175,136.4c1.8,4.7,0.1,9.2-0.8,13.7c-0.8,0.3-1.4,0.3-1.1-0.8c-0.7-2.2-1.7-4.4,0.7-6.3
	c0.6-0.5,1.7-1.3-0.4-2.3C172,140,172.5,137.2,175,136.4z"/>
<path class="st67" d="M157.5,76.1c0-0.4-0.1-0.9-0.1-1.3c2.6-0.4,1.6,3.3,3.8,3.4c0.7,2.6,4.6,4.7,1.2,7.9c0,0,0-0.1,0-0.1
	c0,0-0.5,0.1-0.5,0.1l-0.5,0.1c-1.8-0.4-3.1-1.1-3.1-3.3C156,80.9,156,78.6,157.5,76.1z"/>
<path class="st85" d="M114.2,83.5c-0.5-1.5,0.6-2.2,1.4-3.2c1.7-0.6,4.2-2.4,4.7,0.2c0.3,1.4,5.6,4.1-0.2,5.5
	C118,85.3,116.9,82.5,114.2,83.5z"/>
<path class="st77" d="M134.1,111.1c0.3-0.1,0.6-0.2,0.9-0.3c2.4,0.5,2.6,2.1,0.7,6c-0.8,0-1.7-0.3-2.3,0c-0.6,0.3,0.5,2.9-1.6,1.5
	c-0.7-0.5-1.8-2.6,0.4-3.6C133.7,114,135.9,113.6,134.1,111.1z"/>
<path class="st70" d="M183.5,117.6c-2.9-2.5-5.6-5-4.1-9.5c0.3-0.8-0.3-1.9-0.4-2.9C181.4,109,183.4,113,183.5,117.6z"/>
<path class="st8" d="M130.2,62.5c0.2-2,1-3.6,3.3-2.3c1.5,0.8,1.3-0.9,2.2-0.9c0.4,3.9,4.1-1.2,4.8,2.2
	C137.1,62.2,134.1,65.3,130.2,62.5z"/>
<path class="st86" d="M148.3,137.4c-0.6-0.9-1.2-1.7-1.9-2.6c0.9-2.2-0.8-4.1-0.6-6.2c5.4,0.4,4.6,5.4,6.5,8.2
	C151,139.1,149.2,133.1,148.3,137.4z"/>
<path class="st87" d="M149.7,65.6c-0.3,2.3,2.3,3.3,2.4,5.5c-0.2,0.2-0.3,0.4-0.5,0.6c-2.6,1.1-1.8-2.7-3.7-2.6
	c-2.3-0.8-2.9-2.6-3.5-5C146.6,64.3,147.9,66.1,149.7,65.6z"/>
<path class="st71" d="M162.3,86c1.8-3-1.8-5.1-1.2-7.9c2.8,2.7,5.2,5.7,5.8,9.8C165.5,86.9,164.9,84.2,162.3,86z"/>
<path class="st40" d="M157.5,76.1c1.4,2.1,0.9,4.5,0.9,6.8c-4.3-0.3-2.5-4.2-3.7-6.3C155.5,75.6,156.4,75.6,157.5,76.1z"/>
<path class="st88" d="M100.3,70.4c1.7,0,3.2-1.6,5-0.3c-1.9,2.3-1.6,3.9,1.4,4.9c-1-0.1-2.7,1.5-3-0.1c-0.5-3.4-2.5-0.6-3.6-1.3
	C98.7,72.5,99,71.4,100.3,70.4z"/>
<path class="st89" d="M172.4,112.1c2.3,0.8,2.3,2.3,1,4c-1.6,0.2-3.4,0-3.7-1.6C169.4,112.9,171.3,112.8,172.4,112.1z"/>
<path class="st57" d="M173.7,128.4c1.7,1.3,5.2,2.3,1.1,4.9C170.2,132.6,174.6,129.9,173.7,128.4z"/>
<path class="st57" d="M172.4,119.5c0.2,1.4,1.9,1.1,2.4,2.1c-3,1.3,1.5,4.4-1.3,5.8c-1-1.7-0.5-3.9-2.1-5.3
	C169.7,120.6,172.3,120.5,172.4,119.5z"/>
<path class="st32" d="M173.1,149.2c0.4,0.3,0.7,0.5,1.1,0.8c1.6,1.5-0.3,3.4,0.5,5c-1,0.2-2,0.5-3,0.7c-0.1-0.3-0.2-0.5-0.4-0.8
	C171.8,153,172.4,151.1,173.1,149.2z"/>
<path class="st75" d="M158,168.8c-0.4-2.1-0.7-4.1,0-6.2c2.2-0.1,2.7,1,2,2.8C159.5,166.6,158.7,167.7,158,168.8z"/>
<path class="st87" d="M151.1,63.1c-1.7,0.2-0.4,2-1.3,2.5c-0.4-0.3-0.9-0.5-1.1-0.9c-0.7-1.4-3.1-3.2-1.7-4.3
	C148.9,59,150.1,61.4,151.1,63.1z"/>
<path class="st77" d="M145.8,128.6c0.7,2,3.8,3.8,0.6,6.2c-0.3-2.4-2.2-4.3-1.8-6.8C145,128.2,145.4,128.4,145.8,128.6z"/>
<path class="st40" d="M129.9,21.9c-1-0.6-1.9-1.2-2.9-1.8c1.8-0.9-2.8-3,0.6-3.4c2.3-0.3,2.4,1.7,2.4,3.3
	C130,20.6,129.9,21.3,129.9,21.9z"/>
<path class="st40" d="M152.1,71c3.8,0.4,2.2,3.4,2.6,5.5c-1.3-0.3-2.4-0.9-2.7-2.3C151.6,73.1,151.4,72,152.1,71L152.1,71z"/>
<path class="st84" d="M152.1,71c-0.1,1.1-0.1,2.1-0.2,3.2c-2.2-1-2.8-3.4-4-5.1C149.6,69.2,150,71.8,152.1,71z"/>
<path class="st90" d="M143.6,120.8c0,2.2-2.7,1-3.4,2.8c-0.2,0.7-0.7-0.5-0.8-1c-0.2-1.6,1.9-1.6,2.2-2.9
	C142.2,120,142.9,120.4,143.6,120.8z"/>
<path class="st58" d="M7.9,40.4c-1.3,0-2.1,1.8-3.5,1.1c-0.5-0.3-2.4-0.6-0.8-1.9c3.9-3.1,6.5-7.3,9.7-11c2.6-3,5.3-3.7,8.8-2.4
	c-4.7,1.8-8.4,5.3-11.5,8.9C9.5,36.5,6.6,37.6,7.9,40.4z"/>
<path class="st91" d="M34.5,29.6c-0.4,2.5-2.2,3.9-5.1,3.9c2.3-2.3,1.3-7.2,6.4-7.8C35.9,27.2,33.4,28,34.5,29.6z"/>
<path class="st92" d="M49.2,26.4c-3,2.7-7.1,2.3-10.5,3.6c0.1-0.8,0.3-2.3,0.4-2.3C42.5,28,45.5,24.3,49.2,26.4z"/>
<path class="st93" d="M27.5,34.9c-0.9,0.3-1.8,0.6-2.7,1c-0.5-0.9-1-1.7-0.4-2.7c0.7-1.2-0.4-3.7,2.5-3.1c2.6,0.6,0.7,2.2,0.7,3.4
	C27.5,34,27.5,34.4,27.5,34.9z"/>
<path class="st18" d="M55.9,16.5c2-1.3,4.8-0.7,6.3-3.1c2.1,3.7,0.5,4.7-3.1,4.2C57.9,17.4,56.9,16.8,55.9,16.5z"/>
<path class="st47" d="M14.6,40.7c-0.3,0.9-1,1.3-1.9,1.3c-1.2-1.5-1.3-3.1,0.8-3.6C15.3,38,14.8,39.6,14.6,40.7z"/>
<path class="st94" d="M10.2,98C8.1,97.4,9,95.7,9,94.3c0-4.6,0.6-9.2-0.2-13.8c0.4-2.9,0-5.8-0.4-8.7c-0.2-1.5-0.2-2.9,0.8-4.1
	C8,61.9,8.5,55.6,5.4,50c-1.1-2,0.9-2.6,2-3.2c6.1-3.9,12.7-7,19.5-9.6c3.1-0.3,5.7-2.5,8.9-2.2c1.9-1,4.1,1,6-0.4
	c3.1,0.6,3.2,3,3.2,5.5c-0.9,1.8-2.4,2.4-4.3,2.1c-1.2,4.1,1.1,7.6,1.6,11.4c-1.6,1.7-1.9,0.3-2.6-1.2c0,7.1,4.7,12.9,4.4,19.8
	c-0.3,1.9,0.6,4.4-2.2,5.2c-2-0.6-1.9-4-4.7-3.5c-0.8-1.5-1.1-3.1-1.2-3.8c0.1,2,1.5,4.6,1.9,7.4c0.3,2.3,1.7,5.4-2,6.6
	c-0.5-0.1-0.9-0.3-1.2-0.7c-0.5-1-0.7-2.2-1.4-3.4c2.3,6-3.4,6.3-5.9,9l0.1,0c-2.7-0.2-1.5,1.6-1.4,2.8c0.6,2.2,0,3-2.3,2.4
	c-2.9-0.1-5.5,1.1-8,2.2c-1.8,0.8-3.4,1-5.2,0.3C10.5,97,10.4,97.5,10.2,98z"/>
<path class="st83" d="M80.1,27.4c-0.2,0-0.3-0.1-0.5-0.1c-0.3,0.1-0.5,0.2-0.7,0.3c1.9,3.7,3.1,7.6,3.8,11.7
	c0.1,0.4-0.3,0.9-0.6,1.9c-3.5-4.4-2.7-10-5.7-14c-1.6-0.8-3.2-1.6-5.4-2.7c3.5-0.9,6.3-1.7,9.1-2.4C83.2,23.9,82.4,25.6,80.1,27.4z
	"/>
<path class="st10" d="M90.8,23.2c-0.3,0.5-2.1,0.4-0.9,1.4c2.4,1.9,2.4,4.3,2.3,7c-2.5-1-4.3-2.4-4.4-5.3c-0.9,5.5-0.9,5.5-3.6,3.9
	c-1.1-1.1-1-2,0.4-2.8c1.6-1.9-0.7-3.7,0.1-5.8c1.5,0.6,3.1,2,4.6,0.1c0,0-0.1,0-0.1,0C89.9,22,90.9,22.1,90.8,23.2z"/>
<path class="st50" d="M9.3,67.8c0.2,4.3,1.9,8.6-0.4,12.8c-1.2-2.5-1-5.3-1.5-8c-0.2-6.4-2.5-12.5-2.8-18.9
	C8.2,57.8,5.8,63.7,9.3,67.8z"/>
<path class="st95" d="M61.4,37.4c-1.7,1.3-2.7,3.5-5.2,3.6c-1.9-0.9-2.5-2.5-2.4-4.5c0.3-3.1,4.3-1.2,5.1-3.7c3-0.7,3.2-4.4,5.9-5.5
	c2.5,2,1.6,4.2,0,5.9C63.4,34.5,62.6,36.1,61.4,37.4z"/>
<path class="st96" d="M54.5,35c0.6,2,1.1,4,1.7,6c0.1,1.1,1.1,2.9,0.3,3.1c-1.7,0.3-0.4,2.9-2,2.3c-0.9-0.3-2.2-1.7-0.3-3
	c0.4-0.3,0.4-1.1,0.6-1.7c-5.1,0.6-2.1-5.6-5.5-6.5c0.5-1.4,2-0.9,2.9-1.4C53.9,32.4,54.7,32.8,54.5,35z"/>
<path class="st68" d="M54.5,35c-0.4-1-1.2-1.4-2.3-1.2c-0.7-1.1-3.2,0.3-2.9-1.8c0.2-1.5,2.1-1.3,3.3-1.5c2.5-0.4,3.8,2.4,6.2,2.3
	c0.1,1.2,0.8,2.6-0.6,3.5C56.4,37.5,55.8,35.3,54.5,35z"/>
<path class="st97" d="M73.1,27.1c-1.3,1.2-0.3,2.7,0.2,3.6c1.3,2.6,0,4.3-1.6,6c-1.5,2-3,1.7-4.6,0.1c-0.7-1.5,0.2-2.9-0.1-4.4
	c0.2-1.2,1-2.9,2-2.1c3.2,2.2,1.6-1.2,2.4-1.8c0-0.6-0.2-1.5,0.1-1.8C71.9,26.2,72.7,26.5,73.1,27.1z"/>
<path class="st96" d="M44.4,39.9c-0.6-1.9-1.1-3.8-2.5-5.3c2.1-0.7,4.3-4.6,6.4,0.1c-3.7,0.4-1,3.5-2.1,4.9c1,1.1,1.5,2.2-0.1,3.2
	c-0.4-0.2-0.9-0.5-1.3-0.7C44.2,41.4,44.1,40.7,44.4,39.9z"/>
<path class="st98" d="M61.4,37.4c-1.7-1.7,0.1-4.1,0.7-4.1c4.6-0.5,2.1-3.9,2.7-6c1.2-2.6,2.8-1,4.2-0.3c-0.8,2.2-2.2,4.3-1.9,6.9
	c-0.2,0.4-0.5,0.7-0.9,1C64.3,35.1,64,38.5,61.4,37.4L61.4,37.4z"/>
<path class="st63" d="M84.6,27.4c-0.4,0.9-1,1.8-0.4,2.8c0.2,0.7,0.4,1.3,0.6,2c-3.8,0.8-1.2-3.5-3.3-4.1c-0.5-0.2-0.9-0.4-1.4-0.6
	c0.7-1.8,1.8-3.5-0.1-5.3C83.6,22.1,84.2,24.6,84.6,27.4z"/>
<path class="st95" d="M66.7,33.9c-1.6-3.1,0.5-4.9,2.2-6.9c0.5,1,1,1.9,2.4,1.5c0.4,1.4,1.5,2.6,0.8,4.2c-1.5-0.1-1.9-2.4-3.7-1.7
	c-0.1,0.1-0.2,0.2-0.3,0.4c0,0.2,0,0.3,0,0.5C68.1,32.8,68.2,33.9,66.7,33.9z"/>
<path class="st80" d="M3.5,54c-4.8-2.5-2.6-7.3-3.4-11.1C0,42.5,0.6,40.8,2,41.6c0.2,0.1,0.1,0.9,0.2,1.4c0,3.3,0.3,6.6,2.1,9.5
	C4,53,3.7,53.5,3.5,54z"/>
<path class="st45" d="M4.5,53.4c-2-3.2-1.7-6.5-0.1-9.7c0.2,0.3,0.5,0.6,0.7,0.9C3.8,47.4,4.6,50.4,4.5,53.4z"/>
<path class="st99" d="M35.9,34.9c-2.9,1-5.6,2.8-8.9,2.2C29.7,35.5,32.4,33.7,35.9,34.9z"/>
<path class="st56" d="M58.8,23.8c-1.6,0.3-3.2,0.6-4.8,0.9c3.1-0.9,5.7-3.7,9.3-2.4C61.9,22.8,60.4,23.3,58.8,23.8z"/>
<path class="st100" d="M148.1,174.9c-0.4,2.8-0.7,5.5-1.1,8.3l-0.1,0c-0.1,0.6-0.3,0.7-0.8,0.4c-0.4-1-1.1-1.5-2.2-1.7
	c-9.1-1-12.5-8.4-16.6-15c-0.6-1-0.7-2.2,0-3.3c0.5-3,0.3-6.3,4.2-7.3c1.5,2.3,4.6,2.5,6.4,4.5c2.3,1.4,3.8,4.3,7.2,3.3
	c2.4,2.2,1.2,4.8,1.2,6.5c0.9-3.2-0.5-7.3-0.5-11.3c0.1-2.6-0.9-5.1,0-7.7c1.2-0.9,1,0.5,1.4,0.8c2.9,1.4,1.8,4.1,2.3,6.4
	c0.7,1.6-1.8,5,2.5,4.6c0,0.3,0.1,0.7,0.1,1c-0.8,2.1-1.1,4.2,0.9,6C150.5,170.8,149.5,173.1,148.1,174.9z"/>
<path class="st24" d="M124,186.3c-1.9,0.1-4.3-0.3-3.5,3c0,0.2,0,0.3,0,0.5c-0.5,1.9-2.2,4.2-3.6,3.3c-4.7-3.1-9.4,3.3-13.7-0.5
	c-0.3-0.3-0.4-0.9-0.5-1.4c-1.1-5.3,8.5-14,13.6-12.3c1,0.3,1.9,0.8,2.1,1.9c0.7,3.1,3.2,3.9,5.6,4.9l0.3,0.4L124,186.3z"/>
<path class="st101" d="M56.2,76c-0.1-0.3-0.1-0.6-0.1-0.9c0.5-2.1,1.8-1.9,2.6-0.5c1,1.8,2.2,2.6,4.3,2.2c1.8,0.5,3.5,0.5,5.2-0.7
	c2.4-1.7,4-0.7,4.9,1.9c0.2,1.3,0.1,2.4-0.9,3.4c-2.8,1-6,0.9-8.4,3c-2,2.3-4.7,2.9-7.5,3.1c-0.8,0.6-1.7,1.2-2.5,1.9
	c-0.9,1-1.7-0.9-2.7-0.1c-1.5,0.1-2.1,4.9-4.5,0.9l0.1-0.2c-0.4-0.2-0.8-0.4-1-0.8c-1-3,0.9-5.1,2.4-7.3c1.4-0.8,1.8-2.5,2.9-3.5
	c0.4-0.2,0.9-0.3,1.3-0.3C57.1,79,57.1,79,56.2,76z"/>
<path class="st102" d="M72.1,81.3c-0.2-1.1-0.7-2.3,0.2-3.4c0-2.1-1.9-4.7,1.7-5.7c3.4-4.7,2.8,2.4,5,1.6c1.2-1.7-1.7-2.9-0.8-4.7
	c0.2-0.7,0.5-0.7,0.8-0.1c0.8,0.8,0.3,2.5,1.8,2.6c0.4,0,1-0.3,1.2-0.7c0.5-1.3,0-2-1.3-2.6c-1.7-0.8-1.7-3.3-0.7-3.8
	c3.6-1.7,0.5-3.6,0.9-5.5c-1.6,0.9,0,2.1-1.3,3.4c-2.6-5,3-11.1-2.2-15.3c3.4,3.2,2.6,7.9,4.5,11.6c4,4.7,4.1,10.6,4.6,16.4
	c-0.3,0.6-0.7,0.7-1.3,0.5c-1.6,4.7-7.1,2.8-9.7,5.8C74.2,81.7,73.1,82.5,72.1,81.3z"/>
<path class="st91" d="M46.2,89.2c0.2,0.2,0.3,0.5,0.4,0.7c-2,5.6-0.1,11,1.3,16.3c-0.6,5.3,1.4,10.2,1.7,15.4
	c-2.9-10.3-5-20.8-6.2-31.5C43.4,88,43.7,88,46.2,89.2z"/>
<path class="st74" d="M131.5,156.3c-1.4,2.4-2.8,4.9-4.2,7.3c-0.5-2.3-1.6-4.4-1.3-6.8c0.2-1.7,0.5-3.6,2.6-3.6
	C130.3,153.2,131.8,154.1,131.5,156.3z"/>
<path class="st20" d="M51.2,105.2c-2.5-3.2,0-5.8,0.4-8.5c0.1-0.5,1.7-0.7,2.6-1c0.4,1.3,0.9,2.7,1.2,4.1c0.2,1.1,0.6,3-0.9,2.6
	C51.8,101.7,52.5,104.5,51.2,105.2z"/>
<path class="st103" d="M55.4,111.6c-0.2-0.6-0.4-1.3-0.7-1.9c-0.5-1-0.3-1.9,0.7-2.4c0.8-0.4,1.1,0.2,1.2,0.9c0.4,1,1.2,1.3,2.2,1.4
	c1.8,2.7,3.9,5.4,1.7,9c0,0.6,0,1.2,0,1.7c-1.1,0-2.3,1.2-2.6-1.2C57.7,116.4,57.7,113.5,55.4,111.6
	C55.3,111.5,55.4,111.6,55.4,111.6z"/>
<path class="st70" d="M56.7,108.1c-1.4-0.5-1.9,0.2-1.9,1.5c-2.1-0.4-5.4,1.6-5.7-2.6c3.5,0.4,6.6-2,10.2-1.1
	c0.9,0.2,1.3,0.8,1.7,1.5C59.6,108.8,58,107.6,56.7,108.1z"/>
<path class="st104" d="M60.6,118.5c-0.4-1-1.4-1.9-0.1-3c0.6-0.5,1.2-1.5-0.2-1.5c-5.3,0-1.9-2.6-1.4-4.4
	C63.4,111.4,64.2,115.3,60.6,118.5z"/>
<path class="st74" d="M56.1,87.4c1.6-2.5,5.5-1.2,6.8-4.2c0.2,0.4,0.5,0.8,0.7,1.1C63.9,89.3,63.9,89.3,56.1,87.4z"/>
<path class="st105" d="M142.4,212.3c0.2,1.9-1.4,3.2-1.9,4.8c-1.2,0-2,0.6-2.4,1.8c-0.6-0.6-1.3-0.8-2.1-0.7c0.4-0.7,1-1.4,1-2.2
	C137.2,212.4,139.4,211.8,142.4,212.3z"/>
<path class="st74" d="M61.1,121.4c-0.1-0.3-0.1-0.6-0.1-0.9c0.8,0.2,2,0.8,2.3,0.5c3.5-3.1,4.1,0.1,6.1,3.3
	C66.1,122.5,62.8,125,61.1,121.4z"/>
<path class="st74" d="M73.4,116.7c2.6-1,3.5-0.3,3.9,1.3c0.2,1,1.2,2.5-0.7,2.7c-1.4,0.1-3.3,0.2-4-1.4
	C71.8,117.9,73,116.9,73.4,116.7z"/>
<path class="st47" d="M135.2,186.9c1.2,2.2,0.8,3.8,0.7,5.4c-0.1,1.2-0.8,2.2-2.1,2.4c-0.8,0.1-1.5-0.3-1.4-0.9
	c0.2-1.1-0.9-2.5,1.2-3.2C134.4,190.4,134.6,188.4,135.2,186.9z"/>
<path class="st20" d="M46.5,90.1c0.6,0.4,1.7,1.2,1.7,1.1c1.1-1.4,0.4-3,0.4-4.6c1.6,0.1,0.9,2.5,2.7,2.3c0.3,0.2,0.4,0.4,0.4,0.6
	c-0.1,0.2-0.1,0.3-0.2,0.3c-0.8,0.9,0.1,2.9-1.7,3.1C48,93,46.8,92,46.5,90.1z"/>
<path class="st106" d="M144.6,200.4c1-0.2,2.1-1.1,2.6,0.7c-2.6,0.4,1.4,6.1-3.7,4.6C142.9,203.7,142.9,201.9,144.6,200.4z"/>
<path class="st37" d="M146.1,183.6c0.3-0.2,0.5-0.3,0.8-0.4c4.8,2.3,0.5,5.6,1.3,8.4c-1.7-0.2-1.4-1.3-1.6-2.1
	C145.4,187.6,147.1,185.4,146.1,183.6z"/>
<path class="st20" d="M86.6,153.2c0.1,1.2,0.2,2.3-1.1,2.5c-1.4,0.2-2.5-0.7-3-1.9c-0.4-0.9,0-1.6,0.9-1.9
	C84.8,151.5,85.8,152.3,86.6,153.2z"/>
<path class="st85" d="M79.6,97.8c0.4,1.2,0.3,2.8,1.7,3.2c1.5,0.4,1.5,1.6,1.5,2.6c0,0.3-0.9,0.7-1.5,0.8c-1.7,0.2-1.1-1.4-1.6-2.2
	c-0.3-0.4-0.4-0.9-0.5-1.3C79.4,99.9,78.5,98.8,79.6,97.8z"/>
<path class="st107" d="M124,186.3c0.1-0.2,0.1-0.5,0-0.7c1.4-0.7,2-2.1,2.8-3.7c0.9,2.4,1.3,4.6-0.3,6.2
	C125.7,188.7,124.9,186.8,124,186.3z"/>
<path class="st92" d="M127.6,130.4c0.1-1.1-1.5-2.9,0.4-3.2c1.6-0.2,0.8,1.5,0.9,2.6c0.2,2.3,0.9,4.5,1.4,6.8
	C127.8,135.3,128.9,132.3,127.6,130.4z"/>
<path class="st106" d="M145.6,193c0.9,0.8,3.1-0.2,3,1.7c-0.2,1.9-2,2.3-3.7,2.6C144.9,195.9,144.5,194.3,145.6,193z"/>
<path class="st108" d="M51.5,89.8c0-0.3-0.1-0.6-0.1-0.9c1-1.1,1.4,0.9,2.3,0.4c0.2,1.3,0.4,2.7,0.5,4.1
	C51.8,93.2,52.3,91,51.5,89.8z"/>
<path class="st57" d="M131.5,140.9c0.1,2.6,0.2,5.2,0.4,7.9C131.5,146.1,128.2,143.6,131.5,140.9z"/>
<path class="st24" d="M25.8,151.5c1.5-3.3,5.5-4,7.2-7.4c1.5-2.8,4.1-4.4,6.1,0.3c1.8,4.2,5.1,6,9.7,4.1c1.2-0.5,2.8,0,3.9-0.5
	c3.2-1.5,4.4,1.2,6.2,2.6c-2.4,1.5-0.2,4-1.2,5.8c-0.8,1.4-2.1,1.5-3.4,1.8c-1,0.2-2,0.3-3,0.3c-1.2,0-2.6-0.2-3.1,1
	c-0.5,1.4,1.5,1.6,1.9,2.5c2.2,6.2,10.3,9.3,9.1,17.4c-0.3,1.9,1.3,3.7,2.8,5c0.4-0.1,0.9-0.2,0.9-0.4c0.4-7.2,6.3-7.7,11.3-9.1
	c1.2-0.3,1.9-0.1,2.4,1c0.7,1.5-0.4,5.3-1.8,6.6c-1.6,1.4,0.2,2.5,0.8,2.5c4.3-0.1,2.7,5.8,6.5,6.2c0.1,0,0.3,1.1,0,1.4
	c-2.6,3.1-1.3,7-2.3,10.3c-0.8,2.8-1.8,6.6-5,6.7c-2.5,0.1-4.6-3.1-5.9-5.5c-1.4-2.6-2.3-5.5-3.4-8.2c-0.4-1-0.4-2.7-2-2.3
	c-1.2,0.3-1.7,1.6-1.7,2.8c0.1,2.3,0.3,4.6,0.8,6.9c0.6,3.1,0.4,5.6-3.3,6.5c-0.9,0.2-0.9,1.3-0.9,2.1c-1.2,1.9-2.9,1.5-4.3,0.4
	c-8.1-6.2-15.2-13.2-17.8-23.6c1.2-2.5,2.9-2.2,4.9-1c1.1,0.7,1.4,1.7,2.1,2.7c1,1.5,0.9,4.5,3.6,3.8c1.6-0.4,0.7-2.3,0.3-3.5
	c-0.6-2.1-0.4-4.7-4.3-3.4c-3.1,1-5.7-2.1-4.4-5.7c2-5.1-0.7-5.9-4.5-6.5c-1.8-0.3-3.6-0.8-5.2-1.8c-1.4-0.9-2-2.8-3.8-3.2
	c-1.8-1.3-1.9-2.9-1.2-4.8c0.8-1.4,0.5-3,1-4.4c0.8-2.5-1.8-3.9-1.9-6.2C23.4,153.4,23.7,151.7,25.8,151.5z"/>
<path class="st50" d="M36.9,188.9c2.5,4.2,4.9,8.5,7.5,12.7c2.8,4.5,7.8,6.8,11.3,10.6c0.8,0.9,1.9,0,2.8-0.1c0,0,0,0,0,0
	c0.5,2.2,2.7,3.2,3.7,5.2c0,0.4-0.1,0.8-0.1,1.2c-0.5,1-0.2,2.7-2.1,2.6c-4.1-1.8-7.2-4.4-10.3-7.9c-4.3-4.8-8.6-9.8-13-14.7
	c-0.8-0.9-1.3-1.9-1.9-2.7c-1-1.1-0.6-5-4.1-2.5c-0.5,0.4-1.1-0.9-1.3-1.7c-0.3-1.3-0.6-2.5-1-3.8c1.8-2.1,2.9,0,4.3,0.7
	c1,0.9,0.6,2.8,2.1,3.4c2.4,3.2,4.7,6.5,7,9.8c0.4,0.5,0.6-0.5,0.2,0c-2.9-3.2-4.6-7.4-7.9-10.3c-0.4-0.5-0.6-1.1-0.7-1.8
	c-0.2-1.2-1.2-2.8,0.6-3.3C35.9,185.7,36.9,186.9,36.9,188.9z"/>
<path class="st47" d="M25.8,151.5c-0.6,1.3-1.2,2.5-1.9,3.8c-1.5,2.8,2.5,3.2,2.4,5.3c-0.7,2.1-4.5,2.7-2.8,6
	c-0.2,2.4,1.7,4.2,2,6.5c-0.4,1.7,0.5,3.9-1.7,5c-4.3-2.4-6-6.3-7.4-10.8c-0.7-2.2,0.2-5.4-3.4-6.4c-0.8-0.2-0.4-1.9,1-1.8
	c1.6,0.1,2.2-0.3,1.9-1.9c-0.1-0.2-0.1-0.4-0.2-0.6c-0.3-1.5-1.1-3,0.6-4.2c1.7-0.8,3.3,0.4,5,0.2c1.2-0.4,2.3-0.9,2-2.5
	c0.2-0.5,0.5-0.7,0.9-0.3C24.7,150.4,25.3,150.9,25.8,151.5z"/>
<path class="st40" d="M16,138.5c-0.2-2.4,0.3-4.7,0.9-7c0.4-1.8,2.4-2.3,2.4-4.1l-0.1-0.1c2.7,3.4,5.4,7,10.9,2.2
	c-0.2,3.3-3.1,2.2-3.1,3.9c-0.7,1.7-2.3,2.1-3.7,2.7c-1.1,0.5-1.6,2.2-3.2,1.4c1.5,0.8,2.2-0.9,3.3-1.3c2.1,0.2,2.7-1.8,4.2-2.5
	c1.2-0.6,3.4-0.8,2.3,0.9c-2.3,3.7-4,8.5-9.7,8.6c-3,0.1,0.1,2.9-1.5,3.7c-0.8,1.3-1.8,0.7-2.7,0.2c-1-0.9-1.4-2-1.3-3.4
	C15.1,142.1,16,140.4,16,138.5z"/>
<path class="st9" d="M6.2,151.6c-2.1-5-1.7-10.2-1.1-15.3c0.9,1.8,1,3.7,0.9,5.7c-0.1,0.9-1,3.8,2.1,2.7c0.4-0.1,0.7-0.2,1.1-0.3
	c0.6-0.8,1.1-1.8,2.4-1.4c1.1,0.6,1.7,1.5,2.5,2.4c1.8,3.8,1.6,8,1.9,12c0,0,0,0,0,0c-2.2-0.2-1-4.7-3.7-3.3c-1.9,1-1.7,3.5-0.9,5.7
	c0.6,1.9,0.4,4.1,0,6.2c-0.6-3.8-3.7-7.1-1.7-11.5C10.5,152,6.9,153,6.2,151.6z"/>
<path class="st91" d="M35.5,83.6c2.7-1,1.5-3.5,1.1-4.7c-1.4-4.8-1.2-9.6-1.5-14.6c3.2,2.3,0.9,6.6,3,9.3c1.8,3.8,4,7.3,5.1,11.3
	c1,2.1-1,4-0.7,6c-1.4,1.3-2.8,2.5-3.4-0.6c-1.4-2.4-2.8,0.8-4.3,0C33.2,87.9,34.5,85.7,35.5,83.6z"/>
<path class="st109" d="M42.6,90.9c-2.3-1.8,1.1-4.2-0.7-6c1-2.7-2-5.4,0.1-8c2.2-1.2-0.1-3.1,0.7-4.5c0.3-0.4,0.7-0.6,1.2-0.5
	c2.4,1.8,2.1,5.6,5.5,6.9c1.6,0.6,0.3,2.5-0.9,3.4c0.5,2.7-2.8,4.2-2.4,6.9c-0.8,0.7-2.4-1.1-2.7,0.9C43.2,90.4,42.9,90.7,42.6,90.9
	z"/>
<path class="st92" d="M27.5,88.9c1.4-1.6,0.5-5.4,4.4-4.6c0.1,0,0.3-0.7,0.5-1.1c-4.8-0.8,0.5-3.8-1.2-5.7c-0.7-0.7,1.2-1.4,2.3-0.5
	c1.8,1.5,2.6,3.3,1.8,5.6c-0.7,0.9-0.4,2-0.4,2.8c0.3,3.7-1.6,5-5,4.8C29.2,89.9,28.4,89.4,27.5,88.9z"/>
<path class="st77" d="M59.9,221c1.5-0.2-0.7-3.4,2.1-2.6c4.3,2.6,8.6,5.2,13,7.9c-1.3,0.7-2.6,1.4-3.9,2.1
	C67.7,225.5,64.1,222.8,59.9,221z"/>
<path class="st14" d="M10.7,96.5c3-1.9,6.7-2.1,9.6-4.4c2-1.6,2.3,1.4,3.6,1.9c-1.3,3.8-5.5,3.1-8.1,4.8
	C13.1,100.7,11.7,98.9,10.7,96.5z"/>
<path class="st110" d="M8.6,130.2c-1.2-5.8,0.6-11.3,1.9-16.8c0.7,5.8,0.6,11.4-1.7,16.8L8.6,130.2z"/>
<path class="st9" d="M53,140.1c-1.1-2.9-2.2-5.7-3.3-8.6c-0.4-1-0.4-2.1,0.7-2.5c1.4-0.6,1.6,0.7,1.8,1.6
	C53,133.7,53.9,136.8,53,140.1z"/>
<path class="st48" d="M12.9,145.8c-1.6-0.3-1.6-1.7-2.2-2.8c-0.8-1.2-0.6-2.3,0.2-3.3c0.4-0.3,0.8-0.4,1.3-0.2
	c1.7,1.4,2.5-0.8,3.8-1c1,1,2.1,1.9,1.6,3.6c-0.4,1.3-1.4,0.9-2.3,0.7C13.3,142.8,14.8,145.6,12.9,145.8z"/>
<path class="st111" d="M30,90.4c-0.1-1.1,0.4-2.1,1.2-2.5c1.4-0.8,0.6,1,1.2,1.3c1.6,0.7,1.5-0.6,1.6-1.4c0.3-1.7,0-3.6,1.3-5
	c0,0.3,0.1,0.6,0.2,0.9c1.1,2.2-0.3,4.2-0.4,6.3c0.3,0.2,0.5,0.4,0.5,0.7c0,0.3-0.1,0.4-0.2,0.4C33.5,91.9,31.7,91.2,30,90.4z"/>
<path class="st52" d="M12.9,103.4c0-0.8,0.9-1.6,1.7-1.8c1.2-0.3,1.9-2.4,3.3-1.3c1.7,1.2-0.9,1.6-0.8,2.8c0.3,2.4,0.2,4.8,0.3,7.4
	C14.6,109.1,18.2,103.8,12.9,103.4z"/>
<path class="st112" d="M16.3,146.9c0.7,0.1,1.5,0.1,2.2,0.2c0.9,1.9,1.9,3.7,2.8,5.6c-1.5,1.3-3.2,0.7-4.8,0.5
	C15.1,151,13.7,149,16.3,146.9z"/>
<path class="st24" d="M62.1,217.3c-2.1-1.1-5.5-1.3-3.7-5.2C61.4,212.6,62.5,214.4,62.1,217.3z"/>
<path class="st11" d="M19.3,127.4c0.3-1-2.1-3.1,1.3-2.7c1.2,0.2,2.5-0.3,3.1-2.6C24,126.7,24,126.7,19.3,127.4
	C19.2,127.3,19.3,127.4,19.3,127.4z"/>
<path class="st8" d="M9.8,146.4c-1.1,0-1.4-1-1.8-1.7c0-3.3-0.1-6.6-0.1-10c2.1-0.6,1.5,1.6,2.4,2.3C11,140.2,9.5,143.3,9.8,146.4z"
	/>
<path class="st113" d="M35.4,91c-0.1-0.4-0.2-0.7-0.3-1.1c2-0.5,2.6-3.6,5.3-3c1.3,1.7-2.3,1.8-1.1,3.4C38,90.5,36.8,91.6,35.4,91z"
	/>
<path class="st80" d="M55.3,111.5c0.1,1.6-1,2-2.2,2.7c-1.4,0.7-1.7,0.6-2.3-0.8c-0.9-2.2,0.5-1.4,1.5-1.5
	C53.4,111.7,54.3,110.9,55.3,111.5C55.4,111.6,55.3,111.5,55.3,111.5z"/>
<path class="st77" d="M24.2,149.8c-0.3,0.1-0.6,0.2-0.9,0.3c-0.2-0.6-0.5-1.2-0.6-1.8c-0.3-1.2-3.1,0-2.2-2.2
	c0.5-1.3,1.7-0.4,2.6-0.4c2.3,0,1.2,1.7,1.3,2.8C24.4,148.8,24.3,149.3,24.2,149.8z"/>
<path class="st92" d="M26.2,91.7c-4.9-2.1-0.3-4.1-0.2-6.4c1.4,1.1,1.2,2.5,1.5,3.7C27.1,89.8,26.7,90.7,26.2,91.7z"/>
<path class="st110" d="M9.6,137.3c-0.3-1-0.5-2.2-1.7-2.6c0.2-1.5-0.4-3.2,0.7-4.5c0,0,0.1,0.1,0.1,0.1c1.2,3.1,2.3,6.2,3.5,9.2
	c-0.4,0.1-0.7,0.2-1.1,0.3C10,139.4,10.6,137.9,9.6,137.3z"/>
<path class="st74" d="M64.1,140.2c-1.9,0.4-3.7,1.3-5.6-0.4C60.6,137.5,62.3,139.4,64.1,140.2C64.1,140.2,64.1,140.2,64.1,140.2z"/>
<path class="st95" d="M138.4,290.9c0.9,2.7,1.8,5.3,2.6,8c0.4,0.7,0.9,1.5-0.3,1.9c-1,0.3-1.1-0.9-1.7-1.4
	C138.5,296.6,135.9,294,138.4,290.9z"/>
<path class="st61" d="M119.4,267.7c-2.6-2.3-2.5-4.2-3.2-6.7C119.3,262.5,119.1,264.5,119.4,267.7z"/>
<path class="st0" d="M139,299.4c0.7,0.1,0.9,1.5,1.9,0.9c0.2-0.2,0.1-0.9,0.1-1.4c2.1,3.8-1.1,3.9-3.2,4.7
	C138,302.2,139.4,301.1,139,299.4z"/>
<path class="st72" d="M23.8,178.1c0.2-1.4,0.4-2.9,0.5-4.3c0.8,0.2,1.4,0.7,1.8,1.4c1.4,3.7,3.7,6.8,5.7,10.1c0.4,1.3,0.7,2.6,0,3.9
	c-1.4,0.2-1.8-2.3-3.5-1.5c-1,0.1-1.1-0.6-1.2-1.3C27.9,182.9,25.4,180.7,23.8,178.1z"/>
<path class="st85" d="M18,180.5c-3.2-1.9-3.3-4.2-3.9-6.2c-0.4-1.2-0.1-2.5,1.2-2.8c1.8-0.4,1.5,1.8,2.4,2.5
	c0.3,0.3,0.2,0.4-1.4,1.3c-0.1,0.1-0.3,0-0.5,0.1c0.1,0.3,0.1,0.6,0.3,0.9C16.5,177.4,17,178.4,18,180.5z"/>
<path class="st114" d="M204.4,331.5c0,0.3,0,0.6,0.2,0.8c-2.5,2.2-5.4,3.3-8.7,2.4C198.7,333.6,201.3,331.7,204.4,331.5z"/>
<path class="st101" d="M84.9,75.7c0.4-0.2,0.9-0.4,1.3-0.6c0.2-2.8-1.1-5.6,0.2-8.3c1-1.6,3.1,0.4,4.1-1.1c1.3-2.1,2.6-2.3,2.6,0.5
	c0,2.2,1.3,3.9,1.1,7.1c2.9-3.4-1.3-5.7,0.7-8c0.1-0.1,0.2-0.2,0.3-0.4c0.2,0.2,0.4,0.4,0.6,0.6c3,0.3,2.9,3.4,4.5,5l0,0
	c-0.4,1-0.7,2.1-0.2,3.2c-3.6,1-7.2,2.9-12.1-0.8c4.5,5.8-0.8,5.5-2.4,7.4C86.8,78.5,85.8,77.1,84.9,75.7z"/>
<path class="st99" d="M135.8,121.9c0.8,2.4,1.3,4.9,2.4,7.1c0.8,1.7,1.6,3.3,1.2,5c-0.2,1.1-1.6,0.8-2.5,0.3
	c0.5-1.5-0.8-1.9-1.6-2.7c-1-1.1-4.2-0.5-3.4-2.7c0.9-2.5-0.6-5.6,2.1-7.8C135.6,119.9,135.5,121,135.8,121.9z"/>
<path class="st110" d="M126.9,99.4c2.9,1.7,3.7,4.8,4.8,7.6c0.5,1.3,1.2,2.2,1.9,3.2c-2.9,0.8-4.7,0.2-5.1-3.2
	C128.3,104.5,127.4,102,126.9,99.4z"/>
<path class="st115" d="M145.7,151.5c0.3,2.6,0.6,5.3,0.9,7.9c-2,0.4-1.4-1.1-1.5-2c-0.2-2.7-2.6-4.1-4.2-5.6c-2.7-2.6,0.2-1.9,1-2.5
	c0.5,0.9,1.1,1.7,1.6,2.6C144.5,153,145,151.6,145.7,151.5z"/>
<path class="st116" d="M145.1,157.4c0.5,0.7,1,1.4,1.5,2c0.1,4.1,1.2,8.1-0.3,12.3c-0.4-2.5-0.9-5.1-1.3-7.6
	C146.1,161.8,144.2,159.6,145.1,157.4z"/>
<path class="st104" d="M123.1,98.7c3.3,3.7-1.2,4.9-1.3,7.3c0,0.6-0.8,0.4-1.2,0c-0.6-0.6-1.1-1.7-0.3-2.2
	C122.1,102.7,122.8,101,123.1,98.7z"/>
<path class="st86" d="M127.2,114.4c-5.2,1.7-4-2.7-4.8-5.2C124,110.8,124.8,113.3,127.2,114.4z"/>
<path class="st96" d="M73.9,72.3c-2,1.5,0.2,4.2-1.7,5.7c-1-0.5-1.5-3.1-3.1-0.6c-1.8,2.7-3.9,2.1-6,0.2c-1.9,0-3.7-0.1-3.1-2.8
	c0.4-0.2,1-0.3,1.2-0.7c1.1-1.3,0.4-4.1,2.6-4.2c2.4-0.1,0.8,3.3,3.1,4c1.8-1.7-2.3-5.1,1.3-6.4c2.4-1.2,3.1,1.5,4.7,2.1
	C73.3,70.5,73.6,71.4,73.9,72.3z"/>
<path class="st104" d="M60.1,74.7c0,2,1.9,2.1,3.1,2.8c0.1,0.7,0.2,2.2-0.4,2c-1.5-0.7-3.7-0.1-4.6-2.3c-0.3-0.8,1-3.8-2-2.1
	c-0.5-0.2-0.9-0.4-1.4-0.7c1.2-2.1-2.5-5.1,1.1-6.8c0.1-1.6-1.1-4.7,2.8-2.3c0.4-1.6-1.3-3.2,0.4-5c1.5,2.8,1.4,6.4,4.5,8
	c-1,1.2-1.9,0.9-2.4,0.4c-1.4-1.4-2-0.2-2.6,0.7c-1.2,1.8,0.6,1,1.2,1.4C61.2,71.8,60.7,73.3,60.1,74.7z"/>
<path class="st9" d="M43.7,72.2l-0.5,0.1c0,0-0.5,0-0.5,0c-1.5-3.7,0.3-8.1-3.4-11.7c-2.1-2-1-6.8-0.1-10.5c2,0.6,1.1,3,2.5,3.8
	c1.1,0.3,1.5,1.1,2,2c2.1,2.9-0.4,5.9,0.3,8.8C46.1,67.3,46.9,69.8,43.7,72.2z"/>
<path class="st117" d="M43.7,72.2c1-2.5,0.3-5,0.3-7.5c1.6-0.4,3.1-0.3,3.5,1.7c1,3.4,0.5,7.5,4.7,9.5c0.8,0.4,0.3,1.8-0.6,2.4
	c-1.4,1,0.7,4.8-3.1,3.9c-0.9-1.1,1.7-3.4,0.1-3c-5.8,1.5-3.4-3.1-4.4-5.2C44,73.5,43.9,72.8,43.7,72.2z"/>
<path class="st106" d="M78.9,69l-0.4,0.1l-0.4,0c-1.2-3.7-5.3-6.7-2.9-11.5c0.3-0.6,0.9-3.2-2.1-2.2c-1.4,0.5-1.4-2.3-1.3-2.3
	c2.2-0.4,0.8-3.7,3-3.6c1.6,0.1,0.9,1.6,1.1,2.7C76.8,57.8,77.9,63.4,78.9,69z"/>
<path class="st112" d="M51.7,78.4c-0.1-1.4,0.1-3.3-1.7-0.7c-0.4,0.6-1.6-0.1-1.4-0.6c1-3.7-2.8-6.9-0.9-10.6c1-0.6,2.6-0.3,2.5,0.4
	c-1,4.5,3.3,6.4,4.6,9.6C54.6,78.7,53.2,78.7,51.7,78.4L51.7,78.4z"/>
<path class="st46" d="M86.9,66.9c1.1,0.9-2.2,3.9,1.6,3.5c-0.8,1.6-1.5,3.1-2.3,4.7c-0.6-0.7-1.9-1.5-1.8-2.1
	c0.9-5.1-2.3-9.3-2.7-14.1c0.4,0.4,0.8,0.7,1.2,1.1C85.3,61.6,87.6,63.4,86.9,66.9z"/>
<path class="st95" d="M61.4,37.4c1-0.3,1.4-0.6,1.3-2c-0.3-2.7,1.2-2.5,2.9-1.2c0.3,0.8,1.2,1,1.6,1.7c1.4,0.9,2.7,2,4.5,0.8
	c0,0-0.1,0-0.1,0c1.4,1.8,2.1,3.7,0.1,5.5c-3.4,0.8-3.9-2.6-5.9-3.9c-1.6,1.1-2.7,2.5-1.8,4.6c-1.4,0.9-2.1,0.2-2.5-1.1
	C62.5,40.3,61.7,38.9,61.4,37.4z"/>
<path class="st118" d="M96.4,26.1c1.9,4.6,3.9,9.2,5.6,13.8c0.2,0.6-0.3,1.5-0.4,2.3c-1.3-0.5-3.7-1.4-3.6-1.5
	c1.4-5.1-2.5-9.2-2.3-14C95.7,26.5,95.9,26.4,96.4,26.1z"/>
<path class="st10" d="M101.3,20.6c-0.5,2.3-3.7,1.3-4.4,3.4c-2.7-1.9-2.3,2-4,2.1c-1-0.8-0.8-2-1.2-3.1c1.8-3,4-5.5,8-5.2l-0.1,0
	C100.7,18.4,103.7,17.7,101.3,20.6z"/>
<path class="st97" d="M71.1,41.9c1.6-1.6,0.9-3.4,0.5-5.2c3.8,2.2,4.7,9,1.2,10.7c-1.8,0.9-3.6-0.1-3.3-2.7
	C68.7,43,69.3,42.1,71.1,41.9z"/>
<path class="st72" d="M86.9,66.9c-1.3-2.3-2.7-4.6-4-7c0.4-0.9,0.8-1.7,1.4-3.1c0.3,4.6,4.6,5.6,6.2,8.8
	C90,68.1,88.2,66.8,86.9,66.9z"/>
<path class="st9" d="M116.5,57c-4.1-3.3-3.8-8.6-5.7-12.9C114.7,47.4,114.1,52.8,116.5,57z"/>
<path class="st9" d="M119.7,57.2c-3.8-3.5-0.4-8.4-2.4-12.4C119.8,48.6,119.9,52.8,119.7,57.2z"/>
<path class="st119" d="M71.1,41.9c-0.9,0.7-1.4,1.7-1.6,2.9c-1.6,0.1-4.3,1.5-3.1-2.2c0.5-1.5-0.4-2.8-0.6-4.1
	C68.3,38.4,69.3,40.8,71.1,41.9z"/>
<path class="st96" d="M53.1,64.3c-0.3-4.2-2.6-8.5,0.4-12.5C50.9,55.9,55.4,60.2,53.1,64.3z"/>
<path class="st43" d="M81.5,28.1c2.3,0.4,1.1,3.6,3.3,4.1c0.6,1.7,1.2,3.3,0.6,5.8C83,34.8,81.5,31.7,81.5,28.1z"/>
<path class="st41" d="M43.8,55.9c-1.3,0-1.6-1.1-2-2c-1.2-4.7-2.3-9.5-3.5-14.2c0-0.1,0.2-0.3,0.3-0.4c0.3,0.3,0.6,0.6,0.9,0.8
	c1.1,1.5,2.6,2.9,1.3,5C41.8,48.7,42.8,52.3,43.8,55.9z"/>
<path class="st120" d="M100.3,70.4c-4.5,1.1-2.6-3.7-4.5-5c1.1,0.2,1.7-2.6,3.2-0.4C100,66.7,102.1,68.1,100.3,70.4z"/>
<path class="st121" d="M136,54.6c-1.6-3-3.6-5.9-3.4-9.7C134.9,47.7,135.4,51.2,136,54.6z"/>
<path class="st117" d="M51.6,78.3c0.9-0.9,2.8,0,3.1-1.9c0.5,0.3,1,0.6,1.5,0.8c0-0.4,0.1-0.9,0.1-1.3c2,1.2,2,3.2,2.2,6.4
	C56.6,79.1,52.8,81.7,51.6,78.3z"/>
<path class="st122" d="M40.8,45.1c-0.4-1.7-0.9-3.3-1.3-5c1.7,0.8,3.4,2.2,4.9-0.3c0.1,0.7,0.3,1.5,0.4,2.2c-0.3,0.6-0.7,1.2-1,1.8
	c0.5,0.6,0.3,0.9-0.4,0.8C42.8,46.4,41.8,45.9,40.8,45.1z"/>
<path class="st123" d="M68.7,65.4c2.9-3,5.4-0.4,6.6,1.4c1.6,2.5-1.8,0.8-2.4,1.8C70.8,68.4,69.5,67.2,68.7,65.4z"/>
<path class="st52" d="M45.6,53.8c5.3,1.8,3.2,4.8,2.4,8.9C47,59.1,46.4,56.8,45.6,53.8z"/>
<path class="st3" d="M99.7,17.9c-3.3,0.7-5.7,2.9-8,5.2l-0.4,0.2l-0.5,0c-0.5-0.5-1-1-1.6-1.6c1.8-0.6,4,0.1,5.1-2.7
	C95,17.4,97.7,17.4,99.7,17.9z"/>
<path class="st4" d="M46.1,42.8c0-1.1,0.1-2.1,0.1-3.2c4.1,1.3,2.5,4.1,2,7.5C47.3,45.2,46.7,44,46.1,42.8z"/>
<path class="st121" d="M129.1,31.8c0.9,3.4,1.8,6.8,2.7,10.2C129.6,39,129.4,35.5,129.1,31.8z"/>
<path class="st124" d="M61.4,41.8c0.8,0.4,1.7,0.7,2.5,1.1c0.3,1.2,1,2.7-0.9,3.1c-0.5,0.1-2.3,0.4-2-1.1
	C61.2,43.9,57.9,42.4,61.4,41.8z"/>
<path class="st88" d="M121.3,46.8c2.6,1.8,2.8,4.8,3.7,7.5C122.2,52.5,123.4,48.9,121.3,46.8z"/>
<path class="st1" d="M101.3,20.6c1.5-2.3-1.1-1.9-1.8-2.7c2-1,4.1,0.1,6.3-0.3c-1.2,1.2-3.3,1.1-3.7,3.1
	C101.9,20.8,101.6,20.8,101.3,20.6z"/>
<path class="st68" d="M66.2,51.6c0,0.2-0.1,0.3,0,0.5c0.5,1.8,0.6,3.7-2,3.3c-2.7-0.4,1.7-2-0.3-3.7C63.1,51,65.6,52.7,66.2,51.6
	L66.2,51.6z"/>
<path class="st15" d="M68.7,65.4c1.1,1.4,3.6,1.1,4.2,3.2c0.1,0.3,0.1,0.7,0.2,1c-2.6,1.5-2.9-2-4.7-2.1
	C68.4,66.8,68.5,66.1,68.7,65.4z"/>
<path class="st69" d="M55.9,67.6c-0.3,1.5-3.3,3.2,0.4,4.4c0.6,0.2,0.5,0.6-1.5,2.4C54.7,72.1,51.1,69.1,55.9,67.6z"/>
<path class="st122" d="M43.8,43.8c3.3,0.8,2.2,3.2,2.6,5.7c-3.1-1-1.1-3.9-3-4.9C43.5,44.4,43.6,44.1,43.8,43.8z"/>
<path class="st97" d="M66.3,51.6c-1.3-1.7-1-3.3,0.3-4.8c0.1-0.1,1.2,0.2,1.2,0.3C67.8,48.8,68.4,50.7,66.3,51.6
	C66.2,51.6,66.3,51.6,66.3,51.6z"/>
<path class="st13" d="M148.8,159.7c-0.6-2.5-1.1-5-1.7-7.4c0.8-4.6-2.5-8.9-1.3-14.1c2.1,3.1,1.5,6.5,2.3,10
	c1.2-1.5,1.3-2.7,0.7-4.1c-0.7-1.6,0.3-2,1.6-2.1c0.4,1.7,0.9,3.5,1.3,5.2c-0.2,0.3-0.6,0.7-0.5,0.8c3.6,5.1-0.4,9.3-1.6,13.9
	C148.8,161.5,148.7,160.7,148.8,159.7z"/>
<path class="st110" d="M148.8,159.7c0.3,0.7,0.6,1.5,1,2.2c0.8,0.7,1.4,0.4,2-0.3c0.6-0.6,1.5-1.1,1.9-0.1c0.6,1.4-1,1.2-1.7,1.7
	C147.7,165.1,148.7,162,148.8,159.7z"/>
<path class="st125" d="M148.1,174.9c0-0.3,0-0.7,0-1c0.1-3.2,0.3-6.4,4.9-3.7c0.2,0,0.4-0.1,0.5,0c0.2,0.1,0.4,0.3,0.6,0.4
	c-1.7,1.2-3.7,2.2-3,4.9C151.1,176,150.1,175.9,148.1,174.9z"/>
<path class="st39" d="M42.1,76.9c0.2,2.7,1.9,5.4-0.1,8c-0.8-4-5.1-6.7-3.8-11.4c1.8,0.7,1.1-1.4,2-1.8C42,73.1,40.4,75.6,42.1,76.9
	z"/>
<path class="st126" d="M67.2,35.9c-1.2-0.2-1.8,0.7-2.6,1.7c-0.5-1.8,0.1-2.7,1-3.4c0.4-0.1,0.8-0.2,1.2-0.3c0.5-0.7,1-1.3,1.5-2
	C68.1,33.3,69.5,35.1,67.2,35.9z"/>
<path class="st127" d="M31.8,189.2c-0.5-1.2-0.9-2.4-1.4-3.6c0.1-2.3-0.6-4.3-1.8-6.2c-0.1-2.4-3.1-5,0.6-7c3.6,0.1,6.5,2.6,10.5,2
	c2.5-0.4,2.2,2.6,1.5,4.5c-0.5,1.5-2,2.8-1.6,4.6c0.5,2,0.5,4.8,3.9,2.1c2.2-1.8,4.8-2.4,4.6,2.1c-0.1,1.5,0.6,2.9,1.4,4.2
	c1.7,2.6-0.1,4.3-2,5.1c-1.9,0.8-3.8,0.5-3.9-2.6c-0.1-1.8-2.9-2.4-2.4-5.1c0.2-1.2-2.6-1.5-4.2-0.5c-0.9-0.6-2.2-2.2-2.6-1.5
	c-0.6,1.1-0.8,2.8,0.1,4.2l0,0.1C33.5,190.8,32.7,190,31.8,189.2z"/>
<path class="st20" d="M25.1,175.5c-0.3-0.6-0.6-1.1-0.8-1.7c-0.7-2.7-1.3-5.4-2-8c0.3-1.2,1.1-2,2.3-1.7c1,0.3,1.4,1.1,0.7,2.1
	c-1.8,1.5-0.1,2.7,0.2,4.1c1.6,1.1,2.4,2.4,1.8,4.4C26.8,175.5,26.2,176,25.1,175.5z"/>
<path class="st20" d="M26,160.9c-0.5-0.6-0.9-1.3-1.5-1.8c-1.2-0.9-2.9,2.6-3.8-0.3c-0.7-2.5,2.3-2.2,3.2-3.5c1.3,2,4,3.4,2.3,6.4
	c-0.3-0.1-0.4-0.3-0.4-0.5C25.9,161,25.9,160.9,26,160.9z"/>
<path class="st128" d="M26.6,173.9c1.1-1.6-2.2-2-1.1-3.6c2.5-1.5,2.5,1.4,3.7,2.1c-1.2,3,0.8,5.4,1.5,8.1
	C25.9,180.5,27.7,176.3,26.6,173.9z"/>
<path class="st129" d="M26,160.9c0.1,0.3,0.2,0.5,0.2,0.8c-1.3,1.3,0.9,3.3-0.9,4.5c-0.5-3.6-1.9-0.9-3-0.4c-1-1.1-2.1-2.3-3.1-3.4
	C22.2,164.9,23.9,161.3,26,160.9z"/>
<path class="st127" d="M34.4,191.6c0.6,0,1.7-0.3,1.8,0c2.1,4.4,5.9,7.9,7.4,12.7C39.9,200.5,36.7,196.4,34.4,191.6
	C34.4,191.7,34.4,191.6,34.4,191.6z"/>
<path class="st130" d="M16.3,146.9c-1.7,2.1,1.2,4.1,0.2,6.2c-0.2,1.4-0.4,2.8-0.6,4.3c-1-3.8-2-7.7-3-11.5c0.9-1.3-1.4-2.2-0.4-3.6
	c0.5-0.7,1-1.2,2-1.2c1.4,0,0.7,1.2,0.9,1.8C15.6,144.1,16,145.5,16.3,146.9z"/>
<path class="st20" d="M27.4,133.7c-0.6,1.1-1.1,2.3-1.8,3.4c-1.4,2.2-1.4-0.1-2-0.6l-0.4-0.3l0.2-0.5c-0.2-2.9,3.2-0.2,3.6-2.3
	C27.1,133.5,27.3,133.6,27.4,133.7z"/>
<path class="st101" d="M23.4,135.7c0.1,0.2,0.2,0.5,0.2,0.7c-1,1.5-2.4,2.3-4.2,1.7c-0.4-0.1-1-1.4-0.8-1.6c0.9-1.2,0.8,0.4,1.3,0.6
	C21.7,138.1,21.5,134.5,23.4,135.7z"/>
<path class="st20" d="M9.6,137.3c1.3,0.3,1.2,1.5,1.5,2.5c-0.1,1.1-0.3,2.1-0.4,3.2c-1.5,0.8,1.3,2.8-0.9,3.4
	C8.8,143.4,9.8,140.4,9.6,137.3z"/>
<path class="st24" d="M26.6,173.9c2.3,1.6,0.8,5.6,4.1,6.6c3.7,1.9-0.1,3.4-0.3,5.1c-2.3-3.1-4.4-6.3-5.4-10.1
	C25.6,174.9,26.1,174.4,26.6,173.9z"/>
</svg>
