<?xml version="1.0" encoding="utf-8"?>
<!-- Generator: Adobe Illustrator 27.1.0, SVG Export Plug-In . SVG Version: 6.00 Build 0)  -->
<svg version="1.1" id="Capa_1" xmlns="http://www.w3.org/2000/svg" xmlns:xlink="http://www.w3.org/1999/xlink" x="0px" y="0px"
	 viewBox="0 0 1026 122.8" style="enable-background:new 0 0 1026 122.8;" xml:space="preserve">
<style type="text/css">
	.st0{fill:#F3F3F3;}
	.st1{fill:#CCCCCC;}
	.st2{fill:#313131;}
	.st3{fill:#010101;}
	.st4{fill:#6F6F6F;}
	.st5{fill:#6B6B6B;}
	.st6{fill:#A1A1A1;}
	.st7{fill:#D7D7D7;}
	.st8{fill:#282828;}
	.st9{fill:#8E8E8E;}
	.st10{fill:#191919;}
	.st11{fill:#373737;}
	.st12{fill:#060606;}
	.st13{fill:#A7A7A7;}
	.st14{fill:#909090;}
	.st15{fill:#969696;}
	.st16{fill:#8F8F8F;}
	.st17{fill:#ACACAC;}
</style>
<path class="st0" d="M243,69.8c7.4,7.7,10,16.3,1.7,24.1c-11.3,10.6-26.7,6.9-39.6,4.2c-11.8-2.5-19.3-11.7-18.7-23.3
	c0.3-5.3,2.2-10.6,3.5-16.4C143.9,73,98.3,73.2,52.3,61.7c-12-3-24.5-4.8-36.6-7.7C10,52.7,0,55.9,0,47.7c0-6.4,9.2-4.7,14.4-6.2
	c11.9-3.4,24.5-5.3,35.9-9.6c48-17.7,94.7-17.9,141.2,8.4c1.8-12.9-4.8-25.7,7.8-34.8c9.8-7,21.4-4.6,32-3.9
	C252.1,2.8,256,14.6,252,29.9c-2.7,1.9-5.4,3.8-8.1,5.8c-8.7,2.2-17.1,3.2-14.1-8.3c1.5-6,4-11.5-6-12.5
	c-9.6-0.9-14.9,3.7-16.4,11.6c-1,5.5,2.2,11.1-0.2,16.7c12.8,9.8,27.5,1.9,41.2,3.2c48.9-2.9,97.9-2.5,146.8-0.2
	c11.8,0,23.7,0.1,35.5,0.1c12.8-8.1,27.1-4.8,41-3.9c10.7,3.3,21.9,2.3,33,2.4c79.9,0.6,159.8-1.2,239.6,0.9
	c30.1,7.4,59.9,0.3,89.8-1.8c6.1-0.4,11.3-4.5,12.4-9.8c1.4-6.9-1.9-12.3-13.4-14.2c1.2,7.4,18.8,10.3,8,18.9
	c-8,6.4-17.9,6.1-26.9,2.2c-11-4.7-12.6-13.7-10.3-23c4.1-16.7,26.3-23.5,44.5-13.8c4.6,3.9,9.3,7.7,13.9,11.6
	c10.3,8.4,21.5,10.6,36.1,7.9c42-7.7,79.3,10,118.1,18.8c5,1.1,9.6,4.3,9.6,9.3c0.1,6.8-6.4,9.6-12.3,12
	c-39.5,16.3-79.5,31.3-124.9,25.8c-15.4-1.9-24.5,0.7-29.3,15c-4.2,12.7-16.9,19.3-32.7,17.6c-16.2-1.8-27.2-10.4-30.6-24
	c-3-11.9,2.8-21,17.2-24.9c6.6,0.1,13.2,0.2,19.8,0.3c9.1,6.4,4.3,10.4-3.4,13.6c-4,1.7-8.9,2.7-7.5,7.7c1,3.5,4.4,5.1,8.4,4.9
	c6.1-0.3,8.9-3.9,10.3-8.6c1.9-6.3-1.4-12.6,0.7-18.9c-2.5-2.2-5-4.4-7.4-6.7c-22.1-4.8-44.5-1-66.7-2.2
	c-16.1-0.6-32.3,1.4-48.4-1.2l0.3-1.2c-31-3.9-61.7,1.3-92.5,1.9c-68.8,1.2-137.7,0.4-206.5,0.4c-23.3,0-46.3-8.5-69.7-1.2
	c-12.9,5.2-25.3,2.9-38.8,0.3c-14.6-2.8-30.2-1.3-45.4-1.7c-13.6-2.2-27.3-0.5-41-1c-8.2-0.4-15.9-0.1-20.1,7.8
	c-2.8,5.2-2.2,9.7,2.4,13.7c3.7,3.2,8.3,5.4,13.7,4c8.1-2.1,2.9-7,2.6-10.9c-0.5-5.6,3.6-7.6,9.1-8.5
	C236.5,67.2,239.8,68.5,243,69.8z"/>
<path class="st1" d="M652.7,62.5c-3.1,0.1-6.2,0.1-9.3,0.2c-82.7,1.6-165.5,2-248.2-0.2c-14.8-0.1-29.6-0.1-44.4-0.2
	c4.8-5.6,11.9-4,18.3-4c111.2-0.1,222.4-0.1,333.6-0.1c5.8,0,11.9-0.8,16.8,3.1C697.3,61.7,675,62.1,652.7,62.5z"/>
<path class="st2" d="M207.1,43.2C198.6,33,197,22,206.4,12.4c6.6-6.8,17.5-6.5,26.5-2.9c9.5,3.8,16.6,9.8,4.9,18.2
	c-2.9,2.1-9.7,2-6.1,7.1c2.7,3.8,8,1.1,12.2,0.9C232.8,42.6,220,43,207.1,43.2z"/>
<path class="st2" d="M233.3,66c-4.9,3.3-14.1,5.8-0.6,10.5c11.9,4.2,5,10-0.5,13.9c-8,5.6-16.7,2.8-24.5-0.9
	c-7.8-3.7-14.5-8.8-12.9-17.7c1.5-8.6,8.8-12.1,17.7-13.6c2.8-0.5,5.8,0.2,8.7,0.4c1.5,0.2,2.4,1,2.5,2.4c-1.9,0.8-3.7,1.5-5.6,2.3
	C222.3,67.8,228.3,64.9,233.3,66z"/>
<path class="st3" d="M395.2,62.4c82.7,0.1,165.5,0.2,248.2,0.2c-7.1,5.2-15.5,2.8-23.3,2.8c-75,0.2-150,0.1-225,0.1
	C395,64.6,395,63.5,395.2,62.4z"/>
<path class="st2" d="M841.8,72.6c9.4,10.1,11.5,20.6,1.2,30.9c-5.9,5.9-14.1,7.2-22.1,3.1c-6.9-3.6-10.2-9.2-7.4-16.3
	c2.3-6,3.6-12,15.1-8.3c7.8,2.5,7.3-3.5,4.7-8.2C836.1,73.4,838.9,73,841.8,72.6z"/>
<path class="st4" d="M395.2,46.2c-48.9,0.1-97.9,0.1-146.8,0.2c21.5-6.4,43.8-3,65.6-2.9C341,43.7,368.3,39.8,395.2,46.2z"/>
<path class="st5" d="M767.9,62.5c22.2,0.6,44.8-5.1,66.4,3.4c-21.8-0.2-43.5-0.3-65.3-0.5c-1.5-0.3-2.2-0.8-2-1.6
	C767.2,63,767.5,62.5,767.9,62.5z"/>
<path class="st2" d="M767.9,62.5c0.1,1,0.4,2,1.1,2.9c-16.6-1.1-33.6,3.7-49.8-2.9C735.5,62.5,751.7,62.5,767.9,62.5z"/>
<path class="st6" d="M223.7,60.9c-1.1-0.6-1.9-1.4-2.5-2.4c15.2-0.8,30.5-1.8,45.4,2.4C252.3,60.9,238,60.9,223.7,60.9z"/>
<path class="st7" d="M168.9,38.8c7.8,1.9,14.1,6,14.2,12.9c0,3.4-6.7,2.8-10.8,2.2c-30.6-3.3-61,5.4-91.8,0.6
	c-8.2-1.3-17.2-4.2-26-1.1c-10,1.9-10.6-7.2-16.3-10.3c2.8-3.6,6.9-4.2,11.5-3.7C89.4,36.2,129.1,36.6,168.9,38.8z"/>
<path class="st8" d="M168.9,38.8c-0.8,4.3-4.6,4-8.3,4c-31.7,0.2-63.5,0.4-95.2,0.4c-5.4,0-12.1,2.4-15.7-3.8
	c12.7-3,25.4-6.1,38.1-9.1c16.6-1.2,33.3-2,49.9,0.5C148.1,33.5,158.5,36.2,168.9,38.8z"/>
<path class="st9" d="M470.2,47.2c83.1-0.1,166.2-0.1,249.3-0.2c10.3,0,20.6-0.1,30.9-0.2c-0.1,1,0.1,2,0.5,3
	c-91.5-0.2-183.1-0.4-274.6-0.7C474.2,49.2,472.2,47.9,470.2,47.2z"/>
<path class="st10" d="M866.8,47.2c11.5-3,23-5.9,34.5-8.9c15-1.8,29.9-2.3,44.9,0.3c10.4,2.9,20.7,5.7,31.1,8.6c0,1.4,0,2.8,0,4.1
	c-14.7,0-29.4,0-44.1,0c-19.1,2.2-38.2,0.5-57.4,0.9C871.9,52.2,866.3,53.5,866.8,47.2z"/>
<path class="st11" d="M951,69.8c-26.9,9.3-53.8,11.2-80.9,0.4c-0.1-1.3-0.7-3.2-0.1-3.7C883.7,58,938.3,60.3,951,69.8z"/>
<path class="st12" d="M54.5,53.5C93.8,49,133,47.2,172.2,54c-11.5,1.5-23.1,3.1-34.6,4.6c-16.5,1.9-33,2.2-49.4-0.2
	C77,56.8,65.7,55.2,54.5,53.5z"/>
<path class="st13" d="M852.6,65.7c-3,0-6.5-0.3-6.6-3.4c-0.2-4.7,4.5-4,7.8-4c41.4-0.1,82.9-0.1,125.4-0.1
	c-1.5,6.4-5.8,7.5-11.1,7.4C929.6,63.2,891.1,62.3,852.6,65.7z"/>
<path class="st12" d="M852.6,65.7c22.8-8.1,46.7-2.9,70-3.3c15-0.2,31.2-6.1,45.5,3.2c-5.7,1.4-11.4,2.8-17.1,4.2
	c-27-5.9-54-7.8-80.9,0.4C864.3,68.7,858.4,67.2,852.6,65.7z"/>
<path class="st14" d="M866.8,47.2c21.5,8.7,44.5-0.3,66.4,4.1c-25.4,4.9-51,1.3-78,4.1C858.5,48.5,862.5,47.7,866.8,47.2z"/>
<path class="st15" d="M88.2,58.5c16.5,0.1,32.9,0.1,49.4,0.2C121.1,63.2,104.7,63.7,88.2,58.5z"/>
<path class="st16" d="M137.7,30.9c-16.6-0.2-33.3-0.3-49.9-0.5C104.5,25.5,121.1,25.6,137.7,30.9z"/>
<path class="st17" d="M946.1,38.6c-15-0.1-29.9-0.2-44.9-0.3C916.3,33.2,931.2,33.3,946.1,38.6z"/>
</svg>
