<?xml version="1.0" encoding="utf-8"?>
<!-- Generator: Adobe Illustrator 27.1.0, SVG Export Plug-In . SVG Version: 6.00 Build 0)  -->
<svg version="1.1" id="Capa_1" xmlns="http://www.w3.org/2000/svg" xmlns:xlink="http://www.w3.org/1999/xlink" x="0px" y="0px"
	 viewBox="0 0 47.8 37.1" style="enable-background:new 0 0 47.8 37.1;" xml:space="preserve">
<style type="text/css">
	.st0{fill:#F7F0DF;}
	.st1{fill:#F7F1E1;}
	.st2{fill:#F5F3ED;}
	.st3{fill:#F6F4EC;}
	.st4{fill:#F4F4EB;}
	.st5{fill:#F8F6F1;}
	.st6{fill:#FEFDF5;}
	.st7{fill:#F8F6F0;}
	.st8{fill:#FAF7F1;}
	.st9{fill:#FBF9F5;}
	.st10{fill:#F7F6ED;}
	.st11{fill:#FBFAF0;}
	.st12{fill:#F3F1EA;}
	.st13{fill:#F4F3EF;}
	.st14{fill:#FDFBFA;}
	.st15{fill:#F4F3EB;}
	.st16{fill:#F7F6E9;}
	.st17{fill:#F4F3EA;}
	.st18{fill:#D7D4D2;}
	.st19{fill:#F9F6F7;}
	.st20{fill:#A59DA2;}
	.st21{fill:#E3DEE0;}
	.st22{fill:#E7E2E5;}
	.st23{fill:#FCFAF9;}
	.st24{fill:#B4B3B7;}
	.st25{fill:#FBFBF9;}
	.st26{fill:#F7F7F4;}
	.st27{fill:#FAFBF6;}
	.st28{fill:#F6FAF6;}
	.st29{fill:#F9F9F6;}
	.st30{fill:#FCFDF7;}
	.st31{fill:#F7F8F6;}
	.st32{fill:#F5F5F2;}
	.st33{fill:#F9F8F3;}
	.st34{fill:#ACA7A8;}
	.st35{fill:#717158;}
	.st36{fill:#FEFDFD;}
	.st37{fill:#FBFAF9;}
	.st38{fill:#EDEAEA;}
	.st39{fill:#BBBABC;}
	.st40{fill:#FDFDFC;}
	.st41{fill:#FCFCFB;}
	.st42{fill:#FEFEFE;}
	.st43{fill:#F3F0F2;}
	.st44{fill:#625D61;}
	.st45{fill:#F6F6F3;}
	.st46{fill:#F6F5F2;}
	.st47{fill:#847462;}
	.st48{fill:#FAF9F9;}
	.st49{fill:#F6F3F3;}
	.st50{fill:#847961;}
	.st51{fill:#FAF9F8;}
	.st52{fill:#EBE9EA;}
	.st53{fill:#423B2F;}
	.st54{fill:#FBFCF9;}
	.st55{fill:#CBCBCB;}
	.st56{fill:#F5F3F1;}
	.st57{fill:#5E554B;}
	.st58{fill:#C8CACA;}
	.st59{fill:#97958C;}
	.st60{fill:#B1ACAC;}
	.st61{fill:#FDFCFB;}
	.st62{fill:#B7B6B6;}
	.st63{fill:#888277;}
	.st64{fill:#F3F2F1;}
	.st65{fill:#DBDADB;}
	.st66{fill:#CECFD2;}
	.st67{fill:#BBB9B9;}
	.st68{fill:#4B494A;}
	.st69{fill:#C8CBCE;}
	.st70{fill:#FBFBF7;}
	.st71{fill:#9B9597;}
	.st72{fill:#6B6665;}
	.st73{fill:#D0D0D1;}
	.st74{fill:#CCCCCC;}
	.st75{fill:#F9F6FC;}
	.st76{fill:#EEEFED;}
	.st77{fill:#C7C4C5;}
	.st78{fill:#C8C4C8;}
	.st79{fill:#D5D6D7;}
	.st80{fill:#EDECEA;}
	.st81{fill:#D5D3D0;}
	.st82{fill:#DAD8D8;}
	.st83{fill:#1F1911;}
	.st84{fill:#ABA6A8;}
	.st85{fill:#696665;}
	.st86{fill:#D3D2D1;}
	.st87{fill:#6D6B6A;}
	.st88{fill:#BDBDBD;}
	.st89{fill:#5F5D56;}
	.st90{fill:#54504B;}
	.st91{fill:#424245;}
	.st92{fill:#D2D0D5;}
	.st93{fill:#CCCFCE;}
	.st94{fill:#D3D3D4;}
	.st95{fill:#DCDDDD;}
	.st96{fill:#615F5B;}
	.st97{fill:#FCFBFB;}
	.st98{fill:#6C696A;}
	.st99{fill:#1C1B1C;}
	.st100{fill:#DADCDE;}
	.st101{fill:#C3C4C5;}
	.st102{fill:#9E9E97;}
	.st103{fill:#C9C7C8;}
	.st104{fill:#53504C;}
	.st105{fill:#DFDFE1;}
	.st106{fill:#D7D5D5;}
	.st107{fill:#B0B1B2;}
	.st108{fill:#E1E2E4;}
	.st109{fill:#D0D1D2;}
	.st110{fill:#504C45;}
	.st111{fill:#8E8D87;}
	.st112{fill:#D8D9DA;}
	.st113{fill:#E3DFE1;}
	.st114{fill:#414048;}
	.st115{fill:#837E81;}
	.st116{fill:#86807D;}
	.st117{fill:#9B9C8F;}
	.st118{fill:#AFAEAE;}
	.st119{fill:#595B5E;}
	.st120{fill:#544F42;}
	.st121{fill:#C9C7C6;}
	.st122{fill:#8A7F81;}
	.st123{fill:#2B2312;}
	.st124{fill:#BBBBBA;}
	.st125{fill:#292A31;}
	.st126{fill:#D7D7D6;}
	.st127{fill:#2D2C2D;}
	.st128{fill:#BFBFC0;}
	.st129{fill:#E3E3E3;}
	.st130{fill:#313136;}
	.st131{fill:#E7E5E4;}
	.st132{fill:#736A62;}
	.st133{fill:#8A8990;}
	.st134{fill:#837D7E;}
	.st135{fill:#BBBAB9;}
	.st136{fill:#E9E7E6;}
	.st137{fill:#EFEEED;}
	.st138{fill:#55524C;}
	.st139{fill:#87847E;}
	.st140{fill:#8D8B8C;}
	.st141{fill:#D9D8CE;}
	.st142{fill:#2C2B33;}
	.st143{fill:#393940;}
	.st144{fill:#5D5954;}
	.st145{fill:#E0DCE3;}
	.st146{fill:#AAA4A3;}
	.st147{fill:#A1A09F;}
	.st148{fill:#978F8D;}
	.st149{fill:#88867B;}
	.st150{fill:#95938C;}
	.st151{fill:#8A8988;}
	.st152{fill:#424141;}
	.st153{fill:#A6A095;}
	.st154{fill:#7F7D75;}
	.st155{fill:#B5B6B5;}
	.st156{fill:#AEADAC;}
	.st157{fill:#878283;}
	.st158{fill:#AEA9AE;}
	.st159{fill:#EAEBEC;}
	.st160{fill:#272A28;}
	.st161{fill:#ABA7A6;}
	.st162{fill:#908C80;}
	.st163{fill:#504E52;}
	.st164{fill:#918C82;}
	.st165{fill:#B4B3AC;}
	.st166{fill:#CECEC8;}
	.st167{fill:#646465;}
	.st168{fill:#A3A39F;}
	.st169{fill:#2C2C2E;}
	.st170{fill:#A09E9B;}
	.st171{fill:#BFC0C1;}
	.st172{fill:#A2A3A5;}
	.st173{fill:#818182;}
	.st174{fill:#F4F3F2;}
	.st175{fill:#808082;}
	.st176{fill:#D4D3D3;}
	.st177{fill:#C8C8BD;}
	.st178{fill:#9B9897;}
	.st179{fill:#979897;}
	.st180{fill:#AEADB0;}
	.st181{fill:#989A8B;}
	.st182{fill:#A7A7A8;}
	.st183{fill:#4D443C;}
	.st184{fill:#403F3F;}
	.st185{fill:#8E9094;}
	.st186{fill:#3E3426;}
	.st187{fill:#DCDBDD;}
	.st188{fill:#4B4B51;}
	.st189{fill:#2E2B20;}
	.st190{fill:#D2CDC3;}
	.st191{fill:#4B463A;}
	.st192{fill:#070606;}
	.st193{fill:#D5CEC9;}
	.st194{fill:#5D5B5B;}
	.st195{fill:#A8A6A3;}
	.st196{fill:#434247;}
	.st197{fill:#515752;}
	.st198{fill:#A09997;}
	.st199{fill:#C2C2B8;}
	.st200{fill:#766F72;}
	.st201{fill:#595657;}
	.st202{fill:#9A9892;}
	.st203{fill:#5F5D5D;}
	.st204{fill:#797878;}
	.st205{fill:#3B3836;}
	.st206{fill:#79746A;}
	.st207{fill:#959691;}
	.st208{fill:#EFEFEC;}
	.st209{fill:#535251;}
	.st210{fill:#44443E;}
	.st211{fill:#AAA9A6;}
	.st212{fill:#504E4E;}
	.st213{fill:#3B3A3B;}
	.st214{fill:#8D8D83;}
	.st215{fill:#515246;}
	.st216{fill:#ABABAF;}
	.st217{fill:#918E89;}
	.st218{fill:#A0A29E;}
	.st219{fill:#AAA69A;}
	.st220{fill:#565154;}
	.st221{fill:#42424B;}
	.st222{fill:#B0B1AF;}
	.st223{fill:#424344;}
	.st224{fill:#8F9093;}
	.st225{fill:#504D4D;}
	.st226{fill:#8E8C84;}
	.st227{fill:#8C8D8B;}
	.st228{fill:#4F514E;}
	.st229{fill:#7E7A81;}
	.st230{fill:#3E3F3E;}
	.st231{fill:#B8B5AE;}
	.st232{fill:#B2B3B3;}
	.st233{fill:#919191;}
	.st234{fill:#C0BFBE;}
	.st235{fill:#565050;}
	.st236{fill:#D1D1D2;}
	.st237{fill:#AFB8BD;}
	.st238{fill:#777C7F;}
	.st239{fill:#777466;}
	.st240{fill:#4E4B41;}
	.st241{fill:#060201;}
	.st242{fill:#6D6A63;}
	.st243{fill:#3F3B34;}
	.st244{fill:#3D372F;}
	.st245{fill:#5D5753;}
	.st246{fill:#444034;}
	.st247{fill:#424238;}
	.st248{fill:#D6D2C8;}
	.st249{fill:#232418;}
	.st250{fill:#302A1C;}
	.st251{fill:#504C43;}
	.st252{fill:#F0EBE6;}
	.st253{fill:#AEA89F;}
	.st254{fill:#8F8A80;}
	.st255{fill:#655A4B;}
	.st256{fill:#B9AFA2;}
	.st257{fill:#A59E96;}
	.st258{fill:#949289;}
	.st259{fill:#464343;}
	.st260{fill:#666559;}
	.st261{fill:#DAD4C4;}
	.st262{fill:#C0BBB3;}
	.st263{fill:#6F6F65;}
	.st264{fill:#413D3B;}
	.st265{fill:#414337;}
	.st266{fill:#7A7976;}
	.st267{fill:#7C7A78;}
	.st268{fill:#050404;}
	.st269{fill:#8D8E89;}
	.st270{fill:#44403A;}
</style>
<g>
	<path class="st0" d="M24.5,6.4c0.6,0.2,1.2,0.2,1.8,0.4c1.6,0.6,2.7,1.5,3.2,2.8c-0.9,0.3-1.1,0.2-1.6-0.4
		c-0.2-0.3-0.4-0.5-0.6-0.8c-0.5-0.4-1-0.7-1.8-0.6c-0.3,0-0.7,0.1-1,0.1c-0.6-0.1-0.9,0.1-0.9,0.6c-0.3,0.4-0.4,0.8-0.6,1.1
		c-0.1,0.2-0.2,0.4-0.4,0.5c-0.1,0.1-0.3,0.1-0.4,0.1c-0.6,0.1-1.2,0-1.7,0c-0.1,0-0.4,0-0.1,0.2c0.3,0.2,0.6,0.3,1,0.5
		c0.7,0.4,0.8,0.6,0.5,1.2c-0.2,0.4-0.5,0.8-0.4,1.2c0,0.2-0.1,0.4-0.4,0.4s-0.5-0.1-0.6-0.3c-0.1-0.3-0.4-0.4-0.7-0.4
		c-0.2,0-0.4-0.1-0.6-0.2c-0.4-0.3-0.7-0.2-0.9,0.1c-0.1,0.1-0.1,0.1-0.2,0.1c-0.4-0.6-0.8-1.1-0.8-1.8c-0.1-0.4,0-0.8-0.1-1.1
		c0.2-0.8,0.6-1.5,1.2-2.2c1-1,2.3-1.6,3.9-1.8c0.7-0.1,1.4-0.1,2.1,0C24.3,6.3,24.4,6.3,24.5,6.4z"/>
	<path class="st1" d="M23.4,8.5c0-0.1,0-0.3,0-0.4c0-0.2,0.1-0.3,0.4-0.3c0.5,0,1,0,1.5-0.1c1.3-0.2,2,0.4,2.5,1.1
		c0.1,0.1,0.2,0.3,0.3,0.4c0.2,0.3,0.5,0.6,1,0.3c0.1-0.1,0.3,0,0.4,0.1c0.5,1.2,0.3,2.4-0.4,3.5c-0.3,0.5-0.8,0.8-1.2,1.2
		c-0.7-0.2-0.8-0.5-0.4-0.9c0.2-0.2,0.5-0.3,0.7-0.5c0.4-0.3,0.4-0.7-0.1-1c-0.3-0.2-0.6-0.3-0.9-0.5c-0.3-0.2-0.5-0.1-0.7,0.1
		c-0.2,0.2-0.1,0.3,0.1,0.5c0.2,0.1,0.4,0.3,0.6,0.4c0.5,0.4,0.6,0.6,0.3,0.9c-0.4,0.4-0.9,0.6-1.5,0.4c-0.3-0.1-0.5-0.2-0.7-0.4
		c-0.3-0.5-0.6-1-0.7-1.5c0-0.2,0-0.4,0.2-0.6c0.1-0.1,0.1-0.1,0.3-0.1c0.5-0.2,1-0.5,1.6-0.8c-0.2,0-0.3,0-0.4,0c-0.6,0-1.3,0-2,0
		c-0.3-0.1-0.4-0.2-0.6-0.4c-0.1-0.1-0.1-0.1-0.1-0.2C23.7,9.3,23.2,9,23.4,8.5z"/>
	<path class="st2" d="M15.3,29.9c0.4,0.1,0.9,0.2,1.3,0.3c0.9,0.3,0.8,0.9,0.8,1.5c-0.2,0.4-0.4,0.8-0.9,1.1c-0.3,0.2-0.3,0.4,0,0.6
		c0.4,0.3,0.6,0.6,0.9,1c0.2,0.2,0.4,0.4,0.1,0.6c-0.3,0.1-0.5,0.2-0.8,0.2c-0.5,0.1-0.8-0.1-1.1-0.4c-0.3-0.4-0.5-0.9-1-1.3
		c-0.2-0.1-0.3-0.1-0.5-0.1c-0.4,0.1-0.5,0.4-0.5,0.7c0,0.3,0.1,0.6-0.1,0.8c-0.1,0.1-0.3,0.1-0.4,0.2c-0.4,0.2-0.9,0.1-1.3,0.1
		c-0.5-0.1-0.2-0.4-0.2-0.6c0.2-0.8,0.1-1.7,0.1-2.5c0-0.8,0.1-1.6,0.2-2.4l0,0C13,29.8,14.1,29.8,15.3,29.9z"/>
	<path class="st3" d="M20.4,22.9c0.5-0.1,1.1-0.3,1.6,0c0.1,0.1,0.1,0.3,0.1,0.4C22,23.8,22,24.3,22,24.9c0,0.2,0,0.4,0,0.6
		c0,0.6,0,1.1,0,1.7c0.1,0.2,0.1,0.4,0.1,0.7c-0.1,0.3-0.2,0.5-0.6,0.4c-0.4,0-0.7,0-1.1,0c-0.2,0-0.4-0.1-0.5-0.3
		c-0.8-1.1-1.7-2.2-2.6-3.2c-0.1-0.1-0.1,0.1-0.1,0c0,0,0,0,0.1,0c0.2,0.1,0.2,0.3,0.3,0.4c0,0.1,0,0.2-0.1,0.3c0,0-0.1,0-0.1,0
		c-0.1,0-0.1,0.1-0.3,0.1c-0.3-0.1-0.6-0.2-1-0.2c-0.2,0-0.4,0-0.5-0.2c-0.1-0.7-0.2-1.4,0.1-2.1c0-0.4,0.2-0.5,0.8-0.5
		c0.8,0,1.3,0.1,1.6,0.6c0.6,0.9,1.4,1.7,2.1,2.6c0.1,0,0.1,0.2,0.2,0.1c0.1-0.2,0-0.4,0.1-0.6C20.4,24.6,20.2,23.7,20.4,22.9z"/>
	<path class="st4" d="M28.9,28.1c0.1-0.2,0.3-0.3,0.4-0.5c0.3-0.5,0.2-1,0.6-1.4c0.3-0.7,0.7-1.5,0.9-2.2c0.1-0.3,0.3-0.6,0.6-0.9
		c0.4-0.5,1.1-0.2,1.7-0.3c0.4,0,0.3,0.3,0.4,0.5c0.8,1.4,1.3,2.8,1.8,4.3c0.3,0.7,0.2,0.7-0.7,0.7c-0.2,0-0.3,0-0.4,0
		C34,28.4,34,28.2,33.9,28c-0.1-0.3-0.1-0.5-0.3-0.7c0-0.1-0.1-0.1-0.1-0.1C33.1,27,32.5,27,32,27.1c-0.1,0-0.1,0-0.2,0
		c-0.8,0-0.9,0-0.9,0.6c0,0.4-0.3,0.5-0.7,0.6c-0.3,0.1-0.6,0-1,0C29,28.3,28.9,28.2,28.9,28.1z"/>
	<path class="st5" d="M40.1,29.9c0.4,0.5,0.5,1.1,0.8,1.7c0.4,1.1,1,2.1,1.4,3.2c0.2,0.4-0.1,0.5-0.5,0.5c-0.2,0-0.4,0-0.6,0
		c-0.7-0.1-0.5-0.6-0.6-0.9c-0.1-0.1-0.1-0.1-0.2-0.2c-0.1-0.1-0.2-0.1-0.3-0.1c-0.8,0-1.5-0.2-2.3-0.1c-0.4,0.1-0.3,0.4-0.3,0.6
		c-0.1,0.4-0.3,0.6-0.8,0.6c-0.3,0-0.8,0.2-0.7-0.3c0-0.8,0.6-1.5,0.8-2.3c0.3-0.8,0.7-1.6,1.2-2.4c0.1-0.2,0.2-0.4,0.5-0.4
		C39,29.8,39.5,29.8,40.1,29.9z"/>
	<path class="st6" d="M26.1,34.2c0,0,0.1,0,0.1,0c0.8,0.1,1.7,0.1,2.5,0c0.3,0,0.5,0,0.5,0.2c0,0.3,0.1,0.7-0.5,0.8
		c-1,0.1-2,0-2.9,0.1c-0.6,0.1-1.1-0.1-1.7-0.1c0.2-0.3,0.3-0.5,0.3-0.8c0.1-1.3,0-2.7,0.1-4c0-0.2-0.1-0.4,0.1-0.5c0,0,0.1,0,0.1,0
		c1.5-0.1,3.1-0.1,4.6,0c0,0,0,0,0,0.1c0,0.9,0,1-1.2,0.9c-0.4,0-0.9,0-1.4-0.1c-0.3-0.1-0.6,0-0.6,0.4c0.1,0.3-0.2,0.6,0.1,0.8
		c0.4,0.1,0.9,0.1,1.3,0c0.1,0,0.2,0,0.3,0c0.3,0.1,0.6-0.1,0.8,0.1c0.1,0.3,0,0.6-0.4,0.8c-0.1,0-0.1,0-0.2,0
		c-0.6,0.1-1.1,0-1.7,0.1C25.8,33.4,26,33.8,26.1,34.2z"/>
	<path class="st7" d="M42.9,31.2c0.3-0.8,1.3-1.4,2.5-1.4c0.5,0,1,0,1.5,0.1c0.5,0.1,0.7,0.3,0.6,0.6c-0.1,0.4-0.5,0.7-1,0.6
		C46.3,31,46,31,45.7,30.9c-0.3-0.1-0.6,0-0.8,0.1c-0.5,0.2-0.4,0.5,0,0.7c0.5,0.3,1.2,0.4,1.8,0.7c0.9,0.4,1.2,0.9,1,1.6
		s-1.1,1.3-2,1.3c-0.3,0-0.4,0.1-0.7,0.1c-0.2,0.1-0.4,0-0.6,0c-0.6-0.1-1.2-0.1-1.7-0.3c-0.1-0.4,0.1-0.7,0.2-1
		c0.1-0.3,0.5-0.2,0.8-0.1c0.4,0.1,0.9,0.3,1.4,0.4c0.3,0.1,0.4,0.1,0.6-0.1c0.2-0.1,0.1-0.3,0.2-0.4c0.2-0.2,0-0.4-0.2-0.5
		c-0.2-0.2-0.5-0.3-0.8-0.4c-0.5-0.2-1.1-0.3-1.5-0.6C43,32.1,42.8,31.7,42.9,31.2z"/>
	<path class="st1" d="M17.9,13.3c0-0.2,0.2-0.3,0.3-0.5c0.2-0.3,0.5-0.3,0.7-0.1c0.1,0.1,0.3,0.3,0.4,0.3c0.5,0.1,1.1,0,1.2,0.6
		c0,0.1,0.2,0.2,0.4,0.1c0.2-0.1,0.3-0.2,0.3-0.4c0.4-0.6,1.2-0.8,1.9-1.2c0.1-0.1,0.3,0,0.4,0.1c0.1,0.1,0.1,0.2,0.1,0.3
		c-0.2,0.3,0.1,0.5,0.4,0.6c0.4,0.1,0.6,0.4,0.7,0.7c0.3,0.7,0.5,0.8,1.5,0.8c0.3,0,0.7-0.2,0.8,0.2c-1.8,0.8-3.7,1-5.6,0.6
		C19.9,15.1,18.7,14.4,17.9,13.3z"/>
	<path class="st8" d="M11,29.9c0.4,0.2,0.2,0.5,0.3,0.8c-0.2,0.4-0.6,0.3-1,0.4c-0.4,0-0.8,0-1.2,0c-0.3,0-0.6-0.1-0.7,0.1
		c-0.1,0.2-0.1,0.5,0.1,0.7C8.5,31.9,8.6,32,8.7,32c0.3,0.3,0.5,0.7,0.2,1.1c-0.6,0.3-0.7,0.6-0.4,1.1c0.6,0.1,1.2,0.1,1.8,0.1
		c0.1,0,0.1,0,0.2,0c0.4,0,0.9,0,0.9,0.4c0.1,0.4-0.2,0.7-0.7,0.8c-1.3-0.1-2.7-0.1-4.1-0.1c-0.2,0-0.3,0-0.4-0.2
		c-0.1-0.2-0.1-0.4,0-0.7c0.3-0.8,0.2-1.6,0.1-2.5c-0.1-0.7-0.1-1.4,0.2-2.1c0.4,0,0.8,0,1.1,0C8.8,29.8,9.9,29.8,11,29.9z"/>
	<path class="st9" d="M20.8,33c0.4-0.8,0.8-1.6,1.1-2.5c0.1-0.2,0.3-0.5,0.4-0.6c0.4-0.1,0.9-0.1,1.4,0c0.2,0,0.1,0.3,0.1,0.4
		c-0.4,0.9-0.9,1.9-1.4,2.8c-0.3,0.6-0.5,1.1-0.8,1.7c-0.1,0.2-0.3,0.4-0.6,0.4c-1.1,0.1-1.2,0.1-1.6-0.4C19,33.9,18.4,33,18.2,32
		c-0.1-0.2-0.1-0.4-0.3-0.5c-0.2-0.5-0.6-0.9-0.6-1.5c0.5-0.2,1-0.1,1.5-0.1c0.3,0,0.2,0.1,0.3,0.3c0.3,0.9,0.7,1.9,1.1,2.8
		c0.3,0.1,0.3,0.4,0.4,0.6c0.1,0.1,0.1,0.2,0.1,0.3c0,0.1,0,0.1,0.1,0.2c0.1-0.1,0-0.1,0-0.2c0-0.1,0-0.3,0-0.4
		C20.6,33.3,20.6,33.1,20.8,33z"/>
	<path class="st10" d="M28.8,27.2c-0.6,0.6-1.4,1-2.5,1.1c-0.7,0.1-1.4,0-2.2,0.1c-0.4,0-0.8,0-1.2,0c-0.2-0.1-0.2-0.2-0.2-0.3
		c0.1-0.2,0-0.4,0.2-0.6c0.4-0.2,1,0,1.4-0.2c0.1,0,0.1,0,0.2,0c0.4,0,0.9,0.1,1.4,0c0.6-0.1,1-0.3,1.2-0.7c0.1-0.1,0.3-0.2,0.4-0.3
		c0.4-0.5,0-1-0.1-1.5c-0.2-0.6-0.8-0.9-1.6-0.8c-0.2,0-0.4,0-0.6-0.1c-0.4-0.1-0.7-0.2-0.9-0.4c-0.1-0.1-0.2-0.3-0.1-0.4
		c0.1-0.2,0.3-0.2,0.5-0.2c0.2,0,0.5,0,0.7,0c0.8-0.1,1.6,0.1,2.4,0.3c0.8,0.3,1.2,0.8,1.3,1.5c0.2,0.5,0.1,0.9,0.1,1.4
		C29.4,26.4,29.3,26.9,28.8,27.2z"/>
	<path class="st11" d="M3.8,23.9c0,1.3-0.1,2.6,0,3.9c0,0.4-0.3,0.5-0.6,0.5c-0.1,0-0.3,0-0.4,0c-0.8,0.3-0.7-0.1-0.6-0.4
		c0.3-1.1,0.1-2.2,0.1-3.2c0-0.1,0-0.3,0-0.4c0.1-0.3-0.1-0.4-0.5-0.4c-0.5-0.1-1-0.1-1.5,0c-0.1,0-0.1,0-0.1,0
		c-0.2-0.3,0.3-1.1,0.7-1.1c1.6,0,3.2,0,4.7,0.1c0.1,0,0.3,0,0.3,0.1c0,0.3,0.1,0.6-0.2,0.8C4.9,23.9,4.3,23.7,3.8,23.9z"/>
	<path class="st12" d="M14.7,22.9c0,0.3,0,0.7-0.4,0.9c-0.7,0.1-1.4,0-2.1,0.1c-0.3,0.1-0.7-0.1-0.7,0.2c-0.1,0.3-0.3,0.7,0.2,0.9
		c0.8,0.1,1.5,0,2.3,0.1c0.3,0.7,0.1,0.9-0.8,0.9c-0.2,0-0.4,0-0.6,0c-0.9,0-1,0.1-1.1,0.8c-0.3,0.4-1.3,0.6-1.6,0.3
		c0-1.3-0.1-2.7,0.1-4c0.1-0.2,0.2-0.3,0.4-0.3c1.4,0,2.7,0,4.1,0C14.4,22.8,14.6,22.9,14.7,22.9z"/>
	<path class="st3" d="M33.7,32.3c-0.5,0.6-1.1,1.1-1.6,1.6c-0.1,0.1-0.3,0.2-0.2,0.3c0.1,0.1,0.3,0.1,0.5,0c0.7-0.1,1.4-0.1,2.1,0
		c0,0,0.1,0,0.1,0c0.8-0.1,1,0.2,1,0.7c0.1,0.1,0.1,0.2-0.1,0.3h-0.1h-0.1c-1.7-0.1-3.5-0.1-5.2,0c-0.2,0-0.4,0-0.5,0
		c-0.2-1.1,0.8-1.7,1.5-2.4c0.6-0.6,1.3-1.2,1.7-1.9c0-0.1,0.1-0.1,0.2-0.2c0.3,0,0.4,0.1,0.4,0.3C33.4,31.6,33.6,31.9,33.7,32.3z"
		/>
	<path class="st13" d="M8.4,28.1c-0.1,0.1-0.2,0.2-0.3,0.2c-0.4,0-0.9,0-1.3,0.1c-0.3,0.1-0.5,0-0.3-0.3c0.1-0.3,0.2-0.6,0.2-0.9
		c0.1-0.6,0.1-1.2,0-1.8c-0.3-0.8,0-1.5,0-2.3c0-0.2,0.1-0.3,0.3-0.3c0.4,0,0.9,0,1.4,0c0.3,0,0.2,0.2,0.2,0.3
		c0.1,0.5-0.2,1-0.1,1.6c0.1,0.7,0,1.3,0,2C8.4,27.1,8.5,27.6,8.4,28.1z"/>
	<path class="st14" d="M43.4,26.3c0.1-0.8,0.2-1.7,0.1-2.6c0-0.1,0-0.1,0-0.2c-0.1-0.7-0.1-0.7,1-0.7c0.6,0,1.3,0,2,0
		c0.2,0,0.5-0.1,0.5,0.2c0,0.3-0.1,0.6-0.5,0.6c-0.4,0-0.8,0-1.2,0c-0.6,0-0.8,0.3-0.5,0.7c0.4,0.1,0.9,0,1.3,0.1
		c0.3,0,0.4,0.1,0.4,0.4c0,0.2-0.2,0.3-0.5,0.3c-0.3,0-0.6,0-0.9,0c-0.5,0-0.5,0.2-0.5,0.5c0,0.3,0.1,0.4,0.5,0.4c0.4,0,0.8,0,1.3,0
		c0.3,0,0.5-0.1,0.6,0.3c0.1,0.3-0.2,0.4-0.4,0.4c-0.1,0-0.2,0-0.3,0.1c-0.4,0.2-0.8,0.1-1.1,0.1c-0.4,0-0.8,0-1.1-0.1
		C43.6,26.7,43.3,26.6,43.4,26.3z"/>
	<path class="st15" d="M0.3,32.1c0.2-1.4,2-2.4,3.6-2.3C4.5,29.9,5.1,30,5.6,30c0.2,0,0.2,0.1,0.3,0.2C6,30.5,6.1,30.8,5.8,31
		c-0.4,0.3-0.8,0.2-1.3,0.1c-1.7-0.4-2.3,0.3-2.2,1.4c0,0.3,0.1,0.6,0.1,0.8c0,0.1-0.1,0.2-0.2,0.1c-0.6-0.3-1,0.1-1.3,0.4
		c-0.3-0.1-0.3-0.3-0.4-0.5c0-0.1,0-0.2,0-0.3C0.5,32.8,0.3,32.4,0.3,32.1z"/>
	<path class="st0" d="M27,14.8c-0.2-0.2-0.5-0.1-0.8-0.1c-0.4,0.1-0.9-0.1-1.3-0.2c-0.3-0.1-0.3-0.3-0.3-0.4c0-0.5-0.3-0.8-0.9-0.9
		c-0.5-0.1-0.5-0.3-0.3-0.6c0.1-0.1,0-0.2,0-0.3c0.1-0.1,0.3-0.1,0.4,0c0.6,0.3,1.1,0.6,1.7,1c1,0.5,1.4,0.5,1.9-0.1
		c0.2-0.3,0.2-0.4-0.1-0.6c-0.3-0.2-0.5-0.3-0.8-0.5c-0.3-0.2-0.4-0.4-0.1-0.7c0.3-0.2,0.6-0.3,0.9-0.1c0.3,0.2,0.6,0.3,0.8,0.5
		c0.6,0.4,0.6,0.8,0.1,1.3c-0.2,0.1-0.3,0.3-0.5,0.3c-0.7,0.4-0.7,0.5,0,1C27.6,14.5,27.4,14.8,27,14.8z"/>
	<path class="st16" d="M25.5,22.8c-0.2,0.1-0.4,0.1-0.7,0.1c-0.2,0-0.3,0.1-0.4,0.2c-0.1,0.2,0.1,0.3,0.1,0.3
		c0.2,0.2,0.5,0.3,0.8,0.4c0,0.1-0.1,0.1-0.1,0.1c-0.4,0.1-0.5,0.3-0.5,0.5c0,0.2,0,0.4-0.1,0.6c-0.1,0.6,0,1.1-0.1,1.7
		c0,0.2,0,0.4-0.2,0.6c-0.4,0.4-0.9,0.1-1.4,0.2c-0.3-0.2-0.2-0.5-0.2-0.7c0-0.6,0-1.1,0-1.7c0-0.6,0-1.1,0-1.6c0-0.2,0-0.4,0.2-0.6
		C23.8,22.6,24.7,22.8,25.5,22.8z"/>
	<path class="st17" d="M40.7,26.7c-0.2,0.2-0.4,0.1-0.7,0.1c-0.4,0-0.8,0-1.3,0.1c-0.5,0.1-0.6,0-0.6-0.3c0-0.4,0-0.7,0.2-1
		c0.1-0.8,0.1-1.7,0-2.5c0-0.1,0.1-0.2,0.2-0.2c0.9,0,1.8-0.1,2.7,0.1c-0.2,0.3-0.5,0.5-0.6,0.8c-0.1,0-0.1,0-0.2,0.1
		c-0.5,0-0.6,0.2-0.6,0.5c0,0.3,0,0.7,0,1c-0.1,0.4,0.2,0.6,0.7,0.6C40.7,26.1,40.9,26.4,40.7,26.7z"/>
	<path class="st6" d="M33.7,32.3c-0.5-0.3-0.4-0.7-0.4-1c0-0.1,0.1-0.3-0.2-0.4c-0.9-0.1-1.7-0.1-2.6,0c-0.3,0-0.6,0-0.9,0
		c0.3-1,0.3-1,1.4-1c1.4-0.1,2.8-0.1,4.2,0c0.3,0.5-0.1,0.8-0.3,1.2C34.6,31.5,34.1,31.9,33.7,32.3z"/>
	<path class="st18" d="M44.7,27.6c0.6,0,1.1,0,1.7,0c0.3,0,0.6,0,0.6,0.3s-0.2,0.5-0.6,0.5c-0.5,0-1.1,0-1.6,0
		c-0.7-0.1-1.4-0.1-2.1,0c-1.3,0-2.6,0-3.9,0c-0.5,0-0.5-0.2-0.3-0.4c0.1-0.3,0.4-0.4,0.8-0.4c1.2,0,2.4,0,3.6,0
		C43.4,27.7,44.1,27.7,44.7,27.6z"/>
	<path class="st14" d="M40.7,23.6c-0.4-0.5,0.3-0.5,0.5-0.7c1.1,0,1.9,0.7,1.8,1.7c-0.1,1.3-0.8,1.8-1.9,2.1c-0.1,0-0.3,0-0.4,0
		c0.1-0.3-0.4-0.4-0.1-0.7c0.2-0.3,0.7-0.3,0.8-0.6c0.1-0.4,0-0.8,0.1-1.3C41.4,23.7,40.8,23.9,40.7,23.6z"/>
	<path class="st9" d="M0.9,33.9c0.2-0.7,0.3-0.8,1.3-0.4c0.9,0.7,1.9,0.7,3,0.4c0.1,0,0.3,0,0.4,0.1c0.2,0.6,0,0.9-0.6,1.1
		c-0.3,0.1-0.7,0-1.1,0.2c-1.1,0.2-2.1-0.1-2.8-0.7C1,34.4,0.7,34.3,0.9,33.9z"/>
	<path class="st19" d="M9.8,27.2c0.3-0.1,0.6-0.3,1-0.1c0.4,0.1,0.3-0.3,0.6-0.3c-0.1,0.4,0.2,0.5,0.7,0.5c0.6,0,1.2,0,1.8,0
		c0.2,0,0.6-0.2,0.6,0.1c0,0.3,0.3,0.7-0.4,0.9c-1,0.1-2,0-3,0c-0.2,0-0.5,0-0.7,0c-0.2,0-0.4,0-0.6,0c-0.3,0-0.4-0.2-0.3-0.3
		c0.2-0.2,0.1-0.4,0.1-0.7C9.7,27.3,9.7,27.2,9.8,27.2z"/>
	<path class="st20" d="M38.7,36.6c0.4,0,0.8,0,1.2,0c0.3,0.1,0.6-0.1,0.8,0.1c0,0.2-0.1,0.3-0.3,0.3c-5.5,0-11,0-16.5,0
		c-0.2,0-0.4,0-0.6,0c-0.3,0-0.3-0.2-0.4-0.3c0-0.1,0-0.1,0-0.1c0.1,0,0.3,0,0.4,0c1.2,0.1,2.4,0,3.6,0c1.3,0,2.5,0,3.8,0
		c2.4,0,4.8,0,7.2,0C38.3,36.7,38.5,36.7,38.7,36.6z"/>
	<path class="st21" d="M1.1,21.5c-0.3,0-0.5,0-0.7,0c-0.3,0-0.3-0.1-0.1-0.2c1.3-0.1,2.7,0,4,0c1,0,2,0,3,0c0.6,0,1.2,0,1.8,0
		c1.9,0,3.8,0,5.7,0c0.2,0,0.4,0,0.6,0c0.3,0,0.6,0,0.9,0c1.6,0.1,3.2,0,4.7,0c0.9,0,1.8,0,2.8,0c0.1,0.1,0.1,0.2,0,0.3
		c-1.1,0-2.1,0.1-3.2,0c-0.4,0-0.7,0-1.1,0c-1.1,0.1-2.1,0.1-3.2,0c-0.5,0-1.1,0-1.6,0c-1.1,0.1-2.1,0.1-3.2,0c-0.9,0-1.8,0-2.6,0
		c-0.5,0.1-1,0.1-1.5,0c-0.9,0-1.8,0-2.8,0C3.5,21.5,2.3,21.5,1.1,21.5z"/>
	<path class="st22" d="M23.8,21.4c0-0.1,0-0.1,0-0.2c0.1-0.1,0.3-0.1,0.5-0.1c0.9,0,1.8,0,2.7,0c0.9,0,1.8,0,2.8,0c1.3,0,2.7,0,4,0
		c0.5,0,0.9,0,1.4,0c0.1,0,0.1,0,0.1,0c0.5,0.1,1,0,1.6,0c2.8,0,5.5,0,8.3,0c0.2,0,0.5,0,0.7,0c0.3,0,0.7,0,1.1,0
		c-0.4,0.4-0.9,0.3-1.4,0.3c-1.2-0.1-2.5,0-3.7-0.1c-0.4,0-0.9,0.1-1.4,0c-2.4,0-4.8,0-7.3,0c-1.4,0.1-2.7,0.1-4.1,0
		c-0.9,0-1.8,0-2.8,0c-0.6,0.1-1.3,0-2,0C24.3,21.5,24,21.6,23.8,21.4z"/>
	<path class="st23" d="M15.6,26.5c0-0.3,0-0.7,0.1-1c0.5-0.1,1-0.3,1.4,0.2c0.2,0.6,0,1.1,0.1,1.7c0,0.2,0,0.4,0,0.6
		c0,0.2-0.1,0.3-0.4,0.3c-0.4-0.1-0.8,0.1-1.2,0.1c-0.1-0.1-0.2-0.3-0.1-0.4C15.7,27.5,15.5,27,15.6,26.5z"/>
	<path class="st24" d="M23,36.7c0.3,0,0.2,0.2,0.1,0.3c-1,0.1-2,0.1-3,0c-0.4,0-0.9,0.1-1.3,0.1c-1.1-0.1-2.2,0-3.3,0
		c-0.2,0-0.5,0-0.7,0c-0.2,0-0.3,0-0.5,0c-0.8,0.1-1.6,0-2.3,0c-0.7,0-1.5,0-2.2,0c-0.2-0.3,0.1-0.3,0.3-0.3c0.2,0,0.4,0,0.6-0.1
		c0.9,0,1.8,0,2.7,0c1.1,0,2.2,0,3.3,0c1.6,0,3.3,0,5,0C22.1,36.7,22.6,36.6,23,36.7z"/>
	<path class="st25" d="M36,14.5c0.3,0,0.6,0.1,0.3,0.4c-0.3,0.3-0.7,0.6-1.2,0.8c-0.1,0.1-0.2,0.1-0.3,0.1c-0.5-0.3-1.2-0.3-1.6-0.7
		c-0.3-0.2-0.2-0.4-0.1-0.6c0.1-0.3,0.3-0.5,0.4-0.7c0.1-0.1,0.1-0.2,0.3-0.2c0.2,0,0.2,0.1,0.3,0.2c0.1,0.2,0.1,0.4,0.2,0.6
		c0.1,0.3,0.3,0.6,0.8,0.3c0.2-0.1,0.4,0.1,0.6-0.1C35.7,14.4,35.8,14.4,36,14.5z"/>
	<path class="st26" d="M10.3,14.5c0.6-0.1,1,0,1.5,0.1c0.5,0.1,0.7,0.1,0.8-0.3c0.1-0.3,0.2-0.8,0.6-0.8c0.4,0,0.4,0.5,0.4,0.8
		c0.1,0.3,0.4,0.6-0.1,0.8c-0.8,0.2-1.5,1-2.4,0.2C10.9,15,10.5,14.8,10.3,14.5z"/>
	<path class="st27" d="M18.4,17.9c0,0.8-1,1.3-2.2,1.1c-0.3-0.1-0.9,0.1-0.8-0.3c0-0.3,0.5-0.3,0.9-0.4c0.9-0.2,0.9-0.2,0.7-1
		C16.9,17.2,16.9,17,17,17c0.1-0.1,0.3,0,0.5,0.1C17.9,17.3,18.4,17.5,18.4,17.9z"/>
	<path class="st28" d="M15.6,15.9c0.6,0.2,0.7,0.7,1.1,1c0.2,0.3-0.1,0.3-0.2,0.4c-0.3,0.2-0.6,0.4-0.7,0.6
		c-0.1,0.1-0.3,0.1-0.4,0.1c-0.6,0.1-1.2-0.3-1.7-0.4c-0.4-0.2,0.1-0.3,0.1-0.3c0.4,0,0.7-0.2,1.1-0.1c0.6,0.1,0.7-0.1,0.5-0.5
		c-0.1-0.2,0-0.4-0.1-0.6C15.3,15.9,15.4,15.9,15.6,15.9z"/>
	<path class="st29" d="M29.8,17.4c0,0.1,0,0.2-0.1,0.3c-0.2,0.6-0.2,0.7,0.6,0.7c0.3,0,0.6,0.1,0.7,0.3c0.1,0.3-0.4,0.3-0.6,0.4
		c-1.1,0.3-1.4,0.2-1.8-0.6c-0.1-0.2-0.6-0.4-0.4-0.6c0.2-0.3,0.6-0.5,0.9-0.8c0.1-0.1,0.3-0.2,0.5-0.1
		C29.9,17.1,29.7,17.3,29.8,17.4z"/>
	<path class="st30" d="M13.5,16c0.1,0,0.1,0,0.1,0c0.2,0.1,0.2-0.1,0.2-0.1c0-0.2-0.1-0.4,0.1-0.6c0.1-0.2-0.1-0.5,0.3-0.6
		c0.3,0,0.4,0.3,0.6,0.4c0.2,0.2,0.3,0.4,0.4,0.6c0.1,0.1,0,0.1-0.1,0.2c-0.3,0.5-0.9,0.6-1.4,0.9c-0.3,0.1-0.6,0-0.9-0.1
		c-0.4-0.2-0.7-0.3-1-0.5c-0.1-0.1-0.2-0.2,0-0.3C12.3,16,12.9,16,13.5,16z"/>
	<path class="st31" d="M31.5,16.8c-0.2,0.4,0,0.6,0.8,0.5c0.2,0,0.3,0.1,0.5,0.1c0.2,0,0.6,0,0.6,0.2c0,0.1-0.2,0.3-0.5,0.3
		c-0.1,0-0.2,0.1-0.3,0.1c-0.6,0.2-1.1,0.3-1.5-0.2c0,0,0,0-0.1,0c-0.9-0.7-0.9-0.7-0.2-1.5c0.1-0.2,0.3-0.3,0.6-0.3
		c0.3,0.1,0.1,0.3,0.2,0.4C31.5,16.5,31.5,16.6,31.5,16.8z"/>
	<path class="st32" d="M32.9,15.1c0,0.1,0,0.1,0,0.2c0.1,0.8,0.1,0.8,1.1,0.8c0.1,0,0.2,0,0.3,0c0.2,0,0.4-0.1,0.5,0.1
		c0.1,0.2-0.1,0.3-0.3,0.4c-1,0.5-2.1,0.4-2.7-0.4c0,0-0.1-0.1-0.1-0.1c-0.1-0.3,0.6-1.2,1.1-1.2C32.9,15,32.9,15.1,32.9,15.1z"/>
	<path class="st33" d="M4,18.7c-0.6-0.6-0.5-0.9,0.1-1.2c0.3,0,0.3,0.3,0.4,0.3c0.3,0.2,0.6,0.3,1,0.4c0.3,0.1,0.6,0.2,0.7,0.5
		c0,0.3,0.1,0.7-0.1,1c-0.2,0.1-0.3-0.1-0.5-0.1c-0.3-0.2-0.6-0.3-1-0.4C4.3,19,4.1,18.9,4,18.7z"/>
	<path class="st34" d="M10.6,36.7c-0.3,0.2-0.8-0.1-0.9,0.3c-0.5,0.1-1,0.1-1.6,0.1c-1.8,0-3.6,0.1-5.4,0c-0.2,0-0.3,0.1-0.5,0.1
		C2,37,2,36.8,2.2,36.7c1.2-0.1,2.3,0.1,3.5-0.1c0.5,0,1,0,1.5,0c0.9,0.1,1.9,0,2.8,0C10.2,36.7,10.4,36.6,10.6,36.7z"/>
	<path class="st35" d="M18.5,34.6c-0.1-0.7-0.3-1.4-0.7-2c0.1-0.4-0.4-0.8,0.1-1.2c0.1,0,0.1,0.1,0.2,0.2c0.3,1.1,0.9,2,1.3,3.1
		c0.1,0.3-0.1,0.4-0.4,0.4C18.9,35,18.7,34.8,18.5,34.6z"/>
	<path class="st36" d="M39.9,17.3c0.7,0.1,1.1,0.3,1.2,0.9c0.2,0.7,0.1,1.3-0.6,1.7c-0.2,0.1-0.3,0.1-0.5,0.1
		c-0.3-0.3-0.1-0.5,0-0.8c0.1-0.4,0.1-0.8,0-1.2C40.1,17.7,39.8,17.5,39.9,17.3z"/>
	<path class="st37" d="M45,19.9c-0.5,0.1-0.9,0-1.1-0.4c-0.4-0.7,0.1-1.7,1-2.1c0.2,0,0.3,0,0.3,0.1c0,0.3-0.2,0.4-0.2,0.7
		c-0.1,0.4-0.4,0.8,0,1.2c0,0.1,0,0.1,0.1,0.1C45,19.6,45.1,19.7,45,19.9z"/>
	<path class="st38" d="M8.5,19.5c-0.1,0.2,0.2,0.3,0.1,0.5c0,0-0.1,0-0.1,0c-0.4-0.2-1.1,0.2-1.2-0.3c-0.1-0.3,0.1-0.7,0.1-1
		c-0.1-0.1-0.1-0.3-0.1-0.4C7.6,18.1,8,18,8.2,17.8c0.1-0.1,0.3-0.1,0.3,0.1C8.5,18.4,8.6,18.9,8.5,19.5z"/>
	<path class="st39" d="M40.6,37c0.1-0.1,0.1-0.2,0.1-0.3c0.4-0.2,0.9-0.1,1.3-0.1c1.3,0,2.7-0.1,4,0c0.4,0,0.8,0,1.2,0
		C47.1,37,46.8,37,46.5,37c-1.8,0.1-3.6,0-5.5,0C40.9,37,40.7,37.1,40.6,37z"/>
	<path class="st40" d="M20.4,18.9c-0.2,0.3-0.1,0.7-0.6,0.9c-0.5,0.1-1,0.1-1.5,0c-0.3,0-0.4-0.1-0.7-0.2c0.4-0.2,0.7-0.4,1.1-0.4
		c0.3,0,0.7-0.1,0.6-0.4C19.6,18.3,20.1,18.4,20.4,18.9z"/>
	<path class="st41" d="M26.6,19.3c-0.2-0.3-0.6-0.4-0.5-0.7c0.3-0.4,0.8-0.7,1.4-0.9c0.3-0.1,0.4,0,0.4,0.3c0,0.3-0.4,0.6-0.4,0.9
		C27.4,19.3,27.1,19.5,26.6,19.3z"/>
	<path class="st42" d="M1.5,17.3c0.1,0,0.2,0.1,0.3,0.1l0,0c0.1,0.1,0.1,0.1,0.1,0.1c0.1,0.4,0.2,0.7-0.1,1.1c0,0.2,0,0.4-0.1,0.6
		c-0.4,0.2-0.7,0.2-0.9-0.1c0-0.6-0.1-1.2,0.1-1.8C1.1,17.4,1.3,17.3,1.5,17.3z"/>
	<path class="st43" d="M36.6,19.1c-0.1,0.4,0.2,0.3,0.6,0.3c0.6-0.2,0.8-0.1,0.8,0.3c0,0.3-0.2,0.3-0.4,0.3c-0.6,0-1.1,0-1.7,0
		c-0.1,0-0.3,0.1-0.3-0.1c-0.1-0.1-0.1-0.3,0.1-0.4c0.2-0.2,0.4-0.3,0.6-0.5C36.3,19,36.5,19,36.6,19.1z"/>
	<path class="st44" d="M40.6,37c0.1,0,0.3,0,0.4,0c0.1,0,0.1,0,0,0.1c0,0,0,0-0.1,0c-3.4,0-6.8,0-10.3,0c-2.3,0-4.6,0-6.8,0
		c-0.1,0-0.1,0-0.1-0.1c0,0,0,0,0,0c3.9,0,7.9,0,11.8,0C37.3,37,38.9,37,40.6,37z"/>
	<path class="st45" d="M35.7,12.5c0.1,0,0.1,0,0.1,0c0.2,0.5,0.2,1,0,1.5c-0.1,0.1-0.1,0.1-0.3,0.1c-0.9,0-1.2-0.2-0.7-0.9
		C35,13,35.1,12.5,35.7,12.5z"/>
	<path class="st46" d="M39.4,17.4c0.2,0.2,0,0.4,0,0.6c-0.1,0.4,0,0.7-0.1,1.1c-0.3,0.2-0.6,0.1-1,0.1c-0.3-0.6-0.1-1.1,0.2-1.5
		C38.7,17.4,39,17.3,39.4,17.4z"/>
	<path class="st47" d="M42.9,31.2c0.1,0.8,0.7,1.3,1.6,1.6c0.2,0.1,0.4,0.1,0.5,0.2c0.1,0.2,0.4,0.3,0.4,0.5c0,0.1-0.1,0.1-0.2,0.1
		c-0.4-0.2-0.8-0.3-1.2-0.5C42.7,32.6,42.4,32.2,42.9,31.2z"/>
	<path class="st48" d="M42.3,17.3c0.3,0.1,0.6-0.1,0.8,0.1c0,0.6,0,1.2,0,1.8c-0.5-0.1-0.8-0.3-1-0.7c0-0.3,0.1-0.5-0.1-0.8
		C42,17.6,41.6,17.3,42.3,17.3z"/>
	<path class="st40" d="M11.4,14c-0.4,0.1-0.5-0.2-0.5-0.4c-0.1-0.4,0-0.8,0-1.1c0-0.1,0.1-0.3,0.2-0.3c0.2-0.1,0.2,0.1,0.3,0.2
		c0.2,0.3,0.4,0.6,0.6,0.9C12.2,13.7,12,14,11.4,14z"/>
	<path class="st49" d="M26.6,19.3c0.4,0,0.6-0.2,0.9-0.4c0.4,0.1,0.7,0.4,1.1,0.4c0.3,0.1,0.4,0.2,0.3,0.5c-0.7,0.1-1.4,0.1-2.1,0
		C26.7,19.7,26.6,19.5,26.6,19.3z"/>
	<path class="st50" d="M14.7,33.5c0.6,0.4,0.7,1,1.1,1.4c0.3,0.3,0.5,0.4,0.9,0.4c-1,0.2-1.5,0.1-1.9-0.6c-0.1-0.1-0.2-0.3-0.3-0.4
		C14.4,34,14,33.7,14.7,33.5z"/>
	<path class="st51" d="M36.6,19.1c-0.1,0-0.3,0.1-0.4,0c0.4-0.4,0.8-0.9,0.8-1.5c0-0.1-0.2-0.1-0.1-0.2c0.4-0.1,0.7,0,0.9,0.3
		c0.2,0.3,0.2,0.6-0.2,0.8C37.3,18.7,36.9,18.8,36.6,19.1z"/>
	<path class="st52" d="M7.5,18.4c0-0.3,0-0.5,0-0.7c0-0.1,0.1-0.3,0.3-0.3c0.4,0,0.9-0.1,1.3-0.1c0.4,0,0.5,0.2,0.6,0.4
		c0,0.2,0,0.3-0.3,0.3c-0.3,0-0.2-0.1-0.3-0.3c-0.1-0.3-0.2-0.3-0.5-0.1c0,0.1,0,0.1-0.1,0.1C8.2,18,7.9,18.3,7.5,18.4z"/>
	<path class="st53" d="M18,31.4c-0.2,0.4-0.1,0.8-0.1,1.2c-0.2-0.3-0.1-0.5-0.3-0.8c-0.1-0.3-0.3-0.1-0.4,0c-0.1-0.6,0-1.2-0.7-1.6
		c0.2,0,0.4,0.1,0.4-0.2c0-0.1,0.1-0.1,0.2,0C17.6,30.4,17.7,30.9,18,31.4z"/>
	<path class="st54" d="M20.4,18.9c-0.3-0.2-0.6-0.4-1.1-0.2c-0.3-0.2-0.4-0.5-0.6-0.8c-0.1-0.1-0.1-0.2,0.2-0.3
		c0.7-0.1,1.1,0.4,1.6,0.6C20.7,18.4,20.6,18.7,20.4,18.9z"/>
	<path class="st55" d="M27.5,5.9c0.4-0.5,0.8-1,1.3-1.5C28.9,4.3,29,4.1,29.2,4c0.1-0.1,0.3-0.2,0.4-0.1c0.2,0.1,0,0.2,0,0.3
		c-0.3,0.6-0.9,1-1.5,1.5C27.9,5.9,27.8,5.9,27.5,5.9z"/>
	<path class="st56" d="M46.4,18.6c0.3,0.4,0.3,0.8-0.1,1.1c-0.2,0.3-0.5,0.3-0.8,0.3c-0.1,0-0.1-0.1-0.1-0.1c-0.1-0.1,0-0.3,0-0.4
		c0-0.1,0-0.3,0.1-0.4C45.6,18.7,45.8,18.4,46.4,18.6z"/>
	<path class="st57" d="M0.9,33.9c0,0.3,0.3,0.5,0.5,0.7c0.7,0.6,1.6,0.8,2.6,0.7c-0.9,0.1-1.8,0.2-2.7-0.1c-0.4-0.5-1-0.8-1.1-1.5
		c0-0.1-0.1-0.3-0.1-0.4c0-0.1,0.1-0.2,0.2-0.1s0.1,0.1,0.1,0.2C0.7,33.6,0.8,33.8,0.9,33.9z"/>
	<path class="st58" d="M17.5,3.9c0.2,0,0.3,0.1,0.3,0.1c0.5,0.6,0.9,1.1,1.4,1.7c0.1,0.1,0.1,0.1,0,0.2c-0.1,0.1-0.2,0-0.3,0
		c-0.7-0.6-1.2-1.2-1.6-1.9C17.3,3.9,17.4,3.9,17.5,3.9z"/>
	<path class="st59" d="M17.3,25.6c0-0.1,0-0.2,0-0.3c0.5,0.1,0.7,0.5,1,0.9c0.4,0.5,0.8,1,1.2,1.5c0.1,0.1,0.2,0.3,0.5,0.4
		c0.1,0.1,0.2,0.2,0.3,0.3c-0.2,0.1-0.4,0.1-0.7,0c-0.6-0.8-1.3-1.6-2-2.3C17.5,25.8,17.4,25.7,17.3,25.6z"/>
	<path class="st60" d="M45.9,21.2c-3.4,0-6.8,0-10.1,0c-0.2,0-0.3,0-0.4-0.1c3.4,0,6.9,0,10.3,0C45.7,21.2,45.8,21.2,45.9,21.2z"/>
	<path class="st61" d="M42.2,18.6c0.3,0.2,0.6,0.4,0.9,0.6c0,0.3,0.2,0.7-0.6,0.7c-0.5,0-0.8-0.1-0.5-0.5c0-0.1,0-0.1,0-0.2
		C42.2,19.1,42,18.8,42.2,18.6z"/>
	<path class="st62" d="M27.2,4.1c0.1,0.7-0.4,1.3-1.1,1.8c0.2-0.6,0.4-1.3,0.8-1.8C27.1,3.9,27.2,4,27.2,4.1z"/>
	<path class="st63" d="M0.7,33.4c-0.1,0-0.1-0.1-0.1-0.1c-0.2,0-0.1,0.1-0.1,0.2c0.2,0.6,0.4,1.1,1,1.5c0.1,0.1,0.4,0.1,0.1,0.3
		c-1.2-0.6-1.7-1.7-1.3-2.5c0.5-0.1,0.4,0.2,0.5,0.4C0.7,33.2,0.7,33.3,0.7,33.4z"/>
	<path class="st64" d="M46.4,18.6c-0.4,0.1-0.6,0.3-0.9,0.5c-0.2-0.1-0.3-0.2-0.3-0.3c-0.1-0.3,0-0.6,0.2-0.8
		c0.2-0.2,0.1-0.7,0.7-0.5c0.5,0.2,0.3,0.5,0.1,0.7C45.9,18.4,46.3,18.4,46.4,18.6z"/>
	<path class="st65" d="M30.8,8.3C31.3,7.7,32.3,7.5,33,7c0.1-0.1,0.3,0,0.4,0.1c0.1,0.1,0.1,0.2,0,0.2C32.6,7.7,31.7,8.1,30.8,8.3z"
		/>
	<path class="st66" d="M12.8,7c0.4-0.1,0.6-0.1,0.8,0c0.6,0.3,1.3,0.6,1.9,0.9c0.1,0.1,0.3,0.1,0.1,0.2c-0.1,0.1-0.2,0.1-0.3,0
		C14.6,7.8,13.7,7.5,12.8,7z"/>
	<path class="st67" d="M20.4,5.8c-0.3-0.4-0.5-0.8-0.7-1.2c-0.1-0.2-0.1-0.4,0.2-0.4c0.3-0.1,0.3,0.1,0.4,0.3
		c0.1,0.4,0.3,0.8,0.5,1.1c0.2,0.1,0.1,0.3,0,0.4C20.6,6,20.5,5.8,20.4,5.8z"/>
	<path class="st68" d="M2.7,37c2.3,0,4.7,0,7,0c0.8,0,1.5,0,2.2,0c0,0,0.1,0,0,0.1c0,0,0,0-0.1,0c-2.9,0-5.9,0-8.8,0
		C3,37.1,2.8,37.1,2.7,37z"/>
	<path class="st69" d="M29.5,7.7c0.4-0.6,1.1-0.9,1.7-1.3c0.1-0.1,0.2-0.1,0.3,0c0.1,0.1,0,0.2-0.1,0.3C30.9,7.2,30.4,7.5,29.5,7.7z
		"/>
	<path class="st70" d="M24.2,19.1c0,0.4-0.4,0.5-0.7,0.5c-0.3,0-0.5-0.1-0.5-0.4c0-0.2,0.1-0.5,0.5-0.5
		C23.9,18.8,24.3,18.8,24.2,19.1z"/>
	<path class="st71" d="M24.2,21.2c-0.1,0-0.3,0-0.4,0c-2.3,0-4.5,0-6.8,0c-0.3,0-0.5,0.1-0.8-0.1C18.9,21.2,21.6,21.2,24.2,21.2
		C24.2,21.2,24.2,21.2,24.2,21.2z"/>
	<path class="st72" d="M38.7,36.6c-0.2,0.1-0.4,0.1-0.6,0.1c-2.5,0-4.9,0-7.3,0c-0.1,0-0.1,0-0.1-0.1c0,0,0,0,0,0
		C33.5,36.6,36.1,36.6,38.7,36.6z"/>
	<path class="st73" d="M15,10.2c-0.9,0.1-1.9,0-2.9-0.3C13.2,9.6,14.1,10.3,15,10.2z"/>
	<path class="st29" d="M38.3,19.2c0.3-0.2,0.6-0.1,0.9-0.1c0.1,0.1,0.1,0.1,0.1,0.2c-0.1,0.3,0.1,0.5,0.2,0.7
		c-0.3,0.3-0.5,0-0.7-0.1C38.6,19.7,38.4,19.4,38.3,19.2z"/>
	<path class="st74" d="M35.7,11.1c0.1,0.1-0.1,0.2-0.1,0.3c0,0-0.1,0-0.1,0c-0.7,0.1-1.3,0-2,0.1c-0.3,0-0.5,0.1-0.9-0.1
		c0.5-0.4,1-0.2,1.5-0.2C34.6,11.2,35.2,11.1,35.7,11.1z"/>
	<path class="st75" d="M0.8,19.2c0.3,0.1,0.6,0.1,0.9,0.1C2,19.8,1.7,20,1,20C0.6,19.8,0.8,19.5,0.8,19.2
		C0.8,19.2,0.8,19.2,0.8,19.2z"/>
	<path class="st76" d="M36.5,17.7c0,0.1-0.1,0.1-0.1,0.2c-0.1,0.3-0.3,0.5-0.6,0.4c-0.2,0-0.3-0.2-0.4-0.4c-0.1-0.3,0.2-0.4,0.5-0.5
		C36.2,17.4,36.6,17.2,36.5,17.7z"/>
	<path class="st77" d="M32,10.2c0.8-0.1,1.5-0.4,2.3-0.4c0.1,0,0.2,0,0.3,0.1c0.1,0.1-0.1,0.2-0.1,0.2C33.7,10.1,32.9,10.5,32,10.2z
		"/>
	<path class="st78" d="M2.2,36.7c0,0.1,0,0.3,0,0.4c-0.4,0-0.8,0-1.3,0c-0.2,0-0.4,0.1-0.4-0.1c-0.1-0.1,0.1-0.3,0.2-0.3
		c0.4-0.1,0.8,0,1.3,0C2,36.7,2.1,36.7,2.2,36.7z"/>
	<path class="st79" d="M15,6.2c0.5,0,0.8,0.3,1.1,0.5c0.2,0.1,0.3,0.3,0.5,0.4c0.1,0.1,0,0.2-0.1,0.2c-0.6-0.2-1.1-0.6-1.6-0.9
		C14.8,6.2,14.9,6.2,15,6.2z"/>
	<path class="st80" d="M23.3,3.5c0.1-0.2-0.3-0.6,0.3-0.6c0.4,0,0.2,0.4,0.2,0.6c-0.1,0.5-0.1,1.1-0.2,1.6c-0.4-0.1-0.1-0.4-0.2-0.6
		C23.3,4.2,23.4,3.8,23.3,3.5z"/>
	<path class="st81" d="M4.6,19.6c0.1,0.1,0.2,0.1,0.3,0.2c0,0.3-0.3,0.1-0.4,0.2c-0.5,0-0.9,0-0.9-0.5c-0.1-0.1-0.1-0.2,0-0.3
		c0.1,0,0.2,0,0.2,0c0.1,0,0.2,0.1,0.3,0.1C4.4,19.4,4.6,19.4,4.6,19.6z"/>
	<path class="st82" d="M14.4,11.4c-0.5,0-0.9,0.1-1.4,0.1c-0.5-0.1-1,0-1.5-0.1c-0.2-0.4,0.3-0.1,0.4-0.3c0.5-0.1,1.1,0,1.6,0
		c0.3,0,0.5,0,0.8,0C14.4,11.2,14.6,11.3,14.4,11.4z"/>
	<path class="st83" d="M13.5,35.1c0-0.4,0-0.8,0-1.2c0-0.3,0.2-0.6,0.7-0.5c0.3,0.2,0.2,0.5,0.3,0.8c-0.1,0-0.2,0-0.3-0.1
		c-0.5-0.3-0.5-0.1-0.5,0.3C13.6,34.6,13.8,34.9,13.5,35.1z"/>
	<path class="st84" d="M15.4,21.2c-0.1,0.1-0.3,0.1-0.4,0.1c-2,0-4,0-5.9,0c0,0,0-0.1,0-0.1C11.1,21.2,13.2,21.2,15.4,21.2z"/>
	<path class="st85" d="M10.6,36.7c-0.9,0-1.8,0-2.7,0c-0.2,0-0.5,0.1-0.7-0.1c2.1,0,4.1,0,6.2,0c0,0,0.1,0,0,0.1c0,0,0,0-0.1,0
		C12.5,36.7,11.5,36.7,10.6,36.7z"/>
	<path class="st72" d="M46,36.7c-1.8,0-3.5,0-5.3,0.1c-0.3-0.1-0.6,0-0.8-0.1c1.1,0,2.1,0,3.2,0c0.1,0,0.3,0,0.4,0
		C44.3,36.7,45.2,36.5,46,36.7z"/>
	<path class="st86" d="M16.6,5.6c-0.6-0.3-0.8-0.8-1.3-1.1c-0.1-0.1-0.1-0.2,0.1-0.2c0.5,0.4,0.9,0.8,1.4,1.1
		C16.9,5.6,16.8,5.7,16.6,5.6z"/>
	<path class="st87" d="M24.5,29.9c0,1.3,0,2.5,0,3.8c0,0.3,0.1,0.5-0.1,0.7c0-1.4,0-2.8,0-4.2C24.3,30.1,24.2,30,24.5,29.9z"/>
	<path class="st88" d="M12.3,6.8c-0.3,0.1-0.4-0.1-0.6-0.1c-0.3-0.1-0.8-0.3-0.5-0.6c0.2-0.2,0.5,0.1,0.7,0.2
		c0.1,0.1,0.3,0.1,0.4,0.2c0.1,0.1,0.3,0.1,0.2,0.2C12.5,6.9,12.3,6.8,12.3,6.8z"/>
	<path class="st89" d="M33.8,27.2c0.1,0.3,0.4,0.6,0.3,0.9c0,0.2,0.1,0.2,0.3,0.2c-0.3,0.3-0.5,0.3-0.7,0c-0.1-0.1-0.1-0.2-0.1-0.3
		C33.6,27.7,33.3,27.4,33.8,27.2z"/>
	<path class="st90" d="M9.8,27.2c0,0.1,0,0.2-0.1,0.2c0-1.3,0-2.7,0-4.1c0-0.1,0-0.2,0.1-0.3C9.8,24.4,9.8,25.8,9.8,27.2z"/>
	<path class="st91" d="M41,37.1C41,37.1,41,37,41,37.1c1.8-0.1,3.7-0.1,5.6-0.1c-0.1,0.1-0.3,0.1-0.4,0.1
		C44.4,37.1,42.7,37.1,41,37.1z"/>
	<path class="st92" d="M7.7,17.4c-0.1,0.1-0.2,0.2-0.3,0.3c-0.3-0.3-0.4,0-0.5,0.1C6.8,18,6.7,18,6.4,18c-0.2-0.1-0.2-0.3-0.1-0.5
		C6.6,17.2,7.2,17.4,7.7,17.4z"/>
	<path class="st93" d="M31.1,4.8c-0.2,0.4-0.5,0.6-0.9,0.9c-0.1,0.1-0.3,0.1-0.4,0.1c-0.1-0.1,0-0.2,0.1-0.3
		c0.3-0.3,0.6-0.7,1.2-0.8C31.1,4.7,31.1,4.8,31.1,4.8C31.1,4.8,31.1,4.8,31.1,4.8z"/>
	<path class="st94" d="M35.4,6.4c-0.3,0.2-0.6,0.5-1.1,0.5C34.2,6.9,34,7,34,6.8c0-0.1,0.1-0.1,0.2-0.2c0.4-0.1,0.8-0.4,1.2-0.4
		C35.5,6.3,35.5,6.3,35.4,6.4z"/>
	<path class="st95" d="M30.6,2.9c-0.2,0.2-0.4,0.4-0.6,0.7c-0.1,0.1-0.1,0.1-0.3,0.1c-0.1-0.1-0.1-0.2-0.1-0.3
		c0.1-0.3,0.4-0.6,0.6-0.8C30.6,2.5,30.6,2.6,30.6,2.9z"/>
	<path class="st96" d="M30.3,35.3c0.1,0,0.3-0.1,0.4-0.1c1.5,0,2.9,0,4.4,0c0.1,0,0.3,0,0.4,0.1C33.7,35.3,32,35.3,30.3,35.3z"/>
	<path class="st97" d="M9.8,19.9c-0.2,0-0.4,0.1-0.4-0.2c0-0.3,0.1-0.4,0.5-0.4c0.3,0,0.4,0.1,0.4,0.3C10.4,19.9,10.1,19.9,9.8,19.9
		z"/>
	<path class="st98" d="M21.7,36.7c-1.7,0-3.3,0-5,0c-0.1,0-0.1,0-0.1-0.1s0,0,0,0C18.4,36.6,20,36.6,21.7,36.7
		C21.7,36.7,21.8,36.7,21.7,36.7C21.7,36.7,21.7,36.7,21.7,36.7z"/>
	<path class="st99" d="M40.6,21.5c1.6,0,3.1,0,4.7,0c0.1,0,0.3,0,0.3,0.1c-1.5,0-3,0-4.6,0C40.9,21.6,40.7,21.6,40.6,21.5z"/>
	<path class="st100" d="M15.3,1.6c0-0.1,0-0.1,0-0.2c0.2-0.1,0.4-0.2,0.6,0.1c0.1,0.3,0.4,0.6,0.4,1C15.9,2.2,15.6,1.8,15.3,1.6z"/>
	<path class="st101" d="M25.3,4.2c-0.5-0.4-0.3-0.7,0-1.1c0.1-0.1,0.3-0.1,0.4,0c0.1,0.3,0,0.5-0.1,0.7C25.4,3.9,25.6,4.1,25.3,4.2z
		"/>
	<path class="st102" d="M6.4,35.3c-0.4-0.1-0.1-0.2,0-0.3c0.1,0.3,0.4,0.2,0.6,0.2c1.3,0,2.5,0,3.8,0c-0.3,0.2-0.7,0.1-1.1,0.1
		C8.6,35.3,7.5,35.3,6.4,35.3z"/>
	<path class="st103" d="M30.6,2.2c0.1-0.3,0.3-0.4,0.5-0.7c0.1-0.1,0.3-0.3,0.5-0.2c0.2,0.1,0.1,0.3-0.1,0.4C31.3,2,31,2.2,30.7,2.4
		C30.6,2.3,30.6,2.3,30.6,2.2z"/>
	<path class="st104" d="M29.2,29.9c-1.5,0-3.1,0-4.6,0c0.2-0.1,0.4-0.1,0.5-0.1c1.2,0,2.4,0,3.6,0C28.9,29.8,29.1,29.8,29.2,29.9z"
		/>
	<path class="st105" d="M9.2,5.4c0.5-0.1,0.9,0,1.2,0.3c0.1,0.1,0.2,0.1,0.1,0.2C10.4,6,10.2,6,10.2,6C9.9,5.8,9.4,5.8,9.2,5.4z"/>
	<path class="st106" d="M34.5,8.5c-0.3,0.2-0.7,0.4-1.1,0.4c-0.1,0-0.3,0-0.3-0.1c-0.1-0.1,0.1-0.2,0.2-0.2c0.3-0.1,0.5-0.3,0.8-0.2
		C34.2,8.4,34.4,8.3,34.5,8.5z"/>
	<path class="st107" d="M12.2,8.4c-0.7,0.2-1.2-0.3-1.8-0.4c0.7,0,1.3,0.1,1.9,0.4C12.3,8.4,12.3,8.4,12.2,8.4z"/>
	<path class="st108" d="M16.3,2.5c0.5,0.2,0.8,0.5,1,0.9C16.7,3.4,16.5,3.2,16.3,2.5z"/>
	<path class="st109" d="M3.2,17.5c0,0.1,0,0.2,0,0.3C3.2,17.9,3.2,18,3,18c-0.2,0-0.2-0.1-0.2-0.2c-0.1-0.1-0.1-0.2-0.2-0.3
		c-0.1-0.1-0.5-0.1-0.1-0.3C2.8,17.2,3.1,17.3,3.2,17.5z"/>
	<path class="st110" d="M35.3,29.9c-1.4,0-2.8,0-4.2,0c0.8-0.2,1.5-0.1,2.3-0.1C34,29.8,34.7,29.7,35.3,29.9z"/>
	<path class="st111" d="M21.2,2.9c-0.1-0.4,0-0.7-0.2-1c-0.1-0.1,0-0.3,0.2-0.3c0.2,0,0.2,0.2,0.2,0.3C21.3,2.2,21.8,2.6,21.2,2.9z"
		/>
	<path class="st112" d="M8.5,11.4c-0.6,0.3-1,0.2-1.5-0.2c0.3-0.2,0.5,0.1,0.7,0c0.2-0.1,0.4,0,0.6,0C8.5,11.2,8.6,11.3,8.5,11.4z"
		/>
	<path class="st113" d="M3.2,19.8c-0.3,0.2-0.6,0.1-0.9,0.1c0.1-0.3,0.4-0.4,0.6-0.6C3.5,19.4,3.2,19.6,3.2,19.8z"/>
	<path class="st114" d="M29.2,21.5c1.4,0,2.7,0,4.1,0C32,21.6,30.6,21.6,29.2,21.5z"/>
	<path class="st115" d="M33.8,21.2c-1.4,0-2.7,0-4.1,0c0,0,0-0.1,0-0.1C31.1,21.2,32.5,21.2,33.8,21.2
		C33.9,21.2,33.9,21.2,33.8,21.2C33.9,21.2,33.9,21.2,33.8,21.2z"/>
	<path class="st116" d="M4.2,21.2c-1.3,0-2.7,0-4,0c0.6-0.2,1.3-0.1,2-0.1C2.9,21.1,3.6,21.2,4.2,21.2C4.3,21.2,4.2,21.2,4.2,21.2z"
		/>
	<path class="st117" d="M19,35.1c0.1-0.1,0.4-0.2,0.4-0.4c0.2,0.6,0.9,0.5,1.5,0.5c-0.6,0.2-1.2,0-1.7,0.1
		C19.2,35.3,19.1,35.2,19,35.1z"/>
	<path class="st118" d="M12.1,9.8c-0.4,0.3-0.8,0.3-1.1,0c-0.1-0.1-0.2-0.2,0-0.3C11.4,9.4,11.6,9.7,12.1,9.8z"/>
	<path class="st119" d="M14.8,37c1.2,0,2.5,0,3.7,0c0.1,0,0.2,0,0.3,0.1C17.5,37.1,16.1,37.2,14.8,37z"/>
	<path class="st120" d="M40.5,34.2c0.1,0,0.1,0.1,0.1,0.1c0.1,0.3,0,0.7-0.1,1c-0.2-0.2-0.4-0.4-0.6-0.6
		C39.7,34.3,40.2,34.3,40.5,34.2z"/>
	<path class="st121" d="M31.1,4.8c0,0,0-0.1,0-0.1c0.2-0.4,0.6-0.6,0.8-0.9c0-0.1,0.1-0.1,0.2-0.1c0.1,0.1,0.1,0.1,0.1,0.2
		C31.9,4.3,31.7,4.7,31.1,4.8z"/>
	<path class="st122" d="M30.8,36.6C30.8,36.7,30.8,36.7,30.8,36.6c-1.3,0.1-2.5,0.1-3.8,0.1c-0.1,0-0.1,0-0.1-0.1c0,0,0,0,0.1,0
		C28.2,36.6,29.5,36.6,30.8,36.6z"/>
	<path class="st123" d="M40.5,34.2c0,0.1-0.1,0.2-0.2,0.2c-0.3,0-0.3,0.1-0.3,0.3c-0.2-0.3-0.5-0.6-1.1-0.6c0.5-0.1,1-0.1,1.5,0
		C40.4,34.1,40.4,34.2,40.5,34.2z"/>
	<path class="st124" d="M21.3,3.1c0.7,0.2,0.5,0.6,0.4,0.9C21.3,3.8,21.3,3.5,21.3,3.1z"/>
	<path class="st125" d="M23.8,21.4c0.2,0,0.4,0,0.6,0c0.1,0,0.1,0,0.1,0.1c0,0,0,0,0,0c-1.1,0-2.3,0-3.5,0c-0.1,0-0.3,0-0.4-0.1
		C21.7,21.5,22.8,21.5,23.8,21.4z"/>
	<path class="st126" d="M9.1,11.1c0.4,0,0.8,0.1,1.1,0.1c0.1,0,0.3,0,0.3,0.2c0,0.1-0.2,0.1-0.3,0.1C9.7,11.6,9.4,11.4,9.1,11.1
		C8.9,11.2,8.9,11.1,9.1,11.1z"/>
	<path class="st127" d="M1.1,21.5c1.2,0,2.5,0,3.7,0c-0.3,0.2-0.6,0.1-0.9,0.1C2.9,21.5,2,21.7,1.1,21.5z"/>
	<path class="st128" d="M34.9,9.9c0.2-0.1,0.5-0.2,0.7-0.3c0.1-0.1,0.4-0.1,0.4,0.1c0.1,0.2-0.1,0.2-0.3,0.3
		C35.5,10.1,35.2,10,34.9,9.9z"/>
	<path class="st129" d="M6,17.9c-0.2,0-0.3,0.1-0.4-0.1c-0.1-0.1-0.3-0.3-0.5-0.3c-0.1-0.1-0.1-0.1,0-0.2c0.1,0,0.2,0,0.3-0.1
		c0.3,0,0.6,0.1,0.7,0.3C6.2,17.7,6.3,17.9,6,17.9z"/>
	<path class="st130" d="M23.8,37C23.8,37,23.8,37.1,23.8,37c-1.2,0.1-2.5,0.2-3.7,0c1,0,2,0,3,0C23.4,37,23.6,37,23.8,37z"/>
	<path class="st131" d="M23.3,0.4C23.4,0.3,23.1,0,23.5,0c0.2,0,0.3,0.1,0.3,0.3c-0.1,0.2,0.1,0.6-0.3,0.6
		C23.2,0.8,23.4,0.6,23.3,0.4z"/>
	<path class="st98" d="M10.5,28.4c0.3-0.2,0.7-0.1,1.1-0.1c0.9,0,1.8,0,2.7,0c-0.1,0-0.2,0.1-0.3,0.1C12.7,28.4,11.6,28.4,10.5,28.4
		z"/>
	<path class="st132" d="M20.4,22.9c0,0.9,0,1.8,0,2.7c-0.1,0.1-0.1,0-0.1,0c0-0.8,0-1.6-0.1-2.4C20.2,23.1,20.2,22.9,20.4,22.9z"/>
	<path class="st133" d="M27,36.6C27,36.7,27,36.7,27,36.6c-1,0.1-2,0.1-3,0.1c-0.2,0-0.4,0-0.6-0.1C24.6,36.6,25.8,36.6,27,36.6z"/>
	<path class="st134" d="M5.7,36.6c-0.4,0.2-0.8,0.1-1.1,0.1c-0.8,0-1.6,0-2.4,0v0c-0.1,0-0.1,0-0.1-0.1c0,0,0,0,0.1,0
		C3.4,36.6,4.5,36.6,5.7,36.6z"/>
	<path class="st135" d="M14.2,5.9c-0.3-0.1-0.5-0.3-0.7-0.4c0.6-0.2,0.9,0.1,1.1,0.3C14.6,6,14.3,6,14.2,5.9z"/>
	<path class="st136" d="M23.3,1.8c0-0.2-0.1-0.4,0.2-0.4c0.2,0,0.3,0.1,0.3,0.3c-0.1,0.2,0.1,0.5-0.3,0.5
		C23.1,2.2,23.4,1.9,23.3,1.8z"/>
	<path class="st137" d="M12.2,8.4c0.1,0,0.1-0.1,0.1-0.1c0.5,0,0.9,0.2,1.3,0.3c0,0.2-0.1,0.3-0.3,0.2C12.9,8.8,12.6,8.5,12.2,8.4z"
		/>
	<path class="st138" d="M11,29.9c-1.1,0-2.2,0-3.3,0C8.8,29.7,9.9,29.8,11,29.9z"/>
	<path class="st139" d="M15.3,29.9c-1.1,0-2.2,0-3.3,0c0.2-0.2,0.4-0.1,0.6-0.1C13.5,29.8,14.4,29.7,15.3,29.9z"/>
	<path class="st140" d="M16.7,36.6C16.7,36.7,16.7,36.7,16.7,36.6c-1.1,0.1-2.2,0.1-3.3,0.1c0,0,0-0.1,0-0.1
		C14.5,36.6,15.6,36.6,16.7,36.6z"/>
	<path class="st141" d="M38.4,23c0.2,0.8,0.2,1.7,0,2.5C38.4,24.6,38.4,23.8,38.4,23z"/>
	<path class="st142" d="M16.4,21.5c1.1,0,2.1,0,3.2,0C18.5,21.6,17.5,21.6,16.4,21.5z"/>
	<path class="st143" d="M11.6,21.5c1.1,0,2.1,0,3.2,0C13.8,21.6,12.7,21.6,11.6,21.5z"/>
	<path class="st144" d="M11.8,32.3c0-0.5,0-0.9-0.1-1.4c0.1-0.3-0.1-0.7,0.2-1C12,30.7,11.9,31.5,11.8,32.3
		C11.9,32.4,11.8,32.3,11.8,32.3z"/>
	<path class="st145" d="M2.1,18.7c0.1-0.1-0.1-0.4,0.3-0.4c0.6,0.1,0.2,0.4,0.3,0.6C2.4,18.9,2.2,19,2.1,18.7z"/>
	<path class="st146" d="M4.2,21.2C4.2,21.2,4.2,21.2,4.2,21.2c1-0.1,2-0.1,3-0.1c0,0,0,0.1,0,0.1C6.3,21.2,5.3,21.2,4.2,21.2z"/>
	<path class="st147" d="M27.8,2.3C27.9,2.2,28,1.9,28.2,2c0.3,0.1,0,0.4-0.1,0.5c-0.1,0.1,0,0.2-0.2,0.2c-0.1,0-0.2-0.1-0.2-0.2
		C27.7,2.5,27.7,2.4,27.8,2.3z"/>
	<path class="st148" d="M15.4,4.3c-0.1,0-0.1,0.1-0.1,0.2c-0.3-0.3-0.6-0.5-0.9-0.8C14.9,3.6,15,4.1,15.4,4.3z"/>
	<path class="st149" d="M22.9,25.1c0-0.7,0-1.5,0-2.2c0,0,0.1,0,0.1,0C23,23.6,23,24.4,22.9,25.1C23,25.1,22.9,25.1,22.9,25.1z"/>
	<path class="st150" d="M25.8,35.3c1-0.2,2-0.1,2.9-0.1C27.7,35.4,26.8,35.3,25.8,35.3z"/>
	<path class="st151" d="M46.1,17.4c-0.3,0-0.5,0.1-0.4,0.3c0,0.1,0.1,0.2-0.1,0.3c-0.2-0.2-0.2-0.4-0.5-0.6c-0.1,0-0.2-0.1-0.3-0.1
		C45.3,17.2,45.7,17.4,46.1,17.4z"/>
	<path class="st152" d="M27.8,2.3c0,0.1-0.1,0.3,0.1,0.4c0.2,0.1,0.2-0.1,0.3-0.1c0,0.3-0.1,0.5-0.3,0.7c-0.2-0.1-0.4-0.1-0.5-0.2
		C27.9,2.9,27.4,2.5,27.8,2.3z"/>
	<path class="st153" d="M42.7,35.1c0.6,0,1.2-0.1,1.7,0.2c-0.3,0.1-0.6,0.1-0.9,0C43.2,35.3,42.9,35.4,42.7,35.1z"/>
	<path class="st154" d="M30.5,30.9c0.9-0.1,1.7-0.2,2.6,0c-0.1,0-0.1,0.1-0.2,0.1C32.2,30.8,31.3,30.9,30.5,30.9z"/>
	<path class="st155" d="M27.4,3.1c0.2,0,0.5-0.1,0.5,0.2c-0.1,0.1-0.3,0.2-0.4,0.3c-0.4,0.1-0.3-0.1-0.3-0.3
		C27.3,3.2,27.3,3.2,27.4,3.1z"/>
	<path class="st156" d="M19,2.7c-0.1,0-0.1-0.1-0.1-0.1c-0.4-0.2-0.3-0.4-0.2-0.6c0,0,0.1-0.1,0.2,0c0.3,0.1,0.3,0.4,0.2,0.6
		C19.1,2.7,19,2.7,19,2.7z"/>
	<path class="st157" d="M24.2,21.2C24.2,21.2,24.2,21.2,24.2,21.2c0.9-0.1,1.8-0.1,2.8-0.1c0,0,0.1,0,0,0.1c0,0,0,0-0.1,0
		C26.1,21.2,25.1,21.2,24.2,21.2z"/>
	<path class="st158" d="M27,21.2C27,21.2,27,21.2,27,21.2c0.9-0.1,1.8-0.1,2.8-0.1c0,0,0,0.1,0,0.1C28.9,21.2,27.9,21.2,27,21.2z"/>
	<path class="st159" d="M36,6c0.1-0.2,0.4-0.3,0.6-0.4C36.7,5.6,37,5.5,37,5.7c0.1,0.1,0,0.2-0.2,0.3c-0.2,0-0.4,0.1-0.6,0.1
		C36.1,6.1,36.1,6.1,36,6z"/>
	<path class="st160" d="M8.4,26.7c0-0.7,0-1.3,0-2C8.6,25.3,8.4,26,8.4,26.7C8.4,26.7,8.4,26.7,8.4,26.7z"/>
	<path class="st161" d="M34.5,8.5c-0.1-0.1-0.3-0.1-0.4-0.1c0.4-0.1,0.8-0.2,1.1-0.3c0.1,0,0.3-0.1,0.3,0.1c0.1,0.1-0.1,0.1-0.3,0.2
		C35,8.4,34.8,8.4,34.5,8.5z"/>
	<path class="st162" d="M40.3,34.1c-0.5,0-1,0-1.5,0c-0.4,0-0.7,0-1.1,0C38.6,33.9,39.5,33.9,40.3,34.1z"/>
	<path class="st163" d="M0.8,17.4c0,0.6,0,1.2,0,1.8h0c0,0-0.1,0-0.1,0c0-0.6,0-1.2,0-1.8l0,0C0.8,17.4,0.8,17.4,0.8,17.4z"/>
	<path class="st164" d="M28.7,34.2c-0.8,0.1-1.7,0.2-2.5,0C27,34.2,27.9,34.2,28.7,34.2z"/>
	<path class="st165" d="M40.5,35.3c-0.1-0.3,0.2-0.7,0.1-1c0.3,0.3-0.1,0.8,0.5,1C40.9,35.3,40.7,35.3,40.5,35.3z"/>
	<path class="st166" d="M6.6,25.4c0.2,0.6,0.2,1.2,0,1.8C6.6,26.6,6.6,26,6.6,25.4z"/>
	<path class="st167" d="M8.5,17.7c0,0,0-0.1,0.1-0.1c0.2,0.6,0.2,1.2,0,1.8C8.5,18.9,8.5,18.3,8.5,17.7z"/>
	<path class="st168" d="M23.3,3.5c0.2,0.3,0.1,0.7,0.1,1c0,0.2-0.1,0.4,0.1,0.6c-0.2,0-0.2,0-0.2-0.1C23.3,4.5,23.3,4,23.3,3.5z"/>
	<path class="st169" d="M11.9,37.1C11.9,37.1,11.9,37,11.9,37.1c0.8-0.1,1.6-0.1,2.4-0.1C13.5,37.2,12.7,37.1,11.9,37.1z"/>
	<path class="st170" d="M17.2,27.4c-0.2-0.6-0.1-1.1-0.1-1.7c0.1,0,0.1-0.1,0.2-0.1C17.2,26.2,17.2,26.8,17.2,27.4z"/>
	<path class="st171" d="M13.2,5.4c-0.2-0.2-0.6-0.2-0.4-0.5c0,0,0.2-0.1,0.3-0.1C13.5,4.9,13.2,5.2,13.2,5.4z"/>
	<path class="st172" d="M5.1,17.4c0,0.1,0,0.1,0,0.2c-0.4,0-0.8,0-0.7,0.4c-0.2-0.1-0.1-0.3-0.3-0.4c0.1-0.3,0.4-0.2,0.7-0.2
		C4.9,17.4,5,17.4,5.1,17.4z"/>
	<path class="st173" d="M25.7,2.1c0-0.2-0.1-0.4,0.2-0.7c0.1,0.4,0.2,0.8,0,1.2C25.5,2.5,25.8,2.3,25.7,2.1z"/>
	<path class="st174" d="M32.7,6c-0.2,0.2-0.4,0.3-0.6,0.2c-0.1,0-0.1-0.1-0.1-0.1c0.1-0.2,0.3-0.2,0.5-0.3c0.1-0.1,0.2-0.1,0.3,0
		C32.7,5.9,32.7,5.9,32.7,6z"/>
	<path class="st175" d="M14.4,11.4c-0.2-0.4-0.6-0.1-0.9-0.2c0,0-0.1,0,0-0.1c0,0,0,0,0.1,0c0.5,0,1,0,1.5,0
		C14.9,11.3,14.6,11.3,14.4,11.4z"/>
	<path class="st176" d="M19.2,3.4c0-0.1,0-0.3,0.2-0.3c0.3,0,0.2,0.2,0.2,0.3c0,0.1-0.1,0.3-0.3,0.3C19.1,3.6,19.2,3.5,19.2,3.4z"/>
	<path class="st177" d="M0.7,33.1c-0.1-0.2-0.2-0.4-0.5-0.4c-0.1-0.2,0.2-0.4,0.1-0.6C0.4,32.4,0.7,32.7,0.7,33.1z"/>
	<path class="st178" d="M42.7,28.4c0.7-0.1,1.4-0.1,2.1,0C44.1,28.4,43.4,28.4,42.7,28.4z"/>
	<path class="st179" d="M24.2,28.4c0.7-0.2,1.4,0,2.2-0.1C25.6,28.5,24.9,28.4,24.2,28.4z"/>
	<path class="st180" d="M26.9,19.8c0.7,0,1.4,0,2.1,0C28.2,20,27.6,20,26.9,19.8z"/>
	<path class="st181" d="M45.3,33.6c0.1-0.1,0.1-0.1,0.2-0.1c0.4,0,0.6,0.2,0.5,0.5c-0.1,0.1-0.1,0.3-0.3,0.3
		C45.9,34,45.5,33.8,45.3,33.6z"/>
	<path class="st182" d="M32.7,6c0-0.1-0.1-0.2-0.3-0.2c0.3-0.2,0.5-0.3,0.8-0.5c0.1,0,0.3,0,0.3,0.1C33.1,5.5,32.9,5.8,32.7,6z"/>
	<path class="st183" d="M33,34.2c0.1,0,0.3,0,0.4,0c0.3,0.1,0.7-0.1,1.1,0.1c-0.7,0-1.4,0-2.1,0C32.6,34.1,32.9,34.2,33,34.2z"/>
	<path class="st184" d="M27.2,3.3c0,0.1-0.1,0.3,0.3,0.3c-0.1,0.2-0.3,0.3-0.3,0.5C27.1,4,27,4,26.8,4C27.2,3.8,27,3.5,27.2,3.3z"/>
	<path class="st185" d="M33.5,11.5c0.6-0.2,1.3,0,2-0.1C34.8,11.6,34.1,11.5,33.5,11.5z"/>
	<path class="st186" d="M20.3,25.6C20.3,25.6,20.3,25.6,20.3,25.6c0.1,0.3,0.2,0.6,0.2,0.9c-0.3-0.1-0.4-0.3-0.4-0.5
		C20.3,25.9,20.2,25.7,20.3,25.6z"/>
	<path class="st187" d="M33.5,5.4c-0.1,0-0.3,0-0.3-0.1c0.1,0,0.1-0.1,0.1-0.1c0.2-0.1,0.3-0.3,0.5-0.1C34,5.3,33.7,5.4,33.5,5.4z"
		/>
	<path class="st96" d="M35.5,35.3c0-0.1,0-0.2,0.1-0.3c0.1,0,0.2,0,0.4,0c0,0.4,0.4,0.3,0.7,0.3C36.3,35.5,35.9,35.4,35.5,35.3z"/>
	<path class="st188" d="M24.5,21.5C24.5,21.5,24.5,21.5,24.5,21.5c0.7-0.1,1.3-0.1,2-0.1C25.8,21.7,25.1,21.5,24.5,21.5z"/>
	<path class="st189" d="M26.1,33c0.6,0,1.2,0,1.8,0c-0.3,0.2-0.7,0.1-1.1,0.1c-0.3,0-0.5,0-0.8,0.1C26,33.1,26,33.1,26.1,33z"/>
	<path class="st190" d="M29.4,25c-0.1,0.4,0.2,0.8-0.2,1.1c0-0.5,0-1,0-1.5C29.4,24.7,29.3,24.8,29.4,25z"/>
	<path class="st191" d="M14.4,34.2c-0.1-0.3-0.1-0.6-0.3-0.8c0.2,0,0.4-0.1,0.5,0.1c-0.5,0.2-0.1,0.5-0.1,0.8
		C14.5,34.3,14.5,34.3,14.4,34.2z"/>
	<path class="st192" d="M45.5,19.6c-0.1,0.1-0.1,0.2-0.1,0.3c-0.1,0.1-0.2,0.1-0.3,0c-0.1-0.1-0.2-0.3-0.1-0.4
		C45.1,19.4,45.3,19.4,45.5,19.6z"/>
	<path class="st193" d="M9.7,9.4c0.3,0,0.4,0.1,0.4,0.2c0,0.1-0.1,0.1-0.2,0.1c-0.2,0-0.4,0-0.4-0.2C9.5,9.4,9.7,9.4,9.7,9.4z"/>
	<path class="st194" d="M8.4,26.7c0,0,0.1,0,0.1,0c-0.1,0.5,0.2,0.9-0.1,1.4C8.4,27.6,8.4,27.1,8.4,26.7z"/>
	<path class="st195" d="M42.2,18.6c-0.1,0.2,0.1,0.4-0.1,0.6c0-0.5,0-0.9,0-1.4C42.3,18.1,42.1,18.4,42.2,18.6z"/>
	<path class="st196" d="M19.6,28.3c0.2,0,0.4,0,0.7,0c0.4,0,0.8,0,1.2,0.1c0,0,0,0.1,0,0.1C20.8,28.3,20.2,28.5,19.6,28.3z"/>
	<path class="st197" d="M16.6,5.6c0.2,0,0.3-0.1,0.3-0.2c0.3,0.3,0.1,0.5,0.1,0.9C16.6,6.1,16.8,5.8,16.6,5.6z"/>
	<path class="st198" d="M44.7,27.6c-0.6,0.1-1.2,0.1-1.8,0C43.4,27.6,44.1,27.6,44.7,27.6z"/>
	<path class="st199" d="M33.8,27.1c-0.4,0-0.9,0-1.3,0c-0.2,0-0.4,0-0.5,0C32.6,27,33.2,26.9,33.8,27.1z"/>
	<path class="st200" d="M7.3,21.2C7.3,21.2,7.3,21.2,7.3,21.2c0.6-0.1,1.1-0.1,1.7-0.1c0,0,0,0.1,0,0.1C8.4,21.2,7.9,21.2,7.3,21.2z
		"/>
	<path class="st201" d="M3.2,19.8c0-0.2,0.3-0.5-0.3-0.5c0.2-0.2,0.5,0.1,0.7-0.1c0,0.1,0,0.2,0,0.3C3.3,19.5,3.4,19.8,3.2,19.8z"/>
	<path class="st202" d="M3.8,23.9c0.3-0.3,0.7-0.1,1-0.1c0.2,0,0.5,0,0.7,0C4.9,24,4.3,23.8,3.8,23.9z"/>
	<path class="st203" d="M25.3,4.2c0.1-0.1,0.2-0.3,0.3-0.4c0,0.3,0.1,0.5-0.1,0.8C25.1,4.5,25.3,4.3,25.3,4.2z"/>
	<path class="st204" d="M36,6c0.1,0,0.2,0,0.3,0c-0.1,0.3-0.6,0.2-0.8,0.4c0-0.1,0-0.1,0-0.2C35.6,6,35.8,6,36,6z"/>
	<path class="st205" d="M9.1,11.1C9.1,11.1,9.1,11.2,9.1,11.1c-0.3,0.1-0.4,0.3-0.6,0.3c-0.1-0.4-0.5-0.1-0.8-0.2
		C8.1,11,8.6,11.1,9.1,11.1z"/>
	<path class="st206" d="M4.5,20c0.1-0.1,0.3-0.1,0.4-0.2c0.3,0.1,0.5,0,0.6-0.1c0.1,0.1,0.2,0.1,0.2,0.2C5.3,20.2,4.9,20,4.5,20z"/>
	<path class="st207" d="M13.5,16c-0.6,0-1.2,0-1.7,0C12.3,15.9,12.9,15.8,13.5,16z"/>
	<path class="st208" d="M5.7,19.9c-0.2,0-0.1-0.1-0.2-0.2c0.1-0.1,0.1-0.2,0.1-0.3c0.1,0.1,0.3,0.1,0.4,0.2
		C6,19.8,5.9,19.9,5.7,19.9z"/>
	<path class="st209" d="M14.2,5.9c0.2,0,0.3,0.1,0.4-0.1C14.7,5.9,14.9,6,15,6.2c-0.1,0.1-0.1,0.1-0.2,0.1C14.7,6.1,14.4,6,14.2,5.9
		z"/>
	<path class="st210" d="M43.5,35.3c0.3,0,0.6,0,0.9,0c0.2,0,0.4,0,0.7,0C44.6,35.5,44,35.5,43.5,35.3z"/>
	<path class="st211" d="M36.5,17.7c0-0.3-0.4-0.2-0.6-0.3c0.3-0.1,0.6-0.1,0.9-0.1c0,0.1,0.1,0.1,0.1,0.2
		C36.8,17.5,36.7,17.6,36.5,17.7z"/>
	<path class="st212" d="M13.5,11.1C13.5,11.1,13.5,11.2,13.5,11.1c-0.6,0.1-1.1,0.1-1.6,0.1C12.4,11,13,11.2,13.5,11.1z"/>
	<path class="st213" d="M28.9,28.1c0,0.3,0.3,0.2,0.4,0.2c0.3,0,0.5,0,0.8,0c-0.3,0.2-0.7,0.1-1.1,0.1
		C28.8,28.4,28.8,28.2,28.9,28.1z"/>
	<path class="st214" d="M26.1,33c0,0.1,0,0.1,0,0.2c0,0.3,0,0.6,0,1C25.8,33.8,25.8,33.4,26.1,33z"/>
	<path class="st215" d="M15.1,16c0.1-0.1,0.1-0.1,0.1-0.2c0.2,0,0.3,0,0.4,0.1c-0.5,0.2-0.1,0.6-0.3,0.8
		C15.1,16.5,15.4,16.2,15.1,16z"/>
	<path class="st216" d="M6,17.9c0.2-0.1,0-0.2,0-0.3c0.1,0,0.2-0.1,0.3-0.1c0.3,0.1,0.1,0.3,0.1,0.5C6.2,18,6.1,18.1,6,17.9z"/>
	<path class="st217" d="M40.1,29.9c-0.5,0-1.1,0-1.6,0C39,29.7,39.5,29.8,40.1,29.9z"/>
	<path class="st218" d="M16.4,7.2c0.1-0.1,0.1-0.1,0.1-0.2c0.3,0,0.3,0.2,0.4,0.3C16.7,7.5,16.5,7.4,16.4,7.2z"/>
	<path class="st219" d="M17,10.4c0.2,0.4,0.1,0.8,0.1,1.1C16.8,11.2,17,10.8,17,10.4z"/>
	<path class="st220" d="M2.2,36.6C2.2,36.7,2.2,36.7,2.2,36.6c-0.5,0.1-1,0.1-1.5,0.1C1.2,36.5,1.7,36.7,2.2,36.6z"/>
	<path class="st221" d="M7.6,21.5c0.5,0,1,0,1.5,0C8.5,21.6,8,21.6,7.6,21.5z"/>
	<path class="st222" d="M18.2,19.8c0.5,0,1,0,1.5,0C19.2,19.9,18.7,19.9,18.2,19.8z"/>
	<path class="st223" d="M2.4,17.2c-0.2,0.1,0.1,0.2,0.1,0.3c-0.3,0-0.5,0-0.8,0c0,0,0-0.1,0-0.1C2,17.4,2.2,17.2,2.4,17.2z"/>
	<path class="st224" d="M11.5,11.4c0.5,0,1-0.1,1.5,0.1C12.5,11.5,12,11.6,11.5,11.4z"/>
	<path class="st225" d="M20.4,5.8c0.5,0.2,0.4-0.1,0.3-0.3C21,5.7,21,5.9,20.8,6C20.6,6.1,20.5,5.9,20.4,5.8z"/>
	<path class="st226" d="M0.2,23.9c0.5-0.2,1-0.1,1.5,0C1.1,23.9,0.6,23.9,0.2,23.9z"/>
	<path class="st60" d="M33.8,21.2C33.8,21.2,33.9,21.2,33.8,21.2c0.5-0.1,0.9-0.1,1.3-0.1C34.8,21.3,34.3,21.2,33.8,21.2z"/>
	<path class="st133" d="M21.7,36.7C21.7,36.7,21.7,36.7,21.7,36.7c0.4-0.1,0.9-0.1,1.3-0.1c0,0,0,0.1,0,0.1
		C22.6,36.7,22.1,36.7,21.7,36.7z"/>
	<path class="st227" d="M13.9,15.3c0,0.3,0.1,0.5,0,0.7c-0.1,0.3-0.2,0.1-0.3,0C13.9,15.9,13.6,15.5,13.9,15.3z"/>
	<path class="st228" d="M32.9,15.1c0-0.1-0.1-0.1-0.1-0.2c0.2-0.1,0.1-0.4,0.3-0.5c0,0.2,0,0.4,0.1,0.6C33.1,15.1,33,15.1,32.9,15.1
		z"/>
	<path class="st229" d="M0.7,19.2C0.8,19.2,0.8,19.2,0.7,19.2c0.2,0.3-0.1,0.6,0.3,0.9c-0.3,0.1-0.3-0.2-0.3-0.3
		C0.7,19.6,0.7,19.4,0.7,19.2z"/>
	<path class="st230" d="M25.6,3.1c-0.1,0-0.3,0-0.4,0c0.2-0.2-0.1-0.5,0.2-0.7c0.2,0.1,0.1,0.2,0.2,0.3C25.5,2.9,25.6,3,25.6,3.1z"
		/>
	<path class="st231" d="M27.5,32c-0.4,0.1-0.9,0.2-1.3,0C26.6,32,27.1,32,27.5,32z"/>
	<path class="st232" d="M13.4,8.8c0.1-0.1,0.3-0.1,0.3-0.2c0.3,0,0.4,0.2,0.3,0.3C13.7,9.1,13.5,8.9,13.4,8.8z"/>
	<path class="st233" d="M30.6,2.2c0,0.1,0,0.2,0.1,0.3c0,0.2,0.1,0.3-0.1,0.5c0-0.1,0.1-0.3-0.2-0.3C30.4,2.5,30.5,2.3,30.6,2.2z"/>
	<path class="st234" d="M25.7,2.7c-0.3-0.1-0.1-0.2-0.2-0.3c0.1-0.1,0.1-0.2,0.2-0.3c0.2,0.1,0.1,0.3,0.1,0.5
		C25.8,2.6,25.7,2.7,25.7,2.7z"/>
	<path class="st235" d="M46,24.3c-0.4,0-0.9,0.1-1.3-0.1C45.1,24.3,45.6,24.2,46,24.3z"/>
	<path class="st236" d="M37,11.5c-0.2-0.1-0.5,0.1-0.5-0.2c0.1-0.3,0.4-0.1,0.5-0.1c0.2,0,0.6-0.1,0.6,0.1
		C37.7,11.6,37.2,11.5,37,11.5z"/>
	<path class="st237" d="M38.7,11.3c0.3-0.1,0.7-0.6,0.8,0.1C39.2,11.4,38.9,11.6,38.7,11.3z"/>
	<path class="st238" d="M38.7,11.3c0.2,0.2,0.5,0.1,0.8,0.1c-0.4,0.2-0.8,0.1-1.3,0.1C38.4,11.4,38.6,11.3,38.7,11.3z"/>
	<path class="st239" d="M22.2,10.2c-0.7,0.1-1.3,0.2-2,0C20.9,10.2,21.6,10.2,22.2,10.2z"/>
	<path class="st240" d="M26.6,10.2c-0.6,0.2-1.3,0-1.8,0.1c-0.1,0-0.3,0-0.4,0c0,0,0,0,0-0.1c0,0,0,0,0,0
		C25.1,10.2,25.8,10.2,26.6,10.2z"/>
	<path class="st241" d="M13.6,31.1c0-0.1,0-0.2,0.1-0.3c0.5-0.1,1.1,0.2,1.4,0.6c0.2,0.3,0.5,0.6-0.1,0.9c-0.4,0.3-0.8,0.2-1.2,0.2
		C13.4,32,13.6,31.5,13.6,31.1z"/>
	<path class="st242" d="M15,32.3c0.3-0.3,0.1-0.5-0.1-0.7c-0.3-0.4-0.6-0.7-1.3-0.8c0.4-0.2,0.8-0.3,1.2,0.1
		c0.4,0.2,0.6,0.5,0.8,0.8C15.6,32,15.4,32.2,15,32.3z"/>
	<path class="st243" d="M15.6,31.7c-0.4-0.2-0.6-0.5-0.8-0.8C15.6,30.8,15.5,31.3,15.6,31.7z"/>
	<path class="st244" d="M11.8,32.3c0,0,0.1,0,0.1,0c0,0.8,0.1,1.7-0.1,2.5C11.8,34,11.8,33.1,11.8,32.3z"/>
	<path class="st245" d="M13.6,31.1c0.1,0.5-0.2,0.9,0.2,1.4c-0.2,0-0.3-0.1-0.3-0.2C13.5,31.9,13.4,31.5,13.6,31.1z"/>
	<path class="st246" d="M20,28c-0.3,0.2-0.4,0-0.6-0.2c-0.7-0.8-1.2-1.8-2.1-2.5c-0.2-0.1-0.2-0.3-0.1-0.5c0.7,0.4,1,1,1.5,1.5
		C19.1,26.8,19.6,27.4,20,28z"/>
	<path class="st247" d="M21.9,25.5c0.2,0.6,0.1,1.2,0,1.8C21.9,26.7,21.9,26.1,21.9,25.5z"/>
	<path class="st248" d="M21.9,23.3c0,0.5,0.2,1.1-0.1,1.6C21.9,24.3,21.7,23.8,21.9,23.3z"/>
	<path class="st249" d="M32.1,26.2c-0.5,0.1-0.6-0.1-0.5-0.4c0.2-0.5,0.7-0.9,0.8-1.5c0-0.1,0.2-0.1,0.3-0.1c0.1,0,0.1,0.1,0.1,0.2
		c0.1,0.4,0.3,0.9,0.4,1.3c0.1,0.2,0,0.3-0.3,0.4C32.6,26.1,32.4,26.2,32.1,26.2z"/>
	<path class="st250" d="M39.2,31.1c0.3,0.6,0.5,1.1,0.7,1.7c0.1,0.2-0.2,0.3-0.3,0.3c-0.4,0-0.8,0-1.2,0c-0.3,0-0.2-0.2-0.1-0.3
		c0.3-0.6,0.8-1,0.8-1.7C39.1,31.1,39.2,31.1,39.2,31.1z"/>
	<path class="st251" d="M46,34c-0.1-0.2-0.2-0.4-0.5-0.5c-0.1-0.2-0.5-0.2-0.4-0.5c0.4,0.1,0.6,0.3,0.9,0.5
		C46.3,33.6,46.4,33.8,46,34z"/>
	<path class="st252" d="M8.6,32c0.6,0,1.2,0,1.8,0c0.4,0.7,0.1,1-0.8,1c-0.3,0-0.6,0-0.9,0C9,32.6,8.7,32.3,8.6,32z"/>
	<path class="st253" d="M6.4,34.4c0.3-0.6,0.1-1.2,0.1-1.8c0-0.2,0-0.4,0-0.6c0.2,0.8,0.1,1.5,0.1,2.3C6.6,34.3,6.5,34.4,6.4,34.4z"
		/>
	<path class="st254" d="M8.2,34.2c0.7,0,1.3-0.1,2,0.1C9.6,34.3,8.9,34.4,8.2,34.2z"/>
	<path class="st255" d="M20.3,33.6c0.2,0,0.3,0,0.5-0.1c0.1,0.1,0,0.3,0,0.4c-0.1,0.1,0,0.2-0.2,0.2c-0.2,0-0.1-0.1-0.2-0.2
		C20.4,33.8,20.3,33.7,20.3,33.6z"/>
	<path class="st256" d="M20.4,33.9c0.1,0.2,0.3,0.2,0.4,0c0,0.2,0,0.3-0.3,0.5C20.3,34.3,20.4,34.1,20.4,33.9z"/>
	<path class="st257" d="M13.9,25.1c-0.5,0-1.1,0-1.6,0c-0.2,0-0.4,0.1-0.6-0.1c0.6,0,1.2,0,1.8,0C13.6,25,13.8,24.9,13.9,25.1z"/>
	<path class="st258" d="M12.2,23.9c0.7-0.2,1.4,0,2.1-0.1C13.6,24,12.9,23.8,12.2,23.9z"/>
	<path class="st259" d="M15.6,26.5c0,0.5,0.1,1-0.1,1.5C15.5,27.5,15.4,27,15.6,26.5z"/>
	<path class="st260" d="M27.3,26.5c0-0.2,0-0.4,0-0.5c-0.1-0.1-0.1-0.3,0-0.4c0.3-0.4,0.1-0.7-0.3-0.9c-0.4-0.5-0.9-0.9-1.7-0.9
		c0.1,0,0.1,0,0.1,0c0.2,0,0.4,0,0.6,0c1.1,0,1.3,0.1,1.7,0.9c0,0.5,0.3,1.1,0,1.6C27.5,26.4,27.5,26.5,27.3,26.5z"/>
	<path class="st261" d="M24.6,24.9c0,0.8,0,1.6,0.1,2.4c-0.1,0-0.1,0-0.2,0C24.5,26.5,24.3,25.7,24.6,24.9z"/>
	<path class="st262" d="M27.7,26.3c0-0.5,0-1.1,0-1.6C27.8,25.2,28.2,25.7,27.7,26.3z"/>
	<path class="st263" d="M22.9,28.1c0-0.4,0-0.9,0-1.3c0-0.1,0.1-0.1,0.1,0c0,0.3,0,0.5,0.1,0.7C23,27.7,23.1,27.9,22.9,28.1z"/>
	<path class="st264" d="M43.4,26.8c0.2-0.1,0.4-0.1,0.6-0.1c0.4,0,0.8,0,1.2,0C44.5,26.9,43.9,26.8,43.4,26.8z"/>
	<path class="st265" d="M23,26.8c0,0-0.1,0-0.1,0c0-0.6,0-1.1,0-1.7c0,0,0.1,0,0.1,0C23,25.6,23,26.2,23,26.8z"/>
	<path class="st266" d="M41.5,24.6c0.1-0.2-0.1-0.4,0.1-0.6c-0.1,0.5,0.2,1-0.1,1.5C41.5,25.2,41.5,24.9,41.5,24.6z"/>
	<path class="st267" d="M40.2,19.2c0-0.4,0-0.8,0-1.2C40.4,18.4,40.4,18.7,40.2,19.2z"/>
	<path class="st268" d="M45.1,17.4c0.6-0.1,0.5,0.3,0.5,0.6c-0.4,0.2-0.2,0.5-0.3,0.7c-0.2,0.1-0.4,0.2-0.6,0.1
		c-0.1-0.2,0-0.4,0.1-0.7C44.8,17.9,44.9,17.7,45.1,17.4z"/>
	<path d="M44.8,18.9c0.1-0.1,0.3-0.1,0.5-0.1c0.1,0.1,0.2,0.2,0.2,0.3c0,0.2,0,0.3-0.1,0.5c-0.2,0-0.4,0-0.6-0.1c0,0,0-0.1-0.1-0.1
		C44.8,19.2,44.6,19,44.8,18.9z"/>
	<path class="st48" d="M44.8,18.9c0,0.2,0,0.3-0.1,0.5c-0.5-0.4-0.2-0.8,0-1.2C44.8,18.4,44.8,18.6,44.8,18.9z"/>
	<path class="st269" d="M39.4,19.3c-0.1-0.1-0.1-0.1-0.1-0.2c0.1-0.4-0.1-0.8,0.1-1.1C39.4,18.4,39.4,18.8,39.4,19.3z"/>
	<path class="st270" d="M27,24.7c0.5,0.2,0.7,0.5,0.4,0.9c-0.1,0.1-0.1,0.3-0.1,0.4c-0.1-0.1-0.2-0.2-0.1-0.3
		C27.3,25.3,27.1,25,27,24.7z"/>
</g>
</svg>
