<?xml version="1.0" encoding="utf-8"?>
<!-- Generator: Adobe Illustrator 27.1.0, SVG Export Plug-In . SVG Version: 6.00 Build 0)  -->
<svg version="1.1" id="Capa_1" xmlns="http://www.w3.org/2000/svg" xmlns:xlink="http://www.w3.org/1999/xlink" x="0px" y="0px"
	 viewBox="0 0 300 200" style="enable-background:new 0 0 300 200;" xml:space="preserve">
<style type="text/css">
	.st0{fill:#F7F0DF;}
	.st1{fill:#F7F1E1;}
	.st2{fill:#F5F3ED;}
	.st3{fill:#F6F4EC;}
	.st4{fill:#F4F4EB;}
	.st5{fill:#F8F6F1;}
	.st6{fill:#FEFDF5;}
	.st7{fill:#F8F6F0;}
	.st8{fill:#FAF7F1;}
	.st9{fill:#FBF9F5;}
	.st10{fill:#F7F6ED;}
	.st11{fill:#FBFAF0;}
	.st12{fill:#F3F1EA;}
	.st13{fill:#F4F3EF;}
	.st14{fill:#FDFBFA;}
	.st15{fill:#F4F3EB;}
	.st16{fill:#F7F6E9;}
	.st17{fill:#F4F3EA;}
	.st18{fill:#D7D4D2;}
	.st19{fill:#F9F6F7;}
	.st20{fill:#A59DA2;}
	.st21{fill:#E3DEE0;}
	.st22{fill:#E7E2E5;}
	.st23{fill:#FCFAF9;}
	.st24{fill:#B4B3B7;}
	.st25{fill:#FBFBF9;}
	.st26{fill:#F7F7F4;}
	.st27{fill:#FAFBF6;}
	.st28{fill:#F6FAF6;}
	.st29{fill:#F9F9F6;}
	.st30{fill:#FCFDF7;}
	.st31{fill:#F7F8F6;}
	.st32{fill:#F5F5F2;}
	.st33{fill:#F9F8F3;}
	.st34{fill:#ACA7A8;}
	.st35{fill:#717158;}
	.st36{fill:#FEFDFD;}
	.st37{fill:#FBFAF9;}
	.st38{fill:#EDEAEA;}
	.st39{fill:#BBBABC;}
	.st40{fill:#FDFDFC;}
	.st41{fill:#FCFCFB;}
	.st42{fill:#FEFEFE;}
	.st43{fill:#F3F0F2;}
	.st44{fill:#625D61;}
	.st45{fill:#F6F6F3;}
	.st46{fill:#F6F5F2;}
	.st47{fill:#847462;}
	.st48{fill:#FAF9F9;}
	.st49{fill:#F6F3F3;}
	.st50{fill:#847961;}
	.st51{fill:#FAF9F8;}
	.st52{fill:#EBE9EA;}
	.st53{fill:#423B2F;}
	.st54{fill:#FBFCF9;}
	.st55{fill:#CBCBCB;}
	.st56{fill:#F5F3F1;}
	.st57{fill:#5E554B;}
	.st58{fill:#C8CACA;}
	.st59{fill:#97958C;}
	.st60{fill:#B1ACAC;}
	.st61{fill:#FDFCFB;}
	.st62{fill:#B7B6B6;}
	.st63{fill:#888277;}
	.st64{fill:#F3F2F1;}
	.st65{fill:#DBDADB;}
	.st66{fill:#CECFD2;}
	.st67{fill:#BBB9B9;}
	.st68{fill:#4B494A;}
	.st69{fill:#C8CBCE;}
	.st70{fill:#FBFBF7;}
	.st71{fill:#9B9597;}
	.st72{fill:#6B6665;}
	.st73{fill:#D0D0D1;}
	.st74{fill:#CCCCCC;}
	.st75{fill:#F9F6FC;}
	.st76{fill:#EEEFED;}
	.st77{fill:#C7C4C5;}
	.st78{fill:#C8C4C8;}
	.st79{fill:#D5D6D7;}
	.st80{fill:#EDECEA;}
	.st81{fill:#D5D3D0;}
	.st82{fill:#DAD8D8;}
	.st83{fill:#1F1911;}
	.st84{fill:#ABA6A8;}
	.st85{fill:#696665;}
	.st86{fill:#D3D2D1;}
	.st87{fill:#6D6B6A;}
	.st88{fill:#BDBDBD;}
	.st89{fill:#5F5D56;}
	.st90{fill:#54504B;}
	.st91{fill:#424245;}
	.st92{fill:#D2D0D5;}
	.st93{fill:#CCCFCE;}
	.st94{fill:#D3D3D4;}
	.st95{fill:#DCDDDD;}
	.st96{fill:#615F5B;}
	.st97{fill:#FCFBFB;}
	.st98{fill:#6C696A;}
	.st99{fill:#1C1B1C;}
	.st100{fill:#DADCDE;}
	.st101{fill:#C3C4C5;}
	.st102{fill:#9E9E97;}
	.st103{fill:#C9C7C8;}
	.st104{fill:#53504C;}
	.st105{fill:#DFDFE1;}
	.st106{fill:#D7D5D5;}
	.st107{fill:#B0B1B2;}
	.st108{fill:#E1E2E4;}
	.st109{fill:#D0D1D2;}
	.st110{fill:#504C45;}
	.st111{fill:#8E8D87;}
	.st112{fill:#D8D9DA;}
	.st113{fill:#E3DFE1;}
	.st114{fill:#414048;}
	.st115{fill:#837E81;}
	.st116{fill:#86807D;}
	.st117{fill:#9B9C8F;}
	.st118{fill:#AFAEAE;}
	.st119{fill:#595B5E;}
	.st120{fill:#544F42;}
	.st121{fill:#C9C7C6;}
	.st122{fill:#8A7F81;}
	.st123{fill:#2B2312;}
	.st124{fill:#BBBBBA;}
	.st125{fill:#292A31;}
	.st126{fill:#D7D7D6;}
	.st127{fill:#2D2C2D;}
	.st128{fill:#BFBFC0;}
	.st129{fill:#E3E3E3;}
	.st130{fill:#313136;}
	.st131{fill:#E7E5E4;}
	.st132{fill:#736A62;}
	.st133{fill:#8A8990;}
	.st134{fill:#837D7E;}
	.st135{fill:#BBBAB9;}
	.st136{fill:#E9E7E6;}
	.st137{fill:#EFEEED;}
	.st138{fill:#55524C;}
	.st139{fill:#87847E;}
	.st140{fill:#8D8B8C;}
	.st141{fill:#D9D8CE;}
	.st142{fill:#2C2B33;}
	.st143{fill:#393940;}
	.st144{fill:#5D5954;}
	.st145{fill:#E0DCE3;}
	.st146{fill:#AAA4A3;}
	.st147{fill:#A1A09F;}
	.st148{fill:#978F8D;}
	.st149{fill:#88867B;}
	.st150{fill:#95938C;}
	.st151{fill:#8A8988;}
	.st152{fill:#424141;}
	.st153{fill:#A6A095;}
	.st154{fill:#7F7D75;}
	.st155{fill:#B5B6B5;}
	.st156{fill:#AEADAC;}
	.st157{fill:#878283;}
	.st158{fill:#AEA9AE;}
	.st159{fill:#EAEBEC;}
	.st160{fill:#272A28;}
	.st161{fill:#ABA7A6;}
	.st162{fill:#908C80;}
	.st163{fill:#504E52;}
	.st164{fill:#918C82;}
	.st165{fill:#B4B3AC;}
	.st166{fill:#CECEC8;}
	.st167{fill:#646465;}
	.st168{fill:#A3A39F;}
	.st169{fill:#2C2C2E;}
	.st170{fill:#A09E9B;}
	.st171{fill:#BFC0C1;}
	.st172{fill:#A2A3A5;}
	.st173{fill:#818182;}
	.st174{fill:#F4F3F2;}
	.st175{fill:#808082;}
	.st176{fill:#D4D3D3;}
	.st177{fill:#C8C8BD;}
	.st178{fill:#9B9897;}
	.st179{fill:#979897;}
	.st180{fill:#AEADB0;}
	.st181{fill:#989A8B;}
	.st182{fill:#A7A7A8;}
	.st183{fill:#4D443C;}
	.st184{fill:#403F3F;}
	.st185{fill:#8E9094;}
	.st186{fill:#3E3426;}
	.st187{fill:#DCDBDD;}
	.st188{fill:#4B4B51;}
	.st189{fill:#2E2B20;}
	.st190{fill:#D2CDC3;}
	.st191{fill:#4B463A;}
	.st192{fill:#070606;}
	.st193{fill:#D5CEC9;}
	.st194{fill:#5D5B5B;}
	.st195{fill:#A8A6A3;}
	.st196{fill:#434247;}
	.st197{fill:#515752;}
	.st198{fill:#A09997;}
	.st199{fill:#C2C2B8;}
	.st200{fill:#766F72;}
	.st201{fill:#595657;}
	.st202{fill:#9A9892;}
	.st203{fill:#5F5D5D;}
	.st204{fill:#797878;}
	.st205{fill:#3B3836;}
	.st206{fill:#79746A;}
	.st207{fill:#959691;}
	.st208{fill:#EFEFEC;}
	.st209{fill:#535251;}
	.st210{fill:#44443E;}
	.st211{fill:#AAA9A6;}
	.st212{fill:#504E4E;}
	.st213{fill:#3B3A3B;}
	.st214{fill:#8D8D83;}
	.st215{fill:#515246;}
	.st216{fill:#ABABAF;}
	.st217{fill:#918E89;}
	.st218{fill:#A0A29E;}
	.st219{fill:#AAA69A;}
	.st220{fill:#565154;}
	.st221{fill:#42424B;}
	.st222{fill:#B0B1AF;}
	.st223{fill:#424344;}
	.st224{fill:#8F9093;}
	.st225{fill:#504D4D;}
	.st226{fill:#8E8C84;}
	.st227{fill:#8C8D8B;}
	.st228{fill:#4F514E;}
	.st229{fill:#7E7A81;}
	.st230{fill:#3E3F3E;}
	.st231{fill:#B8B5AE;}
	.st232{fill:#B2B3B3;}
	.st233{fill:#919191;}
	.st234{fill:#C0BFBE;}
	.st235{fill:#565050;}
	.st236{fill:#D1D1D2;}
	.st237{fill:#AFB8BD;}
	.st238{fill:#777C7F;}
	.st239{fill:#777466;}
	.st240{fill:#4E4B41;}
	.st241{fill:#060201;}
	.st242{fill:#6D6A63;}
	.st243{fill:#3F3B34;}
	.st244{fill:#3D372F;}
	.st245{fill:#5D5753;}
	.st246{fill:#444034;}
	.st247{fill:#424238;}
	.st248{fill:#D6D2C8;}
	.st249{fill:#232418;}
	.st250{fill:#302A1C;}
	.st251{fill:#504C43;}
	.st252{fill:#F0EBE6;}
	.st253{fill:#AEA89F;}
	.st254{fill:#8F8A80;}
	.st255{fill:#655A4B;}
	.st256{fill:#B9AFA2;}
	.st257{fill:#A59E96;}
	.st258{fill:#949289;}
	.st259{fill:#464343;}
	.st260{fill:#666559;}
	.st261{fill:#DAD4C4;}
	.st262{fill:#C0BBB3;}
	.st263{fill:#6F6F65;}
	.st264{fill:#413D3B;}
	.st265{fill:#414337;}
	.st266{fill:#7A7976;}
	.st267{fill:#7C7A78;}
	.st268{fill:#050404;}
	.st269{fill:#8D8E89;}
	.st270{fill:#44403A;}
</style>
<path class="st0" d="M156.2,60.9c2.1,0.6,4.3,0.8,6.3,1.5c5.7,2.2,9.7,5.4,11.6,10c-3.2,0.9-4.1,0.6-5.6-1.6c-0.6-1-1.4-1.9-2.3-2.7
	c-1.7-1.5-3.7-2.4-6.4-2.1c-1.2,0.1-2.5,0.4-3.7,0.4c-2.2-0.2-3.2,0.5-3.3,2.1c-1.1,1.3-1.5,2.7-2.1,4.1c-0.3,0.7-0.6,1.3-1.3,1.8
	c-0.4,0.3-0.9,0.4-1.4,0.5c-2.1,0.2-4.2,0-6.2,0.1c-0.4,0.1-1.5-0.1-0.4,0.6c1.1,0.7,2.3,1.2,3.5,1.8c2.6,1.5,2.8,2,1.7,4.4
	c-0.7,1.4-1.9,2.8-1.6,4.4c0,0.7-0.2,1.3-1.3,1.5c-1.1,0.2-1.9-0.3-2.2-1c-0.5-0.9-1.3-1.3-2.5-1.3c-0.8,0-1.6-0.2-2.1-0.7
	c-1.6-1.2-2.6-0.7-3.4,0.5c-0.2,0.2-0.4,0.4-0.7,0.5c-1.6-2-2.8-4.1-2.9-6.4c-0.4-1.3,0.1-2.7-0.3-4c0.6-2.8,2.1-5.4,4.4-7.8
	c3.5-3.6,8.3-5.6,14-6.5c2.5-0.4,5.1-0.5,7.6,0C155.6,60.7,155.9,60.7,156.2,60.9z"/>
<path class="st1" d="M152.4,68.5c0-0.5,0-1.1,0-1.6c0-0.7,0.4-1,1.3-0.9c1.8,0.1,3.6-0.1,5.3-0.4c4.5-0.7,7.1,1.3,9.1,3.9
	c0.4,0.5,0.7,1.1,1.1,1.6c0.8,1.1,1.7,2,3.5,1.1c0.5-0.2,0.9,0,1.3,0.2c1.9,4.3,1.2,8.5-1.3,12.5c-1,1.7-2.7,3-4.3,4.4
	c-2.5-0.6-3-1.9-1.3-3.2c0.8-0.6,1.8-1.1,2.6-1.8c1.4-1.2,1.4-2.4-0.2-3.6c-1-0.7-2.2-1.2-3.2-1.8c-0.9-0.6-1.8-0.4-2.5,0.2
	c-0.7,0.7-0.4,1.2,0.3,1.7c0.7,0.5,1.5,0.9,2.1,1.4c1.8,1.3,2,2.1,1,3.4c-1.3,1.5-3.3,2-5.3,1.5c-1-0.3-1.8-0.8-2.4-1.4
	c-1-1.7-2.1-3.5-2.6-5.3c-0.1-0.8,0.1-1.5,0.7-2.1c0.2-0.2,0.5-0.4,0.9-0.4c1.9-0.7,3.6-1.9,5.8-2.8c-0.7,0-1,0.1-1.4,0.1
	c-2.3,0-4.7,0.1-7,0c-1-0.2-1.6-0.7-2-1.3c-0.2-0.2-0.3-0.5-0.4-0.8C153.4,71.4,151.8,70.1,152.4,68.5z"/>
<path class="st2" d="M123.2,144.9c1.6,0.4,3.1,0.7,4.7,1.1c3.1,1.2,2.8,3.4,2.9,5.5c-0.6,1.6-1.6,3-3.2,4.1
	c-1.1,0.8-1.1,1.4-0.1,2.3c1.3,1.1,2.3,2.3,3.3,3.5c0.6,0.7,1.4,1.4,0.3,2.2c-0.9,0.3-1.8,0.6-2.7,0.8c-1.9,0.4-3-0.2-3.9-1.5
	c-1.2-1.5-1.9-3.3-3.5-4.6c-0.6-0.4-1.2-0.3-1.9-0.2c-1.5,0.5-1.9,1.5-1.9,2.6c-0.1,1,0.4,2-0.3,2.9c-0.4,0.2-0.9,0.5-1.4,0.7
	c-1.5,0.7-3.1,0.4-4.5,0.2c-1.7-0.3-0.8-1.3-0.7-2c0.8-3,0.2-6,0.4-8.9c-0.1-2.8,0.2-5.7,0.8-8.5h0
	C115.3,144.6,119.2,144.8,123.2,144.9z"/>
<path class="st3" d="M141.6,119.9c1.9-0.2,3.8-0.9,5.7-0.1c0.5,0.4,0.4,1,0.4,1.5c-0.5,1.9-0.2,3.8-0.2,5.7c0,0.7,0,1.5,0,2.2
	c0,2,0,4.1,0,6.1c0.2,0.8,0.5,1.6,0.2,2.4c-0.3,0.9-0.8,1.7-2.3,1.6c-1.3,0-2.6,0-3.9,0c-0.8-0.1-1.3-0.5-1.7-1
	c-3-3.8-6-7.7-9.4-11.3c-0.2-0.2-0.5,0.3-0.3,0.1c0,0,0.1,0,0.2,0c0.7,0.3,0.7,0.9,0.9,1.4c0,0.4-0.1,0.7-0.5,1
	c-0.1,0-0.2,0.1-0.3,0.1c-0.4,0.1-0.5,0.4-0.9,0.4c-1.2-0.4-2.3-0.8-3.6-0.6c-0.7,0.1-1.4,0-1.8-0.7c-0.3-2.5-0.8-5,0.4-7.5
	c0-1.4,0.8-1.8,2.7-1.9c2.7-0.1,4.5,0.4,5.8,2.3c2.3,3.2,5,6.2,7.5,9.3c0.3-0.1,0.4,0.7,0.7,0.2c0.4-0.7,0.1-1.5,0.2-2.2
	C141.5,125.9,140.9,122.9,141.6,119.9z"/>
<path class="st4" d="M172.2,138.5c0.5-0.6,1-1.2,1.5-1.7c0.9-1.7,0.6-3.6,2.3-5c1.2-2.6,2.4-5.2,3.4-7.9c0.5-1.2,1.2-2.3,2.1-3.3
	c1.6-1.8,4.1-0.8,6.2-1c1.6-0.1,1.2,1.1,1.6,1.7c2.8,5,4.6,10.2,6.6,15.4c1,2.5,0.8,2.6-2.6,2.6c-0.6,0-1.1,0-1.6,0
	c-1.3,0.4-1.4-0.4-1.6-1c-0.3-0.9-0.5-1.7-0.9-2.5c-0.1-0.2-0.2-0.3-0.3-0.4c-1.9-0.6-3.8-0.6-5.8-0.4c-0.2,0-0.4,0-0.7,0.1
	c-3,0-3.3,0-3.4,2.2c-0.1,1.5-1,1.9-2.5,2.2c-1.2,0.3-2.3,0.1-3.5,0.1C172.3,139.4,171.9,139.1,172.2,138.5z"/>
<path class="st5" d="M212,144.9c1.4,1.9,1.9,3.9,2.8,6c1.6,3.8,3.5,7.6,4.9,11.5c0.6,1.6-0.4,1.7-1.8,1.9c-0.7,0.1-1.4,0-2.1,0
	c-2.5-0.3-1.8-2-2.2-3.1c-0.2-0.2-0.4-0.4-0.6-0.6c-0.3-0.2-0.6-0.3-0.9-0.4c-2.7-0.1-5.5-0.7-8.2-0.2c-1.4,0.4-1,1.5-1.2,2.3
	c-0.4,1.4-1.2,2.1-2.9,2.1c-1.1,0-2.9,0.8-2.5-1.2c0-2.9,2-5.4,3-8.2c1.1-3,2.4-5.9,4.2-8.7c0.4-0.6,0.6-1.4,1.8-1.4
	C208.2,144.7,210.1,144.7,212,144.9z"/>
<path class="st6" d="M162,160.4c0.1,0,0.2,0.1,0.4,0.1c3,0.2,6,0.2,9.1,0c0.9-0.1,1.8-0.1,1.8,0.8c0,1.1,0.2,2.4-1.8,2.8
	c-3.5,0.4-7-0.1-10.5,0.2c-2,0.3-4-0.2-6-0.4c0.7-0.9,1-1.7,0.9-2.7c0.4-4.8,0.1-9.5,0.2-14.2c0-0.6-0.3-1.3,0.3-1.9
	c0.1,0,0.2,0,0.4-0.1c5.5-0.2,11-0.4,16.5,0.1c0,0,0,0.1,0,0.2c0.1,3.4,0,3.5-4.4,3.3c-1.6,0-3.2,0.1-4.9-0.3
	c-1.1-0.3-2.3,0-2.1,1.3c0.2,1-0.6,2.1,0.4,3c1.6,0.2,3.2,0.2,4.8,0c0.3,0,0.6-0.1,0.9,0c1,0.2,2.3-0.5,2.8,0.5c0.5,1.2,0,2.3-1.6,3
	c-0.2,0.1-0.4,0.1-0.7,0.1c-2,0.3-4.1,0-6.1,0.2C161,157.6,161.6,159,162,160.4z"/>
<path class="st7" d="M222.3,149.6c0.9-2.8,4.8-4.9,9.1-5c1.8,0,3.5,0,5.3,0.4c1.7,0.4,2.5,1.1,2.2,2.3c-0.4,1.6-1.7,2.4-3.6,2
	c-1-0.2-2.1-0.4-3-0.8c-1.1-0.4-2-0.1-2.9,0.2c-1.7,0.7-1.6,1.7-0.1,2.6c1.9,1.2,4.4,1.6,6.5,2.6c3.1,1.5,4.3,3.3,3.6,5.6
	c-0.7,2.3-3.9,4.5-7,4.6c-0.9,0-1.6,0.4-2.4,0.4c-0.8,0.2-1.6,0.1-2.3,0.1c-2-0.4-4.2-0.3-6.1-0.9c-0.4-1.3,0.2-2.5,0.6-3.7
	s1.9-0.7,2.9-0.4c1.6,0.5,3.2,1.1,4.9,1.4c0.9,0.2,1.6,0.2,2.3-0.2c0.6-0.3,0.4-0.9,0.8-1.3c0.8-0.8,0-1.3-0.6-1.7
	c-0.8-0.6-1.8-1-2.8-1.5c-1.8-0.7-3.8-1.2-5.3-2.3C222.7,152.8,221.7,151.4,222.3,149.6z"/>
<path class="st1" d="M132.5,85.7c0.1-0.7,0.6-1.2,1-1.7c0.8-1.1,1.7-0.9,2.6-0.2c0.5,0.4,0.9,0.9,1.6,1c1.9,0.2,4.1,0,4.3,2.2
	c0,0.4,0.8,0.6,1.4,0.4c0.8-0.2,0.9-0.7,0.9-1.3c1.5-2.2,4.4-3,6.9-4.2c0.4-0.2,0.9,0,1.3,0.2c0.2,0.2,0.4,0.6,0.3,0.9
	c-0.6,1.2,0.2,1.7,1.6,2.1c1.4,0.4,2.2,1.3,2.6,2.4c0.9,2.4,1.8,2.8,5.2,2.9c1.1,0,2.6-0.6,3,0.8c-6.3,3-13.1,3.7-20.1,2
	C139.8,91.9,135.5,89.4,132.5,85.7z"/>
<path class="st8" d="M108,144.9c1.6,0.7,0.7,1.9,0.9,2.9c-0.6,1.4-2.2,1.2-3.6,1.3c-1.5,0-2.9,0-4.4,0c-0.9,0-2-0.4-2.4,0.5
	c-0.4,0.8-0.5,1.7,0.5,2.5c0.2,0.2,0.5,0.3,0.7,0.4c1,1.2,1.9,2.4,0.6,3.8c-2.3,1-2.6,2-1.3,3.9c2.1,0.4,4.3,0.2,6.5,0.2
	c0.2,0,0.5,0,0.7,0c1.4,0.1,3.2-0.1,3.4,1.5c0.2,1.4-0.6,2.4-2.5,2.8c-4.8-0.4-9.7-0.3-14.5-0.3c-0.7,0-1.2-0.1-1.5-0.7
	c-0.3-0.8-0.2-1.6,0.1-2.4c1.2-2.9,0.7-5.9,0.3-8.8c-0.3-2.5-0.4-5,0.6-7.4c1.4,0,2.7-0.1,4.1-0.1
	C100.1,144.7,104.1,144.7,108,144.9z"/>
<path class="st9" d="M143,156.1c1.5-3,2.9-5.9,3.9-9c0.2-0.7,0.9-1.8,1.6-2c1.6-0.3,3.3-0.2,4.9-0.1c0.8,0.1,0.4,0.9,0.2,1.4
	c-1.6,3.4-3.2,6.7-4.9,10.1c-1,2-1.9,4.1-2.9,6.1c-0.4,0.8-0.9,1.5-2.3,1.5c-3.9,0.4-4.3,0.3-5.6-1.6c-1.4-3.3-3.3-6.5-4.3-10
	c-0.2-0.7-0.5-1.3-1-1.8c-0.8-1.8-2.1-3.4-2.3-5.3c1.7-0.7,3.5-0.2,5.3-0.3c0.9,0,0.8,0.5,0.9,1c1.2,3.4,2.6,6.8,3.9,10.1
	c0.9,0.5,1.1,1.3,1.4,2c0.2,0.4,0.3,0.8,0.4,1.2c0.1,0.2-0.1,0.4,0.2,0.6c0.2-0.2,0.1-0.5,0.1-0.8c0-0.4,0-0.9,0-1.3
	C142.3,157.1,142.5,156.6,143,156.1z"/>
<path class="st10" d="M171.7,135.2c-2.2,2.2-5.1,3.6-8.8,4.1c-2.5,0.3-5.1-0.1-7.7,0.2c-1.4,0-2.8,0-4.2,0c-0.7-0.2-0.8-0.7-0.8-1.2
	c0.3-0.7,0-1.5,0.7-2.2c1.6-0.7,3.5-0.1,5-0.8c0.2,0,0.5-0.1,0.7-0.1c1.6,0.1,3.2,0.2,4.9,0c2.1-0.2,3.7-0.9,4.3-2.6
	c0.4-0.4,1-0.7,1.4-1.2c1.4-1.8,0-3.5-0.2-5.3c-0.8-2.1-2.7-3.1-5.6-2.8c-0.7,0-1.4,0-2.1-0.2c-1.3-0.2-2.5-0.6-3.4-1.5
	c-0.5-0.5-0.8-1-0.4-1.6c0.4-0.6,1-0.6,1.8-0.6c0.8,0,1.7,0.1,2.5-0.1c3-0.3,5.9,0.3,8.5,1.1c2.8,0.9,4.2,3,4.8,5.2
	c0.6,1.7,0.4,3.4,0.5,5.1C173.7,132.6,173.6,134.2,171.7,135.2z"/>
<path class="st11" d="M82.1,123.5c0,4.6-0.2,9.2,0,13.8c0,1.5-1,1.7-2.3,1.9c-0.5,0.1-1.2-0.1-1.6,0c-2.7,1-2.5-0.5-2.2-1.6
	c0.9-3.8,0.2-7.7,0.4-11.5c0-0.4-0.1-0.9,0-1.3c0.3-1.2-0.4-1.6-1.9-1.5c-1.8-0.2-3.5-0.2-5.3,0c-0.2,0-0.4,0-0.4,0
	c-0.8-1,1-3.9,2.5-3.9c5.6,0,11.3-0.1,16.9,0.3c0.5,0,1,0,1,0.5c0,1,0.5,2.1-0.8,2.8C86.2,123.5,84.1,122.8,82.1,123.5z"/>
<path class="st12" d="M121.2,119.9c0,1.2,0,2.4-1.4,3.2c-2.5,0.4-5.1-0.1-7.6,0.3c-0.9,0.2-2.5-0.3-2.6,0.7c-0.2,1.1-1,2.5,0.8,3.4
	c2.7,0.4,5.4-0.1,8.1,0.3c1,2.4,0.2,3.3-2.7,3.3c-0.8,0-1.6,0-2.3,0c-3.4,0-3.7,0.2-4,2.8c-1,1.5-4.5,2-5.8,0.9
	c0.1-4.8-0.2-9.5,0.2-14.2c0.2-0.7,0.6-1.1,1.6-1.1c4.9,0,9.8,0,14.7,0C120.3,119.5,120.8,119.8,121.2,119.9z"/>
<path class="st3" d="M189.3,153.6c-1.9,2-3.8,3.9-5.7,5.9c-0.4,0.4-1.2,0.6-0.8,1.1c0.4,0.4,1.2,0.2,1.8,0.1c2.5-0.3,5.1-0.2,7.6,0
	c0.1,0,0.2,0,0.2,0c2.8-0.5,3.5,0.8,3.6,2.5c0.3,0.4,0.4,0.7-0.2,1.1h-0.2h-0.2c-6.2-0.2-12.4-0.2-18.6,0c-0.7,0-1.4,0-1.9,0
	c-0.6-3.8,2.7-6.1,5.3-8.7c2.1-2.2,4.7-4.2,6.2-6.7c-0.1-0.4,0.2-0.5,0.6-0.6c1,0,1.4,0.5,1.3,1.1
	C188.2,151,188.8,152.3,189.3,153.6z"/>
<path class="st13" d="M98.6,138.5c-0.2,0.4-0.6,0.7-1.2,0.7c-1.6,0-3.1,0-4.6,0.3c-0.9,0.2-1.7,0-1.2-1c0.5-1,0.6-2.2,0.8-3.2
	c0.3-2.2,0.3-4.3,0-6.5c-1-2.7,0-5.4-0.1-8.1c0-0.6,0.2-1.2,1-1.2c1.6-0.1,3.3-0.1,4.9,0c1,0,0.6,0.7,0.6,1.1
	c0.4,1.9-0.8,3.7-0.4,5.7c0.3,2.4,0,4.8,0.1,7.2C98.7,135.1,98.9,136.9,98.6,138.5z"/>
<path class="st14" d="M223.8,132.1c0.2-3,0.8-6.1,0.5-9.2c0-0.2,0-0.5,0-0.7c-0.2-2.6-0.2-2.6,3.5-2.6c2.3,0,4.7,0,7,0
	c0.7,0,1.9-0.4,1.8,0.8c-0.1,1-0.2,2-1.9,2.1c-1.4,0.1-2.8,0-4.2,0c-2.1,0-2.7,0.9-1.9,2.5c1.6,0.4,3.2,0,4.8,0.3
	c1,0.1,1.5,0.5,1.4,1.3c-0.1,0.7-0.8,1.2-1.7,1.2c-1,0.1-2,0.1-3.1,0c-1.8-0.1-1.8,0.8-1.8,1.7c0,0.9,0.2,1.6,1.8,1.5
	c1.5-0.1,3,0,4.5,0c0.9,0,1.9-0.2,2.2,0.9c0.2,0.9-0.6,1.3-1.4,1.5c-0.3,0.1-0.6,0.1-0.9,0.2c-1.3,0.7-2.7,0.4-4.1,0.5
	c-1.4-0.1-2.7,0-4.1-0.2C224.8,133.6,223.7,133.2,223.8,132.1z"/>
<path class="st15" d="M69.8,152.9c0.7-5,7.2-8.7,12.8-8.2c2,0.2,4.1,0.5,6.1,0.7c0.6,0.1,0.8,0.4,1,0.7c0.4,1,0.9,2-0.2,3
	c-1.4,0.9-2.9,0.8-4.5,0.4c-6-1.3-8.3,1-8,5.1c0.1,1,0.2,2,0.2,3c-0.1,0.2-0.3,0.6-0.6,0.4c-2.3-1-3.5,0.3-4.6,1.5
	c-1.1-0.3-1.2-1.1-1.4-1.8c0-0.4,0-0.7,0-1.1C70.3,155.3,69.7,154.1,69.8,152.9z"/>
<path class="st0" d="M165.2,91.1c-0.8-0.7-1.9-0.4-2.9-0.4c-1.6,0.2-3.1-0.3-4.5-0.7c-1-0.3-1.2-0.9-1.2-1.6c0-1.7-1.1-2.8-3.2-3.3
	c-1.7-0.3-1.9-0.9-1.1-2c0.2-0.3,0.1-0.7,0.1-1.1c0.5-0.4,1-0.2,1.6,0c2.2,1,4.1,2.3,6.1,3.5c3.6,1.8,5.1,1.7,6.9-0.4
	c0.8-0.9,0.7-1.6-0.4-2.3c-1-0.6-1.9-1.2-2.9-1.8c-1.1-0.7-1.5-1.5-0.4-2.4c1-0.8,2.1-1,3.3-0.3c1,0.6,2,1.1,3,1.7
	c2.2,1.3,2.3,3,0.4,4.5c-0.6,0.4-1.1,0.9-1.7,1.2c-2.5,1.5-2.6,1.8,0,3.5C167.5,90,166.6,90.8,165.2,91.1z"/>
<path class="st16" d="M160,119.5c-0.7,0.5-1.6,0.2-2.5,0.3c-0.7,0-1.2,0.2-1.5,0.7c-0.4,0.6,0.2,0.9,0.5,1.2
	c0.7,0.8,1.9,0.9,2.9,1.3c-0.1,0.2-0.3,0.3-0.5,0.4c-1.3,0.2-1.8,0.9-1.7,1.8c0,0.7,0,1.4-0.2,2.1c-0.4,2-0.1,4.1-0.2,6.1
	c0,0.8,0.1,1.6-0.6,2.2c-1.4,1.4-3.4,0.4-5.1,0.7c-1.1-0.7-0.6-1.7-0.8-2.6c0-2,0-4.1,0-6.1c0-2,0-3.9,0-5.9c0-0.7,0-1.4,0.6-2
	C153.9,119,157,119.6,160,119.5z"/>
<path class="st17" d="M214.4,133.4c-0.7,0.6-1.6,0.4-2.4,0.4c-1.5,0-3-0.1-4.5,0.2c-1.7,0.3-2.1,0-2.1-1.2c0-1.3,0.1-2.4,0.6-3.7
	c0.3-3,0.3-6,0-9c0-0.4,0.4-0.6,0.7-0.6c3.2,0,6.4-0.5,9.6,0.2c-0.7,0.9-1.8,1.7-2.1,2.8c-0.2,0.1-0.4,0.1-0.6,0.2
	c-1.7,0-2.3,0.7-2.3,1.9c0.1,1.2,0.1,2.5,0,3.7c-0.2,1.4,0.6,2.1,2.4,2.3C214.4,131.5,215,132.4,214.4,133.4z"/>
<path class="st6" d="M189.3,153.6c-1.7-1-1.6-2.4-1.6-3.7c0-0.5,0.4-1.1-0.6-1.3c-3.1-0.2-6.2-0.3-9.3,0c-1,0-2,0-3.1,0
	c1.2-3.5,1.2-3.5,5-3.6c5.1-0.2,10.1-0.2,15.2,0c1.2,1.7-0.2,3-1.2,4.3C192.6,150.8,190.8,152.1,189.3,153.6z"/>
<path class="st18" d="M228.6,136.8c2,0,4.1-0.1,6.1,0c0.9,0,2,0,2,1.1c0,1.1-0.6,1.7-2,1.8c-1.9,0-3.8,0-5.6,0
	c-2.5-0.2-5.1-0.2-7.6,0c-4.7,0-9.4,0-14.1,0.1c-1.8,0-1.7-0.6-1.2-1.5c0.5-1,1.5-1.4,2.9-1.4c4.3,0,8.6,0,12.9,0.1
	C224.1,137,226.4,137,228.6,136.8z"/>
<path class="st14" d="M214.4,122.3c-1.4-1.7,1.1-1.7,1.9-2.5c3.9,0,6.9,2.6,6.6,6c-0.4,4.6-2.7,6.6-6.9,7.6c-0.5,0.1-1.1,0-1.6,0
	c0.4-0.9-1.5-1.5-0.5-2.4c0.8-0.9,2.5-1.2,2.9-2.3c0.4-1.5,0.1-3,0.2-4.5C216.9,122.9,214.7,123.4,214.4,122.3z"/>
<path class="st9" d="M72,159.4c0.7-2.6,1.2-2.8,4.8-1.5c3.1,2.6,6.9,2.4,10.8,1.5c0.5-0.1,1.1,0,1.6,0.2c0.8,2.1,0.1,3.4-2,4.1
	c-1.2,0.5-2.6,0.1-3.8,0.7c-4,0.7-7.4-0.2-10.2-2.4C72.3,161.3,71.1,160.6,72,159.4z"/>
<path class="st19" d="M103.8,135.3c1.1-0.4,2.1-1,3.5-0.5c1.3,0.5,1.1-1.1,2.1-0.9c-0.2,1.4,0.6,1.9,2.5,1.8c2.2-0.1,4.4-0.1,6.6,0
	c0.8,0,2.2-0.6,2.3,0.4c0,1.1,1.2,2.6-1.3,3.2c-3.6,0.3-7.2,0-10.8,0.1c-0.8,0-1.7-0.1-2.5,0.1c-0.7,0-1.4,0-2.1,0
	c-1.2,0.1-1.5-0.7-1.1-1.1c0.6-0.8,0.2-1.6,0.4-2.4C103.5,135.8,103.3,135.4,103.8,135.3z"/>
<path class="st20" d="M207.3,169.1c1.4,0,2.8,0,4.2,0c1,0.4,2.1-0.2,3,0.4c0,0.6-0.2,1.1-1.1,1.1c-19.6,0-39.3,0-58.9,0
	c-0.8,0-1.6,0-2.3,0c-1.2,0.1-1-0.7-1.3-1.1c-0.1-0.2,0-0.3,0.1-0.4c0.5,0,1,0,1.4,0c4.3,0.3,8.6,0,12.8,0.1c4.5,0,9.1,0,13.6,0
	c8.6,0,17.2,0,25.9,0C205.6,169.2,206.5,169.3,207.3,169.1z"/>
<path class="st21" d="M72.5,114.9c-0.9,0-1.7,0-2.6-0.1c-0.9,0-0.9-0.3-0.3-0.7c4.7-0.3,9.5,0,14.2-0.1c3.6,0,7.2,0,10.9,0
	c2.1,0,4.2,0,6.3,0c6.8,0,13.6,0,20.3,0c0.8,0,1.6,0.1,2.3-0.1c1.1,0,2.2,0,3.3,0c5.6,0.3,11.3,0,16.9,0.1c3.3,0,6.6-0.1,9.9,0
	c0.4,0.3,0.4,0.6,0.1,0.9c-3.8,0.1-7.6,0.2-11.3,0c-1.3,0-2.5,0-3.8,0c-3.8,0.2-7.6,0.2-11.4,0c-1.9,0-3.8,0-5.6,0
	c-3.8,0.2-7.6,0.2-11.4,0c-3.1,0-6.3,0-9.4,0c-1.8,0.2-3.5,0.2-5.3,0c-3.3,0-6.6,0-9.9,0C81.3,115.1,76.9,115.1,72.5,114.9z"/>
<path class="st22" d="M153.8,114.7c0-0.2,0-0.4,0-0.6c0.5-0.4,1.1-0.2,1.7-0.2c3.2,0,6.5,0,9.7,0c3.3,0,6.6,0,9.9,0
	c4.8,0,9.5,0,14.3,0c1.7-0.1,3.4,0.1,5.1-0.1c0.2,0,0.3,0,0.4,0c1.9,0.3,3.7,0.1,5.6,0.1c9.9,0,19.8,0,29.7,0c0.8,0,1.7-0.1,2.5,0.1
	c1.2,0,2.4,0,4,0c-1.5,1.6-3.4,0.9-5,1.1c-4.4-0.4-8.8,0-13.1-0.2c-1.6,0-3.3,0.2-4.9-0.1c-8.7,0-17.3,0-26,0
	c-4.9,0.2-9.8,0.2-14.7,0c-3.3,0-6.6,0-9.9,0c-2.3,0.2-4.7,0-7,0.1C155.5,114.9,154.6,115.2,153.8,114.7z"/>
<path class="st23" d="M124.5,132.7c0-1.2,0.1-2.4,0.2-3.6c1.8-0.2,3.7-1,5.1,0.7c0.7,2-0.1,4.1,0.4,6.1c0,0.7,0.1,1.4,0.1,2.2
	c0,0.7-0.5,1.1-1.3,1c-1.5-0.2-2.9,0.5-4.3,0.4c-0.4-0.4-0.6-0.9-0.5-1.4C124.7,136.4,124,134.5,124.5,132.7z"/>
<path class="st24" d="M151,169.4c1.2,0.1,0.8,0.6,0.5,1.1c-3.6,0.4-7.2,0.2-10.9,0.1c-1.6,0-3.1,0.5-4.7,0.2
	c-3.9-0.3-7.8,0-11.7-0.1c-0.8,0-1.7,0.1-2.5-0.1c-0.6,0-1.2,0-1.8,0c-2.8,0.2-5.6,0-8.4,0.1c-2.6,0-5.3,0-7.9,0
	c-0.6-0.9,0.3-1.1,1.1-1.2c0.8-0.1,1.5,0,2.3-0.2c3.2,0,6.5,0,9.7,0c3.9,0,7.8,0,11.8,0c5.9,0,11.9,0,17.8,0
	C147.7,169.3,149.4,169,151,169.4z"/>
<path class="st25" d="M197.4,89.9c1.2,0,2,0.2,1,1.3c-1.2,1.1-2.6,2.1-4.2,2.8c-0.3,0.2-0.7,0.4-1,0.2c-1.7-1.1-4.3-0.9-5.8-2.4
	c-0.9-0.7-0.6-1.4-0.4-2.2c0.4-0.9,0.9-1.7,1.3-2.6c0.2-0.4,0.3-0.7,0.9-0.6c0.6,0,0.8,0.4,0.9,0.7c0.3,0.7,0.4,1.5,0.7,2.2
	c0.5,1.1,1.2,2,3,1.1c0.6-0.3,1.6,0.2,2.1-0.4C196.4,89.7,196.8,89.7,197.4,89.9z"/>
<path class="st26" d="M105.5,89.8c2-0.4,3.7,0,5.3,0.4c1.7,0.4,2.6,0.2,3-1.2c0.3-1.1,0.7-2.7,2.1-2.7c1.6,0,1.4,1.7,1.6,2.7
	c0.2,0.9,1.6,2.2-0.3,2.7c-2.7,0.8-5.3,3.5-8.6,0.7C107.5,91.6,106.3,90.9,105.5,89.8z"/>
<path class="st27" d="M134.5,102.2c0,2.9-3.6,4.8-7.7,3.9c-1-0.2-3.1,0.3-3-0.9c0-1,1.9-1.2,3.1-1.5c3.4-0.8,3.4-0.8,2.5-3.7
	c-0.2-0.4-0.4-1.1,0.2-1.3c0.4-0.2,1.2-0.1,1.8,0.2C132.7,99.8,134.4,100.5,134.5,102.2z"/>
<path class="st28" d="M124.6,95c2,0.8,2.6,2.4,3.8,3.7c0.8,0.9-0.4,1.2-0.8,1.5c-0.9,0.7-2,1.3-2.6,2.2c-0.3,0.4-1,0.5-1.6,0.5
	c-2.3,0.2-4.2-0.9-6-1.6c-1.4-0.6,0.2-1.1,0.5-1.2c1.3-0.1,2.5-0.7,3.9-0.4c2.1,0.3,2.4-0.5,1.9-1.8c-0.4-0.7-0.1-1.5-0.2-2.3
	C123.3,95,123.7,94.8,124.6,95z"/>
<path class="st29" d="M175.2,100.2c0,0.4,0,0.8-0.2,1.1c-0.8,2.3-0.8,2.4,2.3,2.6c1.2,0.1,2.3,0.2,2.4,1.2c0.2,1.1-1.4,1.1-2.2,1.3
	c-3.9,0.9-4.9,0.7-6.5-2.1c-0.4-0.8-2.2-1.3-1.6-2.2c0.7-1.1,2.1-1.9,3.3-2.7c0.5-0.4,1.2-0.7,1.9-0.4
	C175.6,99.3,174.8,99.9,175.2,100.2z"/>
<path class="st30" d="M117,95.4c0.2,0,0.3,0,0.4,0.1c0.7,0.2,0.8-0.2,0.8-0.5c0-0.7-0.2-1.4,0.2-2.1c0.4-0.7-0.5-1.9,1-2
	c1.2-0.1,1.6,1,2.1,1.6c0.6,0.7,1.1,1.5,1.6,2.3c0.4,0.4-0.1,0.5-0.4,0.7c-1,1.7-3.3,2.2-5.1,3.2c-0.9,0.5-2.1-0.1-3.1-0.5
	c-1.3-0.6-2.5-1.1-3.7-1.7c-0.5-0.2-0.7-0.7,0-1C112.8,95.2,114.9,95.1,117,95.4z"/>
<path class="st31" d="M181.3,98.2c-0.6,1.4,0.1,2.2,2.7,1.9c0.6-0.1,1.1,0.4,1.8,0.4c0.8,0,2,0,2,0.8c0,0.5-0.8,1.1-1.9,1.1
	c-0.4,0-0.8,0.3-1.2,0.5c-2.1,0.8-4,0.9-5.4-0.8c0,0-0.1-0.1-0.2-0.1c-3.1-2.5-3.1-2.5-0.6-5.4c0.5-0.6,1.2-1.2,2.3-0.9
	c1.2,0.2,0.4,1,0.6,1.5C181.4,97.2,181.3,97.5,181.3,98.2z"/>
<path class="st32" d="M186.4,92.2c0,0.2,0,0.5,0.1,0.7c0.4,2.8,0.4,2.8,4,2.8c0.4,0,0.8,0,1.2,0c0.6,0.1,1.6-0.3,1.9,0.3
	c0.3,0.7-0.5,1.2-1.2,1.5c-3.5,1.9-7.4,1.3-9.8-1.5c-0.1-0.1-0.2-0.2-0.2-0.3c-0.5-1.1,2.1-4.3,3.8-4.4
	C186.4,91.6,186.2,92,186.4,92.2z"/>
<path class="st33" d="M82.9,105.1c-2.1-2-1.9-3.4,0.4-4.3c1.2-0.1,0.9,0.9,1.5,1.1c1,0.7,2.3,1,3.6,1.3c1.2,0.2,2.1,0.7,2.5,1.7
	c0,1.2,0.4,2.4-0.5,3.5c-0.8,0.2-1.2-0.2-1.8-0.4c-1.1-0.7-2.2-1.2-3.5-1.5C84.1,106.1,83.3,105.7,82.9,105.1z"/>
<path class="st34" d="M106.6,169.5c-0.9,0.7-2.7-0.2-3.3,1c-1.8,0.4-3.7,0.2-5.6,0.2c-6.5,0-13,0.2-19.5-0.1
	c-0.6,0.1-1.2,0.2-1.9,0.2c-0.5-0.5-0.5-1,0.2-1.5c4.2-0.3,8.4,0.2,12.6-0.2c1.7,0,3.5,0,5.2,0c3.3,0.3,6.7,0,10.1,0.1
	C105.1,169.3,105.9,169,106.6,169.5z"/>
<path class="st35" d="M135,161.9c-0.2-2.5-1.2-4.9-2.5-7.2c0.2-1.4-1.3-2.9,0.5-4.3c0.5,0.1,0.5,0.4,0.6,0.7
	c1.2,3.8,3.3,7.3,4.7,11.1c0.4,1-0.4,1.4-1.6,1.5C136.2,163.1,135.6,162.5,135,161.9z"/>
<path class="st36" d="M211.6,99.8c2.4,0.3,3.9,1.1,4.4,3.1c0.6,2.4,0.4,4.5-2.3,6.1c-0.6,0.4-1.1,0.4-1.7,0.4c-1-0.9-0.2-1.9,0-2.8
	c0.5-1.4,0.4-2.8,0.1-4.2C212.1,101.5,210.9,100.7,211.6,99.8z"/>
<path class="st37" d="M229.6,109.1c-1.8,0.5-3.4-0.1-4.1-1.5c-1.4-2.6,0.2-6.2,3.5-7.6c0.6-0.1,0.9,0.1,1.1,0.4
	c0.1,0.9-0.6,1.6-0.7,2.5c-0.5,1.4-1.6,2.8-0.1,4.2c0.1,0.2,0.1,0.3,0.2,0.5C229.6,108.1,229.9,108.6,229.6,109.1z"/>
<path class="st38" d="M99.1,107.7c-0.4,0.7,0.6,1.2,0.4,1.9c-0.1,0-0.2,0.1-0.2,0.1c-1.4-0.7-3.9,0.7-4.3-0.9
	c-0.3-1.1,0.3-2.4,0.2-3.7c-0.4-0.4-0.5-0.9-0.2-1.4c0.9-0.8,2.3-1.2,3.1-2.1c0.3-0.4,1-0.3,1.2,0.3
	C99.1,103.8,99.4,105.7,99.1,107.7z"/>
<path class="st39" d="M213.9,170.4c0.2-0.3,0.3-0.6,0.5-0.9c1.5-0.6,3.1-0.2,4.6-0.2c4.8,0,9.5-0.2,14.3,0.1c1.4,0,2.7,0,4.3,0
	c-0.5,1.1-1.5,1.1-2.4,1.2c-6.5,0.3-13,0-19.6,0.1C215.1,170.6,214.4,170.8,213.9,170.4z"/>
<path class="st40" d="M141.6,105.5c-0.7,1.1-0.4,2.6-2.3,3.3c-1.8,0.2-3.6,0.2-5.4,0c-0.9,0-1.6-0.2-2.4-0.7
	c1.3-0.8,2.4-1.5,4.1-1.6c0.9-0.1,2.5-0.2,2.1-1.6C138.9,103.6,140.5,104,141.6,105.5z"/>
<path class="st41" d="M163.9,107.2c-0.6-0.9-2.3-1.5-1.7-2.4c1-1.6,2.9-2.6,5-3.3c1-0.3,1.5,0.1,1.5,1c0,1.2-1.4,2.1-1.5,3.3
	C166.6,107,165.7,107.8,163.9,107.2z"/>
<path class="st42" d="M73.9,100c0.3,0.1,0.6,0.3,1,0.4l0,0c0.2,0.2,0.4,0.3,0.5,0.5c0.3,1.3,0.6,2.6-0.4,3.8c0,0.7-0.1,1.4-0.2,2.2
	c-1.4,0.7-2.5,0.7-3.4-0.5c0-2.1-0.3-4.2,0.2-6.3C72.4,100.1,73.2,100,73.9,100z"/>
<path class="st43" d="M199.7,106.2c-0.2,1.4,0.7,1.2,2,0.9c2.3-0.6,2.9-0.2,2.8,1.2c0,0.9-0.6,1.1-1.6,1.1c-2,0-4.1,0-6.1,0
	c-0.4,0-1,0.2-1.2-0.3c-0.2-0.4-0.3-0.9,0.3-1.3c0.8-0.6,1.6-1.1,2.3-1.7C198.7,106.1,199.2,105.9,199.7,106.2z"/>
<path class="st44" d="M213.9,170.4c0.5,0,1,0.1,1.4,0.1c0.2,0.1,0.2,0.1,0.1,0.2c0,0-0.1,0.1-0.2,0.1c-12.3,0-24.5,0-36.8,0.1
	c-8.2,0-16.4,0-24.5-0.1c-0.2,0-0.2-0.1-0.2-0.2c0-0.1,0.1-0.1,0.1-0.1c14.1,0,28.1,0,42.2,0C202,170.5,207.9,170.4,213.9,170.4z"/>
<path class="st45" d="M196.4,82.8c0.2,0,0.3,0,0.5,0.1c0.7,1.8,0.8,3.6,0,5.4c-0.2,0.3-0.5,0.4-0.9,0.3c-3.3,0.1-4.2-0.8-2.6-3.1
	C194,84.4,194.1,82.8,196.4,82.8z"/>
<path class="st46" d="M209.6,100.1c0.7,0.7,0.1,1.4,0,2.1c-0.4,1.3,0.1,2.6-0.3,4c-1,0.7-2.3,0.5-3.5,0.4c-1-2-0.5-3.8,0.8-5.5
	C207.3,100.4,208.2,99.8,209.6,100.1z"/>
<path class="st47" d="M222.3,149.6c0.2,2.9,2.5,4.6,5.8,5.6c0.7,0.2,1.6,0.2,1.9,0.8c0.3,0.7,1.5,0.9,1.5,1.7
	c-0.1,0.3-0.3,0.4-0.6,0.5c-1.4-0.7-2.9-1.2-4.3-1.7C221.3,154.7,220.4,153.2,222.3,149.6z"/>
<path class="st48" d="M220.1,100c0.9,0.3,2.1-0.4,2.9,0.4c0,2.2-0.1,4.3-0.1,6.5c-1.9-0.2-2.7-1.2-3.5-2.4c-0.1-0.9,0.2-1.8-0.2-2.7
	C219,101.1,217.5,100,220.1,100z"/>
<path class="st40" d="M109.5,88.2c-1.4,0.2-1.8-0.7-1.9-1.3c-0.2-1.3-0.1-2.7,0-4.1c0-0.3,0.4-0.9,0.8-1c0.6-0.2,0.8,0.3,1.1,0.7
	c0.7,1.1,1.6,2.1,2.2,3.2C112.3,87.1,111.4,88.2,109.5,88.2z"/>
<path class="st49" d="M163.9,107.2c1.5,0.1,2.3-0.8,3.2-1.4c1.3,0.5,2.5,1.3,4,1.5c1,0.2,1.4,0.8,1.2,1.7c-2.5,0.3-4.9,0.3-7.4,0
	C164.3,108.5,163.8,107.9,163.9,107.2z"/>
<path class="st50" d="M121.2,157.9c2,1.4,2.5,3.5,3.9,5.1c0.9,1.1,1.7,1.6,3.2,1.5c-3.6,0.8-5.3,0.2-6.7-2.2c-0.3-0.5-0.6-1-0.9-1.5
	C120.3,159.7,118.6,158.6,121.2,157.9z"/>
<path class="st51" d="M199.7,106.2c-0.5-0.1-1,0.5-1.4-0.1c1.6-1.5,2.9-3.2,2.8-5.2c-0.1-0.2-0.7-0.4-0.4-0.7c1.3-0.2,2.6,0,3.1,0.9
	c0.6,1,0.7,2.1-0.6,3C202.2,104.9,200.8,105.4,199.7,106.2z"/>
<path class="st52" d="M95.3,103.7c0-0.9,0-1.7,0-2.5c0.1-0.4,0.2-0.9,0.9-1c1.5-0.1,3.1-0.3,4.6-0.4c1.4,0,1.9,0.6,2,1.6
	c0,0.6,0,1.1-1,1.2c-1,0.1-0.8-0.5-0.9-0.9c-0.2-1.1-0.8-1.1-1.8-0.5c0.1,0.2,0,0.3-0.2,0.4C97.9,102.5,97,103.5,95.3,103.7z"/>
<path class="st53" d="M133,150.4c-0.7,1.4-0.4,2.8-0.5,4.3c-0.8-0.9-0.4-1.9-0.9-2.8c-0.5-0.9-0.9-0.4-1.4-0.1
	c-0.2-2.1,0-4.2-2.4-5.7c0.8,0.1,1.5,0.2,1.6-0.7c0-0.3,0.5-0.4,0.8,0C131.7,146.9,132.1,148.7,133,150.4z"/>
<path class="st54" d="M141.6,105.5c-1.2-0.7-2.2-1.5-3.9-0.7c-1.1-0.8-1.3-1.9-2.1-2.8c-0.3-0.3-0.3-0.8,0.6-0.9
	c2.5-0.2,4,1.3,5.7,2.2C142.6,103.9,142.2,104.8,141.6,105.5z"/>
<path class="st55" d="M167.2,59c1.6-1.8,3-3.6,4.5-5.3c0.4-0.4,0.8-0.9,1.3-1.3c0.4-0.3,1-0.7,1.4-0.4c0.6,0.3,0.1,0.8-0.1,1.2
	c-1.2,2.1-3.3,3.7-5.2,5.5C168.6,59.2,168,59.1,167.2,59z"/>
<path class="st56" d="M234.6,104.4c1,1.4,0.9,2.8-0.2,4.1c-0.7,0.9-1.8,1.1-3,0.9c-0.2,0-0.3-0.2-0.5-0.3c-0.4-0.4-0.1-0.9-0.1-1.3
	c0.1-0.5,0.1-1.1,0.3-1.6C231.8,105.1,232.6,104,234.6,104.4z"/>
<path class="st57" d="M72,159.4c-0.1,1.2,1.1,1.8,1.9,2.5c2.6,2,5.8,2.8,9.4,2.6c-3.2,0.4-6.4,0.8-9.5-0.4c-1.4-1.7-3.7-3-3.9-5.2
	c-0.1-0.4-0.4-0.9-0.2-1.4c0.1-0.3,0.2-0.6,0.7-0.5c0.5,0.1,0.3,0.5,0.5,0.7C71.2,158.2,71.4,158.9,72,159.4z"/>
<path class="st58" d="M131.4,51.9c0.6,0,0.9,0.2,1.2,0.5c1.7,2.1,3.4,4.1,5.1,6.2c0.2,0.2,0.2,0.4,0,0.7c-0.4,0.2-0.8,0.1-1-0.1
	c-2.5-2-4.3-4.3-5.9-6.7C130.4,52.1,130.8,51.9,131.4,51.9z"/>
<path class="st59" d="M130.6,129.5c0-0.4,0-0.7,0-1.1c1.9,0.5,2.6,1.9,3.5,3.1c1.4,1.7,2.7,3.6,4.2,5.3c0.4,0.5,0.7,1.2,1.8,1.3
	c0.3,0.3,0.6,0.7,1,1c-0.8,0.4-1.6,0.3-2.5,0.1c-2.3-2.8-4.7-5.6-7-8.4C131.4,130.4,131,129.9,130.6,129.5z"/>
<path class="st60" d="M232.9,114c-12.1,0-24.2,0-36.3,0c-0.6,0-1.1,0-1.6-0.3c12.3,0,24.6,0,36.9,0
	C232.2,113.8,232.6,113.8,232.9,114z"/>
<path class="st61" d="M219.6,104.7c1.1,0.7,2.1,1.4,3.2,2.2c0,1.2,0.8,2.6-2,2.6c-1.9,0-2.9-0.3-1.7-1.9c0.1-0.2,0.1-0.4,0.1-0.7
	C219.7,106.2,219,105.4,219.6,104.7z"/>
<path class="st62" d="M166.1,52.7c0.2,2.6-1.3,4.7-4,6.3c0.7-2.3,1.4-4.5,2.7-6.6C165.5,51.8,165.8,52.3,166.1,52.7z"/>
<path class="st63" d="M71,157.6c-0.2-0.1-0.3-0.4-0.5-0.4c-0.7,0-0.4,0.4-0.3,0.6c0.6,2,1.3,3.9,3.5,5.2c0.2,0.2,1.6,0.5,0.2,1
	c-4.3-2.1-6.2-6-4.7-8.9c1.7-0.2,1.4,0.8,1.8,1.5C71,156.9,71,157.2,71,157.6z"/>
<path class="st64" d="M234.6,104.4c-1.3,0.3-2.3,0.9-3.1,1.8c-0.7-0.2-0.9-0.7-1.1-1.2c-0.2-1,0-2,0.8-2.8c0.8-0.7,0.3-2.4,2.6-1.8
	c1.7,0.7,1.2,1.9,0.5,2.4C233,103.7,234.2,103.9,234.6,104.4z"/>
<path class="st65" d="M178.7,67.8c2.1-2.2,5.6-2.8,8.2-4.6c0.4-0.3,1-0.1,1.5,0.2c0.4,0.3,0.2,0.6,0,0.7
	C185.3,65.5,182.2,67,178.7,67.8z"/>
<path class="st66" d="M114.6,63c1.3-0.4,2.1-0.4,2.9,0c2.3,1,4.5,2,6.8,3.1c0.4,0.2,0.9,0.4,0.5,0.8c-0.2,0.2-0.8,0.2-1.1,0.1
	C120.8,65.8,117.6,64.9,114.6,63z"/>
<path class="st67" d="M141.7,58.7c-0.9-1.5-1.7-2.9-2.6-4.4c-0.5-0.7-0.3-1.4,0.7-1.6c1-0.2,1.2,0.4,1.4,1c0.5,1.3,1.1,2.7,1.7,4
	c0.6,0.4,0.5,0.9,0.1,1.3C142.5,59.4,142.1,58.9,141.7,58.7z"/>
<path class="st68" d="M78.1,170.6c8.4,0,16.7-0.1,25.1-0.1c2.7,0,5.4,0,8,0.1c0.1,0.1,0.2,0.1,0.1,0.2c0,0-0.1,0.1-0.2,0.1
	c-10.5,0-21,0-31.5,0C79.2,170.8,78.6,170.8,78.1,170.6z"/>
<path class="st69" d="M174.2,65.6c1.6-2.1,3.9-3.3,6.2-4.6c0.3-0.2,0.8-0.2,1.1,0c0.4,0.4,0,0.8-0.4,1.1
	C179.2,63.6,177.3,65,174.2,65.6z"/>
<path class="st70" d="M155.3,106.5c0.1,1.5-1.3,1.7-2.4,1.8c-1.1,0.1-1.9-0.5-1.8-1.4c0.1-0.8,0.3-1.9,1.9-1.8
	C154.1,105.2,155.5,105.4,155.3,106.5z"/>
<path class="st71" d="M155.3,114c-0.5,0-1,0.1-1.4,0.1c-8.1,0-16.2,0-24.3-0.1c-0.9,0-1.9,0.2-2.7-0.3c9.5,0,18.9,0,28.4,0
	C155.3,113.9,155.3,114,155.3,114z"/>
<path class="st72" d="M207.3,169.1c-0.6,0.4-1.4,0.3-2,0.3c-8.8,0-17.5,0-26.3,0c-0.2,0-0.2-0.1-0.2-0.2c0-0.1,0.1-0.1,0.1-0.1
	C188.4,169.1,197.8,169.1,207.3,169.1z"/>
<path class="st73" d="M122.2,74.6c-3.4,0.4-6.7,0-10.3-1.1C116,72.2,118.9,74.7,122.2,74.6z"/>
<path class="st29" d="M205.8,106.6c1-0.8,2.2-0.3,3.3-0.4c0.4,0.2,0.2,0.5,0.5,0.7c-0.4,0.9,0.3,1.7,0.6,2.5c-1.1,1-1.7,0-2.4-0.4
	C206.9,108.4,206.1,107.6,205.8,106.6z"/>
<path class="st74" d="M196.4,77.8c0.2,0.4-0.3,0.7-0.4,1.1c-0.1,0-0.3,0-0.4,0c-2.4,0.4-4.8-0.1-7.2,0.2c-0.9,0.1-1.8,0.2-3.1-0.2
	c1.7-1.3,3.7-0.7,5.4-0.8C192.6,78,194.5,77.9,196.4,77.8z"/>
<path class="st75" d="M71.6,106.6c1,0.5,2.1,0.3,3.2,0.3c1,2,0,2.8-2.7,2.8c-1.5-0.8-0.5-2-0.7-2.9
	C71.4,106.7,71.5,106.6,71.6,106.6z"/>
<path class="st76" d="M199.3,101.2c-0.1,0.2-0.3,0.4-0.4,0.7c-0.2,1-1,1.7-2.2,1.6c-0.6,0-1.2-0.8-1.3-1.4c-0.2-1,0.6-1.5,1.8-1.7
	C198.2,100.3,199.5,99.7,199.3,101.2z"/>
<path class="st77" d="M183.2,74.5c2.9-0.2,5.4-1.5,8.3-1.4c0.4,0,0.8-0.1,1,0.3c0.2,0.4-0.2,0.7-0.5,0.7
	C189.1,74.2,186.3,75.4,183.2,74.5z"/>
<path class="st78" d="M76.3,169.5c0,0.4,0,0.9,0,1.3c-1.5,0-2.9,0.1-4.5,0c-0.6,0-1.4,0.3-1.6-0.3c-0.2-0.5,0.4-0.9,0.8-1.1
	c1.5-0.3,3,0,4.6-0.1C75.9,169.2,76.1,169.3,76.3,169.5z"/>
<path class="st79" d="M122.2,60.1c1.8-0.1,2.7,0.9,3.8,1.7c0.6,0.4,1.2,0.9,1.8,1.3c0.2,0.4,0,0.6-0.4,0.7c-2.3-0.7-4-2-5.7-3.3
	C121.5,60.2,121.8,60.1,122.2,60.1z"/>
<path class="st80" d="M152,50.5c0.2-0.8-0.9-2.3,0.9-2.3c1.4,0,0.7,1.5,0.6,2.3c-0.2,1.9-0.5,3.8-0.8,5.8c-1.3-0.5-0.4-1.3-0.6-2
	C152,53,152.4,51.7,152,50.5z"/>
<path class="st81" d="M85.2,108.3c0.3,0.2,0.6,0.5,0.9,0.7c0.1,0.9-1.1,0.2-1.4,0.6c-1.7,0.1-3.3,0-3.3-1.7c-0.4-0.4-0.4-0.7,0.1-1
	c0.3,0,0.6-0.1,0.8-0.1c0.3,0.1,0.6,0.3,1,0.4C84.3,107.3,85,107.6,85.2,108.3z"/>
<path class="st82" d="M120.2,78.8c-1.7,0.1-3.4,0.2-5.1,0.4c-1.8-0.3-3.6,0.1-5.3-0.2c-0.7-1.5,1.1-0.4,1.5-0.9
	c1.9-0.2,3.8,0,5.6-0.1c0.9,0,1.9,0,2.8,0C120.3,78.1,120.7,78.3,120.2,78.8z"/>
<path class="st83" d="M116.9,163.6c0-1.4,0-2.8,0-4.3c0-1.2,0.6-2,2.4-1.7c1.2,0.8,0.8,1.8,1,2.8c-0.3-0.1-0.6-0.1-0.9-0.2
	c-1.7-1-1.9-0.2-1.9,0.9C117.4,161.9,117.9,162.9,116.9,163.6z"/>
<path class="st84" d="M123.6,113.8c-0.4,0.3-1,0.3-1.6,0.3c-7.1,0-14.2,0-21.2-0.1c0-0.1,0.1-0.2,0.1-0.2
	C108.5,113.8,116,113.8,123.6,113.8z"/>
<path class="st85" d="M106.6,169.5c-3.3,0-6.6,0-9.8-0.1c-0.8,0-1.7,0.2-2.5-0.3c7.4,0,14.8,0,22.3,0c0.1,0.1,0.2,0.1,0.1,0.2
	c0,0-0.1,0.1-0.2,0.1C113.2,169.4,109.9,169.4,106.6,169.5z"/>
<path class="st72" d="M233.4,169.3c-6.3,0-12.6,0.1-18.9,0.2c-1-0.2-2,0.1-2.9-0.4c3.8,0,7.6-0.1,11.4-0.1c0.5,0,1,0,1.4,0
	C227.3,169.3,230.4,168.6,233.4,169.3z"/>
<path class="st86" d="M127.9,58c-2.1-0.9-2.8-2.9-4.7-4c-0.5-0.5-0.2-0.7,0.5-0.7c1.7,1.3,3.4,2.7,5.1,4
	C129.1,58,128.9,58.4,127.9,58z"/>
<path class="st87" d="M156.3,145c0,4.5,0,9.1-0.1,13.6c0,0.9,0.4,1.8-0.4,2.6c0-5-0.1-10-0.1-15C155.7,145.8,155.4,145.2,156.3,145z
	"/>
<path class="st88" d="M112.6,62.3c-1,0.2-1.6-0.2-2.2-0.4c-1-0.5-2.7-1.1-1.8-2c0.6-0.7,1.8,0.3,2.6,0.7c0.5,0.2,1.1,0.5,1.6,0.8
	c0.4,0.2,0.9,0.3,0.8,0.8C113.4,62.6,112.7,62.2,112.6,62.3z"/>
<path class="st89" d="M189.7,135.3c0.4,1.1,1.3,2.1,1,3.3c-0.1,0.6,0.5,0.7,1,0.7c-1.1,1-1.8,1-2.4,0c-0.2-0.4-0.4-0.8-0.5-1.1
	C188.7,137.1,187.9,136,189.7,135.3z"/>
<path class="st90" d="M103.8,135.3c-0.1,0.3-0.1,0.6-0.5,0.7c0-4.8,0-9.7,0-14.5c0-0.4,0-0.7,0.4-1
	C103.7,125.5,103.7,130.3,103.8,135.3z"/>
<path class="st91" d="M215.3,170.8c0-0.1,0-0.2,0-0.2c6.6,0,13.2,0,19.9,0c-0.4,0.3-1,0.3-1.6,0.3
	C227.5,170.8,221.4,170.8,215.3,170.8z"/>
<path class="st92" d="M96.1,100.1c-0.3,0.3-0.6,0.7-0.9,1c-1-0.9-1.5,0-1.7,0.4c-0.4,0.8-1,1.1-2.1,0.9c-0.7-0.5-0.6-1.1-0.5-1.7
	C92.4,99.6,94.4,100.2,96.1,100.1z"/>
<path class="st93" d="M179.8,55.2c-0.6,1.3-1.8,2.3-3.1,3.2c-0.4,0.3-0.9,0.5-1.4,0.2c-0.5-0.4,0.1-0.7,0.4-0.9
	c1.1-1.2,2.2-2.4,4.2-2.9c0.2,0.1,0.2,0.2,0.2,0.3C180,55.2,179.9,55.2,179.8,55.2z"/>
<path class="st94" d="M195.4,60.9c-1.2,0.8-2.2,1.7-3.9,1.8c-0.4,0-1.2,0.2-1.3-0.4c-0.1-0.5,0.3-0.5,0.8-0.7
	c1.5-0.4,2.8-1.3,4.4-1.5C195.8,60.4,195.7,60.6,195.4,60.9z"/>
<path class="st95" d="M178,48.4c-0.7,0.8-1.4,1.6-2,2.4c-0.2,0.2-0.5,0.5-1,0.4c-0.5-0.2-0.3-0.6-0.2-0.9c0.2-1.2,1.3-2.1,2.3-2.9
	C178.2,47.1,178.3,47.3,178,48.4z"/>
<path class="st96" d="M177,164.3c0.5-0.1,1-0.3,1.6-0.3c5.3,0,10.5,0,15.7,0c0.4,0,1,0,1.3,0.3C189.4,164.3,183.1,164.3,177,164.3z"
	/>
<path class="st97" d="M103.7,109.4c-0.6,0-1.6,0.2-1.4-0.7c0.1-0.9,0.4-1.5,1.9-1.5c0.9,0,1.4,0.2,1.5,1
	C105.7,109.4,104.8,109.4,103.7,109.4z"/>
<path class="st98" d="M146.3,169.4c-6,0-11.9,0-17.9,0c-0.2,0-0.2-0.1-0.2-0.2c0-0.1,0.1-0.1,0.1-0.1c6,0,12,0,18,0
	c0.1,0.1,0.2,0.1,0.1,0.2C146.4,169.3,146.3,169.4,146.3,169.4z"/>
<path class="st99" d="M213.9,114.9c5.6,0,11.2,0,16.8,0c0.4,0,1-0.1,1.2,0.3c-5.4,0-10.9,0-16.3,0
	C215.1,115.2,214.4,115.3,213.9,114.9z"/>
<path class="st100" d="M123.5,43.7c0-0.2,0-0.5,0-0.7c0.7-0.5,1.6-0.7,2,0.2c0.5,1.1,1.4,2,1.5,3.5
	C125.4,45.7,124.5,44.6,123.5,43.7z"/>
<path class="st101" d="M159,53c-1.7-1.3-1.1-2.6,0-3.9c0.4-0.3,0.9-0.3,1.4,0c0.2,0.9-0.1,1.7-0.5,2.4C159.5,52,160.1,52.8,159,53z"
	/>
<path class="st102" d="M91.5,164.5c-1.4-0.4-0.4-0.8,0-1.1c0.3,0.9,1.3,0.7,2.1,0.7c4.5,0,9,0,13.6,0c-1.2,0.7-2.6,0.2-3.8,0.4
	C99.3,164.5,95.4,164.5,91.5,164.5z"/>
<path class="st103" d="M178.3,45.7c0.2-1,1.2-1.6,1.9-2.4c0.4-0.5,1-0.9,1.7-0.6c0.8,0.4,0.2,1-0.3,1.4c-1,0.9-2.1,1.7-3.1,2.6
	C178.1,46.4,178.2,46.1,178.3,45.7z"/>
<path class="st104" d="M173.2,145c-5.5,0-11,0-16.5-0.1c0.6-0.5,1.3-0.4,1.9-0.4c4.3,0,8.6,0,12.9,0
	C172.1,144.6,172.8,144.5,173.2,145z"/>
<path class="st105" d="M101.5,57.4c1.8-0.3,3.2-0.1,4.3,1c0.2,0.2,0.8,0.4,0.4,0.8c-0.4,0.3-1,0.4-1.2,0.2
	C104,58.6,102.2,58.6,101.5,57.4z"/>
<path class="st106" d="M192.1,68.4c-1.2,0.8-2.4,1.5-4.1,1.5c-0.4,0-0.9-0.1-1-0.2c-0.3-0.4,0.2-0.7,0.6-0.8c1-0.3,1.8-0.9,2.9-0.8
	C191.2,68,191.9,67.6,192.1,68.4z"/>
<path class="st107" d="M112.3,68c-2.6,0.6-4.3-0.9-6.4-1.6c2.4,0,4.7,0.5,6.8,1.3C112.6,67.9,112.5,68,112.3,68z"/>
<path class="st108" d="M127.1,46.9c1.9,0.7,2.9,1.8,3.5,3.2C128.3,50.1,127.8,49.6,127.1,46.9z"/>
<path class="st109" d="M80.2,100.8c0,0.3,0,0.6,0,0.9c0,0.4-0.3,0.8-0.9,0.9c-0.7,0.1-0.6-0.4-0.8-0.7c-0.3-0.4-0.5-0.7-0.8-1.1
	c-0.4-0.3-1.8-0.4-0.4-1.1C78.6,99.5,79.6,99.8,80.2,100.8z"/>
<path class="st110" d="M195,144.9c-5.1,0-10.1,0-15.2,0c2.7-0.7,5.5-0.2,8.3-0.2C190.4,144.6,192.7,144.3,195,144.9z"/>
<path class="st111" d="M144.6,48.5c-0.4-1.3,0-2.5-0.7-3.6c-0.3-0.4,0-1.1,0.7-1.1c0.6,0,0.8,0.6,0.6,1
	C144.8,45.9,146.7,47.2,144.6,48.5z"/>
<path class="st112" d="M98.9,78.8c-2,1.1-3.6,0.6-5.2-0.7c0.9-0.6,1.7,0.3,2.4,0c0.8-0.2,1.6-0.1,2.3-0.1
	C99.1,78.1,99.4,78.3,98.9,78.8z"/>
<path class="st113" d="M80,109c-1,0.6-2,0.4-3.3,0.3c0.4-1,1.5-1.5,2.3-2.1C81.3,107.3,80.2,108.3,80,109z"/>
<path class="st114" d="M173.2,114.9c4.9,0,9.8,0,14.7,0C183,115.3,178.1,115.4,173.2,114.9z"/>
<path class="st115" d="M189.7,114c-4.9,0-9.7,0-14.5,0c0-0.1,0-0.2-0.1-0.2c4.9,0,9.8,0,14.7,0c0.2,0.1,0.2,0.2,0.1,0.2
	C189.9,114,189.8,114,189.7,114z"/>
<path class="st116" d="M83.8,114c-4.7,0-9.5,0-14.2,0c2.3-0.7,4.7-0.2,7-0.3c2.4-0.1,4.9,0,7.3,0C83.9,113.8,83.8,113.9,83.8,114z"
	/>
<path class="st117" d="M136.7,163.7c0.5-0.5,1.6-0.7,1.6-1.5c0.7,2.2,3.1,1.8,5.2,1.9c-2,0.8-4.2,0.1-6.2,0.4
	C137.2,164.5,136.9,164,136.7,163.7z"/>
<path class="st118" d="M111.8,73.2c-1.5,0.9-2.7,0.9-3.9,0c-0.3-0.2-0.7-0.7-0.1-0.9C109.3,71.8,110.3,72.7,111.8,73.2z"/>
<path class="st119" d="M121.6,170.5c4.4,0,8.8,0,13.2,0c0.4,0,0.8,0,1,0.3C131.2,170.8,126.4,171.1,121.6,170.5z"/>
<path class="st120" d="M213.4,160.4c0.2,0.1,0.4,0.2,0.5,0.4c0.4,1.2,0.1,2.4-0.5,3.5c-0.6-0.7-1.3-1.4-2-2.1
	C210.6,160.7,212.4,160.8,213.4,160.4z"/>
<path class="st121" d="M179.8,55.2c0-0.1,0-0.3,0-0.4c0.6-1.3,2.3-2,2.8-3.2c0.1-0.3,0.4-0.4,0.7-0.3c0.4,0.2,0.4,0.5,0.3,0.8
	C182.7,53.3,181.9,54.7,179.8,55.2z"/>
<path class="st122" d="M178.9,169.1c0,0.1,0,0.2,0,0.3c-4.6,0-9.1,0-13.7,0c-0.2-0.1-0.2-0.1-0.2-0.2c0-0.1,0.1-0.1,0.2-0.1
	C169.7,169.1,174.3,169.1,178.9,169.1z"/>
<path class="st123" d="M213.4,160.4c-0.1,0.4-0.2,0.7-0.8,0.7c-1,0-1.1,0.5-1.1,1.1c-0.8-1.1-1.9-2-3.8-2.1c1.8-0.4,3.5-0.3,5.2,0
	C213.1,160.2,213.3,160.3,213.4,160.4z"/>
<path class="st124" d="M145,49.1c2.5,0.6,1.7,2,1.6,3.4C144.7,51.6,144.7,50.4,145,49.1z"/>
<path class="st125" d="M153.8,114.7c0.8,0,1.6,0.1,2.3,0.1c0.2,0,0.2,0.1,0.2,0.2c0,0.1-0.1,0.1-0.1,0.1c-4.1,0-8.3,0-12.5,0
	c-0.5,0-1,0-1.3-0.3C146.3,114.8,150.1,114.8,153.8,114.7z"/>
<path class="st126" d="M101,77.8c1.4,0.1,2.7,0.4,4.1,0.3c0.5,0,1,0,1,0.6c0,0.5-0.6,0.4-1,0.5c-1.7,0.3-2.8-0.5-4.1-1.1
	C100.6,78,100.6,77.9,101,77.8z"/>
<path class="st127" d="M72.5,114.9c4.4,0,8.8,0,13.2,0c-1,0.6-2.3,0.4-3.4,0.3C79.1,115,75.8,115.5,72.5,114.9z"/>
<path class="st128" d="M193.6,73.4c0.8-0.3,1.7-0.7,2.6-1c0.5-0.2,1.4-0.3,1.6,0.3s-0.5,0.8-1,1C195.7,74,194.7,73.9,193.6,73.4z"/>
<path class="st129" d="M90,102.2c-0.6,0-1.2,0.2-1.5-0.5c-0.3-0.5-0.9-1-1.8-1c-0.3-0.2-0.3-0.4,0-0.6c0.3,0,0.6-0.1,0.9-0.2
	c1.1,0,2,0.2,2.4,1.1C90.7,101.5,91.3,101.9,90,102.2z"/>
<path class="st130" d="M153.8,170.5c0,0.1,0,0.2,0.1,0.2c-4.4,0-8.9,0.4-13.3-0.2c3.6,0,7.2-0.1,10.9-0.1
	C152.2,170.5,153,170.5,153.8,170.5z"/>
<path class="st131" d="M151.9,39.5c0.3-0.5-0.6-1.4,0.8-1.5c0.8-0.1,1.1,0.5,0.9,1c-0.3,0.7,0.2,2-1.2,2.1
	C151.6,41,152.2,40,151.9,39.5z"/>
<path class="st98" d="M106.1,139.5c1.2-0.6,2.5-0.3,3.8-0.3c3.2,0,6.3,0,9.5,0c-0.3,0.1-0.6,0.2-1,0.4
	C114.2,139.6,110.2,139.6,106.1,139.5z"/>
<path class="st132" d="M141.6,119.9c0,3.2-0.1,6.4-0.1,9.6c-0.2,0.2-0.3,0.1-0.3-0.1c0-2.8-0.1-5.7-0.2-8.5
	C141,120.5,141,120.1,141.6,119.9z"/>
<path class="st133" d="M165.2,169.1c0,0.1,0,0.2,0,0.3c-3.6,0-7.2,0-10.8,0c-0.7,0-1.4,0.1-2-0.3C156.7,169.1,161,169.1,165.2,169.1
	z"/>
<path class="st134" d="M89.1,169.1c-1.3,0.7-2.7,0.3-4.1,0.3c-2.9,0.1-5.8,0.1-8.7,0.1l0-0.1c-0.2-0.1-0.2-0.1-0.2-0.2
	c0,0,0.1-0.1,0.2-0.1C80.6,169.1,84.8,169.1,89.1,169.1z"/>
<path class="st135" d="M119.3,59.1c-1.1-0.2-1.8-0.9-2.5-1.6c2-0.6,3.1,0.2,4,1.2C120.7,59.6,119.9,59.3,119.3,59.1z"/>
<path class="st136" d="M151.9,44.6c0-0.7-0.2-1.4,0.8-1.5c0.6,0,1.2,0.4,0.9,1c-0.3,0.6,0.4,1.7-1.1,1.7
	C151.4,45.8,152.4,44.9,151.9,44.6z"/>
<path class="st137" d="M112.3,68c0.2-0.1,0.3-0.2,0.4-0.3c1.8-0.1,3.2,0.7,4.7,1.1c0.1,0.6-0.2,0.9-1,0.7
	C114.8,69.4,113.7,68.5,112.3,68z"/>
<path class="st138" d="M108,144.9c-4,0-7.9,0-11.9,0C100.1,144.4,104.1,144.5,108,144.9z"/>
<path class="st139" d="M123.2,144.9c-3.9,0-7.8,0.1-11.8,0.1c0.6-0.7,1.6-0.4,2.3-0.4C116.9,144.8,120.1,144.3,123.2,144.9z"/>
<path class="st140" d="M128.3,169.1c0,0.1,0,0.2,0,0.3c-3.9,0-7.9,0-11.9,0c0-0.1,0-0.2,0-0.2C120.5,169.1,124.4,169.1,128.3,169.1z
	"/>
<path class="st141" d="M205.9,120.2c0.6,3,0.6,6,0,9C205.9,126.2,205.9,123.2,205.9,120.2z"/>
<path class="st142" d="M127.3,114.9c3.8,0,7.6,0,11.4,0C134.9,115.3,131.2,115.3,127.3,114.9z"/>
<path class="st143" d="M110.3,114.9c3.8,0,7.6,0,11.4,0C117.9,115.3,114.1,115.4,110.3,114.9z"/>
<path class="st144" d="M110.9,153.6c0-1.7-0.1-3.3-0.2-5c0.4-1.2-0.3-2.4,0.7-3.5c0,2.8-0.1,5.7-0.2,8.6
	C111.1,153.8,110.9,153.7,110.9,153.6z"/>
<path class="st145" d="M76.2,105.1c0.3-0.5-0.5-1.6,1-1.4c2,0.2,0.7,1.4,0.9,2.1C77.3,105.8,76.4,106.1,76.2,105.1z"/>
<path class="st146" d="M83.8,114c0-0.1,0-0.2,0.1-0.2c3.6,0,7.2,0,10.8,0c0,0.1,0,0.2,0.1,0.2C91.1,114,87.5,114,83.8,114z"/>
<path class="st147" d="M168,46.2c0.5-0.4,0.9-1.3,1.7-0.9c1,0.5-0.1,1.3-0.3,1.9c-0.3,0.2-0.1,0.8-0.8,0.7c-0.4,0-0.7-0.3-0.8-0.6
	C167.8,47,167.7,46.6,168,46.2z"/>
<path class="st148" d="M123.7,53.3c-0.4,0.1-0.5,0.4-0.5,0.7c-1.1-1-2.3-1.9-3.4-2.8C122,51,122.4,52.6,123.7,53.3z"/>
<path class="st149" d="M150.6,127.7c0-2.6,0-5.2,0-7.8c0.1,0,0.2,0,0.4,0c0,2.6,0,5.3-0.1,7.9C150.8,127.9,150.6,127.9,150.6,127.7z
	"/>
<path class="st150" d="M160.9,164.3c3.5-0.7,7-0.2,10.5-0.2C167.9,164.7,164.4,164.3,160.9,164.3z"/>
<path class="st151" d="M233.8,100.3c-1.1,0-1.7,0.2-1.6,1.2c0,0.3,0.3,0.8-0.4,1c-0.6-0.7-0.8-1.6-1.8-2.1c-0.3-0.1-0.7-0.3-1-0.4
	C230.7,99.4,232.2,100.1,233.8,100.3z"/>
<path class="st152" d="M168,46.2c0,0.5-0.4,1.1,0.3,1.5c0.6,0.3,0.8-0.2,1.1-0.4c-0.1,0.9-0.4,1.7-0.9,2.5c-0.7-0.2-1.4-0.3-1.9-0.7
	C168.6,48.5,166.7,46.9,168,46.2z"/>
<path class="st153" d="M221.5,163.6c2.1,0,4.3-0.3,6.1,0.7c-1.1,0.3-2.2,0.2-3.3,0C223.3,164.3,222.1,164.6,221.5,163.6z"/>
<path class="st154" d="M177.9,148.5c3.1-0.5,6.2-0.6,9.3,0c-0.2,0.1-0.5,0.2-0.7,0.3C183.7,148.3,180.8,148.7,177.9,148.5z"/>
<path class="st155" d="M166.6,49.1c0.8,0,1.8-0.4,1.9,0.7c-0.5,0.4-1,0.7-1.4,1.1c-1.6,0.2-1.2-0.4-1-1.1
	C166.3,49.5,166.5,49.3,166.6,49.1z"/>
<path class="st156" d="M136.6,47.8c-0.2-0.1-0.3-0.2-0.4-0.2c-1.3-0.6-0.9-1.5-0.7-2.3c0,0,0.4-0.2,0.6-0.1c1,0.5,1,1.3,0.7,2.2
	C136.8,47.5,136.7,47.6,136.6,47.8z"/>
<path class="st157" d="M155.3,114c0-0.1,0-0.2,0-0.2c3.3,0,6.6,0,9.9,0c0.1,0.1,0.2,0.1,0.1,0.2c0,0-0.1,0.1-0.2,0.1
	C161.9,114,158.6,114,155.3,114z"/>
<path class="st158" d="M165.2,114c0-0.1,0-0.2,0-0.2c3.3,0,6.6,0,9.9,0c0,0.1,0,0.2,0.1,0.2C171.9,114,168.5,114,165.2,114z"/>
<path class="st159" d="M197.4,59.5c0.4-0.8,1.5-1,2.3-1.4c0.4-0.2,1.2-0.3,1.4,0.2c0.2,0.4-0.1,0.8-0.8,0.9c-0.7,0-1.3,0.2-2,0.3
	C198,59.7,197.7,59.7,197.4,59.5z"/>
<path class="st160" d="M98.6,133.5c0-2.4,0-4.8,0-7.2c0.8,2.4,0.2,4.8,0.3,7.2C98.8,133.6,98.7,133.6,98.6,133.5z"/>
<path class="st161" d="M192.1,68.4c-0.4-0.4-1-0.2-1.4-0.3c1.4-0.4,2.7-0.8,4.1-1.1c0.4-0.1,1-0.2,1.2,0.3c0.2,0.5-0.4,0.5-0.9,0.6
	C194,68,193.1,68.2,192.1,68.4z"/>
<path class="st162" d="M212.9,160.1c-1.8,0-3.5,0-5.2,0c-1.3,0-2.5,0-3.8-0.1C206.9,159.5,210,159.4,212.9,160.1z"/>
<path class="st163" d="M71.6,100.1c0,2.2,0,4.3,0,6.5l-0.1,0c-0.1,0-0.2,0-0.3,0c0-2.1-0.1-4.2-0.1-6.3c0,0,0.1-0.1,0.1-0.1
	C71.3,100.1,71.4,100.1,71.6,100.1z"/>
<path class="st164" d="M171.4,160.5c-3,0.4-6,0.6-9.1,0C165.3,160.5,168.4,160.5,171.4,160.5z"/>
<path class="st165" d="M213.5,164.3c-0.3-1.2,0.6-2.4,0.5-3.5c1,1.1-0.4,2.8,1.8,3.6C215,164.3,214.3,164.3,213.5,164.3z"/>
<path class="st166" d="M92.4,128.8c0.6,2.2,0.6,4.3,0,6.5C92.4,133.1,92.4,131,92.4,128.8z"/>
<path class="st167" d="M98.9,101.5c0.1-0.1,0.1-0.3,0.2-0.4c0.6,2.2,0.6,4.4,0,6.5C99,105.6,99,103.5,98.9,101.5z"/>
<path class="st168" d="M152,50.5c0.7,1.2,0.3,2.4,0.4,3.7c0.1,0.7-0.3,1.4,0.4,2.1c-0.8,0-0.8,0-0.8-0.4C152,54,152,52.2,152,50.5z"
	/>
<path class="st169" d="M111.3,170.8c0-0.1,0-0.2,0-0.2c2.8,0,5.6,0,8.5,0C117,171.2,114.1,170.7,111.3,170.8z"/>
<path class="st170" d="M130.1,136c-0.8-2-0.2-4.1-0.4-6.1c0.2-0.1,0.4-0.2,0.6-0.3C130.2,131.7,130.2,133.9,130.1,136z"/>
<path class="st171" d="M115.9,57.2c-0.7-0.6-2-0.8-1.6-1.8c0-0.1,0.7-0.3,1-0.2C116.8,55.6,115.8,56.5,115.9,57.2z"/>
<path class="st172" d="M86.7,100.1c0,0.2,0,0.4,0,0.6c-1.3,0-2.7,0-2.4,1.5c-0.8-0.3-0.3-1.1-1-1.5c0.5-0.9,1.4-0.8,2.4-0.7
	C86.1,100.1,86.4,100.1,86.7,100.1z"/>
<path class="st173" d="M160.5,45.5c0-0.7-0.4-1.4,0.6-2.4c0.5,1.6,0.6,2.9-0.1,4.2C160,46.8,161,46.1,160.5,45.5z"/>
<path class="st174" d="M185.5,59.4c-0.6,0.6-1.3,1-2.3,0.8c-0.2,0-0.4-0.2-0.4-0.3c0.2-0.8,1.1-0.8,1.8-1.1c0.4-0.2,0.7-0.2,1,0
	C185.8,59,185.7,59.2,185.5,59.4z"/>
<path class="st175" d="M120.2,78.8c-0.7-1.3-2.2-0.4-3.3-0.7c-0.1-0.1-0.2-0.1-0.1-0.2c0,0,0.1,0,0.2,0c1.8,0,3.5,0,5.5,0
	C121.8,78.5,120.9,78.6,120.2,78.8z"/>
<path class="st176" d="M137.2,50c0.1-0.4-0.1-1,0.7-1c1.2,0,0.6,0.7,0.8,1.2c0.1,0.5-0.2,1-1,0.9C137,51,137.4,50.4,137.2,50z"/>
<path class="st177" d="M71,156.5c-0.4-0.6-0.8-1.3-1.8-1.5c-0.4-0.8,0.6-1.4,0.5-2.2C70.1,154.1,71.2,155.2,71,156.5z"/>
<path class="st178" d="M221.5,139.5c2.5-0.5,5.1-0.5,7.6,0C226.5,139.5,224,139.5,221.5,139.5z"/>
<path class="st179" d="M155.2,139.5c2.5-0.7,5.1-0.1,7.7-0.2C160.4,139.9,157.8,139.5,155.2,139.5z"/>
<path class="st180" d="M164.8,109c2.5,0,4.9,0,7.4,0C169.7,109.6,167.3,109.7,164.8,109z"/>
<path class="st181" d="M230.9,158.3c0.2-0.2,0.4-0.3,0.6-0.4c1.4,0.1,2,0.8,1.8,1.8c-0.2,0.4-0.3,0.9-1,1.1
	C232.8,159.6,231.4,159.1,230.9,158.3z"/>
<path class="st182" d="M185.5,59.4c0.1-0.5-0.4-0.6-0.9-0.7c1-0.6,1.9-1.2,2.8-1.8c0.4,0,0.9,0.1,1.1,0.4
	C187.1,57.7,186.4,58.6,185.5,59.4z"/>
<path class="st183" d="M186.9,160.4c0.5,0,1,0,1.4,0c1.2,0.3,2.6-0.3,3.8,0.3c-2.5,0-5.1,0-7.6,0
	C185.3,160.2,186.2,160.5,186.9,160.4z"/>
<path class="st184" d="M166.1,49.8c0.1,0.5-0.2,1.2,1,1.1c-0.4,0.6-0.9,1.1-1,1.7c-0.4-0.3-0.8-0.4-1.4-0.3
	C165.8,51.7,165.4,50.5,166.1,49.8z"/>
<path class="st185" d="M188.4,79.2c2.3-0.7,4.8-0.1,7.2-0.2C193.2,79.6,190.7,79.1,188.4,79.2z"/>
<path class="st186" d="M141.2,129.5c0.1,0,0.2,0,0.3,0.1c0.1,1.1,0.3,2.1,0.4,3.3c-1.1-0.5-1.3-1.2-1.4-1.8
	C141.4,130.7,140.9,130,141.2,129.5z"/>
<path class="st187" d="M188.5,57.4c-0.4-0.1-0.9,0-1.1-0.4c0.2-0.1,0.3-0.3,0.5-0.4c0.6-0.2,1.2-1.1,1.8-0.3
	C190.2,56.8,189.3,57.2,188.5,57.4z"/>
<path class="st96" d="M195.8,164.3c0-0.4,0.1-0.7,0.2-1.1c0.4,0,0.8,0,1.3,0c0,1.5,1.4,1,2.5,1.2
	C198.4,165.1,197.1,164.7,195.8,164.3z"/>
<path class="st188" d="M156.3,115.1c0-0.1,0-0.2,0-0.3c2.4,0,4.8,0,7.1,0C161,115.6,158.6,115,156.3,115.1z"/>
<path class="st189" d="M161.9,156.2c2.2,0,4.4,0,6.6,0c-1.2,0.7-2.6,0.2-3.9,0.3c-0.9,0-1.9-0.1-2.7,0.4
	C161.6,156.6,161.6,156.4,161.9,156.2z"/>
<path class="st190" d="M173.8,127.3c-0.4,1.3,0.6,2.7-0.6,4c0-1.8,0-3.6,0-5.4C174,126.3,173.5,126.9,173.8,127.3z"/>
<path class="st191" d="M120.3,160.4c-0.5-0.9-0.2-2-1-2.8c0.7-0.1,1.4-0.2,1.9,0.3c-1.7,0.8-0.3,1.9-0.5,2.9
	C120.6,160.6,120.4,160.6,120.3,160.4z"/>
<path class="st192" d="M231.3,108c-0.2,0.4-0.4,0.7-0.5,1.1c-0.4,0.2-0.8,0.2-1.2,0c-0.4-0.4-0.6-0.9-0.5-1.5
	C230,107.4,230.7,107.5,231.3,108z"/>
<path class="st193" d="M103.5,71.7c0.9-0.1,1.4,0.2,1.5,0.7c0.1,0.4-0.4,0.4-0.8,0.4c-0.6,0-1.3,0.1-1.4-0.6
	C102.7,71.7,103.3,71.7,103.5,71.7z"/>
<path class="st194" d="M98.6,133.5c0.1,0,0.2,0,0.4,0c-0.2,1.7,0.6,3.4-0.3,5C98.6,136.9,98.6,135.1,98.6,133.5z"/>
<path class="st195" d="M219.6,104.7c-0.3,0.7,0.2,1.5-0.4,2.2c0-1.7,0-3.4,0-5.1C220.1,102.7,219.3,103.8,219.6,104.7z"/>
<path class="st196" d="M138.7,139.3c0.8,0,1.6-0.1,2.5-0.1c1.4,0,2.8,0.1,4.2,0.2c0,0.1,0,0.2,0,0.3
	C143.1,139.4,140.9,140,138.7,139.3z"/>
<path class="st197" d="M127.9,58c0.7,0.1,1-0.2,1-0.7c1.1,0.9,0.2,1.9,0.5,3.1C127.9,59.8,128.8,58.6,127.9,58z"/>
<path class="st198" d="M228.6,136.8c-2.2,0.5-4.4,0.4-6.6,0C224.1,136.8,226.4,136.8,228.6,136.8z"/>
<path class="st199" d="M189.7,135c-1.6,0-3.1,0-4.7,0c-0.6,0-1.3-0.1-1.9-0.1C185.4,134.5,187.6,134.3,189.7,135z"/>
<path class="st200" d="M94.8,114c0-0.1-0.1-0.2-0.1-0.2c2.1,0,4.1,0,6.2,0c0,0.1,0,0.2-0.1,0.2C98.8,114,96.8,114,94.8,114z"/>
<path class="st201" d="M80,109c0-0.7,1-1.7-0.9-1.8c0.7-0.8,1.8,0.3,2.5-0.2c0,0.3-0.1,0.7-0.1,1C80.4,107.8,80.9,109,80,109z"/>
<path class="st202" d="M82.1,123.5c1-0.9,2.4-0.3,3.6-0.4c0.8-0.1,1.7,0,2.5,0C86.2,123.9,84.1,123.1,82.1,123.5z"/>
<path class="st203" d="M159,53c0.3-0.5,0.6-1,0.9-1.4c0.1,0.9,0.2,1.7-0.2,2.7C158.6,54.1,159.2,53.4,159,53z"/>
<path class="st204" d="M197.4,59.5c0.3,0,0.6,0,0.9,0c-0.5,1-2.1,0.7-2.9,1.4c0-0.3,0-0.5,0-0.8C196,59.6,196.6,59.5,197.4,59.5z"/>
<path class="st205" d="M101,77.8c0,0.1,0,0.2,0,0.3c-0.9-0.1-1.3,0.6-2.1,0.7c-0.4-1.3-1.9-0.3-2.7-0.7
	C97.7,77.5,99.4,77.8,101,77.8z"/>
<path class="st206" d="M84.8,109.7c0.5-0.2,1-0.4,1.4-0.6c1,0.4,1.7,0.1,2.3-0.4c0.5,0.2,0.6,0.5,0.6,0.8
	C87.7,110.2,86.2,109.6,84.8,109.7z"/>
<path class="st207" d="M117,95.4c-2.1,0-4.2,0-6.2,0C112.8,94.9,114.9,94.7,117,95.4z"/>
<path class="st208" d="M89.1,109.4c-0.6-0.1-0.5-0.5-0.6-0.8c0.2-0.3,0.3-0.7,0.5-1c0.5,0.2,0.9,0.4,1.4,0.7
	C90.1,108.8,89.8,109.2,89.1,109.4z"/>
<path class="st209" d="M119.3,59.1c0.6-0.1,1.2,0.2,1.5-0.4c0.6,0.4,1.3,0.7,1.4,1.4c-0.2,0.2-0.4,0.3-0.6,0.4
	C121.2,59.8,120.1,59.6,119.3,59.1z"/>
<path class="st210" d="M224.3,164.4c1.1,0,2.2,0,3.3,0c0.8,0,1.6,0,2.4,0.1C228.1,165,226.2,164.9,224.3,164.4z"/>
<path class="st211" d="M199.3,101.2c-0.1-1.1-1.3-0.7-2-0.9c1.1-0.5,2.3-0.4,3.4-0.2c0.1,0.2,0.2,0.5,0.4,0.7
	C200.4,100.7,199.9,100.9,199.3,101.2z"/>
<path class="st212" d="M117,77.8c0,0.1,0,0.2-0.1,0.2c-1.9,0-3.8,0-5.7,0C113.1,77.4,115.1,78,117,77.8z"/>
<path class="st213" d="M172.2,138.5c0,0.9,0.9,0.7,1.6,0.7c0.9,0,1.8,0,2.7,0c-1.2,0.6-2.6,0.3-3.9,0.3
	C171.6,139.6,171.7,139,172.2,138.5z"/>
<path class="st214" d="M161.9,156.2c0,0.2,0,0.4,0,0.7c0,1.2,0,2.3,0,3.5C161,159,161.1,157.6,161.9,156.2z"/>
<path class="st215" d="M122.6,95.4c0.2-0.2,0.3-0.4,0.4-0.7c0.6-0.1,1.1-0.1,1.5,0.3c-1.9,0.7-0.4,2-1,2.9
	C122.5,97.2,123.8,96.1,122.6,95.4z"/>
<path class="st216" d="M90,102.2c0.8-0.4,0.1-0.8,0-1.1c0.3-0.1,0.6-0.2,0.9-0.3c0.9,0.4,0.3,1.2,0.5,1.7
	C90.9,102.6,90.4,102.7,90,102.2z"/>
<path class="st217" d="M212,144.9c-1.9,0-3.8,0-5.8,0C208.2,144.4,210.1,144.5,212,144.9z"/>
<path class="st218" d="M127.3,63.9c0.2-0.2,0.3-0.5,0.4-0.7c0.9,0.1,1.2,0.6,1.5,1.2C128.3,64.8,127.8,64.4,127.3,63.9z"/>
<path class="st219" d="M129.3,75.2c0.7,1.3,0.2,2.7,0.3,4C128.8,78,129.3,76.6,129.3,75.2z"/>
<path class="st220" d="M76.3,169.1c0,0.1,0,0.2,0,0.3c-1.8,0-3.5,0-5.3,0C72.8,168.7,74.6,169.2,76.3,169.1z"/>
<path class="st221" d="M95.7,114.9c1.8,0,3.5,0,5.3,0C99.2,115.3,97.4,115.4,95.7,114.9z"/>
<path class="st222" d="M133.9,108.8c1.8,0,3.6,0,5.4,0C137.5,109.3,135.7,109.2,133.9,108.8z"/>
<path class="st223" d="M77.3,99.7c-0.6,0.5,0.2,0.7,0.4,1.1c-0.9,0-1.8,0-2.7,0c0-0.1-0.1-0.2-0.1-0.4
	C75.6,100.1,76.3,99.6,77.3,99.7z"/>
<path class="st224" d="M109.8,78.9c1.8,0.1,3.6-0.4,5.3,0.2C113.3,79.1,111.5,79.6,109.8,78.9z"/>
<path class="st225" d="M141.7,58.7c1.7,0.7,1.3-0.3,1.2-0.9c0.9,0.5,0.9,1.4,0.3,1.8C142.4,60,142,59.2,141.7,58.7z"/>
<path class="st226" d="M69.2,123.4c1.8-0.6,3.5-0.5,5.3,0C72.7,123.4,70.9,123.4,69.2,123.4z"/>
<path class="st60" d="M189.7,114c0-0.1,0.1-0.2,0.1-0.2c1.6,0,3.1,0,4.7,0C193,114.4,191.3,114,189.7,114z"/>
<path class="st133" d="M146.3,169.4c0-0.1,0-0.2,0-0.3c1.6,0,3.1,0,4.7,0c0,0.1,0,0.2,0,0.3C149.4,169.4,147.8,169.4,146.3,169.4z"
	/>
<path class="st227" d="M118.3,92.9c0,0.9,0.2,1.7,0.1,2.6c-0.2,1-0.6,0.3-1,0C118.5,94.8,117.3,93.6,118.3,92.9z"/>
<path class="st228" d="M186.4,92.2c-0.1-0.2-0.3-0.5-0.4-0.8c0.6-0.5,0.2-1.3,0.9-1.8c0,0.7,0,1.5,0.4,2.2
	C187,92,186.7,92.1,186.4,92.2z"/>
<path class="st229" d="M71.2,106.6c0.1,0,0.2,0,0.3,0c0.4,1.1-0.5,2.2,0.6,3.2c-1.2,0.2-1-0.6-1-1.1C71.1,108,71.1,107.3,71.2,106.6
	z"/>
<path class="st230" d="M160.4,49.1c-0.4,0-0.9,0-1.4,0c0.8-0.8-0.2-1.9,0.8-2.6c0.6,0.3,0.5,0.8,0.6,1.2
	C160,48.2,160.1,48.6,160.4,49.1z"/>
<path class="st231" d="M167.1,152.5c-1.6,0.4-3.2,0.6-4.8,0C163.9,152.6,165.5,152.6,167.1,152.5z"/>
<path class="st232" d="M116.4,69.6c0.4-0.2,0.9-0.3,1-0.7c1,0,1.3,0.7,0.9,1.1C117.7,70.5,117,70,116.4,69.6z"/>
<path class="st233" d="M178.3,45.7c0,0.3,0.1,0.7,0.2,1c0,0.6,0.2,1.2-0.5,1.7c-0.1-0.4,0.2-1.1-0.8-1.1
	C177.5,46.8,177.9,46.3,178.3,45.7z"/>
<path class="st234" d="M160.5,47.7c-0.9-0.2-0.5-0.8-0.6-1.2c0.2-0.4,0.4-0.7,0.6-1c0.7,0.5,0.3,1.2,0.5,1.8
	C160.8,47.4,160.7,47.6,160.5,47.7z"/>
<path class="st235" d="M233.3,125.1c-1.6,0-3.3,0.4-4.8-0.3C230.1,125,231.8,124.5,233.3,125.1z"/>
<path class="st236" d="M201,79.3c-0.6-0.2-1.8,0.3-1.7-0.7c0.2-0.9,1.3-0.4,1.9-0.4c0.7,0,2.1-0.4,2.1,0.4
	C203.4,79.5,201.9,79.1,201,79.3z"/>
<path class="st237" d="M207.2,78.5c1-0.2,2.5-2.1,2.9,0.4C209.1,78.9,207.9,79.6,207.2,78.5z"/>
<path class="st238" d="M207.2,78.5c0.8,0.8,1.9,0.3,2.9,0.4c-1.4,0.8-2.9,0.2-4.5,0.4C206.1,78.7,206.6,78.5,207.2,78.5z"/>
<path class="st239" d="M148.2,74.6c-2.4,0.4-4.8,0.6-7.2,0C143.4,74.6,145.8,74.6,148.2,74.6z"/>
<path class="st240" d="M163.8,74.6c-2.1,0.7-4.5,0-6.6,0.4c-0.5,0-1,0-1.4,0c-0.1-0.1-0.1-0.1-0.1-0.2c0-0.1,0-0.1,0.1-0.1
	C158.4,74.6,161.1,74.6,163.8,74.6z"/>
<path class="st241" d="M117.4,149.2c0-0.3,0.1-0.7,0.2-1c1.9-0.2,3.9,0.7,4.9,2.3c0.6,1,1.7,2.1-0.2,3.1c-1.3,0.9-2.8,0.7-4.3,0.6
	C116.5,152.7,117.4,150.9,117.4,149.2z"/>
<path class="st242" d="M122.2,153.6c1.2-0.9,0.4-1.8-0.2-2.6c-1-1.4-2.2-2.6-4.5-2.8c1.5-0.6,2.9-0.9,4.2,0.3
	c1.3,0.8,2.1,1.8,2.7,2.9C124.3,152.5,123.6,153.3,122.2,153.6z"/>
<path class="st243" d="M124.4,151.5c-1.3-0.7-2.1-1.8-2.7-2.9C124.6,148.4,124.2,150.1,124.4,151.5z"/>
<path class="st244" d="M110.9,153.6c0.1,0,0.2,0,0.4,0c0,3,0.5,6-0.4,9C110.9,159.6,110.9,156.6,110.9,153.6z"/>
<path class="st245" d="M117.4,149.2c0.4,1.7-0.6,3.4,0.6,5c-0.8,0.1-1-0.4-1-0.8C117,152.1,116.6,150.6,117.4,149.2z"/>
<path class="st246" d="M140.2,138.1c-1.2,0.7-1.6-0.1-2-0.7c-2.5-3-4.3-6.3-7.4-8.9c-0.6-0.5-0.6-1.1-0.5-1.8
	c2.4,1.4,3.5,3.6,5.2,5.4C137,134,138.6,136.1,140.2,138.1z"/>
<path class="st247" d="M146.9,129.2c0.7,2.2,0.5,4.3,0,6.5C146.9,133.5,146.9,131.3,146.9,129.2z"/>
<path class="st248" d="M147.1,121.3c-0.1,1.9,0.6,3.9-0.4,5.8C146.9,125.1,146.3,123.1,147.1,121.3z"/>
<path class="st249" d="M183.5,131.7c-1.8,0.3-2-0.2-1.7-1.5c0.6-1.8,2.4-3.3,2.9-5.2c0-0.2,0.6-0.4,0.9-0.4c0.5,0,0.3,0.4,0.4,0.7
	c0.5,1.6,1,3.2,1.4,4.8c0.2,0.7-0.1,1.1-1.1,1.3C185.3,131.4,184.5,131.8,183.5,131.7z"/>
<path class="st250" d="M209,149.3c0.9,2.1,1.8,4.1,2.6,6.2c0.2,0.6-0.7,0.9-1.2,0.9c-1.4,0.1-2.8,0.1-4.3,0.1
	c-1.2-0.1-0.6-0.7-0.4-1.1c0.9-2,2.7-3.7,2.7-6C208.5,149.3,208.8,149.3,209,149.3z"/>
<path class="st251" d="M233.3,159.7c-0.4-0.7-0.8-1.4-1.8-1.8c-0.3-0.7-1.9-0.8-1.4-1.8c1.3,0.4,2.3,1,3.3,1.7
	C234.3,158.4,234.8,159.1,233.3,159.7z"/>
<path class="st252" d="M99.4,152.6c2.2,0,4.4-0.1,6.6-0.1c1.3,2.6,0.4,3.6-2.9,3.7c-1.1,0-2.2,0-3.3,0
	C100.9,154.8,99.6,153.7,99.4,152.6z"/>
<path class="st253" d="M91.5,161.2c0.9-2.2,0.3-4.4,0.4-6.5c0-0.7,0.1-1.4,0.1-2.2c0.7,2.7,0.4,5.4,0.3,8.1
	C92.2,160.9,91.9,161,91.5,161.2z"/>
<path class="st254" d="M98,160.5c2.4,0,4.8-0.4,7.2,0.2C102.8,160.6,100.4,161.1,98,160.5z"/>
<path class="st255" d="M141.1,158.2c0.6,0.1,1.2,0,1.8-0.4c0.3,0.5,0.1,0.9,0,1.4c-0.3,0.2-0.1,0.8-0.7,0.8c-0.6,0-0.4-0.5-0.7-0.8
	C141.5,159,141.3,158.6,141.1,158.2z"/>
<path class="st256" d="M141.6,159.3c0.4,0.7,0.9,0.6,1.3,0c0.1,0.7-0.1,1.2-0.9,1.7C141.3,160.6,141.5,159.9,141.6,159.3z"/>
<path class="st257" d="M118.4,127.7c-1.9,0-3.9,0-5.9,0c-0.8,0-1.6,0.2-2.2-0.3c2.1,0,4.3,0,6.4,0
	C117.3,127.3,118,127.2,118.4,127.7z"/>
<path class="st258" d="M112.2,123.4c2.5-0.7,5.1,0,7.6-0.3C117.3,123.8,114.7,123.3,112.2,123.4z"/>
<path class="st259" d="M124.5,132.7c0,1.8,0.5,3.7-0.4,5.4C124.2,136.4,123.6,134.5,124.5,132.7z"/>
<path class="st260" d="M166.2,132.8c0-0.6-0.1-1.3-0.1-1.9c-0.4-0.4-0.4-1-0.1-1.3c1-1.3,0.3-2.4-0.9-3.3c-1.5-1.7-3.2-3.1-6.1-3.2
	c0.2,0,0.3-0.1,0.5-0.1c0.7,0,1.4,0.1,2.1,0.1c3.8,0,4.8,0.5,6,3.2c0.1,1.9,1,3.9-0.1,5.8C167.2,132.4,167.2,133,166.2,132.8z"/>
<path class="st261" d="M156.6,127c0.1,2.8,0.1,5.7,0.2,8.6c-0.2,0-0.4,0-0.6,0C156.4,132.7,155.7,129.9,156.6,127z"/>
<path class="st262" d="M167.6,132.1c0-1.9,0-3.8,0.1-5.8C168,128.2,169.5,130.1,167.6,132.1z"/>
<path class="st263" d="M150.5,138.5c0-1.5,0-3.1,0-4.6c0.1-0.2,0.2-0.2,0.4,0c0,0.9,0.1,1.7,0.2,2.5
	C150.8,137.1,151.3,137.9,150.5,138.5z"/>
<path class="st264" d="M223.8,133.8c0.6-0.4,1.3-0.3,2-0.4c1.4,0,2.8,0.1,4.3,0.1C227.9,134.2,225.8,133.8,223.8,133.8z"/>
<path class="st265" d="M150.9,133.8c-0.1,0-0.2,0-0.4,0c0-2.1,0-4.1,0-6.2c0.1,0,0.2,0,0.3,0.1C150.9,129.8,150.9,131.8,150.9,133.8
	z"/>
<path class="st266" d="M217.1,126c0.2-0.7-0.4-1.5,0.5-2.2c-0.4,1.8,0.8,3.7-0.4,5.4C217.2,128.1,217.2,127.1,217.1,126z"/>
<path class="st267" d="M212.5,106.6c0-1.5,0-2.9,0-4.4C213.1,103.7,213.3,105.1,212.5,106.6z"/>
<path class="st268" d="M230,100.4c2.3-0.2,1.8,1.1,1.8,2.1c-1.5,0.6-0.6,1.7-1,2.6c-0.6,0.4-1.3,0.8-2.1,0.2c-0.3-0.8,0-1.6,0.2-2.4
	C228.9,102,229.3,101.2,230,100.4z"/>
<path d="M229.1,105.5c0.5-0.3,1.1-0.4,1.8-0.4c0.2,0.4,0.8,0.6,0.7,1.1c-0.1,0.6-0.1,1.2-0.2,1.8c-0.8,0-1.5,0-2.2-0.4
	c-0.1-0.1-0.1-0.2-0.2-0.4C228.9,106.6,228.4,106,229.1,105.5z"/>
<path class="st48" d="M229.1,105.5c0,0.6-0.1,1.2-0.2,1.8c-1.9-1.4-0.7-2.8,0-4.3C229,103.8,229.1,104.6,229.1,105.5z"/>
<path class="st269" d="M209.6,106.9c-0.2-0.2-0.3-0.5-0.5-0.7c0.2-1.3-0.4-2.7,0.4-4C209.6,103.8,209.6,105.3,209.6,106.9z"/>
<path class="st270" d="M165.1,126.3c1.9,0.7,2.4,1.7,1.4,3.1c-0.3,0.4-0.3,1-0.4,1.5c-0.4-0.2-0.6-0.7-0.4-0.9
	C166.4,128.7,165.7,127.5,165.1,126.3z"/>
</svg>
