<?xml version="1.0" encoding="utf-8"?>
<!-- Generator: Adobe Illustrator 27.1.0, SVG Export Plug-In . SVG Version: 6.00 Build 0)  -->
<svg version="1.1" id="Capa_1" xmlns="http://www.w3.org/2000/svg" xmlns:xlink="http://www.w3.org/1999/xlink" x="0px" y="0px"
	 viewBox="0 0 1043.1 915.2" style="enable-background:new 0 0 1043.1 915.2;" xml:space="preserve">
<style type="text/css">
	.st0{fill:#FEFEFE;}
	.st1{fill:#D0D0D0;}
	.st2{fill:#7C7C7C;}
	.st3{fill:#353535;}
	.st4{fill:#3D3D3D;}
	.st5{fill:#383835;}
	.st6{fill:#363734;}
	.st7{fill:#363735;}
	.st8{fill:#363634;}
	.st9{fill:#373735;}
	.st10{fill:#363636;}
	.st11{fill:#373736;}
	.st12{fill:#363736;}
	.st13{fill:#3C3C3C;}
	.st14{fill:#B2B2B2;}
	.st15{fill:#5A5A5A;}
	.st16{fill:#E2E2E2;}
	.st17{fill:#2A2A2A;}
	.st18{fill:#383838;}
	.st19{fill:#373737;}
	.st20{fill:#9E9E9C;}
	.st21{fill:#FCFCFC;}
	.st22{fill:#D1D2CF;}
	.st23{fill:#ACACAC;}
	.st24{fill:#A3A4A2;}
	.st25{fill:#E9E9E9;}
	.st26{fill:#5C5C5B;}
	.st27{fill:#D1D1D1;}
	.st28{fill:#EAEAE9;}
	.st29{fill:#DDDDDC;}
	.st30{fill:#B0B0AE;}
	.st31{fill:#DFDFDF;}
	.st32{fill:#868684;}
	.st33{fill:#6F6F6E;}
	.st34{fill:#C5C5C5;}
	.st35{fill:#535353;}
	.st36{fill:#595958;}
	.st37{fill:#666666;}
	.st38{fill:#9E9E9E;}
	.st39{fill:#B6B6B6;}
	.st40{fill:#888885;}
	.st41{fill:#626260;}
	.st42{fill:#525251;}
	.st43{fill:#787977;}
	.st44{fill:#959595;}
	.st45{fill:#FAFAFA;}
	.st46{fill:#747474;}
	.st47{fill:#505050;}
	.st48{fill:#3B3B3B;}
	.st49{fill:#535352;}
	.st50{fill:#7F7F7F;}
	.st51{fill:#919190;}
	.st52{fill:#E4E4E3;}
	.st53{fill:#5D5E5C;}
	.st54{fill:#999997;}
	.st55{fill:#787878;}
	.st56{fill:#70706E;}
	.st57{fill:#5F5F5E;}
	.st58{fill:#414141;}
	.st59{fill:#DCDDDC;}
	.st60{fill:#C5C5C4;}
	.st61{fill:#434343;}
	.st62{fill:#3F3F3F;}
	.st63{fill:#9F9F9E;}
	.st64{fill:#939393;}
	.st65{fill:#6F6F6F;}
	.st66{fill:#A1A1A1;}
	.st67{fill:#E8E8E7;}
	.st68{fill:#757575;}
	.st69{fill:#676865;}
	.st70{fill:#989898;}
	.st71{fill:#848583;}
	.st72{fill:#515151;}
	.st73{fill:#4A4A4A;}
	.st74{fill:#C3C4C3;}
	.st75{fill:#9E9F9C;}
	.st76{fill:#AEAEAD;}
	.st77{fill:#959593;}
	.st78{fill:#4B4B4B;}
	.st79{fill:#D3D3D3;}
	.st80{fill:#B8B9B7;}
	.st81{fill:#4E4E4E;}
	.st82{fill:#646464;}
	.st83{fill:#9E9F9D;}
	.st84{fill:#D9D9D9;}
	.st85{fill:#5B5B5B;}
	.st86{fill:#808080;}
	.st87{fill:#3A3A3A;}
	.st88{fill:#B0B0B0;}
	.st89{fill:#868686;}
	.st90{fill:#898988;}
	.st91{fill:#545452;}
	.st92{fill:#5D5D5B;}
	.st93{fill:#474747;}
	.st94{fill:#8B8B8B;}
	.st95{fill:#ACADAA;}
	.st96{fill:#737373;}
	.st97{fill:#C0C0C0;}
	.st98{fill:#393939;}
	.st99{fill:#282828;}
	.st100{fill:#C6C6C6;}
	.st101{fill:#B1B1AF;}
	.st102{fill:#7D7D7B;}
	.st103{fill:#828282;}
	.st104{fill:#AEAEAE;}
	.st105{fill:#DADAD9;}
	.st106{fill:#C1C2BF;}
	.st107{fill:#D5D5D5;}
	.st108{fill:#858683;}
	.st109{fill:#656565;}
	.st110{fill:#898987;}
	.st111{fill:#BCBDBC;}
	.st112{fill:#565656;}
	.st113{fill:#676767;}
	.st114{fill:#CDCDCD;}
	.st115{fill:#D6D6D5;}
	.st116{fill:#B8B8B6;}
	.st117{fill:#878785;}
	.st118{fill:#555555;}
	.st119{fill:#A2A2A0;}
	.st120{fill:#494949;}
	.st121{fill:#AFAFAF;}
	.st122{fill:#5E5F5E;}
	.st123{fill:#DEDEDE;}
	.st124{fill:#979797;}
	.st125{fill:#484848;}
	.st126{fill:#424242;}
	.st127{fill:#CBCBCB;}
	.st128{fill:#464646;}
	.st129{fill:#6E6E6D;}
	.st130{fill:#595959;}
	.st131{fill:#C8C8C8;}
	.st132{fill:#6A6A69;}
	.st133{fill:#4C4C4C;}
	.st134{fill:#747472;}
	.st135{fill:#262626;}
	.st136{fill:#A5A5A5;}
	.st137{fill:#888986;}
	.st138{fill:#2D2D2D;}
	.st139{fill:#B1B1B1;}
	.st140{fill:#313131;}
	.st141{fill:#898989;}
	.st142{fill:#B1B1B0;}
	.st143{fill:#767674;}
	.st144{fill:#8C8C8C;}
	.st145{fill:#C9C9C9;}
	.st146{fill:#3E3E3E;}
	.st147{fill:#A3A3A3;}
	.st148{fill:#D2D2D0;}
	.st149{fill:#D2D2D2;}
	.st150{fill:#818181;}
	.st151{fill:#7E7E7E;}
	.st152{fill:#6A6A6A;}
	.st153{fill:#696969;}
	.st154{fill:#525252;}
	.st155{fill:#6E6E6E;}
	.st156{fill:#909090;}
	.st157{fill:#CECECE;}
	.st158{fill:#C7C7C7;}
	.st159{fill:#D4D4D4;}
	.st160{fill:#A0A19E;}
	.st161{fill:#888888;}
	.st162{fill:#C2C3C0;}
	.st163{fill:#616161;}
	.st164{fill:#A9A9A8;}
	.st165{fill:#969696;}
	.st166{fill:#949494;}
	.st167{fill:#8F8F8C;}
	.st168{fill:#8F8F8F;}
	.st169{fill:#5E5E5E;}
	.st170{fill:#727272;}
	.st171{fill:#6B6B6B;}
	.st172{fill:#757674;}
	.st173{fill:#585858;}
	.st174{fill:#6C6C6C;}
	.st175{fill:#757574;}
	.st176{fill:#CACACA;}
	.st177{fill:#E1E1DE;}
	.st178{fill:#5F5F5F;}
	.st179{fill:#AAAAAA;}
	.st180{fill:#7B7B7B;}
	.st181{fill:#FBFBFB;}
	.st182{fill:#FDFDFC;}
	.st183{fill:#FCFCFB;}
	.st184{fill:#A6A6A6;}
	.st185{fill:#A8A8A6;}
	.st186{fill:#E2E2E0;}
	.st187{fill:#6D6E6C;}
	.st188{fill:#8B8B89;}
	.st189{fill:#B7B7B6;}
	.st190{fill:#F7F7F5;}
	.st191{fill:#E4E4E2;}
	.st192{fill:#6E6F6C;}
	.st193{fill:#B3B4B1;}
	.st194{fill:#F8F8F6;}
	.st195{fill:#E3E3E1;}
	.st196{fill:#575855;}
	.st197{fill:#EDEDED;}
	.st198{fill:#CCCDCB;}
	.st199{fill:#E8E8E8;}
	.st200{fill:#777777;}
	.st201{fill:#FDFDFD;}
	.st202{fill:#E5E6E3;}
	.st203{fill:#6D6D6D;}
	.st204{fill:#FDFEFB;}
	.st205{fill:#A2A29F;}
	.st206{fill:#696A67;}
	.st207{fill:#A3A4A1;}
	.st208{fill:#6C6D6A;}
	.st209{fill:#F3F3F3;}
	.st210{fill:#BABABA;}
	.st211{fill:#B4B4B4;}
	.st212{fill:#B9B9B9;}
	.st213{fill:#737471;}
	.st214{fill:#AFAFAD;}
	.st215{fill:#343434;}
	.st216{fill:#555553;}
</style>
<path class="st0" d="M828.6,263.1c4.9-0.3,9.1,0.7,12.4,3.8c2.9,2.7,5.6,2.8,9.1,0.2c11.7-8.7,23.4-2.9,34.2,1.3
	c11,4.3,6.3,13.5,5.9,20.5c-0.7,10.8-10.7,16.2-23.7,13.7c-5.3-1-9.8-0.5-14.9,0.3c-9.4,1.4-19.3,3.2-27.3-3.8
	c-6.9-6.1-11.9-0.2-17.3,2.2c-16.1,2.1-16.1,2.1-12.4,20.4c-0.7,3.7-0.8,7.6-2.1,11.2c-2.5,7-0.5,11.1,8.6,13.2
	c18.8,4.5,11.8,18.9,14.5,28.9c2.1,7.7-8.2,9.8-16.1,10.2c-8.6,0.5-8.1,5.2-8,9.9c0.1,5.4-1.4,11.8,8.2,12.9
	c15.5,1.8,30.5,5.4,46.8,0.7c18.3-5.3,36.7-0.6,44.4,9.9c2.7-12.3,14.3-9,22.4-8.9c18.7,0.2,38.5-9.3,56.1,3.2
	c1.6,1.1,2.9,0.9,5.1-0.1c22.3-10.3,40.2-1.7,40.3,19.1c0,16.1,0.1,32.2,0,48.3c0,6.4-0.3,11.9,11.5,10c7.7-1.2,13.6,3.6,12.9,9.8
	c-1.1,10.9,0.8,22.2-3.8,32.8c-2,4.5,0.3,6.2,4.2,8c2.4,8.5,2.4,17,0,25.5c-5.6,0.5-6.7,3-5,7.1c3.8,9.1-2.1,13.9-11.9,15.4
	c-5.6,0.9-7.1,3.6-9.4,7c-7.4,11.3-5.2,15.1,9.9,16.3c16.2,1.3,23,7.8,18.4,20.8c-4.6,13.3,0.8,26.9-4,40.2c-1,2.8,3.2,6.9,4.9,10.3
	c-6.1,6.3,1.4,13.9-3.1,20.4c-9-1.4-16.7-6.7-26.7-5.2c-3.7,0.6-7.6,0.6-9.1,3.8c-1.6,3.4,2.2,5.2,4.4,7.4c5,5.1,12,4,18.6,4.1
	c13.9,0.3,18.3,4.1,14.1,14.9c-3.3,8.5,1.9,16.4-0.7,24.9c-2,6.6-3.2,11.2-12.6,11.5c-2.5,0.1-4.8,1.3-7.3,1.9
	c-3.5,0.8-7.4,1.6-7.4,5.3c0,3.6,3.9,4.6,7.1,5.9c12.6,4.9,16.2,11.6,20.2,22.6c4.7,13,0.4,25.2-1.1,37.5
	c-1.2,9.9-14.4,11.7-22.4,17.4c1,0.9,1.9,1.9,3.1,2.6c6.4,3.9,18.8,4,18.8,11.5c0.1,11.5,8.7,22.9,0,34.7
	c-3.6,4.9-5.8,9.6-13.7,10.4c-8.6,0.9-13.4-3.3-17.9-8.1c-4.7-5-5.1-10.9-4.7-16.9c0-1.5,5.7-3.5-0.7-4.4
	c-307.1-0.2-614.1,0-921-0.1c-12.8,1.2-25.5-3.3-38.3-0.3c-1.5,0.7-2.6,1.6-2.2,3.1c1.2,1.5,3.1,2.4,4,4c-1,1.9-2.6,3.9-2.8,5.9
	c-0.6,6.7,0.7,13.3-11.6,14.8c-9.4,1.2-18.1,3.9-25.1-3.7c-6.4-7-5.6-14.6-1-21.4c3.8-5.6,6.7-9.4-1.2-14.6
	c-4.2-2.8-1.9-8.1,2.4-11.2c4.1-2.9,8.5-5.4,14.4-9.1c-17-2-21-11.4-18.2-22.1c3.2-12.5,2.3-25.5,3.2-37.7
	c0.7-10.2,2.4-22.4-1.7-33.7c-4.4-11.9,2.7-23,16.1-27.8c2.9-1,5.3-1.4,6.8-4.2c7.1-14.1,14.4-17.1,33.3-14.4c3,0.4,6.1,0.6,9.2,0.7
	c7.1,0,17.5,1,18.1-5.7c0.5-6.7-10.2-7-16.8-6.8c-10,0.3-11.4-6.2-14.9-10.9c-6.1-8.1-0.6-33.7,8.2-40.2c6.6,5.3,3.7,12.1,4.5,18.4
	c-0.2,18.3,1.2,19.1,26,14.8c1.1-0.8,2.3-1.4,3.5-2.1c8.9-4.7,4.3-12.1,5.3-18.3c-0.1-21.6,0.4-43.1-0.2-64.6
	c-0.3-12,4.8-18.7,20.2-18c6.2,0.3,10.9-1.8,14.7-5.6c2.7-5.3,4.1-10.6-0.8-15.7c-15.9-4.6-32.3-1.6-48.4-1.9
	c-15.6-0.2-31.5-1.8-47,1.3c-5.7,2.8-4.1,8.8-7.7,12.5c-3.1,1.6-4.7,0.1-6.2-1.7c-0.4,4.3-2,8.8,4.5,11.2c3.5,0.6,7.1,0.9,10.3,2.4
	c5.8,7.1,18.5,0.6,24,8.3c1.7,6.5,3.6,12.9-3.1,18.4c-8.8-4.3-17.2-4.4-27.3-1.7c-23.9,6.5-36.1-3.6-31.8-24
	c1.9-8.9,1.7-18.6,2.9-27.1c1.3-9-3.7-14.7-5.5-21.8c-2.4-9.3,11.8-17.4,9.6-20.1c-5.6-6.5-11.4-11.9-9.2-20.1
	c2.3-8.7-0.9-20.8,17.6-20.7c4.8,0,6.8-3.5,6.9-7.2c0.1-5.9,0.6-11.9-0.1-17.8c-0.7-5.4-3.7-10.4-11.8-8.7
	c-10.9,2.3-12.4-2.5-12.8-9.4c-1.6-25.2,21.1-28.5,49.2-23.5c8.8,1.6,16.2,4.9,24.3-0.8c1.3-0.9,4-1,6-0.8
	c36.4,3.8,72.8-1.9,109.3-0.4c13.1,0.5,25.9,3.6,39.6,1.8c11.9-1.6,18,6.6,19.5,15.9c0.8,4.6,1,9.5-0.1,14c-2,8,0,11.7,11,12.2
	c11,0.5,15.9,8.9,8.2,14.8c-9.1,7-3,13.3-1.7,19.5c0.8,3.9,6,7.2,0,10.9c-5.3,3.3-10.7,7.1-18.1,3.8c-5.7-2.5-11.5-5-15.9,3.1
	c67,0,133.5,0,202.7,0c-12.2-6.8-24-3.9-33.7-3c-10.9,1-16.8-0.9-23.6-7.5c-6.2-6-14.7-11.1-25.6-5.4c-1.6,0.8-4.3,1.8-5.8,1.2
	c-6.1-2.1-16.2-3.8-17.2-7.3c-4.4-14.6-33-12-30.4-30.3c1-7.5-2.2-11.2-12-10.5c-5.3,0.4-8.6-2.2-9.9-6.5c-1.1-3.8-4.4-5-8.7-6.2
	c-17.6-4.6-21.6-14.6-11.4-27.8c5.8-7.5,2.3-15.6-7.9-15c-18.1,1.1-22.4-2.5-23.5-18.9c-1.4-20.4,6.8-40.5-2.5-61.4
	c-12.7,0.3-29.1,3.8-44.3-3.5c-1.1-0.5-3.4-0.6-4.5,0c-15.8,9.1-21.4,1.2-23.8-10c-3.5-16.2,4.3-25.1,21.1-26.4
	c12.6-1,25.3,5.2,37.6-1.1c-10.3-9.6-13-21-6.2-32.5c7.9-13.3,24.4-4.1,37.5-8.2c-9.1-1.8-14.9-5.6-12.8-13.4
	c2.6-9.2-1.5-21.2,18.1-25c-12.7-2.7-22.9-0.6-32.9-5.4c-19.4-9.4-12.6-23.8-12.6-36.3c0-8.8,5.2-18.2,17.8-19.9
	c15.3-2.1,30.9-2.7,43.3,7.9c3.6,3.1,2.5,7.3,4.7,10.5c3.6,5.3,9.2,7.3,19.8,6.4c-16.4-10.9-8.1-23.7-8.6-35.7
	c-0.1-3.5,0.2-7.9,5.8-7.4c10.5,0.9,14.3-3.2,18.7-10.7c5.4-9.2,15.2-13,28.2-6.6c8,3.9,18.5,6.7,21.2-5.2
	c1.2-5.4,1.2-11.3-10.2-9.6c-11.1,1.7-16.8-2.9-17.5-12.7c-0.7-10.3,3.5-20,3.8-30.2c0.2-6.8,7.9-8.4,14.5-9.3
	c7.6-1,15.5-0.1,18.1,6.7c2.5,6.6,7.7,10.6,13.4,15c17.6,13.6,17.2,31.9,18.5,49.7c14.2-4,18.5-14.3,8.4-24.9
	c-11.2-11.9,7.2-13.4,9.4-20.6c1.5-4.9,7.5-6.4,15.2-3.5c8.6,3.3,16.9,6.6,28.7,1.9c10.1-4,24.5-2.5,36.5-0.7
	c10.3,1.5,6,11.3,8.4,17c4.9,0,9.5,0,14,0c2,0.6,3.2,1.8,3.1,1.6c-1-1.8,3.7-6.8-3.1-9.3c-6.4-0.8-10.7-3.8-11.5-8.9
	c-1.5-10.8-2.5-21.6-3.4-32.4c-0.5-6.2,3-9.6,10.9-9.6c1.5,0,3.1-0.2,4.6,0c9.8,1.4,23.8-4.7,28.6,4c5.5,9.8,6.5,22,1,33
	c-1.5,3.1-5.7,5.5-4.7,9.1c1.5,5.5-9.3,12.6,2.5,16.5c5.6,1.8,19.5-9.8,19.6-16.2c0.1-3.9,2-5.9,6.2-5.5c9.2,0.9,19.3-3.2,27.5,4.5
	c5.2,4.9,13.1,0.9,18.7-0.4c22.7-5.4,24.2-5.1,30.7,13.6c6.6,1,4.3-3.3,4.6-5.6c1-6.6-1.7-13.4,1.6-19.8c8.7-13.1,22.1-17.8,42.5-15
	c14.9,2,27.8,6.8,27.2,20.8c-0.6,13.1,2.7,28.1-13.8,37.6c-2.2,2.6-2.2,2.6,6.2,5.1c3,1,5,2.7,6.2,5.1c2.5,8.5,2.5,17,0,25.5
	c-6.5,6.9-5.2,10.4,6.1,10.2c10.8-0.2,21.6-0.1,32.4,0c3.4,0,7.7-1,9.8,2.2c2.5,3.9-1.5,6.2-4.2,8.6c-2.1,1.9-4.5,3.5-6.4,5.5
	c-3.5,3.5-1.1,5.5,3.1,6.2c12,2.1,24.1-5.6,23.1-16c-0.6-5.9,1.8-6.5,7.2-6.5c1,0,2.1,0,3.1,0c25-0.7,24.7-0.6,25.3,19.5
	c0.4,12.9-1.1,25.3-9.5,36.5c-8.6,4.8-17.5,2.3-26.3,0.9c-3.1-0.5-6.1-0.2-8.2,2.1c-1,1.1-1.3,2.5,0,3.4c2.7,1.9,5.8,1.2,8.7,0.3
	c9.5-3,18.9-6.9,29-1.6c8.9,8.8,8.9,24,0,35.7c-6.3,4.8-14.4,1.5-21.2,2.8c7-0.2,14.1,0.1,21.2-0.3c2.9,0.7,5.8,1.5,8.8,2
	c23,3.9,22.5,3.8,22.4,22.3c-0.1,11-5.8,15.4-18.8,13.9c-16.7,5.4-33.8,1.2-50.7,2.4C790.7,262.9,809.6,263.7,828.6,263.1z"/>
<path class="st1" d="M44.1,892.4c-3.3-0.5-7.2,0.6-9.4-2.7c5-3.9,11.3-3.7,17.5-3.7c311.5,0,622.9-0.2,934.4,0.1
	c1.6,0,3.1,0.2,4.6,0.3c3.2,0.4,6.1,1.3,8.1,3.6c-5.9,3.9-12.9,2.1-19.4,2.1c-305.2,0.1-610.5,0.1-915.7,0.1
	C57.5,892.2,50.8,892.4,44.1,892.4z"/>
<path class="st2" d="M62.2,609.5c-0.1-6.8-0.1-13.6-0.2-20.4c-1.5-1.6-3.3-3-5.8-3.6c-7.3-1-15.1-0.8-21.5-5.3
	c18.1-9.5,30.9-6,37.6,10c1.5,26.3,1.5,52.7,0.1,79c-0.5,1.5-1.4,2.8-2.7,4c-3.4,1.3-5.2-0.2-6.5-2.5c-0.2-6.8-0.5-13.7-0.7-20.5
	C62.4,636.7,62.3,623.1,62.2,609.5z"/>
<path class="st0" d="M810,184.1c-10-0.8-19.6,0.5-28.1,5.2c-5.8,3.2-11.5,1.5-15.8-1.2c-4.5-2.8,0.3-6.1,2.2-8.8
	c3.4-4.8,8.2-5.8,14.3-2.7c7.5,3.9,16.1,1.9,24.2,2.4C808,180.7,809,182.4,810,184.1z"/>
<path class="st0" d="M828.6,263.1c-22.5,6.7-57.6,3.2-65.1-7c19.3,8.6,39.5,2.7,58.9,4.5C823.8,262.6,826.1,263.1,828.6,263.1z"/>
<path class="st0" d="M831.4,172.1c-0.2,4.5-3.4,7.6-7.9,8.4c-5.2,0.9-6.9-2.7-7-6.4c-0.2-4.3,2.4-8,7.2-8.5
	C828,165.1,830.3,168.7,831.4,172.1z"/>
<path class="st0" d="M810,222.3c-9.3,7.6-20.3-0.6-30.3,2.1c8.8-7.5,20.2-3.4,30.3-4.7C810,220.7,810,221.5,810,222.3z"/>
<path class="st3" d="M511.7,51.7c0.7-1.9,0-4.7,3.4-5c3.8-0.3,3.5,2.3,3.5,4.4c0,6.3,0,12.5-1.8,19.2c-1.7-3.6-3.3-7.3-5-10.9
	C511.8,56.8,511.7,54.2,511.7,51.7z"/>
<path class="st4" d="M999.3,890.1c-2.1-0.3-4.2-0.6-6.3-0.8c-1.8-2.1-1.8-4,0.9-5.6c6.8,0.5,14-2.3,20.4,1.6
	c-0.4,7.8-8.3,2.8-12.1,4.8l-1.5-0.3C1000.8,889.8,999.3,890.1,999.3,890.1z"/>
<path class="st0" d="M794.5,321.7c-5.9-5.4-3.8-12.2-2.5-17.7c1.8-7.6,10.2-0.2,15-2.6C791.9,303.6,794.5,313.2,794.5,321.7z"/>
<path class="st0" d="M710.8,82.3c-2,0-4.2,0.4-6,0c-4-1-10.2,5-11.3-0.7c-1.3-6.5,6.9-3.5,11.2-4.4
	C706.7,78.9,708.7,80.6,710.8,82.3z"/>
<path class="st0" d="M648.8,33.9c0,7.5,0.1,15-0.1,22.5c-0.1,3.1-0.8,6.5-6.1,3C650.6,51.8,640.8,41.4,648.8,33.9z"/>
<path class="st0" d="M717,112.8c0-8.5,0-17,0-25.5C721.8,95.8,721.8,104.3,717,112.8z"/>
<path class="st0" d="M1039.5,566.2c0-8.5,0-17,0-25.5C1044.3,549.2,1044.3,557.7,1039.5,566.2z"/>
<path class="st0" d="M1039.5,703.7c1.9-6.7-7-14.5,3.1-20.4C1041.2,690.1,1045.7,697.5,1039.5,703.7z"/>
<path class="st5" d="M381.8,258c8.2-39,33.5-67.2,77.8-83.5c4.4,2.8,7.6-0.5,11.2-1.5c9.9-2.8,12.5-1.3,14.2,8.1
	c30-15.1,60.2-6,89.3,1.2c10.8,2.7,2.2,9.4-3.8,14.3c6.2,2.2,10.8,5.7,13.8,10.5c4.5,7.2,9.1,13.5,14.5,0.3c1-2.5,5.2-4.7,7.2-2.1
	c8.1,10.5,31.7,11.9,24.6,32.2c-2.4,6.9,1.4,19,9.5,26.8c3.6,3.5,6.6,8.6,1.5,11.2c-16.7,8.4-11,22.4-13,33.9
	c-2.4,13.3-3,14.9-16.6,8.6c-8.6-3.9-8.2,0.6-9.4,4.8c-2.6,9.9-8.7,9.2-16.2,3.5c-6.4-4.9-11.3-11-17.4-16.2
	c-5.9-5-2.8-9.5,3.7-12.2c8.5-3.7,13.4-8.8,13.9-16.9c0.3-4.5,3-9.4,9-8.9c22.4,2,14.5-10.7,15.2-19.9c-2.5,8.7-9.5,9.9-18.3,8.7
	c-1.7-1.2-2.7-2.8-3.4-4.5c-1.4-6.1-6.3-8-13.3-8c-7.7,0-15.4,0.1-23-0.2c-8.9-0.4-14.3-3.6-15.3-11.3c-0.5-3.8-1.1-7.8-3.8-11.3
	c-5.4,3.3-10.4-3.4-15.8-0.5c-2.1-1.4-3.3-3.2-4.3-5.7c-4.9,12.3-9.2,24.4-16.7,35.5c-10.9,6.6-23.5,3-35.4,3.9
	c-5.5,0.4-11.1-0.6-16.5,0.3c8,5.5,16.5,10.3,24.5,15.5c17.4,11.3,17.6,11.3,11.5,28.6c-2.4,6.2-6.1,12.1-7.2,19.2
	c9.1-0.2,14.4-8.4,23.7-6.6c9.5,3.8,7.3,12.3,10.7,18.8c8.1,0.1,11.1-5.7,15.7-9.1c6.8-5.1,12.5-5.6,17.3,1.5
	c5.1,7.5,11.1,12.3,22.2,7.4c2.8-1.2,6.2-0.6,9,0.3c5.1,1.8,14.7-2.1,14.8,5.5c0.1,5.8-7.6,10.1-13.7,10.6c-12.6,1-20,5.1-22,15.5
	c-0.2,0.8-0.8,1.5-1.4,2.2c-1.3,1.5-35.2,14.6-37.6,14.3c-4.1-0.5-10.5,0.9-9.4-5.4c0.6-3.2,0.3-2.2-1.7-0.8
	c-9.7,7-14.6-0.9-20.4-4.8c-8.4-5.6-5.5-11.9-0.4-18.9c-13.4,5.1-22.8,17.8-40.1,12.7c-33.5-18.5-52.5-44.5-59-77
	C379.8,278.4,379.8,268.2,381.8,258z"/>
<path class="st0" d="M307.7,286.3c3.2,13.6,16.6,19.7,31.3,14.4c4.4-1.6,5.8-4.5,5.8-8.2c0-3.4,0.1-6.8,0.1-10.2
	c-0.1-6.2,4.2-10.8,10.9-9.6c6,1.1,9.4,7.1,6.3,12.4c-4.8,8.2-7,16.7-7.8,25.6c-0.4,4.3,0,8.4,6.1,10.5c13.4,4.7,17.7,11.3,16,23.2
	c-1.7,11.6,2.5,16.3,16.5,17.9c6.1,0.7,10.5,1.1,9.5,8.3c-1,7.4,6,11,14.4,12c4.6,0.5,9.3,0.3,13.9,0.1c14-0.8,27.5-1.3,28.6,14.8
	c0.2,3.2,2.7,5.1,7.1,5.6c15.8,1.8,31.7,3.6,45.2-5.8c4.5-3.2,5.3-2.5,8.3,1.6c4.2,5.6,12.3,7.9,20.2,5.4c8.3-2.6,16.2-2.5,24-0.1
	c8.4,2.7,13.7-0.3,15.8-6.1c4.6-12.7,12.7-20.9,30-20.8c3.3,0,7.1-1.9,6.8-4.2c-1-9.5,8.4-11.3,15.2-15.3c2.4-1.5,6-3,6.5-5
	c2.3-8.6,8.2-11.3,18.8-11.2c10.5,0.1,14.5-6.7,11.8-14.1c-3.5-9.8-3.9-18.9,0.8-28.3c3.8-7.6-3.6-13.6-4.5-20.6
	c-1.3-10.3,0.2-20.3,0.3-30.4c0-5.3,3.7-4.9,6.7-6.6c6.3-3.8,12.9-7.4,7-15.3c-5.3-7.1,2.4-8.9,8-10.6c7.4-2.2,10.7,1.4,10.9,7
	c0.2,4.9,2.3,9.1,5.7,12.9c6.1,7,0.9,8.9-6.6,9.5c-3.1,0.3-6.2,0-9.3,0.1c-9.9,0.2-15.4,3.5-14.6,12.5c0.6,6.8,0.1,13.6,0.1,20.3
	c0.1,14.5,6.6,18.8,25.1,19.6c11.3,0.5,21.7,4.5,34.1,2.8c12.1-1.7,15.6-4.8,12.2-13.9c3.1-2.8,6.2-2.8,9.3,0
	c-1.9,18.2-2.5,18.7-24.3,19.8c-5.5,0.3-12.2-0.7-10.8,7c0.2,1.3-1.5,3.9-2.7,4.1c-13.4,1.7-12.2,11.2-15.1,18.5
	c-3.3,8.3-4.2,18.3-20,16.6c-1.6-0.2-5,1.2-5.1,2.2c-2.4,16-30.6,14.3-32,31.2c-0.1,0.9-5.4,1.6-8.2,2.3
	c-6.8,1.8-12.2,4.8-12.8,11.2c-1,11.1-10.7,11-20,10.1c-17-1.7-22,0.1-29.9,13.1c-1.9,3.2-4.6,5.5-8.1,7.4
	c-3.8,2.2-9.9,4.5-10.4,7.2c-2.6,15.9-20.8,9.2-30.2,15c-3.4,2.1-5.3-1.1-7.8-2.2c-11.4-4.7-25.3-2.7-30.4,4.1
	c-6.7,9.1-3.2,22.2,7.7,27.9c4.9,2.6,10.1,5.4,11.5,9.9c2.2,7.2,7.8,7.8,15.1,7.9c7.8,0.1,11.8-2,14.1-8.8
	c2.6-7.6,12.8-7.6,20.6-8.5c4-0.5,6.4,2.5,3.2,6.1c-6.2,6.9,0.4,9.5,8.8,13.6c-37.6,0-72.7,0-107.7,0c15.5-9.1,3.8-23.8,11.2-35
	c3-4.5-3.3-13.9,0.7-21.6c1.9-3.6-3.3-6.8-7.3-8.8c-6.2-3-12.4-6-19-8.3c-5.5-1.9-10.2-3.5-10.8-9.3c-0.4-3.8-2.5-7.3-7.8-8.6
	c-6.2-1.5-7.2-4.7-6.3-9.8c1.2-7-2.5-10.6-12.2-10.7c-11.2-0.1-22.2-2.5-33.7-2.6c-12.1-0.1-28-16.5-27-27c0.7-7.2,1.3-14.2-2-21.3
	c-3.4-7.3-8.3-12.5-18.8-12.7c-4.5-0.1-10.2,0.6-7.6-6c3.7-9.2-3.8-12.2-12.4-14.1c-3.4-0.8-7.6-0.4-9.6-3.3
	c-2.7-3.9-10.8-8.4,1.3-11.6c1.6-0.4,2.1-3.5,3.1-5.4C303.5,284.7,305.6,284.7,307.7,286.3z"/>
<path class="st5" d="M440.7,365.6c0.6-2,1.5-5.8,3.7-4.5c12.2,7.2,17-0.8,23.6-6.6c3-2.7,7.3-4.6,11.4-6.3c3.4-1.4,5.8,0.8,7.9,2.7
	c2.9,2.7,1.1,4.6-1.9,6c-8.6,4.1-10.1,8.9-0.7,13c4.8,2,9.7,15.8,16.8,1.1c1.4-2.9,5.7-4.8,8.8-2.1c5.5,4.8-3,6.8-4.5,11.1
	c8.4-0.4,18.1,3.6,20-8c0.6-3.7,5.5-5.8,9.7-3.6c10.1,5.2,12.4,0.2,14.2-6.4c2.3-8.7,4.6-16.5,20-13.1c6.3,1.4,10.5-5.7,15.6-9.6
	c-9.9,0.6-18.8-4.4-29.8,0.8c-8.8,4.1-13.6-5.6-15.8-10.3c-4.3-9.4-8.3-6.2-13.6-1.7c-3.2,2.7-6.2,5.6-9.3,8.5
	c-3.6,3.3-8.5,3.7-12.8,2.3c-6.2-2-1-4.9-0.7-7.7c0.6-5.6-2.5-11.2-6.9-15.9c9.2-11.6,13.4-12.5,27.3-6.8
	c10.2,4.2,19.6,9.4,29.4,15.8c-0.3-10.1-6-18.1-9.2-26.7c-3-8.4-1.1-14.7,8.2-19.7c11.2-6,21.4-13.3,33.2-18.6
	c2.2-0.6,4.4-0.5,6.4,0.5c6.9-1.3,15.9-1,11.2-10.8c-0.9-1.9,2-3.8,5.1-3.5c4.5,0.5,8,3.1,8.8,6.3c2,7.6-2.3,14.8-3.8,22.1
	c-0.3,1.4-6.2,3.8-7.6,3.1c-16.2-7.8-15.5,1.4-15.4,10c0,8.9-9.4,10.4-16.1,13.6c-5.4,2.6-8.2,4.9-1.3,7.6c5.4,2.1,6,6.8,9.8,9.4
	c4.8,3.1,6.7,10.6,13.1,9.9c7.4-0.9,2.2-8,4.5-12c2.8-4.7,5.2-9.3,11.4-2.5c2.8,3.1,7.4,7.1,10.9,6c6.4-2,2-7.4,1.7-11.3
	c-0.6-8.5,7.8-16.5,1-25.6c-2.3-3.1,4.2-3.3,7.2-4.5c7.5-2.9,15.8-6,3.5-12.8c-1.7-0.9-4.4-2.6-4.1-3.5c3-10.7-12.6-19.8-3.5-31.2
	c3.8-4.7-1.3-11.9-4.8-11.5c-13.5,1.8-13.7-7.7-18.8-12.9c-5.3,0.9-2.9,3.6-2.5,5.9c0.6,4-1.8,6.5-6.5,7.3c-5.1,0.8-9.6-0.3-11-4.8
	c-3.3-10-9.7-16.7-23.6-15.9c0.4-6.2,6.6-3.5,9.4-5.4c3-2.2,8.1-3.8,6-7.8c-2.8-5.5-5.4,0.9-8.2,0.6c-2.4-0.2-5-0.8-7-1.9
	c-18-9.7-38.2-6.4-57.7-6.4c-5.5,0-10.5,2.9-14.7,6.4c-3.3,2.7-7,3.2-10.4-0.6c-4.2-4.6-0.5-6.6,3.4-8.6c-7.1-6.6-15,9.5-22-0.7
	c12.4-6,25.9-8.3,40.1-8.2c11.7-2,23.4-1.7,35.1-0.2c72.7,7.8,107.8,58,111.5,92.3c3.5,32.9-3.3,63.3-31.5,88.8
	c-21.9,19.8-48.7,31.4-80.5,35.9c-13.5,1.6-27.1,1.4-40.6,0.1C473.7,381.9,456.4,375.3,440.7,365.6z"/>
<path class="st6" d="M484.1,678.3c0.5,0.8,0.4,1.5,0,2.3c-10.7,3-21.5,4.8-32.8,3c-8.4-1.8-11.8-7.8-15.7-13.2
	c-14.5-20.3-30.3-40.1-43.8-60.9c2,3.2,4.5,6.3,4.3,10.1c-0.7,1.9-1.8,3.4-4.7,2.6c-1-0.1-2-0.2-3-0.5c-5.1-2.1-4.9,1.1-4.8,3.5
	c0.5,15.2-1.4,30.4,1,45.6c0,3.3,0.1,6.6,0.1,9.8c-2.9,2.2-6.8,1.5-10.2,2c-17,2.5-19.9,0.5-21.7-14.5c0.6-18.7-2-37.5,2.8-56.1
	c0.6-18.8-1.3-37.5,1.1-56.3l0.1-0.2c11.5-1,23-1.9,34.4,0.5c16.7,22.8,33.4,45.6,50.1,68.4c2.2,1.2,4.3,2.5,5.6,4.4
	c1.4,1,1.9,3.7,4.8,1.5c2-22.5,4.2-45,3.2-67.5c-0.1-2.8-1-6,2.7-8c2.1,0-0.5-0.1,1.6-0.1c28.8-0.3,28.8-0.3,25.6,24.2l-0.6-0.2
	C481.8,612,482.1,645.2,484.1,678.3z"/>
<path class="st7" d="M320.1,721.8c23.5-1.2,45.5,0.9,61.8,17.1c5.6,2.7,7.2,6.3,3.5,11c0.3,17.8-3.5,34.5-23.5,44.8
	c-6.6,3.4-1.3,6.2-0.3,7.6c8.1,10.7,16.7,21.1,25.6,31.3c4.4,5.1,7.1,9.4-1.9,12.9c-5.4,3.1-11.9,3.1-17.8,4.6
	c-8.3,0.4-13.1-3.8-16.9-9c-5.3-7.1-11.2-14.1-15-21.8c-4.7-9.5-12.3-14-24.9-11.3c-1.3,0.6-2.1,1.6-2.3,2.8c-0.1,1.3-0.2,2.7-0.3,4
	c2,4.4,1,9.1,1,13.6c0.1,20.5-5.2,23.7-31.1,18.6c-1.8-0.9-2.8-2.3-3.1-4c1-23.9,0.2-47.8,0.5-71.7c4-13.7,3-27.6,2.7-41.5
	c-0.1-6.1,2.5-8.1,9.8-8.1C298.7,722.7,309.5,724.1,320.1,721.8z"/>
<path class="st7" d="M676.5,660.2c-8.4,5.3-4.5,13.5-6.7,20.2c-9.1,3-18.4,4.8-28.2,3.1c-2.5-0.6-4.8-1.7-6-3.7
	c-0.4-6.2,3.6-11.6,5.1-17.5c14.2-28.9,23.7-59.2,37.3-88.2c1.8-3.9,3.1-8.1,7.4-10.9c1.4-2.5-1-6.2,3.4-7.8
	c13.4-0.4,26.8-2.5,40.1,1c14.7,39.7,29.4,79.4,44.1,119.2c3.9,8.4-5.6,6.1-9.5,7.5c-6.1,2.1-12.9,1.5-19.4-0.1
	c-12.3-5.3-6.7-18-15.1-24.9c-14.4-3.8-29.1-1.1-43.7-1.7C681.5,656.3,679,658.3,676.5,660.2z"/>
<path class="st8" d="M825.2,726.5c0.2-0.8,0.5-1.5,1.1-2.2c10.8-3.6,22.4,0.4,33.3-2.3c10,0.8,8.5,8.5,10.3,13.1
	c13.8,35.2,26.6,70.6,39.8,106c2.8,8.8-6.9,7-11.4,7.9c-7.8,1.6-16.4,2.2-22.3-4.3c-1.5-1.7-2.1-3.8-2.9-5.8
	c-2.3-4.9-1.9-10.6-6.1-14.9c-18.1-2.7-36.1-5.5-53.5,2.3c-5.5,4-2,10.5-6.1,14.9c2.5,5.5-2.4,5.8-6.8,7.1
	c-5.3,1.5-10.7,1.7-16.2,1.6c-9.8-0.4-12.7-2.3-8.8-11.7c13.5-32.4,27.7-64.6,40.6-97.1C818.3,735.8,820,730.4,825.2,726.5z"/>
<path class="st7" d="M760.4,722c5.7,10,5.1,19.4-3,28.7c-21.8,24.9-43.3,49.9-64.9,74.9c18.5,3.4,37.1,1.8,55.7,0.9
	c19-1.3,19-1.3,18,17.1c-2.8,5.3-9.5,5.6-14.4,5.7c-32.7,0.6-65.5,2.4-98.2-0.9c-9.2-7.5-6.9-15.9-1.2-23.6
	c2.8-3.8,6.1-7.5,8.7-11.5c4.4-4.9,8.8-9.9,13.2-14.9c14.8-16.3,31.2-31.7,42.9-49.7c-1.2-5.1-6.2-3.2-9.6-3.3
	c-13.1-0.3-26.2-0.2-39.3,0.1c-8.7-0.2-16.2-1.7-17.1-10.5c-0.6-4,1.5-7.5,3.4-10.9c9-5.2,18.8-1.9,28.3-2.1
	C708.7,723.5,734.6,723.5,760.4,722z"/>
<path class="st8" d="M310.9,660.9c18.3-1,18.3-1,18.6,20c-31.5,5.9-63.1,4.4-94.8,1.4c-1.9-1-2.5-2.5-1.9-4.2
	c0.3-3.3,0.6-6.7,0.9-10c1.9-28,1.9-56.1,0-84.2c-0.1-9.3-0.3-18.6-0.4-27.9c33-2.1,65.9-2.4,98.9,0.1c3.3,6.2-4.8,11.4-2.4,17.5
	c-4.4,6.3-12.2,5.8-19.3,6.1c-12.1,0.4-24.3,0-36.5,0.2c-4.1,0-7.3,1.4-9.5,4.3c-0.4,23-0.4,23,27.9,22.8c24.8-0.2,24.8-0.2,24.4,20
	c-11.4,4-23.5,3.7-35.5,3.8c-5.9,0-12.4-1-16.2,4.4c0.4,8.5-4,17.4,2.2,25.6C281.8,662.2,296.3,662.4,310.9,660.9z"/>
<path class="st9" d="M934.3,737c9.6-7.7,20.1-13.9,33.7-15.7c10.4-1.6,20.9-1.6,31.3,0c22.9,4,24.7,7.3,15.4,28.8
	c-15.3,3.6-27.6-8.2-42.7-5.6c-3.6,0.2-7.4,0-9.7,3.1c-6.2,7.8-5.4,13.7,5.6,18.2c10.8,4.4,20.9,9.9,31.7,14.4
	c30.2,12.6,34.5,41.2,8.2,58.7c-7.9,5.2-16.7,9.5-27,11c-10,2.5-20.2,1.7-30.4,1.8c-5.5-1.1-10.9-2.1-16.2-3.9
	c-13.4-4.8-15.6-9.6-9.7-21.8c1.4-8.7,3.8-13.6,15.8-6.2c12.5,7.8,27,11.9,42.9,6c4.2-2,3.3-5.8,4.4-8.9c2.2-6.3-2.9-9.1-8.1-12.3
	c-10.5-6.4-23.1-9.3-34.1-14.9c-13.2-6.7-21.7-15.4-21.8-28.7C922.5,751.7,926.6,743.8,934.3,737z"/>
<path class="st10" d="M196.5,825.7c16.9,0.1,33.8,0.4,50.7,0.2c9.1-0.1,17.1-0.7,11.3,10.3c-1.5,2.8-0.4,6.7-0.5,10
	c-15.2,6.2-31.5,3.2-47.3,3.7c-12.4,0.4-24.8,0.2-37.2,0c-10-0.2-16-3.8-14.8-12.5c3-20.6-0.2-41.4,4.8-61.9
	c0.7-17.2-1.5-34.4,1.2-51.6c32-1.4,64-2.1,95.9,0.4c-1.4,7,2.3,15.5-8.5,19.8c-18.7,2.7-38.4-1.8-56.6,5.2c-4,8-4.6,16,0.4,23.9
	c13.5,1.2,27,1.3,40.5-0.1c4.6-0.4,9.6-1.8,9.4,4.6c-0.2,5.1-0.1,10.1-0.2,15.2c-14.9,5.8-31.4,1.3-46.6,5.1
	c-1.1,0.8-2.1,1.6-3.2,2.4l-0.2,0.1C194.2,808.9,192.6,817.4,196.5,825.7z"/>
<path class="st6" d="M394.7,741.6c-1.2-4.8-2.5-9.7-3.7-14.5c6.2-9.1,17.5-1.3,25.3-5c6.9,1.2,5.1,5.9,6.4,9.8
	c7.9,23.8,16.5,47.4,24.8,71.1c2.2,3.6,2.6,10.5,10.2,3.5c7.5-15.8,12.6-32.2,19.7-48.1c2.2-5.1,2.9-10.9,9.5-14
	c1.4-6.1,3.5-12.1,4-18.2c0.4-4.3,2.7-4.2,6.7-4.5c26.4-2.1,27.6-1.4,19.5,19.2c-13.8,35.1-28.2,70-42.4,105
	c-12.2,4.4-24.8,5.4-37.8,2.8c-5.6-2.2-7.6-6.6-9.4-11.1c-11-27.7-21.2-55.5-31-83.5C395.1,749.8,397.5,745.5,394.7,741.6z"/>
<path class="st6" d="M571.7,749.9c-0.1,7.5-0.2,14.9-0.3,22.4c13.3,3.3,26.9,0.6,40.3,1.6c4.9,0.4,12.7-1.7,9.5,6.6
	c-0.1,4.1-0.2,8.2-0.4,12.3c-14.8,5.8-31.4,1.3-46.5,5.1c-1,0.8-2.1,1.6-3.1,2.4l0.1,0.1c-2.2,8.4-3.6,16.7,0.7,25
	c18,0.2,36,0.3,54,0.5c6.3,0.1,13.2-0.9,7.9,7.8c-2.1,3.4-0.5,8.3-0.6,12.6c-28.2,7.1-57.1,2.7-85.7,3c-7.3,0.1-11.2-4.5-11.2-10.2
	c0.2-28.7-3.4-57.4,2.3-85.9c1.2-10.4-2.4-21.1,2-31.4c0.9-0.3,1.8-0.2,2.6,0.1c25.4,1.9,51,0.3,76.4,0.9c5.5,0.1,11.2-1.2,16.5,1.2
	c1.1,7.2-0.6,13.9-5.8,19.9C610.8,745.1,590.5,742.4,571.7,749.9z"/>
<path class="st7" d="M50.6,739.8c10.9-9.6,24.2-15.8,39.8-18.6c11.5-1.2,23-1.4,34.5,0.1c2.8,0.9,5.5,2,8.4,2.6
	c5.2,1,13,0.2,12.9,6.1c-0.1,6.5-3.4,13-5.6,19.4c-0.1,0.4-3.8,0-5.8-0.1c-11.7-0.4-22.5-5.5-34.5-3.8c-5.5,0.7-10.9,1.8-16,3.7
	c-9.6,3.1-9.9,11-12.8,17.3c-4.8,10.9-5.5,23.4-0.9,33.3c11.8,25.6,20.1,30.8,56.1,24.2c5.4-1,14-6.6,15.7-0.9
	c1.9,6.2,7.2,15.8-4.8,21c-6.7,4.3-15.1,5.1-22.9,7.1c-48.3,3.3-77.1-15.1-80.8-51.5c0-8.6-0.1-17.1,0-25.7c0-3.5,0.4-6.9,1.4-10.3
	C38.2,754.8,42.9,746.6,50.6,739.8z"/>
<path class="st11" d="M590.2,555.7c37.1,6.2,47.8,27.8,49.2,57.9c1.3,29.1-10,53-43.5,67.1c-11.7,3.4-23.7,6-36,7.4
	c-6.9-1.7-14.1-1-21-2.4c-4-1.6-10-2.9-7.6-7.6c3.6-7,12.9-2.4,19.1-4.9c-2.3-3.5-10-2-9.9-6.3c0.1-4.5,6.1-4.7,10.2-6.2
	c12.3-1.8,25.5-0.1,36.6-6.5c6.4-2.3,10.1-6.3,11-12c4.2-13.3,3.9-26.7,1.3-40.1c-2.2-11.5-9.3-19.5-23-23
	c-12.8-2.9-25.5-2.9-38.1,0.7c-10.5-0.2-8.2-9.9-15.2-13.5c-5.9,2.2,2.3,21-15.7,9.9c1.3-7-2.8-14.5,2.7-21.1
	C537,555.1,563.6,553.7,590.2,555.7z"/>
<path class="st12" d="M143,556.2c0,6.6,0,13.2,0,19.8c-7.1,2.2-14.4,4.6-22,3.9c-14.4-1.2-17.1,4.7-16.8,15
	c0.7,23.5,0.2,47,0.2,70.6c0,18.3-5.2,21.2-30.9,17.1c-1.8-0.8-3-2-3.8-3.5c-1.2-4,0.9-7.7,1.2-11.6c1.9-25.7,0.6-51.5,0.7-77.2
	c0-3.7-0.8-7.6-3.7-10.8c-9.2-4-19-1.3-28.6-2c-5.3-0.4-11,0.1-8.5-6.7c1.8-5.1-1.3-10.8,3.4-15.5C70.6,554.7,106.9,553.4,143,556.2
	z"/>
<path class="st13" d="M993,885c0,1.4,0,2.8,0,4.2c-6.7,0.1-13.4,0.4-20.1,0.4c-312.7,0.1-625.5,0.1-938.2,0.1c0-1.8,0-3.6,0-5.3
	c13.7-4,27.7,0.1,41.5-1.1c299.6,0,599.2,0,898.7,0.1C981,883.4,987.3,881.7,993,885z"/>
<path class="st8" d="M905,559c28.4,16.5,26.2,69.6-4.8,81.3c-14.1,7.7-29.2,11.8-46.3,8.6c-8.7-1.9-21.4,3.7-24.5-8.8
	c1.2-19.7,3-39.4-1.1-59.1c-0.9-8.8-2.8-17.6,3.7-25.7c19.8-0.8,39.5-1.2,59.2,0.2c4,0.8,7.9,1.7,11.9,2.5
	C904.5,557.3,905.1,557.6,905,559z"/>
<path class="st10" d="M995.9,591.9c0.3,14.9,0.3,14.6-17.3,15.1c-6.2,0.2-13.2-2.9-18.6,2.3c0.4,1.9,0.7,3.7-0.6,5.5
	c-0.5,0.7-0.5,1.5-0.1,2.3c-0.7,10,5.5,12.9,16.7,11.7c5-0.6,10.2-0.1,15.3-0.1c17.4,0.1,17.9,0.7,13.5,16.2
	c-1.9,0.2-3.7,0.5-5.6,0.7c-18.4,5.9-37.5,2.8-56.3,2.3c-5.1-0.1-9-3.3-9.1-7.4c-0.4-28.1-4.8-56.4,2.5-84.3
	c20.8-2.6,41.6-1.3,62.4-1.3c8.7,0,8.9,4,6.9,9.2c-0.1,1.7-0.2,3.3-0.3,5c-12.3,3.3-25.1,3.5-37.9,3.6c-4.6,0.5-7.1,2.5-7.2,6.4
	c-1.4,8.2,1.3,12.6,13,11.8C980.8,590.2,988.7,588.8,995.9,591.9z"/>
<path class="st0" d="M839.7,537.3c-9.5,7.6-21.4,7.1-31.9,8.1c-12.3,1.2-15.3,5-11.4,14.1c1,2.3,1.8,5.2,1,7.5
	c-4.1,13,6.1,24.8,4.8,37.4c-2.1,19.6-4.7,39.1-7.1,58.6c-1.3-0.1-2.7-0.1-4-0.2c0-11.1-0.4-22.2,0.2-33.3c0.3-5.8-0.6-8.8-8.8-10.6
	c-14.1-3.1-19.7-13.4-17-25.7c2.2-10.3,3.1-20.7,1.3-31.2c-1.2-6.9-5.1-11.9-13.6-10.9c-11.2,1.4-12.7-5.5-12.9-10.4
	c-0.2-6.4,7.9-5.4,13.2-5.2c20,0.8,40-1.6,60,1.7C821.3,538.7,829.9,533.5,839.7,537.3z"/>
<path class="st10" d="M168.5,566.1c-0.1-3.3-0.1-6.6-0.2-9.9c0.4-0.2,0.9-0.6,1.3-0.6c30.8-3.5,29.6-3.4,31.3,21.2
	c2.2,34.2-2.1,68.2-0.4,102.4c-9.6,4-19.3,6.8-30.1,3.3c-0.7-0.5-1.4-1.1-2.1-1.7c0-0.8,0-1.6,0.3-2.5
	C170.5,640.9,170.5,603.5,168.5,566.1z"/>
<path class="st0" d="M918.6,691c1.4,15.4,2,15.8,21.5,13.3c4.3-0.6,10.2-2.3,11.7,2.9c1.2,4.2-4.4,5.3-8.1,6.3
	c-6.7,1.9-13.1,3.5-20.9,1.5c-7.5-1.9-17.9-4.1-23.2,1.9c-5.4,6.2-4,14.2,0.5,21.6c3.3,5.4,7.2,11.3,3.3,17.9
	c-1.6,2.7-3.3,5.7-7.9,4.7c-3.3-0.7-4.7-3.2-4.7-5.9c-0.2-7.6-0.4-15.3-0.1-22.9c0.2-6.2-2.9-10-9.6-13.1
	c-17.8-8.2-36.3-10.6-55.8-6.2c-6.2,1.4-9.7-0.9-13.6-3.9c-2.8-2.2-6-3.4-9.8-1.6c-4,1.9-3.7,4.6-2.2,7.7c2.7,5.7-1.2,10.1-4.8,14.7
	c-3.9-18.8-3.8-37.5-3.4-58c7.3,6.3,9.6,13.7,9.6,19.7c0,9.2,5.6,9.5,13.4,9.7c7.1,0.2,14.2-0.7,21.4,1.6c18,5.8,20.1,4.4,20.6-11.5
	C877.2,684.9,897.8,685.5,918.6,691z"/>
<path class="st14" d="M31.8,518c3.7-4.6,9.4-2.7,14.2-2.7c316.1-0.1,632.1-0.1,948.2,0c4.8,0,10.5-2,14.2,2.6c-7,4-15,2.4-22.6,2.4
	c-303.1,0.1-606.3,0.1-909.4,0.1C61.6,519.2,46.3,522.9,31.8,518z"/>
<path class="st15" d="M1008.3,520.3c-3.3,5.2-9.2,2.5-13.7,2.5c-316.3,0.1-632.7,0.1-949,0c-4.5,0-10.3,2.7-13.7-2.5
	c14.7-2.7,29.6-0.5,44.4-1.2c304.6,0,609.1,0,913.7,0.1C996,519.2,1002.3,518,1008.3,520.3z"/>
<path class="st16" d="M993,885c-6.2-0.1-12.4-0.4-18.5-0.4c-293.6,0-587.2,0-880.8,0c-6.2,0-12.4-0.3-18.5-0.4c-1-0.4-1.4-0.9-1-1.3
	c0.3-0.4,0.7-0.7,1-0.7c308.5,0,616.9-0.1,925.4,0c4.8,0,10.6-1.8,13.9,3.2C1007.2,885.2,1000.1,885.1,993,885z"/>
<path class="st0" d="M650.7,501.7c12.5-12.5,24.8-21.2,46-15.3c8.5,2.3,16.1-4.3,18.7-12c2.1-6.3,5.3-10.2,14.6-10.4
	c11.8-0.3,11.3-9.2,14-19.4c9.8,20.2-9.5,42.1,17.6,57.1C722.5,501.7,687.3,501.7,650.7,501.7z"/>
<path class="st17" d="M1008.3,520.3c-308.5,0-616.9,0-925.4,0c-2.6,0-5.2-0.1-7.7-0.2c-1-0.4-1.4-0.8-1-1.3s0.7-0.6,1-0.6
	c2.6-0.1,5.1-0.4,7.7-0.4c308.5,0,617.1,0,925.6,0.1C1009,518.7,1009,519.5,1008.3,520.3z"/>
<path class="st18" d="M380.7,411.1c15.2,6.3,29.3,13.9,31.7,28.2c1.8,10.3-9.9,19.9-17.7,24.6c-15.2,9-31.4-0.6-50-7.5
	c12.6-3.9,21.7-8.4,31.3-9.3c10.4-0.9,9.6-4.4,8.3-10.6C382.5,428.5,376,421,380.7,411.1z"/>
<path class="st18" d="M648.6,414c0,4.9-0.9,8.9,0.2,12.5c2.4,7.7-9.6,17.2-1.6,21.1c7.1,3.5,17.3,5.9,26.6,7.7
	c2.9,0.5,5.5,1.9,8.5,3c-15.4,11.5-42.6,15.3-50.3,7.3C610.2,443.1,613.5,432.3,648.6,414z"/>
<path class="st18" d="M742.8,365.2c12.4-3,23.5-6.6,35.6-5.5c4,0.4,9.8,0.2,5.2,5.4c-6.6,7.5-13.6,15.2-24.7,18.7
	c-7.7,2.4-16.1,4.3-19.8-5.1c-0.6-1.6-1.6-2.9-4.1-3.2c-15.5-2-21.3-9.2-17.7-21.6c0.2-0.8,0.7-1.6,1.4-2.2
	c5.5-4.7,0.8-16.5,10.3-15.7c7.1,0.6,9.7,11,12.4,17.7C742.7,356.8,742.3,360.3,742.8,365.2z"/>
<path class="st10" d="M301.9,427.4c5.9-0.8,8.3-1.3,10.8-1.5c19.5-1.7,41.4-1,32.9-26.5c-0.8-2.3,2.2-7,5-8.2c4.8-2,6.6,2.9,9.1,5.2
	c4.1,3.7,8.8,7.7,10.8,12.2c3.7,8.3,6.9,17.5-7.7,21.9c-2.8,0.8-4.6,1.6-5.9,4.6c-3.2,7.7-17.6,12-26.1,8
	C321.8,439,313.4,433.8,301.9,427.4z"/>
<path class="st6" d="M716.9,397c7-0.7,12.2-1.9,17.1-1.5c7.7,0.5,19.6-3.4,21.8,3.9c1.8,5.8-9.5,10.5-16.3,13.2
	c-8.5,3.4-19.5,9.7-27.9,1.7c-7-6.6-21.2-6.8-22.6-17.7c-0.8-6.4,2-12,6.1-17.4c3.9-5,5-11.7,14.1-14
	C711.9,375.9,719.3,385.4,716.9,397z"/>
<path class="st18" d="M610.8,433.8c-1.9,9.7-2.6,18.9-9.1,26.6c-4.3,5,0.2,5.3,4.2,6.3c8.5,2.1,15.6,6.2,23,10
	c7.1,3.6,4.1,6.3-1.2,7.4c-10.3,2.1-20.9,4.1-31.7,3.2c-1.5-0.1-3.7,0.3-4.5-0.3c-4-3.5-7.6-6.9-9.3-12.3
	c-3.4-11.2-14.6-22.3,4.2-31.3C594,439.7,600.7,434.2,610.8,433.8z"/>
<path class="st19" d="M241.3,357.5c16.2-0.3,29.6-1.3,42.8,4.9c2.8-11.5,10.9-20.4,16.2-31.5c11.7,10.7,11.2,22.6,10.6,34.5
	c0,0.8-0.1,1.7-0.4,2.5c-4.2,8.9-37,16.7-45.6,10.2C257.1,372.3,250.3,365.5,241.3,357.5z"/>
<path class="st10" d="M409.5,482.6c-4.6-1.4-10.6,1.1-14.6-4.2c8.5-5.4,17.1-11.3,27.8-13.5c9.8-2,8.1-5,4.1-10.2
	c-5.7-7.5-8.3-15.8-7.4-25.1c10.1,4.3,20.2,7.3,28.3,13.2c10.3,7.5,11.1,13.1,2.3,22.4c-4.9,5.1,1.5,14.1-9.2,16.9
	C430.4,484.6,419.9,483.5,409.5,482.6z"/>
<path class="st10" d="M707,426.7c4.1,4.1,11.1,0,17.1,5c-11.1,7.7-22.5,14.2-37.3,14.7c-16.4,0.5-19.7-13.6-29.7-20.3
	c-8.2-5.5,1.2-12.1,5-17.5c3-4.3,7.2-8.2,11.3-11.9c8-7.3,9.4-2.4,9.9,3.8c0.2,0.4,0.5,0.8,0.5,1.2
	C681.6,416.3,684.2,427.8,707,426.7z"/>
<path class="st19" d="M323.1,361.7c15.5,16.3,21.3,37.8,11.2,39.8c-12.3,2.4-16.9,16.2-32.6,12.3c-13.2-3.3-21.3-11-32.7-19.1
	c15.9-2.9,29.3-2.8,43.6-0.4C314.5,383.6,315,372,323.1,361.7z"/>
<path class="st0" d="M695.3,660.9c-4,9.5,8.7,18.2,1.7,28.7c-2.1,3.2,4.8,11.7,12,11c17.9-1.6,35.4,3.4,53.2,1.2
	c6.7-0.8,12.9-1.1,17.9,5.1c-17.9-4.4-31.2,10.8-50.3,5.4c-14.6-4.2-30.2,0.9-45,4c-2.9,0.6-5.7,2.5-8.5,2.4
	c-4.6-0.2-12.1,2.8-13.1-2.8c-0.9-4.8,6.6-3.4,10.5-4.8c12.5-4.5,16.3-14.3,18.2-24c1.6-8.6,1.3-17.7-2.7-26.2
	C691.2,659.2,693.2,659.1,695.3,660.9z"/>
<path class="st20" d="M825.2,726.5c-13.6,34-27.1,67.9-40.7,101.9c-2.1,5.2-4.6,10.2-6.9,15.3c-2.4,5.2,3.9,1.3,4.8,3.1
	c5.4,3.1,14.1-2.3,17.9,4.9c-11.6,3.1-23.3,7.3-33.4-2.8c0-1.5,1.6-2.3,2.2-3.5c15-36.8,30-73.6,44.9-110.5
	C815.9,730.1,818,726.1,825.2,726.5z"/>
<path class="st0" d="M676.1,540.8c-2.2,3.2-1.3,9-6.4,9.4c-15.2,1-14,9.9-14.8,18.3c-0.4,4.1,0.5,9.7-6.9,9.2
	c-5.9-0.4-5.9-5.4-5.4-9.2c1.5-11.9-2.1-20-19-20.3c-5.7-0.1-7.9-4-8.2-7.9c-0.4-5.1,4.8-4.6,8.8-4.6c14.4-0.1,28.9,0,43.3,0
	C671.9,535.7,676.1,535.8,676.1,540.8z"/>
<path class="st19" d="M139.9,484.5c6.2-11.6,4.8-14.8-8.4-19.1c-2.4-0.8-4.9-1.2-7.3-1.8c-24.1-6.1-28.7-19.4-12.2-35.2
	c3.2-0.9,3.9,0.3,3.1,2.6c-2.6,9.2,1.5,13.1,16.7,15.6c22.5,3.7,30.6,16.5,20.4,31.9c-2.6,4-5.9,6.8-11.8,6.8L139.9,484.5z"/>
<path class="st0" d="M150.1,797.9c-18.4,4.6-30.9,2.3-42.8-1.1c-13.2-3.7-7.7-14.8-9.4-22.2c-1.6-7.2,9-4.1,14.4-4.6
	c5.6-0.5,11.3-0.2,17-0.1c7.8,0.2,12.1,2.7,8.2,9.6C133.1,787.5,135.2,793.5,150.1,797.9z"/>
<path class="st19" d="M40.8,482c-0.3-17.7-0.6-35.3-0.9-53c7.7-6.4,15.4-6.5,23.2-0.2l-0.4-0.2c-2.9,8.5-2.2,17-0.4,25.5
	c0.3,0.8,0.3,1.6-0.2,2.4c-2.1,6.7-0.4,13.5-1.1,20.2c-0.3,3.2,1.8,8.2-3.5,8.5C52.1,485.6,44.3,489.9,40.8,482z"/>
<path class="st0" d="M138.5,707.1c5.9-4.3,11.4-4.7,17.8-3.7c25,3.8,50.1-0.9,75.2,0.3c6,0.3,9.2-2.6,12.1-6.4
	c3.2-4.3,8.9-4.9,13.7-3c6.7,2.7,4.7,9.3,5.1,13.6c0.4,5.3-7,3.3-11.1,3.3c-32,0.2-63.9,0.1-95.9,0.1
	C149.7,711.4,144.1,711.5,138.5,707.1z"/>
<path class="st10" d="M905.4,484.6c0.6-18.6,2.4-37.2-1.1-55.8c-0.7-3.6,2.3-2.8,4.4-3.1c13.3-3.3,19,0.1,17.8,12.1
	c-1.1,11-0.2,22-0.2,33.1C926.2,487.6,926.2,487.6,905.4,484.6z"/>
<path class="st19" d="M968.2,484.7c-12.3,3.2-21.8-2.2-27.2-15.6c-6.8-16.9,3.2-35.2,23.7-43.3c3.2-1.2,5.9-1.1,7.5,2
	c-3.3,8.4-8.9,16.6-5.3,26c0.2,1.2,0.2,2.4,0,3.6c-1.4,7.5-2,14.9,0.1,22.4C967.8,481.3,968.3,482.9,968.2,484.7z"/>
<path class="st10" d="M202.8,428.9c-0.6,0.7-0.6,1.5,0,2.3c2,17,0.6,34.1,0.8,51.2c-4.5,6.5-12.1,3.9-17.8,2.8
	c-6.7-1.3-3.5-7.1-3.5-10.8c0-15.9-0.8-31.8,0.3-47.8C189.7,425.1,197.3,421.1,202.8,428.9z"/>
<path class="st19" d="M851,484.7c-13.2,3.1-18.3-5.4-22.7-12.2c-10.2-15.7-2.4-36.7,15.9-46.3c4-2,7.6-2.4,10.2,1.7
	c0,2.1-0.7,4-1.5,6c-3,15.6-1.4,31.2-0.7,46.9C852.2,482.1,851.8,483.5,851,484.7z"/>
<path class="st18" d="M869.2,425.8c14.2,4,20.1,12,18.6,24.3c-0.7,5.8,0.5,11.8,0,17.7c-1,12.7-15.3,20.9-28.6,16.8
	c0.6-3.1,3.1-5.6,4.4-8.5c1.8-13.5,2-27-0.3-40.4c-1-2.5-1.9-5-1.8-7.7C863,424.6,865.8,424.4,869.2,425.8z"/>
<path class="st21" d="M863.2,428.2c2.7,1.1,3,3.1,3,5.2c1.7,15.5,2.1,30.9-0.2,46.4c-1,2.8-3.2,4.5-6.8,4.8c-2.7,0-5.5,0.1-8.2,0.1
	c-0.2-0.9-0.4-1.7-0.7-2.6c-2.5-17-2.4-34,0-51c0.9-1,1.8-1.9,2.7-2.8C856.4,426.3,859.8,426.3,863.2,428.2z"/>
<path class="st22" d="M539.8,752.3c0.1,27.8,0.4,55.6,0,83.5c-0.1,7.5,0.7,11.3,11.9,11c27.2-0.8,54.4-0.3,81.6-0.4
	c-2.2,1.8-4.5,3.6-6.7,5.4c-25.8-0.7-51.5-0.1-77.2-0.4c-5.5-0.1-11.5,1.2-16.1-2.7c-2.1-29.1,0.7-58.3-1.4-87.4
	c-0.1-1.7,1.2-3.2,2.9-4.3c0.8-1.7,1.7-3.3,2.5-5C538.2,750.9,539,751,539.8,752.3z"/>
<path class="st18" d="M770.6,306.8c5.4,11.1,8.7,20.2,7.9,29.6c-0.8,9.5-9.4,15.2-17.9,13.1c-7.8-1.9-13.1-11.3-8.8-18.8
	C756.4,323.1,763.1,316.2,770.6,306.8z"/>
<path class="st18" d="M252,324.1c-1-5.9-0.5-15.5,5.8-16.9c9.2-2.2,10.4,8.3,15.1,13.3c4,4.2,4.4,9.2,3.9,14.4
	c-0.5,5.1,0.6,10.8-7.7,12c-8.7,1.2-13-3.5-16-9.4C251.1,333.4,251.8,329.2,252,324.1z"/>
<path class="st0" d="M455,712.6c-4.2,4.5-5.2,9.6-7.6,14.9c-1-1.3-3-2.8-2.8-4c1-9.1-3.1-13.1-14.8-12.6c-5.6,0.2-10.3-3.3-14.5-6.6
	c-3.3-2.6-8.1-6.3-11.9-4.4c-7.5,3.7-5.8-1.8-7.1-3.8c-2.1-3.4,0.1-5.6,3.9-7c11.6-4.3,28.1,0.6,33.7,10.6
	C437.9,707,445.7,709.7,455,712.6z"/>
<path class="st23" d="M685.3,563.2c-13.1,32.6-26.2,65.2-39.5,97.8c-0.4,1-2.1,1.7-3.2,2.5c-4.1-9.3,4.7-16.5,6-24.9
	c0.4-12.8,8.2-23.9,12.5-35.8c4.5-12.4,9.9-24.5,14.9-36.8C677.7,561.9,678.9,556.6,685.3,563.2z"/>
<path class="st0" d="M122.1,603.6c2.6-0.5,4-1.1,4.4-0.8c7.2,5.3,20.4-7.8,23,3.6c1.2,5.4-4.8,13.2-6.4,20.2
	c-2,8.2-10.1,10.5-17.2,8.6c-6.2-1.7-8.1-8.6-4.9-14C124.3,615.6,125.5,610.3,122.1,603.6z"/>
<path class="st0" d="M773.1,782.3c0.4,13.2-13.5,20.6-17.8,31.7c-1.5,3.9-8.6,0.5-11.5-2.1c-5.7-5.1-1.4-19.3,6.9-21.2
	c7.2-1.6,9.9-5.3,12.2-10c1.4-2.8-0.2-8.1,5.7-7.4C775.1,774.1,771.6,779.5,773.1,782.3z"/>
<path class="st24" d="M654.3,734.2c-1.4,12,10,6.8,16.4,8.2c1.9,0.8,3.8,1.4,5.8,1.8c13.7,1.8,28.2-2.8,41.3,3.5
	c1.2,0.7,2,1.6,2.2,2.8c-10,15.3-23.9,28.3-35.7,42.5c-2.3,2.9-6.1,4.4-10.1,5.3c0-9.7,7.8-17.1,15.3-22c10.7-7,12.3-17.4,22.5-27.1
	c-21.2,0-39.2,0-57.3,0c-1.1-0.9-2.1-1.8-3.2-2.7C649.1,742,645.8,737.2,654.3,734.2z"/>
<path class="st0" d="M540.2,710.2c16.9-2.3,32-4.8,47.3-6.3c9.6-0.9,19.3,0.1,29-2.3c4.1-1,11.9-2.6,12.7,3.3
	c0.8,5.8-5.3,9.1-12.2,8.8c-7.6-0.2-15.1-1.8-22.7-2.3c-14.9-0.9-29.6,0.5-44.3,2.4C547.1,714.2,544,714.1,540.2,710.2z"/>
<path class="st10" d="M989.1,448c16.8,14.5,13.1,34-7.6,38.9c-2.8,0.7-6.3,1.1-7.9-2.2c-0.6-1.8,0.2-3.4,1.1-5
	c2.9-7.6,3.2-15.2-0.2-22.8c-2.1-2.2-5.8-3.2-7.1-6.1c2.4-5.4,8.1-4.4,13.2-4.8C983.6,446.1,986.6,446.4,989.1,448z"/>
<path class="st25" d="M394.5,619.6c-3.3-4.8-6.3-9.6-9.9-14.2c-1.4-1.8-4-3.4-1.6-5.2c3.2-2.4,5.6,0,7.2,2.2
	c5.5,7.2,10.9,14.3,16.2,21.6c13.7,18.9,27.4,37.8,41.1,56.7c8.6,4.6,19.2-1.7,27.7,3.5c0.1,0.6,0,1.2-0.1,1.8
	c-8.4,2.6-17.2,0.7-25.7,1.2c-4.5,0.3-7.9-1.3-10.2-4.6C424.5,661.5,407,641.8,394.5,619.6z"/>
<path class="st26" d="M385.4,750c0.3-4-1.1-7.6-3.5-11c-0.4-3.8-0.7-7.6-1.3-14.1c8.3,7.8,8.4,15.4,11.7,21.9
	c7.8,5.8,7.6,14.4,10.4,21.8c9.9,26.8,20.3,53.5,30.2,80.4c-1,3.5-3.2,4.7-7.1,2.4c-11.4-30.2-22.7-60.3-34.1-90.5
	C390.3,757,390.5,752.4,385.4,750z"/>
<path class="st27" d="M164.4,775.3c0.8,20.2,1.8,40.5-2.3,60.6c-1.6,7.9,1.6,11.1,12.3,10.8c27.8-0.7,55.6-0.4,83.5-0.5
	c-3.1,2.6-6.3,5.1-9.4,7.7c-8.6-4.4-18.1-2.1-27.2-2.3c-17-0.4-34-0.3-51-0.1c-11.6,0.1-16.4-3.7-13.4-13.2
	c-0.5-17.2-1.7-34.3-1.1-51.5c0.1-2.6,0.7-5,3.5-6.7c0.9-1.7,1.8-3.4,2.7-5C163.1,773.8,163.9,774,164.4,775.3z"/>
<path class="st28" d="M431.4,849.2c-15.5-33.5-26.4-68.2-39.2-102.4c0.8-1.7,1.6-3.4,2.4-5.2c14.8,31.4,24.2,64.2,37.1,96.1
	c1.1,2.8,2.2,5.6,3.2,8.4c0.7,0.6,1,1.3,0.9,2c-0.1,0.7-0.3,1.1-0.5,1.1C434.1,849.9,432.8,849.9,431.4,849.2z"/>
<path class="st29" d="M537,682.9c7.1,2,15.5-2.3,22,3c-12,5.1-24.9,1.4-37.3,2.6c-23.8-3.4-24.1-3.7-21-23.7
	c0.4-2.5,0.9-4.9,0.9-7.4c2.2-9.7,2.3-19.3,0-29c2.5-8.8-5.8-18.1,2-26.7c3-2.1,2.1-5.1,2.7-7.7c2-0.6,3.6-0.1,4.8,1.4
	c4.7,8.8,1.8,18.2,2.8,27.3c0.2,11.3,0.1,22.6,0.1,33.9C513,677.3,513,677.3,537,682.9z"/>
<path class="st30" d="M769,845.3c-0.7,1.2-1.4,2.3-2.2,3.5c-3.7,0.4-7.9-0.4-10.3,3c-35.9,1.2-71.8,2.1-107.7-0.5
	c-1.7-3.1,0.7-4.4,3.6-5.5c35.3,0.3,70.5,0.5,105.8,0.9c3.5,0,5.7-1.4,7.9-3.1C767.1,844.1,768.1,844.7,769,845.3z"/>
<path class="st3" d="M813,469c2.6,2.1,3.8-8.3,6-0.7c1.5,5-0.2,10.7-0.4,16.1c-16.3,2.8-32.6,2-48.9,0.3c-1.9-5.4-0.5-10,5.5-13.2
	c10.4-1.6,21,0.9,31.3-1.1C808.6,469.7,810.8,469.3,813,469z"/>
<path class="st19" d="M790.8,458.6c9.5-8.8,7-19.2,6-29.4c0-4.8,3.4-4.5,7.4-3.5c15.1,5.4,18.1,17.2,6.8,27.3
	c-3.4,3-7.5,5.6-11.2,8.4c-1,1.1-2.2,1.7-3.9,1.9C792.6,462.9,789.6,462.3,790.8,458.6z"/>
<path class="st31" d="M1008.6,683.5c-3.1,2.5-6.3,5-9.4,7.5c-1.5-1-3.1-1.7-4.9-2.2c-49.5-2.9-98.9,0.3-148.4-0.1
	c-11.7-0.1-18.8-2.5-20.1-12.6c3-2.7,6.1-5.3,9.1-8c1,0.9,1.8,1.9,2.6,3c1.4,9,9.3,9.2,17.7,8.7c46.8,0,93.5-0.1,140.3,0
	c2.9,0,5.7,0.2,8.4,1C1005.6,681.6,1007.1,682.5,1008.6,683.5z"/>
<path class="st32" d="M158.2,838.5c-0.6,7.5,2,11.1,12.8,10.7c22-0.8,44.1-0.3,66.1-0.1c4.5,0,11.1-2.3,11.4,4.8
	c-27.1,0.1-54.2,0.2-81.3,0.2c-15.1,0-16.2-1.7-11.5-15.4C156.4,837.5,157.2,837.4,158.2,838.5z"/>
<path class="st33" d="M928,647.6c0.1-2.5,0.1-5,0.2-7.4c2-18.7,2-37.5,0-56.2c-0.1-7.5-0.2-15-0.2-22.5c11-3,7.3,4.4,7.4,7.8
	c0.4,16.9,0.2,33.7,0.2,50.6c0,26.6,0,26.4,33.2,26.8c10,0.1,20.3-2.4,30,1.7c-0.8,0.8-1.6,1.6-2.5,2.4c-19.8,2.2-39.6,0.9-59.5,0.8
	C933,651.5,929.8,650.6,928,647.6z"/>
<path class="st34" d="M103.5,665.3c-0.1-25.2,0.1-50.5-0.3-75.8c-0.1-10.7,4-16,18.4-13.8c6.9,1.1,14.3,0.3,21.4,0.3
	c-6.4,7.1-14.9,9.7-25.5,8.2c-9-1.3-11.4,2.4-11.3,9.3c0.1,24.1-0.3,48.2-0.6,72.2C104.6,666.6,103.9,666.5,103.5,665.3z"/>
<path class="st35" d="M394.5,619.6c13.2,17.5,27,34.8,39.5,52.7c6.7,9.7,14.2,15.9,28.8,13.4c3.9-0.7,8.2,0.1,12.3,0.2
	c-20,7-34.4,3.8-44.2-9.6c-13.1-18-26.3-36.1-39.4-54.1C392.5,621.3,393.5,620.5,394.5,619.6z"/>
<path class="st0" d="M977.5,553c-1-1-1.7-2.4-2.9-2.8c-7.4-2.7-18.2-2.3-16.9-12.5c0.3-2.3,30.1-3,33.9-1.1c3.7,1.9,2.4,3.8,0.8,6.2
	c-2.2,3.2-3.7,6.8-5.5,10.2C983.7,555.4,980.6,555.4,977.5,553z"/>
<path class="st36" d="M990,819.1c0.5,4.1-0.8,7-6.8,6.7c2.8-8.8-2.1-14.5-11.3-18.4c-9.1-3.8-18.2-7.7-27.2-11.7
	C921.5,785.5,916,776.7,919,755c1.5-0.9,2.8-0.8,3.9,0.4c-0.2,22.7,17.5,32.9,40.2,41.1C975.1,800.7,990.6,804.1,990,819.1z"/>
<path class="st37" d="M825.8,676.1c3.3,9.4,11.6,10.1,22,10c45.4-0.4,90.9-0.2,136.3-0.1c5,0,10.4-1.5,14.8,1.9
	c-13.2,3.7-26.7,1.5-40.1,1.1c-10.3,0-20.6,0-30.8,0c-34.1,0.7-68.2,2.2-102.3-0.8C825.7,684.2,825.7,680.1,825.8,676.1z"/>
<path class="st0" d="M648.9,784.5c2,4.6,1.2,8.6-2.2,12.1c-1.5,1.5-4.2,1.2-5.4-0.1c-3.3-3.7-2.6-8.3-1.5-12.2
	c2.5-8.9,6.9-17,20.7-16.9c1,0,2.1-0.1,3-0.3c5.2-1.1,9.8-7.6,15.9-1.1c1.4,1.5,2.3,3.8,0.5,4.3c-6.4,1.8-11.9,8.4-19.1,5.5
	C646,769.8,649,778.2,648.9,784.5z"/>
<path class="st38" d="M199.1,680.7c0.3-38.3,0.4-76.6,1-114.9c0.1-7.4-1.8-11.1-11.8-10.1c-6.6,0.7-13.3,0.3-19.9,0.4
	c9.1-5.8,19.4-1.9,29.1-2.3c5.4-0.2,5.2,4.2,5.2,7.6c0,8.4,0.1,16.8,0.2,25.2c-0.1,8.4,5.1,16.9-0.2,25.3c-0.1,19.4,0,38.9-0.4,58.3
	c-0.1,4.3,3,9.4-3.3,12.7c-1-0.5-1.3-1.1-1-1.6C198.4,681,198.7,680.7,199.1,680.7z"/>
<path class="st39" d="M834.9,670.7c0-0.9,0-1.7,0-2.6c54,0,108,0.2,162-0.2c16-0.1,11.6,8.5,11.7,15.6c-1.2-0.1-2.4-0.2-3.6-0.3
	c-4.9-8.4-14.2-8.5-23.6-8.5c-41.5,0-83,0-124.5-0.1C849.3,674.5,841.4,675.3,834.9,670.7z"/>
<path class="st40" d="M534.2,848.8c25.5,0.1,51,0.1,76.5,0.2c5.5,0,11.3-0.8,15.9,2.8c-3,3.3-7.4,2.3-11.3,2.3
	c-24.5,0.1-49,0.1-73.6,0c-3.8,0-8.4,1.4-10.9-2.6C532.1,850.7,532.3,849.1,534.2,848.8z"/>
<path class="st25" d="M998.8,648.3c-18-0.2-36-0.9-54-0.6c-9,0.2-11.1-2.3-11-9.4c0.5-22.4,0.2-44.8-0.2-67.3
	c-0.1-3.5,3.1-9.1-5.6-9.7c3.1-2.6,6.2-5.3,9.3-7.9c1,0.6,1.3,1.2,1,1.7c-0.4,0.5-0.7,0.8-1.1,0.8c0,26.7,0.3,53.4-0.2,80.1
	c-0.1,7.3,2.5,9.3,11.2,9.2c17-0.4,34,0.2,51,0.3C999.1,646.5,998.9,647.4,998.8,648.3z"/>
<path class="st41" d="M345.3,576.1c0.7-4.7-1.5-9.7,1.8-14.1c1.5,0,3,0,4.5,0.1c0,18.3,0,36.7,0,55c5.3,17.7,2,35.6,1.9,53.5
	c-6.5,7.4-6.2,0.2-8-2.5c-2.7-9.4,0.6-18.5,1.8-27.8C344.7,618.9,348.5,597.4,345.3,576.1z"/>
<path class="st42" d="M503.4,655.4c-0.2,5,0.3,10.1-0.6,15c-2.3,12.1,2.2,18.3,18.2,16c0.1,4.3-2.9,3.3-5.9,2.4
	c-5-0.1-10-0.3-15-0.4c-3.2-8.4-1.9-17-0.7-25.5c0-16.1-0.1-32.2-0.1-48.2c-1.9-16.5-0.5-33-0.8-49.4c0-2.2,0.4-4.3,4.2-3.6
	c0.3,13.4,0.6,26.8,0.9,40.2c0,9.3,0,18.7,0,28C505.1,638.3,505.3,646.9,503.4,655.4z"/>
<path class="st0" d="M416.2,558.5c0.8-6,3-11.9-0.8-18.2c-2-3.3,3.2-4.9,7-4.1c3,0.6,9.1,1.4,6.4,5c-4.7,6.2-2.5,10.7,1.5,16.1
	c2.7,3.5,2.5,8.2,0,12.1c-1.4,2.2-4.4,1.9-6.7,0.8C418.1,567.5,415.4,563.7,416.2,558.5z"/>
<path class="st0" d="M905,559c-1,0.2-1.6-0.1-1.9-0.8c3-3.7,3.3-7.8,2.7-12.1c-0.5-3.3-8.7-7-2.3-9.3c7.1-2.5,16.1-2.5,23.8,0.6
	c3.3,1.3,3.9,4.9,0.9,6.3C919.5,547.8,916.3,557.5,905,559z"/>
<path class="st43" d="M648.4,849.3c4.8,3.7,10.6,2.1,16.1,2.1c30.7,0.2,61.4,0.3,92.1,0.4c-5.1,4.5-11.6,2-17.4,2.1
	c-25.3,0.2-50.6,0.1-75.8,0.1c-20.3-0.1-27.6-9.1-20.2-25c1.6-3.5,4.2-6.8,9-8.2C651.5,830.3,647.1,839.5,648.4,849.3z"/>
<path class="st44" d="M515.1,688.8c2-0.8,4-1.6,5.9-2.4c12.7-0.2,25.3-0.3,38-0.5c12.6-0.4,23.8-7.2,36.9-5.2
	C570.6,694.6,542.9,692.3,515.1,688.8z"/>
<path class="st45" d="M968.4,451.5c3.3,0.3,7.3-1.3,9.3,2.5c1.7,9.2,2.8,18.4-0.8,27.5c-1.1,1.1-2.2,2.2-3.3,3.2c-1.8,0-3.6,0-5.4,0
	c-1.1-0.8-2.1-1.7-3.2-2.5c-2.6-8.6-2.1-17.2-0.3-25.8c0.2-0.7,0.3-1.3,0.2-2C963.8,451.5,965.4,451,968.4,451.5z"/>
<path class="st46" d="M825.1,650.5c-3-2.1-2.5-5-2.2-7.7c1.8-21.3,2-42.6-0.1-64c0-5.7-0.1-11.5-0.2-17.2c7.6-3.3,7.2,1.3,7.5,5.2
	c1.4,22.9,3.4,45.8,0.9,68.6c-1.1,10,2.9,11.8,12.7,11.7C839.6,655.8,831.6,650.2,825.1,650.5z"/>
<path class="st47" d="M158.2,838.5c-0.8,0.1-1.7,0.2-2.5,0.3c-7.6-7.5,0.7-15.3-0.5-22.9c-2.2-17.6-0.4-35.3-1-52.9
	c0-9.1-0.2-18.1,0.1-27.2c0.1-2.3-2.3-6.4,4.1-6.1c0.3,16.8,0.6,33.6,0.9,50.4C159,799.5,158.6,819,158.2,838.5z"/>
<path class="st48" d="M531.1,468.9c2.1,7.5-2.7,10.8-11.3,11.1c-9.1,0.3-11-5.1-11.2-10.9c-0.2-5.8,3.9-10.9,10.7-9.9
	C523.9,459.8,534.1,459.9,531.1,468.9z"/>
<path class="st49" d="M534.2,848.8c-1.1,0.9-2.2,1.8-3.3,2.7c-0.2-28.8-0.4-57.7-0.7-86.5c-1.8-10.3-0.4-20.7-0.8-31
	c-0.1-2.5,0-5.2,4.6-4.8c0.2,9.3,0.4,18.6,0.7,27.9C534.5,787.6,534.4,818.2,534.2,848.8z"/>
<path class="st50" d="M224.4,668.3c0-21.3,0-42.7,0-64c1.3-0.6,2.5-0.5,3.6,0.4c1.3,3.2-0.6,6.8,1.6,10c0,19.4,0.1,38.8,0.1,58.2
	c-0.6,1-1.6,1.4-2.9,1C225,672.3,226.1,669.9,224.4,668.3z"/>
<path class="st51" d="M50.6,739.8c-4.1,7.6-8.2,15.2-12.3,22.8c-6.6,11.3-1.9,23.5-4.2,35.2c-1.2,3.2-2.3,6.5-6.3,8.3
	C22.7,781,24.3,757.5,50.6,739.8z"/>
<path class="st52" d="M843.8,648c-13.2,1.7-16.1-3.2-15.5-13.5c1.1-20.7,0.5-41.5,0-62.2c-0.1-3.7,3.8-9.9-5.6-10.8
	c3.2-2.6,6.3-5.3,9.5-7.9c0.8,0.5,1,1.1,0.8,1.7s-0.5,0.8-0.8,0.8c0.1,8.4,0.1,16.8,0.2,25.2c1.1,19.6,1.7,39.2-0.3,58.8
	c5.1,10.8,16.4,2.3,24,5.3C853.9,652,848.8,650,843.8,648z"/>
<path class="st53" d="M308.4,811.7c-0.1-1.3-0.3-2.6-0.4-3.9c14.1-3.4,23.3,0.3,28.5,11.9c3.7,8.2,9.8,15.7,15.3,23.2
	c3.1,4.2,6.7,7.4,13.2,7.3c2.6,0.1,4.5,0.7,4.2,3.2c-13.4,3.4-22.3-0.1-27.8-11c-4.1-8.1-10.9-15.3-14.9-23.5
	C322.8,811.4,317,809.8,308.4,811.7z"/>
<path class="st54" d="M843.8,648c3.9-1.5,9.1,1,12.4-2.6c16,6.2,29.3-3.6,44-5.1c-1.6,6.1-8.4,7.1-13.8,8.7
	c-20.1,6-40.7,5.4-61.3,1.5C831.3,649.3,838.2,652.1,843.8,648z"/>
<path class="st55" d="M168.5,566.1c4.9,9.4,2.1,19.2,2.3,28.8c0.5,23.7,0.2,47.5,0.1,71.2c0,4.1,1.4,8.5-2.4,12.2
	C168.5,640.9,168.5,603.5,168.5,566.1z"/>
<path class="st0" d="M285.1,692.4c17.7-2.4,22.8,1.3,21.3,14.7c-0.3,2.6-1.4,3.9-4.3,4.1c-4,0.2-10.9,0.5-10.4-2.7
	C292.7,701.8,284.9,698.3,285.1,692.4z"/>
<path class="st56" d="M981.1,850.2c-11.8,6-24.4,6.7-37.5,3.9c-8.3-1.8-16.7-3.5-25-5.2c-3.8-1.9-6.3-4.2-3.9-8
	c0.9-5.7,0.3-12,3.2-16.9c2.9-5.1,3.1,0.7,4.3,1.9c-0.5,18.9-0.5,18.9,30.5,24.4C962.2,850.2,971.7,850.3,981.1,850.2z"/>
<path class="st57" d="M455.7,799.9c7.7-24.4,20.1-47.5,26.8-74.5c4.4,6.9,1.2,11.7,1.7,16.3c-6.9,21-14.4,41.8-24.7,61.9
	C456.6,803.6,454.8,802.7,455.7,799.9z"/>
<path class="st0" d="M333.2,856c3.8,9.2-3.7,10.3-12.1,10.6c-4.2,0.1-10-0.9-9-4.7c2-7.1,9.8-12,17.1-14.1
	C335.2,846.1,335,851.9,333.2,856z"/>
<path class="st58" d="M667.4,208.7c19.6-9.3,37.1-20.7,59.5-28.5C720.5,191.2,683.3,208.3,667.4,208.7z"/>
<path class="st59" d="M459,802.7c8.4-20.3,16.8-40.7,25.2-61c0.9,0.8,1.7,1.7,2.6,2.6c-8.4,22.3-16,44.8-27.3,66.3
	C450.7,808.3,456.6,805.4,459,802.7z"/>
<path class="st0" d="M869.2,501.3c18.6-1.6,36.8-13.4,58.8,0C906.5,501.3,887.8,501.3,869.2,501.3z"/>
<path class="st60" d="M267.4,576.4c15.7,0,31.4,0.1,47.1-0.3c5.1-0.1,11.2,2.6,15.3-2.4c-1,8.3-8.1,10.5-16.6,10.5
	c-15.4,0-30.8-0.3-46.2-0.5c3.5-6.7,10.6-2.7,15.9-3.3c11.1-1.2,22.5,1.3,29.9-0.4C300,577.9,283.4,584.5,267.4,576.4z"/>
<path class="st61" d="M641.1,107.5c-7.6,17.1-18.5,32.5-32.9,46.1C617.9,137.6,625.8,120.7,641.1,107.5z"/>
<path class="st62" d="M989.1,448c-1.8,0.3-3.7,0.7-5.5,1c-13-6.1-8.3-13.6-2.6-21.2c1.5-1.6,3.3-2.8,6-2
	C1002,434,1002.4,438.2,989.1,448z"/>
<path class="st0" d="M595.5,812.1c8.7-2.7,16.3-5,23.8-7.4c3.5-1.1,6-5.3,10.7-2.5c2.2,1.3,2.9,3.3,1.7,5.6
	c-2.1,3.9-4.3,7.7-10.6,7.9C612.5,816,603.9,816.2,595.5,812.1z"/>
<path class="st63" d="M571.7,749.9c-0.3-3.8-1.1-8,6-7.9c17.6,0.2,35.4-1.6,52.8,2.1c-5,0.8-10.1,1.6-15.1,2.4
	c-6.7,4.3-15.1-0.2-22.1,2.8C586.1,749.4,578.9,749.7,571.7,749.9z"/>
<path class="st64" d="M754.2,286.6c-3.1,0-6.2,0-9.3,0c-14.6-1.7-29.8,1.3-44.4-4c3.7-2.7,7.2-2.2,10.7-1.4
	c17.6,2.3,35.3,0.2,49.2,1c5.8-0.9,3.2-3.3,4.2-1.8c0.3,0.5,0,0.9-1,1c-11.5,0.7-23.1,2.2-34.5-0.8c11.2-4.5,23.1-1.3,34.6-2.1
	c3.5-0.2,8.4-0.4,8.7,3.3c0.4,4.8-5,4.2-9,4.5C760.4,286.4,757.3,286.5,754.2,286.6z"/>
<path class="st65" d="M183.8,426.3c0,15.9-0.2,31.7-0.1,47.6c0.1,12.4,2.4,13.4,18.6,8.2c1.5-1,2.3-0.7,2.4,0.9
	c1.3,0.7,2.9,1.1,3.8,2c2.4,2.8-1.4,2-2.2,2c-10.8,0.1-21.6,0.1-32.1,0.1c11-19.5,7.6-39.2,3.1-59.1c-0.6-1.2-0.3-2.1,0.9-2.9
	C180.2,424.9,182.3,424.6,183.8,426.3z"/>
<path class="st66" d="M195.6,749.2c0-4,0.4-7.5,7.1-7.3c16.5,0.4,33.2-1.7,49.5,2.1c-3,0.8-6,1.7-9,2.5c-7.9,4.2-17-0.3-25.1,2.7
	C210.6,749.2,203.1,749.2,195.6,749.2z"/>
<path class="st67" d="M350.4,672.8c0.4-18.6,0.8-37.2,1.2-55.8c0.8,0,1.5,0,2.3,0c3.9,16.4,0.8,33,1.8,49.5
	c-5.1,15.2,8.5,15.6,20.3,17.4c-7.2,7-15.5,5.1-24,2.1C346.3,682.1,347.7,677.5,350.4,672.8z"/>
<path class="st1" d="M227.2,673.3c0.9-0.2,1.7-0.4,2.6-0.5c1,1.7,2,3.5,3,5.2c0.5,0.7,0.9,1.5,1,2.3c19.1,3.9,38.6,0.5,57.8,1.8
	c10.6,0.7,21.4-1.9,31.8,1.5c1,2.6,2.5,5.4-3.3,4.7c-26.6-3-53.3-1.1-80-1C226.1,687.4,222.5,683.6,227.2,673.3z"/>
<path class="st68" d="M905.4,484.6c15,2.3,22-1.5,19.8-15.2c-1.5-9.6-1.3-19.5,0-29.2c1.5-11-3.3-15.5-16.4-14.5
	c19.2-3.8,19.2-3.8,19.2,11.5c0,12.6-0.9,25.3,0.3,37.9c1,10.2-3.2,13.7-15.2,12.3c-4.7-0.5-9.6-0.1-15.7-0.1
	C900.6,483.5,903.1,484.5,905.4,484.6z"/>
<path class="st62" d="M418.7,148.6c-12.5-12.4-20.1-26.3-30.7-42.3C402.7,112.4,418.8,136.4,418.7,148.6z"/>
<path class="st69" d="M484.1,678.3c-4.6-4.4-2.6-9.7-2.6-14.5c-0.2-24.3,0-48.7,0.2-73c0-4-1.6-8.5,2.6-12
	C484.2,612,484.1,645.2,484.1,678.3z"/>
<path class="st70" d="M161.2,645.7c-4.5-18-2.1-36.2-2.1-54.3c3.6-9.9-1.2-20.3,2.7-30.2c6.3,14.3,2.5,29,2.7,43.5
	C160.7,618.2,167,632.3,161.2,645.7z"/>
<path class="st47" d="M28,806.1c1.6-2.5-0.2-5.9,3.2-7.9c5.9,3.1,3.5,8.5,4.9,12.7c5.9,18,20,29.8,39.7,37.9
	c-0.1,2.2-0.9,3.8-4.1,2.8C43.4,845.3,31.7,828.3,28,806.1z"/>
<path class="st71" d="M71.6,851.7c1.1-0.8,2.1-1.6,3.2-2.4c13.5-1.9,27.1,4.1,40.5-0.4c6.4-4.3,14.8-2.9,22-4.9
	C117.4,857.8,95.5,860.4,71.6,851.7z"/>
<path class="st62" d="M346.7,204.3c-17.5-8-34.9-15.9-52.4-23.9C307.4,178.2,337.8,192.2,346.7,204.3z"/>
<path class="st72" d="M227.2,673.3c-1.7,9.7,2.5,13.4,15.2,12.9c21.6-0.9,43.3-0.3,65-0.2c4.3,0,9.4-1.9,12.6,2.4
	c-26.2,0-52.5-0.5-78.7,0.4c-13.6,0.5-20.5-2.1-17.4-14.2c0.5-2,0.3-4.2,0.5-6.3C225.3,670,226.3,671.7,227.2,673.3z"/>
<path class="st73" d="M685,167.5c-9.9,13.3-25.5,20.8-40.8,28.8C655.5,184.4,668.5,174.2,685,167.5z"/>
<path class="st74" d="M31,571c0.7,6.3,6.2,5.4,11.4,5.3c9.8-0.1,19.5,0.1,29.3,0.2c0.9,0.6,1.3,1.2,1.3,2c0,0.8-0.1,1.2-0.3,1.2
	c-1.4,3.3,0.6,7.6-4.4,9.8c-3.9-11.8-3.9-11.8-31.3-9.7c8,4.7,18.4-2,25.2,4.5c-7,3.5-14,3.7-21.1,0.2c-4.3-0.3-8.6-0.6-12.8-0.9
	c-4-5.9-8.5-11.8,0.3-17.5C29.3,567.7,30.2,569.4,31,571z"/>
<path class="st10" d="M785,428.5c-3.5,1.5-3.8,4.5-2.2,6.4c3.4,4.1,4.5,7.7-1.5,10.5c-5.3,2.4-10.6,0.2-13.5-3
	c-3.3-3.6-1.7-8,2.7-11.1c3.4-2.3,5.8-6,11.2-5.8C784.9,425,785.9,426,785,428.5z"/>
<path class="st0" d="M847.3,853.1c1.3,5.1-1.9,8.5-9.2,9.8c-3.8,0.7-8.5,3.1-10.8-1c-1.9-3.6,3.2-4.4,6-6c2.3-1.3,5.8-1.6,5.5-5.1
	c-0.3-3-7.6-7.7,0.6-8.7C847.2,841.1,847,847.4,847.3,853.1z"/>
<path class="st0" d="M681.6,95.7c-0.4,5-18.1,14.9-22.6,13.2c-2.1-0.8-5.1-3.1-4.9-4.4c1.4-6.5,10.3-5.7,14.7-9.5
	c3-2.6,7-3.5,11.2-1.8C681.1,93.8,681.4,95.3,681.6,95.7z"/>
<path class="st75" d="M143,556.2c-36.2-0.2-72.4-0.5-108.6-0.7c10.2-4.3,21.1-1.7,31.6-2c21.1-0.5,42.2-0.3,63.2,0
	C133.9,553.6,139.7,551.2,143,556.2z"/>
<path class="st76" d="M265.1,635.4c-1.3-6,1.7-8.1,9.1-8c14.2,0.3,28.4-0.1,42.6-0.2c-0.3,5-8,1.4-9.3,5.3
	c-9.9,3.1-20.5-0.6-30.5,2.1C273.1,634.9,269.1,635.1,265.1,635.4z"/>
<path class="st0" d="M276.9,843.9c-0.2,0.7-0.2,1.4,0.1,2.1c0.9,1.8,0.2,2.9-2.1,3.3c-7.1-3.9-3.5-9.9-4.5-15
	c0-19.7-0.1-39.4,0.1-59c0-4.4-1.5-9.3,3.5-13c0.8,0,1.5,0,2.3,0c3.5,3.5,1.2,7.7,1.9,11.5C277.4,797.2,279.8,820.6,276.9,843.9z"/>
<path class="st77" d="M456.9,556.3c0,25.2,0.1,50.4-0.3,75.6c0,2.6,4.5,12.2-7.2,5.5c0.2-0.7,0.4-1.3,0.5-2
	c0.4-9.5-3.8-19.4,3.2-28.4c0.2-16.9,0.5-33.7,0.7-50.6C454.8,555.1,455.8,555.1,456.9,556.3z"/>
<path class="st61" d="M747.4,249.4c-17.2,7.6-36,5.4-53.9,7.7C711.1,252.4,728.4,246.5,747.4,249.4z"/>
<path class="st78" d="M597,107.7c-4.8,18.2-12,31.8-20.6,46.3C575.3,141.8,585.1,118,597,107.7z"/>
<path class="st57" d="M277.2,772.4c-0.3-3.3-0.6-6.7-0.9-10c0.1-11,0.5-22,0.1-33c-0.2-6.1,2.4-8.3,9.8-8c11.3,0.4,22.6,0.3,34,0.4
	c-8.6,4.6-18.1,2.1-27.1,2c-9.9-0.1-14,2.2-13.5,10.8c0.7,12.7,0,25.4-0.1,38.2C278.3,773.7,277.6,773.5,277.2,772.4z"/>
<path class="st79" d="M825.7,688.2c34.1,0.3,68.2,0.5,102.3,0.8c-2.6,2.4-6.1,1.8-9.4,2c-20.7,0.1-41.3,0.2-62,0.3
	C846.3,689.7,835.2,694.4,825.7,688.2z"/>
<path class="st80" d="M813.6,826.2c0.9-2.8,1.2-7.3,4.5-7.3c17.8,0,35.9-4.1,53.3,2.1c-2.1,1.8-4.2,3.7-7.7,3.5
	c-12.4-1.9-24.8-3.4-37.4-2.1c-2,0.2,0,2.9-0.4,1.2c-0.1-0.5,0.1-0.8,0.6-0.8c8.1,0.4,17-4.2,24,2.8
	C838.2,825.9,825.9,826.1,813.6,826.2z"/>
<path class="st81" d="M140.4,485.2c-11.1,5.5-23.3,1.9-33.7,0c-8.2-1.5-2.6-11-4.3-20.7c11.3,12.5,20,22.8,37.6,19.9
	C139.9,484.5,140.4,485.2,140.4,485.2z"/>
<path class="st0" d="M743.2,433.7c-5.6-0.1-10.6-1.4-10-6.9c0.4-3.9,3.4-7.5,9-6.5c4.7,0.8,12.5-0.7,11.8,6.7
	C753.4,432.3,748.9,433.8,743.2,433.7z"/>
<path class="st82" d="M233.7,584c3.9,28,4.8,56.1,0,84.2C233.7,640.1,233.7,612,233.7,584z"/>
<path class="st62" d="M376.5,190.1c-15-9.9-28-18.5-42.1-27.9C348.7,161.9,369.7,175.8,376.5,190.1z"/>
<path class="st83" d="M332.2,556.2c-33,0-65.9-0.1-98.9-0.1c2.5-4.1,7.1-2.6,10.9-2.6c25.7-0.1,51.4-0.1,77.2,0
	C325.2,553.5,329.9,552,332.2,556.2z"/>
<path class="st84" d="M733.1,655c6.8,7.6,5.5,17.2,9,25.6c7.6,4.2,17.2-1.3,24.8,3.3c-0.1,0.8-0.3,1.6-0.5,2.4
	c-29.9,2.7-29.9,2.7-38.8-27.8C728.2,656.1,729.4,654.2,733.1,655z"/>
<path class="st85" d="M260.6,724.2c-31.9-0.1-63.8-0.1-95.7-0.2c-0.7-0.6-0.9-1.1-0.6-1.6c0.3-0.5,0.6-0.7,0.9-0.7
	c28.8-0.1,57.6-0.3,86.5-0.2C254.7,721.6,259.1,720,260.6,724.2z"/>
<path class="st86" d="M323.4,683.7c-25.2-0.1-50.5-0.1-75.7-0.5c-4.7-0.1-10.5,2.2-13.8-2.8c31.9,0.2,63.8,0.3,95.7,0.5
	C328.9,684,325.7,683.2,323.4,683.7z"/>
<path class="st15" d="M728.9,658.4c0.6,1.6,1.3,3.1,1.9,4.7c8.1,21.6,8.1,21.6,35.5,23.2c-9.4,4.9-19.9,2.7-29.5,1.8
	c-8.1-0.8-5.8-8.7-7.3-13.6c-2.3-7.1-1.7-15.8-15.4-14.5c-1-1.4-0.6-2.6,1-3.5C720.1,655.2,725,654.4,728.9,658.4z"/>
<path class="st87" d="M239.5,478.8c0.7,5.3-1.9,8.8-8.4,8.2c-5.3-0.4-9.8-3.6-10-8.2c-0.2-5.3,5-6.8,10.6-6.8
	C237.5,472,240.6,474,239.5,478.8z"/>
<path class="st76" d="M571,798.2c-3.4-7.2,3.7-5.2,7.4-5.2c14.2-0.2,28.3-0.2,42.5-0.2c-0.7,4.8-7.7,1.8-9.5,5.3
	C597.9,800,584.4,799.7,571,798.2z"/>
<path class="st88" d="M195.2,798.7c-5.5-6.7,1.4-5.8,5.6-5.8c14.9-0.2,29.9-0.1,44.8-0.1c-0.8,4.5-7.6,1.8-9.3,5.2
	C222.6,800.4,208.9,799.1,195.2,798.7z"/>
<path class="st89" d="M273.1,836.1c2.3,4-2.7,9.3,3.4,12.7c8.4-0.5,17.4-4.4,24.4,2.9c-9.4,5-20.4,3.7-29.3,1.5
	c-9.2-2.3-2.4-11-3.8-16.8c0.5-0.8,1.4-1.3,2.6-1.6C271.4,834.9,272.4,835.3,273.1,836.1z"/>
<path class="st90" d="M267.8,769.8c0-13.9,0-27.7,0-41.6c7.7,10.2,5.3,21.1,5.2,31.8c-2.3,3.1-0.2,6.7-1.8,9.8
	C270.1,770.7,269,770.6,267.8,769.8z"/>
<path class="st91" d="M449.3,637.4c-1.7-2.7-3.3-5.3-5-8c2.8-18.5,0.4-37.1,1.5-55.6c0.2-3.3-4.4-8.8,4.3-10
	c0.2,14.4,0.5,28.8,0.8,43.2c1.5,10.1,1.3,20.2,0.1,30.3l-0.9-0.1L449.3,637.4z"/>
<path class="st92" d="M270.3,770.1c1-3.3-1.2-7.3,2.8-10c0.2,0.8,0.5,1.6,0.9,2.3c-0.3,24.6-0.6,49.2-0.9,73.7c-1,0-1.9,0.1-2.9,0.1
	C268.2,814.1,268,792.1,270.3,770.1z"/>
<path class="st93" d="M457.7,147c-10.5-8.7-14.2-19.6-19-30c-1-2.2-2.1-5.3,1.9-6.2c3.1-0.8,4.3,2,5.1,3.8
	C449.7,125.4,453.6,136.2,457.7,147z"/>
<path class="st15" d="M636.2,724.1c-26.1,0-52.2,0-78.3-0.1c-5,0-10.3,1.3-14.7-2c28.5-0.2,57-0.4,85.4-0.5
	C631.6,721.5,635.1,720.8,636.2,724.1z"/>
<path class="st94" d="M648.7,638.6c1.6,8.9-7.3,16-6,24.9c-0.7,5.4-2.2,10.5-6.6,14.8c-1.3,1.9-0.2,4.5-3,5.9
	c-2,0.7-3.9,0.6-5.6-0.7C635.9,669,638.7,652.7,648.7,638.6z"/>
<path class="st0" d="M384.9,709.9c-1,3.8-4.1,7.3-7,5.4c-5.5-3.8-14.6-4.3-16.6-11c-0.7-2.2,3.3-3.4,5.6-2.4
	C373,704.5,383.1,701.7,384.9,709.9z"/>
<path class="st95" d="M450.2,563.8c-6.7,5.3-2,11.8-2.7,17.7c-1.8,15.9,2.6,32.1-3.1,47.9c-1-1.7-1.9-3.3-2.9-5
	c5.8-15.8,1.4-32.1,2.5-48.1c0.3-4.2-0.5-8.4,0.5-12.4C445.2,560.9,448.1,560.1,450.2,563.8z"/>
<path class="st96" d="M40.8,482c16.6,5.5,18.5,4.4,18.9-9.5c0.2-5.3-2.3-11,2.4-15.9c0.2,5.4,1.1,10.8,0.5,16.2
	c-0.9,8.1,2.4,11.7,12.6,10c0.6,2.2-0.9,3.2-3,4c-10.2,0.2-20.5,0.8-30.7,0.4C33,486.8,36.6,484.2,40.8,482z"/>
<path class="st0" d="M348.4,535.7c10.4,0,18-0.1,25.5,0c2.9,0,6.7-0.1,6.5,3.4c-0.1,2.2-2.7,3.6-5.4,3.8
	C366.2,543.5,357,544.5,348.4,535.7z"/>
<path class="st97" d="M928,647.6c10.3,5.7,21.9,1.9,32.9,2.6c11.7,0.7,23.6,0.4,35.4,0.5c-21.3,6.1-42.9,2.3-64.4,1.6
	C929,652.2,927.9,649.9,928,647.6z"/>
<path class="st93" d="M72.2,486.8c1-1.3,2-2.7,3-4c7.7-2.7,11.9-8.4,16.7-14.8C95.7,487,95,487.6,72.2,486.8z"/>
<path class="st0" d="M124.9,663.6c-0.4-2-0.9-5.2-1.9-8.4c-0.7-2.3-0.7-4.4,2-5.3c1.5-0.5,4,0,5.5,0.7c3.9,1.7,2.4,4.1,0.4,6.2
	c-3.4,3.4-3.5,6.7,0,10.2c2.7,2.7,4.9,5.7,0.1,8.5c-1.2,0.7-3.6,1.5-4.1,1.1c-3.2-2.4-3.8-5.6-3.2-9
	C123.8,666.6,124.2,665.8,124.9,663.6z"/>
<path class="st98" d="M330.8,253.7c-17.7,5.8-31,1.2-44.3-4.2C300.9,246.6,314,252.3,330.8,253.7z"/>
<path class="st99" d="M320.2,280.5c2.4,0.5,6.1,0.4,6.8,1.6c1.4,2.2-1.6,3.5-3.9,3.7c-4,0.2-8.1-0.1-12.1-0.2c-15.7-3-32,2-47.5-2.7
	c7-6.8,16.3-2.5,24.4-3C298.6,279.4,309.5,278.7,320.2,280.5z"/>
<path class="st100" d="M1004.8,644.9c4-12-0.5-17.5-16.4-15.1c-4.5,0.7-9.3,0-13.9,0.5c-12.7,1.4-18.7-2.2-15.2-13.2
	c2.1,8.8,8.5,12,19.2,10.5c5-0.7,10.1-0.3,15.2-0.3C1010.3,627.2,1012.8,631.2,1004.8,644.9z"/>
<path class="st101" d="M270.3,770.1c0,22-0.1,44.1-0.1,66.1c-0.8-0.1-1.7,0-2.5,0.2c0-22.2,0.1-44.4,0.1-66.6
	C268.7,769.9,269.5,770,270.3,770.1z"/>
<path class="st102" d="M590.2,555.7c-26.9,0.2-53.8,0.3-80.7,0.5c-1-0.5-1.4-1-1-1.4c0.4-0.4,0.7-0.7,1.1-0.7
	C536.5,554.4,563.5,550.4,590.2,555.7z"/>
<path class="st103" d="M937.2,556c0-0.8,0.1-1.7,0.1-2.5c13.4-0.2,26.8-0.3,40.2-0.5c3.1,0,6.2,0,9.3,0c4,0.1,8,0.3,12,0.4
	c10.1,0.1,12.9,3.3,7,10.6c0.6-6.9-3.9-8.3-11.4-8.2C975.3,556.2,956.3,556,937.2,556z"/>
<path class="st0" d="M797.4,461.7c0.8-0.3,1.6-0.4,2.4-0.3c3.4,3.7,11.5,2,13.2,7.7c-1,1.1-2,2.1-2.9,3.2
	c-9.3,1.5-18.6,1.4-28.2-0.1C783.6,464.5,791.6,464.2,797.4,461.7z"/>
<path class="st97" d="M914.6,840.9c0.4,3,1.2,5.8,3.9,8c-5.3,0.6-11.3-1.6-15.7,2.6c-9.2-0.1-18.5,0.2-27.7-0.6
	c-3.8-1.1-4.8-3.7-5.2-6.6c0.6-3.6,1.5-7,5.9-8.9c4.5,3.1-0.3,13.2,10.7,10.7c7.7-1.8,18.8,6.7,23.1-5
	C911.4,841,913,840.9,914.6,840.9z"/>
<path class="st104" d="M962.5,569.1c14.3-0.1,28.7-0.1,43-0.2c-0.8,4.5-7.5,1.4-9.3,4.8c-10,2.9-20.3,1-30.4,1.1
	C961.7,574.9,958.9,572.8,962.5,569.1z"/>
<path class="st15" d="M760.4,722c-25.9,3.4-51.7,3.6-77.6,0C708.7,722,734.6,722,760.4,722z"/>
<path class="st88" d="M822.8,578.8c4,21.3,4.5,42.6,0.1,64C822.9,621.4,822.8,600.1,822.8,578.8z"/>
<path class="st105" d="M949.6,851.1c-3.5-0.6-7-1.2-10.5-1.8c-23.2-4.3-23.6-4.9-16.9-23.4c0.8,0,1.6,0.1,2.4,0.1
	c-7.3,19.1,13.8,17.6,25,23.3c1,0.4,1.3,0.8,1,1.2C950.3,850.9,949.9,851.1,949.6,851.1z"/>
<path class="st0" d="M284.8,539.4c0.9-1.1,1.3-2.2,2-2.4c8.3-1.7,16.7-3.5,24.4,1.4c0.4,0.3-0.2,2.8-0.9,3
	C301.4,544.5,292.9,544.6,284.8,539.4z"/>
<path class="st106" d="M345.3,576.1c5.5,14,0.9,28.4,2.5,42.6c0.8,7.1-0.3,14.3-0.5,21.5C342.8,618.9,344.8,597.5,345.3,576.1z"/>
<path class="st107" d="M648.4,849.3c-5.6-10.1-0.7-19.3,3.8-28.6c3-2.5,6-5,9-7.4c-1.5,11.1-13.7,20.3-8.7,32.6
	C651.1,847,649.7,848.1,648.4,849.3z"/>
<path class="st108" d="M384.7,670.8c-4.4-19-2.1-38-2.5-57.4c8.9,1.2,3,6.4,6.3,8.3c-7.3,9.7-1.8,20.3-3.1,30.4
	C384.7,658.3,384.9,664.6,384.7,670.8z"/>
<path class="st0" d="M506,814.5c0.7-3.5-1.4-8.6,6-8.1c4.9,0.3,6.5,3.8,6.2,7.5c-0.3,4.2-3.1,8-7.8,8.2
	C503.9,822.3,507.1,817.2,506,814.5z"/>
<path class="st109" d="M161.2,645.7c3.3-13.6-2.8-27.6,3.4-41c0,20.2,0,40.4,0.1,60.6c-8.5-4.1-2.8-10.3-3.4-15.6
	C161.2,648.4,161.2,647.1,161.2,645.7z"/>
<path class="st110" d="M431.4,849.2c1.1-0.2,2.2-0.3,3.2-0.4c10.5-1.7,21-2,31.4,0.1c-0.4,3.4-2.3,5.7-6.7,5.2
	c-11.2-1.3-23,3.3-33.6-2.7C428.1,851.5,430.3,851.3,431.4,849.2z"/>
<path class="st111" d="M300.8,851.7c-7.5-4.7-16.4-1.4-24.4-2.9c0.2-0.9,0.4-1.8,0.6-2.7c30.5,0.9,30.5,0.9,30.7-24
	c0-2.1,0.3-4.2,0.4-6.3c5.3,9,2,18.6,2.8,28C311.4,849.4,303.3,848.2,300.8,851.7z"/>
<path class="st112" d="M252.2,156.6c-12.3-1.8-19.9-6-27.7-9.5c-2.3-1-4.6-2.6-2.8-4.9c1.7-2,4.5-1.5,6.8-0.3
	C236.2,145.5,244.2,148.9,252.2,156.6z"/>
<path class="st113" d="M797.4,461.7c-4,2.9-8.1,5.9-14.6,10.6c10.8,0,19,0,27.3,0c-11.8,4.1-23.4,3.6-34.9-0.8
	c5.2-4.3,10.4-8.6,15.6-12.9C791.9,461.2,794.5,461.6,797.4,461.7z"/>
<path class="st114" d="M502.7,561.6c-6.3,9.3-2,19.4-2.7,29.1c-0.6,8-0.5,16-0.7,24c-5-17.3-1.7-34.8-2.4-52.3
	C496.8,559.4,500,558.2,502.7,561.6z"/>
<path class="st0" d="M811.4,502.2c-11.2,0-20.3,0-29.7,0C791.3,492.6,794.5,492.5,811.4,502.2z"/>
<path class="st115" d="M969.3,742.4c17.1-5.3,30.3,5,45.4,7.7c-3.2,2.3-6.4,4.7-9.6,7c-10.1-8.2-23-10.9-36.4-12.7
	c-0.1,0-0.2-0.6-0.1-0.9C968.8,743.1,969.1,742.8,969.3,742.4z"/>
<path class="st112" d="M289.5,174.4c-12.4-1.8-19.8-6.4-27.8-9.6c-2.3-0.9-4.7-2.4-2.5-4.8c1.9-2,4.6-1.5,6.9-0.3
	C273.4,163.5,281.3,166.5,289.5,174.4z"/>
<path class="st116" d="M354.6,668.4c-0.2-17.1-0.5-34.2-0.7-51.3c0.3-1.7,0.5-3.5,0.8-5.2c0.7,0.1,1.4,0.2,2.1,0.3
	c-0.1,18.5-0.2,37-0.3,55.5C355.9,667.9,355.3,668.2,354.6,668.4z"/>
<path class="st58" d="M223.4,426.6c0,6.2,0,12.5,0,19.3c-9.3-3.5-4.7-14.9-15.1-17.2C212.1,422.3,217.8,424.5,223.4,426.6z"/>
<path class="st117" d="M850.5,825.7c-8.7-4.9-19.2,0.2-30-4.2c16.6-0.9,31.2-1,45.8,1.6c4.8,0,4.3,2.7,4.1,5.3
	c-1.1,1.8-2.8,3.1-5.4,3.3C862.9,825.2,856.4,825.9,850.5,825.7z"/>
<path class="st118" d="M717.6,224.1c0.2-1.4,0.1-2,0.3-2.2c8.2-5.8,17.9-8.8,28.6-9.8c0.4,0,1.7,2.6,1.3,2.9
	C739.6,221.9,728.4,221.8,717.6,224.1z"/>
<path class="st119" d="M928.2,583.9c4.3,18.7,4.3,37.5,0,56.2C928.2,621.4,928.2,602.7,928.2,583.9z"/>
<path class="st14" d="M63.1,428.9c-7.8-4.2-15.5-4.6-23.2,0.2c-4.7-0.8-6.5-4.7-1.7-4.8c17.2,0,35-4.2,51.8,2.3
	c-6.3,5.2-14.1-1.6-20.7,1.8C67.3,428.5,65.2,428.7,63.1,428.9z"/>
<path class="st120" d="M376.8,149.8c-7.9-6.5-13.6-11.5-19.7-16.1c-2-1.5-4.2-2.7-2.2-4.8c1.8-1.9,5.2-1.5,6.9-0.3
	C368.8,133.8,375.4,139.2,376.8,149.8z"/>
<path class="st104" d="M223.4,426.6c-5.1,0.4-11-3.2-15.1,2.1c-1.8,0.1-3.6,0.1-5.5,0.2c-5.4-5.6-12.7-1.6-19-2.7
	c-2.3,0.2-4.6,0.4-6.9,0.6c-5.1,0.5-10.4,3.3-15.1-0.8C182.4,422.4,202.9,421.2,223.4,426.6z"/>
<path class="st51" d="M356.8,612.2c-0.7-0.2-1.4-0.3-2.1-0.3c1.2-18.7-4.3-37.5,2.2-56.1C356.8,574.6,356.8,593.4,356.8,612.2z"/>
<path class="st121" d="M229.7,614.7c-3.7-3-1.9-7-2.9-10.4c-2.2-14.2-1.9-28.5-0.2-42.8C233.8,579,229.4,596.9,229.7,614.7z"/>
<path class="st93" d="M669.1,66.5c3.9-8,5.9-16.8,17.5-24.2C685.6,55,677.3,60.7,669.1,66.5z"/>
<path class="st46" d="M521.1,89.8c1.5,15,1.2,30-1.4,45.6c-7.1-2.5-3.1-7-5-9.9c0.2-0.7,0.3-1.4,0.5-2.1c0.6-7.9-0.1-15.8,0.4-23.6
	C515.8,96,513.7,91,521.1,89.8z"/>
<path class="st104" d="M320.2,280.5c-13.8,0-27.7-0.2-41.5,0.2c-4.8,0.1-10.4-2-14.2,2.4c0.8,0.5,1.1,1,0.8,1.5
	c-0.3,0.5-0.6,0.8-0.8,0.8c-6.9-4.5-2.4-6.9,2.9-6.9C285.1,278.5,302.9,276.3,320.2,280.5z"/>
<path class="st122" d="M969.3,742.4c9.9,3,21.1,3.1,30.1,8.3c2.8,1.6,7.1,2.2,5.8,6.3c-14.1-3.9-26.4-13-42.9-9.6
	C963.3,744.6,965.1,742.4,969.3,742.4z"/>
<path class="st123" d="M155.1,762.5c0,17.8,0.1,35.5,0.1,53.3c-5.3-17.8-1.7-35.8-2.4-53.7C153.8,761.1,154.6,761.2,155.1,762.5z"/>
<path class="st124" d="M165.2,721.8c-0.2,0.7-0.3,1.5-0.3,2.3c-0.1,17.1-0.3,34.2-0.5,51.2c-0.8-0.1-1.6-0.2-2.4-0.3
	c-0.1-14.4-0.3-28.8-0.2-43.2C161.8,728.3,159.4,724,165.2,721.8z"/>
<path class="st125" d="M667.9,129.9c1.9,12-8.6,15.9-15.9,21.9c-1.2-0.8-2.4-1.6-3.6-2.3C655,142.9,661.5,136.4,667.9,129.9z"/>
<path class="st123" d="M204.6,483c-0.8-0.2-1.6-0.5-2.4-0.9c0.2-17,0.4-34,0.5-50.9C208,448.4,204.6,465.7,204.6,483z"/>
<path class="st126" d="M285.7,214.1c10.9-2.6,18.9,2.5,30.4,6.8C301.8,224.7,293.9,219.2,285.7,214.1z"/>
<path class="st127" d="M456.9,556.3c-1,0-2.1,0-3.1,0.1c8.5-5.6,18.5-2.5,27.8-3c3.4-0.2,5.9,2.1,5.7,4.9c-0.5,7,2.7,14.2-2.4,20.9
	c-0.2-0.8-0.5-1.6-0.5-2.5C483.7,555.1,483.7,555.1,456.9,556.3z"/>
<path class="st128" d="M664.6,72.1c-0.9,13.3-8,19.6-17.1,25C651,89.4,653.6,81.2,664.6,72.1z"/>
<path class="st129" d="M267.4,576.4c9.3,5.1,19.7,2,29.6,2.6c6.6,0.4,13.2,0.1,19.9,0.8c-16.4,4.6-33.7-1.9-49.9,3.9
	c-0.9,0.2-1.7,0.4-2.5,0.6C264.8,581.5,263.1,578.2,267.4,576.4z"/>
<path class="st89" d="M80.5,441.9c0,9.8,0,17.7,0,28.3C71.4,459.5,69.4,451.6,80.5,441.9z"/>
<path class="st70" d="M161.2,649.7c2.4,5-1.7,11,3.4,15.6c2.5,5-2.7,11.1,3.6,15.5l0.3-0.6l0.8,0.1c0.7,1.3,0.8,2.6,0.3,4
	c-7.9,3.5-7.9,3.5-10.4-8.2C158.8,667.2,157.1,658.3,161.2,649.7z"/>
<path class="st130" d="M159.3,676c5.5,0.6-2.5,12.2,9.3,7.6c7.1-3.7,14.4,0.2,21.6-0.2c-0.1,1.9,4,5-1.9,5.2
	c-7.6,0.2-15.2,0.5-22.7-0.1C154.4,687.7,160.3,680.6,159.3,676z"/>
<path class="st19" d="M69.4,428.3c6.4-4.2,13.7-1.7,20.7-1.8c0.3,4.5,0.6,9.1,0.9,15.2C82.8,436.8,80.4,427.4,69.4,428.3z"/>
<path class="st93" d="M344.9,47.2c12.3,0.5,17.5,6.5,17.9,21.6C356.5,61.2,350.8,54.3,344.9,47.2z"/>
<path class="st131" d="M514.7,125.5c-4.7-13.6-1.7-27.6-2.1-41.4c-0.1-3,2.5-4.6,6-1.9c-3.8,14.3,0.2,28.9-2.4,43.2L514.7,125.5z"/>
<path class="st132" d="M621.2,780.5c-0.7-7.4-7.5-5-12.6-5.5c-12.3-1.2-25.3,3-37.2-2.7c14.3,0,28.6-0.1,43-0.1
	C621.7,772.1,627,773.2,621.2,780.5z"/>
<path class="st133" d="M773.9,160.4c5.7-7.1,13.1-9.3,19.2-12.9c2.5-1.5,5.7-3.3,7.5-0.1c1.6,2.7-1.4,4.5-4.3,5.7
	C789.7,155.9,783.4,159.4,773.9,160.4z"/>
<path class="st134" d="M832.2,556.2c0-0.8,0-1.7,0-2.5c19.7,0.9,39.6-2.9,59.1,1.9C871.6,555.8,851.9,556,832.2,556.2z"/>
<path class="st18" d="M475.2,84.7c5.3,10.4,8.3,18,4.6,27.6C475.5,103.7,469.8,96.7,475.2,84.7z"/>
<path class="st135" d="M729.1,280.6c13.1,0,26.2,0,39.2,0c0,1.1,0,2.1-0.1,3.2c-19-0.6-38.1,1.7-57.1-2.6
	C717.2,281,723.1,280.8,729.1,280.6z"/>
<path class="st136" d="M922.1,754.7c-1,0.2-2,0.3-3,0.2c1-8.3,5.8-14.5,15.2-18c-4.1,8.2-6.8,16.6-7.2,25.5
	C920.3,762.2,925.1,756.7,922.1,754.7z"/>
<path class="st137" d="M714.1,658.1c0,0.6,0,1.2,0,1.9c-6.3,0.3-12.5,0.6-18.8,0.9c-2.1,0-4.1,0-6.2,0c-4.2-0.2-8.4-0.5-12.6-0.7
	c0.3-2.6-1.1-5.8,3.6-6.8c5.7,3.2,11.7,1.2,17.8,1C703.5,654.1,710.5,651.8,714.1,658.1z"/>
<path class="st89" d="M874.8,849.2c9.4,0.5,19.2-2.1,28.1,2.3c-11.1,4.1-22.1,4.6-33-0.4C871.3,850.1,873.2,849.9,874.8,849.2z"/>
<path class="st0" d="M504,714.6c-7-1.6-14.1-3.2-22-5C497.4,703.8,502.8,705.2,504,714.6z"/>
<path class="st138" d="M858,281.6c-10.3,5.9-20.3,5.6-30.3,0C837.9,281.6,848,281.6,858,281.6z"/>
<path class="st139" d="M174.8,281.2c10-5.3,20.1-3.7,30.2,0C194.9,286.8,184.9,286.8,174.8,281.2z"/>
<path class="st120" d="M252,243.6c1.8-0.6,3.1-1.6,4.3-1.5c5.9,0.4,12.4,0,16.6,4.3c1.5,1.5,0.4,3.5-1.9,3.8
	C263.4,251.1,256.1,251,252,243.6z"/>
<path class="st140" d="M549.8,109.4c1.5-7.6,3-15.3,4.5-22.9c7.5,8.6,3,15.8-0.2,23.2C552.7,109.7,551.2,109.6,549.8,109.4z"/>
<path class="st141" d="M84.1,749.1c3.4-3.7,7.5-6.3,13.4-6.6c4.9,2.6,12.3-2.1,16.2,3.7c0.2,1.3-0.3,2.4-1.3,3.4
	C102.9,749.4,93.5,749.2,84.1,749.1z"/>
<path class="st97" d="M959.4,614.8c0.2-1.8,0.4-3.7,0.6-5.5c9.2,4.9,19.5-4.1,30,2.4C979.9,617.2,969.1,613.1,959.4,614.8z"/>
<path class="st18" d="M766.9,165.2c-11.3,6-18,12.9-33.7,10.4C746.8,173.7,750.3,161.9,766.9,165.2z"/>
<path class="st142" d="M707,426.7c-8-0.5-18,1.1-23.4-2.3c-3.6-2.2-0.6-11.6-0.6-17.7c0-2.1,0.2-4.2,0.3-6.3c0.6,0.7,1.8,1.4,1.7,2
	C683,416.3,689.1,425.1,707,426.7z"/>
<path class="st138" d="M516.1,125.4c-0.3-11.8-0.6-23.7-0.8-35.5c0-2.7-1.4-6.1,3.2-7.6c0.8,2.5,1.7,5,2.5,7.5
	C515.4,101.3,522.2,114,516.1,125.4z"/>
<path class="st143" d="M748.1,826.4c-18.6,3-37.2,4.4-55.7-0.9C711,825.8,729.6,826.1,748.1,826.4z"/>
<path class="st144" d="M243.2,283.8c-8.3,2.6-16.7,3.8-28.2-0.8C226.7,280,234.9,280,243.2,283.8z"/>
<path class="st112" d="M226.6,561.5c0.1,14.3,0.1,28.5,0.2,42.8l-1.2,0h-1.2C225.6,590,220,575.5,226.6,561.5z"/>
<path class="st112" d="M63.2,670.8c1,0.9,1.9,1.8,2.9,2.7c2.6,7.5,7.8,11.5,18.1,10.1c4.1-0.6,9.1-0.9,12,3
	c-8.9,4.1-19.1,3.1-27.7,1.6C56.6,686,64.8,676.8,63.2,670.8z"/>
<path class="st145" d="M995.9,591.9c-6.5,0-13.2-0.5-19.6,0.2c-15.1,1.7-20-3.5-16.9-15.2c1-1.3,1.9-1.4,2.8,0
	c-2.2,10.1,3.4,13.2,15.2,12.5C983.5,589.2,990.7,586.5,995.9,591.9z"/>
<path class="st13" d="M517.2,36.7c-2.1-7.2-5.6-12.7-5-19c0.2-2.2,0.4-4.2,3.9-4.2c3.8,0,6.5,2.2,5.1,4.7
	C518,23.7,519.5,29.7,517.2,36.7z"/>
<path class="st61" d="M758.4,248.9c0-3.2,2.2-3.6,4-3.9c6.1-1.2,11.9-5.3,18.5-1.5c0.4,0.2-0.4,2.8-1.1,3
	C772.9,248,766.2,253,758.4,248.9z"/>
<path class="st107" d="M112.3,746.8c-3.8-4.2-10.8-0.7-14.9-4.3c13.3-1.2,26.2-1,37.2,6.7c-1.2,0.8-2.4,1.6-3.6,2.5
	C123.6,753.2,118.7,748.2,112.3,746.8z"/>
<path class="st64" d="M103.5,665.3c0.7,0.1,1.4,0.3,2.1,0.5c-3,6,7.9,16.4-8.5,18c-8.4-0.5-17.9,4.8-24.7-3.4
	c3.1,0.2,6.2,0.2,9.2,0.7C97.2,683.5,105.9,679.7,103.5,665.3z"/>
<path class="st146" d="M384.3,99.8c-6-7.6-11.7-14.7-17.7-22.3C377.9,79.4,384.5,87.9,384.3,99.8z"/>
<path class="st147" d="M509.6,554.2c-0.1,0.7-0.1,1.4-0.1,2.1c0.1,7.6,0.2,15.1,0.4,22.7c4.1,5.4,4.9,10.6-1.1,15.5
	c-0.8-0.2-1.6-0.3-2.5-0.4c-0.1-10-0.5-20-0.3-30C506,560.6,503.9,556.3,509.6,554.2z"/>
<path class="st16" d="M75.1,882.1c0,0.7,0,1.3,0,2c-13.4,0.1-26.9,0.2-40.4,0.3C47.5,875.5,61.8,884.4,75.1,882.1z"/>
<path class="st46" d="M769.7,484.7c16.3-0.1,32.6-0.2,48.9-0.3C802.4,489.3,786.1,488.8,769.7,484.7z"/>
<path class="st148" d="M534.1,729.1c-7.2,5.9-1.7,13.2-2.9,19.7c-1,5.3-0.6,10.7-0.9,16.1c-4.7-11.4-1.9-23.2-2.1-34.7
	C528.1,727.5,531,725.7,534.1,729.1z"/>
<path class="st149" d="M72.4,680.4c7.1,6.5,16.6,1.5,24.7,3.4c-0.3,0.9-0.6,1.8-0.9,2.7c-5.1-0.2-10.3-1.2-15.2-0.6
	c-12.4,1.4-16.8-2.9-14.9-12.5c0.8-0.2,1.7-0.4,2.5-0.6c2.7,1.1,1.2,3.8,3.1,5.3C72,678.8,72.3,679.6,72.4,680.4z"/>
<path class="st48" d="M161.8,426c5,0.3,10,0.6,15.1,0.8l0.3,1.2c-9,1.4-8.8,8.4-12.3,13.2c-9.1-4-3.4-9.9-3-15.2
	C161.9,426.1,161.8,426,161.8,426z"/>
<path class="st130" d="M694.5,163.5c0.3-7.3,6-10.2,10.7-13.8c1.3-1,3.7-1.5,5.3,0.3c1.4,1.6,1.4,3.3-0.3,4.4
	C705.1,157.6,699.8,160.5,694.5,163.5z"/>
<path class="st0" d="M41,584.5c7,0,14.1-0.1,21.1-0.2c0,1.6-0.1,3.2-0.1,4.8C54.6,588.6,44.9,595.3,41,584.5z"/>
<path class="st150" d="M264.6,285.4c-0.1-0.8-0.1-1.5,0-2.3c15.3,2.6,31.3-2.6,46.4,2.4c-1.1,0.3-2.2,0.5-3.3,0.8
	c-2.1,0-4.1,0-6.2,0C289.2,286,276.9,285.7,264.6,285.4z"/>
<path class="st15" d="M655,747.2c0.1,0.7,0,1.4-0.2,2.2c-12,2.5-14.3-2.8-11.6-10.6c1.1-3.2,2.6-6.1,2.5-9.5c5.7-0.4,5,2.8,4.9,5.7
	C650.4,739.4,648.7,744.2,655,747.2z"/>
<path class="st151" d="M354.6,668.4c0.6-0.2,1.2-0.5,1.9-0.6c1.6,13.7,1.6,13.7,28.3,12.9c-1,4.6-6,1.9-8.8,3.3
	C362.8,684.4,349.9,684.5,354.6,668.4z"/>
<path class="st0" d="M202.7,612c0.1-8.4,0.1-16.9,0.2-25.3C202.5,595.2,216,603.7,202.7,612z"/>
<path class="st0" d="M628.2,99.6c-2.6,3.3-6.9,4.5-11.4,5.2c-2,0.3-4.6-0.8-3.9-2.7c1.8-4.5,6.7-5.9,11.9-6.1
	C626.9,95.8,628.2,97.4,628.2,99.6z"/>
<path class="st128" d="M329.1,156c-2.1-0.9-4.7-1.4-6.3-2.7c-3.5-2.9-9.4-3.2-11.2-7.5c-0.2-0.5,1.6-2.1,2.7-2.2
	c6.8-0.8,9.4,3.9,13.2,7c1.4,1.1,2.3,2.6,3.5,3.9C330.4,154.9,329.8,155.4,329.1,156z"/>
<path class="st96" d="M28.5,566.1c-7.7,5.8,1,11.7-0.3,17.5c-6.4-4.1-9.1-19.7-3.1-22.1C30.1,559.5,27.6,564.3,28.5,566.1z"/>
<path class="st152" d="M717.7,147.1c1.3-7.9,5.4-11.1,11.2-12.9c2.2-0.7,4.2,1.4,3.7,3C730.9,142.6,724.9,143.6,717.7,147.1z"/>
<path class="st23" d="M155.1,762.5c-0.8-0.1-1.6-0.2-2.3-0.4c-0.2-9.5-0.5-19-0.4-28.4c0-2.6-1.5-8.3,6-4.1
	C151.8,740.2,159.2,751.8,155.1,762.5z"/>
<path class="st153" d="M962.3,577l-1.4-0.1l-1.4,0.1c-0.1-2.9-2.3-6.4,3-7.9c1.5,8.1,9.3,4,14.3,4.6c6.4,0.7,13,0.1,19.5,0
	c-3.9,6.2-10.7,1.7-15.9,2.6C974.5,577.3,968.3,576.8,962.3,577z"/>
<path class="st154" d="M874.8,849.2c-0.6,2.3-3,1.7-4.9,1.9c-5.6-5.8-2.9-13-5-19.4c1.2-1,2.4-2.1,3.6-3.1c6.1,4.1,5.7,9.4,4,14.9
	C872.1,845.8,872.3,847.8,874.8,849.2z"/>
<path class="st155" d="M310.9,660.9c-14.5,3.4-29.1,3.4-43.6,0.1C281.8,660.9,296.3,660.9,310.9,660.9z"/>
<path class="st128" d="M434.1,102.4c-0.7-0.5-2-0.9-2.1-1.4c-0.4-5.3-7.5-9.3-4.7-15.1c0.3-0.5,3.2-1,3.8-0.5
	C436.9,90.1,434.5,96.5,434.1,102.4z"/>
<path class="st141" d="M350.4,672.8c0.5,4.4,1.1,8.8,1.6,13.2c-4.4,3.7-7,2.7-7.1-2.2c-0.1-5.3,0.4-10.6,0.6-15.9
	C347.1,669.6,348.8,671.2,350.4,672.8z"/>
<path class="st17" d="M75.1,518.2c0,0.6,0,1.3,0,1.9c-14.4,0.1-28.8,0.1-43.2,0.2c-0.7-0.8-0.7-1.5,0-2.3
	C46.2,518.1,60.7,518.1,75.1,518.2z"/>
<path class="st156" d="M115.1,431c-1-0.9-2.1-1.7-3.1-2.6c8.7-6.8,18.4-6.4,28.5-2.6c-1.2,2.3-4.2,1.6-6.2,2.5
	C127.4,426.7,121.3,428.9,115.1,431z"/>
<path class="st79" d="M655,747.2c-6.7,0.5-6.1-3.4-6.7-7.1c-0.6-3.6,3.3-8.1-2.6-10.9c1.3-3.6,6.2-3.1,8.9-5.1
	c-0.1,3.4-0.1,6.8-0.2,10.2C649.5,738.7,653.1,742.9,655,747.2z"/>
<path class="st157" d="M632.7,683.6c1.1-1.8,2.2-3.5,3.4-5.3c1,1.1,2,2.2,3.1,3.3c7.3,2.1,15.5-1.8,22.4,2.4c-1,1.6,2.5,5.5-3.4,4.8
	C650.7,683.3,639.1,692.1,632.7,683.6z"/>
<path class="st158" d="M800.2,851.6c-4.7-4.7-13-0.6-17.9-4.9c5.9-0.1,11.8-0.4,17.7-0.2c4.9,0.2,7.4-1.3,7.4-5.4
	C811.4,846.3,811.4,846.3,800.2,851.6z"/>
<path class="st159" d="M958.8,689c13.4-0.4,26.7-0.7,40.1-1.1c0.1,1,0.2,2,0.3,3C985.7,690.3,972,692.9,958.8,689z"/>
<path class="st160" d="M728.8,556.5c-13.3-0.3-26.7-0.7-40.1-1C702.2,552.8,715.6,550.7,728.8,556.5z"/>
<path class="st14" d="M493.5,383.2c13.5,0,27.1,0,40.6-0.1C520.6,386.9,507.1,386.7,493.5,383.2z"/>
<path class="st161" d="M766.8,683.9c-8.1-1.9-17.5,2.8-24.8-3.3c7.7,0.1,15.3,0.1,23,0.5c5.1,0.3,7.7-1.2,7.9-5.4
	C779.2,682.5,773.2,683.3,766.8,683.9z"/>
<path class="st33" d="M571,798.2c13.5,0,26.9-0.1,40.4-0.1c-13,5.6-26.8,1-40.2,2.3C570.9,799.7,570.9,799,571,798.2z"/>
<path class="st109" d="M236.4,773c-13.5,3.3-27,3.2-40.5,0.1C209.4,773,222.9,773,236.4,773z"/>
<path class="st70" d="M369.2,853.5c-0.9-0.7-1.8-1.3-2.7-2c-1-0.5-1.4-1.1-1-1.6c0.3-0.6,0.6-0.8,1-0.8c5.9-2.8,12.3-3.1,18.8-2.5
	C382.9,853.3,375.4,852.4,369.2,853.5z"/>
<path class="st162" d="M466.1,848.9c-10.5,0-20.9-0.1-31.4-0.1c0.1-0.9,0.2-1.8,0.3-2.7c13.2-0.1,26.4-0.2,39.6-0.3
	C473.4,849.7,469.6,849.1,466.1,848.9z"/>
<path class="st50" d="M195.2,798.7c13.7-0.2,27.4-0.5,41.1-0.7c-13.1,5.7-27,1.4-40.5,2.3C195.4,799.8,195.2,799.3,195.2,798.7z"/>
<path class="st10" d="M134.3,428.3c2.1-0.8,4.1-1.7,6.2-2.5c1,0,1.9,0.2,2.7,0.6c8.7,2.7,12.6,6.3,3.4,12.3
	C143.3,434.6,139.9,430.6,134.3,428.3z"/>
<path class="st149" d="M381.8,258c0,10.2,0,20.4,0,30.6C377.2,278.4,377.2,268.2,381.8,258z"/>
<path class="st0" d="M614.3,182.7c4.2-3.7,8.9-5.1,15.5-5C626.3,185.9,619.9,183.6,614.3,182.7z"/>
<path class="st85" d="M632.7,683.6c7.2,5.8,18.5-1.7,25.4,5.1c-8.3,0-16.5-0.1-24.8,0c-4.5,0.1-6.8-1.3-5.8-5.2
	C629.2,683.5,631,683.6,632.7,683.6z"/>
<path class="st64" d="M174.8,281.2c10.1,2.4,20.1,4.3,30.2,0C196,288.4,182,288.4,174.8,281.2z"/>
<path class="st0" d="M451,637.3c0-10.1,0-20.2-0.1-30.3c0.7,0,1.4,0,2.1,0C452.2,617,456.7,627.4,451,637.3z"/>
<path class="st163" d="M608.7,77.2c-1.6-5.8-1.5-10.5,4.3-13.9c0.6-0.4,3.7,0.8,3.8,1.4C617.2,69.8,615.1,74.1,608.7,77.2z"/>
<path class="st55" d="M190.1,683.4c-7.1,4.3-14.4-1.6-21.6,0.2c0.3-1.1,0.5-2.2,0.8-3.4c9.9,0.2,19.8,0.3,29.8,0.5
	c0.1,0.8,0,1.5-0.1,2.3C196,683.2,193.1,683.3,190.1,683.4z"/>
<path class="st164" d="M539.8,752.3c-0.8-0.1-1.7-0.2-2.6-0.2c1.3-10.1-4.2-20.7,3.5-30.2C540.4,732,540.1,742.1,539.8,752.3z"/>
<path class="st103" d="M475.2,684.1c-9-2.3-19.4,2.9-27.7-3.5c12.1,0,24.3,0,36.4,0C483,685,478.1,682.8,475.2,684.1z"/>
<path class="st0" d="M511,859.5c-8,2.2-12.4,3.7-15.7-0.1c-0.7-0.8,0.2-3.9,1.3-4.3C502,852.8,504.3,857.2,511,859.5z"/>
<path class="st82" d="M161.8,561.2c-1.7,10,3.4,20.5-2.7,30.2C160.3,581.4,155.4,571,161.8,561.2z"/>
<path class="st163" d="M425.9,79.1c-6.9-6-10-9.6-8.9-14.5c0.2-0.7,3.1-1.7,3.8-1.4C427,66.6,425.7,71.6,425.9,79.1z"/>
<path class="st165" d="M987,425.8c-1.4,1.1-2.8,2.2-4.2,3.3c-4.3,2.4-8.3,2.4-11.9-0.9c-1.2-2.2-3.8-2.2-6.2-2.6
	C972.2,421.8,979.6,422.1,987,425.8z"/>
<path class="st166" d="M785,428.5c-1.1-1-2.2-2-3.3-3c7.5-3.1,15-3.8,22.5,0.1c-2.8,0.6-6.5,0.1-7.4,3.5
	C792.9,428.9,788.9,428.7,785,428.5z"/>
<path class="st88" d="M124.9,721.3c-11.5,0-23-0.1-34.5-0.1C101.9,717.7,113.4,717.2,124.9,721.3z"/>
<path class="st152" d="M677,125.1c0.9-5.1,1.9-8.8,7-9.9c1.7-0.4,4.4,0.6,4,2.8C687.1,122.1,683.6,124.2,677,125.1z"/>
<path class="st167" d="M459,802.7c0.4,2.6-3.8,5.4,0.5,7.9c-9.7,3.4-12.4-0.5-12-7.7c7.5,7.9,4.7-3.5,8.3-3
	C456.8,800.9,457.9,801.8,459,802.7z"/>
<path class="st5" d="M534.8,166.1c-11.7,0-23.4,0.1-35.1,0.2C511.4,162.4,523.1,163.1,534.8,166.1z"/>
<path class="st168" d="M161.9,426.1c1.3,5-3.4,10.8,3,15.2c0.3,2.2,0,4.6-2.8,5.3c-4.2,1.1-4-2-3.6-3.7
	C160,437.4,156,431.1,161.9,426.1z"/>
<path class="st66" d="M391.3,556.1c-11.5-0.2-22.9-0.3-34.4-0.5C368.5,552.4,380,551.3,391.3,556.1z"/>
<path class="st169" d="M859.7,722c-10.7,4.4-22.3,0.8-33.3,2.3C837,718.6,848.5,722.4,859.7,722z"/>
<path class="st170" d="M593.3,749.2c6.7-4.3,15-0.3,22.1-2.8c3,0.2,6,0.4,9,0.6c0,0.7,0.1,1.5,0.1,2.2
	C614.1,749.2,603.7,749.2,593.3,749.2z"/>
<path class="st171" d="M764.3,205c3.3-0.4,5.4,0.7,5.5,3.1c0.1,3.1-2.9,4-6,4c-2.2,0-5.7,0.9-6-1.8C757.5,206.8,761.5,206,764.3,205
	z"/>
<path class="st172" d="M218.1,749.2c7.8-4.6,17-0.3,25.1-2.7c1.9,0.3,5.1,0.2,5.5,1.1c1.1,2.2-1.4,2.3-3.4,2.3
	C236.2,749.7,227.1,749.5,218.1,749.2z"/>
<path class="st173" d="M112.3,746.8c7.1-0.7,12.3,3.9,18.7,4.9c3.6,2.9,4.7,5.5-2.1,4c-5.8-1.3-11.1-4.1-16.7-6.2
	C112.3,748.6,112.3,747.7,112.3,746.8z"/>
<path class="st166" d="M863.2,428.2c-3.4,0-6.8,0.1-10.2,0.1c-2.2-2.8-5.9-1.5-8.8-2.1c8.2-4,16.6-4.4,25-0.4
	C867.2,426.6,865.2,427.4,863.2,428.2z"/>
<path class="st174" d="M276.8,211.5c-5.8,0.8-10.5,1.7-12.9-2.9c-0.4-0.7,1-2.8,2-3.1C271.2,204.3,274.5,206.4,276.8,211.5z"/>
<path class="st96" d="M62.3,454.2c-3.9-8.6-4.6-17.1,0.4-25.5C62.6,437.2,62.4,445.7,62.3,454.2z"/>
<path class="st175" d="M277.1,634.6c9.8-4.6,20.4-0.8,30.5-2.1C297.8,637.5,287.3,634.1,277.1,634.6z"/>
<path class="st50" d="M196.5,825.7c-6.1-8.3-5.4-16.8-0.8-25.4C195.9,808.8,196.2,817.3,196.5,825.7z"/>
<path class="st176" d="M499.4,662.9c0.2,8.5,0.5,17,0.7,25.5C494.2,680,496.2,671.5,499.4,662.9z"/>
<path class="st177" d="M949.6,851.1c0-0.6,0-1.2,0-1.8c10.4-1.2,20.8-1.2,31.2,0.7c0,0,0.3,0.3,0.4,0.3
	C970.7,852.4,960.1,851.6,949.6,851.1z"/>
<path class="st40" d="M571.9,825.5c-5.8-8.2-5.3-16.6-0.7-25C571.5,808.9,571.7,817.2,571.9,825.5z"/>
<path class="st178" d="M416.2,722.1c-7.4,5.3-18.4-1.8-25.3,5c-3.4-3.1-3.2-5.4,2.4-5.5C401,721.5,408.6,721.9,416.2,722.1z"/>
<path class="st46" d="M146.6,438.7c6.8-5.6,2.1-9-3.4-12.3c3.7-0.2,9.2-2.5,9.1,3.1c-0.1,4.2,3.2,9-2,12.8
	C149.1,441.1,147.8,439.9,146.6,438.7z"/>
<path class="st179" d="M999.3,721.3c-10.4,0-20.9,0-31.3,0C978.5,717.4,988.9,717.6,999.3,721.3z"/>
<path class="st180" d="M409.5,482.6c10.4-0.2,20.8-0.4,31.2-0.6C430.4,487.4,420,485.6,409.5,482.6z"/>
<path class="st94" d="M661.5,684c-7.3-1.9-15.4,1.5-22.4-2.4c10.2-0.4,20.4-0.8,30.6-1.2C668.9,684.5,664.5,683.1,661.5,684z"/>
<path class="st181" d="M71.6,678.1c-1-1.8-2-3.5-3.1-5.3c-0.1-27.8-0.2-55.5-0.3-83.3c1.7-3.3-1-7.5,3.1-10.4
	c4.6,14.8,1.6,30,1.9,44.9c0.3,14.7,1.4,29.4-0.8,44.1C72.2,671.5,71.9,674.8,71.6,678.1z"/>
<path class="st182" d="M477.3,303.6c7.5-13.4,2.2-22.2-13.3-29c-9.7-4.3-17.8-11-26.6-16.7c16.2-2.6,32.5-0.5,48.7-1.2
	c8.3,3,14.6,3.5,21.3-4c7.5-8.4,17.8-5.7,26.7,0.3c8.6,3.5,18.7-0.4,27.1,3.7c6.3,8.6-1.3,13.1-8.1,17.5c-3.9,2.5-8.9,3.7-11.7,7.7
	c-12.1,17.3-22,21.3-46.8,18.1C487.8,299.1,485,309,477.3,303.6z"/>
<path class="st183" d="M477.3,303.6c8.3-3.3,14.7-10.9,26.7-3.3c5.3,3.3,12.4-7.3,21.9-6.3c12.5,1.3,8.1-8.6,11-13.4
	c1.9-3.2,2.7-6.6,7.5-7c11.4-0.9,15.3-7.4,17.5-15.2c9.1-4.9,17.9-7.2,25.1,2.3c-10.7,6.5-20.7,13.8-32.2,19.2
	c-9.9,4.6-11.3,11.5-7.4,17.7c6.8,10.6,6.3,23,16.7,35.2c-16.2-5.3-26.5-13-36.8-19.5c-13.1-8.2-21.5-6.9-31.1,2.1
	c-7.8,3.7-13.9,9.5-22.8,11.8c-5.6,1.5-7.3,0.7-5.2-4C471.3,316.7,474.3,310.2,477.3,303.6z"/>
<path class="st5" d="M519.1,224.9c4.8-3.9,17.3,2.2,16.7-8.7c1.4,0.1,3.2-0.2,4.2,0.4c2.5,1.3,2.3,3.2,1.6,5.5
	c-5.3,19-1.3,23.2,21.5,23.2c4.6,0,9.3,0.4,13.9-0.1c10.3-1.2,15.5,2.2,15.7,10.7c-20,0.9-40.1,2.3-60-0.9
	C524.2,246.2,516.5,237.1,519.1,224.9z"/>
<path class="st183" d="M519.1,224.9c4,9.3,7.9,18.7,11.8,28c1.5,1.3,1.2,2.1-0.9,2.6c-10.7-7.8-16-7.2-23.6,2.9
	c-5.4,7.1-10.5,11.4-15.8,0.1c1.7-2.1,5.1-3,5.9-5.7c3.1-14.2,11.3-27,16.8-42.7C515.9,216.5,517.5,220.7,519.1,224.9z"/>
<path class="st5" d="M529.3,195.1c2.9-2.7,0.5-10.2,8.9-7.4c7.7,2.6,2.5,6.4,0.4,10.1c-2.8,5-0.5,12.1-9.6,14.6
	c-2.8-4,1.6-12-10.5-11.9c-4.6,0,1.6-7.3-1.8-10.9c-0.1-0.1,1.7-2.1,2.7-2.2C526.2,186.5,523.4,193.4,529.3,195.1z"/>
<path class="st184" d="M530.1,255.5c0.3-0.9,0.6-1.7,0.9-2.6c14.1,5.5,29,1.4,43.5,2.6c6.1,0.5,12.2,0.3,18.3,0.4
	c-0.4,1.4-0.8,2.8-1.2,4.1c-1.5,0.2-3,0.5-4.6,0.7c-7.7-5.6-16.7-1.7-25.1-2.3C551.5,256.4,540.1,260.8,530.1,255.5z"/>
<path class="st185" d="M496.6,252.7c0.9,3.9-2.5,4.8-5.9,5.7c-17.7-0.1-35.4-0.3-53.2-0.4c3.8-4.8,9.5-1.9,14.3-2.4
	C466.6,253.9,482.1,258.8,496.6,252.7z"/>
<path class="st21" d="M339.1,780.3c-1.1,0.8-2.3,1.6-3.4,2.4c-26.4,3.4-26.4,3.4-26.4-17.7c0-4.6,0-9.2,0-13.8
	c0.3-6.8,6.2-6.7,11.9-6.3C342.5,746.5,351.5,764.5,339.1,780.3z"/>
<path class="st52" d="M366.5,849c0.2,0.8,0.2,1.6,0.1,2.5c-8,1.5-13.6-0.8-17.3-6.9c-4.9-7.8-11.5-15-15-23.2
	c-4.7-10.9-13.1-14.7-26.2-13.5c19.9-4.9,21.3-4.5,29.9,8.8c5.3,8.2,10.8,16.3,16.1,24.5C356.8,845.3,359.5,849.4,366.5,849z"/>
<path class="st186" d="M310.9,742c3.1-0.1,6.1-0.4,9.2-0.4c28-0.4,37.5,11,27.7,33.3c-4.8,0.4-4.2-2.5-4.5-4.9
	c-2.1-19.3-3.7-20.7-28.2-24.3C312.5,745.3,310,745,310.9,742z"/>
<path class="st187" d="M310.9,742c0.5,0.7,1,1.8,1.6,1.9c29.3,4.6,29.3,4.6,33.1,29.4c0.1,0.6,1.4,1.1,2.2,1.6c-1,3.9-4,5.7-8.8,5.4
	c0.8-4.1,2.3-8.3,2.4-12.4c0.3-14.6-12.4-22-30.8-18.4c-0.6,1-1.4,1.2-2.5,0.4C308.2,747.1,306.2,743.7,310.9,742z"/>
<path class="st188" d="M277.2,772.4c0.7,0.1,1.5,0.2,2.2,0.4c-0.2,23.7,3.1,47.6-2.5,71.2C277,820.1,277.1,796.2,277.2,772.4z"/>
<path class="st189" d="M308.1,749.9c0.8-0.3,1.6-0.4,2.5-0.4c0.1,4.2,0.4,8.4,0.3,12.6c-0.7,23-4.1,20.9,24.7,20.7
	c-22,7.2-28.6,4-28-13.8C307.8,762.6,307.9,756.3,308.1,749.9z"/>
<path class="st190" d="M686.5,631.7c4.2-11.1,7.3-22.5,13-33c2.5-4.6,4.8,0.4,5.8,2.8c8.7,5.8,9.2,14.6,11.2,22.5
	c1.3,5.2-1,10.3-9.7,9.5C700,632.9,692.8,635.7,686.5,631.7z"/>
<path class="st191" d="M708.2,598.9c0.5-5.6-6.3-10.8-0.7-17.9c7.1,10,8.4,20.7,12.3,30.6c2.2,5.6,4.8,11.1,5.9,16.8
	c1.1,6.1-2.1,5.6-6,1.6C711.7,620.8,711,609.6,708.2,598.9z"/>
<path class="st192" d="M708.2,598.9c6.1,9.8,8,20.7,11.5,31.2c-10.5,7.9-21.7,6.4-33.2,1.6c28.6,2.3,28.5,2.3,21.5-20.4
	c-1-3.2-1.8-6.5-2.6-9.8C706.2,600.7,707.2,599.8,708.2,598.9z"/>
<path class="st193" d="M714.1,658.1c-6.6-3.2-13.3-2.7-20.6-1.2c-4.6,1-11.4,3.8-13.4-3.5c17.7-0.1,35.5-3,52.9,1.6
	c-1.4,1.1-2.8,2.3-4.2,3.4C724,658.3,719,658.2,714.1,658.1z"/>
<path class="st194" d="M852.5,793c1.6,5.4-2.8,5-7,5c-6.5,0-13.1,0-20.5,0c4.3-12.7,5.9-24.8,13.8-35.4c0.1-0.2,1.1-0.2,1.3-0.1
	c0.5,0.7,0.9,1.5,1.4,2.2C850.4,772.8,853.7,782.3,852.5,793z"/>
<path class="st195" d="M844.3,762.1c0.5-4.6-8.8-9.8,2.3-14.6c5.5,15.6,11,30.8,16.3,46.1c0.7,2.1,0.9,4.5-3,4.2
	c-3.1-0.2-3.3-2.9-4.1-4.8C848.8,783.5,847.5,772.6,844.3,762.1z"/>
<path class="st196" d="M844.3,762.1c6.6,9.6,8.6,20.4,11.4,30.9c-1.1,0-2.1-0.1-3.2-0.1c-3.7-9.4-7.4-18.8-11.1-28.2
	C842.4,763.9,843.3,763,844.3,762.1z"/>
<path class="st197" d="M872.5,843.6c-1.3-5-2.7-9.9-4-14.9c-0.8-1.9-1.5-3.7-2.3-5.6c0.8-2.4,3.2-1.9,5.3-2.1
	c1.5,4.8,3,9.6,4.5,14.3C874.7,838.1,876.3,841.6,872.5,843.6z"/>
<path class="st198" d="M673.6,744.5c-1-0.7-1.9-1.4-2.8-2.1c15.4-0.2,30.8-0.4,46.2-0.4c2.8,0,7-1.5,8.1,1.5c1.1,3-2,5.3-5,7.1
	c0,0,0.2-1,0.2-1c-9.2-6.4-20.2-2.9-30.4-3.8C684.5,745.3,678.8,746.9,673.6,744.5z"/>
<path class="st199" d="M922.1,754.7c1.7,2.6,3.4,5.2,5.1,7.7c1.3,12.8,10.9,20.6,23.8,26.3c10.9,4.8,22.1,9.1,32.7,14.3
	c7.2,3.5,13.7,8.2,6.4,16.1c-3.2-10.4-13.5-14.9-23.9-19.2c-8.7-3.6-17.9-6.7-26.1-11.1C925.2,780.9,919.7,769.1,922.1,754.7z"/>
<path class="st67" d="M115.4,848.9c-13.4,5.2-27,1.6-40.5,0.4c-29.6-8.3-41.5-26.9-43.7-51.1c1.2-12-0.8-24.2,4.7-35.8
	c0.1-0.3,0.8-0.5,1.2-0.5c0.5,0,0.9,0.4,1.3,0.6c-0.4,3.1-0.8,6.3-1.2,9.4c-1.4,9.7-1.6,19.3,0.1,28.9c4.8,30.3,27.2,46.9,64.3,47.7
	C106.2,848.7,110.8,848.8,115.4,848.9z"/>
<path class="st200" d="M37.3,801c-3.8-9.6-4-19.3-0.1-28.9C37.2,781.7,37.3,791.3,37.3,801z"/>
<path class="st201" d="M589.9,655.4c-11.1,10.7-26.7,6.2-40.5,8c-5.2,1.4-9.7,1.3-12.2-3.6c-3.1-19.8-0.5-39.8-1.6-59.7
	c-0.2-6.3-0.9-12.7,3.2-18.5c22.5-10.2,55.9,1.6,59.1,21.5c1.8,11.8,2.9,23.2,1.2,34.9C597.4,644.3,596.2,650.7,589.9,655.4z"/>
<path class="st11" d="M540.8,582.2c-0.3,5.7-0.6,11.4-0.9,17.1c-2.8,5.5-0.4,11.4-1.5,17c-7.2,9.4-17.6,8.7-28.6,5.9
	c-0.4-9.3-0.7-18.5-1.1-27.8c0.4-5.2,0.7-10.3,1.1-15.5c8.2-1,9.4-5.3,8-11c-0.8-2.9-5-6.7,1.1-8.2c3.9-0.9,7,2.1,9.6,5
	c3.9,4.4,3.5,10.5,9.2,14C540.4,578.9,542,579.7,540.8,582.2z"/>
<path class="st11" d="M539.8,660.5c2,3.8,6.5,1.8,9.7,2.9c-2.1,1.1-4.2,2.2-7,3.6c1.7,0.4,3,1.2,4,1c6.1-1.2,9.3,2.6,9.2,5.8
	c-0.1,3.5-6.2,3.2-9.7,3.9c-2.6,0.6-6.1-1.7-8.8-1.2c-8.7,1.6-2.1,4.2-0.2,6.4c-36-0.2-28.3,3.1-27.4-25c8.8,0.7,17.5,3,26.4,1.3
	C537.5,659.3,538.8,659.7,539.8,660.5z"/>
<path class="st202" d="M577.5,575.9c18.5,4.3,25.4,16,27.4,30.1c1.8,12.9,2.1,26-3.4,38.5c-6.1-0.1-3.4-3.9-3.9-6.3
	c-0.7-11,1.6-22-1.3-33c-4.8-18.1-15.1-24.9-37.7-25.1c-5,0-10.2,0.8-15.1-2.7C554.6,574.5,566,574.8,577.5,575.9z"/>
<path class="st41" d="M577.5,575.9c-10.7,0-21.3,0-35.4,0c8.2,4.5,13.6,2.8,18.7,2.9c24.4,0.3,38.2,11.1,38.6,31
	c0.2,10-0.4,20.1-0.6,30.2c-1,0.9-2,0.9-3,0.1c-0.2-9.7,0.7-19.4-0.7-29c-3-21.1-14.8-29.4-40.5-29.6c-4.6,0-9.2,0.4-13.8,0.6
	c-1-1.1-2.1-2.2-3.1-3.4C550.1,570,563.9,573.7,577.5,575.9z"/>
<path class="st167" d="M595.8,640.1c1,0.1,2,0,3-0.1c0.9,1.5,1.8,3.1,2.7,4.6c-1.6,5.2-3.7,10.2-11.6,10.9
	C590.8,650,592.1,644.7,595.8,640.1z"/>
<path class="st203" d="M72.5,668.2c-0.4-29.7-0.7-59.3-1.1-89c0.1-0.9,0.2-1.8,0.3-2.6c2.4,1.3,3.1,3.2,3.1,5.4
	c0,26.8,0.1,53.6,0,80.4C74.7,664.3,73.3,666.2,72.5,668.2z"/>
<path class="st204" d="M887.3,627.1c-1,0.8-2,1.7-3.1,2.5c-9.4,2.5-18.9,2.1-28.4,0.2c-1.9-14.6,0.1-29.3-1-43.8
	c-0.7-9.1,3.2-13.5,14.6-12.9c14.5,0.9,22.9,7.2,25.1,19C894.1,604,898.6,616.7,887.3,627.1z"/>
<path class="st205" d="M872.3,576.2c-12-1-17.1,2.6-16.1,13.3c1.3,13.3,0.6,26.7,0.8,40c-1,1.5-2.1,1.6-3.2,0c0-17.5-0.1-35,0-52.5
	c0-4.8,0.5-9.7,9.2-7.8c4.7,2.9,11.9-1.9,15.8,3.5C878.5,576,874.1,574.4,872.3,576.2z"/>
<path class="st191" d="M878.6,573.5c-4.1-3.9-11.2-0.7-15.4-4.3c27.9-1,37.3,6.2,36.9,28.9c-0.1,5.4-0.4,10.9-0.7,16.3
	c-1.6,0.9-2.9,0.8-4-0.5c-2.6-4.3-1.9-9-1.5-13.5C895.1,588.8,889,580.4,878.6,573.5z"/>
<path class="st206" d="M832.2,640.1c0.1-19.6,0.2-39.2,0.3-58.8C836.1,601,837,620.6,832.2,640.1z"/>
<path class="st207" d="M897,614.6c0.8-0.2,1.6-0.3,2.4-0.3c-0.9,6.3-5.9,9.9-12.1,12.8c5.2-11.6,3-23.7,3.5-35.6
	c7.3,0.9,3.5,5.6,4.3,8.7C896.3,605,893.4,610.1,897,614.6z"/>
<path class="st208" d="M853.9,629.5c1,0,2.1,0,3.2,0c9.1,0,18.2,0.1,27.2,0.1C874.1,634.3,864,633.9,853.9,629.5z"/>
<path class="st209" d="M970.9,428.3c4,0.3,7.9,0.6,11.9,0.9c-4.2,11.4-4.2,11.4,0.8,19.9c-5,1.2-11-2.1-15.2,2.5
	c-1.2,1-2.3,1.9-3.5,2.8C959.6,444.5,960.8,435.7,970.9,428.3z"/>
<path class="st210" d="M964.8,456.4c0.1,8.6,0.2,17.2,0.3,25.8C960.1,473.6,960.1,465,964.8,456.4z"/>
<path class="st211" d="M850.3,431.2c0,17,0,34,0,51C845,465.1,845.2,448.2,850.3,431.2z"/>
<path class="st212" d="M866,479.8c0-15.5,0.1-30.9,0.2-46.4C870.4,448.9,871,464.4,866,479.8z"/>
<path class="st213" d="M673.6,744.5c12.3,0,24.7-0.1,37-0.1c4.5,0,9.8-0.9,9.7,5.1C705.4,743.7,688.6,749.9,673.6,744.5z"/>
<path class="st184" d="M977,481.5c0.2-9.2,0.5-18.3,0.8-27.5C982.2,463.2,983.2,472.4,977,481.5z"/>
<path class="st11" d="M537.2,660.3c-9.9,4.7-19.2,4.8-27.6-2.3c0.1-11.9,0.2-23.9,0.2-35.8c8.5-4,19.2,0.3,27.4-5
	C539.6,631.5,539.5,645.9,537.2,660.3z"/>
<path class="st214" d="M503.4,655.4c0-8.5,0.1-17.1,0.1-25.6C507.3,638.3,507.6,646.9,503.4,655.4z"/>
<path class="st215" d="M834.9,670.7c53.7,0,107.4,0.1,161-0.3c13.6-0.1,10.1,6.5,9,12.7c-1.9-0.1-3.8-0.1-5.7-0.2
	c-49.7-1.5-99.4-1.4-149.1,0C837.3,685.4,832.7,681,834.9,670.7z"/>
<path class="st155" d="M850.2,682.9c2.9-2.4,6.6-2,10.1-2c43,0,86,0,128.9,0c3.5,0,7.2-0.4,10.1,2
	C949.6,682.9,899.9,682.9,850.2,682.9z"/>
<path class="st37" d="M537.2,660.3c0-14.4,0-28.7,0-43.1c1.3-5.9-2.3-12.3,2.7-17.9c0,20.4,0,40.8-0.1,61.3
	C538.9,660.5,538.1,660.4,537.2,660.3z"/>
<path class="st216" d="M897,614.6c-6.7-6.8,0.9-16.2-6.1-23c-3-7.7-7.6-14.1-18.6-15.4c1-2.6,4-2.1,6.3-2.7
	c14.4,3.6,16.6,13.5,18,23.7C897.3,602.9,896.9,608.8,897,614.6z"/>
</svg>
