<?xml version="1.0" encoding="utf-8"?>
<!-- Generator: Adobe Illustrator 27.1.0, SVG Export Plug-In . SVG Version: 6.00 Build 0)  -->
<svg version="1.1" id="Capa_1" xmlns="http://www.w3.org/2000/svg" xmlns:xlink="http://www.w3.org/1999/xlink" x="0px" y="0px"
	 viewBox="0 0 216.9 282.9" style="enable-background:new 0 0 216.9 282.9;" xml:space="preserve">
<style type="text/css">
	.st0{fill:#27343D;}
	.st1{fill:#26333B;}
	.st2{fill:#181F25;}
	.st3{fill:#12181F;}
	.st4{fill:#141A21;}
	.st5{fill:#666E76;}
	.st6{fill:#2E3336;}
	.st7{fill:#9CA3A4;}
	.st8{fill:#9EA2A5;}
	.st9{fill:#A5ABAE;}
	.st10{fill:#F8F9F9;}
	.st11{fill:#F9F9F9;}
	.st12{fill:#F8F9FA;}
	.st13{fill:#F8F8F9;}
	.st14{fill:#F8F9F8;}
	.st15{fill:#F8F8F8;}
	.st16{fill:#F6F6F7;}
	.st17{fill:#F7F8F8;}
	.st18{fill:#F5F6F6;}
	.st19{fill:#F6F6F8;}
	.st20{fill:#232E36;}
	.st21{fill:#F1F2F4;}
	.st22{fill:#E6E9EA;}
	.st23{fill:#F2F4F5;}
	.st24{fill:#EAEDEF;}
	.st25{fill:#AFB7BB;}
	.st26{fill:#999FA5;}
	.st27{fill:#0F151D;}
	.st28{fill:#F2F3F4;}
	.st29{fill:#B7BEC3;}
	.st30{fill:#ECF0F0;}
	.st31{fill:#92989C;}
	.st32{fill:#BEC2C7;}
	.st33{fill:#E9EBEE;}
	.st34{fill:#737B83;}
	.st35{fill:#F5F5F5;}
	.st36{fill:#8D969A;}
	.st37{fill:#C8CDD2;}
	.st38{fill:#8D9499;}
	.st39{fill:#F2F3F3;}
	.st40{fill:#838A91;}
	.st41{fill:#979C9F;}
	.st42{fill:#788085;}
	.st43{fill:#969CA0;}
	.st44{fill:#888E92;}
	.st45{fill:#576167;}
	.st46{fill:#CBD1D4;}
	.st47{fill:#505B61;}
	.st48{fill:#B6BAC0;}
	.st49{fill:#BBC0C3;}
	.st50{fill:#6B767D;}
	.st51{fill:#8E9396;}
	.st52{fill:#969CA1;}
	.st53{fill:#80898E;}
	.st54{fill:#BFC4C7;}
	.st55{fill:#9CA1A5;}
	.st56{fill:#767E83;}
	.st57{fill:#868D91;}
	.st58{fill:#AEB5BA;}
	.st59{fill:#A3A9AE;}
	.st60{fill:#7A8289;}
	.st61{fill:#ABB4B8;}
	.st62{fill:#6C747A;}
	.st63{fill:#888E94;}
	.st64{fill:#6D757C;}
	.st65{fill:#8F969F;}
	.st66{fill:#808A90;}
	.st67{fill:#61696E;}
	.st68{fill:#A8B2B7;}
	.st69{fill:#DFE2E3;}
	.st70{fill:#AEB5B7;}
	.st71{fill:#E4EAEC;}
	.st72{fill:#BDC3C7;}
	.st73{fill:#B0B6BB;}
	.st74{fill:#737C81;}
	.st75{fill:#A4ABAE;}
	.st76{fill:#7B858A;}
	.st77{fill:#8E9194;}
	.st78{fill:#777D82;}
	.st79{fill:#7F898F;}
	.st80{fill:#C4CACC;}
	.st81{fill:#AFB9BD;}
	.st82{fill:#818589;}
	.st83{fill:#969FA4;}
	.st84{fill:#9AA1A7;}
	.st85{fill:#7E8A91;}
	.st86{fill:#B5BDC2;}
	.st87{fill:#D7DDE2;}
	.st88{fill:#898D8E;}
	.st89{fill:#A6AFB1;}
	.st90{fill:#676B6C;}
	.st91{fill:#A5ABAF;}
	.st92{fill:#D9DCE1;}
	.st93{fill:#A2A7AD;}
	.st94{fill:#818689;}
	.st95{fill:#9FA3A6;}
	.st96{fill:#9EA4A7;}
	.st97{fill:#25303A;}
	.st98{fill:#989FA5;}
	.st99{fill:#AAB3B6;}
	.st100{fill:#A1A8AC;}
	.st101{fill:#99A0A5;}
	.st102{fill:#A7AFB5;}
	.st103{fill:#9DA4A6;}
	.st104{fill:#A3A7A9;}
	.st105{fill:#B3BCBF;}
	.st106{fill:#7D858C;}
	.st107{fill:#80868C;}
	.st108{fill:#A1A6AB;}
	.st109{fill:#B3BABF;}
	.st110{fill:#BEC7CD;}
	.st111{fill:#0B1116;}
	.st112{fill:#F7F7F8;}
	.st113{fill:#808A8F;}
	.st114{fill:#222427;}
	.st115{fill:#BCC4C9;}
	.st116{fill:#818992;}
	.st117{fill:#8C9195;}
	.st118{fill:#F7F9F9;}
	.st119{fill:#F7F7F9;}
	.st120{fill:#F3F6F6;}
	.st121{fill:#F4F7F7;}
	.st122{fill:#F2F5F4;}
	.st123{fill:#F3F4F6;}
	.st124{fill:#F6F7F7;}
	.st125{fill:#F2F2F4;}
	.st126{fill:#8B9299;}
	.st127{fill:#5D686F;}
	.st128{fill:#878E94;}
	.st129{fill:#5C676C;}
	.st130{fill:#DFE4E5;}
	.st131{fill:#AEB2B5;}
	.st132{fill:#7F868B;}
	.st133{fill:#6F787E;}
	.st134{fill:#ECF0F1;}
	.st135{fill:#A1A7A9;}
	.st136{fill:#83878C;}
	.st137{fill:#B2BABD;}
	.st138{fill:#91979B;}
	.st139{fill:#767F87;}
	.st140{fill:#7E888E;}
	.st141{fill:#AFB5B9;}
	.st142{fill:#8C9499;}
	.st143{fill:#606A70;}
	.st144{fill:#777E82;}
	.st145{fill:#5A646C;}
	.st146{fill:#78818B;}
	.st147{fill:#A2A7AA;}
	.st148{fill:#959DA0;}
	.st149{fill:#99A0A4;}
	.st150{fill:#8E9397;}
	.st151{fill:#A7AEB1;}
	.st152{fill:#A8AEB1;}
	.st153{fill:#697277;}
	.st154{fill:#5E6064;}
	.st155{fill:#7C858A;}
	.st156{fill:#D4DBDF;}
	.st157{fill:#B2B8BC;}
	.st158{fill:#BCC3C8;}
	.st159{fill:#DFE6EA;}
	.st160{fill:#ACB5BA;}
	.st161{fill:#9DA5AA;}
	.st162{fill:#94989E;}
	.st163{fill:#A5A9AF;}
	.st164{fill:#E4E6EA;}
	.st165{fill:#9DA5A9;}
	.st166{fill:#6B7579;}
	.st167{fill:#2B3035;}
	.st168{fill:#B0B5BA;}
	.st169{fill:#8A969C;}
	.st170{fill:#B2BBBD;}
	.st171{fill:#7D8284;}
	.st172{fill:#7F888E;}
	.st173{fill:#0B0F13;}
	.st174{fill:#90979D;}
	.st175{fill:#7A8286;}
	.st176{fill:#0A0F13;}
	.st177{fill:#010206;}
	.st178{fill:#7A8086;}
	.st179{fill:#9EA2A6;}
	.st180{fill:#859093;}
	.st181{fill:#949B9D;}
	.st182{fill:#85888A;}
	.st183{fill:#B0B5B7;}
	.st184{fill:#5F6568;}
	.st185{fill:#141B1E;}
	.st186{fill:#A9AAAB;}
	.st187{fill:#676E72;}
	.st188{fill:#010409;}
	.st189{fill:#212427;}
	.st190{fill:#60686B;}
	.st191{fill:#8D9193;}
	.st192{fill:#747D83;}
	.st193{fill:#383E44;}
	.st194{fill:#1D2025;}
	.st195{fill:#26292A;}
	.st196{fill:#595B5E;}
	.st197{fill:#AEB5BB;}
</style>
<g>
	<path class="st0" d="M10.2,72.1c-1.1-2.3,0.9-3.6,1.9-5c3.5-4.8,6.7-9.7,8.2-15.8c0.7-3.1,3.2-5.9,4.8-8.8c0.8-1.5,3.9-2.7,0.8-5
		c-0.2-0.1-0.3-0.7-0.1-0.9c4.7-6.8,5.9-16.5,15.9-18.8c1.8-0.9,3.3-2.4,5.6-2.1c3.6-0.3,7,0.9,10.5,1.2c4.4,0.8,8.5,2.3,11.4,6.1
		c2-2,3.8-4,6.4-5.1c4.1-0.6,8.1-0.6,12.2,0c7.2,1.8,7.2,1.8,11.6-4.1c1.2-1.6,2.2-3.4,3.4-5.2c1-1.5,0.6-3.9,2.8-4.7
		c0.4-0.4,0.8-0.8,1.2-1.2c1.9-2.5,4.1-3.7,7-1.7c1.2,1.7,4.7-0.4,4.9,3c-0.1,0.2-0.1,0.4-0.2,0.6c-0.9,1.2-1.7,2.5-0.3,3.9
		c0.4,0.6,0.6,1.2,0.4,1.9c-4,2.7-8.2,5.2-9.9,10.3c-0.5,1.4-1,2.9,0.8,2.9c4.2,0,5.9,2.9,7.2,5.8c1.5,3.2,3.3,4.5,6.8,3.7
		c1.2-0.3,2.5,0.4,3.8,0.7c-0.1,0.7-0.9,1.1-0.9,1.9c0.5,1.1,1.5,1.9,1.8,3.1c0.2,1-0.2,1.7-0.7,2.5c-0.4,0.5-1,0.9-1.6,1.1
		c-0.9,0.1-1.8-0.8-2.7,0c-0.7,0-1.2-0.9-2-0.6c-0.4,1.1-0.3,2.4-0.8,3.5c-0.8,1.4-1.9,2.6-3.4,3.3c0.2,1.5-4-2.3-1.8,1.5
		c-0.3,1.2-0.8,2.2-2.2,2.4c-2.3-1.3-3.5-3.8-5.4-5c0.2,2.1,5.6,2.2,2.6,6.1c-1,0.5-2.4-1.1-3.2,0.5c-0.9,0.9-1.9,1-3,0.6
		c-1.3-0.6-1.8-1.8-2.3-2.9c-1.5-3.1-3.3-3.2-5.4-0.5c-0.4,4.5-4,5-7.6,6.1c8.8,6,19.2,10.5,21.5,22.8c4-2.2,4.4-7.6,9-8.4
		c1.9,0.9,1.9,2.9,2.5,4.4c0.4,1.8,0.4,3.6-0.7,5.2c-0.6,0.8-1.3,1.5-2.2,2c-1,0.9-2.9-2.5-3.2,0.5c-0.4,3.9-2.8,6.8-4.1,10.3
		c-0.4,0.9-0.9,1.8-1.8,2.3c-1.4,0.8-1.2,1.8-0.5,2.9c0.8,1.3,2,1.8,3.3,0.9c3.7-2.5,8.1-3.7,11.8-6.2c0.4-0.2,0.9-0.2,1.4-0.1
		c0.6,0.3,1.1,0.8,1.5,1.4c1.9,1.7,6.6,2.2,2.4,6.3c-2.6,1.3-5.5,1.3-8.2,2.3c-2.9-0.3-6-1.3-7.7,2.3c-0.5,1-1.5,2.1-0.9,3.2
		c0.7,1.4,2,0.4,3.1,0.3c1.2-0.1,2.3,0.1,3.3,0.8c0.4,0.3,0.7,0.7,0.9,1.1c-0.1,3.6-1.2,7.1-0.7,10.8c-0.5,1.6-0.9,3.5-3.2,3.4
		c-2-1.4-1.3-3.9-2.5-5.7c-0.8-1.3-0.7-3.4-3-3.3c-2.2,1.5-3.4,3.7-4.1,6.3c-1.5,4.8,0.5,8.5,3.6,12c1.1,1.3,3,2.1,2.7,4.3
		c-1.1,0.9-2.1,0.5-3.2,0c-1.2-0.7-2.4-1.4-3.5-2.1c-0.8,1.3,0,3-1.2,4.1c-3,0.4-3.1-1.7-3.3-3.7c-0.1-0.7,0.1,0.2-0.1-0.5
		c-0.1-0.2-0.1-0.1,0,0.5c-0.5,3.2-0.5,6.5-2.3,9.4c-2.5-0.1-2.5-0.1-2.6-3c0-0.7,0.1,0.2,0-0.5c0-0.1,0,0.2-0.1,0.2
		c-0.3,1.1-0.8,2-1.7,2.7c-3.4-0.3-2.8-2.7-2.4-4.8c-0.7,1.4-1,3-2.1,4.3c-2.9,1.9-3.5,0.4-3.2-2.2c0.2-1.5,1.6-3.2-0.7-4.2
		c-0.3-0.4-0.4-0.8-0.4-1.3c0.4-1.7,1.8-2.3,3.1-2.8c4.3-1.7,7.2-5.1,10.3-8.2c0.9-0.9-0.7-0.2-1-0.6c-4.8-2.4-1.4-5.2-0.3-7.8
		c0.6-1.4,2.3-1.9,3.2-3.1c0,0-0.1-0.3-0.2-0.4c-0.3-0.1-0.7-0.1-1,0c-4.3,1-7.2,3.9-10.2,6.8c-1.2,1.1-2.7,3.5-4.4,1.7
		c-1.5-1.6,0.8-3.2,1.9-4.6c0.9-1.1,2.2-1.9,2.8-2.5c-5.8,2.1-8.7,7.7-12.2,12.8c-0.7-1.9-1.8,0.6-2.6-0.2c-1.3-3.4-2.2,1.1-3.4,0.2
		c-3.1-3.2-0.2-7-0.8-10c-0.2,3-0.8,6.4-0.4,9.8c-0.6,3.8-0.9,4.1-3.7,3.2c-1.1-0.5,0.2-2.9-2-2.5c-0.5,0.4-1.1,0.6-1.7,0.2
		c-0.3-0.4-0.5-0.8-0.7-1.2c-0.2-0.7-0.3-1.4-0.4-2.1c-1.1-5.9,2.4-11.4,1.4-17.3c0-0.3,0.3-0.8,0.1-0.9c-0.4-0.5,0.8-0.9,0.3-0.4
		c-0.1-0.2-0.2-0.1-0.3,0.3c-0.2,0.8-0.2,1.6-0.3,2.4c-1.5,8.7-5.6,16.3-10.6,23.4c-2.4,0-2.1-1.6-1.6-3.1c1.4-4,2.3-8.2,3.5-12.3
		c-1.1,4.9-2.9,9.6-4.1,14.5c-0.2,1.5-0.8,2.9-2.3,2.7c-1.9-0.3-1.2-2-1.1-3.3c0.1-2.6,0.4-5.2,1.6-8.9c-4.4,9.1-3.1,16.5,1.5,23.7
		c2.3,3.6,5.3,6.8,7.6,10.5c1.6,2.6,3.1,2.5,5,0.5c3-3.1,6.7-5.5,9.7-8.6c1.3-1.4,2.7-3.1,5.1-2c1.9,2.5,1.6,5,0.1,7.6
		c-3.1,3.1-1.2,7.1-1.7,10.6c0.1,2-0.5,4.4,1.9,5.6c0.6,0.2,1.2,0.5,1.8,0.6c4.8-2.8,6.3-7.2,4-11.7c-1.3-2.5-2.7-4.9-3.3-7.6
		c-0.3-1.9-1.2-3.9,0.6-5.6c0.9-0.6,1.8-1,2.8-0.5c1.1,1.2,1,2.7,1.2,4.2c1.2,9,8.4,13.1,14.7,17.9c1.7,1.3,2.6-0.4,3.4-1.7
		c5.3-8.4,11.3-16.4,12.7-26.6c2.6-0.6,4.5,0.7,6.2,2.3c1.2,2.9,1.4,6.1,2.3,9.1c0.7,2.4,0.2,4.7-2.8,5.4c-1.2-0.1-2.2,0.8-3.4,0.8
		c-0.6-0.2-1-1.1-1.4-1.2c-1.3-0.3-0.7,0.9-0.7,1.4c-0.2,1.4-0.1,2.9,0.4,4.3c1,4.4,4.2,7.4,6.8,10.7c1.7,2.6,2.1,5.9,4.5,8.1
		c0.2,0.4,0.3,0.8,0.2,1.3c-1,2.8,2.2,5.2,0.9,8.1c-2.8,0.9-3.4-1.5-4.6-3.1c-0.2-0.4-0.4-0.8-0.6-1.2c-0.7-2.2-1.3-4.6-3.7-5.7
		c-1.6-2.9-2.2-6.3-3.6-8.8c1.1,3.7,3.5,7.3,3.7,11.7c-0.3,0.6-0.9,1.1-1.5,1.4c-1,0.4-1.9,1.5-3.2,0.9c-1-0.8-1.4-1.9-1.9-3
		c-1.1-3.9-3.9-7.4-3-11.8c-0.2-0.1,0.1-0.6-0.4-0.3c0.2,0.4,0.2,0.9,0.1,1.3c-0.2,2.1,0,4.3-0.3,6.4c-0.2,1.3-0.5,2.7-2.3,2.6
		c-1.7-0.1-1.3-1.7-1.7-3c0.2,3.7,0.4,7.1-1.6,10.1c-0.5,1.3-0.3,3.3-2.2,3.4c-1.5,0-1.8-1.7-2.4-2.9c-0.5-1-0.9-2.1-1-3.3
		c0-0.8,0.1-1.5,0.4-2.2c1.7-2.6,2.3-5.1-0.1-7.7c-1-1.1-2.3-1.9-3.6-2.6c-5.2,7.2-1.6,13.8,1.1,20.5c0.7,1.8,1.7,3.6,1.8,5.7
		c-0.2,1.1-0.6,2-2,1.5c-1.2-0.4-2.1-1.2-2.6-2.2c-4-8.4-7.5-17-6.9-26.5c0.2-0.7-0.6-0.1,0-0.2c0.1,0,0.1,0.2,0.1,0.5
		c-2.6,16.1,4,28,17.3,36.6c3.9,2.5,7.9,4.8,11.9,7.2c1.6,0.9,3.3,1.6,4.1,3.5c0.3,1.4,0.2,2.6-1,3.5c-0.7,0.3-1.5,0.2-2.1-0.2
		c-0.4-0.2-0.8-0.7-1.3-0.7c-1.4,0.1-0.3,0.8-0.2,1.2c0.8,2.8,4,5.1,1.8,8.5c-0.4,0.2-0.9,0.2-1.4,0c-2.8-2.4-3.5-6-5.3-8.9
		c-0.5-1.9-3.1-1.9-3.3-4.1c-2,1.9,0.5,3.8-0.2,5.7c-0.6,1.8,0.2,3.6-0.1,5.3c-0.3,1.2-0.7,2.3-1.4,3.2c-0.4,0.5-0.8,1-1,1.7
		c-0.4,1.7,0.4,4.6-1.6,4.7c-2.5,0.2-2.8-2.9-3.2-4.9c-1-4.5-2.7-9-1-13.8c-2,4.4-0.5,9-0.7,13.4c-0.4,1.3-0.9,2.5-2.6,2.5
		c-0.1-0.7-0.2-1.3-0.3-2c0.5-4.4-3.1-7.4-3.8-11.5c-2.1-5.7-5.5-10.6-8.9-15.5c0.7-1.2,1.8-1.7,3.1-1.5c4,3.5,6.4,8.3,9.5,12.6
		c3.5-5.2,3.4-6.3-1-10.7c-0.1,1.9,2,4.4-0.1,5.4c-2.3,1.1-4-1.5-4.8-3.4c-2.9-7-7.8-13.4-7.3-21.6c0-3.4,0-6.8,0-10.2
		c0-1.3-0.5-0.8-0.8-0.1c-0.2,0.3-0.3,0.6-0.4,0.9c-0.3,1.3-0.3,2.7-1.4,3.6c-0.9,0.5-1.5-0.1-2.2-0.4c-1.3,0-1.8,1.5-3,1.7
		c-0.6,0.7-1.1-2.1-1.8-0.1c-0.5,1.4-1.5,2.4-2.7,3.2c-3.1,0.9-4.4,5.6-8.6,4.4c-0.4-0.7-0.5-1.4-0.4-2.1c2.5-4.7,3.6-9.9,5.8-14.8
		c2.2-5,3.9-10.1,3.2-14.7c-1.2,3.7-2.3,8.3-3.1,13.1c-0.5,1.3-0.9,2.7-1.9,3.7c-4-2.1-2.6-5.6-2.1-8.6c0.3-1.7,1.5-3.2,2-4.6
		c-1.7,3.9-1.7,3.9-6.3,3.8c-1.6,0.1-0.8,2.4-2.3,2.5c-3.1-2.1-1.3-5.1-1.6-7.5c-1.5,2.8,1.1,6.9-2.5,9.4c-2.4-1.9-1.4-4.6-1.2-6.9
		c0.2-2.3,0.3-4.6,0.3-7c0.4,4.7-0.8,9.4-0.6,14.2c-0.6,1.5-1.5,2.1-2.7,0.5c-0.9-1.2-1.2-2.5-1.2-4c1.2-4.3-3-3.5-4.7-5.1
		c-3.3,1.7-2.3,5.9-4.6,8.2c-0.9,0.2-1.5-0.5-2.3-0.8c-2.8,0.5-5.3,0.5-6.3-2.9c-0.2-0.1-0.3-0.8-0.3-0.4c-0.4,2.1-1.3,2.4-3,1.2
		c-0.3-0.4-0.5-0.8-0.6-1.2c-0.2-1.9,0-3.9-0.2-5.9c0.1,2.5,0.3,5.1-0.1,7.6c-2.3,2.6-3.2,0.3-3.7-1.3c-1-3.1-2.4-6.2-2.6-9.6
		c-0.2-2.2-0.1-4.8-2.7-6c-0.3-0.4-0.5-0.8-0.7-1.3c-0.7-4.1-4.1-7.3-4.3-11.6c-0.1-1.9,0-3.8-0.1-5.8c0-1.1-0.4-1.5-1.4-0.6
		c-4.3,1-3.2-2-2.8-4c0.9-4.5,3.4-8.5,4.5-12.9c0-0.5,0.1-0.9,0.2-1.4c1.4-3.2,5.7-5.8,2.1-10c-0.5,1.6-0.3,4.4-2.6,4.4
		c-2.5,0-2.4-2.7-2.8-4.5c-0.4-1.8-0.2-3.6,0.2-5.4c0.6-3.2,1.9-6.4,0.9-9.8c-0.1-1.7,0.5-3.3,1-4.9c1.6-3.9,3.4-7.6,4.9-11.6
		c0-0.1-0.1-0.3-0.2-0.4c-0.1-0.1-0.3-0.1-0.5-0.1c-0.8,0.5-1.5,1.3-2.5,1C10.7,73.7,10.4,73,10.2,72.1z"/>
	<path class="st1" d="M128.7,101c2.2-1.2,2.7-2.5,0.1-3.8c-1-0.5-2.4,0-3-1.3c1-1,2.5-1.6,2.6-3.3c2-5.1-0.7-9.6-1.8-14.2
		c-0.3-1.8-1.2-3.4-1.6-4.6c1.6,2.9,0.6,6.9,1.9,10.5c-0.2,3.3,1.4,6.9-1.4,9.8l-0.3,0l-0.3,0c-3.1-1.3-2.2-4.1-2.5-6.5c0-1,0-2,0-3
		c0.2-2.8-0.7-5.5-0.8-8.3c0,0-0.4-0.3-0.4-0.3l-0.5,0c-1.6-0.9-0.6-2.8-1.5-4c-1.9-2.7,0.6-4.5,1.4-6.5c1.1-2.7,2.8-5.3,2.4-8.4
		c-0.4-2.5-0.9-4.9-3.6-6.1c-0.9-0.5-1.6-1.2-2.4-1.9c-0.3-0.2-0.6-0.5-0.8-0.8c1-1.1,2.1-2.2,3.1-3.3c3-1-0.1-3.4,1.2-4.8
		c2-1,1.5,1.9,2.9,1.8c2.3,0.9,2.6,3,3.2,4.9c1,5.3,3,10.5,1.3,16.2c-0.8,2.8,2,3.9,4.2,4.8c2.7,1.1,5.5,1.8,8.1,0
		c1.4-1,0.5-2.5,0.2-3.7c-1.3-5.7-2.5-11.4-3.1-17.2c0.3-1.2,0.1-2.7,2-2.8c1.7,6.1,3.3,12.2,5.1,18.3c0.8,2.9,1.5,5.8,3.6,8.1
		c0.9,1,1.3,2.5,0.7,3.2c-4.5,5.7,2.5,11.3-0.1,17.2c-0.8,1.8,7.6,5.7,9.6,4.5c8.7-5.1,16.7-3.9,23.2,3.7
		c5.7,6.7,11.5,13.4,18.7,18.7c4,3-0.6,3.2-1.7,4.7c5.5,2.1,9.1,5.8,10,11.6c-0.4,0.9-1,1.6-2.1,1.5c-1.8-0.3-2.8-1.4-3.2-3.1
		c0.1,1.3-0.3,2.2-1.4,2.9c-1.2,0.3-2.3,0-3.4-0.4c-1.8-0.7-3-2.1-4.4-3.3c-1.5-1.6-3.8-2-5.3-4c0.9,2.4,2.5,3.7,3.9,5.2
		c1.1,1.2,2.8,2.4,2,4.2c-0.9,1.8-2.8,2.2-4.8,1.9c-2.1-0.3-2.5-3.1-4.7-3.3c-0.1,2.8,3.5,4.7,1.6,7.8c-4.1-1.8-6.8-5-8.4-8.4
		c0.3,3.2,4.8,5.6,3.5,10c-2.7,1.2-3.5-2-5.5-2.4c-0.3,0.1-0.5,0.4-0.3,0.7c3.4,5.1,1.2,9.8-0.7,14.6c6.1,5.3,14.1,6.4,21.1,9.8
		c1.9,0.9,1.7-1.3,2.1-2.5c1.3-4.2,0.7-8.9,3.7-12.6c1.7,0.4,3,1.3,3.9,2.8c0.6,3.2,2.9,6,2.4,9.5c-0.9,2.3,0.5,4.6,0,6.9
		c-0.5,1.3-0.7,3.3-2.5,3c-1.4-0.2-1.2-2.1-1.2-2.4c0.7,2.1,1.3,5.2-0.4,8.2c-0.2,1.5-0.9,2.7-2.7,2.5c-1.4-1.2-0.9-3-1.3-4.8
		c0,1.5,0.4,2.9-0.7,3.8c-0.2,5.2,6.6,11.2,12.1,10.7c-0.4-0.6,0.9,0.3,0.2,0.4c-0.7,0.1-0.6,0.9-0.2,0.4c0.7-0.8-0.6-2.8,1.6-2.7
		c-0.3,4.3,0.2,8.6,1.2,12.8c2.1,9.1-0.6,17.4-5,25.3c-2,3.6-4.9,6.6-4.9,11.2c0,2.4-0.7,2.4-5.2-0.7c-1.3,1.2-0.5,2.8-0.6,4.1
		c-0.6,8-3.7,14.4-11,18.3c-4.5,2.4-8.1,5.7-11.1,9.8c-1.1,1.4-1.8,4.8-4.4,0.9c-0.7-1.1-1.6,0.6-2.1,1.2c-2.3,2.4-4.6,4.8-6.8,7.3
		c-2,2.3-3.5,2.6-4.3-0.8c-1.7-6.7-7-10.6-12.4-16.1c0,3.1,0.1,5.2,0,7.2c-0.1,1.4,0.6,3.2-0.9,4.1c-1.6,0.9-2.7-0.6-3.9-1.4
		c-5.6-3.8-11.3-7.6-16.9-11.4c-3.8-0.7-4.8-4.4-7-6.8c-0.4-0.9-0.6-1.9-0.4-2.9c0.1-0.5,0.4-0.9,0.7-1.3c2.1-0.5,2.9,1.2,3.8,2.4
		c5.6,7.2,13.4,11.3,21.4,15.1c1.3-3,0.6-6.1,0.1-9.1c-0.5-0.5,0.4-2-1.2-1.8c-0.1,0-0.3,0.2-0.4,0.3c-1.4,1.8-5.4-1.9-5.7,2.7
		c0,0.3-1.8,0.1-2.4-0.9c-1-1.6-1.8-3.3-2.7-5c0.9,1.8,1.9,3.6,2.7,5.5c0.2,1.9-1,2.7-2.3,1.6c-4.4-3.8-9.7-7.1-10.5-13.7
		c0.5-1.2,1.3-2,2.6-2.4c4.9,0.4,9.2,2.6,13.3,5c2.4,1.4,3.6,0.9,4.4-1.6c0.5-1.7,1-3.5,1.7-5.2c2.5-6.6,1.3-11.9-4.9-15.7
		c-6.2-3-5.2-8.9-5.8-14.1c0.4-0.3,0.8-0.4,1.3-0.4c1.3,0.3,1.9,1.3,2.3,2.4c3.9,11.3,14.6,14.4,23.7,19.3c1.5,0.8,2.5,0.2,3.1-1.4
		c2.7-7.5,6.1-14.7,7.4-22.7c0.7-4.3,0-7.1-4.3-8.5c-2-0.7-3.8-2-6.4-2.9c0.9,3.8,1.3,7.1-3.4,7.7c-3-2-6.8-2.3-9.9-4.2
		c-1-0.8-1.4-1.9-1.3-3.1c1.1-3.1-1.5-6-0.7-9.1c0-0.2-1.3,0.8-2,0c-0.7-1.1-0.7-2.4-1.1-3.6c1.1,5.4,3.2,10.6,2.9,16.3
		c-2.2,2.4-0.8,4.9-0.4,7.5c0,2.2,0.9,5.6-1.7,5.7c-2.8,0.1-2.6-3.5-2.8-5.8c0.2-4.4-2-8.8,0.7-13.9c-1.5,1.6-1.6,3.6-3.6,3
		c-0.7-0.7-0.9-1.7-1-2.6c-0.2-2.8,0.5-5.6,0.8-8.4c0.2-1.8,1-3.9-1-5.4c-0.9,0.1-1.7,1-2.7,0.5c-0.6-0.9-1.4-1.1-2.4-0.8
		c-1.8-0.8-1.1-2.8-2-4c0.2,0.7,0.1,1.3-0.6,1.8c-3.9-1.3-3.4-5.2-4.8-8c2.3-1.4,4.2,0.2,6,1.1c7.3,3.6,14.9,5.5,22.9,6.4
		c3.6,0.4,5.5-0.6,6.5-4.3c1.7-6.4,4.7-12.4,6.9-18.7c3.4-9.5,0.4-15.7-9.3-18.7c-1.7-0.5-3.6-0.8-5.3-1.2c-1.6-0.1-3,0.9-4.6,1
		c-1.5,0-2.5-1-3.7-1.7c-1.5-0.6-2.9-2-4.5-0.2c-0.7,1.9-0.9,3.8,0,5.8c0.6,1.5,0.7,2.9-1,3.8c-1.6,1.3,1.7,4.5-1.9,4.9
		c-1.9-2.3-2.8-0.4-3.9,1c-5,1.9-4.2-1.8-4.6-4.2c-0.5,1.4,1.3,3.5-1.4,5.6c-1-3.9-3.2-7.2-1.3-11.2c5.1,0.8,7.4-1.4,8-6.5
		c0.6-4.8,3.1-9.1,5-13.5c1.2-2.7,2.5-5.5,0.9-8.8c-0.3,1.7,1.5,4.3-1.9,4.4c-1.2-1.9-2.9-3.5-3.4-4.5c0.5,0.8,1.8,2.4,3,4.1
		c0,2.1-1,2.4-2.7,1.7c-0.7-0.3-1.1-1.5-1.9-1c-0.8,0.6,0,1.8-0.3,2.7c-2.5,2.8-2.9,0-3.8-1.4c-0.6-1.7-0.9-3.5-0.8-5.3
		c-0.5,2.8-0.3,5.7-1.4,8.4c-1.1,1.2-2.1,1.2-3.1-0.1c-1.5-4-0.6-8.4-1.6-12.5c-0.3,0-0.5,0-0.8,0c-0.7-1-0.4-1.8,0.5-2.5
		C124.8,109,125,102.8,128.7,101z"/>
	<path class="st2" d="M77.8,180.9c0.4,0.8,0.8,1.6,1.2,2.4c0.9,0.9,1,2,1.1,3.2c0.1,5.9,1.6,11.3,4.8,16.3c0.8,1.2,1.6,2.5,1,4.1
		c-1,0.3-2,0.7-3,1c-1.3-3.6-4.7-6.1-5-10.2c-0.1-1.2-1.4-1.8-2.6-1.8c-5.2,0.3-10.7-1.2-15.5,2.1c-1.4,2.4-3.4,3.1-6,2.1
		c-1.3-1.1-1.9-3.3-4.5-1.6c-1.9,1.2-4.4,1.5-6.6,2.1c-1.7,2-3.3,3-4.8-0.1c-0.4-6.8,1.1-13.9-4.2-20.3c-1.1,2-2.1,3.6-2.9,5.3
		c-1.6,3.9-4.1,2.6-5.3,0.3c-2.3-4.7-6.2-8.7-7.3-14.1c-1.2-0.2-1.4-0.9-1.1-1.9c-2.7-2.6-2.1-6.8-4.4-9.6c-5.4,0.8-4.8-3.6-5.8-6.7
		c-1.3-1.9-2.7-3.7-4-5.6c-1.1-0.4-0.6-1.5-1-2.3c-4-7.6-0.8-14.5,2-21.4c0.8-2.3-1.4-4.2-0.8-6.4c0.3-5,0.8-10-0.4-15
		c-0.2-0.8-0.3-1.7-0.3-2.6C2.3,95.5,2,90.6,3.8,86c0.6-5.3,4.1-9.3,6.5-13.9c0.5,0.6,1,1.3,1.6,1.9c0.6,1.2,0.2,2.3-0.4,3.3
		C5.2,87.2,7,97.8,8.6,108.3c0.2,1.6,0.7,3.3,0.5,4.9c-0.2,2.1,1.3,2,2.5,2.2c0,0.5,0.1,0.9,0.1,1.4c-3.6,5-5.9,10.5-7.3,16.6
		c-1.8,7.8,2.5,13.3,6.8,18.7c1.6,2,2.8-1,4.4-0.6c0.1,0.6,0.2,1.1,0.4,1.7c1.6,4.6,1.9,9.6,4.2,14.1c2.1,4.1,5,7.8,7,11.9
		c1.3,2.6,2.5,1.6,3.9-0.2c2.1-2.8,1.7-6.8,4.7-9.1c0.3,0.7,0.6,1.4,1,2.2c0.8,8.9,7.2,16.4,6.1,25.2c6.2-2,12.1-5.7,18.6-7.9
		c0,0.8,0.1,1.6,0.1,2.4c-0.1,1.3-1,2-3.2,3.6c6.1-3.7,12.1-2.6,17-5.3c1.7-2.5,0.2-5.5,1.4-8.1C77.1,181.6,77.4,181.3,77.8,180.9z"
		/>
	<path class="st3" d="M198.2,134.1c1.3-0.3,2.3,0.4,3.3,0.9c3.9,1.9,3.2,5.7,3.6,9c0.3,2.6-0.7,5.5,1.8,8.6
		c0.4-6.5-2.5-12.1-0.4-17.7c0.7-0.3,1.4-0.7,2-1c1.6,7.4,2.7,14.9,3.1,22.4c0,0.6-0.1,1.2,0.3,1.8c6.1,7.7,5.5,16.3,3.4,25.1
		c-0.6,2.6-1.3,5.1-1.9,7.7c-1.7,1.3-0.2,3.6-1.5,5.2c-0.2-1.3-0.3-2.4-0.5-3.5c-1.8-2.9-0.4-5.9,0.4-8.6c3-10.6,1-19.9-6.1-28.1
		c-1-1.1-3.2-1.1-3.2-3.3C201,146.5,200.1,140.2,198.2,134.1z"/>
	<path class="st4" d="M105.8,251.7c-1.3-1-2.3-2.4-4.1-2.7c-3.2-3.4-4.8-7.6-5.8-12.1c0.6-0.7,1.1-1.3,1.7-2c1,0.4,1.6,1.3,1.8,2.2
		c2.5,9.9,10.7,12.8,19.1,15.4c0.1,1.2,0.2,2.4,0.3,3.6c0.4,1.8-0.8,2.4-2.1,2.9C113.6,255.9,109.3,254.4,105.8,251.7z"/>
	<path class="st5" d="M139.5,44.1c-1.2,0.8-0.9,2.1-1.1,3.2c-1.1,1.5-2,2.9-1.1,5c0.6,1.3,0.7,3-1,3.9c-3.5-1.8-3.5-5.5-4.6-8.6
		c1.6-4.3-1.8-6.2-4.1-8.6c-1-1.7-3.3-2-4-4c5.8-0.8,10.1,2.2,14.1,5.8C138.9,41.7,139.3,42.9,139.5,44.1z"/>
	<path class="st1" d="M137.8,40.9c-0.2,0.5-0.7,0.9-1,0.5c-3.2-4.6-8.6-4.4-13-6.3c0.8-1.3,2.3-1,3.5-1.3
		C132.2,34,135.5,36.7,137.8,40.9z"/>
	<path class="st6" d="M118.5,10.5c-0.3-0.4-0.5-0.9-0.8-1.3c2.5-1.3-0.5-3.7,1.1-5.2c0,0-0.1,0.1-0.1,0.1c2.8-0.5,5,0.6,4.8,3.3
		C123.4,9.8,121.3,11.2,118.5,10.5z"/>
	<path class="st7" d="M3.7,101c-1.6-3.9-0.8-8-1.1-12c0.4-1,0.1-2.3,1.2-3C3.7,91,3.7,96,3.7,101z"/>
	<path class="st8" d="M87.8,17.8c-4.1,0-8.1,0-12.2,0C79.7,16.4,83.8,16.5,87.8,17.8z"/>
	<path class="st9" d="M46.7,16.7c2.2-1.4,4.7-0.5,7.1-1c1.4,0.4,2.9,0,4.1,1.1C54.1,16.8,50.4,16.8,46.7,16.7z"/>
	<path class="st10" d="M142.8,136.8c1,0.7,1.9,1.4,2.9,2.1c4.2,0.6,6.2,4.6,9.4,6.2c-1-3-5.4-4-5.2-8.1c4.5,1,9,1.7,12.8,4.7
		c5.4,4.3,6.7,8.3,4.5,14.8c-2.8,8.3-7.2,16.1-8.7,24.8c-0.4,2.3-2.2,1.5-3.6,1.5c-10.1-0.4-19.6-3.1-28.6-7.7
		c-1.1-0.6-2.1-1.7-3.6-1.4c-3.4-2.9-6.6-6-7.1-10.8c-0.5-1.7-0.7-3.5,0.2-5.3c3.3,0.5,1.9,4.7,4.5,5.6c0.5-0.6,0.6-1.4,1-2
		c2.6-3.7,3-0.2,4,1.1c-0.1-0.6-0.7-1.2-0.9-1.9c-0.3-1-1.6-2.1-0.1-3c1.3-0.9,2.5-0.2,3.4,1c1.9,2.5,2.8,5.6,5.5,7.8
		c0.4-2.1-2.6-4,0.1-5.8c0.8-0.3,3.4,1,1.7-1.7c-1-1.5-2.7-2.4-3.7-4c-0.3-0.6-0.5-1.3-0.3-2c-0.7-2.2,0.2-3.7,1.9-5
		c1.4,1,1.6,2.5,2.1,3.8c2.1,1.1,2.7,3.2,3.7,5.1c0.8,1.7,1-0.2,1.5-0.3c1.1-0.6,1-1.7,1.2-2.7c0.7-2,3.3-1.9,4.2-3.7
		c1.7-2.5,3.2-1,3.8-0.4c-1.4-4-4.9-7.8-7.5-12.2c-0.2-0.3,0.1-0.6,0.4-0.8C142.2,136.6,142.5,136.6,142.8,136.8z"/>
	<path class="st11" d="M73.6,69.8c0.6-2.6,1.4-1.5,1.3,0.1c-0.3,3.9-0.5,7.8,0,11.8c0.7,1.1,1,0.2,1.2-0.3c0.3-0.7,0.2-1.8,1.5-1.3
		c0.5,0.6,0.9,1.5,1.4,1.6c0.8,0.2,0.7-0.8,0.7-1.4c0-1.1-0.1-2.2-0.1-3.3c-0.3-1.1-1-2.4,0.4-2.9c1.1-0.4,1.4,1,1.8,1.8
		c0.3,1-0.1,2,0.1,3c0.5-0.8,0.9-1.5,1.4-2.2c1-1.2,1-3.8,2.8-3.6c2.2,0.2,1.4,2.8,1.9,3.8c0.2-4.2-0.2-8.7-1.6-13.1
		c-0.2-0.8-0.5-2.1,1.2-1.9c1.5,0.9,1.1,3.3,3,3.9c3.4,2.5,2.3,7.4,5.2,10.2c-0.4-2.2-1.3-4.3-1.6-6.5c-0.2-1-0.9-2.7,1.4-2.6
		c1.5,1.3,3.1,2.5,4.5,4c7.7,8.4,7.5,15-0.9,22.6c-5.6,5.2-11.9,9.7-16.6,15.8c-1.3,1.7-2.2,1.3-3.7,0.5
		c-10-5.7-18.3-13.3-24.4-23.1c-3.7-5.9-4.1-11.9,0.3-17.7c1.7-0.2,1.4,0.9,1.2,1.8c-0.2,0.8-0.3,1.6-0.3,2.4c0,1-0.2,2,0,3
		c0.3,1-1.3,3.6,1.8,2.5c0-1.7,0.6-3.1,1.9-4.1c3.3,2.6,1.2,6.6,2.7,8.9c0.3-2.1-1.2-4.9-1-7.8c0.1-1.2-0.7-2.8,1.5-2.9l0,0
		c3.6,2,1.6,5.8,2.8,8.6c0.3,1.1,0.4,2.3,0.5,3.4c2.7-1,0.4-2.9,0.7-4.3c0.2-1,0.1-2.2,1.1-2.5c1.4-0.5,1.9,0.8,2.5,1.8
		c0.4,0.8,0.5,1.7,0.8,2.6c0.4,0.7,0.8,1.3,1.9,2.8C71.1,79.4,71.1,74.5,73.6,69.8z"/>
	<path class="st10" d="M55.8,113c-6.8,7-15.3,12.1-22.1,19.9c-3.6-9-10.1-16-14.3-24.4C13,96,11.1,83.6,20.4,71.6
		c1-1.3,1.8-2.7,3.3-3.4c1.6,3.6-1.7,5.3-2.9,7.9c-0.9,8.3-5.7,16.3-1.3,25.6C19.7,99,19.9,97,20,95c0.6-0.7,1.2-0.6,1.9-0.3
		c2,2.1,0.1,5,1,6.7c-0.1-0.1,0-1-0.1-1.8c0-0.5,0.1-1,0.2-1.5c0.6-2.5,0.1-5.2,0.6-7.7c0.4-2.1,1.3-4,3.6-4.8
		c2.2,1.7,0.3,4.3,1.3,6.2c2.3-0.3,4.4-0.9,5.8-3.1c0.4-0.7,1.2-1.2,2.1-0.8c1,0.4,0.5,1.3,0.5,2.1c-0.2,4.1-1.1,8.1-2,11.3
		c2.5-4,0.2-10,3.6-14.6c2-3.5,4.1-7,6.1-10.5c0.2,0.1,0.5,0.2,0.7,0.3c-1,2.4-1.9,4.8-2.9,7.2c0.3,2.3-1.3,4.2-1.7,6.3
		c-1.3,4.9-2,9.9-3.6,14.7c1.6-5,2.3-10.1,3.9-15.1c0.2-0.7,0-1.7,1-1.9c0.6-0.1,0.6,0.5,0.5,1c0,2-0.1,4-0.1,6
		c-0.1,4.9-2.4,9.4-3,14c1.3-4.6,1.7-9.6,4.1-14.1c0.3-1.1,0-2.3,1.2-3.4c1.3,1.8-0.3,4.2,1.5,6.3c0.6-3.4,1.1-6.6,1.6-9.7
		c2.3,0.9,1,2.5,0.9,4c0,0.6,0,1.1,0,1.7c1.2,3.9,1.6,8,1.4,12.1c-0.1,1.4,0.1,2.7,1.4,3.5c1.8,1.1,1.7-0.9,2.3-1.6
		c1.6-1.6,2.2-0.6,2.6,0.9C57,110.2,56.2,111.6,55.8,113z"/>
	<path class="st12" d="M114.6,183c0.4,0.9,0.8,1.9,1.1,2.8c1.5,1.6,1.7,3.8,2.2,5.9c-0.1-2.6-2.1-5.1-0.2-7.7
		c0.6-0.1,1.3-0.2,1.9-0.3c0.8,0.3,1.3,0.9,2,1.3c1.1,0.6,2.2,0.9,3.2,1.6l-0.2,0.2c0.4,2.9,2.8,4.3,4.3,6.4c0.7,1,0.8,2.3,1.8,3
		c2.6,0.3,1-4.6,4.3-3.4c0.7,1.6,1.1,3.2,0.9,4.9c-2.3,8-6,15.4-9.1,23.1c-1.5,3.8-3.9,3.3-7.2-1.1c-4.5-2.8-9-5.6-13.5-8.3
		c-4.3-2.6-8.3-5.5-11.8-9.1c-8.8-9.1-11.1-19.6-7.2-31.5c0.6,7.6,2.5,14.9,5.4,21.9c1,2.6,2.6,5,4,7.4c0.4,0.7,1,0.9,1.3,0
		c0.2-0.4-0.1-1-0.2-1.5c-0.4-0.9,0.1-1.2,0.8-1.5c0.1-0.5,1.9,1.1,1-0.7c-1.2-2.3-2.3-4.5-2.4-7.1c0.5-1.7,0-4,2.6-4.6
		c0.9,2.1,1.8,4.2,2.8,6.5c0.3-1.2,0.5-2.3,0.7-3.4c6.8-4,6.9-4,8.8,4c0.4,1.6,0.3,3.3,1,4.9c-2-8.6-5.5-17-3.2-26.1
		c0.5-0.2-0.6-2.1,1.1-1c0,5,2.3,9.5,2.3,14.5C113.4,183.6,113.5,182.7,114.6,183z"/>
	<path class="st10" d="M63.5,127.2c0,0.5,0,1.1,0,1.6c-0.2,4.5-1.1,8.9-1.3,11.9c-0.1-2.6,1.1-6.6,1.5-10.6c0.7,0,0.9-0.4,1.1-1
		c2.4,0,1.5,1.8,1.4,2.9c-0.5,4-1.3,8-1,11.5c0.2-3.8-0.6-8.4,2.2-12.2c0.3,0.5,0.6,1,0.9,1.6c1.2-0.8,1.5-2,1.6-3.4
		c3.2,1.8,1.8,4.8,2.1,7.1c1.1-2.2-1.6-5.1,0.6-7.5c0.5-1.5,0.9-3,1.4-4.6c2.3,1.1,1.5,3,1.8,4.6c1.8,2.1,1,4.7,1.2,7.1
		c0.1,1.4-0.4,3.1,0.9,4.2c3.8,3.4,1.9,5.6-1.5,7.6c-5.5,5-11,10.1-16.5,15.2c-3.6-5-7.3-10.1-10.9-15.2c-4.8-6.8-5-14.2-2.9-21.9
		c0.6-2.3,2.4-3.5,4.7-4.9c-1.3,4.8-3,9.1-2.6,13.8c1.3,0.1,1.4-0.9,1.7-1.8c1.2-0.8,1.3,2.3,2.7,0.8c4.4-9.6,10.1-18.7,11.2-29.7
		c0.4,0.1,0.8,0.3,1.3,0.4c-0.2,1.4-0.4,2.8-0.6,4.2c-0.7,10.3-3.4,20.2-5.1,29.4c-0.1,1.6,1,1.2,0.3,1.2c-0.2,0-0.2-0.1-0.2-0.2
		c0.1-3.6,1.4-7,1.8-10.5C61.5,127.6,62.3,126.9,63.5,127.2z"/>
	<path class="st11" d="M58.6,49.1c1.2,1.2,1.1,3.3,3.1,3.9l-0.1-0.1c1.4,2.5,0.6,4.5-1.2,6.5c-2.9,3.1-6.2,5.4-9.8,7.6
		c-4.8,2.9-9.9,5.3-14.5,9.4c-2.6-5.8-5.6-11-7.1-16.8c-2-7.8,0.7-14.5,7.1-19.3c2.1-1.6,3.6-0.2,5.7,0.2c-1.8,1.4-3.4,2.5-4.9,3.8
		c-0.7,0.6-1.8,1.5-0.8,2.4c0.8,0.8,1.7-0.5,2.6-0.7c1.3-0.5,1.3,0.5,1,1.2c-1,2.5,0.7,1.9,2,1.8c1.8-1.4,3.6-2.8,5.8-4.6
		c-1.1,2.9-4.1,4.4-4,8.6c3-3.5,5.4-6.3,8.5-9.8c-0.8,3.4-2.1,6,0.4,8.2c1.1-2.7,2.1-5.4,3.2-8c0.2,0.1,0.4,0.1,0.6,0.2
		c-0.2,1.5-0.3,3-0.5,4.5c0.5,2.6-1,5-1.1,7.5C56.1,53.5,54.9,49.7,58.6,49.1z"/>
	<path class="st10" d="M94.7,145.9c0.4-1,0.8-1.9,1.2-2.9c2.1-0.2,1.1,1.4,1.3,2.3c0.2,0.8-0.3,2.1,1.4,1.5
		c0.8-3.6,1.5-7.1,2.3-10.7c2.7,0,0.7,2.2,1.4,3.1c0.6,0.9,0.5,2.8,2.5,1.7c-0.1-1.9-0.3-3.8-0.4-5.6c0-0.6,0-1.4,0.9-0.7
		c0.3,0.2,0.4,0.8,0.6,1.3c2.9,2.9,1.2,7.7,4.4,10.8c-1.4-2.9-3.5-5.6-0.6-8.6c1.1,0.2,1.8,1.7,3.2,1c1.6-0.4,2.9-0.2,2.8,1.9
		c1.7,3,0.3,5.7-0.7,8.5c-2.9,7.8-8.8,14-12.2,21.5c-0.6,1.3-1.3,1.2-2.3,0.4c-5-4.3-10.8-7.7-14.5-13.4c-2.2-3.4-2.5-7.1-2.4-10.9
		c-0.8-3.4-1-6.6,3.1-8.1c1.2-0.3,2.4-0.6,4.3-1.1c-1,2.7-2.9,4.5-2.9,6.9c0,1.9,0.9,1.8,1.9,0.4C91.6,145.1,92.8,147.5,94.7,145.9z
		"/>
	<path class="st13" d="M42.9,141.1c1.2,2.5,2.3,5.1,3.5,7.6c1,2,0,3.5-0.9,5.1c-2.9,5.6-7.7,9.4-12.5,13.9
		c-3.6-7.9-9.9-13.6-15.3-19.9c-4.8-5.6-5.1-12-3.3-18.7c0.6-2.4,1.6-4.7,2.4-7c2.6,0.3,1.7,2.3,1.7,3.8c0,2.4-1.3,4.6-1.4,6.6
		c3.3,0.4,1.7-3.8,4.4-4.7c1.3,3.1,0,6.3,0.9,9.3c0.1,1,0.2,1.9,0.4,3.2c1.2-0.9,1-2,1.1-3c1.2,2,1.3,2,1.3,3.9
		c0.3-2.9-1.3-6.6-0.2-10.3c0.4-1.4-0.2-3.6,2.3-3.6c1.4,6.8-0.6,13.8,0.6,20.6c1.7-3.7,1.7-7.6,1.8-11.8c6.5,3-0.1,8.2,2.5,12
		c1.3-3.1,5.9-3.6,5.6-7.9c3.7,1.2,0.4,3.9,1.3,5.4C41.6,145.2,40.8,142.1,42.9,141.1z"/>
	<path class="st14" d="M61.6,189.5c-5.9,4.5-12.6,7-20.2,9.3c1.2-6.4-1.1-11.5-3.4-16.7c-1.5-3.2-2.4-6.5-1.2-10.1
		c1.3-3.5,1.1-7.8,5-10c1.7,1.7,1.8,1.7,1.8,5.6c0,1.4,0,2.6,1.5,2.9c0.3,0.1,0.1-1.4,0.6-2.1c0.5-0.8,0.8-2,2.1-1.3
		c0.1,0,0.2,0.2,0.2,0.4c0,0.2,0,0.3-0.1,0.5c-0.5,2,0.9,3.6,1.3,5.4c0,0,0.3,0.1,0.3,0c0.1-0.1,0.2-0.3,0.2-0.4
		c1.6-0.7,1.4,1.7,2.7,1.6c0.7,0.2,1.5,0.6,2.2,0c0.2-0.3,0.4-0.6,0.6-1c0.4-1.3,0.3-2.8,1.4-3.9c0.4-1-0.9-2.7,1.2-2.9
		c2,2.1-0.3,6.7,4.8,7.4c1.1,0.2,0,4.7-1,7.2c1.1-1.5,0.8-3.8,2.8-4.7c0.4-1.3,0.9-2.5,1.3-3.8c2.2-0.9,2.6,0,1.9,2
		C65.4,179.7,65.6,185.5,61.6,189.5z"/>
	<path class="st11" d="M67.3,59.8c-2.3-2-3-5.2-5.7-6.9c0,0,0.1,0.1,0.1,0.1c0-3.9-3.4-6.7-3-11.1c0.5-6.6,4.4-11.8,11-12.9
		c0.4,2.8-2.6,2.2-3.5,3.4c1.5-0.4,3.8-2.8,3.9,1.4c-0.7,2-3.4,2.1-4.1,4.3c1.6-2.2,2.7-1.5,3.6,0.5c0.7-0.5,1.3-1,2-1.5
		c0.7,0-0.1,0.9,0.8,1.1c1.3,0.2,3.1-0.3,3.4,1.9c-0.1,1,0.1,2.3,1,2.6c1.2,0.5,1.1-1.2,1.8-1.7c1.6-0.1,1.4,0.9,1.2,1.9
		c-0.6,2.2-1.4,4.2-1.8,5.9c1.4-2.6,1.2-6.3,3.5-9c0.1-0.6,0.1-1.2,0.2-1.8c0.9-0.3,1.4,0,1.1,1c-0.1,0.8-0.1,1.6,0.8,2
		c1,1.2,2.8-0.3,3.7,1c0,0.3,0.1,0.6,0.3,0.9c1.4,1.2,1.5-1.8,2.8-0.8c0.3,1.2,0.7,1.9,1.7,0.4c1-1.7,0.2-3.6,0.9-5.7
		c3.4,3.4,2.9,6.7-0.1,9.4c-6.1,5.5-12.8,10.4-17.7,17.2c-1.8,2.6-2.9-0.9-4.4-1C68.9,62.6,67.8,61.5,67.3,59.8z"/>
	<path class="st14" d="M138.8,227.9c0.3,0.4,0.6,0.8,1.1,1c7.5,3.7,6.2,10,4.6,16.3c-0.1,0.5-0.3,1-0.4,1.4c-1,2.7-1.2,6.5-3.1,7.7
		c-2.3,1.4-4.4-2.4-7-3.3c-3.4-1.2-6.8-2.6-10.2-3.9c-8.9,0.6-16.8-7.3-17.2-17c0.5-1.7-2.3-3.5,0.2-5c2-0.4,2.5,1.3,3,2.5
		c0.9,2.1,2.7,3.2,4.4,4.5c0.6,0.6,0.7,1.6,1.3,2.2c-0.3-1-0.7-2.2,1.2-2.1l0.2-0.1c1.2,0.5,2,1.6,3,2.4c0.7,0.4,1.3,0.9,2.2,1.7
		c-1.4-1.8-2.2-3.5-3.1-5.1c-0.6-2.2-1.7-4.2-2.5-6.4c-0.3-0.9-1-2.3,1.1-2.3c0.3,0.3,0.7,0.6,1,0.8c0.8,0.4,1.6,0.9,2.1,1.7
		c1.4,1.8,1.6,4.2,2.9,6.2c1.1,2.1,2.1,4.2,2.9,7c-0.8-3.2-2.3-5.5-3.2-8.1c-0.1-0.7,0-1.4,0.5-2c3.3-0.8,4.8,1.2,5.9,3.9
		c0.3,0.7-0.2,2.3,1.7,1.9c2.4-0.5,0.9-1.7,0.6-2.6c-0.4-1.3-0.4-2.6,0.1-3.9c0.7-1.3,1.7-1.7,2.5-0.2c0.9,1.7,1.3,3.7,2.1,5.5
		C138,231.1,135.3,228,138.8,227.9z"/>
	<path class="st15" d="M115.7,140.9c-0.9-0.6-1.9-1.3-2.8-1.9c-2.6-2.8-5.7-5-7.1-8.8c-1.1-2.8-1.7-5.5,0.2-8.3
		c0.3-0.3,0.7-0.5,1.1-0.6c1.4-0.4,2.5-2.4,4-1.1c1.9,1.6,0.4,3.7,0.4,5.5c0.7-1-0.2-3.1,1.4-3.6c2-0.7,1.6,2.2,3.2,2.5
		c2.5,0.8,0.8-2.8,2.7-2.6c0,3.1,2.2,0.1,3,1.1c0.7,0.7,1.4,2.4,2.2,0.1c1.1-0.8,1.8-0.5,2.2,0.7c0.6,1.7,0.6,3.6,1.1,4.9
		c0.4-2.6-3.3-5.5,0.3-8.5c0.5,1,0.6,2.4,2,2.6c0.1-0.6,0.1-1.2,0.2-1.8c1.1-0.4,1.3-2.3,2.9-1.9c0.6,0.4,1.1,1.4,1.9,0.6
		c0.3-0.3-0.1-1.1-0.1-1.7c0.4-0.3,0.8-0.3,1.2,0.1c1.3-1.9,1.3-1.9-0.6-6.2c4.2,1.6,5.7,4,4.2,7.9c-3,7.7-6.7,15.1-8,23.4
		c-0.2,1.6-1.3,1.7-2.5,1.4c-1.6-0.3-3.2-0.7-4.9-1c-0.7-0.2-1.6,0.1-2.2-0.6C119.7,142.3,117.7,141.6,115.7,140.9z"/>
	<path class="st13" d="M118.8,50.1c4.2,0.1,6.4,3.3,5.9,8.2c-0.4,3.6-2.1,6.7-3.8,9.9c-0.7,1.3-1.7,2.3-1.6,3.8
		c-4.5,2.3-5.4,7.8-9.7,11.4c-1.5-14.5-12.9-19.6-23-25.9c0.5-1.6,1.6-2.5,3-3c0.1,0.8,0.3,1.5,0.4,2.3c2.7-0.6,0.7-4.3,3.2-4.7
		c0.2,0,0.7,1.3,1.2,2.2c0.2-1.6,0.3-2.9,0.5-4.2c1.8,1.2,3.6,2.4,5.4,3.7c2.7,2,2.8,4.1,1.7,6.8c-0.3,0.6,1.1,0,0.4-0.2
		c-0.2-0.1-0.1-0.2-0.1-0.5c0.2-0.7,0.6-1.1,1.3-1.1c1.4,0.5,0.7,2.4,1.8,2.8c2.5,1,1.1-1.7,2-2.3c2.7-0.8,1.8,1.8,2.2,2.1
		c-0.5-0.3,0.7-2.8-2-2.4c-4.6-1.6-0.8-4.1-0.6-6.2c-0.3-0.5-0.6-1.1-0.9-1.6c1.9-0.7,2.5,1.1,3.5,1.9c1.6,1,1.5-2.1,3.1-1.2
		c2.3,1,0.5-2.2,2-1.9c0.2,0,0.4,0.1,0.6,0.1C116.5,50.5,117.7,52.2,118.8,50.1z"/>
	<path class="st16" d="M77.9,129.2c2.2-8.3,8.5-12.6,16.8-16.4c-3.4,4.2-7.2,6.6-8.7,11c4.2-4.5,8.4-9,14.8-10.1
		c0.7,1.6-0.4,2.5-1.4,3.3c-3.4,2.7-3,6.6-3.7,10.2c1.3,1,2.1-0.6,3.2-0.4c0.9-1.1,1.9-2.2,3-3.5c-0.2,4.9-6.5,10.7-15.2,14.3
		c-0.6,1.5-2.1,2-3.4,2.6c-4.5,1.9-6.5,0.6-6.5-4.2C76.8,133.6,76,131.1,77.9,129.2z"/>
	<path class="st17" d="M58.8,22.8c0.9,0.1,1.8,0.3,2.8,0.4c-1.3,3.8-4.8,2.4-7.5,3.1c-0.6-0.3-0.6,0.9-0.3,0.3
		c0.1-0.3,0.2-0.2,0.5-0.2c3.1,1.1,1.3,1.8-0.1,2.7c-1,0.7-2.8,0.9-2.6,2.6c0.2,1.6,1.9,1.6,3.1,2c1.1-0.4,2.1-0.8,3.3-1.2
		c-2.5,5.6-12,7-27.9,4.1c2.4-11.3,12.4-18.4,23.8-16.8c2.2,0.3,1,0.9,0,1.3c-1.8,1.8-4.6,1.7-6.4,2.9c-0.9,0.4,0,0.9-0.4,0.4
		c-0.1-0.1,0.1-0.2,0.4-0.3C51,21.9,54.9,22.1,58.8,22.8z"/>
	<path class="st18" d="M118.6,252.6c-1.2-0.1-1.3,2.1-2.8,1.3c-8.2-4.2-16.9-8-18.1-18.9c-1.4-10.4-1.4-10.7,1.8-15
		c0.5,6.5,0.5,13.1,3.7,19.2c1.3-1.8,0-3.1,0.1-4.5c0.1-1.2,0.4-2.9,2.3-1.5c2.7,6.9,9.5,10.3,13.8,15.8c0.2,1,0.2,2-0.7,2.7
		C118.6,251.9,118.6,252.2,118.6,252.6z"/>
	<path class="st19" d="M15.6,151.6c-1.1,1.4-2.2,2.8-3.5,4.5c-3.6-6.6-10.6-11.3-9.3-19.9c1.1-7.3,2.5-14.4,8.8-19.3
		c-0.3,5-3.4,9.1-4.6,13.8c-0.4,1.7-1.8,3.7,1.7,2.4c1-1.5,1.9-2,2.3,0.3c0.3,2.2-0.3,4.5,0.3,6.7C11.5,144.4,15.9,147.1,15.6,151.6
		z"/>
	<path class="st20" d="M119.6,225.1c-1.1-0.3-0.8-1.3-1.1-2.1c1.3-0.6,1.2-1.9,1.2-3.1c1.1,0.7,2.1,1.4,3.2,2.2
		c1.9,1.4,2.3,1.7,3.1-1.4c1.3-5.4,3.8-10.7,6.5-15.7c1.3-2.4,1-5.4,3.1-7.3c0.3-0.3,0.6-0.3,0.9-0.2c0.1,1.1,0.1,2.3,0.2,3.4
		c0.9,2-0.3,3.7-0.7,5.5c-1.7,2.6-0.7,5.8-2.1,8.4c-0.4,0-0.8,0-1.3,0.1c0.4,4,1.4,8-0.1,12c1,3.8,0.5,7.4-2.1,10.9
		c-2.6-3.2-1-9.2-6.7-9.9C121.4,228.5,121.7,225.1,119.6,225.1z"/>
	<path class="st21" d="M35.9,170c-1.4,5.1-3.3,10-7.1,14.9C24.2,174,14.5,166,16,153.3c2.3-3.3,2.8-0.5,2.9,1.1
		c0.5,4.9,1.4,9.7,3,14.4c0.4,1.1,0.3,1.1,2.1,1.2c0.2-0.8,0.7-1.3,1.6-1l0,0c0.6,1,1.7,1.6,2.1,2.7c1-1-0.8-3.4,1.8-3.6
		C30.5,172.7,33.7,169.4,35.9,170z"/>
	<path class="st22" d="M85.9,206.9c-5.4-7-7.7-14.8-6.9-23.6c0.3-1.4,0.7-2.8,1-4.2c3.6,2,2.2,5.4,2,8.2c-0.2,2.9,0.1,5.6,0.2,8.6
		c0.9-2.3-2.4-5,1.2-6.8c0.5,9.6,5,17.5,10.2,25c0.4-0.1,0.7-0.3,1.1-0.4c-0.8-2.7-1.7-5.4-2.6-8.5c8.5,6.9,10.1,4.6,3.5,16.9
		C92.6,216.8,89.9,211.4,85.9,206.9z"/>
	<path class="st23" d="M114.8,35c4,1.6,1.7,5,1.6,7.4c0,2.4-2.2,0.1-3.4,0.3c-3,0.5-6-1-9.2,0c-2.6,0.8-5.1,0.6-5.6-3.2
		c-0.2-1.3-1.6-2.5-2.6-3.5c-1.3-1.4,0-2.2,0.7-2.8c0.5-0.5,0.7-3.1,2.3-0.7c1,1.4,1.1-0.2,1.5-0.7c1.3-1.8,2-4.1,4.9-5.9
		c-2.5,4.5-3.5,8.3-0.6,12.5c0.6-1.9,1.1-3.7,1.8-6.2c0.5,2.2,0.5,4.2,2.7,4.5C111.1,37.2,113,36.4,114.8,35z"/>
	<path class="st24" d="M11.6,115.5c-1.3,0.7-2.5,1.4-4,2.3C8,111.1,7.2,105,6,99c-1.8-9.3,0.6-17.4,5.7-25c0.7-0.7,1.4-1.3,2-2
		c2.4,1.2,0.7,2.5,0.1,3.7c-1.8,3.6-3.4,7.3-5.5,10.8c-0.1,0.7,0.9,0.4,0.3,0.2c-0.3,0-0.4-0.2-0.2-0.4c0.6-0.9,0.4-2.8,2.4-2.1
		c0.1,0,0.1,0.3,0.2,0.4c0,0.2-0.1,0.3-0.1,0.5c-0.5,1.6-1,3.2-1.4,4.8c0.2,3.4-1,6.7-0.7,10.1c-0.9,3.3-0.1,6.4,1.7,9.4
		c1.8-2.3,0.8-5.3,1.9-8C17.5,109.9,17.5,109.9,11.6,115.5z"/>
	<path class="st25" d="M55.8,113c-1.2-1.6,0.4-3.5-0.4-5.2c-0.8,1.6-1.6,3.1-2.9,5.8c-3.9-6.8-2.9-13.5-3.5-19.8
		c1.8-0.9,1.9,0.3,1.9,1.6c0,4.1,0,8.1,0.4,12.2c3.4-5.2,3.4-10.7,2-16.6c1.4,3.5,6.1,4.6,5.9,9c0.4,2-0.5,3.8-0.8,5.5
		c0.9-1.6,0.3-3.9,1.7-5.5c2.7,0.2,2.8,1.7,1.9,3.7C60.3,107.1,58.6,110.4,55.8,113z"/>
	<path class="st26" d="M121.7,143c0.8-0.1,1.7-0.5,2.2,0.6c-0.5,3.4,0.3,6.6,1.8,9.7c0-2,0-4.1,0-6.4c0.5,0.3,0.8,0.4,0.8,0.5
		c0.5,2.7,0.3,5.8,4.4,5.5c0.3,0.3,0.6,0.6,0.9,0.9c-1.2,2.8,3.4,4.2,1.8,7.2c-1.7,1.9,0.5,2.8,1.1,4.1c0.5,1.2,0.8,1.5-0.6,2.7
		c-1.8,1.5-2-0.1-2.4-0.6c-2.2-2.5-3.8-5.4-5.2-8.4c-0.3-0.7-0.9-0.9-2-0.6c0.1,2.8,2.5,4.7,3.4,7.6c-2.4-0.8-3-2.6-3.8-4
		c-1.1-1.9-1.4,0.6-2.1,0.1c-2.6-1.6-2.5-3.7-0.8-5.9c3-0.7,3.3-0.9,2.2-3.9C122.3,149.2,121.2,146.2,121.7,143z"/>
	<path class="st27" d="M77.9,129.2c0,0.5,0.1,1,0.1,1.5c-0.4,9.4-0.4,9.4,8.7,6.7c0,0.5,0,0.9,0.1,1.4c-1.9,2.4-2.1,5.4-3.1,8.1
		c-0.8,0.3-1.5,0.7-2.3,1c-0.7-1-0.8-2.1-0.3-3.2c-1.9,4.1-1,8.3-0.5,12.6c0.6,5,1.2,10.1-0.4,15.2c-0.2,0.2-0.4,0.3-0.6,0.5
		c-0.7,0-1.4,0-2.1,0c-2.4-4.4-0.7-9.2-1.2-13.8c0.1-1.4-0.3-2.8,0.4-4.2c1.7-2.4,1.7-4.8-0.2-7.1c0.6-1.2,1.3-2.3,1.9-3.5
		c0.3-0.6,0.5-1.8,0.4-1.8c-6.8-3.3-1.9-9.1-2.9-13.6C76.7,128.4,77.5,126.6,77.9,129.2z"/>
	<path class="st28" d="M76.6,191.8c-6.7,2-14,1.5-20.3,5.4c0.7-3.2,3.8-3.4,5.4-5.3c3.3-0.6,4.1-5.2,7.9-5.1c2.1-0.2,3.1-2.4,5-3
		c1.1-0.9,0.2-4.1,3.2-2.9c-0.2,0.3-0.2,0.6-0.2,0.9C76.5,185.1,78.2,188.6,76.6,191.8z"/>
	<path class="st29" d="M98.7,197.9c-0.3,0.3-0.7,0.7-1,1c-2.6-6.7-8-13.3-5.2-20.7c1.2-3-0.4-5.4,0.9-8.4c1.9,2.5,5.6,2.6,6.3,6.1
		c-0.1,0.2-0.2,0.4-0.3,0.6c-0.6,0.7-1.7,0.3-2.1,1.1c-0.7,1.3-0.2,1.8,1.5,2.4c0.9,0.3,1,1.2,1.1,2.1c0,0.2-0.1,0.5-0.1,0.7
		c-0.1,0.7-0.1,1.4-0.2,2.2c-0.6,1.6-1.2,3.3-1.8,4.9c-2.5,0.1-1.7-2.3-2.6-3.2C95.7,190.6,99.7,193.4,98.7,197.9z"/>
	<path class="st30" d="M123.7,87.2c0.1,2.3-0.7,4.8,1.2,6.7c0.2,1.4-0.4,2.1-1.7,2.5c-4.1,1.4-7.8,3.2-11.6,5.4
		c-2.9,1.7-3.4-2.4-4.6-4.1c-1.2-1.8-0.4-2.6,1.8-2c0.4,0.1,1.2-1.3,1.8-1.9c2.4-0.1,4.5-0.4,4.1-3.7c-0.1-0.9,0.5-2.2,1.6-2
		c1.1,0.2,1.3,1.4,1.1,2.5c0,0.2-0.2,0.4-0.1,0.5c0.3,0.6,0.4-0.2,0.6-0.2c1.1,0.6,1.2-0.6,1.8-1c0.6-0.2,1.4,0.5,1.8-0.5
		C122.1,88.4,121.8,86.7,123.7,87.2z"/>
	<path class="st31" d="M87.7,62c-0.2,0.2-0.6,0.6-0.5,0.7c3.2,5.8,2,12.1,2.3,18.3c-1.6-0.6-1.6-2.1-2-3.4c-0.4-1.3-0.8-2.5-1.3-4.1
		c-0.6,2.8-1.4,5.5-3.9,6.5c-0.8,0.3-1.6-1.6-1.4-3c0.7-0.8,0-2.2,0.9-2.6c0.6-0.3,1.3,0.5,1.5-1.1c0.4-3.8-2-7.3-1.2-11.1
		C83.9,57.3,85.8,59.3,87.7,62z"/>
	<path class="st32" d="M27.8,86c-2.5,2-3.2,4.7-3.1,7.8c0.1,1.8,0.5,3.6-0.8,5.2c-2.2-2.9-0.7-6.3-1.1-9.5c0-0.3,0.1-0.7,0.2-1
		c-0.1,0.1-0.1,0.2-0.1,0.4c-0.6,2,0.8,4.5-1.3,6.2c-0.5,0-1,0-1.6,0c1-4.7,0.2-9.8,2.4-14c2-3.7,6.4-5.9,7-10.8
		c0.7,1.9,2,3.3,0.2,5.3c-1.3,1.5-1.8,3.8-2.5,5.9c-0.4,1.3-1.1,3.5,1.4,1c0,1.1,0,2.3,0.1,3.4C28.4,86.4,28.1,86.4,27.8,86z"/>
	<path class="st33" d="M114.5,4.3c-2.3,1.7-5,2.2-5.3,5.9c-0.2,1.6-1.7,4.3-4.8,4.9c-2,0.4-2.3,3.3-3.2,5.3
		c-0.3,0.7-0.1,2.3-1.6,1.7c-0.9-0.3-1.9-1.2-1.3-2.3c3.1-5.3,5.6-10.9,10.1-15.2C109.9,3.1,112.4,4.4,114.5,4.3z"/>
	<path class="st34" d="M64.5,176.8c-0.7,2.9-2.1,5.5-4.6,8.3c0.3-3.9,2.8-6.7,1.9-10.4c-4.9,2.8-3.9-1.1-4-3.9c0-1.3,0-2.7,0-4
		c1.2,1.7,3.2-3.5,4.4,0.4c0.1,0.4,0.8-1,1.1-1.6c1.1-2.3,1.5-4.9,4.1-6.4C65.1,164.9,61.6,170.4,64.5,176.8z"/>
	<path class="st35" d="M81.6,153.1c0.9,2.1,1.9,4.2,2.8,6.3c0.7,1.9,3.4,3,2.2,5.6c-1.6,3.5-3,7.1-6.1,9.5c-1,0.8-0.5-1-0.8-1.6
		l0.2,0.1c0.7-5.4,0.4-10.7,0.2-16.1C80,155.4,79.1,153.5,81.6,153.1z"/>
	<path class="st36" d="M22.5,137.1c-1.4-2.6-0.4-5.6-1.3-8.5c-1.5,2.5,0.4,5.1-0.9,7.4c-1.8-0.9-1-3-2-4.4c-0.3,1.2-0.6,2.3-1,3.7
		c-2.3-4.7,1.1-9-0.5-13.3c0.2-2.3,3.6-2.3,3.3-4.9C22.3,123.8,23.2,130.3,22.5,137.1z"/>
	<path class="st37" d="M119.7,108.9c-0.3,0.7-0.7,1.4-1,2c-1.7-1.5-3.3-0.6-4.9,0.3c-1.1,0.6-2,0.1-2.7-0.6
		c-0.9-0.9-0.2-1.8,0.2-2.7c2.4-5.7,4.5-6.9,10.2-5.5C123.4,104.9,123.1,105.9,119.7,108.9z"/>
	<path class="st38" d="M54.7,33.6c-1.8,1.9-3.8,2.1-4.8-0.6c-1.6-4.5,3-4,4.9-5.7c-1-1-2.6,0.4-3.4-0.9c3-2.1,7.1-1.1,10.1-3.2
		c1.8-0.8-2.4-2.2,0.2-2.7c0.8-0.1,1.7,0.8,2.6,1.2c-0.8,1.5,0.7,4.1-1.6,4.6c-2.4,0.5-4,2.6-6,3.2C54.1,30.2,54.7,31.9,54.7,33.6z"
		/>
	<path class="st39" d="M26.6,60c-1.7,5.2-6.6,6.4-10.9,8.5c2.1-4.2,4.7-8.1,6.2-12.5c1.1-1.7,1.5-3.9,3.3-5.6
		C27.3,53.7,25.4,57.1,26.6,60z"/>
	<path class="st40" d="M118.8,90.9c-1.3,0.7-0.8,2.3-1.9,3.9c-0.1-2.4-0.3-4.1-0.4-6.6c-1.1,3.2-0.2,6-2,8.3c-1.7-0.5-2-2.8-3.9-2.8
		c1.2-3.9,3-7.6,4.2-11.6c1.3-4.2,2.4,1.1,3.8,0.9C121,85.6,120.1,88.3,118.8,90.9z"/>
	<path class="st41" d="M109.7,170.9c-1.5,9.9,2.9,19.1,3.9,28.7c-2.8-4.3-2-9.9-5.3-14.1c-1.5,1.5-2.1,4.7-5.2,2.7
		c2-3.1,1.7-6.8,2.7-10.4c1.3,0.8,0.5,2.5,2.3,2.8C109.9,177.7,107.9,173.9,109.7,170.9z"/>
	<path class="st42" d="M113.7,232.9c-4.4-0.8-4.5-5.4-7-8c-1.1-2.9-1.2-5.9,0.4-10.2c-0.2,4.6,4.7,4.2,4.5,7.8
		c0.7,2.7,2.3,5,3.1,7.6C115.2,231.4,116,232.8,113.7,232.9z"/>
	<path class="st43" d="M103.7,59.1c-1.6,1,0.1,3.2-2.1,4.7c0-4.1,0-8-3.9-10.4c-0.4,0.3,0.4,1.8-1.1,2.3c-1.9-1.3,0.3-4.1-1.7-5.5
		c5.3-3.3,5.7-3.2,9,3.6C104,55.5,108.8,57.5,103.7,59.1z"/>
	<path class="st44" d="M27.8,86c0.2,0,0.5,0,0.7-0.1c0,1.4,0,2.9,0,4.5c3.9,0.1,5.4-6.6,10.1-3.5c-1.2,6.1-1.5,12.4-4.7,18.9
		c0.1-6.2,3.1-11.1,1.8-16.3c-0.5,4.5-5.5,1.9-8.4,4.6C27.5,91.1,27.7,88.5,27.8,86z"/>
	<path class="st45" d="M82,62c1.7,2.5,2,5.5,2.5,8.4c0.5,2.9-0.5,5.5-3.6,6.6c-0.2-0.6-0.4-1.2-0.6-1.9c-0.2,0.6-0.4,1.3-0.7,1.9
		C78.3,71.6,78.2,66.5,82,62z"/>
	<path class="st46" d="M81.9,26.1c-2.8,3.7-5.9,0.1-8.9,0.4c-0.8,0.1-1.7-1.7-0.3-2.7c2.7-2,5.1-4.7,9.4-3.5c-0.9,0.5-1.4,0.9-2,1.3
		c2.5-0.9-0.1,3.3,2.4,2.5c1.1-0.4,2.1-1.1,3.3-0.7c0.1,0,0.3,0.1,0.3,0.2c0,0.1-0.1,0.3-0.1,0.5C85.3,25.7,83.9,26.5,81.9,26.1z"/>
	<path class="st47" d="M67.3,59.8c1.8,0.1,2.4,1.8,3.6,2.7c-0.8,1.6-1.5,3.2-2.3,4.8c-1.6,4.6-1.5,9.4-1.8,14.2
		c-0.1,1.7,0.8,3.7-1.9,4.2c-0.2-1.2-0.3-2.4-0.5-3.6c-0.6-4,0.2-8-0.6-11.9C64.3,66.5,63.7,62.4,67.3,59.8z"/>
	<path class="st48" d="M67.8,175c-0.1-1.1-0.5-2.1-1.9-2c0.2-6.5,2.5-12.4,5.9-17.8C70.7,161.8,72,169,67.8,175z"/>
	<path class="st49" d="M65,85.7c1.8-3.2,0.5-6.7,0.7-10c0.2-3.1,0.4-6.1,2.9-8.4c0,0.6-0.1,1.2-0.1,1.7c2,3.6,4.5,7.1,1,11.1
		c-0.4,0.2-1.3-2.8-1.4,0.2c-0.1,2.1,1.9,4.1-0.6,6.5C64.5,89.6,65.1,87.5,65,85.7z"/>
	<path class="st50" d="M98.1,97.6c1,2.1-4,5.2,1.5,6.1c0.5,0.1,0,4.3-0.9,4.3c-2.3-0.1-3.8,2.8-5.7,1.7c-0.5-0.3-0.5-2.7-2.1-3.3
		c0.9-1.2,0.1-3.2,2.8-3.5C96,102.5,95.4,98.6,98.1,97.6z"/>
	<path class="st51" d="M116,124.5c-1.8,0.7-2-1-2.8-1.9c-0.6,1.8-1.2,3.6-1.9,5.8c-1.5-2.8-0.1-5.3-0.2-7.8
		c-2.5-0.1-2.1,2.3-3.4,2.6c-1.1,0.3-0.5-0.8-0.7-1.2c-0.2-3.1,2.3-4.7,3.7-6.9C114.2,116.4,116.6,120.7,116,124.5z"/>
	<path class="st52" d="M83.5,189.1c-1.7,2.4-0.3,5.2-1.1,8c-1.5-4.2-1.8-8.2-1.7-12.3c0-1.9,0.8-4-0.7-5.7c-0.4-2.6,2-2.9,3.5-4.9
		C83.5,179.8,83.5,184.5,83.5,189.1z"/>
	<path class="st53" d="M98.8,126.7c-0.9,0.9-0.8,2.8-3.3,2.1c-3.3-0.9-0.7-2.3-0.7-3.5c-0.4-5.1,2.5-8.6,6-11.7
		c1.4-2,2.5-0.1,3.1,0.6c1,1.1-0.7,1.5-1.3,2c-2,1.7-3.6,3.3-4.8,6C96.7,124.8,99.8,125,98.8,126.7z"/>
	<path class="st54" d="M134.6,193.1c-1.3,0.9-0.3,2.5-1,3.5c-0.8,1.3-1.7,3.5-3.7,1.1c0.1-5-1.8-9.8-2.2-14.8
		c-0.1-0.3-0.1-0.7-0.2-1c0.1-0.7-0.1-1.9,0.3-2.2c1-0.7,1.1,0.6,1.6,1.1c0.9,0.8-0.4,2.7,1.5,3.1c2.9,1,1.6,4.5,3.7,6
		c0.3,0.4,0.5,0.8,0.7,1.2C135.4,191.9,135.3,192.6,134.6,193.1z"/>
	<path class="st4" d="M118.8,249.1c-1.1-1.5-2.4-2.8-4.1-3.8c-4.7-2.7-7.7-6.9-9.1-12.2c0.3-1-0.2-2.3,0.9-3.1
		c1.7,9.7,8.5,14.3,17.2,17c-0.7,0.6-1.4,1.3-2.1,1.9C120.7,249.6,119.7,249.2,118.8,249.1z"/>
	<path class="st55" d="M81.6,153.1c-1.6,4.2-0.6,8.5-0.8,12.7c-0.1,2.4,0.6,5-1,7.2c0.1-6.1,0-12.1-1-18.2
		c-0.8-5.1,0.4-10.2,4.2-14.3c-0.6,2.5-1.2,5-1.8,7.5C80.1,149.7,82,151.3,81.6,153.1z"/>
	<path class="st56" d="M63.5,127.2c-2.6,1.8-1.4,4.9-2.4,7.3c-0.7,1.8-0.9,3.8-2.3,5.4c1.9-10.4,2.8-20.9,5.7-31.1
		c1.1,4.2,0.8,8.6-1.1,12.3C62.3,123.5,64.4,125.2,63.5,127.2z"/>
	<path class="st57" d="M95.7,67c-1.3,2.7,0.9,4.9,1.2,7.3c0.2,1.8,1.5,3.4,0.2,6c-3.9-4.3-5.1-9.3-6.3-14.4
		c-0.1-0.9-0.4-2.3,1.2-1.6C93.3,65,94.5,66.1,95.7,67z"/>
	<path class="st58" d="M52.7,133.9c-0.5,0.8-1.1,2.4-1.4,2.4c-1.6-0.4,0-2.4-1.4-3.2c0.2-4,3.5-7.4,1.8-11.9c-0.6-1.6,1.7-3,3.2-4
		c0.6-0.4,1.3-1.6,1.8-0.1c0.2,0.6,0.8,1,0.1,2.3C54.2,123.8,51.8,128.4,52.7,133.9z"/>
	<path class="st59" d="M73.6,69.8c-0.7,5.6-1,11.3-0.2,17.2c-1.2-1.4-2.3-2.8-3.5-4.2c1.1-4.6-0.5-9.3,0.8-13.8
		c0.5-0.8,1-1.5,1.5-2.4C73.4,67.6,72.4,69.1,73.6,69.8z"/>
	<path class="st60" d="M42.9,141.1c-0.4,2.5-1.3,4.6-4.1,5.6c-1.2-1.7,1-4.5-0.8-6.5c0.3-4.4,5.4-6.7,5.1-11.5
		c1,3.1-0.4,5.9-0.8,8.8C42.1,138.9,41.5,140.2,42.9,141.1z"/>
	<path class="st61" d="M26.6,60c-1.8-2.4-0.3-5.4-1.2-8.2c-1.2,1.5-2.3,2.8-3.5,4.2c1.3-7.2,4.8-13,11.2-16.9
		C26,44.6,26.2,52.3,26.6,60z"/>
	<path class="st62" d="M47.9,168c-2.5,0.8-1.2,3.5-2.5,4.8c-3.7-2.7-2.7-7-3.6-10.7c1.7-2,1.9,0,2.5,0.9c0.5,0.8,0.6,2,1.7,2.1
		C48.5,165.4,48.5,165.3,47.9,168z"/>
	<path class="st63" d="M11,85.1c-2.4-0.9-1.4,2.3-3.2,2.4c0.7-5.7,4.9-10,6.1-15.5c0.3-0.9,1.1-1.7,1.7-1.3c1.1,0.8,1.3,1.9,0.6,3.4
		C14.2,77.7,12.6,81.4,11,85.1z"/>
	<path class="st64" d="M27.5,127.3c-2.5,5.3-0.7,11.1-2.1,16.9c-1.7-2.3-0.4-4.8-1.4-6.9c-0.2-4.3-0.4-8.7,0.4-13.8
		C25.8,125.2,26.6,126.2,27.5,127.3z"/>
	<path class="st65" d="M121.7,123c-1.2,0.2-3.2,2.7-3-1.1c-2.4-3.9,0.2-7.4,0.8-11c2.6,1.6,1.4,4.4,2,6.6
		C122,119.2,121.7,121.2,121.7,123z"/>
	<path class="st66" d="M119.7,108.9c0.3-2.2,2.4-3.9,1.8-6.4c2-2.3,5,0.2,7.1-1.6c-0.8,1.2-1.9,2.4-2.2,3.7
		C125.7,108.6,122.9,109.1,119.7,108.9z"/>
	<path class="st67" d="M72.7,128.9c-0.1,3.1,0.7,6.1-0.4,9.9c-0.9-3.5-1.6-6.5-2.3-9.4c-0.8-5.1,0.9-9.9,1.6-14.8
		C72.7,119.3,70,124.3,72.7,128.9z"/>
	<path class="st68" d="M55.8,175c-1,3.8-2.4,1.1-3.7,0.2c-1.2-1.3-0.2-2.3,0.6-3.3c0.2-4,0.5-8,0.7-12.1c4.5,2.3,1.1,7.1,3.2,10.1
		C56.9,171.6,57.3,173.4,55.8,175c-1.5-2.4-1.5-5-1.5-6.6C54.4,169.9,54.1,172.6,55.8,175z"/>
	<path class="st69" d="M77.1,122.5c-2.7-2.4-2.4-5.2-1.8-8c0.2-0.9-0.6-2.7,1.4-2.5c1.3,0.2,2.8,0.9,2.7,2.5
		C79.2,117.3,79.2,120.1,77.1,122.5z"/>
	<path class="st70" d="M76,40.2c-2.2-1.1-4.1-1-5.2,2.1c-0.9-2.4,0.5-3.7,1-5.1c3.8-1.2,4.7-5.7,8.8-6.9
		C76.1,32.4,78.4,37.3,76,40.2z"/>
	<path class="st71" d="M77.5,158.1c0.7,4.9,0.6,9.9,0,14.8c-2.9-1-2.6-3.5-2.6-5.8c0.6-2.9,0-5.8,0.3-8.7
		C75.6,156.2,76.5,156.4,77.5,158.1z"/>
	<path class="st72" d="M121.7,164.9c-1,2-2.1,1.9-3,0c-0.9-1.9-1.6-3.9-2.6-6.4c-0.2,1.9-0.4,3.3-0.5,4.6c-1.3-3.4-0.4-6.6,1.1-10.2
		c0.8,2,1.4,3.6,2,5.2C120.6,160,119.9,163,121.7,164.9z"/>
	<path class="st73" d="M102.3,98.4c0.7,2.9,3.4,4.9,3.3,7.8c0,0.9,0.6,2.1-0.7,2.5c-1.1,0.3-1.3-0.7-1.5-1.5c0-0.1,0-1.1-0.2-0.5
		c-0.4,1.2-0.6,2.5-2.1,1.5c-1.1-0.7-0.3-2.2-0.2-3.2C101.2,102.8,101.8,100.6,102.3,98.4z"/>
	<path class="st74" d="M109.7,138c-0.9,3.4,1.4,6.6,1,10.3c-4.3-3.3-4.3-8-4.7-12.5C107.4,136.3,108.7,136.9,109.7,138z"/>
	<path class="st75" d="M57.6,78.8c-0.1,1.5-1.7,1.2-2.4,2.3c-1.2-4.1,0.1-8.1-0.3-12c1-1.2,1.9-2.4,3.3-4.2
		C58.3,70,54.8,74.3,57.6,78.8z"/>
	<path class="st76" d="M118.7,235.2c-1.5-0.6-1.1-2.3-1.9-3.3c2.4-1.4,0.3-2.9-0.1-4.1c-0.9-2.6-2.2-4.9-3.8-8.2
		c2.2,1.1,3.8,1,4.7,2.6c-0.5,3.2,2.6,5.5,2.4,8.7C119.9,232.4,120.2,234.1,118.7,235.2z"/>
	<path class="st77" d="M103.7,59.1c2.9-1.7-0.3-3.6,0.2-5.4c1.1,0.1,2.5,0.9,3.1-0.9c1.3,1.9-2.2,4.4,0.7,6.1l0-0.1
		c0.2,2.1,0.3,4.1,0.5,6.2c-2-0.4-1.2-2.4-2-3.5c-0.2,1-0.4,1.9-0.8,3.2C104.4,62.7,103.5,61.1,103.7,59.1z"/>
	<path class="st78" d="M58.6,49.1c-2.3,2.5-1.8,6.2-4.1,9.6c-2.2-4.3-0.5-7.5,1.1-10.8C57.2,47,58.1,47.7,58.6,49.1z"/>
	<path class="st79" d="M81.9,26.1c1.2-1,2.5-2,4.2-2.2c1.7,0.3,3.2,1.5,5.1,0.4C84.6,30.4,82.9,30.6,81.9,26.1z"/>
	<path class="st62" d="M52.6,171.8c-0.2,1.1-0.4,2.2-0.6,3.3c-3.1,1.7-0.6-2.5-2.3-2.2c-0.6-5.5,1.2-10.7,1.3-16.1
		C53,161.7,50.6,167,52.6,171.8z"/>
	<path class="st80" d="M122.6,90.7c-0.1,0.6-0.1,1.7-0.4,1.8c-2.1,0.5-1.1-2.1-2.4-2.5c-0.9-3-0.9-6,0-9c1-1.5,0.9-3.3,0.9-5
		c0.1-0.6,0.1-1.1,0.2-1.7c3,1.5,0.3,4.5,1.7,6.4C123.4,84.1,121.7,87.3,122.6,90.7z"/>
	<path class="st81" d="M120.8,185.8c-1-0.3-0.9-1.2-1.1-2c-1.6-4.7-3.2-9.4-5.1-15.2c3.7,4,4.4,8.3,6.2,12
		C122.7,182.4,123,184.1,120.8,185.8z"/>
	<path class="st1" d="M127.7,39c4.7,1.2,6.5,4,4.9,8.7c-0.4,0-0.9-0.1-1.3-0.3c-1.3-0.9-2.3-2-3.4-3.1c-0.7-1-2.1-1.8-1.2-3.4
		C127.1,40.3,127.4,39.6,127.7,39z"/>
	<path class="st82" d="M67.5,131.2c-2,4.4-0.9,9.4-2.2,14.8c-1.3-4.6-0.7-8.2-0.1-12c0.2-1.7,1.5-3.4-0.3-5c0-0.9-0.4-2.2,0.9-2.5
		c1.1-0.2,1,1.1,1.2,1.8C67.2,129.3,67.3,130.3,67.5,131.2z"/>
	<path class="st83" d="M20.8,76c0-3,1.9-5.3,2.9-7.9c1.5-0.8,3.2-1.5,4.6-2.9C25.6,68.9,25.7,74.1,20.8,76z"/>
	<path class="st84" d="M114.8,35c-0.6,5.1-3.6,2.2-5.9,1.8c2.9-1.8,2.9-4.6,1.8-8C113.9,30.3,112.8,33.6,114.8,35z"/>
	<path class="st85" d="M90.5,42.2c-0.9,0.5-0.7,4.6-2.8,0.8c2.4-2.3,0.5-4.8,0.4-7.2c0-0.9-0.7-2.1,0.7-2.5c0.5-0.2,1.3,0.1,1.9,0.4
		c1.1,0.7,0.9,1.4,0.1,2.4C89,38,91.4,40.2,90.5,42.2z"/>
	<path class="st41" d="M114.6,183c-1.5,0.6-0.4,2.1-1.6,3.6c-1.5-5.8-3-11.1-2.2-16.7C110.8,174.6,113.9,178.5,114.6,183z"/>
	<path class="st86" d="M77.6,80c-1.4-0.4,0.1,4.2-2.7,1.6c2.3-4.4-0.3-9.5,2.7-14.7C77.6,71.9,77.6,75.9,77.6,80z"/>
	<path class="st87" d="M129.6,93.9c-0.6,2-2.3,1.7-3.8,1.9c-0.1-0.6-0.1-1.3-0.2-1.9c0-3.7,0-7.3,0.1-11c1.4-2.5,1.9,0,2,0.6
		c0.8,2.9,1.2,6,1.2,9.1C129,93.1,129.3,93.6,129.6,93.9z"/>
	<path class="st70" d="M69.8,38.8c-2.9-1.6-3.4,2.2-5.8,2.6c0.8-3.6,2.4-6.3,5.8-7.4c0.2-0.4,0.5-0.7,0.9-0.9
		C72.6,35.4,68.6,36.6,69.8,38.8z"/>
	<path class="st88" d="M43.7,94.9c-1,5.3-1.9,10.6-4.6,15.4c0.5-5.3,1.5-10.5,3.5-15.4C43,94.9,43.3,94.9,43.7,94.9z"/>
	<path class="st89" d="M94.7,145.9c-2.3,3.7-3.5,1.6-4.8-0.8c0.9-2.3,2.2-4.3,4.2-6.8C93.9,141.3,92.1,143.9,94.7,145.9z"/>
	<path class="st1" d="M127.7,182.9c1.3,4.8,4.2,9.4,2.2,14.8c-1.8-0.8-0.4-2.7-1.3-3.8c-0.6-0.8-0.8-1.7-0.1-2.6
		c0.1-2.4-0.9-4.4-1.8-6.5C126.2,183.8,126.3,183.1,127.7,182.9z"/>
	<path class="st90" d="M58.8,22.8c-5.6-0.8-10.5,1.9-15.7,3c3-2.9,6.8-4,10.7-4.8C54.9,23.1,57.5,21.1,58.8,22.8z"/>
	<path class="st91" d="M62.8,72.9c-2.5,3.6,0.9,7.4-0.3,11.2c-2.8-2.6-0.8-6.7-2.9-9.4c0.4-1.2-0.2-2.9,1.4-3.4
		C62.1,70.9,62.8,71.7,62.8,72.9z"/>
	<path class="st92" d="M118.8,3.9c0,0.5-0.1,1.1,0.1,1.4c0.7,1,2.9,0.6,2.5,2.3c-0.4,1.7-2.4,1.2-3.7,1.6
		C112.8,6.4,116,5.2,118.8,3.9z"/>
	<path class="st47" d="M70.7,68.9c-0.5,4.6,1.7,9.3-0.8,13.8c-0.2-0.9-0.4-1.8-0.5-2.7c0.3-3.8-0.5-7.4-1-11.1
		C69.2,68.9,70,68.9,70.7,68.9z"/>
	<path class="st93" d="M41.8,49c-1,3-2.9-0.5-4.1,0.6c-1.1-1.7,2-2,1.1-3.6c1.3-1,2.7-2,4-3C42.2,45.1,41.7,47,41.8,49z"/>
	<path class="st94" d="M70.7,33.1c-0.3,0.3-0.6,0.6-0.9,0.9c0-1.6-0.5-2.2-2-1.3c-1.5,0.9-3,1.8-5,3c1.3-3.9,5-4.3,6.9-6.6
		C71.8,30.1,71.9,30.3,70.7,33.1z"/>
	<path class="st95" d="M117.8,184.1c-0.6,4,1.8,7.5,1.3,11.6c-2.5-2.8-2.4-6.5-3.4-9.8C117.1,186,116.3,183.7,117.8,184.1z"/>
	<path class="st96" d="M81.6,39.8c-0.9,3.2-1.9,6.4-3.1,10.6c-1.8-4,1.7-6.5,0.3-9.4c0-1.3,0.7-2.3,1.4-3.3
		C80.7,38.4,81.2,39.1,81.6,39.8z"/>
	<path class="st97" d="M121.7,164.9c-3-1.4-2.2-4.5-3.1-6.8c0.1-1.5,0.9-2.2,2.4-2.1c0.3,2,0.5,3.9,0.8,5.9
		C121.8,162.9,121.8,163.9,121.7,164.9z"/>
	<path class="st98" d="M112.7,52c-1.1,0.2-0.8,4-3.1,1.2c2.1-0.4,1.2-1.6,0.5-2.4c-1.9-2-3.9-3.9-5.7-6.1
		C108,46.2,110.7,48.7,112.7,52z"/>
	<path class="st99" d="M25.6,169c-0.5,0.3-1.1,0.7-1.6,1c0-3.4,0-6.8,0-10.7C26.6,162.6,25.2,166,25.6,169z"/>
	<path class="st100" d="M120.8,185.8c0.4-1.7,1-3.4,0.1-5.1c3.8,0.4,3.5,3.5,4,6.2C123.5,186.6,121.8,187.5,120.8,185.8z"/>
	<path class="st101" d="M8.8,100c-1.5-3.5-1.4-6.9,0.7-10.1C11.8,93.4,9.8,96.7,8.8,100z"/>
	<path class="st39" d="M113.7,232.9c2.4-1,0.4-2.4,0.1-3.5c-0.5-2.3-1.4-4.6-2.2-6.8c1.6,3.1,3.2,6.3,4.9,9.4
		C115.5,231.8,116,236.8,113.7,232.9z"/>
	<path class="st102" d="M89.7,166.4c1.9,3.5-0.4,6.9-0.2,10.3C88.5,173.3,88.4,169.9,89.7,166.4z"/>
	<path class="st25" d="M48.9,92.1c-0.7-1.2,0.3-2.8-0.9-4c-0.2-2.8,0.1-5.5,1.3-8C49.5,84.1,50.4,88.1,48.9,92.1z"/>
	<path class="st103" d="M29.5,168.1c-1.6,1.3-0.3,3.2-1.2,4.9c-1.2-1.2-2.7-2-2.6-4c0.8,0.3,1.9,1.4,2-0.5c0-1.2-0.5-2.4-0.8-3.9
		C29.2,165,29,166.8,29.5,168.1z"/>
	<path class="st104" d="M98.6,146.8c0.1,0.7,0,1.4-0.7,1.6c-0.8,0.2-1-0.5-1.2-1.2c-0.3-1.4,0.6-3-0.9-4.1c0.2-1.8,0.8-3.4,2.4-4.6
		C99,141.3,95.8,144.2,98.6,146.8z"/>
	<path class="st56" d="M63.8,130c0.9,4.4-1.2,8.4-1.4,12.6c-0.7-4.7-0.2-9.3,1.2-13.9C63.6,129.2,63.7,129.6,63.8,130z"/>
	<path class="st105" d="M99.7,176c0.3-0.1,0.8-0.4,0.9-0.4c2,1.7,1.4,6.5-0.9,7.2c0,0,0.1,0.1,0.1,0.1c-0.6-2.4-1.7-4.7,0-7.1
		C99.8,175.9,99.7,176,99.7,176z"/>
	<path class="st106" d="M104.8,141c0.3,0.9,0.6,1.8,1,2.7c-4.6-0.8-3.4-5-4.9-7.6c0.1-0.5,0-1.1,0.2-1.4c0.9-0.7,1.1,0.3,1.2,0.8
		C102.6,137.6,102.3,139.9,104.8,141z"/>
	<path class="st107" d="M77.5,158.1c-1.5-1.4-1.7-0.6-1.8,0.9c-0.2,2.7,0.6,5.5-0.7,8.1c0-3.1-0.1-6.3-0.1-9.4
		c0-1.4-0.2-2.8,1.9-2.7C76.8,156,78,156.8,77.5,158.1z"/>
	<path class="st17" d="M128.5,191.4c0,0.9,0.1,1.7,0.1,2.6c-2.3-1.8-5.4-3.1-3.9-7C126,188.4,127.2,189.9,128.5,191.4z"/>
	<path class="st96" d="M87.5,42.1c-1.4-0.4-1.7,2.7-3.6,1c-1-0.8-0.4-1.4-0.1-2c0.6-1,1.4-2,2.7-1.8C87.9,39.7,87.6,41,87.5,42.1z"
		/>
	<path class="st108" d="M11.5,140c-1.2-2-0.6-4.1-0.7-6.2c-0.1-1.7-0.9-1.3-1.9-0.8c0.1-1.2-0.4-3,1.7-2.8c1.6,0.2,1,1.8,1,2.9
		C11.7,135.4,11.6,137.7,11.5,140z"/>
	<path class="st109" d="M34.5,78.8c-1.3,2.3-2.6,4.6-4.1,7.3C30.3,82.1,30.7,81.4,34.5,78.8z"/>
	<path class="st110" d="M120.7,40.2c0.6,2.1,1.2,4.3,1.8,6.5c-1.6,0.1-2.2-1-3-1.7C120.1,43.4,118.4,41.3,120.7,40.2z"/>
	<path class="st111" d="M126.7,40.9c0.7,1,1.3,2,2,2.9c0.8,2,1.8,4,0.3,6.1c-0.4,0.3-0.9,0.3-1.4,0.2c-0.6-0.5-0.8-1.2-0.8-1.9
		c0.2-2.1-2.2-3.8-1.2-6.1C126,41.7,126.4,41.3,126.7,40.9z"/>
	<path class="st91" d="M63.9,70.2c1.7,3.9,0.5,8,0.6,11.9c-1.5-2.9,0.3-6.4-1.7-9.2C63.8,72.3,63.6,71.1,63.9,70.2z"/>
	<path class="st112" d="M110.7,115.1c-1.2,2.3-2.5,4.6-3.7,6.9c-0.4,0-0.7,0-1.1-0.1C106.4,118.9,108.3,116.8,110.7,115.1z"/>
	<path class="st113" d="M74.6,183.8c-1.1,2-1.8,4.4-5,3c0.8-1,1.7-2,2.3-3.2C73.1,181.2,73.8,183.7,74.6,183.8z"/>
	<path class="st114" d="M60,100c-0.1,2.8-0.6,5.4-2.7,8.2c-0.2-3.4,1.1-5.7,1.8-8.2C59.3,100,59.6,100,60,100z"/>
	<path class="st115" d="M114.8,50c-1.3-1.6-2.7-3.2-4.2-5c3.3-1,3.3,3.3,5.7,3.3c0,0,0,0,0,0c0.7,0.4,0.9,0.9,0.4,1.5
		c-0.6,0.8-1.3,0.7-2.1,0.2L114.8,50z"/>
	<path class="st96" d="M82.9,39.1c-0.4-0.3-0.7-0.7-1.1-1c0-2,1.1-3.5,2.4-6.3C84.2,35.1,84,37.2,82.9,39.1z"/>
	<path class="st116" d="M125.6,42.1c0.4,2.1,2.1,3.7,1.9,5.9c-0.8,0.2-1.2-0.3-1.6-0.9c-0.8-1.7-1.6-3.5-2.3-5.2
		C124.4,40.6,124.9,42,125.6,42.1z"/>
	<path d="M119.8,81c0,3,0,6,0,9c-0.5,0.1,0.1,1.5-1,0.9c0-2.6-0.1-5.2-0.1-7.9C119,82.4,119.4,81.7,119.8,81z"/>
	<path class="st117" d="M40.6,90c0.2-2.2,0.6-4.3,2-6.1c0.9,1.7,1.8,3.3,0.2,5.1c-1.4-1-0.6,0.8-1.1,0.9C41.3,90.3,41,90.3,40.6,90z
		"/>
	<path class="st10" d="M177.6,168c1.5,2,3,4.1,4.6,6.3c1.1-2.3-0.8-3-1.2-4.2c0-0.1,0.1-0.3,0.1-0.4c0.2,0.1,0.4,0.1,0.6,0.2
		c2-1.2,2.8,2.5,4.8,1.2c0.1,0.1,0.2,0.3,0.3,0.4c8.4,5,8.5,12,5,20c-2.7,6.2-4.5,12.7-5.9,19.9c-6.7-8-16.2-10.4-24.4-14.9
		c-3.3-1.8-6.3-3.7-7.2-7.7c-0.2-1-1.6-2.3,0.1-2.9c1.1-0.4,2.4-0.2,3.5,1c0.9,0.9-0.9,3.5,2.1,3.1c3.2-0.5,5.6-1.4,5.6-5.1
		c1.2-4.4,0.4-9.4,3.7-13.2c1.5,2,1.2,4.3,1.6,6.2c0.3-2.3-1.5-4.9-0.8-7.6c0.4-0.5,0.8-0.6,1.2-0.1c1.5,4.2,3.1,8.3,4.6,12.5
		c0.3-5.4-2.6-10-3.5-15.2c-0.3-1.5-0.9-2.9-1-4.3c-0.1-1.1,0.4-1,0.9-0.2c0.2,0.3,0.3,0.6,0.4,0.9c2,1.7,3.2,3.9,3.2,5.2
		C176.2,169.1,175.6,167.9,177.6,168z"/>
	<path class="st11" d="M134,214.9c-0.5-3-1-6,1-8.7c2.7,0.5,1.7,3.1,2.7,4.6c0.9,2.4,0.9,5.1,1.5,6.8c-0.5-0.6-0.3-2.3-0.4-3.8
		c0.1-1.2,0-2.7,1.9-2.7c0.6,2-0.7,4.6,2,6.4c0.9-2.2,0.1-4.4,0.1-6.5c-1.3-2.3,0.8-4.1,1-6.2c-1.2-6.7-2.5-13.5-3.7-20.2
		c0.3-0.1,0.6-0.2,0.9-0.2c0.7,2.5,1.4,4.9,2.1,7.4c2.3,2.6,2.6,5.9,3,9.2c-0.3,1.2,0.5,2,0.9,2.9c3.4,3.6,1.7,8.9,4.1,12.1
		c0.1-2.3-2.9-4.9-0.8-8.7c1.8,2.7,2.5,5.3,3.4,7.8c-0.5-2.3-1.9-4.4-2.3-6.7c-0.2-1-0.3-2.2,0.9-2.5c1.2-0.3,1.8,0.9,1.9,1.8
		c0.6,3.5,2,6.6,3.7,9.7c0.3,0.6,0.8-0.7,0.3-0.2c-0.1,0.1-0.3,0.1-0.4-0.2c-1.4-2.3-2.3-4.8-3.1-7.3c-0.3-1-0.5-2,1.2-1.8
		c1.3-0.6,1.6-4.4,4.6,0.7c-0.9-4.8-3.1-7.5-2.3-10.9c2.3,1.2,4.5,2.3,6.7,3.5c8.1,4.1,7.9,4,6.3,13.3c-1.4,8.1-5.9,15.2-7.6,23.1
		c-0.3,1.4-1.1,1.3-2.2,0.7c-5.9-3.3-12-6.5-17.8-10C138.3,225.4,136.1,220.1,134,214.9z"/>
	<path class="st17" d="M197.6,200.8c2,1.7,0.6,3.8,0.7,5.7c0,0.8-1.2,1.9,0.4,2.2c1.5,0.3,0.9-1.5,1.5-2.2c0.1,0.2,0.2,0.3,0.3,0.5
		c0.6,1.5-0.9,4.2,1.4,4.3c3,0.1,1.8-3,2-4.7c0.4-3.7-0.1-7.5-0.8-11.3c2.8,0.9,3.2,3,3.4,5.2c0.8,8.3-1.1,15.7-6,22.5
		c-4.3,6-9.6,11.4-12,18.7c-0.3,0.9-0.7,1.6-1.7,1.1c-3-1.7-6.6-2.7-8.3-6c-1.8-3.5-3.2-7.3-4.8-10.9l-0.1,0.1c1-2.3,3-3.7,4.9-5.2
		c1.8-1.5,1.7,0.3,2.3,1.1c0.9,1.7,0.4,3.4,0.3,4.3c2-3.1,1.1-8.5,5.7-11.2c3.2,0.6,4.3-0.9,4.4-3.9c0-1.9,0.5-3.8,0.8-5.7
		c3,1.4,0.2,4,1.6,5.9c0,0,0.1,0,0.1-0.2c-0.6-3.2-0.6-6.3,1-9.3c3.2,0.7,1.4,3.1,1.5,4.7c0.3,2.8-0.3,5.5-1.2,7.9
		C197.3,210.3,195.2,205.1,197.6,200.8z"/>
	<path class="st10" d="M153.6,248.1c0.8,0.9,0.9,2.3,2.2,2.8c1.8,0.8,3.2,2.3,5.7,0.9c2.8-1.6,0.3-3.1,0.5-4.6
		c0.2-1.2,0.1-2.3,1.6-2.5c2,1.1,2.6,3.3,4,5c2,0.2,4.1,0.2,4.6,2.8c0,0.5,0.1,1,0,1.4c0.3,0,0-0.2,0.1-0.3c0-0.3,0.1-0.7,0-1
		c-0.6-2.2-1.1-4.4-0.4-6.6c0.8-1.4,0.3-3.7,2.6-4c1.2,4.8,0.6,9.9,2.4,14.7c0.7,1.9-0.3,3.6-1.1,5.2c-2.9,6.6-7.9,11.7-13.4,17.2
		c-2.1-6.6-6.9-10.4-11.7-14.1c-4.8-3.7-4.7-9.3-5.9-14.3c-0.3-1.2,0.3-3.2,1.3-4.1c1.3-1.2,1.2,0.7,1.6,1.4
		c1.1,2.7,5.8,2.1,5.8,5.9C154.7,252,150.2,249.9,153.6,248.1z"/>
	<path class="st14" d="M198.2,134.1c4.2,5.5,4.9,11.9,4.3,18.6c-1.2,5.8-2.4,11.6-3.8,18.1c-7.8-5.3-17.8-6.1-25-12.8
		c-0.5-1.9,1.4-2,2-1.9c4.3,0.8,4.3-2.2,4.7-5c2.3-0.8,3.7-2.3,4.1-4.8c0.3-1.8,1-3.1,3.2-2.8c1,1.2,2.2,2.1,3.7,1.8
		c-1.9-3.4-5.4-6.1-6.6-10.3c0.6-0.3-0.5-2.1,0.8-1.2c1.6,1,2.8,2.7,4.1,4.2c2,1.9,3.5,0.4,5.1-0.8c2-1.4-0.1-2.2-0.5-3.2
		c-0.4-1.1-0.6-2.2,0.4-3.2C195.9,132,197.1,133,198.2,134.1z"/>
	<path class="st118" d="M155.8,121c0-1.3-1.1-1.6-1.9-2.2c-0.3-1.3,0.7-1.4,1.5-1.6c0.9-0.1,1.7-0.2,2.2-1.1c1.5-1.1,3.5-1,5-1.8
		c1.3-0.2,1.2-0.6,0.2-1.4c-0.9-0.7-2.6-1-1.8-2.8c9.8-0.3,12.3,2.8,12.8,12.6c0.4,7.5-2.8,14.4-2.8,22.4c-5-7.3-12.2-10-20.2-11.2
		c-1.3-0.6-2.7-0.6-3.9-0.3c-3.9,0.7-5-1.2-4.9-4.6c-1.6-2.2,0-4,0.7-5.9c1.3-1.1,1.3-1.1,2.5-0.1c0.5,0.5,0.5,2.2,1.8,0.8
		c3,0.7,6.2,1.2,7,5c1.9-1.9,3.4,0.4,5.1,0.7C159.1,126,152.9,125.3,155.8,121z"/>
	<path class="st119" d="M205.7,155.9c6,2.9,10,11.9,8.8,21.1c-0.6,5.2-2,10.4-3,15.6c-0.6,2.7-1.5,4-4.2,1.6c-3.8-3.4-8.4-6-10-11.2
		c-0.5-1.5-0.4-2.4,1.3-1c1,0.5,2.2,0.1,3.2,0.7c1.6-0.3,1.9-1.4,1.7-2.8c3-1.5,3.3-4.5,4.3-7.2c3.3-2.4-0.4-5.2,0.5-7.8
		C207.7,161.9,205.1,159.3,205.7,155.9z"/>
	<path class="st120" d="M170.7,106c3,2.8,6,5.6,9,8.4c-1.3-5.9-8.1-7.9-10.3-13.3c2-0.1,3.5,1.4,5.3,2c2.6,1.2,2.7,5,6,5.5
		c-0.1-2.6-4.5-3.5-2.6-6.7c0.6-1.1,1.3-2,2.7-1c4.8,6.3,9.3,12.9,15.9,18.1c-3.6,2.1-7.2,3.1-10.9,3.6c-7.3,0.9-8,0.7-9.8-6.4
		c-1-4-4.7-5.8-6.3-9.2C169.3,106,169.7,105.8,170.7,106z"/>
	<path class="st121" d="M125.9,47.2c0.5,0.3,1.1,0.6,1.6,0.9c0.2,0.6,0.3,1.2,0.5,1.9c2.2,2.8,3.1,6,2.7,9.6c1-3.5-1.5-6.4-1.4-9.7
		c-0.2-2-0.4-4-0.6-6c1.5,0.6,2.2,1.9,3,3.2c0.6,4.1,3,7.7,3.9,11.7c0.3,1.3,1.5,1.7,1.9,1.3c0.8-0.7-0.6-1-0.8-1.7
		c-0.2-0.8-0.5-1.6,0-2.4c-0.2-1.3,0-2.8-0.5-3.9c-1.5-2.8-0.1-4,2.2-4.8c1.5,6.6,2.9,13.2,4.5,19.8c0.3,1.2,0.2,1.7-0.9,2.2
		c-4,1.8-11.7,0.4-14.8-2.8c-0.6-0.6-1.3-1.2-1-2.1c2.1-5.3,1.2-10.6-0.3-15.9C125.8,48.2,125.9,47.6,125.9,47.2z"/>
	<path class="st122" d="M118.8,249.1c0.8-3,1.9,0.1,2.8-0.1c2.3,5,6.6,8.5,10,12.7c1.2,1.5,2.2,1.6,2.1-0.8c-0.5-1,0-1.2,0.9-0.9
		c0.6,0.8,1.9,1,2.1,0.5c0.9-2-0.9-3.1-2-4.7c3-0.5,6.4,7.6,8.6-0.6c1.6,1.3,0.9,3.2,1.5,4.7c0.6,4,0.9,8-0.2,11.9
		c-9.5-5.7-19.5-10.7-26-20.2C118.7,250.8,118.7,249.9,118.8,249.1z"/>
	<path class="st123" d="M153.7,101.9c0-0.9-0.6-2,0.8-2.5c1.1-0.4,1.5,0.5,1.8,1.2c1,1.7,1.8,3.5,2.9,5.7
		c-5.3,1.8-10.5,3.3-14.5,7.1c-1,1-1.7,0.2-2.4-0.5c-0.9-0.9-1.9-2.1-3.1-2.4c-3.8-0.8-3.9-2.9-2.5-5.8c1.7-0.6,0.4,2.2,2.1,1.8
		c0.6-2.9-0.4-6.2,1.5-9.2c1.5,3.3-1.2,7.9,3.8,9.3c0.6,0.2,0.6,1.9,1.6,0.8c0.4-0.4-0.1-1.5-0.2-2.3c0.3-2.5,1.8-1.8,3.3-1.2l0,0
		C150.6,103.9,151.7,101.9,153.7,101.9z"/>
	<path class="st124" d="M193.7,248.8c0.1-0.3,0.2-0.5,0.3-0.8c0.9-0.2,1.3,0.1,0.9,1c-0.8,3.9-3,7.1-6.1,9.4
		c-5,3.7-10.2,7.1-14.3,12.2c0.9-4.4,4.2-7.6,5.2-11.8c0.9-2.6,3.8-3.7,4.8-6.2c0-0.6,0.1-1.3,0.1-1.9c0-5.3,0-5.3,5-4
		c1.1-0.4,1.3,0.4,1.5,1.2C191.6,249.5,192.4,249.9,193.7,248.8z"/>
	<path class="st125" d="M209.7,214.9c0.1-0.9,0.2-1.8,0.3-2.8c0.6-2.9,0.1-5.9,0.3-8.8c0.1-1-0.6-2.5,1.4-2.4
		c2.3,8.3,0.7,16.2-2.7,23.8c-1.9,4.4-4.4,8.5-6.6,12.8c-5.2-6.4-3.8-12.1,3.9-15.6c0.4-0.2,0.4-1.2,0.6-1.9
		C208.1,218.5,208,216.2,209.7,214.9z"/>
	<path class="st126" d="M163.6,245.1c-1.4,0.7-0.4,1.6-0.3,2.5c0.3,2,3,4.7,0.5,5.6c-2.4,0.9-6.8,3.1-8.1-2.3c1.8-3.5-1.8-6-1.8-9.1
		c1.9-1.7,1.7,3.4,3.2,1.2c1.1-1.6-1.9-2.2-2.2-4.5c3.8,0.8,5.4,4.7,8.8,5.4C164,244.3,163.9,244.7,163.6,245.1z"/>
	<path class="st127" d="M163.6,245.1c0-0.4,0.1-0.9,0.1-1.3c0.2-1.4-0.4-3,1.2-4c1.6,0.5,0.3,2.4,1.5,3.2c0.1-0.2,0.3-0.4,0.3-0.6
		c-0.1-2.3-0.1-4.6-0.3-6.9c-0.1-1.8-0.2-3.5,2.4-3.6c2.9,4.3,4.1,9,4,14.1c0,3.7,0.6,7.4-0.3,11.4c-1.3-1.7-0.7-3.6-1.1-5.3
		c-0.2-1.5-1.6-2.4-1.8-3.8c-1.7,0.3-0.7,3.1-2.9,2.6C165.7,249,164.6,247,163.6,245.1z"/>
	<path class="st128" d="M180.8,100.9c-2.3,1-3.4,2.2-0.8,4.1c0.5,0.4,1.3,0.9,1.3,1.4c0,1.4,3,2,0.8,4c-2.1,2-2.5-0.5-3.4-1.2
		c-2.1-1.5-4.1-3.2-4.2-6.1c-0.2-3.8-2.9-6.4-6.2-6.3c-2,0.1-3.9,0-6.8,0C169.7,93.8,176.2,93.3,180.8,100.9z"/>
	<path class="st129" d="M145.8,150.9c0.4,3.4-3,1.7-4.2,3.1c-3.5-0.1-3.4-3.8-5.4-5.4c-0.5-0.5-0.9-1-0.4-1.7
		c1.4-0.3,2.3-1.1,1.2-2.4c-2.2-2.6-1.4-5-0.2-7.6C141.9,138.3,145.8,144.5,145.8,150.9z"/>
	<path class="st130" d="M206.6,135c0.7,5.2,1.5,10.5,2.1,15.7c0.1,1.1,1.9,3.2-1.1,3.1c-1.8-0.1-4.2,0.5-3.7-2.9
		c0.7-5.5,0.9-10.9-2.3-15.9C203.2,130.1,204.9,133.6,206.6,135z"/>
	<path class="st131" d="M155.8,121c-0.1,3,2.9,4.1,4,6.4c0.5,1,2.6,1.6,1.1,2.9c-1.1,0.9-2.9,1.5-4-0.4c-0.3-0.6-0.7-1.1-1.7-2.5
		c0.2,2.1,0.3,3,0.4,3.9c-2.6-3.2-5.7-5.5-9-7.6c-1.8-2.7,0.7-3.7,2.1-5.1C150.8,119.6,152.5,122.6,155.8,121z"/>
	<path class="st132" d="M180.3,150.7c0.3,0.9,1.1,2.1,0.8,2.8c-0.7,1.4,0.5,4.7-3.3,3.4c-1.1-0.4-3-0.3-4,1.1
		c-0.8-0.6-0.9-1.3-0.1-2c3.2-2.6,4.5-5.4,2.3-9.4c-1-1.7-1.6-3.6-1.2-5.7c3.7-0.9,4.3,3.5,7.1,4.1
		C184.3,147.4,184,148.4,180.3,150.7z"/>
	<path class="st133" d="M169.5,172.2c-1.5,4.2,0.1,9.3-3.7,12.8c-1.1-6.9-3.3-13.8,1.2-20.8c1.5,0.8-0.1,6,4.2,3.8
		c0.2-0.1,0.6,1.4,0.4,2.2c-0.2-0.1-0.5-0.2-0.8-0.2C169.9,170.5,170.6,171.8,169.5,172.2z"/>
	<path class="st134" d="M136.9,84c-1.8,3-3.4,5.9-2.2,9.6c0.2,0.6,0.5,1.8-0.8,1.8c-0.8,0-1.6-0.3-2-1.2c-1.6-3.4,1.9-19,4.8-21.3
		c2.3-1.1,3,0.4,2.3,2C137.7,77.9,138.2,81.1,136.9,84z"/>
	<path class="st135" d="M145.8,150.9c-2.7-4.8-3.2-11.1-9-14c2-4.1,4-0.4,6.1-0.1c-0.9,0.4-0.7,1.1-0.1,1.5c5.4,3.5,6,10.1,9.2,15.3
		c-1.2-1.2-2.5-2.3-3.6-3.5C146.8,148.5,146.5,150.5,145.8,150.9z"/>
	<path class="st136" d="M155.7,208c-1.8,2.3,0.7,3.8,1.2,5.6c0.5,2,2.1,3.7,1.8,6.6c-3.5-4.3-4-9.4-6.6-14.2
		c-0.4,4.6,2.8,7.7,2.7,12.2c-2.7-3.1-2.9-6.7-4.7-9.6c-0.3,3.5,2.2,6.4,1.3,10.3c-2.4-5-3.6-9.9-4.5-14.9
		C150,204.8,154,203.8,155.7,208z"/>
	<path class="st137" d="M180.3,150.7c0.7-1.9,4.2-3,1.6-5.7c-1.7-4.3-3.4-8.7-5.1-13c2.2,5.1,6.9,7.7,10.5,11.3
		c0.8,0,0.8,0.3,0.4,0.9c-1.6,0.1-2.6,1.5-2.1,2.5c1.9,3.7-4.2,2.8-3.1,5.8C181.7,151.9,181,151.3,180.3,150.7z"/>
	<path class="st138" d="M136.6,211c-0.5-1.6-1.1-3.3-1.6-4.9c0.6-1.7,1.2-3.5,1.8-5.2c1.4-1.9,2.2-4.2,3.1-6.5
		c1.2,5.6-0.6,11.2,0.7,16.7c-1.1,0.7-0.3,2-0.9,2.9c-3.1-0.7-1.5-2.9-1.7-4.4C137.6,209.8,137.4,210.8,136.6,211z"/>
	<path class="st139" d="M194.7,130.9c0.2,0.8,0.1,1.8,0.6,2.4c2,2.2,3.7,3.5-0.8,5.4c-2.7,1.1-2.3,2.2-4.9-0.7
		c1.5,0.2,3.2,0.4,4-1.2c0.8-1.6-1-2.3-1.8-3.1c-2.6-2.3-4.1-5.3-5.9-8.3C188.7,127.5,192.5,127.8,194.7,130.9z"/>
	<path class="st140" d="M132.6,227c-1.3-4,0.7-8.1-0.6-12.1c0,0,0.2-0.2,0.3-0.2c0.1,0,0.3,0.2,0.4,0.3c0.4,1.4,0.6,2.9,1.2,4.2
		c1.2,3.1,0.7,7.3,4.9,8.7c-1.8,1.2-0.5,2.6-0.2,3.8c0.4,1.6-0.7,1.4-1.5,2c-1.7,1.2-1.3-0.5-1.7-1C134.1,231,134.6,228.4,132.6,227
		z"/>
	<path class="st141" d="M172.8,246c-1.5-4.7-3.4-9.2-4-14.1c0.2-1.8-0.6-3.6,1.3-6.8c0.3,6.8,5.4,10.9,4.3,17
		C173.9,243.4,173.4,244.7,172.8,246z"/>
	<path class="st142" d="M162.8,114.8c-0.8,2.9-3.2,1.4-4.9,1.8c-2.7,0.7-5,0-7-1.9c-0.6-0.5-1.1-1-1.7-1.5c3.7,0.2,6-6.1,10.5-2.3
		C161.9,111.4,162.1,113.3,162.8,114.8z"/>
	<path class="st143" d="M195,202.2c-0.5,3.4-1,6.8-1.5,10.5c-2-2.5,0.1-5.3-1.5-7.4c-0.2-5.4,1.6-10.5,3.1-15.6
		c0.2-0.6,0.6-1.5,1.3-0.8c0.4,0.4,0.2,1.5,0.3,2.3C195.6,194.8,197,198.7,195,202.2z"/>
	<path class="st144" d="M149.9,137.1c2.3,3.9,6.6,6.3,8.1,11c-4.7-2.2-8.6-5.5-12.3-9.1C147.7,139.6,148,136.5,149.9,137.1z"/>
	<path class="st145" d="M128.6,93.9c-1.8-3.4-0.7-7.7-3-10.9c-1.8-4.1-0.5-8.6-1.5-13c1,2.9,3.6,4.9,3.5,8.2
		C128.1,83.4,131,88.5,128.6,93.9z"/>
	<path class="st146" d="M186.8,215c-2.3,4.4-4.6,8.7-5.4,14.2c-1.2-2.7-0.5-5-0.6-7.2c3.4-1.1,2.2-3.1,0.8-4.8
		c-2.1-2.4-2.9-5.3-4.2-9.2C181.2,210.6,180.6,217.4,186.8,215z"/>
	<path class="st147" d="M187.6,144.1c-0.1-0.3-0.3-0.6-0.4-0.9c-0.6-2.8-2.6-4.9-3.7-7.4c-1.4-3.2,1.3,0.1,1.3-0.8
		c4,3.1,6.3,7.4,8.1,12.1C191.7,145,188.2,147.4,187.6,144.1z"/>
	<path class="st148" d="M127.5,120.1c-2,3,1,6-0.1,8.9c-2.8-1-0.4-5.1-3.5-6c-1.1-3.6,0.7-6.8,1.3-10.8
		C126.8,115.1,127.3,117.6,127.5,120.1z"/>
	<path class="st149" d="M135.8,146.9c0.3,0.3,0.5,0.7,0.8,1c1.5,3,4.4,5.3,4,9.1c-1.5,1,0.7,2-0.3,3.3c-3.3-1.9-4.1-5.4-5.4-8.5
		c2-2.1-0.6-3.5-0.7-5.3c0-0.8,0.1-1.3,0.9-0.7C135.4,146,135.5,146.5,135.8,146.9z"/>
	<path class="st150" d="M153.6,248.1c-0.9,2.8,1.4,5.3,0.5,9.1c-0.4-5-6.5-4.6-6.4-9.2c1.5,0.2,2.2-1.4,3.6-1.8
		C153.8,245.3,153.3,246.8,153.6,248.1z"/>
	<path class="st151" d="M195,202.2c0.2-3.7,0.5-7.4,1.5-11c0.4,3.2-0.3,6.5,1.1,9.6c0,5.1-0.8,10.1-2.4,16.1
		C194,211.3,196.9,206.7,195,202.2z"/>
	<path class="st152" d="M134.6,193.1c0-0.7,0.1-1.3,0.1-2c-0.5-2.7-1.2-5.3-0.2-8c2.8,0,2.8,0,3.1,2.3c0.4,4.1-0.5,8.1-1,12.2
		c-0.3,0.2-0.6,0.2-0.9,0.2C135.3,196.2,134.9,194.6,134.6,193.1z"/>
	<path class="st153" d="M136.9,84c-0.3-3.4-1.1-6.7,1.3-10c1.2-1.6-0.9-0.8-1.5-1.1c1.4-1.6,3.3-1.1,5.1-1c0.6,1,0.2,2,0,3
		C138.3,77,140.3,81.9,136.9,84z"/>
	<path class="st154" d="M148.6,118.5c-0.7,1.7-1.4,3.4-2.1,5.1c0.1,0.9,0.1,1.8,0.2,3.4c-1.4-1.9-2.4-3.3-3.4-4.6
		c0,0-0.3,0.1-0.4,0.1c-0.1,0.1-0.1,0.3-0.2,0.4C143.1,117.7,143.4,117.4,148.6,118.5z"/>
	<path class="st155" d="M208.5,172.9c-0.5,3.2-1.3,6.1-5,7c2.5-3.5-0.3-7.1,0.3-10.9c1.8,1.4,1.6,3.5,2.2,5.4
		c0.5-1.1,0.9-1.9,1.3-2.7C208.2,171.8,208.3,172.5,208.5,172.9z"/>
	<path class="st156" d="M204.7,131.4c-3.4-3.2-6.7-5.7-10.9-7.7C199,123,203,125.9,204.7,131.4z"/>
	<path class="st157" d="M142,128.9c0.4,6.2,6.1,2.8,8.8,4.9c-4.1-0.2-8.2-0.4-12.6-0.6c0-2,0.5-3.3,1.6-4.7c1.5,0.5,0.6,2.1,1.6,2.8
		C142.4,130.8,141.6,129.6,142,128.9z"/>
	<path class="st158" d="M145.7,86.9c0.8,3,0.2,5.1-3.5,5.7c-1.2-2.7-0.2-5,1.7-6.9C144.8,84.9,145,86.8,145.7,86.9L145.7,86.9z"/>
	<path class="st159" d="M128.6,93.9c0.8-5.3-1.4-10.5-1-15.8c2.1,5.1,3.6,10.2,2,15.8C129.3,93.9,128.9,93.9,128.6,93.9z"/>
	<path class="st160" d="M194.9,249.1c-0.3-0.3-0.6-0.7-0.9-1c1-4.2,2-8.4,3-12.7c0.3,0.1,0.7,0.1,1,0.2
		C197.9,240.3,197,244.8,194.9,249.1z"/>
	<path class="st161" d="M184.6,252.8c0.6,3.8-3.5,3.9-4.8,6.2c1.7-4.7,5.2-8.9,2.9-14.5C184.8,247.1,182.4,250.4,184.6,252.8z"/>
	<path class="st162" d="M208.5,172.9c-0.4-0.4-0.7-0.9-1.1-1.3c1-2.1-2.8-4.9,0.9-6.7c0.6,1.1,1.1,2.3,1.7,3.4
		C211.2,170.4,210.9,172,208.5,172.9z"/>
	<path class="st163" d="M153.7,101.9c-1.1,1.9-2.5,3.3-5,2c3.8-3.1,0-5-1.6-7.9C150.9,96.9,151.3,100.6,153.7,101.9z"/>
	<path class="st164" d="M141.8,75c-0.9-1-0.6-2,0-3c1.7,0,3.5,0,5.9,0C146,74.8,144.9,77,141.8,75z"/>
	<path class="st165" d="M193.7,248.8c-4,4.7-2.3-2-4-2c2-2-0.2-5.3,2.4-7.4c1.2,2.2,0,4-0.2,6C191.8,246.8,190.6,249.1,193.7,248.8z
		"/>
	<path class="st166" d="M145.9,201c-1.8-2.8-2.3-6-3-9.2c0.5-0.3,1-0.6,1.5-0.8C144.9,194.3,147.9,197.3,145.9,201z"/>
	<path class="st167" d="M162.8,114.8c-1-1.3-2.1-2.6-3.1-3.9c0.4-0.3,0.8-0.6,1.3-0.9c0.6,1.4,2.1,1.1,3.1,1.9
		c1.2,1,3.5,1.7,2.5,3.5C165.7,117,164.1,114.9,162.8,114.8z"/>
	<path class="st0" d="M114.7,50c0.8-0.3,1.8-0.4,1.7-1.7c1.6-0.4,2.3,0.3,2.5,1.8c0.2,1.2,1.8,3,0.3,3.4
		C116.6,54.4,115.9,51.6,114.7,50z"/>
	<path class="st17" d="M173.7,226c-4.4-2.3-2-5.1-0.1-7.9C173.6,220.7,173.6,223.4,173.7,226C173.6,226.1,173.7,226,173.7,226z"/>
	<path class="st168" d="M134.6,260c-0.3,0.3-0.6,0.6-0.9,0.9c-1.6-2.8-3.3-5.5-4.9-8.3c0.3-0.2,0.6-0.4,1-0.7
		C132,254.2,133.3,257.1,134.6,260z"/>
	<path class="st169" d="M135.6,118c-0.4,0-0.8-0.1-1.2-0.1c-1.4-1.8-2.9-3.6-4.3-5.4c-0.9-1.1-0.1-2,0.8-2.3
		c1.3-0.5,1.7,0.3,1.5,1.6C132,114.6,135.1,115.7,135.6,118z"/>
	<path class="st170" d="M165.6,107.4c-4.5,0.2-4.2-3.3-5.1-5.6C162.1,103.5,163.7,105.3,165.6,107.4z"/>
	<path class="st155" d="M201.8,182.7c-1.3,0.6-2.5,1.4-3.2-0.7c3.1-1.9-0.2-4.5,0.8-7.1C201.2,177.5,201.4,180.2,201.8,182.7z"/>
	<path class="st171" d="M186.6,171.1c0,0.9,0.5,2.3,0,2.6c-1,0.8-1.6-0.5-2.2-1.1c-0.9-0.9-1.8-1.8-2.7-2.7c0.2-1-1.2-3.6,1.7-1.9
		C184.7,168.7,185.6,170.1,186.6,171.1z"/>
	<path class="st172" d="M177.6,168c-1.7,0.4,0,2.1-1.5,2.9c-1.5-2.1-2.6-4.5-3.2-7.1C175.8,163.8,176.6,166,177.6,168z"/>
	<path class="st17" d="M134,190.9c-2.6-1.6-1.3-4.9-3.1-6.9c0.1-1-0.6-2.9,0.4-2.9c2.2,0.1,1.5,2.3,1.7,3.8
		C134.2,186.8,135.4,188.6,134,190.9z"/>
	<path class="st158" d="M145.8,87c0.2-2.8-2.4-5-1.1-8C146.3,81.5,148.7,83.8,145.8,87C145.7,86.9,145.8,87,145.8,87z"/>
	<path class="st142" d="M155.7,117.9c-0.6,0.3-1.6-0.2-1.8,0.8c-2.2-0.9-4.4-1.7-6.8-2.6c0.9-1.6,1.9-0.3,2.7-0.5
		C152.2,115.4,154.5,115.2,155.7,117.9z"/>
	<path class="st173" d="M155.7,117.9c-1.7-1.5-3.9-1.7-5.9-2.2c0.4-0.3,0.7-0.6,1.1-0.9c2.5-0.1,4.6,1.4,7,1.9
		c0.8,0.4,1.4,1.1,0.7,1.8C157.5,119.8,156.7,118.2,155.7,117.9z"/>
	<path class="st174" d="M132.6,119c-1.4,0-0.5,3.4-2.9,1.9c-1.9-1.4-0.9-3.3,0.2-4C131.7,115.8,131.8,118.2,132.6,119z"/>
	<path class="st175" d="M209.7,214.9c0,2.2,0,4.4-2.8,5.2C207.5,218.2,205,214.6,209.7,214.9z"/>
	<path class="st176" d="M134,190.9c-0.3-2-0.7-3.9-1-5.9c0.5-0.6,1-1.3,1.5-1.9c-0.2,2.7,2.6,5.3,0.2,8c0,0-0.3-0.3-0.3-0.3
		L134,190.9z"/>
	<path class="st145" d="M121.8,81c-0.7-2.2,0.5-4.6-0.9-6.7c0.4-1.1,1.2-1.3,1.4-0.2c0.6,3.3,0.9,6.6,1.4,9.9
		C121.2,84.3,122.9,81.7,121.8,81z"/>
	<path class="st177" d="M121.8,81c1.4,0.5,0.3,2.6,1.9,3c0,1.1,0,2.1-0.1,3.2c-1.8,0.7-0.4,2.4-1.1,3.4
		C120.8,87.6,122.1,84.2,121.8,81z"/>
	<path class="st178" d="M211.7,201c-2.2,3.5,0.1,7.6-1.8,11.1c0.1-3.9-0.6-7.9,0.7-11.7c0-0.1,0.3-0.1,0.5,0
		C211.3,200.5,211.5,200.7,211.7,201z"/>
	<path class="st138" d="M143.6,204.8c2.3,2.5-1.9,3.9-1,6.2c-1-1.6-0.7-3.5-0.9-5.3C141.5,203.9,142.7,204.6,143.6,204.8z"/>
	<path class="st179" d="M144.6,271.8c0.1-4,0.1-7.9,0.2-11.9C146.1,263.8,146.2,267.8,144.6,271.8z"/>
	<path class="st180" d="M170.7,106c-0.3,0.3-0.7,0.6-1,1c-1.7-1.5-3.3-3.1-5-4.6C167.5,102.6,169.4,103.9,170.7,106z"/>
	<path class="st163" d="M148.7,104c-1.1,0.3-2.5,0-3.3,1.2c-0.9-1.3-1.5-2.7-1.2-4.6C144.7,103.3,148.1,101.5,148.7,104z"/>
	<path class="st181" d="M3.9,119.1c0-5.4,0-10.8,0-16.2C5.2,108.3,5.4,113.7,3.9,119.1z"/>
	<path class="st182" d="M76.6,191.8c0.6-3.3-0.6-6.7,1-9.9C77.3,185.1,78.7,188.6,76.6,191.8z"/>
	<path class="st183" d="M136.7,56c1.3,1.9,1.9,4.1,2.5,6.4c-3.9-0.1-4.8-2.9-5.4-5.6c-0.8-3.2-3.8-6-2.1-9.8
		c0.3,0.2,0.6,0.5,0.9,0.7C134,50.5,134.5,53.7,136.7,56z"/>
	<path class="st184" d="M133.6,161.1c-0.4-2.4-4.5-4-1.8-7.2c1.7,1.8,3.4,3.5,4.9,5.4c0.5,0.6,2.2,1.6,0.3,2.4
		C136,162.1,134.4,163.2,133.6,161.1z"/>
	<path class="st185" d="M140.6,157c-1.3-3-2.7-6.1-4-9.1c2.9,1,2.5,4.7,5,6.1c0.2,1.3,2.1,2.4,0.8,3.9
		C141.9,158.4,140.9,157.9,140.6,157z"/>
	<path class="st186" d="M40.6,90c0.3,0,0.6-0.1,1-0.1c-1.3,5.4-2.1,11-4.5,16.1C37.6,100.5,38.9,95.2,40.6,90z"/>
	<path class="st187" d="M21.5,95.1c0.7-2.4-0.4-5,1.1-7.2c1.7,3.9-0.3,8.1,1.1,12c0.2,1.2,0.4,2.5-0.5,3.7
		C21.3,100.9,21.8,97.9,21.5,95.1z"/>
	<path class="st188" d="M23.7,99.9c-2.6-3.8-0.1-8.1-1.1-12c0.4-1.1-0.5-2.6,1.3-3.8c0,5.2,0,10.1,0,14.9
		C23.8,99.3,23.7,99.6,23.7,99.9z"/>
	<path class="st189" d="M98.7,197.9c-1.4-4.5-4.2-8.5-4.7-14.2c1.5,2.5,2.6,4.4,3.7,6.2c1.2,3.7,3.7,6.9,4.2,11.1
		C99.9,200.7,100,198.6,98.7,197.9z"/>
	<path class="st17" d="M120.3,196.7c0.4,2.8,0.6,4.5,0.8,6.2C118.9,201.6,118,200,120.3,196.7z"/>
	<path class="st41" d="M116,199.8c-0.5-2.6-1-5.3-1.5-7.9C116.2,194.3,117.1,196.9,116,199.8z"/>
	<path class="st190" d="M123.9,229.6c2.2,3.2,3.7,6.7,4,11.5c-3.2-3.3-4.1-6.8-5.5-10C122.7,230.3,123.1,229.8,123.9,229.6z"/>
	<path class="st191" d="M118.7,235.2c0.4-1.4-0.4-3.2,1.2-4.3c2.4,1.9,2.8,4.6,3.3,7.4C121.8,237,120.6,235.6,118.7,235.2z"/>
	<path class="st76" d="M123.9,229.6c-0.5,0.5-1,1-1.5,1.4c-1.9-1.5-1.3-4.2-2.8-5.9c2.6-0.9,2.8,2,4.2,2.9
		C123.8,228.5,123.8,229,123.9,229.6z"/>
	<path class="st77" d="M107.7,58.9c4.3,0.2,3.1,3.8,4.8,7.2C108.8,64.1,109.3,60.8,107.7,58.9C107.7,58.9,107.7,58.9,107.7,58.9z"/>
	<path class="st192" d="M128.9,222.1c1.3,2,0.6,3.9,0.8,6.1C127.8,225.4,127.8,225.4,128.9,222.1z"/>
	<path class="st193" d="M99.8,175.9c0,2.4,0,4.7,0,7.1c-1.5,0.1-0.8-1.6-1.8-2.1c-0.1,1.1-0.2,2.1-0.3,3.1c-0.3,0.2-0.4,0.2-0.6,0.3
		c-0.2-3.2-2.1-6.2-1.1-9.6C97.7,173.4,97.8,177.6,99.8,175.9z"/>
	<path class="st0" d="M55.8,175c-4.2-2.2-0.9-5.9-1.3-8.8C54.9,169.1,55.3,172,55.8,175C55.8,174.9,55.8,175,55.8,175z"/>
	<path class="st194" d="M129.3,49.9c1.6,3.3,3.5,6.5,2.1,10.6c-2.5-3.2-2-7.1-3.4-10.5C128.5,49.9,128.9,49.9,129.3,49.9z"/>
	<path class="st1" d="M169.5,172.2c0.2-0.9,0.3-1.8,1.3-2.2c-0.1,3.2,1.5,6.4,0.7,10.2C170,177.3,169.6,174.8,169.5,172.2z"/>
	<path class="st195" d="M136.6,211c0.3-1.1,0.3-2.2,1.5-3.1c1.2,1.8,0.1,4.3,1.6,6c0.4,1.7,0.4,3.5-0.4,5.8
		C138.2,216.5,137.4,213.8,136.6,211z"/>
	<path class="st196" d="M188.4,228.4c-1.4-3.8-0.7-6.5-0.2-9.2C188.9,221.8,189,224.4,188.4,228.4z"/>
	<path class="st197" d="M166.7,250.9c0.2-0.2,0.5-0.4,0.7-0.7c0.9-1.1-1.2-3.8,1.9-3.6c2.2,0.1,0.9,2.5,1.9,3.5
		c0.4,0.4,0.2,1.3,0.2,1.9c-1-0.3-1.7-3.6-3.2-0.1C167.6,253.4,167,251.7,166.7,250.9z"/>
</g>
</svg>
