<?xml version="1.0" encoding="utf-8"?>
<!-- Generator: Adobe Illustrator 27.1.0, SVG Export Plug-In . SVG Version: 6.00 Build 0)  -->
<svg version="1.1" id="Capa_1" xmlns="http://www.w3.org/2000/svg" xmlns:xlink="http://www.w3.org/1999/xlink" x="0px" y="0px"
	 viewBox="0 0 144.8 54.5" style="enable-background:new 0 0 144.8 54.5;" xml:space="preserve">
<style type="text/css">
	.st0{fill:#F1F3F5;}
	.st1{fill:#F1F2F4;}
	.st2{fill:#B4B7BC;}
	.st3{fill:#EEEFF1;}
	.st4{fill:#E6E8E9;}
	.st5{fill:#F0F2F2;}
	.st6{fill:#A5A7AA;}
	.st7{fill:#D4D6D9;}
	.st8{fill:#A8AAAD;}
	.st9{fill:#4C4E51;}
	.st10{fill:#919395;}
	.st11{fill:#2A2B2F;}
	.st12{fill:#9B9EA2;}
	.st13{fill:#2E3032;}
	.st14{fill:#909294;}
	.st15{fill:#C0C2C6;}
	.st16{fill:#BABDBD;}
	.st17{fill:#A6A7AC;}
	.st18{fill:#DADCDF;}
	.st19{fill:#CACECF;}
	.st20{fill:#4D4E52;}
	.st21{fill:#B0B2B4;}
	.st22{fill:#9E9FA5;}
	.st23{fill:#7E8082;}
	.st24{fill:#282B33;}
	.st25{fill:#D0D2D4;}
	.st26{fill:#36383B;}
	.st27{fill:#707275;}
	.st28{fill:#25262A;}
	.st29{fill:#27292A;}
	.st30{fill:#3C3E42;}
	.st31{fill:#292B2E;}
	.st32{fill:#707274;}
	.st33{fill:#313336;}
	.st34{fill:#27292C;}
	.st35{fill:#75777B;}
	.st36{fill:#F4F6F8;}
	.st37{fill:#94969A;}
	.st38{fill:#383A3C;}
	.st39{fill:#3F4143;}
	.st40{fill:#808284;}
	.st41{fill:#8B8D8F;}
	.st42{fill:#ADAFB0;}
	.st43{fill:#6B6C70;}
	.st44{fill:#A0A2A3;}
	.st45{fill:#8A8C8D;}
	.st46{fill:#8B8D8E;}
	.st47{fill:#4A4F50;}
	.st48{fill:#B9BBBF;}
	.st49{fill:#414347;}
	.st50{fill:#5A5C60;}
	.st51{fill:#8C8E92;}
	.st52{fill:#BABBBF;}
	.st53{fill:#EBEDF1;}
	.st54{fill:#D6D8D9;}
	.st55{fill:#B2B4B6;}
	.st56{fill:#3B3D3F;}
	.st57{fill:#868889;}
	.st58{fill:#B5B7B9;}
	.st59{fill:#292B2D;}
	.st60{fill:#2D2F32;}
	.st61{fill:#494B4D;}
	.st62{fill:#383A3B;}
	.st63{fill:#767879;}
	.st64{fill:#EDEFF0;}
</style>
<g>
	<path class="st0" d="M66.3,6.6c1.9,0.6,3.8-0.2,5.9,0c2.5,0.3,4.2,0.9,5,2.4c-1.4,0.5-2-0.3-2.9-0.7c-0.7-0.3-1.5-0.6-1.9,0.5
		C74.3,8,75.3,8.7,76,9.6c0.7,0.8,1.4,1.7,1.8,2.6c0,0.5-0.2,0.8-0.9,1c-2.7-1.1-5.5-1.7-8.9-1.1c0.2,0.8,0.6,1.7,1.3,2.4
		c0.3-0.1,0.3,1.1,0.7,0.2c0.4-1,0-2.1,1.8-2.7c1.7,0.1,3.2,0.4,4.3,1.2c2.4,0.6,4.4,1.3,3,3.4c-0.2,0.2-0.5,0.3-0.8,0.3
		c-3.6-1.4-5.4-0.6-6.1,1.9c-0.1,0.4-0.6,0.8-0.9,1.2c-1.1,0.6-0.6,1.8-2,2.4c-1.8,0.1-3.7-0.2-5.5-0.2C63,22,62.3,21.6,61,21.6
		c0.7,2.4,1.9,4.6,5.8,5.6c3.1,0.7,3.6,1.9,1.2,3.4c-0.9,0.6-1.3,1.9-3.3,1c-0.3,0-0.6-0.1-0.9-0.2c-1.7-0.1-3.3-0.6-4.9-0.9
		c-1.4-0.7-3.1-1.2-3.9-2.3c0.3-1.5,2.9-0.4,3.6-1.4c0,0,0-0.2-0.1-0.2c-0.2-0.1-0.4-0.1-0.7,0c-1.7,0.3-3.3,0.7-5.1,0.6
		c-2.4-1.6-2.5-2.6-0.5-4.1c1.7-0.3,2.2,0.8,3.4,1.1c1.5,0,1.9-0.6,1.8-1.4c-0.7-0.4-1.8-0.6-2.2-1.3c-0.1-0.3-0.2-0.6,0-0.9
		c0.4-0.8,2-1.2,1.7-2.3c-0.2-0.8-1.3-1.3-1.3-2.1c0-0.2,0.1-0.3,0.2-0.5c0-0.2-0.2-0.5-0.4-0.7c-0.1-0.3-0.1-0.6,0.1-0.8
		c0.8-1,2.7-1.3,3.8-2.1c-1.2-0.8-3.2-0.7-4.5-1.4c-0.8-0.4-1.3-1-1.5-1.6c0-0.2,0-0.4,0.1-0.6c0.2-0.2,0.4-0.3,0.7-0.5
		c2.7-0.7,5.6-2,7.5,0.8c-0.7,0.5-1.2,1,0.1,1.5c0-0.3-0.5-0.4-0.5-0.6C62,8.5,63.7,9.1,64.9,9c-0.9,0-1.7,0.1-2.4-0.1
		c-0.6-0.2-1.2-0.6-1-1c0.1-0.4,0.8-0.6,1.4-0.4c2.1,0.5-0.4-1.1,0.9-0.8C64.6,6.5,65.5,6.4,66.3,6.6z"/>
	<path class="st1" d="M46.9,11.2c0.2-0.5,1-0.4,1.5-0.6c0.4,0.2,0.5,0.5,0.5,0.8c0,0.3-0.3,0.5-0.4,0.8c0.3-0.3,0.7-0.6,1.2-0.7
		c0.5,0,0.9,0.1,1.2,0.4c0.3,0.5,0,1-0.2,1.5c-0.3,1.1,1.1,0.5,1.6,0.7c0.5,0.1,0.9,0.3,1.2,0.6c1.1,2.2,0.8,4.5,1.6,6.7
		c-0.5,0.8-1.5,1-2.8,0.9c-0.5-0.1-0.9-0.3-1.2-0.5c-0.4-0.3-0.2-0.9-0.7-1.2c-0.2-0.1-0.5-0.2-0.7-0.2c-0.7-0.3-1.6-0.5-1.7-1.1
		c0.1-0.7,0.5-1.3,1.1-1.9c0.8-1.1-0.9-1.1-1.5-1.3c-1.3-0.4-1,0.6-1.4,0.9c-0.3,0.3-0.6,0.5-1.2,0.4c-0.2-1.6-0.5-3.1-0.7-4.7
		C46.4,13.1,45.6,11.4,46.9,11.2z"/>
	<path class="st2" d="M83.1,41.6c0.3-3.2-0.4-6.2-2.6-9.1c1.3-1.2-1.9-1.9-0.8-3.1c0.3-0.3,0.6-0.5,1.2-0.4c1.3,2.7,4.1,5.1,4.6,8
		c0.4,2,0.6,4-0.3,6C84,42.9,84.1,41.9,83.1,41.6z"/>
	<path class="st3" d="M80.2,31.8c-0.9-0.7-2-0.9-3.4-0.5c-1.1,0.3-2.3,0.4-3.5,0.6c-1.8-0.1-0.7-0.7-0.4-1.1
		c0.1-0.2,0.9-0.2,0.2-0.5c-0.2-0.1-0.6,0.1-1,0.1c-3.5-0.7-3.8-1.4-1.4-3.6c0.3-0.3,0.6-0.5,1-0.7c0.5-0.3,0.9-0.6,1.6-0.7
		c0.5,0,0.9,0.2,1.3,0.5c1.5,1.6,4,2.8,5.2,4.6C80.2,30.9,80.9,31.3,80.2,31.8z"/>
	<path class="st4" d="M56.6,32.6c-3.7,0.5-5.5-1.2-7.2-2.8c-0.7-0.7-1.3-1.4-1.9-2c0.3-0.1,0.6-0.2,0.9-0.2c1.6,0.2,2.5,1.6,4.5,1
		c0.2-0.3,0.5-0.5,0.9-0.6c0.3,0,0.6,0,0.9,0.1c1.3,0.9,2.9,1.6,4.5,2.3c1.7,0.4,3.4,0.7,5.1,1l0,0c0.3,0.1,0.3,0.2,0.2,0.3
		c-0.1,0.1-0.2,0.1-0.3,0.1c-2,0.4-4.2-0.3-6.2,0.5c-0.2,0.1-0.4,0.1-0.6,0.1c-0.5-0.1-0.7-0.5-1.3-0.4
		C56.6,32.1,56.8,32.3,56.6,32.6z"/>
	<path class="st5" d="M85.7,18.8c2,2.1,2.2,4.3,0.1,6.3c-0.9,0.8-0.2,1.9-1.5,2.6c-2.1-0.1-3.8,0.7-5.6,1.1
		c-1.6-0.8-3.2-1.6-3.7-2.9c0.4-0.8,1.5-0.8,2.6-0.8c1.4,0.1,2.7,0.2,4.1,0c3.4-0.5,4.3-1.8,3.1-4.7c-0.2-0.4-0.3-0.9-0.1-1.3
		C84.8,18.9,85.1,18.6,85.7,18.8z"/>
	<path class="st0" d="M85.1,17.1c-0.1,0.4-0.1,0.8-0.2,1.3c-0.6,0.3-1.5,0.2-1.9,0.7c-1,0.8-1.7,2-3.9,1.5c-0.4-0.3-0.6-0.6-0.7-0.9
		c-0.2-1-0.9-2,0.1-3l0.1-0.1c1.1-0.3,1.1-1,1.3-1.7c0.3-0.5,0.6-0.9,1.2-1.3c1.5-0.7,2.3-0.1,2.8,0.8C84.5,15.3,85,16.1,85.1,17.1z
		"/>
	<path class="st6" d="M63.6,6.8c1,0.7,3.1-0.2,3.8,1.2c-1.8,0-3.5,0.3-5.3-0.1c1.3,1.1,3.6,0.2,5,1c-1.9,0.5-3.8,0.5-5.7,0
		c-1.7-0.7-3.3-1.9-5.3-0.2c-0.2,0.2-1.5-0.1-2.2-0.2c-0.8-0.3-1.1-0.7-0.7-1.2c2.6,0,5-1,7.6-0.6C61.7,7.2,62.7,6.2,63.6,6.8z"/>
	<path class="st7" d="M83.1,41.6c1.7-0.7,1.7-0.7,2,1.5c0,1.4-0.3,2.8-1.4,4.1c-0.6,0.6-1.5,1-2.6,0.7c-1.4-0.5-0.2-1,0.1-1.5
		C82.4,44.9,82.7,43.3,83.1,41.6z"/>
	<path class="st8" d="M53.9,28.2c-0.2,0.2-0.5,0.3-0.7,0.5c-0.9,0.5-1.6,0.2-2.3-0.3c-0.3-0.3-0.3-0.7,0-1c-0.9-1.5-3.4-2.1-4.6-3.3
		c-0.7-0.7-2.1-1.1-2.1-2.1c1.4-0.4,2.1,0.3,2.9,0.8c0.8,0.4,1.4,1.1,2.6,0.5c0.3-0.1,0.5-0.2,0.8-0.3c0.4-0.1,0.9-0.1,1.4-0.1
		c0.3,0.1,0.6,0.2,0.8,0.3c-0.3,0.8-2.3,1.6,0.1,2.5c1,0.4-0.8,0.8-0.1,1.3c0.5,0.2,1.2,0.3,1.5,0.7C54.2,27.8,54.1,28,53.9,28.2z"
		/>
	<path class="st9" d="M77.4,12c-2.2-0.6-1.5-2.7-4.1-3.4c0,0.8,0,1.4,0,2.4c-1.8-1.2-1.2-2.8-3.4-3.6c3.7-0.7,5,1.3,7.4,1.7
		c-0.1,0.8,1.3,1.4,0.9,2.3C78.5,11.9,77.9,11.9,77.4,12z"/>
	<path class="st10" d="M72.6,30c0.4-0.3,0.9-0.7,1.3-1c0.6-0.5,1.3-0.3,1.8,0.1c0.7,0.4,0,0.7-0.3,1.1c-0.5,0.7-2.5,0.6-2.1,1.7
		c-1.3,0.8-3,1.1-4.7,1.4c-0.3-0.1-0.5-0.2-0.6-0.4c0.2-0.6-0.1-1.2,0.1-1.8C69.1,29.7,71.2,30.4,72.6,30z"/>
	<path class="st11" d="M50.2,23.4c-0.4,1.2-0.9,1.8-2.6,0.5c-1-0.8-1.8-1.7-3.4-2c-0.2-0.2-0.5-0.4-0.7-0.6c1.7-1.9,4.4-1.5,7-1.3
		c0.2,0.1,0.4,0.1,0.6,0.1c0.1,0.1,0.2,0.4,0.1,0.4C48.6,21.2,49.3,22.3,50.2,23.4z"/>
	<path class="st12" d="M64.2,31.7c0-0.1,0-0.3,0.1-0.4c1.8,0.5,2-0.6,2.7-1.1c0.8,0,1.1,0.3,1.1,0.8c0.4,0.7,0,1.4,0.2,2
		c0.1,0.1,0.2,0.2,0.3,0.3c-2.2,0.7-4.4,1.4-6.8,2.2C62.7,34.1,65.6,33.5,64.2,31.7z"/>
	<path class="st13" d="M75.3,26c1.2,0.9,2.3,1.8,3.5,2.7c0.8,0.2,1.3,0.5,1.3,1c0.7,1.1,1.4,2.2,2.2,3.4c-0.8-0.2-1.3-0.4-1.9-0.6
		c-0.1-0.2-0.2-0.5-0.3-0.7c-0.9-1.7-3-2.9-4.8-4.2c-0.6-0.5-1.9-0.7-1.4-1.6C74.4,25.7,74.9,25.7,75.3,26z"/>
	<path class="st14" d="M77.4,12c0.2-0.2,0.5-0.4,0.7-0.6c0,0,0.3,0,0.3,0l0.1,0.1c1,0.4,1.9,0.9,2.1,1.7c0.4,0.7-0.7,1.4,0.2,2
		c-0.4,0.6,0.5,2.1-2.1,1.4c0.7-1.6-1.1-2.3-2.8-3.1c0.1-0.3,0.3-0.5,0.8-0.5C77.6,12.8,77.4,12.4,77.4,12z"/>
	<path class="st15" d="M50.5,20c-2.4,0.2-5,0.2-7,1.3c-0.9,0.1-1.8-0.1-1.8-0.7c-0.1-0.6,1-0.4,1.5-0.5c1.2-0.2,2.4-0.4,3.6-0.6
		c-0.4-0.9-1.7-1.4-1.7-2.2c0.2-0.2,0.5-0.3,0.7-0.5c0.7,0,1.1,0.3,1.5,0.7c0.4,0.5,1.1,1,1.1,1.7C49.1,19.5,49.8,19.8,50.5,20z"/>
	<path class="st16" d="M80.1,29.7c-0.4-0.3-0.9-0.7-1.3-1c1.9-2,3.3-2.2,5.6-0.9c-0.7,0.9-1.9,1.3-3.4,1.3
		C80.6,29.3,80.3,29.5,80.1,29.7z"/>
	<path class="st17" d="M85.1,17.1c-1.2-0.3-1.5-0.7-1.7-1.6c-0.1-0.5,0.4-1.9-1.8-1.6c-1-0.7-0.7-1.3,0.3-1.9
		c2.6-0.2,2.1,1.3,2.8,2.1c0.1,0.1-0.4,0.4,0.2,0.3c-0.1-0.2,0-0.3,0.3-0.3C86,15.2,86,16.1,85.1,17.1z"/>
	<path class="st18" d="M80.1,13.4c-0.9-0.5-1.3-1.2-1.6-1.9c2.4-0.5,2.1-1.9,2.5-3.3c0.7,1,1.3,1.7,1.1,2.5c0,0.1,0,0.2,0,0.3
		C81.7,11.9,81.6,12.9,80.1,13.4z"/>
	<path class="st19" d="M53.2,7.3c0.2,0.4,0.5,0.8,0.7,1.2c0,0,0,0,0,0c-1.2,0.4-2.2,1-2.7,1.8c-0.2,0.2-0.4,0.3-0.7,0.4
		c-0.9,0.3-1.6,0.2-2.2-0.3C48.7,9.3,52.1,7.1,53.2,7.3z"/>
	<path class="st20" d="M48.3,10.5c0.8,0.2,1.5,0.2,2.2-0.2c0.7,0.6,0.2,1.1-0.7,1.4c-1,0.6-1.2,1.4-1.8,2.1c-2-1.1,0.7-2.1,0.3-3.1
		L48.3,10.5z"/>
	<path class="st21" d="M56.6,32.6c-1.1-0.6-3.1-0.5-4-1.9c2.1,0.5,4.3,0.1,5.5,1.5C57.7,32.5,57.2,32.7,56.6,32.6z"/>
	<path class="st18" d="M85.2,14.2c-0.1,0.4-0.2,0.9-0.3,1.7c-0.9-1.5-0.6-3-2.6-3.8c-0.5-0.5-0.5-0.9,0-1.4c0,0-0.1,0-0.1,0
		C84,11.6,84.7,12.9,85.2,14.2z"/>
	<path class="st22" d="M50.9,27.4c0.1,0.2,0.2,0.4,0.3,0.6c-1.2,0.7-2-0.2-3-0.3l-0.3,0.1c0,0-0.3-0.1-0.3-0.1
		c-1.1-0.3-1.2-0.9-2-1.5C47.8,26,48.9,27.5,50.9,27.4z"/>
	<path class="st23" d="M82.4,18.4c0.7-1.8,1.7-0.3,2.5-0.1c0.4,0,0.7,0.1,0.8,0.4c-0.5-0.1-0.7,0.1-0.8,0.4c-0.5,0.4-1,0.8-1.9,0.7
		C82.2,19.5,82.8,18.9,82.4,18.4z"/>
	<path class="st24" d="M63.6,6.8c-0.9,0.2-1.9,0.8-2.8-0.1c1.8-0.8,3.6-0.8,5.5-0.1C65.4,6.7,64.5,6.7,63.6,6.8z"/>
	<path class="st24" d="M46.9,11.2c-0.2,0.4-0.5,0.8-0.5,1.2c0,1.9-1.3,0.4-2,0.3C44.6,11.9,45.5,11.3,46.9,11.2z"/>
	<path class="st25" d="M67.8,31.5c-0.2-0.4-0.5-0.9-0.7-1.3c2.1-1.5,2.1-1.5-0.7-2.5c-2.7-1.1-4.4-2.7-5.5-4.7
		c-0.5-1-0.4-1.5,1.4-1.2c1.8,0.8,3.2,2,5.2,2.7c0.9,0.8,2.1,1.3,3.6,1.6c0.4,0.1,0.8,0.4,0.9,0.7c-3,2.1-3,2.2,0.6,3.1
		c-1.1,0.8-3.1,0.4-4.2,1.3C68.2,31.5,68,31.5,67.8,31.5z"/>
	<path class="st26" d="M78.6,16.7c0.9,1,1.1,2,0.9,3.1c-2.5,1.3-3.4-0.5-4.8-1.2c-1.1,0.5-1,1.4-2,1.8c-0.3,0.1-0.6,0.2-1,0.2
		c-0.7-0.1-1.5-0.2-1.2-0.8c1.5-1.6,2.1-3.3,2.5-5.2C75.3,14.9,76.9,15.9,78.6,16.7z"/>
	<path class="st27" d="M63.7,13.8c1.4,0.6,3.2,1,3.4,2.3c0.2,0.6,0.6,1.2-0.1,1.8c-0.9,1.3-1.3,2.9-4.5,1.9
		C60.8,17.6,62.1,15.7,63.7,13.8z"/>
	<path class="st28" d="M76.8,12.9c0,0.4-0.3,0.5-0.8,0.5c-1.2-0.7-2.7-0.9-4.1-1.3c-1,0.2-1.9,0.3-1.7,1.3c0.2,0.8-0.1,1.5-1.8,1.3
		c-0.8-1.3-1.7-2.6-2.6-4C69.7,11.3,73.8,10.8,76.8,12.9z"/>
	<path class="st29" d="M73.4,25.5c-0.1,0.4,0.1,0.9-0.8,0.9c-2.3-2.1-5.8-3.1-9.1-4.4c-0.1-0.2-0.1-0.4,0.1-0.6
		c2.1,0.1,4.3-0.1,6.2,0.6c0.5-0.1,1-0.1,1.5,0c1.6,0.6,2.5,1.4,2.7,2.6C74,25,73.8,25.3,73.4,25.5z"/>
	<path class="st30" d="M54.7,21.5c-1.9-2.1-1-4.5-2.2-6.7c1.3-0.8,2.5-0.5,3.5,0.3c0.9,0.1,2.2-0.2,2.6,0.6c0.2,0.5-0.7,0.4-1.1,0.4
		c-1.2-0.3-2-0.3-1.9,0.8c0.2,1.2,0.1,2.5,0.4,3.8c0,0.3,0,0.6,0,0.9C55.5,21.8,55.1,21.8,54.7,21.5z"/>
	<path class="st31" d="M54.7,21.5c0.4,0,0.8,0,1.2,0c0.5,0.9,2.3-0.1,2.8,0.9c-0.7,1.2-1.4,2.3-3.4,2.7c-0.9-0.6-1.8-1.3-2.6-1.9
		c0,0,0,0.1,0,0.1c-0.7-0.3-1.2-0.6-0.7-1.2C52.8,21.7,54,22.2,54.7,21.5z"/>
	<path class="st32" d="M63.6,21.5c0,0.1,0.1,0.3,0.1,0.4c0,0.3-0.3,0.6-0.8,0.7c-0.3,0-0.6,0-0.9-0.2c-1.2-0.2-1,0.2-0.7,0.7
		c1,1.9,3.1,3.2,5.1,4.7c-4.2-0.7-5-3.1-6.1-5.3c-0.3-0.7-0.8-1.3-1.2-2.3C60.8,20.6,62.4,20.7,63.6,21.5z"/>
	<path class="st33" d="M63.7,13.8c-0.5,2-1.5,3.9-0.8,5.9c-0.1,0.2-0.4,0.3-0.7,0.4c-1.3-1.6-0.9-6.2,0.7-7.3c1-0.7,1.8,0.2,2.6,0.3
		C65.3,13.8,63.9,13.1,63.7,13.8z"/>
	<path class="st34" d="M55.5,10.4c1.6,0.7,4.3,0.1,5.2,1.7c-2,0.6-3.7,1.4-5.8,1.9c-1.7-0.8-1.5-1.9-0.9-3.1
		C54.4,10.5,54.9,10.4,55.5,10.4z"/>
	<path class="st35" d="M68.5,14.7c2.5-0.9,0.3-1.9,0-2.9c1.2-0.3,2.3-0.1,3.4,0.3c-1.2,1.4-0.6,3.1-1.7,4.8
		C69.3,16.2,68.8,15.5,68.5,14.7z"/>
	<path class="st6" d="M55.9,20.6c-2.2-1.2-1.4-2.9-1.1-4.3c0.2-1.1,1.6-0.6,2.6-0.2c-0.5,0-1,0-1.4,0c-0.4,1.2,1.1,1.6,2.1,2.2
		C59.2,19.8,57.4,20.2,55.9,20.6z"/>
	<path class="st36" d="M54.6,10.7c0.1,1-0.5,2.2,0.8,3.1c0.4,0.2,0.7,0.3,0.6,0.7c0,0.2,0,0.4,0,0.6c-1.1-0.3-2.2-0.5-3.5-0.3
		c-0.2-0.2-0.4-0.3-0.6-0.5c-0.5-0.2-0.7-0.4-0.8-0.7c-0.5-1.4,1.6-1.7,2.3-2.6C53.7,10.8,54.1,10.6,54.6,10.7z"/>
	<path class="st19" d="M54.6,10.7c-0.2,0.2-0.5,0.3-0.7,0.5c-1.5-0.3-2,1.1-3.4,0.8c-0.2-0.1-0.4-0.3-0.6-0.4
		c0.2-0.5,0.4-0.9,0.7-1.4c0,0-0.1,0-0.1,0c1-0.6,1-2.3,3.5-1.4c0.5,0.5,1.1,1,1.6,1.5C55.2,10.5,54.9,10.6,54.6,10.7z"/>
	<path class="st37" d="M56,14.5c-0.2-0.2-0.4-0.4-0.6-0.7c1-1.7,3.5-1.3,5.4-1.8c0.5,0.8,2.5,2.2-1.2,1.2
		C57.6,12.8,57.7,14.7,56,14.5z"/>
	<path class="st38" d="M61.4,8.9c1.9,0,3.8,0,5.7,0C67.7,9,68.4,9,68.9,9.7c-2.5-0.1-5-0.7-7.3,0c0.6,0.5,1.9,1-0.1,1.4
		c-0.4-0.4-0.7-0.8-1.1-1.1C58.6,8.9,60.1,8.9,61.4,8.9z"/>
	<path class="st39" d="M53.9,27.8c-0.4-0.3-0.9-0.6-1.3-0.9c1.8-0.3,3.6-0.7,5.4-1c0.8-0.1,2-0.5,2.1,0.3c0.1,0.7-1,1.3-2.2,1.4
		C56.5,27.7,55.2,27.5,53.9,27.8z"/>
	<path class="st40" d="M53.9,27.8c1.3-0.7,3-0.5,4.4-0.8c0.5-0.1,1.4-0.4,1.1-0.9c-0.1-0.2-1-0.2-1.5-0.3c1-0.4,2.5-0.9,2.8,0.1
		c0.2,1.1-1.4,1.7-3,2c-0.8,0.2-1.6-0.9-2.3,0c-0.3,0.3-0.6,0.3-1,0.1l-0.2,0c0,0-0.2-0.1-0.2-0.1C53.9,28.1,53.9,28,53.9,27.8z"/>
	<path class="st41" d="M55.3,25.1c0.4-1.3,2.3-1.8,3.4-2.7C59.5,23.8,57.7,25.2,55.3,25.1z"/>
	<path class="st42" d="M62.2,20.1c0.2-0.1,0.5-0.3,0.7-0.4c2.8,0.4,3.2-1.2,4.1-2.3c0.5,0.3,0.4,0.6,0.1,1
		C66.2,20.7,65.3,21,62.2,20.1z"/>
	<path class="st43" d="M58,18.4c-2.7,0-3.6-0.6-2.1-2.2C56.8,16.8,58.2,17.3,58,18.4z"/>
	<path class="st44" d="M70.5,22.4c-0.4,0-0.7-0.1-0.7-0.3c-0.7-0.9-0.6-1.7,0.6-2.3c0.3,0.4,0.9,0.5,1.5,0.6
		C72.8,21.4,72,21.9,70.5,22.4z"/>
	<path class="st45" d="M61.5,11.2c1.5-0.4,0.1-0.9,0.1-1.4c0.3,0,0.7,0,1,0c1,0.1,2.5,0.2,1.9,1.1C64.2,11.4,62.8,12.2,61.5,11.2z"
		/>
	<path class="st39" d="M54.4,28.2c0.3,0,0.7,0,1-0.1c1.4,0.6,2.7,1.2,4.1,1.8c0.2,0.4,0,0.6-0.7,0.5C57,29.9,55.6,29.1,54.4,28.2z"
		/>
	<path class="st46" d="M58.7,30.5c0.2-0.2,0.5-0.3,0.7-0.5c1.7,0.3,3.5,0.5,4.9,1.4C62.4,31.3,60.4,31.4,58.7,30.5z"/>
	<path class="st47" d="M53.9,8.9c-1.9-0.3-2,1.3-3.5,1.4c0.7-1,0.2-3,3.5-1.8C53.9,8.6,53.9,8.8,53.9,8.9z"/>
	<path class="st48" d="M67.1,18.4c0-0.3-0.1-0.7-0.1-1c-0.4-0.5-0.2-0.9,0.1-1.4C69.2,16.9,68.9,17.7,67.1,18.4z"/>
	<path class="st49" d="M46.3,17.9c-0.2-0.3-0.4-0.6-0.6-1c0-0.7,0-1.5,0-2.5c1.8,0.8,3.5,1.5,5.1,2.2c0.4,0.2,0.8,0.7,0.7,0.9
		c-0.3,0.5-1.2,0.3-1.8,0.3C48.6,17.4,47.5,18.7,46.3,17.9z"/>
	<path class="st8" d="M50.2,23.4c-1.5-0.4-2.4-1.5-4.7-1.5c1.9-1.3,4.3-0.7,5.6-1.8c0.6-0.1,1.3,0.1,1.4,0.4
		c0.3,0.7-1.3,0.4-1.4,0.9c-0.2,0.6,0.3,1.2-0.4,1.7C50.5,23.2,50.4,23.3,50.2,23.4z"/>
	<path class="st50" d="M50.4,12.1c1.2-0.3,1.2-2.5,3.4-0.8c-0.3,0.5,0.9,1.9-1.6,1.2c-0.2,0.3-0.4,0.6-0.6,0.9
		c-0.7,0.9-1.4,1.1-2.1,0C49.9,13,50.2,12.5,50.4,12.1z"/>
	<path class="st51" d="M46.3,17.9c1.2,0.4,2.3-1.9,3.5,0c-1,0.2,0.1,1.4-1.4,1.4C47.3,19,46.9,18.4,46.3,17.9z"/>
	<path class="st52" d="M49.6,13.4c0.7,1.1,1.4,0.1,2.1,0c0,0.3,0.1,0.6,0.1,1c-0.6,0.4-1.1,1.1-2.1,0.7C48.6,14.7,49,14,49.6,13.4z"
		/>
	<path class="st53" d="M50.7,23.1c-0.5-0.6-1.2-1.3,0.4-1.7c0.3,0.2,0.5,0.3,0.8,0.5c0.1,0.5,1,0.7,0.7,1.2
		C51.9,23.4,51.3,23.3,50.7,23.1z"/>
	<path class="st54" d="M73.4,25.5c0-0.3,0-0.6,0-0.9c0.1-0.3,0.2-0.6,0.4-0.9c2.8-1.6,6.4-2.4,9.2-4c0.5-0.4,0.5-1.3,1.9-0.6
		c0.2,0.4,0.5,0.7,0.7,1.1c0.6,4.4-2,5.1-8.1,5.7c-0.7,0.2-1.5-0.4-2.2,0.1c-0.4,0-0.9,0-1.3,0C73.8,25.8,73.6,25.7,73.4,25.5z"/>
	<path class="st55" d="M62.9,22.4c0.3-0.2,0.5-0.3,0.8-0.5c3,0.4,5.4,1.4,7.7,2.7c1.1,0.6,1.2,1.2,1.1,1.9c-0.2,0.2-0.4,0.3-0.6,0.5
		c-0.5-0.1-1.1-0.1-1.6-0.2c-0.2-1-1.6-1.2-2.5-1.7C66.3,24.1,64.1,23.7,62.9,22.4z"/>
	<path class="st56" d="M48.1,27.8c1,0.1,2,0.2,3,0.3c0.6,0.3,1.1,0.8,2,0.6c0.7,0.3,1.7,0.6,1.3,1.1c-0.4,0.5-1.4,0.2-2.1,0
		C50.8,29.3,49.3,28.7,48.1,27.8z"/>
	<path class="st57" d="M77.5,25.9c0.7-0.9,2.4-0.6,3.5-0.9c3.3-1,4-2.8,4.6-4.8C87.6,24.6,85.5,26,77.5,25.9z"/>
	<path class="st58" d="M72.5,20.1c0.4-1.1,0.8-2.2,1.2-3.4c2.9,0.4,1.9,3.6,5.8,3c0,0.4,0,0.7,0,1.1c-0.2,1.1-1.3,1.4-2.9,1.3
		C75.1,21.6,73.9,20.8,72.5,20.1z"/>
	<path class="st59" d="M76.7,21.9c1.1-0.2,2.1-0.5,2.8-1c1.4-0.6,2.5-1.3,2.9-2.4c0.2,0.4,0.4,0.9,0.6,1.3c-1.9,2.4-5.9,3-9.1,4.4
		C73.1,22.5,74.4,22,76.7,21.9z"/>
	<path class="st60" d="M82.3,10.7c0,0.5,0,0.9,0,1.4c-0.6,0.5-0.7,1.2-0.6,1.8c-0.2,0.4-0.5,0.9-0.7,1.3c-1.7,0-1.7,0-0.7-1.8
		C81,12.6,81,11.4,82.3,10.7z"/>
	<path class="st61" d="M67.8,31.5c0.2-0.1,0.4-0.1,0.6-0.2c2,0.6,1.1,1.1,0,1.7C65.1,33,68.6,31.9,67.8,31.5z"/>
	<path class="st62" d="M62.9,22.4c1.8,0.7,4,1.2,5.4,2.3c0,0.8-0.6,0.7-1.4,0.5c-1.9-0.7-3.7-1.6-5-2.7
		C62.3,22.4,62.6,22.4,62.9,22.4z"/>
	<path class="st63" d="M67,25.1c0.5-0.1,1.2,0,1.4-0.5c1.2,0.5,3,0.8,2,2.1C68.8,26.7,67.4,26.3,67,25.1z"/>
	<path class="st64" d="M76.7,21.9c-1.2,0.6-2.8,1-2.7,2.3c-0.2,0.2-0.4,0.3-0.6,0.5c-0.6-1-1.7-1.6-2.8-2.2c0.5-0.7,1-1.4,1.5-2.1
		c0.2-0.1,0.3-0.1,0.5-0.1C75.1,19.5,75.9,20.7,76.7,21.9z"/>
</g>
</svg>
