<?xml version="1.0" encoding="utf-8"?>
<!-- Generator: Adobe Illustrator 27.1.0, SVG Export Plug-In . SVG Version: 6.00 Build 0)  -->
<svg version="1.1" id="Capa_1" xmlns="http://www.w3.org/2000/svg" xmlns:xlink="http://www.w3.org/1999/xlink" x="0px" y="0px"
	 viewBox="0 0 239.5 211.1" style="enable-background:new 0 0 239.5 211.1;" xml:space="preserve">
<style type="text/css">
	.st0{fill:#DCDCDC;}
	.st1{fill:#DBDBDB;}
	.st2{fill:#D9D9D9;}
	.st3{fill:#D8D8D8;}
	.st4{fill:#D5D5D5;}
	.st5{fill:#D0D0D0;}
	.st6{fill:#828282;}
	.st7{fill:#5D5D5D;}
	.st8{fill:#7C7C7C;}
	.st9{fill:#535353;}
	.st10{fill:#4E4E4E;}
	.st11{fill:#5F5F5F;}
	.st12{fill:#A5A5A5;}
	.st13{fill:#5C5C5C;}
	.st14{fill:#545454;}
	.st15{fill:#2B2B2B;}
	.st16{fill:#5B5B5B;}
	.st17{fill:#808080;}
	.st18{fill:#D7D7D7;}
	.st19{fill:#656565;}
	.st20{fill:#888888;}
	.st21{fill:#767676;}
	.st22{fill:#ADADAD;}
	.st23{fill:#A3A3A3;}
	.st24{fill:#6A6A6A;}
	.st25{fill:#6B6B6B;}
	.st26{fill:#797979;}
	.st27{fill:#8B8B8B;}
	.st28{fill:#878787;}
	.st29{fill:#B8B8B8;}
	.st30{fill:#7D7D7D;}
	.st31{fill:#636363;}
	.st32{fill:#737373;}
	.st33{fill:#6D6D6D;}
	.st34{fill:#A9A9A9;}
	.st35{fill:#8D8D8D;}
	.st36{fill:#777777;}
	.st37{fill:#989898;}
	.st38{fill:#9D9D9D;}
	.st39{fill:#727272;}
	.st40{fill:#7A7A7A;}
	.st41{fill:#D4D4D4;}
	.st42{fill:#A1A1A1;}
	.st43{fill:#8C8C8C;}
	.st44{fill:#DADADA;}
	.st45{fill:#919191;}
	.st46{fill:#4A4A4A;}
	.st47{fill:#AAAAAA;}
	.st48{fill:#7E7E7E;}
	.st49{fill:#838383;}
</style>
<g>
	<path class="st0" d="M186,87.9c0.8,2,3.5,1.1,4.5,2.9c1.1,1.2,3,1.7,3.1,3.7c1.9,4.4,5.1,8.1,6.6,12.8c1,2.9,0.7,6.1,2.3,8.8
		c3.2,2.7,1.1,5.4,0.1,8.2c2.3,1,5.4,0.1,7.1,2.6c0.1,0.1,0.4,0.3,0.5,0.3c5.4-3.5,8.1,1.8,11.9,3.6c5.5,2.6,8.7,7.6,12.3,12
		c1.7,2.1,2.6,4.7,4.4,6.7c0.2,0.3,0.1,0.9,0,1.4c-1.2,6.1,1.1,12.1,0.3,18.3c-1.6,11.6-3,12.1-7.9,18.4c-0.5,0.4-1,0.6-1.7,0.5
		c-0.9-0.4-1.1-1.1-0.6-2c1.2-3.3,3.5-7,6.2-9.9c0.2-0.2,0.4-0.5,0.3-0.6c-1.7-3,0.3-5.9,0.6-8.7c0.9-6.8-3.4-12.3-4-18.6
		c-0.1-0.5-0.5-1.1-0.9-1.5c-4-4.9-7.8-9.8-13.8-12.6c-3.1-1.5-6-3.7-9.5-4.2c-3-0.5-6.2-0.4-9.3-0.5c-2.5-1.2-4.6,0.7-6.9,0.9
		c-6,0.1-10.1,3.7-14,7.6c-2.4,2.4-4.2,5.3-6.3,8c-2.8,3.6-3.9,7.9-4.8,12.2c-0.4,2-0.9,3.9-2.9,4.9c-1.6,0.6-2.3-0.2-2.7-1.6
		c-0.6-2.6,0-5.1,0.6-7.7c3.1-13.3,11.5-21.9,23.5-27.6c3.2-0.4,5.7-2.8,9-3.1c1.1-0.1,1.5-1.6,1.5-2.8c0-3.7,0.5-7.4-1.1-11
		c-1.1-1.4-1.2-3.4-2.8-4.5c-0.9-1.3-0.6-3.3-2.4-4.1c-1.1-0.6-1.3-1.9-2.2-2.6c-0.8-0.6-1.3-1.5-2.1-2.1c-0.7-0.6-0.9-1.5-1-2.3
		c-0.4-1.5-2-2.5-2.1-4.2c0-1.3,0.6-2.2,1.7-2.7c0.4-0.1,0.8-0.1,1.1-0.1C185.5,86.9,185.9,87.3,186,87.9z"/>
	<path class="st0" d="M68,190.3c0.3-1.9,1.5-3.3,2.9-4.6c0.9-1.2,0.1-3.3,2.1-3.9c1.9-0.8,0.5-2.1,0.4-3.1c-0.1-0.8-0.7-1.7,0.1-2.4
		c1.6-1.3,0.5-3,0.8-4.4c1-5.4-2-9.8-3.2-14.7c-2-8.5-8.4-13-15.3-17c-1.5-0.9-2.2-3.3-4.6-2.5c-3.4-2.9-7.4-1.9-11.3-2
		c-1,0.1-1.9,0.9-3,0.7c-1.4-0.2-2.8-0.8-4.1,0.1c-2.1,1.4-4.7,1.6-7,2.3c-3.9,1.1-6.2,3.7-8.7,6.4c-1.3,1.4-2.3,3.3-4.6,3.4
		c-0.4,1.7-2.8,2.1-2.9,4c-0.1,3,0,6.1-3.5,7.4c-0.5,0.5-0.6,1.1-0.6,1.8c0.4,2.8,1.7,6-2.8,6.8c-1.5,0.5-2.4,0.1-2.2-1.6
		c0.1-1.2,0.6-2.4-0.2-3.5c-0.5-1-0.2-1.7,0.8-2.2c1.1-1.9,1.5-4,1.9-6.1c-0.8-1.2-0.7-2.4-0.1-3.5c2.9-6.2,6.8-11.4,12.8-15.1
		c4.7-2.9,9.3-5.6,14.6-7.1c1.5-0.4,3.1-1,4.7-0.6c1.9,0.2,3.8-1,5.8-0.1c3.3,0.5,6.6,0.9,9.9,1.3c7.5,1,12.6,6,17.9,10.7
		c0.9,0.8,0.9,2,0.6,3.2c1.6,1.9,2.8,4.2,4.9,5.8c0.3,0.1,0.4,0.2,0.3,0.4c0,0.2-0.1,0.3-0.1,0.3c2.8,3.7,3.6,7.9,2.7,12.4
		c0,0.1,0.3,0.3,0.5,0.5c0.8,0.2,1.4,0.8,1.5,1.5c1,4.8,0.5,9.6,0.8,14.5c0.1,1.6-1.1,3-3,3.3c-0.8,1.5-1.5,3-2.3,4.5
		c0.1,3.7-0.7,4.8-4.5,5.8C68.5,192.6,67.1,192.3,68,190.3z"/>
	<path class="st1" d="M82.2,123.8c-1.2-1.3-3-1.5-4.5-2.2c-2.9,0.7-5.4-0.1-6.6-2.8c-1.8-4.1-4.8-6.4-8.8-7.8
		c-1.1-1.3-2.5,0.1-3.8-0.4c-0.6,0.9-1.6,1.4-2.6,1.1c-4.4-1.4-9-1.1-13.4-2.8c-4.1-1.6-8.8-1.5-13.2-1.5c-2.9,0-5.6-0.8-8.5-0.4
		c-1.9,0.5-3.3,0.1-4.1-1.9c-0.1-4.1,3.1-4.5,6-5.3c2.7-1.1,5.6,0.6,8.3-0.4c2.6-0.1,5.1-0.2,7.6,0.9c1.3,1.6,2.9,2.6,5.1,2
		c0.3,0,0.6,0.1,0.9,0.2c5.1,2.8,10.8,3.2,16.5,3.4c0.8,0,1.6,0.3,2.4,0.5c2.3-1.1,4.6-2.1,5.9-4.5c0.4-2.5,1.1-4.8,3.3-6.3
		c0.9-1.1,1.7-2.5,3.5-1.6c0.8,0.8,1.1,1.7,1,2.8c-0.2,0.9,0.1,1.9-0.5,2.8c-1.7,1.3-1.8,3-1,4.9c0.1,0.9,0.7,1.6,0.8,2.5
		c0.8,8.1,2.2,9.6,10.3,10.7c0.4,0.1,0.7,0.1,1.1,0.2c2.1,1,4.4,1.2,6.7,1.1c6,0.2,11.9,0.7,17.6,2.9c2.5,0.9,4.2,2.4,2.2,5.3
		c-1.1,1-2.4,1-3.7,0.9c-2.8,0.4-5.5,0.6-7.6-1.8c-1,0-2,0.1-3,0.1c-2.2,1.3-4,0.9-5.4-1.4c-1-1.5-2.5-0.5-3.7-0.6
		c-0.5,0.4-1,0.4-1.4-0.2c-2-0.4-4-0.5-6.1-0.2C83.2,124.2,82.6,124.3,82.2,123.8z"/>
	<path class="st1" d="M124.6,154.6c0,0.7-0.3,1.7,0.4,2c1.2,0.5,3.2,0.4,0.5,1.9c-0.3,0.2,1.4,0,2,0.5c0.7,1.3,0.6,2.8,1,4.1
		c0.6,1.8,1.2,3.9,3.9,3.2c0.7,0,1.5,0,2.2,0c6.6-0.4,8.7-3.1,5.7-8.9c-3.7-7.1-3.6-15-4.9-22.5c-0.7-4.1-1.9-7.8-3.2-11.7
		c-1.3-3.8-0.8-7.8-1.1-11.7c2.2-2,3.3-2,4.5,0.3c1.1,2.2,1.6,4.7,2.2,7.1c0.5,1,1,1.9,1.2,3.1c1.4,10.3,5,20.1,6.8,30.3
		c1.3,7.2,3.2,8.1,12.4,7.5c3.2,1.4,2.4,3.1,0.4,4.9c-1.8,1.6-4.2,0.5-6.1,1.4c-2,1-3.9,2.1-5.9,0.1c-0.6-0.6-1.5-0.7-2,0
		c-3.8,6.2-9.7,3.6-14.8,3.4c-3.5-0.1-5.5-3-6.6-6.2c-1.3-0.2-1.4-1.5-2.1-2.3c-0.5-0.8-1.2-1.4-1.4-2.4c0-3-2.2-5.6-1.6-8.7
		c1-1.5,1.9-3.4,4.3-2.1c0.1,1.4-2.5,2.7-0.3,4.3C123.6,152.6,125.3,152.4,124.6,154.6z"/>
	<path class="st1" d="M115.2,103.2c-1,0.5-1.9,1-2.9,1.5c-0.9,0.2-1.5-0.4-2.3-0.6c-1.7,0.4-3.4,1.6-4.9-0.5
		c-0.8-1.1-1.7,0.4-2.6,0.1c-3.7,1.6-4.9,1.2-6.1-2.1c1.3-4.4,2.2-8.9,1.8-13.6c-1.3-4.4-0.7-8.6,0.9-12.8c1-2.6,2-5.3,2.5-8.1
		c0.2-1.5,0.9-3.1,2.3-4.1c-0.5-2.4,1.4-4.4,1.2-6.8c-1.2-3.1,1-4.5,3-6c2-1.3,3.4-1.4,3.9,1.6c0.2,1.1,0.9,2.3,2,2.8
		c2.1,1,2.5,3.1,3.1,5.1c-0.6,2.7-0.5,5.3,1.9,7.2c-0.2,3.1,2,5.1,3.4,7.5c-0.7,1.1,0.6,1.8,0.6,2.8c0.2,0.8,0.2,1.5-0.2,2.2
		c-0.6,0.9-1.5,1.2-2.6,1.2c-4.7-1.9-5.6-6.5-7.2-10.6c-0.2-2.7-0.6-5.3-2.3-7.4c-2,3.5-2.4,7.3-2.6,11.2c-1,1.9-0.4,4.1-1.1,6
		c-2.3,4.1-1.3,8.9-3.1,13.1c-0.2,0.5-0.4,1-0.4,1.5c0.2,1.5-0.2,3.4,2.3,3.4c3,0.2,6.1-0.3,8.6,1.9
		C115.3,100.8,116.2,101.8,115.2,103.2z"/>
	<path class="st1" d="M34.3,150c3.2-0.9,6.3-1.1,9.1,0.9c3.6-2.4,5.3,1.4,7.6,2.6c3.3,1.8,4.6,5.7,7.4,8.1c0.3,0.3,0.5,1.1,0.3,1.4
		c-2.5,3.4-0.2,6.7,0.2,10c0.1,1.2-0.2,1.7-0.6,2.6c-1.6,3.4-4.9,5.6-6.3,9.1c-2.9,1.8-5.7,3.6-8.6,5.3c-1.3,0.8-2.6-0.5-3.9-0.3
		c-0.5,0.4-0.9,0.4-1.4,0c-2-1.1-5,0.1-6.4-2.6c-0.4,0.2-0.8,0.4-1.2,0.7c-0.5-0.4-1.3-0.8-1.3-1.2c0-1.3,0.9-0.6,1.5-0.4
		c1.3,0.3,3.9-2.7,3.7,1.4c0.2,0,0.5,0,0.7-0.1c2.4-1.2,5.5-0.6,7.3-3.1c0.5-0.3,1-1.1,1.5-1c2.8,0.2,4.6-1.5,6.4-3.2
		c2.1-3,4.8-5.8,4.4-10c-0.6-5.3-3-9.5-7.2-12.8c-4-3.1-8.5-3.4-13.2-3.2c-2.1,0.1-3.7,2-4.6,3.4c-1.8,3-4.7,5.4-5.4,9.1
		c-0.4,1.9-1.9,2.5-3.3,2.1c-1.5-0.4-1-2.1-0.6-3.2c1.7-4.7,2.8-9.9,8.2-12.2C30.4,152.3,32.4,151.2,34.3,150z"/>
	<path class="st1" d="M216.5,166.4c1.1-3.8-1-7.6-2.8-9.8c-2.8-3.3-5.8-7.2-11.5-7.5c-4-0.3-7.7-0.6-10.3,2.4
		c-2.3,2.7-4.9,5.5-5.8,9.2c-0.2,1-0.6,1.8-1.6,2.3c-1.9,0.8-3.2,0.4-2.6-1.8c1.5-5.2,2.4-10.7,8.3-13.2c1.8-0.8,3.3-2.1,5-3
		c2.9-1.4,5.8-1.2,9-0.7c3.2,0.6,6.1,1.3,8.7,3.4c3,2.4,4.7,5.7,7.3,8.3c0.3,0.3,0.5,1.1,0.3,1.4c-2.5,3.4,0,6.7,0.2,10
		c0,0.6,0.3,1.2-0.1,1.7c-3,4.4-5.7,8.9-10,12.2c-4.6,3.6-9.7,3-14.8,2.1c-1.5-0.3-2.5-2.2-4.4-1.9c-0.1-2.3,2.3-1.1,3.1-2.2
		c0.3,0.1,0.9,0.2,1,0.4c1.1,3,2.4,2.8,4.5,0.8c0.8-0.8,2.7,0.5,4.1-1.3c0.7-0.9,0.3,2,1.9,1.9c0.8-1.1-0.8-2.1-0.2-3.2
		c1.7-1,3-0.5,3.8,1.3c-0.7-1.6,0.2-2.7,1.2-3.7c0.4-0.3,0.9-0.6,1.3-1c1.4-0.5,1.8-1.7,2.3-2.9c0.2-0.3,0.5-0.5,0.7-0.8
		C215.9,169.6,215.8,167.9,216.5,166.4z"/>
	<path class="st1" d="M87.3,10.5C82,16,84.7,25.5,89.9,29.7c3.2,2.6,6.5,3.7,10.6,3.8c2.6,0.1,4.4-1.4,5.5-2.6c2-2,4.3-4.1,5.3-6.9
		c0.7-2,2-2.7,4-2.6c-0.2,0.9,0.7,1.4,1,2.1c0.9,1.7,0.5,3.1-0.8,4.3c-1.1,1-2,2.2-2.9,3.3c-1.7,2.8-4.9,3.5-7.3,5.4
		c-1,1.8-2.3,2.7-4.4,1.9c-2.8-0.3-5.8,0.1-8.2-1.9c-0.8-0.6-1.4,0.7-2.3,0.7c-3.6-0.1-6-2.2-6.8-5.9c0.3-1.2-0.7-1.8-1.2-2.5
		c-1.6-2.2-4-4-1.6-7.2c0.3-0.4,0.5-2.2-0.7-2.9c-0.8-0.3-1.1-1-1.2-1.8c-0.1-1.1-0.1-2.2,0-3.4c1.6-4.5,5.4-7.3,8.4-10.7
		c0.9-1.1,2.3-1.4,3.7-0.6c0.5,0.4,0.7,0.8,0.8,1.4C92.9,7.7,88.9,8.3,87.3,10.5z"/>
	<path class="st2" d="M24.9,203.7c1.9-0.9,3,0.3,4.1,1.5c0.5,2.3,2.4,0.9,3.6,1.4c2,0.9,3.2-2.3,5.3-1.1c2.4,0,5,1.9,6.9-1.3
		c0.4-0.6,1.5-0.7,2,0.5c0.5,1.2,1.7,1.6,2.7,1.2c1-0.5,0-1.5,0-2.3c-0.1-2.1,1.9-1.6,2.9-1.9c0.7-0.2,1.7,1.1,2.5-0.2
		c1.4-0.1,1.1,0.7,0.8,1.5c1.2,1.6,1.7,0,1.9-0.6c0.8-3.5,3.2-5.6,6-7.4c0.7-1.8,2.5-2.4,3.6-3.7c0.2-0.3,0.5-0.5,0.7-0.8
		c0.3,1.2,1.3,1.4,2.4,1.4c0.6,1.2,0.4,2.1-0.8,2.7c-2.6,0.6-3.4,2.9-4.4,4.9c0,1.7-1.6,1.8-2.6,2.4c-0.1,0.2-0.2,0.4-0.1,0.6
		c-3.2,4.8-9.5,4.3-13.5,7.8c-0.9,0.8-2.3,0.6-3.4-0.3c-0.5,0-1,0.1-1.5,0.1c-2,2.1-3.6,0.6-5.3-0.5c-0.8,0-1.5,0-2.3,0.1
		c-1.5-1.3-3.5-1.2-5.2-1.2c-2.7,0-4.7-0.9-6.2-3C24.5,204.8,24.5,204.3,24.9,203.7z"/>
	<path class="st2" d="M229.9,187.7c0.5,0,1,0,1.5-0.1c-3.6,4-6.4,8.9-11.7,11.2c-7.3,3.1-14.3,7.9-22.9,4.3
		c-1.5-0.6-3.4-0.5-5.1-0.6c-2.1-0.1-3.7-0.9-4.8-2.8c-0.4-0.6-0.4-1.1-0.1-1.7c1.2-1.2,2.8,0.1,2.8,0.4c0.2,4,3.1,2,4.9,2.4
		c2,0.9,3.2-2.3,5.3-1.1c2.5,0.3,4.9,1.3,7.1-1.1c1.1-1.2,1.7,0.2,2.4,1c0.4,0.5,1.5,0.8,2.1,0.6c0.9-0.3,0.4-1.3,0.2-1.9
		c-0.9-3.1,1.9-1.8,3-2.6c1.6,0,1.9-1.2,2.2-2.3c4.1,0.3,0.1,3,1.7,4.6c1.7-3.6,3.4-7.1,7.1-8.9
		C226.5,187.4,228.1,187.2,229.9,187.7z"/>
	<path class="st3" d="M74,82.9c2-3.6,1.8-7.6,2.3-11.5c0.5-3.9,1-7.9,1.4-11.8c0.4-1,0.8-2,1.2-3.1c-1.3-2.4-1.6-4.6,1.5-5.9
		c1.4-0.2,2.7-0.5,3-2.2c0.3-1.5,1.5-0.9,2.3-1.1c0.3-0.1,0.7,0,0.7,0.5c0,1.2-1,0.9-1.6,1.2c-1.6,0.8,0.1,3.1-1.5,4.1
		c-1.1,0.5-2,1.1-1.2,2.4c0.6,1,0.7,2,0.3,3.1c-0.2,1-1.9,1.9-0.3,3.1c1.3,0.5,0.9,1.9,1.3,2.8c0.7,1.9,0.8,3.7-0.8,5.3
		c-0.6,0.5-1.2,1-1.9,1.4c-2,1.1-0.1,1.2,0.4,1.6c1.6,1.5,0.7,3.1,0.1,4.7c-0.6,1.5-0.4,3.1-1.1,4.6c-0.4,1.8-2.8,2.8-2.3,5.1
		c0.2,1.1-0.4,1.5-1.3,1.6c-1.1,0.6-1.8,0.1-2.5-0.7C70.9,86.4,74.7,84.6,74,82.9z"/>
	<path class="st2" d="M97.9,164.7c-2.8,0.3-5.5-0.1-8.2-0.6c-1.7-1.3-3.5-1.5-5.4-0.7c-2,0.2-3.9-0.1-5.2-1.9
		c-0.3-4.9,3.1-2.4,5.2-2.6c3.2-1.6,6.6-1.1,10-1.1c4.5-0.1,9.1,2,13.5-0.1c1.7-0.8,3.4-0.4,5.1,0.2c0.4,0.1,0.7,0.3,1,0.6
		c0.6,0.9,0.5,1.9,0,2.8c-0.2,0.3-0.5,0.6-0.8,0.8c-1.2,0.6-2.4,1.3-3.3,2.3c-0.3,0.2-0.6,0.2-1,0.2c-1.5-0.6-2.9-0.1-4.3,0.4
		c-1.5,0.6-2.9,0.1-4.2-0.5C99.3,164.4,98.6,164.5,97.9,164.7z"/>
	<path class="st4" d="M16.5,110.4c0.2-0.7,0.6-1.2,0-2c-1.7-1.9-0.2-2.6,1.3-3.4c0.8,1.5,2.2,0.8,3.4,0.8c0.7,0.5,1.5,1.1,1.6,2
		c0.5,5,4.5,7.1,8,9.6c2.8,2,5,4.7,7.6,7.1c0.7,0.7,1.2,1.6,0.5,2.7c-1.1,0.8-2.5,0.5-3.7,0.6c-0.8-1.4-0.2-4.5-3.6-2.4
		c-1.3,0.8-0.9-2.3-2.9-2c-3.5,0.5,0.4-1.9-0.9-2.4c-1.1-0.4-1.9,3.4-3.4,0.4c-0.3-1.4-0.5-2.9-2.4-3c-0.8-0.9-1.6-1.9-2.4-2.8
		C18.1,114,18.6,111.4,16.5,110.4z"/>
	<path class="st2" d="M184.4,87.3c-0.6,0.7-1.3,1.4-1.5,2.4c-1.1,0.5-2.1,0.3-3.2,0c-2.3-1.2-2.5-4.2-4.7-5.6
		c-2.7-2.1-6.1-2.2-9.1-3.6c-0.3-0.2-0.6-0.4-0.8-0.7c-0.2-0.3-0.2-0.7-0.2-1.1c1-1.4,2.3-2.3,4.1-2.3c0.6,1.5,3.3-2.7,3.2,1.2
		c0,0.3,0.5-0.5,0.5-0.7c0.2-1.4,1.2-1.2,2.2-1.2c0.2,0.1,0.3,0.2,0.5,0.3c1.4,2.6,3.3,4.6,6,6c0.7,0.2,1.3,0.6,1.6,1.3
		C183.3,84.6,185.9,85.3,184.4,87.3z"/>
	<path class="st5" d="M103.4,1.4c1.8-0.2,2.4,1.1,3,2.3c0.5,0.8-0.4,1.1-0.6,1.6c-1,1-2-0.3-1.9-0.5c2.1-3-1.1-1-1.5-1.6
		c-1.5,1.7-4.4,0-5.6,2.4c-1.9,0.6-3.9,3-5.4-0.5c-0.2-0.3-0.4-0.5-0.6-0.8c0-0.5-0.1-1.1-0.1-1.6c2.8-0.5,4.9-3.6,8.2-2.6
		C100.2,1.1,101.7,1.6,103.4,1.4z"/>
	<path class="st2" d="M74,88.1c0.8,0.2,1.7,0.4,2.5,0.7c0.1,1.2,0.3,2.4,0.4,3.6c0.1,0.9-0.3,1.5-1.2,1.7c-0.9,0.7-1.8,1.5-3,1.5
		C73.1,93.1,71.7,90.3,74,88.1z"/>
	<path class="st6" d="M174.9,75.8c0.8-0.1,1.6-0.2,2.3-0.3c0.2,2.6,2.3,4.1,3.8,5.9c0.1,0.3,0.1,0.5,0.2,0.8
		c-0.8-0.2-2.4,0.2-2.3-0.5C179.2,78.5,172.5,80.1,174.9,75.8z"/>
	<path class="st7" d="M157.9,164.7c1-1.1,2.8-2.1,0.6-3.8c1.2-1.3,2.4-1.4,3.6-0.2c0.4,0.9,0.1,2.3,1.7,2.3
		c-1.5,2.2-4.1,1.9-6.1,2.9C157.4,165.6,157.4,165.1,157.9,164.7z"/>
	<path class="st8" d="M210.8,175.6c-0.2,1.5-0.5,3.1-0.8,5.1c-1.3-1.4-2.4-2.7-4.2-2.7C206.9,176.1,208.5,175.1,210.8,175.6z"/>
	<path class="st9" d="M165.4,79.7c0.3,0,0.6,0.1,0.8,0.1c0.1,0.5,0,0.8-0.4,1.1c-1.3,0.8-2.4,0.8-3.5-0.4c-3.8,0-3.8-0.1-1.6-4
		c1,0.3,1.9,0.8,2.9,0.1C165.2,77.2,164.6,78.8,165.4,79.7z"/>
	<path class="st10" d="M109.5,5c0.8,0.2,1.6,0.5,2.5,0.7c0.3,0.8,0.6,1.5,0.9,2.3c0,0.9,1.2,2.2-0.9,2.3c-0.8-0.7-1.2-1.8-2.6-1.8
		c-1.4,0-1.8-1.1-1.3-2.4C107.8,4.6,108.6,4.8,109.5,5z"/>
	<path class="st11" d="M92.9,44.7c0.2,0,0.4,0,0.6,0c0,1.5,0.1,2.9,0.1,4.4c-0.3,0.4-0.5,0.3-0.6-0.1c-0.2-2.4-1.2-0.7-1.8-0.3
		c-0.8,0.4-1.1,1.8-2.4,1.4c-0.6-0.2-0.7-0.8-0.4-1.2c0.6-0.9,0.4-2.6,2.2-2.6C91.8,46.3,92.7,45.9,92.9,44.7z"/>
	<path class="st12" d="M186.7,198.1c0,0.6,0,1.2,0.1,1.7c-2.7,0.5-4.6-0.7-6.5-2.6C182.9,195.2,184.4,199.4,186.7,198.1z"/>
	<path class="st13" d="M82.4,58.6c-0.5-1.6-1.5-3-1.3-4.8c0.2-1.8,0-1.8,2.3-0.7c0.2,0.8-1.2,1.5,0,2.5
		C84.7,56.9,83.5,57.8,82.4,58.6z"/>
	<path class="st14" d="M175.2,191.4c-0.1,1.5-0.8,1.8-1.3,1.6c-1.2-0.4-2.9,0.1-3.5-1.6c-0.2-0.6,0.2-1.5,0.8-1.5
		C172.9,189.8,173.3,192.2,175.2,191.4z"/>
	<path class="st7" d="M199.6,199.8c-1.8,0-3,3.2-5.3,1.1C195.9,199.2,197.1,196.6,199.6,199.8z"/>
	<path class="st15" d="M112,10.2c0.5-0.7-0.2-1.8,0.9-2.3c0.7-0.3,1.3-0.6,2-0.8c0.4,1.3,1,2.6-0.4,3.6
		C113.5,11.4,112.6,11.3,112,10.2z"/>
	<path class="st16" d="M9.7,198.3c-0.2,0-0.4,0-0.6,0c-0.7-0.9-0.6-2.1,0.2-2.7c0.9-0.6,1.4,0.6,2,1.1c0.5,0.4,0.9,0,1.4-0.2
		c0.6,0.5,1.1,1,0.5,1.7c-0.8,0.9-1.7-0.1-2.6-0.1c-0.1-0.2-0.2-0.4-0.3-0.5C10.1,197.9,9.9,198.1,9.7,198.3z"/>
	<path class="st17" d="M229.9,187.7c-1.3,1-3.2,0.3-4.4,1.5c1-1.2,0.3-4.5,3.6-3.1C229.3,186.7,229.6,187.2,229.9,187.7z"/>
	<path class="st15" d="M89.4,58.3c0.8,0.1,1.7-0.2,1.9,0.8c0.1,0.7-0.4,1.1-1.1,1.1c-0.9,0.1-1.8-0.1-2-1.1
		C88,58.4,89,58.5,89.4,58.3z"/>
	<path class="st18" d="M115.9,60.5c0.4,0.5,0.9,1,1.3,1.4c-0.4,2.1,1.2,3.4,1.9,5.1c-1.5-0.4-3-0.6-2.5-2.9
		C116.8,63,116.2,61.7,115.9,60.5z"/>
	<path class="st19" d="M34.7,204c0.3,0,0.5,0.1,0.8,0.1c0.8,0.2,1.5,0.5,2.3,0.7c0.1,0.2,0.1,0.4,0.1,0.7c-1.8,0.1-3,3.2-5.3,1.1
		C33.7,206.1,34.6,205.4,34.7,204z"/>
	<path class="st20" d="M175.5,195.3c1.6-2.7,2.9-3.7,5.2-1.1C178.9,194.5,177.6,194.8,175.5,195.3z"/>
	<path class="st21" d="M191.8,130.4c2.1-1.6,4.2-3.1,6.9-0.9C196.4,129.8,194.1,130.1,191.8,130.4z"/>
	<path class="st22" d="M165.4,79.7c-2.7-0.4-2.7-0.4-1.6-3c0.5-0.5,1.1-0.5,1.7-0.1c0.6,0.7,0.6,1.4,0,2.2
		C165.4,79.1,165.4,79.4,165.4,79.7z"/>
	<path class="st23" d="M157.9,164.7c0,0.4-0.1,0.9-0.1,1.3c-1.6,1.5-3.4,0.1-5.1,0.3C154.1,164.8,156.1,165.2,157.9,164.7z"/>
	<path class="st24" d="M165.4,78.7c0-0.7,0-1.4,0-2.2c1.2-0.1,2.4-2.6,3.7-0.2C167.8,77.1,166.9,78.5,165.4,78.7z"/>
	<path class="st25" d="M194.6,179.3c0,2.3-2.5,0.8-3.1,2.2c-1.8-0.8-1.2-1.7,0.1-2.1C192.5,179.1,193.6,179.3,194.6,179.3z"/>
	<path class="st11" d="M83,61.7c0.4,1.5-0.1,2.6-1.2,3.5c-0.9,0.2-2,0.1-2.2-0.7c-0.1-1,1-1,1.8-1c1.7,0,0.5-1.2,0.7-1.8
		C82.4,61.7,82.7,61.7,83,61.7z"/>
	<path class="st6" d="M78.5,81.9c0,1.5,0.1,2.9,0.1,4.4c-0.2,0.3-0.5,0.6-0.7,0.8C74.8,85.1,78.2,83.7,78.5,81.9z"/>
	<path class="st26" d="M216.7,193.5c0.9,1,0.6,2-0.3,2.9c-1,0.9-1.5,0.2-2-0.6C215.2,195,215.3,193.6,216.7,193.5z"/>
	<path class="st15" d="M38.1,189.8c0.5,0,0.9,0,1.4,0c0.4,1.1,0.3,2.2-1.1,1.9C37,191.6,37.5,190.6,38.1,189.8z"/>
	<path class="st27" d="M214.4,171.8c-0.4,1.3,1.4,4.3-2.3,2.9C212,173,213.8,172.8,214.4,171.8z"/>
	<path class="st21" d="M216.5,166.4c0.8,1.9,0.6,3.5-1.4,4.5C215,169.3,215,167.6,216.5,166.4z"/>
	<path class="st18" d="M103.8,146.1c-3.2,0.4-6.3,1.8-9.5,0.2c-1.1,0.4-2.3,0.9-3.5,0.9c-1.8,0-3.3-0.8-4.2-2.5
		c-0.7-1.5-0.6-2.8,0.9-3.8c1.2-0.1,2.3-0.2,3.5-0.3c0.4-0.4,0.6-0.3,0.7,0.3c2.9,0.7,5.7,0.7,8.5-0.4c3.2-0.9,6.4-1.7,9.7-0.4
		c1.3,1.2,1.8,2.4,0.4,3.9C108.4,145.5,106.2,146,103.8,146.1z"/>
	<path class="st28" d="M132.5,166.4c-0.6,0.6-1.2,1.2-2.1,2c-0.6-2.9-2.9-3.8-5.5-5c2-0.9,3.3-2.1,2.6-4.2c1.1,1.4,2.8,2.3,2.1,4.8
		C129.3,165.2,131,166.1,132.5,166.4z"/>
	<path class="st6" d="M119.4,150.4c0.1-1.7-1-3-1.4-4.6c2.7-1.7,2.9,1.8,4.5,2.2C120.6,147.6,120.4,149.5,119.4,150.4z"/>
	<path class="st29" d="M117.1,101c0,1.4,1.7,3.2-1.1,3.9c-0.3-0.5-0.5-1.1-0.8-1.6c0-1.1-0.9-1.5-1.6-2.1
		C114.7,99.7,115.9,99.7,117.1,101z"/>
	<path class="st30" d="M103.8,146.1c2-0.8,3.9-1.6,5.9-2.5c0.7-0.2,1,0.1,1,0.8c-1,0.8-2.3,1.2-3,2.5
		C106.4,146.6,105.1,146.4,103.8,146.1z"/>
	<path class="st7" d="M124.6,154.6c0.1-1.7-1.9-1.2-2.3-2.3c0.9-0.2,1.8-1.4,2.6-0.5C125.7,152.7,125.1,153.7,124.6,154.6z"/>
	<path class="st31" d="M117.4,144.3c0-1-0.1-2-0.1-3c1.3-0.1,1.9,0.8,2,1.8C119.4,144.4,118.3,144.3,117.4,144.3z"/>
	<path class="st32" d="M50.2,180.3c-1.5,1.5-1.8,3.6-2.1,5.8c-1.4-0.9-1.9-2.6-3.7-2.2c-0.7,1,0.8,2.1-0.1,3.2
		c-1.8,0.1-1.1-1.9-2-2.5C44.5,182.2,47.1,180.9,50.2,180.3z"/>
	<path class="st33" d="M28.3,182.8c0.7-0.1,1.5,0.4,1.2,0.8c-0.6,0.8-1.6,1.5-2.5,1.8c-0.8,0.3-1.4-0.7-1.5-1.4
		C25.4,181.7,28,184.8,28.3,182.8z"/>
	<path class="st8" d="M67.3,191.1c-0.5,0.8,2.5,3.6-1.5,2.5c-0.6-0.2-1.4,0.7-2.1,1.1C64.3,193,64.8,191.1,67.3,191.1z"/>
	<path class="st34" d="M55.7,202.8c-0.3-0.5-0.5-1-0.8-1.5c0.1-0.8-1.5-1.2-0.5-2.2c0.6-0.6,1.3-0.7,2-0.2c1,0.6,0.3,1.3,0.1,1.9
		C56.3,201.5,56,202.2,55.7,202.8z"/>
	<path class="st35" d="M73,181.9c-0.7,1.3-1.4,2.6-2.1,3.9c0.1-2,0.6-3.9,1.9-6.3C72.8,180.8,72.9,181.3,73,181.9z"/>
	<path class="st36" d="M182.1,83.6c2,0.5,3.3,1.5,3.1,3.7l-0.4,0c0,0-0.4,0.1-0.4,0.1C184.6,85.5,181.4,85.7,182.1,83.6z"/>
	<path class="st11" d="M91.4,4.1C91.6,4.1,91.8,4,92,3.9c0.2,1.5,1.2,2.6,2.4,2.3c1.8-0.3-0.4-2.1,0.6-3c1.6,0.1,0.7,2,1.8,2.4
		c-1.6,1.7-3.5,3-6,3C90.2,7.1,91.5,5.7,91.4,4.1z"/>
	<path class="st37" d="M91.4,4.1c0.7,1.6-0.4,3-0.5,4.5c-1.6-0.1-2,1.9-3.5,1.8c0.2-0.8-2.1-2.5,1.1-2.2c2,0.2,2.2-2.1,2.4-3.9
		C91,4.3,91.2,4.2,91.4,4.1z"/>
	<path class="st38" d="M109.5,5c-0.5,0.3-0.9,0.7-1.4,1c-0.7-0.2-1.3-1-2.2-0.6c0.2-0.5,0.4-1.1,0.6-1.6C108,2.9,108.8,3.7,109.5,5z
		"/>
	<path class="st9" d="M38.8,126.9c0.1,0.2,0.3,0.6,0.4,0.6c1.1-0.3,2.6-1.2,3.2,0.4c0.8,1.9-2.3,0.4-2.2,2.1
		c-1.7-1.1-3.5,0.8-5.2-0.1c1.7-0.7,1.3-1.4-0.1-2.1C36.1,126.8,37.5,127,38.8,126.9z"/>
	<path class="st39" d="M36.9,135.1c-1.5,0.1-3,0.2-4.5,0.2c-0.2-1.6,0.6-2,2-1.4C35.2,134.2,36,134.7,36.9,135.1z"/>
	<path class="st1" d="M38.6,101.5c1.8,0.4,3.5,0.8,5.3,1.3C41.8,103.7,39.7,104.8,38.6,101.5z"/>
	<path class="st2" d="M75.7,99.4c-0.1,0.8-0.4,1.7,1,1.4c-1.5,0.8-2.3,2-1.9,3.7c-0.2,0.1-0.4,0.1-0.5,0.1
		C73.7,102.6,73.2,100.6,75.7,99.4z"/>
	<path class="st40" d="M21.9,118.3c1.3-1.2,2.6,0.5,4.2-0.1c-1.9,0.5-0.7,2.4-1.7,3.1C21.1,122.3,22.9,119.2,21.9,118.3z"/>
	<path class="st41" d="M121.9,77c1.4,0.3,1.9,2.3,3.6,1.8c1.8,1.6,3.6,0,5.2-0.3c3.4-0.8,6.5,1.2,9.8,0.6c1.4,1.4,0.2,2.2-0.6,3.1
		c-0.3,0.2-0.6,0.4-0.9,0.4c-1.2-0.1-2.3,0.2-3.3,0.6c-1.1,0.8-2.8-1.1-3.8,0.8c-1.5-1.6-2.7,0-4.1,0.3c-1.3,0.4-2.6,0.4-3.8-0.3
		c-1.8-1.4-5.1-2.3-1.4-5.2C122.4,78.3,122.1,77.7,121.9,77z"/>
	<path class="st28" d="M113.2,67.2c-1.2-2.3-1.5-4.8-1.8-7.4c2.2,2.8,2.7,6.1,2.6,9.5c-0.2-0.3-0.4-0.5-0.7-0.8
		C113.3,68.1,113.2,67.7,113.2,67.2z"/>
	<path class="st42" d="M120.3,82c0-0.7-0.1-1.4-0.1-2.1c0.8-0.3,1.6-0.7,2.4-1c-2.2,2.5,1,2.5,1.7,3.6
		C122.6,84.5,121.3,84.8,120.3,82z"/>
	<path class="st23" d="M24.9,203.7c0,0.5,0.1,1.1,0.1,1.6c-2.7,0.8-4.7-0.7-6.8-2.5C20.8,200.5,22.5,205,24.9,203.7z"/>
	<path class="st43" d="M13.8,200.8c1.5-2.2,2.6-3.9,4.9-1C17,200.2,15.6,200.4,13.8,200.8z"/>
	<path class="st43" d="M84.2,163.3c2-1.4,3.9-1.9,5.4,0.7C87.8,163.8,86,163.5,84.2,163.3z"/>
	<path class="st44" d="M163.2,97.8c0.1-0.2,0.2-0.5,0.4-0.7c-0.7-2.1-2.5-3.5-3.6-5.3c-1.7-3.5-5.9-3.2-8.3-5.7
		c-1-1-2.7-1.5-2.6-3.4c0.6-0.8,0.7-2.5,2.3-1.8c5.2,2.5,9.9,5.8,14.1,9.7c0.4,0.4,0.4,1.2,0.5,1.8c1.5,1.6,3.1,3,3.5,5.3
		c1.4,0.7,0.7,1.8,0.5,2.9l0,0c-1,1.9,1,4.9-2.2,6l-0.3,0l-0.3,0.1c-1.2,4.3-1.3,4.3-4.2,2.4c0.9-1.8-0.3-3.5-0.3-5.2
		C164.3,102,161.6,99.6,163.2,97.8z"/>
	<path class="st11" d="M142.3,82.7c-1.1,0.1-1.8-1.8-3.1-0.6c-0.3-1.3,1.7-1.6,1.3-3C145,78.4,142.5,81.1,142.3,82.7z"/>
	<path class="st30" d="M113.3,158.9c1.1,0,2.3-0.5,3,0.6c0.2,0.4-0.2,1.3-0.5,2c-0.6,1.2-1.8,0.6-2.8,0.9c-0.1-0.4-0.2-0.9-0.3-1.3
		C112.9,160.3,113.1,159.6,113.3,158.9z"/>
	<path class="st45" d="M109,164c-1.6,1.9-3,0.1-4.4-0.4c0.7-1.3,3-0.4,3-3.2C108.2,162.2,108.6,163.1,109,164z"/>
	<path class="st45" d="M112.1,161.1c-0.1,0.8,0.1,1.7-0.8,2.2c-1.1-0.7-1.4,1-2.3,0.7C108,160.8,111.2,162.3,112.1,161.1z"/>
	<path class="st42" d="M110.7,144.4c-0.3-0.3-0.6-0.5-1-0.8c0.3-1.1,0.3-2.1-0.6-3c0.9,0.1,1.9,0.1,2.8,0.2
		c-0.3,1.2-0.5,2.4-0.8,3.5C111,144.4,110.8,144.4,110.7,144.4z"/>
	<path class="st46" d="M148.6,112.4c0,0.2,0.1,0.4,0.1,0.6c-0.9,1.2-0.3,2.6-0.5,3.9c-3,0.8-6.1-0.1-9.1,0.4c0-0.6-0.1-1.6,0.5-1.5
		C143,115.8,145,112.1,148.6,112.4z"/>
	<path class="st3" d="M148.7,115.2c1.8-0.1,2.7-2.8,4.6-2c2,0.8,1.9-2.1,3.5-1.5c2.2,0,5.3,2.7,5.9-2c0-0.2,0.1-0.5,0.2-0.7
		c2.5,1.2,3.2-1,4.2-2.4c-0.4,2.8,0.8,5.8-1.3,8.4c-0.7,0.8-1.1,1.5-2.3,1.5c-3.4,0.1-6.8-0.2-10.1,1c-0.2,0.1-0.6-0.4-0.9-0.6
		c-0.9-0.7-1.9-0.2-2.8-0.3C148.9,116.5,148.2,116.3,148.7,115.2z"/>
	<path class="st47" d="M148.7,115.2c1,1.2,2.8,0.4,3.8,1.6c-1.4,0-2.9,0-4.3,0c0-1.7-1.8,0.1-2.2-1.3c0.8-0.8,1.8-1.6,2.7-2.5
		C149.7,113.7,148.6,114.5,148.7,115.2z"/>
	<path class="st15" d="M167.7,106.5c2.6-1.3,0.1-4.5,2.2-6C169.7,102.8,172.4,106,167.7,106.5z"/>
	<path class="st15" d="M109.2,94.6c2.3-0.6,2.6,1,3.1,2.4C111.3,96.2,110.3,95.4,109.2,94.6z"/>
	<path class="st48" d="M131.8,83.8c-1.5,1.4-2.7,0.8-3.8-0.5c0.9-0.8,1.7-1.6,2.8-2.5C131,81.8,131.4,82.8,131.8,83.8z"/>
	<path class="st11" d="M139.2,82.1c-1.3,0.1-2.5,0.1-3.8,0.2C136.6,81.3,137.8,78.8,139.2,82.1z"/>
	<path class="st49" d="M162.6,109.7c1.6,2.3,0.3,3.5-1.8,3.2c-2.1-0.3-2.3,1.5-3.6,2.4c-0.2-1.3-0.3-2.4-0.4-3.6
		c0.4-1.5,1.5-0.6,2.3-0.8C160.8,112.2,161.9,111.5,162.6,109.7z"/>
	<path class="st49" d="M160,91.7c2,1.3,3.4,2.9,3.6,5.3C162.1,95.5,160.7,93.8,160,91.7z"/>
</g>
</svg>
