<?xml version="1.0" encoding="utf-8"?>
<!-- Generator: Adobe Illustrator 27.1.0, SVG Export Plug-In . SVG Version: 6.00 Build 0)  -->
<svg version="1.1" id="Capa_1" xmlns="http://www.w3.org/2000/svg" xmlns:xlink="http://www.w3.org/1999/xlink" x="0px" y="0px"
	 viewBox="0 0 203.6 155.3" style="enable-background:new 0 0 203.6 155.3;" xml:space="preserve">
<style type="text/css">
	.st0{fill:#FEFEFF;}
	.st1{fill:#020103;}
	.st2{fill:#050506;}
	.st3{fill:#1F1F26;}
	.st4{fill:#19191E;}
	.st5{fill:#1B1B1F;}
	.st6{fill:#020203;}
	.st7{fill:#040405;}
	.st8{fill:#020202;}
	.st9{fill:#15151A;}
	.st10{fill:#08080B;}
	.st11{fill:#302F34;}
	.st12{fill:#141416;}
	.st13{fill:#121215;}
	.st14{fill:#181819;}
	.st15{fill:#141417;}
	.st16{fill:#100F10;}
	.st17{fill:#313134;}
	.st18{fill:#000001;}
	.st19{fill:#030304;}
	.st20{fill:#313133;}
	.st21{fill:#010102;}
	.st22{fill:#131315;}
	.st23{fill:#060606;}
	.st24{fill:#040404;}
	.st25{fill:#2C2A2A;}
	.st26{fill:#010101;}
	.st27{fill:#59585B;}
	.st28{fill:#6E6C6D;}
	.st29{fill:#1D1C1E;}
	.st30{fill:#5C5C5B;}
	.st31{fill:#B6B5B5;}
	.st32{fill:#9A9596;}
	.st33{fill:#B4B4B4;}
	.st34{fill:#A3A5A5;}
	.st35{fill:#666465;}
	.st36{fill:#B7B6B6;}
	.st37{fill:#515054;}
	.st38{fill:#969794;}
	.st39{fill:#6F676B;}
	.st40{fill:#686768;}
	.st41{fill:#545251;}
	.st42{fill:#868581;}
	.st43{fill:#8F8D8D;}
	.st44{fill:#C1BFBF;}
	.st45{fill:#B5B5B3;}
	.st46{fill:#4A4949;}
	.st47{fill:#626164;}
	.st48{fill:#C6C4C5;}
	.st49{fill:#888789;}
	.st50{fill:#29292D;}
	.st51{fill:#070708;}
	.st52{fill:#030303;}
	.st53{fill:#060608;}
	.st54{fill:#161618;}
	.st55{fill:#040406;}
	.st56{fill:#18181A;}
	.st57{fill:#070709;}
	.st58{fill:#E4E3E6;}
	.st59{fill:#1B1B1D;}
	.st60{fill:#1B1B1C;}
	.st61{fill:#181719;}
	.st62{fill:#DFDFE1;}
	.st63{fill:#E8E7E9;}
	.st64{fill:#ABA9A9;}
	.st65{fill:#7A7B7F;}
	.st66{fill:#737374;}
	.st67{fill:#C4C2C2;}
	.st68{fill:#2D2D2F;}
	.st69{fill:#26262A;}
	.st70{fill:#020204;}
	.st71{fill:#080709;}
	.st72{fill:#050405;}
	.st73{fill:#151615;}
	.st74{fill:#080808;}
	.st75{fill:#050404;}
	.st76{fill:#0B0B0D;}
	.st77{fill:#141316;}
	.st78{fill:#171617;}
	.st79{fill:#0C0B0C;}
	.st80{fill:#EAE9ED;}
	.st81{fill:#100F12;}
	.st82{fill:#313032;}
	.st83{fill:#181A1C;}
	.st84{fill:#4A4A4F;}
	.st85{fill:#97989B;}
	.st86{fill:#7D7B7B;}
	.st87{fill:#878788;}
	.st88{fill:#817F7F;}
	.st89{fill:#575452;}
	.st90{fill:#3C393A;}
	.st91{fill:#535152;}
	.st92{fill:#AEAEB0;}
	.st93{fill:#AEADAE;}
	.st94{fill:#4E4D4C;}
	.st95{fill:#A3A09F;}
	.st96{fill:#575454;}
	.st97{fill:#59585A;}
	.st98{fill:#747376;}
	.st99{fill:#939093;}
	.st100{fill:#7D7A7B;}
	.st101{fill:#767577;}
	.st102{fill:#858484;}
	.st103{fill:#FEFEFE;}
	.st104{fill:#030203;}
	.st105{fill:#080608;}
	.st106{fill:#EDECEE;}
	.st107{fill:#807F7F;}
	.st108{fill:#433F41;}
	.st109{fill:#333335;}
	.st110{fill:#323136;}
	.st111{fill:#050507;}
	.st112{fill:#08070C;}
	.st113{fill:#C9CACD;}
	.st114{fill:#302F32;}
	.st115{fill:#8A8889;}
	.st116{fill:#464544;}
	.st117{fill:#58595A;}
	.st118{fill:#F7F7F7;}
	.st119{fill:#F8F8F7;}
	.st120{fill:#777674;}
	.st121{fill:#2C2C2E;}
	.st122{fill:#313135;}
	.st123{fill:#555251;}
	.st124{fill:#363638;}
	.st125{fill:#FDFCFD;}
	.st126{fill:#343336;}
	.st127{fill:#4A494A;}
	.st128{fill:#424143;}
	.st129{fill:#2F2E31;}
	.st130{fill:#0E0E11;}
	.st131{fill:#F7F7F8;}
	.st132{fill:#FAF9FB;}
	.st133{fill:#4F4E50;}
	.st134{fill:#E7E6E7;}
	.st135{fill:#FDFDFE;}
	.st136{fill:#A39C9A;}
	.st137{fill:#363538;}
	.st138{fill:#FEFDFE;}
	.st139{fill:#202022;}
	.st140{fill:#858485;}
	.st141{fill:#F9F9FA;}
	.st142{fill:#FBFAFB;}
	.st143{fill:#0A0A0D;}
	.st144{fill:#535155;}
	.st145{fill:#323236;}
	.st146{fill:#040305;}
	.st147{fill:#111113;}
	.st148{fill:#3E3E3F;}
	.st149{fill:#B2AFB3;}
	.st150{fill:#888788;}
	.st151{fill:#0A0A0C;}
	.st152{fill:#EEEDF2;}
	.st153{fill:#5B5958;}
	.st154{fill:#151415;}
	.st155{fill:#F6F6F6;}
	.st156{fill:#D5D4D7;}
	.st157{fill:#6F6F71;}
	.st158{fill:#787575;}
	.st159{fill:#4A4948;}
	.st160{fill:#2D2D31;}
	.st161{fill:#151417;}
	.st162{fill:#1B1A1F;}
	.st163{fill:#FCFCFC;}
	.st164{fill:#F7F6F8;}
	.st165{fill:#1A181C;}
	.st166{fill:#F6F5F5;}
	.st167{fill:#D8DADE;}
	.st168{fill:#BBB9BC;}
	.st169{fill:#0B0A0C;}
	.st170{fill:#F6F7FA;}
	.st171{fill:#333234;}
</style>
<g>
	<path class="st0" d="M200.4,129.9c-0.1,0.4-0.2,0.7-0.3,1.1c-0.4,1.1-1.2,1.4-2.3,1.1c2.5,4,4.5,8,5.2,12.6c0.3,2,0.3,4.1-0.3,6
		c-0.7,2.2-2.7,3.7-4.8,3.6c-0.7-0.2-1.5-0.4-2.2-0.6c-2-1-2.9-2.8-3.6-4.7c-1.1-2.6-1.2-5.3-1.1-8.1c0.1-3.5,0.4-7-0.3-10.4
		c-0.6-2.9-1.1-3.6-4.1-3.8c-4.9-0.4-9.6-1.5-14.5-2c-0.4,0-0.7-0.1-1.1-0.2c-1.1-0.2-2.1-0.7-3.2-0.7c-1.1-0.1-2.1-0.5-3.2-0.8
		c-4-1.1-8.1-2.2-12.1-3.2c-0.8-0.2-1.5-0.4-2.2-0.7c-0.9-0.6-2-0.7-3-1c-0.8-0.2-1.5-0.4-2.2-0.8c-3.3-1.6-6.9-2.6-10.3-3.9
		c-0.5-0.2-1.1-0.4-1.6-0.7c-2.2-1-4.6-1.5-7-2c-2.6,0-5.1-0.8-7.7-0.8c-3.1,0-6.2,0-9.2,0.1c-0.1,0-0.2-0.1-0.3-0.2
		c-0.1-0.1-0.1-0.2,0-0.4c0.1-0.4,0.4-0.9-0.2-1.2c-0.5-0.3-1.1-0.1-1.5,0.1c-0.8,0.4,0.2,1-0.1,1.5c-0.9,0.4-1.9,0.6-2.9,0.2
		c-0.3-0.5,0.1-0.7,0.4-0.8c0.2-0.1,0.5-0.2,0.4-0.5c-0.1-0.3-0.4-0.2-0.6-0.3c-1.5-0.5-3-0.7-4.4-1.3c-0.6-0.3-1.5-0.5-1.5-1.5
		c1.1-0.7,2.3-0.5,3.5-0.7c4.4-0.6,8.9-0.7,13.3-0.5c0.5,0,0.9,0,1.4,0.1c1.2,0,2.3,0.3,3.5,0.2c0.9,0.1,1.7,0.4,2.6,0.6
		c1.3,0.3,2.6,0.9,4,0.9c2.6,0.5,5.2,1.2,7.8,2.1c1.1,0.7,2.4,0.8,3.7,1.2c3.7,0.8,7,2.6,10.6,3.7c0.9,0.5,1.8,0.7,2.8,0.9
		c3.9,1.3,7.9,2.4,11.8,3.4c0.9,0.3,1.9,0.5,2.9,0.8c1.2,0.3,2.4,0.8,3.7,0.8c1.3,0.3,2.6,0.4,3.9,0.7c1.4,0.3,2.7,0.8,4,1.1
		c0.2,0,0.5,0.1,0.7,0.2c-0.2-0.2-0.4-0.2-0.7-0.2c-1.7-0.5-3.4-1.1-5.2-1.5c-0.9-0.2-1.7-0.4-2.6-0.8c-1-0.5-2-0.8-3.1-0.9
		c-2.6-0.9-5.2-2-7.9-2.9c-0.8-0.5-1.8-0.6-2.7-0.9c-3.1-0.8-5.9-2.2-8.9-3.3c-1.1-0.6-2.4-0.8-3.6-1.1c-3-0.8-5.9-1.7-8.7-2.9
		c-2-0.9-4.1-1.4-6.3-1.7c-3.9-0.8-7.8-1.4-11.7-2.3c-0.1,0-0.3-0.1-0.4-0.1c-1.8,0-3.5-0.3-5.3-0.2c-0.5-0.1-1.1-0.2-1.6-0.6
		c-0.2-1-1.1-2-0.3-3.1c0.6-0.2,1.2-0.1,1.9-0.1c2.3-0.1,4.4,0.5,6.7,0.9c0.9,0.2,1.8,0.3,2.7,0.3c0.6,0,1.2,0.2,1.8,0.4
		c0.7,0.2,1-0.1,0.7-0.7c-1.2-2.5-2.7-4.8-5-6.5c-1-0.8-2.3-1.3-3.1-2.4c0.1-0.8,0.8-0.5,1.5-0.9c-1.5-0.5-2.3-1.8-3.9-1.9
		c-0.9-0.1-1.7-0.6-1.8-1.7c0.5-0.4,1-0.1,1.6,0c5.2,1.2,9.5,3.9,12.4,8.5c1,1.6,1.8,3.4,2.1,5.3c0.2,0.9,0.6,1.3,1.4,1.6
		c3.1,0.8,6.3,1.7,9.4,2.5c0.6,0.2,1.3,0.3,1.9,0.6c1.6,0.7,3.3,1,4.9,1.4c3.8,1.3,7.5,2.8,11.4,4c4.1,1.2,7.9,3.1,11.9,4.3
		c0.9,0.3,1.9,0.5,2.8,0.8c0.9,0.2,1.6,0.7,2.5,0.9c1.3,0.4,2.7,0.7,4,1.3c0.5,0.2,0.9,0.3,1.4,0.4c3.1,0.8,6.2,1.6,9.4,2.5
		c-0.9-1-2-1.7-2.9-2.6c-1.3-1-2.4-2.1-3.4-3.4c-0.1-0.6,0-1.2,0-1.8c-0.1-1.3,1-1.6,1.9-2.1c0.1,0,0.2-0.1,0.2,0
		c2.3,1.5,4.4,3.2,5.9,5.6c1.4,1.2,2.8,2.5,4.2,3.7c0.8,0.1,1.2,0.8,1.8,1.2c0.9,0.7,1.7,1.6,2.6,2.3c0.9,0.7,1.5,1.5,1.3,2.8
		c-0.1,0.8,0.4,1.4,0.5,2.2C200.6,129,200.6,129.5,200.4,129.9z"/>
	<path class="st1" d="M150.3,118.8c0.7,0.2,1.4,0.4,2.1,0.6c4.1,1.2,8.2,2.4,12.3,3.3c1,0.3,2.1,0.5,3.1,0.8c1.1,0,2.1,0.6,3.2,0.7
		c2.6,0.3,5.2,0.4,7.7,1c3.3,0.8,6.6,0.6,9.9,1.5c1,0.3,1.5,0.7,1.7,1.7c0.8,2.8,1,5.6,0.9,8.6c-0.1,4.1-0.5,8.3,1.1,12.3
		c0.7,1.7,1.6,3.2,3.2,4.2c0.8,0.4,1.6,0.6,2.5,0.7c2.6-0.2,4.4-2.7,4.6-5.4c0.5-6.1-2-11.2-5.1-16.2c-0.1-0.1-0.2-0.3-0.2-0.4
		c-0.1-0.1-0.1-0.3-0.4-0.7c1.4,0.7,2.4,0.6,3.1-0.5c0,0.2,0.1,0.4,0.1,0.6c-1.3,1.4-1.4,1.8-0.4,3.4c1.8,2.9,2.8,6.1,3.5,9.3
		c0.5,2.5,0.6,5.2-0.8,7.6c-1.3,2.2-3.4,3-5.8,3.2c-0.4,0-0.8-0.1-1.1-0.4c-1.1-1-2.2-2-2.9-3.3c-1.8-3.3-2.4-6.9-2.2-10.7
		c0.2-3.7,0.2-7.4-0.3-11c-0.2-1.5-0.8-2-2.2-2c-1.4,0-2.7-0.5-4-0.9c-0.8-0.2-1.6-0.4-2.3-0.3c-1.8,0.2-3.6-0.1-5.3-0.7
		c-1.4-0.5-3-0.4-4.4-0.5c-1.1-0.1-2.2-0.2-3.3-0.5c-6.9-1.9-13.8-3.7-20.8-5.5c-1-0.3-1.7-0.9-2.6-1.4c-1.3-0.8-2.9-1.1-4.4-1.5
		c-1.7-0.4-3.3-1.1-4.7-2.1c-0.4-0.3-0.9-0.4-1.4-0.6c-2.4-0.6-4.9-1.1-7.2-2c-2-0.7-4-0.9-6.1-0.7c-0.9,0.1-1.8-0.4-2.7-0.4
		c-3.2,0-6.3-0.2-9.5-0.1c-0.4-0.2-0.7-0.4-0.3-0.8c3.1-0.3,6.1-0.3,9.2-0.2c2.7,0,5.3,0.8,8,0.9c2.5,0.5,4.9,1.2,7.3,1.9
		c0.4,0.2,0.7,0.5,1.2,0.6c3.6,1.1,7.2,2.4,10.7,3.9c0.7,0.3,1.5,0.6,2.2,0.9C148.3,118.4,149.4,118.3,150.3,118.8z"/>
	<path d="M152.1,81.1c2,1.8,4,3.5,6,5.3c2,1.8,4,3.5,6,5.4c2,1.8,4,3.5,6,5.3c1.3,1.2,2.7,2.5,4.1,3.6c0.8,0.7,1.5,1.5,2.3,2.2
		c0.1,0.4,0.1,0.6-0.3,0.8c-0.5,0.1-0.8-0.3-1.1-0.6c-6.6-6-13.2-11.9-19.9-17.9c-1.2-1.1-2.7-2-3.5-3.5
		C151.8,81.5,151.9,81.2,152.1,81.1z"/>
	<path class="st2" d="M176.1,103.5c0.3-0.1,0.3-0.4,0.4-0.6c3.1,2.2,5.4,5.1,8.4,7.4c1.7,1.3,3.3,2.8,4.7,4.4c0.5,0.5,0.6,1,0.3,1.6
		c-1.9-1.9-3.8-3.9-6-5.5c-0.5-0.1-0.8-0.4-1.1-0.7c-2.1-1.8-4-3.8-6.1-5.5C176.4,104.4,175.9,104.1,176.1,103.5z"/>
	<path class="st3" d="M135.9,66.4c1.3,0.4,1.8,1.8,3,2.3c0.1,0.3,0.2,0.6,0.4,0.7c1.8,1.1,3.1,2.9,4.6,4.2c0.6,0.5,1.4,0.7,1.8,1.5
		c-0.1,0.4-0.4,0.7-0.8,0.7c-0.3-0.1-0.5-0.2-0.7-0.3c-2.7-2.5-5.6-4.8-8.2-7.4c-0.2-0.2-0.3-0.4-0.4-0.6
		C135.6,67.1,135.5,66.7,135.9,66.4z"/>
	<path class="st4" d="M200.4,129.9c-0.1-0.9-0.2-1.9-0.7-2.7c-0.1-0.2-0.2-0.4-0.1-0.6c0.5-1.6-0.6-2.4-1.6-3.3
		c-1.3-1.1-2.5-2.2-3.8-3.3c0.4-0.7,1-0.3,1.3-0.1c1.5,1.5,3.6,2.5,4.5,4.6c0.7,1.5,0.7,3,0.9,4.5
		C201,129.5,200.7,129.8,200.4,129.9z"/>
	<path class="st5" d="M145,75.8c0.2-0.2,0.4-0.4,0.7-0.6c1.7,1.4,3.5,2.8,5,4.4c-0.4,0.2-0.8,0.2-1.2,0.3c-0.5,0-0.8-0.3-1.1-0.6
		C147.3,78.2,145.8,77.3,145,75.8z"/>
	<path class="st6" d="M149.6,79.9c0.3-0.6,0.7-0.2,1.1-0.2c0.5,0.5,0.9,1,1.4,1.4c-0.1,0.2-0.1,0.5-0.2,0.7
		C150.8,81.6,150,80.9,149.6,79.9z"/>
	<path class="st7" d="M108.9,109.9c-0.1,0.3,0.2,0.5,0.3,0.8c-1.1,0.6-2.3,0-3.5,0.4c-3.7,0.3-7.4,0.8-11,1.4
		c-3.3,0.6-6.6,1.3-9.9,1.7c-3.2,0.4-6.4,1.3-9.6,1.9c-2.1,0.4-4.3,0.6-6.5,0.9c-2,0.3-4.1,0.6-6.1,0.8c-0.1,0-0.2,0-0.4,0
		c-3.8,0.5-7.6,0.8-11.5,0.6c-1.8-0.1-3.6-0.3-5.4,0c-1.1,0.2-2.2-0.3-3.3-0.3c-2.7,0-5.3-0.3-7.8-1.2c-0.8-0.3-1.6-0.3-2.4-0.4
		c-1.2-0.4-2.5-0.6-3.8-0.5c-0.8,0-1.6-0.1-2.3-0.3c-2.4-0.7-4.7-1.3-7.1-1.9c-2.3-0.5-4.4-1.4-6.3-2.7c-0.7-0.4-1.6-0.6-2.4-0.4
		c-2.4,0.4-4.7-0.4-6.9-1.2c-1.5-0.5-2.1-2-2.6-3.4c-0.9-2.5,0.4-4.8,1.2-7c0.9-2.3,1.7-4.6,1.7-7.2c0-1.8,0.2-3.7,0.8-5.5
		c0.4-1.1,0.2-2.2,0.4-3.3c0.3-0.5,0.5-0.9,1.1-0.3c0.2,1.2,0,2.3-0.2,3.4c-0.3,2.1-0.7,4.2-0.8,6.3c-0.1,3.1-1.3,5.9-2,8.8
		c-0.3,0.9-0.6,1.8-0.7,2.8c-0.1,1.5-0.2,3,1.3,4c1.1,0.5,2.3,0.8,3.5,0.9c3.5-0.1,6.8,1.1,10,2.4c1.4,0.7,2.9,0.9,4.4,1.3
		c2.7,0.7,5.3,1.6,8,2.1c3.8,0.1,7.4,1.2,11.1,1.6c6.2,0.7,12.4,0.9,18.7,0.4c8.4-0.6,16.6-2.1,24.8-3.6c6.3-1.2,12.7-2.3,19.1-3.2
		c0.5-0.1,1.1-0.2,1.6,0.2c1,0,2-0.1,2.9-0.3C107.7,109.5,108.3,109.3,108.9,109.9C108.9,109.8,108.9,109.8,108.9,109.9z"/>
	<path class="st8" d="M96.4,31c2.5,2.2,5,4.5,7.5,6.7c2.5,2.3,5.1,4.5,7.6,6.8c2.6,2.3,5.2,4.6,7.7,6.9c2.4,2.1,4.7,4.2,7.1,6.3
		c0.2,0.4,0,0.6-0.3,0.8c-0.6,0-1-0.4-1.4-0.7c-9.4-8.3-18.6-16.8-28.1-25c-0.3-0.3-0.7-0.6-0.8-1.1C95.8,31.2,95.9,30.8,96.4,31z"
		/>
	<path class="st8" d="M60.4,1.4c-0.2-0.1-0.5-0.2-0.5-0.5c0-0.3,0.3-0.3,0.6-0.4c0.8-0.3,1.7,0,2.4-0.6c3.9,0.1,7.3,1.2,10.3,3.8
		c2.3,2,3.8,4.5,4.7,7.4c-0.2,1.7,0.1,3,1.7,4.2c1.5,1.1,2.9,2.5,4.2,3.9c0.2,0.4,0.1,0.6-0.3,0.8c-0.2,0-0.3,0-0.5-0.1
		c-2.1-1.6-3.9-3.5-5.8-5.2c-0.5-0.4-0.5-1.2-0.4-1.8c0.4-3.3-1.5-5.5-3.5-7.7c-0.7-0.7-1.5-1.3-2.4-1.7c-0.7-0.5-1.5-0.8-2.3-1.1
		c-1.2-0.6-2.5-0.9-3.9-1.1c-1.1-0.2-2.1-0.2-3.2,0.1C61.1,1.6,60.7,1.7,60.4,1.4z"/>
	<path class="st9" d="M83.3,20c0.4-0.1,0.4-0.4,0.5-0.7c0.7,0.3,1,1.1,1.7,1.5c0.3,0.3,0.7,0.7,1,1.1c1.8,1.7,3.7,3.4,5.5,5.1
		c1.5,1.3,3.1,2.6,4.4,4.1c-0.2,0.2-0.4,0.4-0.7,0.5c-1.3-0.2-1.9-1.2-2.8-2c-3-2.7-6-5.5-9-8.3C83.7,20.9,83.2,20.6,83.3,20z"/>
	<path class="st10" d="M125.8,58.3c0.4-0.1,0.4-0.4,0.5-0.7c1.1,0.5,1.7,1.4,2.5,2.1c2.2,2,4.3,4.2,6.7,6.1c0.2,0.1,0.3,0.3,0.4,0.5
		c0,0.4,0,0.7,0,1.1c-0.6,0.1-0.9-0.3-1.3-0.6c-2.6-2.5-5.3-4.8-8-7.2C126.2,59.2,125.7,58.9,125.8,58.3z"/>
	<path class="st11" d="M86.5,21.8c-0.6-0.1-0.9-0.5-1-1.1C86.1,20.8,86.5,21.2,86.5,21.8z"/>
	<path class="st0" d="M60.4,1.4c1.4-0.2,2.7-0.7,4.1-0.3c1.4,0.3,2.8,0.6,4.2,1.1c0.8,0.3,1.6,0.5,2.3,1.1c-0.8,1.2-0.6,1,0.7,1.8
		c1.7,1.1,3.2,2.6,4,4.7c0.9,2.3,0.1,4.4-0.4,6.5c-0.1,0.7-0.2,1.2,0.4,1.7c0.7,0.7,0.4,1.1-0.2,1.6c-4.7,1.9-9.2,4-13.4,7.2
		c1.6,0.9,3.3,1.3,4.8,1.9c1,0.4,2.1,0.7,3.1,0.8c3.9,0.7,7.6-0.2,11.3-1.2c0.9-0.2,1.7-0.6,2.7-0.6c1.6,0.3,1.8,0.7,0.9,2.6
		c-0.2,0.4-0.5,0.6-0.8,0.8c-3.8,2.4-7.9,2.8-12.2,2.2c-3.8-0.5-7.2-1.8-10.3-4c-1.5-1.1-1.7-1.1-3.1,0.1c-0.3,0.3-0.6,0.6-0.9,0.9
		C52.4,35,48.2,40.4,44.2,46c3.2,1,3.8,3.6,4,6.4c0.3,1.5,0.3,3,0,4.4c-0.2,1.1-0.1,2.2-0.4,3.3c-0.2,0.8-0.4,1.5-0.6,2.3
		c-0.1,0.5-0.2,0.9-0.7,1.2c-0.6-1-1.7-1.1-2.6-1.6c-0.1-0.6,0.1-1.2,0.3-1.7c0.4-2.7,0.8-5.4,0.1-8.1c-0.3-1.1-0.7-2.2-1.7-3
		c-0.2-0.2-0.5-0.4-0.8-0.1c-1.3,2.7-3.1,5.1-4.4,7.8c-0.1,0.2-0.3,0.4-0.5,0.5c-1.1-0.2-0.9-0.9-0.6-1.6c0.3-0.6,0.7-1,1-1.6
		c0.2-0.4,0.5-0.8,0.3-1.3c-1.5,0.5-1.7,0.9-1.6,2.2c0.1,0.6-0.2,0.9-0.6,1.1c-0.4,0.2-0.9,0.3-1.2-0.2c-0.3-0.4-0.7-0.7-0.8-1.2
		c0.2-1.2,0.9-2.2,1.6-3.2c1.2-1.6,1-3.1-0.1-4.5c-0.5-0.6-1-1.1-1.2-1.9c0-0.7,0.5-1,1.1-1.1c1,0.2,1.4,1.1,2,1.8
		c0.3,0.4,0.5,0.8,1,1.3c0.8-1.3,1.1-2.5,0.3-3.8c-0.2-0.4-0.5-0.8-0.4-1.3c0.2-0.7,0.7-1,1.4-1c0.6,0.2,0.9,0.7,1.1,1.3
		c0.1,0.2,0.1,0.5,0.3,0.4c0.3,0,0.4-0.2,0.5-0.5c0.2-0.6,0.1-1.1-0.2-1.5c-0.6-0.7-0.8-1.6-1.3-2.4c-0.2-0.2-0.2-0.5-0.1-0.8
		c0.5-0.5,1-0.3,1.4,0c0.5,0.3,0.8,0.7,1.2,1.1c0.9,1.1,0.9,1.1,1.6-0.1c2.3-3.1,4.9-6,7.6-8.7c1.6-1.3,3-2.9,4.6-4.1
		c0.4-0.3,0.4-0.7,0.2-1.1c-0.3-0.6-0.7-1.1-1.1-1.6c-0.6-0.9-1.7-1.5-2.1-2.6c0.3-1,1.1-0.9,1.9-0.9c1.3,0.4,1.9,1.6,2.8,2.5
		c1.2,1.6,1.2,1.6,2.8,0.4c0.6-0.5,0.7-0.9,0.3-1.6c-0.4-0.8-1.2-1.2-1.4-2c0.3-0.8,0.9-1,1.6-1c0.9,0.4,1.5,1.1,2.1,1.9
		c0.2,0.3,0.4,0.6,0.8,0.4c0.5-0.3,0.2-0.7,0-1c-0.2-0.4-0.6-0.7-0.9-1.1c-0.5-0.6-0.7-1.3-0.1-1.9c0.7-0.6,1.3-0.2,1.8,0.3
		c0.2,0.2,0.4,0.4,0.6,0.6c0.7,1.2,1.6,1.4,2.8,0.7c0.6-0.3,1.2-0.5,1.8-0.8c1.3-0.6,1.3-0.6,0.2-1.5c-1.8-1.9-4-3.3-6.3-4.5
		c-1.6-0.6-3.2-1-4.9-1.3c-3.4-0.7-6.1,0.2-8.5,2.9c-5.4,6-11.3,11.7-16.1,18.3c-0.7,0.9-1.4,1.7-2,2.7c-3.5,4.9-6.7,10-9.6,15.3
		c-1.1,2-1.8,4.1-3.3,5.9c-0.6,0.3-1.7-0.4-2,0.9c0.6-0.1,1.1-1.1,1.7-0.1c-0.5,1.8-1.3,3.5-2.4,5c-1.4,0.2-2.2,1-2.8,2.2
		c-0.2,0.4-0.5,1-1.2,0.9c-0.6-0.1-0.8-0.6-0.9-1.3c0,0-0.3,0.1-0.1,0.1c-0.1,0.7-0.4,0.9-1,0.4c-0.1-0.6,0.1-1.1,0.3-1.6
		c0.2-0.3,0.4-0.7,0.7-1c1.1,0,2-0.4,2.7-1.3c0.4-0.6,0.5-1,0.5-1.8c0-1.4-0.1-3,1.3-4.1c1.1-0.9,1.5-2.2,1.5-3.6
		c0-0.7,0-1.4,0.9-1.7c0.7-0.3,0.7-0.9,0.7-1.5c0-0.8,0.2-1.3,1-1.5c0.8-0.2,1.1-0.8,1.3-1.5c0.2-0.8-0.5-1-0.9-1.3
		c-0.1-0.2-0.1-0.4,0-0.6c2.3-4.3,5-8.3,7.8-12.2c1.1-1.6,2.2-3.3,3.6-4.8c4.2-5.3,8.7-10.3,13.7-14.8c0.5-0.4,0.9-0.9,1.6-0.9
		c0.2-0.1,0.3-0.3,0.5-0.4c0-0.4,0.3-0.7,0.6-0.9c2.4-2,5-3.8,8-4.9c0.7-0.2,1.3-0.4,2.1-0.3C59,2,59.7,1.8,60.4,1.4z"/>
	<path class="st12" d="M11.8,60.3c-0.2,0.3-0.1,0.8-0.5,0.9c-0.3,0.1-0.5,0.1-0.7-0.2c0.3-1.2,0.6-2.3,0.9-3.5
		c0.3-1,0.5-2.1,1.5-2.8c0.3-0.2,0.5-0.5,0.6-0.9c0.3-1.7,1.1-3.3,2.1-4.7c0.2-0.3,0.4-0.7,0.5-1.1c0.6-1.2,0.9-2.6,1.9-3.7
		c0.7-0.8,0.5-2.1,1.6-2.6c0.3-0.3,0.6-0.8,1.1-0.2c-0.1,0.1-0.1,0.3-0.2,0.4c0.1,0.4-0.1,0.8-0.3,1.2c-2.2,4.1-4.4,8.2-6.3,12.5
		c-0.1,0.2-0.2,0.4-0.4,0.6c-1,0.3-0.8,1-0.6,1.8C12.6,58.8,12.4,59.6,11.8,60.3z"/>
	<path class="st13" d="M47.1,8.7c-2.7,2.4-5.4,4.9-7.8,7.5c-2.5,2.7-4.9,5.5-7.2,8.4c-1-0.4-0.3-0.9-0.1-1.3
		c0.1-0.9,0.9-1.2,1.4-1.8c1.4-1.7,2.9-3.3,4.3-4.9c1.7-2,3.7-3.6,5.5-5.4c0.9-0.8,1.9-1.5,2.8-2.2C46.4,8.6,46.7,8.5,47.1,8.7z"/>
	<path class="st14" d="M32,23.3c0,0.4-0.6,0.9,0.1,1.3c-2,2.5-3.8,5.2-5.7,7.9c-2.1,2.9-3.9,6-5.8,9c-0.4-0.2-0.7,0.1-1.1,0.2
		c0.6-1.7,1.5-3.2,3-4.4c0.8-0.6,1.2-1.7,1.7-2.7c0.6-1.1,1.3-2.1,1.5-3.4c0-0.4,0.5-0.6,0.7-0.8c0.3-0.3,0.7-0.5,0.8-0.9
		c0.2-1.3,1.3-1.8,2.2-2.5c0.4-0.3,0.6-0.6,0.8-1C30.6,24.9,31.2,24,32,23.3z"/>
	<path class="st15" d="M58.2,2.1c-4.1,1.1-7.5,3.4-10.7,6.2c-0.2-1.7,1.3-2,2.1-2.9c0.6-0.6,1.6-0.8,2-1.7C53,3.6,54.2,3,55.3,2.4
		C56.3,1.8,57.2,1.7,58.2,2.1z"/>
	<path class="st16" d="M10.5,61c0.2,0.1,0.5,0.1,0.7,0.2c-0.2,0.5-0.3,1.1-0.5,1.6c0,1.9-0.9,3.5-1.5,5.2c-0.8,3.1-1.7,6.1-2.5,9.2
		c-0.3,1.3-0.4,2.7-0.8,4c-0.2,0.5-0.2,1.1-0.8,1.3c-0.3,0.2-0.6,0.4-0.9,0.5c-0.4-0.8-0.3-1.6-0.1-2.4c1.4-5.1,2.7-10.2,4.1-15.4
		c0.4-1.3,0.8-2.6,1.5-3.7C10,61.4,10.2,61.1,10.5,61z"/>
	<path class="st0" d="M9,67.8c0.6-1.7,1.2-3.3,1.7-5c0.8,0.2,0.9-0.3,1-0.9c0.1,0,0.2,0.1,0.2,0.1c0.4,0.4,0,1.5,0.9,1.3
		c0.6-0.1,1-0.9,1.3-1.5c0.5-1,1.1-1.7,2.4-1.3c0.3,0.4,0.2,0.8,0,1.2c-0.8,1.8-1.2,3.7-2.2,5.4c-0.8,1.4-0.9,3.1-1.5,4.6
		c-0.8,1.6-1,3.5-1.6,5.2c-0.1,0.6-0.3,1.2-0.6,1.7c-0.6,1.2-0.9,2.4-1,3.7c-0.1,0.9-0.4,1.8-0.6,2.6c-0.4,1.4-0.9,2.8-1,4.4
		c-0.1,0.8-0.3,1.6-0.5,2.4C7.3,92.6,7,93.4,7,94.4c0,0.6-0.3,1-0.5,1.5c-0.2,0.7-0.1,1.4,0,2.2c0-0.8-0.1-1.5,0-2.1
		c1.2-2.1,4.1-3.1,6.3-2.1c1.7,0.8,3,1.9,3.8,3.6c0.1-1.1,0.4-2.1,0.7-3.1c0.4-1.2,0.3-2.2-0.5-3.1c-0.4-0.5-0.8-1.2-1-1.8
		c-0.2-0.5-0.3-0.9-0.6-1.3c-0.5-1.3-1.3-2.5-0.9-4c0.2-0.2,0.4-0.3,0.7-0.2c0.8,0.4,1.2,1.1,1.6,1.7c0.7,1.2,1.4,2.4,2.1,3.6
		c0.5-1.7,0.1-3.2-0.7-4.5c-0.3-0.5-0.7-1.1-0.9-1.6c-0.2-0.7,0.1-1.1,0.9-1.1c1.3,0.2,1.7,1.4,2.5,2.3c0.3-1.4-0.3-2.5-0.7-3.6
		c-0.2-0.6-0.5-1.4,0.7-1.3c0.5,0.1,0.9,0.2,1.3,0.5c0.3,0.2,0.4,0,0.5-0.2c0.2-0.8,0.4-1.6,0.6-2.4c0.1-0.5,0.3-1,0.5-1.5
		c1.2-3.1,2.5-6.2,3.9-9.2c0.5-1.2,1.2-2.4,1.6-3.6c0.9-1.8,1.8-3.7,2.8-5.4c0.5-0.9,0.9-2,2-2.5c0.3,0.3,0.6,0.5,0.7,0.8
		c0.3,0.6,0.6,0.5,1.1,0.2c0.6-0.3,0.5-0.6,0.2-1.1c-0.5-0.7-0.4-1.2,0.5-1.5c0.4-0.1,0.6-0.5,0.9-0.8c0.2-0.2,0.5-0.2,0.8-0.1
		c0.4,0.2,0.3,0.5,0.2,0.7c-0.1,1-0.8,1.8-1.4,2.5c-0.5,0.7-0.4,1.1,0,1.6c0.3,0.6-0.1,1-0.4,1.5c-1,1.8-1.9,3.7-2.9,5.6
		c-0.5,1.5-1.3,3-2.1,4.4c-0.2,0.3-0.5,0.8-0.2,1.2c0.3,0.4,0.8,0.2,1.1,0.1c1.8-0.1,3.5-0.8,5.2-1.4c2.5-1.1,4.6-2.7,5.7-5.3
		c0.2-0.5,0.4-1,1-1.2c0.1,0,0.3,0.1,0.4,0.1c1.4-0.7,1.7,0.1,1.8,1.3c0.1,1.5-1,2.5-1.8,3.6c-2.8,2.9-5.9,5.1-10.1,5.5
		c-1.2,0.1-2.3,0-3.5-0.2c-0.7-0.1-1.3-0.1-1.7,0.7c-0.1,0.4-0.3,0.8-0.5,1.2c-0.8,1.7-0.7,2,0.8,3.1c0.8,0.6,1.7,1.2,2.6,1.6
		c0.4,0.3,0.9,0.4,1.3,0.7c0.3,0.2,0.4,0.5,0.5,0.9c0.8,2.2,2.1,2.8,4.4,2.2c-0.4-0.7-1.2-1.3-0.4-2.2c1.4-0.5,2.8-0.1,4.2-0.1
		c2.4,0,4.8,0,7.2,0.5c0.8,0.2,1.6,0.4,2.5,0.7c2.1,0.8,4,2,5.7,3.4c0.9,0.9,1.9,1.7,2.7,2.7c0.7,0.8,1.2,1.6,0.3,2.6
		c-0.3,0.2-0.7,0.3-1,0.2c-0.9-0.2-1.7-0.5-2.6-0.6c-1-0.3-1.9-0.5-2.8-0.9c-2.7-1-5.5-1.7-8.4-2.3c-0.8-0.1-1.5-0.3-2.2-0.5
		c-0.8-0.2-1.6-0.6-2.5-0.5c-1.3-0.3-2.6-0.1-3.8-0.4c-0.8-0.2-1.5-0.4-2.3-0.6c-1-0.3-1.9-0.7-2.8-1.3c-1.5-1.1-2.9-2.1-4.2-3.4
		c-0.8-0.8-1-0.7-1.4,0.4c-0.3,0.8-0.7,1.6-0.9,2.4c-0.3,0.6-0.5,1.1-0.7,1.8c-0.8,2.9-1.5,5.7-2.3,8.6c-0.2,0.7-0.4,1.5-0.7,2.2
		c-0.8,1.7-1.2,3.5-1.5,5.3c0.6,1.1,0.9,0.4,1.3-0.1c1.2-1.8,2.5-3.5,4.3-4.8c4-3,8.5-3.7,13.4-2.9c1.1,0.3,2.1,0.6,3.2,0.8
		c6,2.2,10.3,6.2,12,12.5c0.1,0.2,0.1,0.5,0.4,0.6c0.4,0.1,0.8,0,1.2,0c3.7-0.3,7.5-0.7,11.2-1.2c6.1-0.8,12-2.5,18.1-3.8
		c0.8-0.2,1.1-0.7,1.5-1.4c2.1-3.3,4.3-6.5,7.4-8.9c4.2-3.2,8.8-5.4,14.2-5.4c0.7,0,1.3-0.1,2,0.2c0.2,0.1,0.3,0.2,0.4,0.4
		c0.9,0.7,1.7,1.1,2.9,1.4c1.1,0.2,2.1,1.2,3.1,2c0.5,0.4,0,0.6-0.4,0.6c-0.4,0-0.9-0.2-1.3,0.2c-0.3,0.3-0.7,0.2-1,0
		c-1.1-0.6-2.2-0.7-3.4-1c-2.2-0.3-4.4,0-6.5,0.4c-0.5,0.1-1,0.2-1.5,0.4c-2.3,0.9-4.4,2-6.2,3.7c-2.1,1.8-3.9,3.9-5.7,6.2
		c4.3-1,8.6-1.4,13-1.5c1.6-0.2,3.2-0.1,4.8-0.1c0.4,0,0.8,0,0.9,0.4c-0.1,0.6-0.2,1.2,0.3,1.7c0.3,0.4,0.1,0.8,0,1.2
		c-0.5,0.8-1.3,0.6-2,0.5c-2.2,0-4.5-0.1-6.7,0c-5.5,0.3-10.8,1.5-16.2,2.8c-2.1,0.5-4.2,1.1-6.3,1.5c-3.3,0.8-6.7,1.4-10.1,1.9
		c-7,1.1-14,1.5-21,1.3c-4.4-0.1-8.8-0.3-13.2-0.9c-1-0.1-2.1-0.3-3.1-0.6c-1.1-0.3-2.2-0.6-3.3-0.9c-2.8-0.7-5.2-2.2-7.4-4.1
		c-1-0.9-1.2-0.9-1.5,0.4c-0.2,0.8-0.7,1.4-0.6,2.2c0.8,0.8,1.9,0.7,2.9,1c1.5,0.4,2.9,0.8,4.4,1.2c1.8,0.5,3.6,1.1,5.4,1.4
		c5.9,0.8,11.8,1.7,17.8,1.8c6.7,0.2,13.4-0.3,20-1.2c3.6-0.4,7.2-1.1,10.7-1.8c5.7-1.2,11.4-2.1,17.1-3c0.5-0.1,1.1-0.3,1.5,0.2
		c0.8,1.1,2.3,1.1,3.3,1.8c1.2-1,1.9,1.1,3,0.5c0.2-0.1,0.8,0.4,0.8,0.8c0,0.4-0.4,0.5-0.7,0.6c-0.3,0.1-0.7,0-0.8,0.5
		c-7.8,1-15.4,2.4-23.1,3.8c-8.9,1.7-17.8,3.2-26.8,3.4c-4,0.1-8,0.1-12-0.5c-1.3-0.2-2.8-0.3-4.1-0.3c-1.6,0-3.1-0.8-4.7-0.8
		c-1.4,0-2.8-0.4-4.3-0.6c-4.3-1-8.6-2.2-12.8-3.4c-1.7-0.5-3.3-1.1-4.8-1.8c-1.2-0.6-2.5,0-3.8-0.4c-0.4-0.1-0.9-0.1-1.3-0.2
		c-1.3-0.2-2.5-0.5-3.6-1c-1.6-0.9-1.4-2.4-1.3-3.9c0-1,0.6-2,0.6-3c0.3-1.2,0.5-2.4,0.9-3.6c0.9-2.6,1-5.4,1.2-8.1
		c0.1-0.9,0.2-1.8,0.4-2.6c0.3-1.5,0.4-3,0.5-4.5C6,80.9,5.9,79,6.5,77.2C7.4,74.1,8.3,71,9,67.8z"/>
	<path class="st0" d="M84.7,30.4c0-0.2,0.1-0.3,0.1-0.5c0.6-1.4,0.5-1.5-0.9-1.8c-0.6-0.8-1.8-1.2-2-2.3c0.7-1.1,0.3-2.1-0.3-3
		c-0.3-0.5-0.7-1-0.7-1.8c-0.7,1.1,0.2,2.4-0.8,3.3c-1.3-0.2-1.9-1.4-2.8-2.1c-0.5-0.3-0.9-0.8-1.4-1.2c-0.3-0.3-0.5-0.5-0.7-0.9
		c0-0.2,0-0.4,0.2-0.5c0.3-0.5,1-1.1-0.1-1.5c-0.2-0.1-0.4-0.8-0.3-1.1c0.4-1,0.1-2.1,0.7-3c0.3-0.5,0.4-1.2,0.3-1.8
		c-0.4-2.1-0.8-4.3-3.1-5.4c-0.4-1.5-1.9-1.4-3-1.9c-0.4-0.2-0.4-0.4-0.1-0.7c0.4-0.4,0.8-0.5,1.2-0.8c3.1,1.7,5,4.3,6.1,7.5
		c0.3,0.9-0.1,1.8-0.1,2.7c0,0.5,0.1,0.9,0.5,1.2c1.9,1.7,3.9,3.5,5.8,5.2c2.3,2.4,4.8,4.6,7.3,6.9c1.7,1.6,3.4,3.3,5.3,4.7
		c4.1,3.6,8.2,7.3,12.2,10.9c5.6,5,11.2,10.1,16.8,15.1c0.3,0.3,0.6,0.5,1,0.8c1.8,2,4,3.6,5.9,5.4c1.3,1.3,2.7,2.5,4.1,3.7
		c2.9,2.9,6,5.7,9.2,8.3c1.5,1.4,2.9,2.9,4.6,4.1c0.7,0.7,1.5,1.4,2.3,1.9c3.5,3.5,7.3,6.6,11,10c4.3,3.9,8.7,7.7,12.9,11.7
		c0.1,0.1,0.2,0.1,0.4,0.1c2.2,2.1,4.5,4.1,6.7,6.2c0.4,0.4,0.8,0.7,1.1,1.1c-0.1,0.3-0.3,0.5-0.6,0.6c-0.8,0.4-1.5,0.9-1,2
		c0.1,0.4-0.1,0.9-0.2,1.3c-0.6,0.1-1-0.4-1.3-0.7c-3.1-2.8-6.3-5.5-9.4-8.4c-0.9-0.8-1.7-1.2-2.9-0.8c-0.4,0.2-0.9,0.3-1.3,0
		c-0.2-0.7,0.2-1,0.8-1.2c1.1-0.3,2.1-0.9,3.2-0.4c0.4-0.3,0.1-0.7,0.1-1c0-1.4-0.5-2.1-1.9-2c-0.8,0-1.3-0.2-1.6-0.9
		c-0.2-0.5-0.6-1-1.3-0.7c-0.6,0.3-0.3,0.8-0.2,1.2c0.1,0.3,0.2,0.6-0.1,0.9c-0.4,0.1-0.7-0.1-1-0.4c-1-1.1-2.4-1.8-3.1-3.3
		c0.2-0.6,0.8-0.2,1.3-0.6c-1.5-0.9-0.8-2.9-2-4c-0.9-0.9-1.5-2.1-3.1-1.9c-0.6,0.1-1-0.4-1.4-0.7c-1.2-1.1-2-1.1-3.1,0
		c-0.8,0.2-1.2-0.6-1.7-0.9c-1.4-1.1-2.7-2.3-4-3.5c-2.7-2.5-5.5-5-8.3-7.4c-0.3-0.2-0.5-0.6-1-0.6c0.1,4.6,0.1,9.1,1.8,13.5
		c1.4,3.4,3.8,5.8,7,7.4c0.2,0.1,0.3,0.2,0.5,0.3c0.3,0.2,0.8,0.4,0.9,0.9c0.1,0.2-0.1,0.5-0.1,0.7c0.4-0.2,0.9-0.5,1.3-0.5
		c0.6,0,1.2,0.2,1.7,0.3c0.4,0.1,0.8,0.2,1.1,0.5c0.5,1.6,2.2,1.9,3.4,2.7c0.5,0.4,1.2,0.4,1.1,1.2c-1.1,0.4-2.1-0.2-3.1-0.2
		c-0.6-0.1-1.1-0.3-1.7-0.4c-1.4-0.4-2.7-0.9-4.2-1c-3.7-1.2-6.7-3.2-9.1-6.3c-0.2-0.3-0.4-0.5-0.4-0.9c1.3-0.7,1.3-0.7,0.6-1.9
		c-0.6,0.5,0.1,1.3-0.5,1.7c-1.2-0.7-1.7-1.8-1.8-3.1c1.4-0.3,1.4-0.3,1-1.8c-0.2-0.5-0.2-1.1-0.8-1.4c-0.5,0.4-0.3,1.4-1.1,1.4
		c-0.3-0.2-0.4-0.4-0.5-0.7c-1.2-4.2-1.5-8.5-0.8-12.8c0.8-1.8,0.3-3.1-1.2-4.3c-1.6-1.2-3.2-2.4-4.4-4.1c0-0.7-0.3-1.2-0.9-1.6
		c-0.5-0.3-1.1-0.6-1-1.4c1.2-0.7,1.4-1.3,0.4-2.2c-0.7-0.6-1.2-1.3-2.3-1.2c-0.6,0-0.7-0.5-0.8-1c-0.3-1.7-1.5-2.5-2.9-3.3
		c-1.2-0.7-2.7-0.8-3.8-2c-0.5-0.6-0.9-1-0.7-1.8c0.2-1-0.7-1.2-1.3-1.6c-0.6-0.4-1.3-0.1-1.9,0.1c-0.4,0.2-0.2,0.6-0.2,0.9
		c0.1,0.5,0.4,1-0.1,1.4c-0.6,0.2-0.9-0.3-1.3-0.6c-4.5-4.1-9-8.1-13.6-12.1c-0.9-0.8-2.2-1.4-2.5-2.8c0.4-0.4,0.7-0.2,1.1,0
		c1.6,0.8,3,1.9,4.4,3c0.7,0.6,1.5,1,2,1.8c0.4,0.6,0.9,0.4,1.4,0c0.4-0.4,0.3-0.7-0.1-1.2c-0.8-1-1.9-1.4-2.9-2.1
		c-0.3-0.2-0.6-0.1-1,0c-1.3,0.2-1.8-0.2-1.8-1.5c0-0.5,0-0.9-0.1-1.4c-0.1-0.5-0.4-0.9-1-0.8c-1.1,0.2-1.4-0.4-1.1-1.3
		c-0.2-0.1-0.3-0.1-0.5-0.1c-2,0.8-3.5-0.3-3.3-2.4c0-0.2,0.1-0.5,0-0.5c-1.7,0.4-1.1-2.2-2.7-2.1c-0.5,0-1.2-1-1.4-1.8
		c-0.1-0.2,0.2-0.6-0.3-0.7c-0.3,0-0.6,0.1-0.7,0.4c-0.3,0.5-0.5,1-0.4,1.7c0.1,0.4,0.2,0.9-0.1,1.3c-0.5,0.2-0.8-0.1-1.1-0.4
		C86.8,30.3,85.9,29.8,84.7,30.4z"/>
	<path class="st17" d="M153.1,103.4c0.6,0.1,1.1,0.3,1.7,0.4c1.3,1.1,3,1.3,4.6,1.4c3.2,0.2,6.4,0.6,9.6,0c1-0.2,1.9,0.3,2.7,1
		c2.7,2.6,5.6,5,8.4,7.6c1.3,1.2,2.7,2.5,4.1,3.6c0.4,0.4,0.7,0.8,0.4,1.3c-0.3,0.5-0.8,0.3-1.3,0.2c-0.9-0.2-1.8-0.5-2.7-0.7
		c-0.6-0.2-1.2-0.3-1.8,0.1c-0.5-0.1-1-0.3-1.4-0.4c0.2-0.4,0.1-0.6-0.3-0.7c-0.9-0.4-1.8-0.8-2.8-1c-3.3-1.5-6.6-2.7-10.2-3.3
		c-1.1-0.2-2.1-0.7-3.1-1.2c-2.5-1.3-5.1-2.2-7.8-2.9c-3.3-0.8-6.3-2.3-9.5-3.5c-0.7-0.3-1.4-0.6-2.1-0.7c-4.1-0.9-8-2.4-12.2-3.3
		c-1.3-0.3-2.1-0.9-2.5-2.3c-1.4-4.9-4.5-8.4-8.8-11.1c-2.3-1.4-4.6-2.5-7.3-2.4c-3.8-0.4-7.3,0.7-10.8,1.8
		c-1.1-0.3-1.8,0.3-2.3,1.2c-0.3,0.6-0.9,0.8-1.4,1.1c-1,0.8-2.2,1.4-3.2,2.3c-0.3,0.3-0.7,0.6-1.2,0.5c-1.1-0.2-1.3-0.9-1-1.8
		c0.2-0.6,0.3-1.2,0.6-1.7c0.6-0.7,1.3-1.4,0.3-2.3c-0.3-0.3-0.1-0.7,0.4-0.8c0.4,0.2,0.8,0.5,1.3,0.1c2.4,0.5,4.8,0.7,6.7-1.2
		c1.6-1.7,3.5-2.7,5.5-3.8c0.4-0.2,0.8-0.5,1.1-0.8c1.2-1.1,1.2-1.1,0-2.2c-0.5-0.4-0.6-0.8-0.4-1.4c0.2-0.3,0.4-0.4,0.8-0.5
		c1.8-0.1,2.1-0.4,2.7-2c0.5-0.8,0.8-1.8,1.9-2.1c1.4,0.2,2.8,0.1,4.2,0.6c2.1,0.7,3.2,3,2.3,5c-0.3,0.6,0.2,1.4-0.5,1.8
		c-0.6,0.1-0.9-0.4-1.3-0.6c-1.5-0.9-3.2-0.6-3.7,0.7c-0.5,1.3,0.3,2.7,1.9,3.4c0.9,0.4,1.8-0.2,2.6-1.6c0.1-0.3,0.2-0.7,0.5-1
		c0.7-0.2,1.3,0.2,2-0.1c0.3-0.1,0.5,0.3,0.7,0.6c0.2,0.4,0.3,0.9,0.8,1.3c0.5-0.1,0.4-0.8,0.8-1c0.4,0,0.4,0.3,0.6,0.6
		c1,2.8,1.8,5.6,3.6,8c1.2,1.6,2.6,3,3.7,4.7c0.3,0.4,0.8,0.7,1.3,0.9c0.7,0.3,1.3,0.1,1.8-0.4c0.5-0.5,0.2-1,0-1.5
		c-0.2-0.4-0.4-0.9-0.7-1.3c-0.5-1.3-1.2-2.5-1.1-4c0.9-0.6,0.7-1.4,0.3-2.2c-0.4-0.9-0.1-1.4,0.8-1.3c1,0.1,1.6-0.2,1.7-1.2
		c0.1-0.3,0.3-0.5,0.6-0.6c0.8,0.3,0.6,1,0.6,1.6c0.1,1.9,0.4,3.8,1.1,5.5c1.7,4.1,4,7.7,7.7,10.3c1,0.7,2,1.5,3.2,1.7
		c0.7,0.2,1.4,0.2,2.2,0C150.7,102.8,151.9,103.2,153.1,103.4z"/>
	<path class="st18" d="M122.6,106c-0.9-0.2-1.7-0.5-2.6-0.7c-0.8-0.3-1.5-0.7-2.3-1.1c-0.6-0.3-1-0.7-0.7-1.5c4,0.8,8,1.6,12,2.3
		c2.1,0.4,4.2,1,6.3,1.7c2.9,1.1,5.8,2,8.8,2.9c1.2,0.5,2.5,0.6,3.6,1.1c3,0.9,5.8,2.5,8.9,3.2c0.8,0.5,1.8,0.4,2.7,0.9
		c2.7,0.8,5.4,1.8,8,2.9c0.3,0,0.6,0,0.8,0.2c0.1,0.5-0.1,0.8-0.6,1c-0.4,0-0.8-0.2-1.2-0.3c-1-0.2-1.9-0.6-2.9-0.7
		c-4-1-8-2.1-12-3.5c-0.8-0.5-1.8-0.4-2.7-0.9c-2.7-0.7-5.2-2-7.8-2.9c-0.9-0.3-1.9-0.5-2.9-0.8c-1.1-0.6-2.5-0.6-3.6-1.2
		c-2.6-0.7-5.3-1.4-7.9-2.1C125.2,106.8,124,106.1,122.6,106z"/>
	<path class="st19" d="M110.6,85.5c2.4-0.4,4.5,0.5,6.6,1.6c1.8,1,3.4,2.3,5,3.6c1.8,1.6,3,3.5,4.1,5.5c0.6,1.2,1.1,2.4,1.3,3.7
		c0.1,0.5,0.4,0.8,0.9,0.9c1,0.2,1.9,0.6,2.9,0.6c1,0,1.9,0.7,2.8,0.9c2.6,0.7,5.2,1.4,7.8,2.1c2.6,0.7,4.9,1.9,7.4,2.9
		c0.9,0.3,1.7,0.6,2.6,0.8c3.4,0.9,6.7,2,9.8,3.6c1.3,0.6,2.7,1,4.1,1.2c3,0.6,5.9,1.7,8.6,3.1c0.2,1.3-0.7,0.5-1.2,0.6
		c-0.9,0.1-1.5-0.7-2.3-0.9c-0.9-0.4-1.9-0.7-2.9-0.8c-2.2-0.6-4.2-1.4-6.3-2.2c-1.4-0.5-2.8-1.1-4.2-1.5c-2.1-0.7-4.2-1.2-6.3-2
		c-2.2-0.9-4.5-1.5-6.7-2.5c-1.6-0.7-3.4-0.9-5.1-1.5c-4.1-1.1-8.2-2.2-12.3-3.3c-0.3-0.1-0.7,0-0.7-0.5c0.2-2.4-0.9-4.3-2-6.2
		c-1.7-3-4.2-5.3-7.3-6.7c-2-0.9-4.1-1.9-6.4-1.9c-0.2-0.1-0.3-0.1-0.5-0.2C110.2,86.1,110.2,85.8,110.6,85.5z"/>
	<path class="st20" d="M121.1,100.5c-1,0-1.9,0-2.8-0.3c-0.6-0.5-1.1-1-1.9-1.2c-1.2-0.4-1.3-0.6-0.9-1.9c0.5-1.3,0.3-1.8-1-2.5
		c-0.2-0.1-0.3-0.3-0.4-0.4c-0.6-1.3-1.8-1.6-3.1-1.7c-0.6,0-1.2,0-1.9-0.1c-0.9-0.2-1.7,0-2.3,0.8c-0.2,0.3-0.5,0.5-0.9,0.7
		c-0.5,0.3-1,0.7-1.5,0.3c-0.6-0.4-0.6-1.1-0.6-1.8c0.1-0.6,0.5-0.9,1.1-1c0.7-0.1,1.1-0.7,1.6-1.1c0.7-0.5,1.5-0.4,2.3-0.2
		c2.3,0.6,4.7,1.2,7,1.9c0.9,0.3,1.5,0.9,2.2,1.4c1.6,1.3,3.2,2.6,4.3,4.5c0.7,1.3,0.6,1.7-0.9,2C120.9,100,121,100.2,121.1,100.5z"
		/>
	<path class="st21" d="M98.5,106c-1-0.1-1.9,0.2-2.8,0.3c-5.3,0.9-10.5,1.8-15.8,2.7c-0.5,0.1-0.6-0.2-0.5-0.6
		c0.2-0.6,0.7-0.7,1.3-0.8c0.7-0.1,1.4-0.3,2-0.5c4-0.8,7.9-1.8,12-2.4c5-0.7,9.9-1.4,15-1.2c0.3-0.1,0.9,0.3,1-0.4
		c0.1-0.6,0.7-0.5,1.1-0.6c1.7-0.3,3.4,0.2,5.2,0.1c0.2,0.6,0,1-0.4,1.4c-0.3,0.4-0.7,0.7-1,1c-1.8,0-3.5-0.4-5.3,0.1
		c-0.4,0.1-1-0.3-1.5-0.2C105.3,105.1,101.9,105.4,98.5,106z"/>
	<path class="st19" d="M184,117.6c-0.7-0.1-1-0.8-1.4-1.2c-3.9-3.3-7.7-6.7-11.4-10.2c-0.7-0.7-1.6-0.8-2.6-0.6
		c-2.4,0.3-4.8,0.4-7.3,0.1c-2-0.2-4-0.3-5.9-0.9c-0.4-0.1-1.2-0.1-0.6-0.9c1-0.1,2,0.5,3,0.3c2.2-0.2,4.3,0.3,6.5,0.4
		c1,0.1,2-0.3,2.9,0.2c0.5-0.1,1,0,1.4-0.2c1-0.6,1.7-0.2,2.5,0.6c3.6,3.3,7.3,6.4,11,9.7c1.1,1,2.2,2.1,3.3,3.1
		c0,0.7-0.4,0.5-0.7,0.4C184.5,118,184.2,117.8,184,117.6z"/>
	<path class="st7" d="M115.8,96.9c-0.3,1.4-0.3,1.5,1,1.8c0.8,0.2,1.4,0.5,1.5,1.4c-1.1,0.3-2-0.4-3.1-0.5c-1.2-0.1-2.4-0.2-3.7-0.3
		c-0.4-0.3-0.5-0.7-0.3-1.1c0.4-0.4,0.9-0.7,1.4-1c0.4-0.2,1.2,0.4,1.4-0.3c0.2-0.8-0.7-0.8-1.2-1c-0.8-0.4-0.6-0.8,0-1.2
		c0.8-0.4,1.6-0.2,2.1,0.4C115.4,95.7,115.8,96.2,115.8,96.9z"/>
	<path class="st22" d="M184,117.6c0.5-0.2,0.9,1,1.5,0.2c1.2,1.1,2.5,2.1,3.7,3.2c0,0.1-0.1,0.1-0.1,0.2c-3.4-0.9-6.8-1.8-10.2-2.7
		c0.1-0.7,0.5-0.9,1.2-0.7c1.1,0.3,2.2,0.6,3.3,0.9c0.4,0.1,0.8,0.5,1.1,0C184.7,118.2,184.1,117.9,184,117.6z"/>
	<path d="M118,93.6c-0.7-0.4-1.3-0.9-2-1.3c-0.7-0.6-1.6-0.8-2.5-1c-1.2-0.3-2.4-0.5-3.5-1c-0.5-0.2-1-0.2-1.4,0
		c-0.6,0-1.3-0.2-1.9,0.3c-0.8,0.3-1.6,0.5-2.5,0.3c-0.3-0.3-0.3-0.6,0-0.8c2.2-0.7,4.4-0.9,6.6-0.5c1.1,0.6,2.4,0.7,3.6,1.2
		c0.3,0.1,0.6,0.1,1,0.2c1.1,0.8,2.2,1.5,3.3,2.3c0.2,0.2,0.4,0.5,0.1,0.7C118.5,94,118.2,93.9,118,93.6z"/>
	<path class="st23" d="M118,93.6c0.5,0.2,0.9,0.2,0.7-0.6c2.5,1.9,4.2,4.4,5.4,7.3c0.2,0.6,0.1,0.9-0.6,0.7
		c-0.8-0.2-1.5-0.4-2.3-0.6c-0.3-0.2-0.9-0.2-0.8-0.7c0.1-0.5,0.6-0.2,1-0.2c1.2-0.1,1.4-0.4,0.8-1.5C121.1,96.3,119.5,95,118,93.6z
		"/>
	<path class="st18" d="M111.7,102.6c-0.2,0.4-0.8,0.2-1,0.7c-0.7,0.5-1.4,0.1-2.1,0.2c-1.9,0-3.8,0.2-5.8,0.3
		c-0.6,0-1.2,0.2-1.8-0.2c-0.3-0.5-0.4-0.9,0.1-1.3c2.3-0.4,4.6,0,6.9,0c0.7,0,1.3-0.1,2-0.2C110.6,102.3,111.1,102.5,111.7,102.6z"
		/>
	<path class="st24" d="M111.3,98.3c0.1,0.4,0.2,0.7,0.2,1.1c-0.6,0-1.2-0.1-1.8-0.1c-2-0.3-4,0-5.9-0.1c-0.1-0.1-0.1-0.2,0-0.4
		c0.3-0.5,0.8-0.6,1.2-0.9c1.7,0,3.4-0.1,5.1,0C110.5,97.9,111,97.9,111.3,98.3z"/>
	<path class="st25" d="M167.5,119.1c0.2-0.3,0.3-0.6,0.5-0.8c0.8-0.1,1.5,0.2,2.2,0.5c0.9,0.3,1.7,0.5,2.6,0.8
		c1,0.6,2.3,0.5,3.5,1.2c-1,0.4-1.7-0.3-2.4-0.2c-1.3-0.2-2.6-0.5-3.9-0.7C169.1,119.6,168.3,119.6,167.5,119.1z"/>
	<path class="st0" d="M109,109.8c-0.6-0.2-1.2,0.3-1.9,0.1c-0.2-0.5-1.1-0.7-0.5-1.4c0.4-0.5,2.2-0.7,2.6-0.3
		C109.8,108.8,109.4,109.3,109,109.8z"/>
	<path class="st26" d="M116.2,104c0.2-0.5,0.6-0.8,0.6-1.3c0.1,0,0.2,0.1,0.2,0.1c0,1.2,1,1.3,1.7,1.6c0.5,0.3,0.9,0.5,1.2,0.9
		c-1.1,0.2-2.2-0.1-3.3-0.2C116.4,104.8,116.2,104.5,116.2,104z"/>
	<path class="st22" d="M173.4,116.7c0.4-0.2,1.1,0.2,1.2-0.6c1,0.1,1.9,0.7,2.9,1c0.3,0.1,0.7,0.1,0.8,0.5c0.1,0.6-0.6,0.2-0.8,0.5
		C176.1,117.6,174.7,117.1,173.4,116.7z"/>
	<path class="st27" d="M164.8,122.8c-4.2-0.8-8.3-1.8-12.3-3.3C156.5,120.6,160.6,121.7,164.8,122.8z"/>
	<path class="st28" d="M173.9,120.5c0.7-0.2,1.3,0.3,2,0.2c-1-0.6-2.1-0.5-3-1.2c1.9,0.3,3.7,1.1,5.5,1.7c0.1,0.1,0.1,0.1,0,0.2
		c0,0-0.1,0.1-0.1,0C176.7,121.5,175.3,120.9,173.9,120.5z"/>
	<path class="st29" d="M196.1,127.4c1.1,0.3,1.7,1,1.7,2.2C196.9,129.1,196.3,128.3,196.1,127.4z"/>
	<path class="st30" d="M133.4,112.5c-2.4-0.6-4.9-1.3-7.3-1.9c1.2-0.2,2.2,0.4,3.2,0.6C130.7,111.5,132.1,111.7,133.4,112.5z"/>
	<path class="st31" d="M135.4,106.8c-2.1-0.6-4.2-1.1-6.3-1.7C131.3,105.3,133.4,105.9,135.4,106.8z"/>
	<path class="st32" d="M139.7,105.2c1.7,0.4,3.5,0.7,5.1,1.5C143,106.3,141.3,106,139.7,105.2z"/>
	<path class="st33" d="M122.6,106c1.4-0.1,2.6,0.5,3.9,0.9C125.2,106.9,123.9,106.3,122.6,106z"/>
	<path class="st18" d="M116.2,104c0.3,0.3,0.6,0.6,0.5,1.1c-0.4,0-0.8-0.2-1.3-0.1C115.5,104.6,115.8,104.2,116.2,104z"/>
	<path class="st34" d="M167.5,119.1c0.8,0.2,1.6,0.5,2.4,0.7c-1.3,0-2.5-0.5-3.7-0.8c0-0.1,0-0.1,0-0.1c0,0,0.1,0,0.1,0
		C166.7,118.9,167.1,119,167.5,119.1z"/>
	<path class="st35" d="M147.8,110.9c-1.2-0.3-2.5-0.5-3.6-1.1C145.4,110,146.7,110.3,147.8,110.9z"/>
	<path class="st36" d="M134.5,109c1.2,0.3,2.5,0.4,3.6,1.2C136.9,109.8,135.6,109.7,134.5,109z"/>
	<path class="st37" d="M171.1,124.2c-1.1,0.1-2.2-0.4-3.2-0.7C169,123.4,170,123.9,171.1,124.2z"/>
	<path class="st38" d="M170.2,118.7c-0.7-0.2-1.5-0.4-2.2-0.5c-0.2-0.1-0.5-0.2-0.7-0.3C168.4,117.8,169.3,118.3,170.2,118.7z"/>
	<path class="st0" d="M105.5,106.6c-0.7,0.2-1.1,0-1.6-0.2C104.4,106,104.9,106.1,105.5,106.6z"/>
	<path class="st39" d="M168.1,115c1.1-0.1,2,0.3,2.9,0.8C170,115.6,169.1,115.3,168.1,115z"/>
	<path class="st40" d="M150.3,118.8c-1-0.2-2-0.4-2.9-1C148.4,118.1,149.4,118.3,150.3,118.8z"/>
	<path class="st41" d="M166.4,118.8c0,0.1-0.1,0.1-0.1,0.2c-1-0.3-1.9-0.5-2.9-0.8C164.4,118.1,165.4,118.5,166.4,118.8z"/>
	<path class="st42" d="M159.3,115c-0.9-0.2-1.9-0.4-2.7-0.9C157.6,114.3,158.5,114.5,159.3,115z"/>
	<path class="st43" d="M148.8,113.8c0.9,0.2,1.9,0.3,2.7,0.9C150.5,114.5,149.6,114.4,148.8,113.8z"/>
	<path class="st44" d="M178.3,121.4c0-0.1,0-0.1,0.1-0.2c0.4,0.1,0.9,0.1,1.3,0.5C179.1,122.1,178.7,121.8,178.3,121.4z"/>
	<path class="st45" d="M198,154.2c-0.9,0.1-1.7-0.1-2.5-0.7C196.4,153.7,197.2,154,198,154.2z"/>
	<path class="st46" d="M16.3,111.7c4.3,1.1,8.5,2.3,12.8,3.4c-0.3,0.2-0.7,0-1,0c-3.7-1-7.4-2-11.1-3
		C16.8,112.1,16.5,112,16.3,111.7z"/>
	<path class="st47" d="M2.7,108.3c1.2,0.3,2.4,0.7,3.6,1C5.1,109.3,3.8,109.1,2.7,108.3z"/>
	<path class="st48" d="M2.1,101.4c0.1,1.1-0.3,2-0.6,3C1.4,103.3,1.8,102.4,2.1,101.4z"/>
	<path class="st49" d="M68.7,2.3c-1.4-0.4-2.8-0.7-4.2-1.1C66,1.2,67.4,1.6,68.7,2.3z"/>
	<path class="st17" d="M43.8,38.8c-0.3,0.5-0.5,1.1-1,1.4c-0.6-0.7-1.1-1.4-1.8-2.1c-0.4-0.4-0.9-0.9-1.6-0.5
		c-0.3,0.4-0.2,0.8-0.2,1.2c0,0.3,0.1,0.6-0.3,0.7c-0.3,0.1-0.5-0.1-0.8-0.3c-0.2-0.2-0.4-0.3-0.6-0.5c-0.5-0.3-1-0.1-1.4,0.2
		c-0.5,0.3-0.4,0.8-0.2,1.2c0.2,0.6,0.8,1.1,0.7,1.8c-0.1,0.4-0.3,0.7-0.6,0.9c-0.7,0.2-1.3-0.1-1.8-0.6c-0.5-0.5-1.1-0.8-2.1-0.7
		c0.5,0.1,0.7,0.2,0.8,0.5c-0.7,0.4-0.7,0.9-0.5,1.6c0.2,1.1,1.1,1.8,1.5,2.8c0.1,0.8,0.6,1.5,1,2.1c0.4,0.7,0.3,1.3-0.1,1.9
		c-0.5,0.8-1.3,1.3-1.8,2.1c-0.3,0.5-0.8,0.3-1.2,0c-1.1-1.1-2.5-1.4-3.9-1.7c-1.3-0.2-2.5-1.1-3.9-1.1c-0.7,0-0.8-0.7-0.7-1.3
		c1.5-3.8,3.8-7.1,6.1-10.4c0.9-1.4,1.6-3,2.9-4.1c1-0.9,1.9-2,2.5-3.2c0.5-0.8,0.9-1.6,1.5-2.2c3.1-3.5,6.1-7.1,9.3-10.5
		c0.8-0.9,1.8-1.5,3-1.6c0.2,0.6,0.5,1.2,0.7,1.7c-0.3,0.8,0.4,1,0.9,1.2c1.9,0.9,3.4,2.3,4.8,3.9c1.1,1.7,1,2.1-0.6,3.3
		c-1.2,1-2.3,1.9-3.4,3.1c-2.3,2.1-4.2,4.5-6.3,6.8C44.1,37.2,43.7,38,43.8,38.8z"/>
	<path class="st50" d="M44.1,62.2c-1.2,2.8-3,5.1-5.8,6.4c-0.2,0.1-0.5,0.2-0.8,0.3c-0.4-0.3-0.8,0-1.2,0.1
		c-0.7,0.2-1.4,0.5-2.2,0.5c-1.8,0-2.3-0.7-1.4-2.3c0.5-0.8,0.9-1.7,1-2.7c0.2-0.9,0.8-1.5,1.2-2.2c0.6-0.8,1-1.8,1.4-2.7
		c0.2-0.4,0.4-0.8,0.7-1.1c0.2-0.2,0.3-0.4,0.6-0.5c0.7,0.6,1.4,0.9,2.3,0.7c0.4-0.1,0.9,0.1,1.2,0.5c0.7,0.7,1.2,0.5,1.7-0.2
		c0.3-0.4,0.5-0.8,0.9-1c0.8,0.5,0.4,1.4,0.7,2C44.4,60.9,44.3,61.6,44.1,62.2z"/>
	<path class="st2" d="M48.5,16.6c-0.4,0.6-1.1,0.5-1.7,0.8c-0.9,0.6-1.6,1.5-2.3,2.3c-2.3,2.5-4.3,5.2-6.7,7.6
		c-1.7,1.8-2.8,4-4.4,5.8c-0.3,0.4-0.6,0.9-1.1,1.2c-0.4-0.2-0.3-0.6-0.4-0.9c2.3-3.1,4.6-6.2,7.1-9.1C43,20,47,15.9,50.9,11.6
		c2.3-2.5,4.8-2.9,7.8-2.2c1.8,0.4,3.6,0.8,5.3,1.4c2.3,1.2,4.6,2.5,6.2,4.6c-0.1,0.4-0.4,0.4-0.8,0.5c-1.3-0.3-2-1.5-3.1-2.2
		c-1-0.6-1.9-1.2-3-1.4c-1.7-0.4-3.3-0.8-4.9-1.3c-1.6-0.6-3.1-0.3-4.7-0.1c-0.3,0-0.6,0.2-0.8,0.4c-1,0.9-2,1.9-3,2.8
		c-0.5,0.5-0.6,1,0.2,1.3c2.8,1.3,5.2,3.1,7.5,5.1c0.3,0.2,0.5,0.5,0.6,0.8c0.1,0.8-0.1,1.1-0.9,1c-0.9-0.8-1.6-1.9-2.6-2.5
		C52.7,18.6,50.7,17.4,48.5,16.6z"/>
	<path class="st51" d="M75.4,19.7c0,0.1,0,0.3,0,0.4c-0.1,0.4-0.5,0.4-0.8,0.7c-0.2,0.2-0.4,0.4-0.4,0.7c0.1,0.2,0.2,0.3,0.4,0.4
		c0.3,0.1,0.6,0,0.7-0.3c0.2-0.3,0.2-0.6,0.6-0.8c1.3,0.6,2,1.7,3.1,2.5c0.4,0.3,0.8,0.6,1.2,0.9c0.9,0.2,1.5,0.8,1.9,1.6
		c0.4,0.6,1.1,1,1.6,1.5c0.2,0.2,0.6,0.3,0.3,0.8c-2.2,0.6-4.5,1.2-6.7,1.7c-2.3,0.5-4.7,0.6-7.1,0.1c-1.2-0.2-2.3-0.5-3.4-0.9
		c-1.4-0.5-2.7-0.9-4.1-1.4c-0.3-0.1-0.8-0.3-0.9-0.6c-0.1-0.4,0.4-0.6,0.7-0.8c3.8-2.7,8-4.7,12.3-6.5
		C74.9,19.6,75.1,19.7,75.4,19.7z"/>
	<path d="M32.1,33.3c0.3,0.2,0.3,0.6,0.4,0.9c-0.6,0.3-0.8,0.9-1.1,1.4c-1.7,2.7-3.6,5.2-5.1,8c-0.9,1.7-2.1,3.2-2.8,4.9
		c-0.1,1.7-1,3.1-1.8,4.4c-1.6,2.6-2.7,5.5-4,8.3c-0.9,1.1-1.2,2.5-1.4,3.9c-1.1,2.2-2,4.5-2.4,7c-0.1,0.7-0.3,1.3-0.8,1.8
		c-0.4,0.2-0.8,0.7-1.3,0c0.2-0.9,0.4-1.7,0.8-2.5c0.7-3.4,2.4-6.5,3.7-9.7c0.2-0.4,0.2-0.9,0.3-1.3c0.8-1.8,1.8-3.4,2.5-5.3
		c-0.1-0.2,0-0.4,0.1-0.5c1.4-2.6,2.8-5.3,4.3-7.9c1.8-3.1,3.6-6.3,5.7-9.2C30.1,36.2,30.9,34.7,32.1,33.3z"/>
	<path class="st0" d="M11.8,60.3c0-1,0.7-1.7,0.9-2.6c-0.1-0.6,0-1.1,0.4-1.4c0.8-0.9,1.2-2,1.5-3.1c0.8-2.2,2.1-4.1,3-6.1
		c0.8-1.8,1.7-3.5,2.8-5.1c0.6,0.1,1.4,0,1.3,0.9c-0.1,1-0.2,2.1-1.4,2.3c-0.8,0.1-1,0.4-1,1.2c0.1,0.9,0.2,1.8-1.2,1.9
		c-0.6,0.1-0.4,0.8-0.3,1.3c0.1,1.7-0.6,3-1.8,4.1c-0.7,0.6-1.2,3-0.8,3.9c0.1,0.2,0.3,0.5,0.2,0.5c-0.7,0.8-1.4,1.6-2.2,2.4
		C12.9,60.8,12.3,60.4,11.8,60.3z"/>
	<path class="st52" d="M32.9,42.4c-0.2-0.4-0.7-0.3-1-0.7c1-0.5,1.8-0.4,2.4,0.4c0.5,0.6,1.1,0.8,1.8,0.9c0.7,0.1,0.7,0.8,1,1.2
		c0.1-0.8-0.8-1.3-0.6-2.1c-0.2-0.4-0.3-0.7-0.5-1.1c-0.4-0.7-1-1.4,0-2.2c0.9-0.7,1.7-0.6,2.5,0.3c0.1,0.2,0.2,0.4,0.6,0.3
		c-0.1-0.6-0.4-1.4,0.5-1.7c0.4,1.2,1.1,2.2,1.8,3.2c0.5,0.7,0.2,1.3-0.1,2c-0.2,0.4-0.5,0.4-0.8,0.4c-0.4,0-0.2-0.4-0.2-0.6
		c-0.3-0.6-0.7-1-1.1-1.5c-0.6-0.3-1-0.8-1.4-1.2c-0.3-0.3-0.7-0.7-1.1-0.3c-0.4,0.4,0.1,0.7,0.3,0.9c0.4,0.5,0.9,0.9,0.9,1.6
		c0.2,0.3,0.3,0.7,0.5,1c0.9,1.4,0.8,2.7-0.6,4.6c-0.9-1.2-1.6-2.6-2.8-3.6C34,43.9,33.4,43.2,32.9,42.4z"/>
	<path class="st53" d="M57.3,30.3c0.6-0.9,1.5-1.4,2.3-2c0.4-0.4,0.9-0.1,1.2,0.2c1.7,1.6,3.8,2.5,5.8,3.5c1.5,0.7,3.2,1,4.9,1.1
		c2.1,0.2,4.2,0.5,6.3,0.2c2.2-0.4,4.2-1.2,6.2-2.3c0.5,0.2,0.3,0.6,0.2,0.9c-0.2,0.4-0.6,0.7-1,0.9c-3.5,1.7-7.2,2.5-11.1,1.6
		c-1.4-0.3-2.8-0.2-4.2-0.4c-1.4-0.9-3-1.3-4.5-1.9c-0.6-0.2-1-0.7-1.5-1.1c-1.6-1.2-2.6-1.2-4.1,0C57.4,31,57.4,30.6,57.3,30.3z"/>
	<path class="st6" d="M57.3,30.3c0.3,0.1,0.4,0.3,0.3,0.6c0.2,0.8-0.5,1.2-1,1.6c-2.9,2.8-5.6,5.8-8.1,8.9c-0.7,0.9-1.3,1.8-2,2.7
		c-0.7,0.8-0.5,1.7,0.2,2.5c1.4,1.7,2.1,3.6,2.2,5.8c-0.4,0.4-0.8,0.1-1.1-0.1c0.1-3.1-1.3-5.1-4.2-6.1C47.7,40.5,52,34.9,57.3,30.3
		z"/>
	<path class="st54" d="M33.8,46.5c-0.5-0.9-1.8-1.5-1.5-2.8c0.8,0.2,1.2,0.9,1.7,1.5c0.6,0.9,1.3,1.8,1.9,2.8
		c0.7,1.1,0.7,2.1-0.1,3.2c-0.8,1.2-1.4,2.5-2.1,3.8c-1.7,2.4-2.9,5-4.1,7.6c-0.1,0.2-0.2,0.3-0.3,0.3c-0.2,0.1-0.4,0-0.6-0.1
		c0-1.6,0.4-3,1.3-4.3c1.1-1.6,2.1-3.4,3-5.2c0.4-0.8,0.8-1.5,1.4-2.2c1.2-1.2,1.1-1.4,0.3-2.8C34.3,47.7,34,47.2,33.8,46.5z"/>
	<path d="M35.2,62.4c-0.2,0.8-1,1.4-1.1,2.3c-0.4,0.2-0.7,0.1-0.9-0.2c1.2-2.4,2.4-4.7,3.6-7.1c0.8-1.5,1.7-2.9,2.5-4.4
		c0.8-1.5,1.7-2.9,2.5-4.3c0.7-0.1,0.9,0.2,0.6,0.8c-0.2,0.4-0.5,0.9-0.5,1.4c-1.1,1.9-1.8,3.9-3.3,5.5c-0.8,0.6-0.7,1.6-1.4,2.3
		c-0.2,0.4-0.4,0.7-0.6,1.1C35.9,60.4,35.6,61.5,35.2,62.4z"/>
	<path d="M47.8,52.3c0.4-0.2,0.7,0,1,0.3c0.6,0.3,0.4,0.9,0.4,1.3c0.1,1.2,0.2,2.4-0.1,3.6c-0.5,1-0.5,2-0.1,3.1
		c-0.6,2.6-1.8,4.7-3.5,6.8c-0.4,0.2-0.8,0.3-1.2-0.1c0.7-1.2,1.6-2.3,2-3.6c0.5-0.2,0.4-0.7,0.6-1.1c0.4-0.8,0.6-1.6,0.7-2.4
		C47.7,57.5,48.4,54.9,47.8,52.3z"/>
	<path class="st55" d="M65.1,17.4c-0.3-0.3-0.6-0.7-1-0.9c-0.4-0.3-0.9-0.5-1.2-0.1c-0.3,0.4-0.5,0.8-0.1,1.3
		c0.5,0.5,0.9,1.1,1.4,1.6c0.3,0.4,0.4,0.8-0.1,1.2c-0.5,0.4-0.8,0.2-1.1-0.2c-0.6-0.9-1.3-1.6-2.1-2.2c-1-0.4-1.9-0.8-2.7-1.5
		c-0.1-1.1,0.7-1.2,1.4-0.9c1.2,0.6,2.3,0.6,3.3-0.4c0.6-0.6,1.3-0.4,1.9,0.2c0.4,0.3,0.7,0.7,0.9,1.2C65.6,17,65.8,17.5,65.1,17.4z
		"/>
	<path class="st56" d="M57.4,22.3c0.5-0.1,0.9-0.3,0.8-0.9c0.2-0.2,0.5,0,0.7-0.1c-0.1-0.5-0.6-0.5-0.9-0.8c-1-1.5-1.1-1.9-0.2-2.8
		c0.8,0.1,1.3,0.5,1.6,1.2c0.1,0.1,0.3,0.3,0.4,0.4c2.1,2.1,1.7,3.7-1.1,4.7c-0.3,0.1-0.4-0.1-0.6-0.3
		C57.9,23.2,57.6,22.8,57.4,22.3z"/>
	<path class="st57" d="M43.8,38.8c-0.7-0.8-0.1-1.5,0.3-2.1c1.1-1.3,2.4-2.5,3.5-3.9c1-1.2,2.1-2.3,3.2-3.3c0.4-0.1,0.8-0.2,0.7,0.5
		C48.8,32.9,46.1,35.7,43.8,38.8z"/>
	<path class="st58" d="M48.5,16.6c1-0.4,1.6,0.4,2.4,0.7c1.4,0.5,2.8,1.3,3.8,2.5c-0.6,0.3-1.5,0-1.8,0.8c-0.2,0.1-0.3,0.1-0.5,0
		c-1-0.8-2.4-1.3-3.3-2.3C48.7,17.8,47.9,17.4,48.5,16.6z"/>
	<path class="st52" d="M41.7,50.7c-0.2-0.5,0-0.9,0.4-1.3c0.4-0.4,0.1-0.6-0.3-0.7c1.4-0.1,1.9,1,2.3,2c1,2.5,1.2,5.1,0.7,7.7
		c-0.1,0.6,0.1,1.3-0.3,1.9c-0.8-0.5-0.5-1.3-0.7-2c-0.3-0.6-0.2-1.3-0.1-1.9c0.2-1.5,0.1-3.1-0.3-4.5
		C43.2,50.9,42.8,50.4,41.7,50.7z"/>
	<path class="st59" d="M51.4,30.1c-0.1-0.4-0.4-0.4-0.7-0.5c1.2-1.3,2.5-2.6,4-3.5c0.6-0.4,0.7-1.3,0.3-1.9
		c-0.2-0.2-0.4-0.4-0.3-0.7c0-0.3,0.1-0.4,0.4-0.5c0.1,0.1,0.2,0.2,0.3,0.2c1.6,2,1.6,2-0.3,3.6C53.9,27.9,52.7,29,51.4,30.1z"/>
	<path class="st60" d="M65.1,17.4c0.5-0.1,0.3-0.5,0.3-0.7c1.1,0.1,2.2,0.5,3.3-0.1c0.4-0.2,0.8-0.4,1.1-0.8
		c0.2-0.1,0.4-0.2,0.6-0.3c0.4,0,0.5,0.4,0.8,0.6c0.7,0.5,0.4,0.7-0.2,1c-1,0.4-2,0.8-3,1.2C66.3,19,66.3,19,65.1,17.4z"/>
	<path class="st61" d="M84.1,31.8c0.1-0.3,0.2-0.5,0-0.8c0.2-0.2,0.4-0.4,0.6-0.6c1.3-1,1.3-1,2.6,0.2c0.4,0.4,0.8,0.7,1.2,1
		c0.9,0.3,1.6,0.9,2,1.8c-0.1,0.3-0.2,0.4-0.5,0.5c-1.3-0.1-2.1-1-2.9-1.9c-0.5-0.7-1-1.1-1.9-0.4C84.9,31.8,84.5,32.1,84.1,31.8z"
		/>
	<path class="st23" d="M55.1,23c-0.1,0.2-0.3,0.3-0.4,0.5c-1.7-1.5-3.4-3.2-5.6-4.1c-0.7-0.3-1-0.7,0-1.1c1.4,0.5,2.5,1.5,3.7,2.3
		C53.7,21.4,54.6,22,55.1,23z"/>
	<path class="st62" d="M33.9,45.2c-0.7-0.3-1.1-1-1.7-1.5c-0.1-0.4-0.8-0.7-0.4-1.3c0.3-0.4,0.7,0,1-0.1c0.7,0.6,1.4,1.2,2.1,1.8
		C34.7,44.6,34,44.6,33.9,45.2z"/>
	<path class="st63" d="M37.8,42.2c-0.5-0.6-1-1.1-1.4-1.7c-0.3-0.3-0.8-0.7-0.3-1.1c0.4-0.3,1-0.6,1.4,0c0.5,0.6,1.2,1,1.5,1.8
		C38.5,41.4,38,41.6,37.8,42.2z"/>
	<path class="st58" d="M59.3,18.9c-0.5-0.4-1-0.8-1.5-1.1c-0.5-0.2-0.6-0.6-0.4-1.1c0.2-0.3,0.4-0.5,0.8-0.2c1,0.3,1.9,0.8,2.7,1.5
		C60.3,18.2,59.7,18.4,59.3,18.9z"/>
	<path class="st0" d="M18.6,52.2c0.2-0.6,0.3-1.4,1-1.2c0.5,0.1,0.2,0.8,0.1,1.2c-0.1,0.5-0.4,1.2-1,1C18.1,53,18.6,52.5,18.6,52.2z
		"/>
	<path class="st0" d="M19.1,54.7c0,0.2-0.1,0.3-0.1,0.5c-0.8,0-1.3,0.7-1.9,1.2c-0.3-0.9,0.2-1.5,0.7-2C18.3,54,18.7,54.6,19.1,54.7
		z"/>
	<path class="st64" d="M64.1,10.9c-1.8-0.5-3.6-1-5.3-1.4C60.6,9.6,62.4,10,64.1,10.9z"/>
	<path class="st65" d="M66.7,29c1.1,0.3,2.3,0.6,3.4,0.9C68.9,29.9,67.7,29.6,66.7,29z"/>
	<path class="st66" d="M47.6,60c0.1,0.9-0.1,1.7-0.7,2.4C47.1,61.6,47.3,60.8,47.6,60z"/>
	<path class="st16" d="M13.1,56.2c-0.1,0.5-0.3,0.9-0.4,1.4C12.2,57,12.1,56.5,13.1,56.2z"/>
	<path class="st67" d="M9,67.8c0.2,0.3,0.1,0.5,0,0.8c-0.7,2.6-1.4,5.3-2.1,7.9c-0.1,0.3-0.1,0.6-0.4,0.7C7.3,74.1,8.2,70.9,9,67.8z
		"/>
	<path class="st68" d="M45.3,67.2c1.3-2.2,2.8-4.3,3.4-6.9c-0.1-0.2-0.1-0.3,0.1-0.5c0.2,0,0.4,0,0.4,0.2c-0.1,1.4,0.8,1.3,1.8,1.3
		c0.5,1.5,0.5,3.1,0.8,4.6c0.1,0.5,0.2,1.1,0.4,1.6c0.8,2.4,2.1,4.6,3.7,6.6c0.3,0.4,0.7,1,1.4,0.6c0.7-0.4,1.1-1,0.9-1.9
		c-0.2-1.1-0.7-2.1-1.1-3.2c-0.1-0.2-0.1-0.3-0.1-0.5c0-0.2,0.1-0.3,0.3-0.5c0.9,0.1,1.2-0.2,1.1-1.1c-0.1-0.9-0.1-1.9-0.2-2.9
		c-0.1-0.7,0-1.3,0.2-2c0.3-0.7,0.7-1.1,1.4-0.7c0.5,0.2,0.8,0.1,1.1-0.3c0.8-0.1,1,0.6,1.1,1c0.6,1.6,1.6,2.9,2.4,4.4
		c0.5,2.9,2.8,4.5,4.6,6.3c2,2.1,4.4,3.8,7.2,4.7c0.6,0.2,1,0.6,1.4,1c0.5,0.5,1.1,0.6,1.8,0.7c0.7,0.1,0.7-0.4,0.6-0.9
		c0.3-0.3,0.7-0.6,1.1-0.6c1.7,0.4,3.3-0.1,4.8-0.6c3.5-1,6.9-1,10.4-0.7c3,0.3,6.1,0.7,9.1-0.4c0.3-0.1,0.7-0.3,1.1-0.1
		c-0.2,0.5-0.1,0.9,0.5,1.2c1.4,0.8,1.4,1.1,0.3,2.2c-1.1,1.1-2.5,1.8-3.8,2.4c-0.9,0.4-1.7,1.1-2.3,1.8c-0.9,1.1-2.1,1.8-3.4,2.2
		c-0.5,0.2-1,0.3-1.6,0.1c-0.5-0.2-0.9-0.3-1.4,0c-0.7,0.4-1.1,0.1-1.4-0.5c-0.4,0.1-0.7,0-1.1,0c-0.6,0-0.8,0.4-0.3,0.6
		c1.4,0.7,0.6,1.4,0,2c-0.4,0.5-0.6,0.9-0.8,1.5c-0.3,0.9-0.6,1.9,0.7,2.3c0.2,0.5-0.2,0.8-0.5,1.1c-1.3,1.5-2.7,2.8-3.5,4.8
		c-0.9,2.4-3.1,3.2-5.4,3.6c-4.6,0.8-9.1,1.9-13.7,2.8c-3.4,0.7-6.8,0.7-10.3,1.1c-0.9,0.1-1.8,0.1-2.6,0.7
		c-0.3,0.2-0.7,0.1-1.1,0.1c-1.3-5.1-4.1-9-8.5-11.9c-1.9-1.2-3.8-2.4-6.1-2.9c-2.5-0.5-5-0.3-7.4,0.2c-2.9,0.6-5.5,1.8-7.9,3.5
		c-0.4,0.3-0.8,0.7-1.3,0.1c-0.2-0.6-0.1-1.2,0.1-1.7c0.7-2,0.7-4.1,1.3-6.1c0.2-0.7,0.1-1.4,0-2.1c0-1.1,0.4-2.2,0.7-3.3
		c0.5-1.6,1.2-1.9,2.8-1.2c1,0.5,2,1.2,2.9,1.9c0.5,0.4,1,0.7,1.7,0.8c4.4,1.5,9,2.2,13.5,3.4c3.8,1,7.6,2.3,11.5,3.3
		c1,0.3,1.8,0.3,2.3-0.8c0.4-1,0.1-1.8-0.7-2.5c-0.8-0.8-1.6-1.6-2.4-2.4c0-0.1,0-0.3-0.1-0.3c-2.7-2.6-5.5-4.6-9.5-4.6
		c-3.8,0-7.7,0.2-11.4-0.5c-1.5-0.3-2.9-0.8-4.3-1.3c-1.9-0.7-3.3-1.9-3.5-4.1c0.2-0.5,0.3-0.9,0.5-1.4c0.7-0.1,1.3-0.2,1.9,0.2
		c0.4,0.3,0.9,0.2,1.3,0.2c4.3-0.2,8.1-1.8,11.3-4.7C44.1,68.1,44.7,67.6,45.3,67.2z"/>
	<path class="st69" d="M33.8,46.5c0.7,0.7,1,1.7,1.6,2.5c0.2,0.3,0.2,0.7,0,1.1c-2,2.6-3.1,5.7-5,8.3c-1,1.4-1.1,2.9-1.7,4.3
		c-1.1,1.9-1.5,4.2-3.1,5.9c-0.8,0.8-0.8,2.1-1,3.2c-0.1,1.1-0.5,2.1-1.2,3c-0.6,0.8-1.1,1.6-1.4,2.6c-0.3,1-1,1.5-1.8,1.9
		c-0.7,0.1-0.7,0.7-0.9,1.2c-0.2,0.8-0.2,1.7-1.3,1.9c-0.8-0.1-1,0.2-0.7,0.9c-0.2,1.9-1.4,0.9-2.3,0.9c-0.2,0-0.4,0-0.6,0.1
		c-0.7,0.3-0.7,0.9-0.5,1.4c0.4,0.9,0.8,1.8,1.5,2.5c0.3,0.3,0.4,0.7,0.4,1.1c0.1,0.7,0.4,1.4,0.7,2c0.2,0.4,0.3,0.8,0.3,1.2
		c0,0.8-0.2,1.6-0.9,2.1c-0.7,0.4-1.4,0.1-2-0.4c-1.3-1.1-2.6-1.1-4.2-0.6c-1.7,0.6-2.1,0.1-1.8-1.7c0.7-4.4,2.5-8.5,3.5-12.8
		c0.3-1.1,0.6-2.2,0.8-3.4c0.1-0.6,0.1-1.2,0.7-1.6c0.9-2.9,1.3-5.9,2.8-8.5c0.1-0.2,0.2-0.3,0.4-0.5c0.4-1.2,0.6-2.4,1.2-3.5
		c1-2.9,2.3-5.8,3.9-8.4c0.8-1.4,1.5-2.9,2.2-4.4c0.2,0.6,0.1,1.5,1.2,0.9c0.2-0.1,0.4,0,0.6,0.1c1.5,0.8,3.3,1.1,4.9,1.5
		c0.8,0.2,1.4,0.7,1.9,1.3c0.4,0.3,0.7,0.5,0.9-0.1c0.2-0.5,0.6-0.8,1-1.2c0.8-0.8,1.3-1.6,0.4-2.7C34,47.9,33.5,47.3,33.8,46.5z"/>
	<path class="st26" d="M31.7,108.6c3.7,0.6,7.4,1,11.1,1.2c4.5,0.2,8.9,0.3,13.4,0.1c4.3-0.2,8.5-0.6,12.7-1.2
		c1.1,0.6,1.2,1.4,0.5,2.2c-3.2,0.6-6.5,0.9-9.7,1.1c-2.5,0.2-5.1,0.3-7.6,0.3c-4.3-0.1-8.6-0.1-12.8-0.8c-2.5-0.4-5.1-0.4-7.7-1
		c-1.9-0.3-3.7-1.1-5.6-1.3c-1.5-0.4-3-0.8-4.5-1.2c-1-0.6-2.3-0.5-3.3-1.1c0.4-1.2,0.9-2.4,1.3-3.7c0.2-1,0.8-0.4,1.1,0
		c1.3,1.4,2.9,2.4,4.5,3.4c1,0.6,2,1,3.1,1.3C29.2,108.1,30.4,108.4,31.7,108.6z"/>
	<path class="st70" d="M42.4,96.6c3.4,1.4,6.1,3.7,7.9,6.9c0.5,0.9,0.9,2,1.3,3c0.2,0.4,0.2,0.9-0.4,0.7c-1.3-0.4-2.6,0.1-3.9,0.1
		c-2.7,0-5.4-0.1-8-0.4c-4.1-0.5-8.2-0.9-12-2.6c-1.1-0.5-2.3-0.5-3.4-1.2c-0.6-0.4-0.9-0.6-0.1-1.2c2.4-2,4.8-4.1,7.9-5.2
		c2.7-0.9,5.5-1.2,8.3-0.7C40.8,96.1,41.6,96.3,42.4,96.6z"/>
	<path class="st21" d="M26.4,82.8c-0.3,1.1-0.6,2.3-0.9,3.4c0.1,0.3,0.1,0.7,0,1c-0.8,3-1,6.2-2.3,9.1c0.4,0.2,0.6-0.2,0.9-0.1
		c1.7-0.9,3.2-2.1,5.1-2.8c2.4-0.9,4.8-1.7,7.3-1.5c0.9,0.1,1.8-0.3,2.7-0.1c2.2,0.4,4.3,1.2,6.3,2.4c3.6,2.1,6.3,4.9,8.3,8.5
		c0.6,1.1,1,2.2,1.5,3.4c0.2,0.4-0.1,0.7-0.2,1.1c-0.6,0.1-0.6-0.4-0.7-0.8c-1.1-4.4-3.6-7.7-7.4-10.2c-1.3-0.8-2.7-1.5-4.1-2.2
		c-1.2-0.5-2.4-0.8-3.7-1c-7.6-0.9-13.2,1.6-17.1,7.9c-0.2,0.3-0.2,1-0.9,0.8c-0.4-0.1-1,0-0.9-0.7c0.4-1.9,0.9-3.8,1.5-5.6
		c0.2-0.7,0.4-1.4,0.7-2.1c1-2.9,1.7-5.9,2.4-9c0-0.6,0.3-1.1,0.7-1.6C25.9,82.4,26.2,82.5,26.4,82.8z"/>
	<path class="st71" d="M56.2,106.9c0.1-0.7,0.6-0.7,1.1-0.8c2.1-0.6,4.3-0.5,6.5-0.7c4.1-0.3,8.1-1.3,12.1-2.2
		c2.1-0.5,4.2-0.8,6.3-1.3c1.4-0.3,2.8-0.5,4-1.4c0.8-0.6,1.4-1.4,1.6-2.1c0.7-2.1,2.3-3.5,3.8-5.1c0.2-0.2,0.3-0.4,0.4-0.6
		c1.7-1.5,3.6-2.7,5.5-4c0.7-0.5,1.5-1,2.4-1.2c2.2-1,4.5-1.7,7-2c1.2-0.2,2.5,0,3.7,0c-0.1,0.3-0.1,0.6,0,1
		c-6.6-0.6-12.1,2-16.9,6.1c-2.6,2.3-4.6,5-6.3,8c-0.5,0.9-1.1,1.3-2.1,1.5c-4.3,0.9-8.6,2-12.9,2.8c-4.9,1-9.8,1.7-14.8,1.8
		C57.1,106.7,56.7,107,56.2,106.9z"/>
	<path class="st6" d="M13,74c-0.5,3.5-1.4,6.9-2.6,10.2c-1,2.7-1.3,5.5-2.1,8.2c-0.3,0.9,0,1.3,0.9,1c0.4-0.1,0.8-0.3,1.2-0.4
		c1.2-0.4,2.4-0.5,3.4,0.6c0.1,0.1,0.2,0.1,0.3,0.2c0.6,0.4,1.2,0.9,1.9,0.4c0.7-0.4,0.8-2,0.3-2.7c-0.5-0.7-0.7-1.4-0.4-2.2
		c0.6,1,1.3,2,1.9,3c0.1,0.2,0.2,0.5,0.1,0.7c-0.5,1.8-1,3.6-1.3,5.6c-0.8-2.7-2.7-4.3-5.3-4.7c-2-0.3-3.6,0.7-4.9,2.2
		c-0.1,0.1-0.2,0.1-0.2-0.1c0.1-0.6,0.2-1.1,0.3-1.7c0-1,0.6-1.8,0.6-2.7c0.2-0.8,0.4-1.6,0.6-2.4c0.1-1.5,0.9-2.9,1-4.4
		c0.2-0.9,0.4-1.8,0.6-2.7c0.2-1.2,0.5-2.5,1-3.7c0.2-0.5,0.4-1.1,0.5-1.6c0.5-0.8,0.3-1.8,1-2.6C12.3,74.2,12.6,73.9,13,74z"/>
	<path class="st19" d="M60.6,90.2c0.1,1.2-0.4,1.7-1.4,1.4c-3.4-1-6.9-1.6-10.2-2.9c-1.4-0.6-2.9-0.6-4.4-1
		c-2.6-0.6-5.1-1.6-7.7-1.8c-1.3-0.1-2.5-0.9-3.8-1.3c-0.4-0.3-0.9-0.5-1.1-0.9c-0.2-0.3-0.3-0.7,0.3-0.6c0.9,0.5,1.8,1,2.7,1.3
		c0.8,0.4,1.6,0.6,2.4,0.7c1.2,0.3,2.5-0.1,3.7,0.4c0.9,0,1.6,0.5,2.5,0.5c0.7,0.2,1.4,0.3,2.2,0.5c2.9,0.6,5.7,1.4,8.5,2.3
		c0.9,0.3,1.9,0.6,2.8,0.8c0.9,0.4,1.8,0.6,2.7,0.7C60.1,90.3,60.4,90.2,60.6,90.2z"/>
	<path class="st72" d="M28.6,74.3c0.3,0.1,0.7,0.4,0.7,0.7c0,1.9,1.5,2.5,2.8,3c2,0.8,4.1,1.6,6.2,1.7c1.9,0.1,3.9,0.2,5.8,0.1
		c1.9-0.1,3.9,0.3,5.8,0.1c0.7-0.1,1.5,0.4,2.1,0.7c2.1,1.2,4.3,2.2,5.9,4.2c0.3,0.4-0.2,0.3-0.3,0.4c-1.8-1.2-3.5-2.6-5.5-3.3
		c-0.9-0.4-1.8-0.6-2.7-0.7c-2.9-0.4-5.9-0.4-8.9-0.4c-0.8,0-1.6,0-2.4,0c-0.5,0.3-0.9,0.2-1.4,0c-1.5-0.3-3-1-4.5-1.5
		c-1.5-0.5-2.8-1.5-3.9-2.5C27.5,76,28.3,75.1,28.6,74.3z"/>
	<path class="st26" d="M101.1,102.4c0,0.4,0,0.8-0.1,1.2c-0.3,0.6-0.9,0.6-1.5,0.7c-5.7,0.4-11.3,1.7-16.8,3c-0.1,0-0.2,0.1-0.4,0.1
		c-1,0.2-1.9,0.5-2.9,0.5c-0.6-0.2-1-0.4-0.7-1.1c6.4-1.5,12.7-3.4,19.2-4.1C99,102.6,100.1,102.5,101.1,102.4z"/>
	<path class="st73" d="M78.7,106.8c0.1,0.5,0.2,0.9,0.8,0.9c0,0.2-0.6,0.5,0,0.7c-0.1,0.3,0.1,0.5,0.4,0.7c-3.5,0.8-7,1.5-10.6,1.8
		c0.5-0.9,0.1-1.5-0.5-2.2C72.2,108.1,75.5,107.4,78.7,106.8z"/>
	<path class="st74" d="M103.9,98.9c0,0.1,0,0.2-0.1,0.2c-1.9,0.1-3.7,0.3-5.6,0.4c-2.6,0.2-5.1,0.8-7.6,1.4c-0.1,0-0.3,0-0.7,0
		c2.2-2.5,4.2-4.9,6.6-6.9c0.6,0,0.6,0.4,0.6,0.8c-0.6,1.1-1.6,1.9-2.5,2.8c-0.2,0.2-0.6,0.5-0.4,0.8c0.1,0.4,0.6,0.2,0.9,0.2
		c1.2,0,2.3-0.1,3.5-0.2c1.2-0.1,2.3-0.4,2.9-1.7c0.3-0.6,0.9-1.2,1.6-0.2C102.6,97.6,102.5,98.5,103.9,98.9z"/>
	<path class="st75" d="M10.2,100.7c1.8,0.4,3.1,1.9,3.1,3.7c0,0.4,0,0.8-0.6,0.6c-2-0.7-3.9-1.7-6.1-2.2c-0.6-0.1-0.2-0.7,0-1
		C7.6,100.7,8.6,100.4,10.2,100.7z"/>
	<path class="st76" d="M45.3,67.2c-1.6,1.9-3.5,3.5-5.7,4.6c-2.4,1.2-4.9,1.7-7.5,1.9c-0.5,0-1,0.2-1.4-0.3
		c-0.4-0.7-1.2,0.3-1.6-0.4c0.2-0.7,0.7-1.1,1.4-0.9c5.2,1.4,9.2-0.7,12.9-4.1c0.3-0.3,0.6-0.5,0.9-0.8C44.6,67.2,45,67.2,45.3,67.2
		z"/>
	<path class="st77" d="M23.2,74.7c1.3-1.4,1-3.4,1.6-5c0.3-0.8,0.6-1.5,1.2-2.1c0.8-0.8,1.1-1.9,1.4-3c0.2-0.8,0.6-1.5,1.3-1.9
		c0.2,0,0.3,0.1,0.5,0.1c-1,2.3-1.9,4.5-2.9,6.8c-0.4,1-0.8,2.1-1.3,3.1c-0.5,1-0.7,2.2-1.3,3.1C23.3,75.6,23.4,75.1,23.2,74.7z"/>
	<path class="st6" d="M33.2,64.5c0.3,0.1,0.6,0.2,0.9,0.2c-0.1,1.1-0.7,2-1.2,3c-0.6,1.1-0.4,1.5,0.8,1.6c1,0.1,2-0.2,2.9-0.6
		c0.5-0.2,0.8-0.3,0.9,0.3c-2,1-4.1,1.4-6.3,1.7c-0.6,0.1-0.9-0.1-0.7-0.8c0.5-1.4,1.5-2.5,1.9-3.8C32.7,65.4,33,65,33.2,64.5z"/>
	<path class="st78" d="M32.3,83.1c-0.4,0.2-0.2,0.4,0,0.6c0.3,0.3,0.6,0.6,0.9,0.9c-1.5-0.3-2.5-1.6-3.8-2.3c-0.3-0.2-0.6-0.4-1-0.5
		c-1.3-0.5-1.6-0.4-2,1c-0.3-0.1-0.6-0.2-0.9-0.3c0.1-1.2,0.9-2.2,1.2-3.4c0.2-0.8,0.9-0.3,1.2,0C29.2,80.7,30.8,81.9,32.3,83.1z"/>
	<path class="st79" d="M14.9,84.1c0.1-0.2,0.3-0.5,0.6-0.3c0.9,0.7,1.3,0,1.8-0.6c0.7,1.1,1.4,2.2,1.7,3.4c0.3,1.2,0.1,2.3-0.3,3.7
		C17.4,88,16.5,85.9,14.9,84.1z"/>
	<path class="st80" d="M36.9,80.5c0.4,0.1,0.8,0.2,1.2,0.2c-0.4,1.1,0.6,1.5,1.2,2.1c-2.3,1-5.2,0.4-5.6-2.9
		C34.8,79.8,35.8,80.5,36.9,80.5z"/>
	<path class="st52" d="M14.5,99.6c-1.9-1.7-4-2.9-6.8-1.9C9.8,94.7,12.9,95.7,14.5,99.6z"/>
	<path class="st81" d="M23.2,74.7c0.8,0.1,0.6,0.7,0.5,1.2c-0.2,0.5-0.3,1.1-0.5,1.6c-0.4,0.8-0.5,1.6-0.7,2.4
		c-0.1,0.4-0.2,0.8-0.7,0.4c-0.3-0.5-1-0.4-1.4-0.7c-0.1-0.1-0.3-0.3-0.1-0.5c1.3-0.7,1.7-2,2.2-3.3C22.6,75.4,22.9,75.1,23.2,74.7z
		"/>
	<path class="st82" d="M54.6,86.1c-3.6-0.6-6.9-2.5-10.6-2.8C47.9,83,51.4,83.9,54.6,86.1z"/>
	<path class="st51" d="M20.2,79.1c0,0.2,0.1,0.3,0.1,0.5c-0.4,0-0.7-0.1-0.5,0.5c0.3,0.8,0.6,1.6,0.9,2.5c0.2,0.8,0.4,1.6-0.1,2.5
		c-1-0.8-1.3-2.2-2.6-2.7c0.8-0.4,0.8-1.2,1-1.9C19.2,79.7,19.4,79.2,20.2,79.1z"/>
	<path class="st83" d="M96.9,95c0.1-0.4-0.1-0.7-0.4-0.9c1.8-1.7,3.9-2.9,6.3-3.7c0.2,0.3,0.2,0.6,0.1,0.9c-1,1.2-2.4,1.6-3.7,2.4
		C98.5,94.1,97.9,94.9,96.9,95z"/>
	<path class="st6" d="M15.4,88.2c-1.3-0.5-1.6-1.7-2-2.8c-0.1-0.3-0.3-1.5,0.9-1.1C14.3,85.7,15,86.9,15.4,88.2z"/>
	<path class="st84" d="M24.8,84.2c0.2,0.2,0.1,0.4,0.1,0.6c-0.7,2.6-1.4,5.3-2.2,7.9c-0.1,0.2-0.2,0.3-0.3,0.5
		C23.2,90.2,24,87.2,24.8,84.2z"/>
	<path class="st85" d="M54.3,88.7c-2.8-0.8-5.7-1.5-8.5-2.3c1-0.1,2,0.3,2.9,0.6C50.6,87.5,52.6,87.8,54.3,88.7z"/>
	<path class="st86" d="M6.4,96c0.1,0,0.1,0,0.2,0.1c0.1,0.9,0.4,1.8-0.1,3C5.8,97.9,6.2,97,6.4,96z"/>
	<path class="st87" d="M21.7,95.3c-0.5,1.9-1,3.7-1.5,5.6C20.3,98.9,21,97.1,21.7,95.3z"/>
	<path class="st88" d="M25.8,109c2,0.1,3.8,0.8,5.6,1.3C29.5,110.3,27.7,109.5,25.8,109z"/>
	<path class="st89" d="M11.9,74.3c-0.4,0.8-0.3,1.8-1,2.6c0.4-1.8,0.8-3.6,1.6-5.3C12.3,72.5,12.1,73.4,11.9,74.3z"/>
	<path class="st6" d="M114.4,90.6c-1.3-0.1-2.5-0.3-3.6-1.2C112,89.8,113.3,89.8,114.4,90.6z"/>
	<path class="st6" d="M102.8,91.2c-0.2-0.2-0.1-0.5-0.1-0.8c0.4-0.2,0.9-0.4,1.4-0.4c-0.1,0.3-0.2,0.5,0.1,0.7
		C103.9,91.4,103.5,91.6,102.8,91.2z"/>
	<path class="st90" d="M36.9,80.5c-1.1,0.1-2.2-0.5-3.3-0.6c-0.5-0.2-1-0.2-1.4-0.7C33.8,79.7,35.3,80.1,36.9,80.5z"/>
	<path class="st91" d="M8.8,84.8c0,1.5-0.6,3-1,4.4C7.9,87.7,8.4,86.3,8.8,84.8z"/>
	<path class="st92" d="M21.7,80.2c0.6,0.2,0.5-0.3,0.6-0.6c0.2-0.7,0.3-1.5,0.8-2.1c-0.2,0.9-0.5,1.8-0.7,2.7
		c-0.1,0.2-0.2,0.5-0.5,0.5C21.7,80.7,21.7,80.4,21.7,80.2z"/>
	<path class="st93" d="M10.4,78.5c-0.3,1.2-0.7,2.4-1,3.7C9.5,80.9,9.8,79.7,10.4,78.5z"/>
	<path class="st94" d="M31.7,108.6c-1.3,0-2.5-0.3-3.6-1C29.2,107.9,30.5,108.3,31.7,108.6z"/>
	<path class="st95" d="M39.2,92.9c1.3,0,2.6,0.4,3.7,1C41.6,93.6,40.4,93.3,39.2,92.9z"/>
	<path class="st96" d="M18,106.7c1.1,0.4,2.3,0.4,3.3,1.1C20.2,107.5,18.9,107.5,18,106.7z"/>
	<path class="st97" d="M59.9,90.3c-1,0.1-1.9-0.2-2.7-0.7C58.1,89.8,59,90.1,59.9,90.3z"/>
	<path class="st98" d="M7.3,91.6c0.1,1-0.3,1.9-0.6,2.7C6.6,93.4,7,92.5,7.3,91.6z"/>
	<path class="st99" d="M49.3,81.2c1-0.1,1.9,0.2,2.7,0.7C51.1,81.7,50.2,81.4,49.3,81.2z"/>
	<path class="st100" d="M42.4,96.6c-0.8-0.2-1.6-0.4-2.5-0.6C40.8,95.9,41.7,96.1,42.4,96.6z"/>
	<path class="st101" d="M37.5,85.1c-0.9,0.1-1.7-0.1-2.4-0.7C35.8,84.6,36.7,84.8,37.5,85.1z"/>
	<path class="st102" d="M43.7,85.9c-0.9,0.1-1.7-0.1-2.5-0.5C42.1,85.4,42.9,85.6,43.7,85.9z"/>
	<path class="st103" d="M128.1,65.6c0.3,0.5,0.7,0.9,1.2,1.2c0.7,0.4,1.2,0.9,0.8,1.8c-1.3-0.2-1.8-1.6-3-2c-0.1-0.1-0.1,0.2,0,0
		c0.5,0.6,0.6,1.3,0.7,2c0.1,0.4,0.1,0.9,0.1,1.3c0.2,4.3,0.4,8.7,1.1,13c0.6,3.4,1.8,6.6,3.3,9.7c0.2,0.4,0.4,0.8,0.6,1.1
		c0.3,0.4,0.4,0.8,0.1,1.3c-0.4,0.5-0.9,0.6-1.5,0.4c-0.9-0.2-1.5-0.9-2.1-1.5c-2.5-2.9-4.5-6-5.8-9.5c-0.2-0.7-0.5-1.3-0.8-2
		c-0.2-0.5-0.5-1-0.4-1.6c0-0.7,0.6-1.6-0.5-2.1c-0.1-0.1-0.1-0.2-0.1-0.3c0.2-0.7,0.3-1.4,0.1-2.2c-0.1-0.3,0-0.6,0.1-0.9
		c0.2-0.5,0.4-1.3,1.1-1.1c0.7,0.1,0.5,0.8,0.6,1.3c0,1,0,2.1,0.7,3c0.4,0.5,0.2,1.2,0.4,1.8c0.2,0.6,0.4,1.2,0.9,1.6
		c0.4,0.2,0.4-0.4,0.7-0.4c0.4-0.1,0.8,0.5,1.1-0.1c0.3-0.4-0.1-0.7-0.3-1c-0.8-1.5-1-3.1-0.6-4.8c0.1-0.3,0.2-0.6,0.1-1
		c-0.2-0.5-0.1-1.2-0.4-1.7c-0.3-0.7-1,0.6-1.5-0.1c-0.2-0.7-0.4-1.4,0.1-2.1c0.8-0.5,0.9-1.3,0.9-2.1c0-1.3,0-2.5,0.4-3.8
		C127.1,64.5,127.6,64.9,128.1,65.6z"/>
	<path class="st0" d="M90.4,33.4c-0.5-0.8-1.3-1.1-1.9-1.8c0.1-0.4,0.1-0.8-0.1-1.1c-0.6-1,0.2-1.7,0.6-2.4c0.3-0.6,0.9-0.2,1.4-0.1
		c0.5,0.1,0.2,0.5,0,0.8c-0.1,0.3-0.2,0.5,0.1,0.6c0.6,0.1,0.7,0.5,0.8,1c0.1,0.5,0.6,0.2,1,0.3c0.6,0.2,1.4,0.2,0.9,1.2
		c-0.3,0.5,0.2,0.6,0.6,0.5c0.9-0.2,1.5-0.2,0.8,1c-0.3,0.4-0.3,0.9,0.3,1.3c0.2,0.1,0.4,0.3,0.5,0.5c0.4,1,1,1,1.8,0.4
		c0.1-0.1,0.3-0.2,0.4-0.2c0.3-0.1,0.5-0.4,0.8-0.2c0.3,0.3,0.3,0.6,0,0.9c-0.3,0.4-0.4,0.9,0.3,0.8c0.5-0.1,1.1-0.3,1.4,0.1
		c0.4,0.5,0.6,1.2,0.5,1.9c0,0.2-0.1,0.4-0.1,0.6c0,0.9,0.7,1.5,1.4,1c0.7-0.4,1-0.2,1.5,0.2c0.4,0.3,0.7,0.7,1.3,0.6
		c0.4-0.1,0.6,0.2,0.7,0.6c0.1,0.4,0.3,0.5,0.6,0.8c1,0.7,1,0.8,0.1,1.7c-0.8,0.7-1.3,0.8-1.8-0.1c-0.7-1.1-1.9-1.5-2.8-2.4
		c-1-1-2.3-1.5-3.4-2.3c-0.3-0.3-0.7-0.5-1.1-0.3c-0.9,0-1.4-0.8-2.1-1.3c-1.5-1.2-2.7-2.6-4.2-3.8C90.5,33.9,90.4,33.7,90.4,33.4z"
		/>
	<path class="st0" d="M128.1,65.6c-0.6,0-1-0.9-1.7-0.5c-0.3,0.8-0.7,1.5-1.8,1.2c-0.7-0.6-0.6-1.6-1-2.3c-0.2-0.5-0.5-0.9-0.7-1.4
		c0-0.8-0.2-1.5-1-1.8c-0.4-0.1-0.5-0.5-0.7-0.8c-0.6-0.7-1.2-1.4-2.3-1.3c-0.9,0.1-1.4-0.8-2.2-1c-0.8-1-2-1.7-2.3-3
		c0-0.2,0.1-0.4,0.1-0.6c-0.4-1.8-0.4-1.8,1.2-2.3c1.1-0.3,2.8,1.1,2.5,2.2c-0.2,0.7,0.3,1,0.6,1.5c0.8,1.4,2.6,0.8,3.3,2
		c1.4-0.3,1.8,1.1,2.7,1.6c0.6,0.4,0.8,1.2,0.8,1.9c0,0.7,0.2,1,0.9,0.8c0.6-0.2,0.9,0.1,1.3,0.5c0.3,0.3,0.6,0.6,0.9,0.9
		c0.7,0.6,0.9,1.7,0.3,2.3C128.8,65.9,128.4,65.6,128.1,65.6z"/>
	<path class="st0" d="M167.3,104.7c-1.6,0.5-3.3,0.1-4.9,0c-1.5-0.1-3-0.1-4.4-0.6c-0.5-0.2-1.3-0.5-1.5-0.7c-0.9-0.8-2-1.1-2.9-1.9
		c-0.3-0.2-0.2-0.6-0.1-0.9c0.8-0.5,1.6,0.2,2.4,0.1c2.2,0,4.4,0.3,6.5,0.6c1.1,0.2,2.1,0,3.2,0.1c0.5,0,0.7-0.3,0.8-0.8
		c0.1-0.3,0-0.6-0.2-0.8c-0.4-0.7-0.3-1.3,0.4-1.6c0.8-0.3,1.4,0.3,1.6,0.8c0.2,1,0.6,1,1.5,0.8c1.1-0.2,2.2,1,2.1,2.1
		c-0.1,1.3-0.3,1.1-1.4,1.4C169.2,103.6,167.8,103.4,167.3,104.7z"/>
	<path class="st8" d="M90.4,33.4c2.3,1.8,4.3,4,6.6,5.8c2.3,2,4.6,4.1,6.8,6.1c3.2,2.8,6.3,5.7,9.5,8.6c0,0.4-0.1,0.6-0.5,0.7
		c-1.3-0.4-2.1-1.5-3.1-2.3c-5.2-4.5-10.3-9.1-15.4-13.7c-0.3-0.2-0.5-0.5-1-0.6c0.5,1.3,0.8,2.6,0,3.9c-1.1,1.7-2.9,2.4-4.8,3
		c-1.1-0.2-2.2-0.3-3.1-1.1c-0.7-1.3-1.7-2.5-1.8-4.2c0-0.9,0.2-1.6,0.8-2.4c1.5-1.7,3.3-2.8,5.4-3.4C90.1,33.7,90.2,33.6,90.4,33.4
		z"/>
	<path class="st24" d="M166.3,100.6c0.2,0.3,0.7,0.5,0.5,0.9c-0.2,0.4-0.7,0.1-1,0.2c-3.3,0.2-6.6-0.6-9.9-0.7
		c-1.3-0.1-2.4-0.7-3.7-0.8c-0.6-0.1-1.3-0.3-1.9-0.4c-0.5,0.1-0.9,0.1-1.2-0.4c-0.1-0.4-0.7-0.3-0.9-0.7c0.1-0.3,0.4-0.5,0.7-0.7
		c0.1-0.1,0.2-0.1,0.4-0.1c1.9,0.4,3.7,0.8,5.5,1.5c0.9,0.4,1.8,0.6,2.8,0.5c2-0.2,4,0.3,6,0.6c-2.8-3.7-6.7-6.2-10-9.4
		c-0.4-0.4-0.8-0.8-1.2-1.2c-0.1-0.1-0.2-0.1-0.3-0.2c-0.2-0.2-0.4-0.4-0.3-0.7c0.1-0.4,0.5-0.4,0.8-0.5c0.5,0.4,1,0.8,1.5,1.2
		c0.4,0,0.7,0.3,1,0.5c2.3,2,4.5,4,6.8,6c0.3,0.2,0.6,0.5,0.6,0.9C163.6,98.3,164.8,99.6,166.3,100.6z"/>
	<path class="st0" d="M162.3,97.1c-2.8-2.5-5.6-5-8.3-7.4c0.5-1.4,2.2-1.6,3.4-0.2c0.5,0.6,0.9,0.8,1.7,0.6c0.6-0.1,1.3-0.3,1.3,0.7
		c0,0.1,0.1,0.2,0.1,0.2c1.3,0.1,1.2,1.5,2,2.1c0.4,0.3,0.3,0.9,0.2,1.3c0,0.6,0,1.2,0.7,1.4c0.5,0.2,0.7,0.5,0.5,1
		c-0.2,0.5-0.6,0.3-1,0.2C162.7,96.9,162.5,96.9,162.3,97.1z"/>
	<path d="M147.7,98.5c-4.9-2.4-7.4-6.3-8.4-11.6c-0.6-3.3-0.5-6.7-0.8-10c0-0.1,0.1-0.3,0.1-0.6c0.6,0.5,1,1,1.5,1.4
		c0.3,0.6,0,1.3,0.2,1.9c0,0.6-0.2,1.1-0.3,1.7c0,0.6,0.1,1.2,0.1,1.8c0,1.3-0.1,2.5,0.2,3.8c0.1,0.5,0.2,0.9,0.3,1.4
		c1.2,4.2,3.7,7.2,7.5,9.2C148.7,98.1,148.3,98.3,147.7,98.5z"/>
	<path d="M112.9,54.5c0.1-0.2,0.3-0.5,0.4-0.7c0.4,0.3,0.7,0.6,1.1,0.8c0.7,1,1.8,1.7,2.3,3c1.1,1.4,1.4,3.1,2.1,4.7
		c0.7,2.6,1.3,5.3,1.8,7.9c0.4,2.8,1.1,5.5,1.5,8.2c0,0.1,0,0.2,0,0.2c0.1,0.2,0.3,0.4,0.1,0.6c-0.3,0.1-0.6,0.2-0.9,0
		c-0.4-0.3-0.5-0.8-0.6-1.3c-1.1-5.2-1.9-10.5-3.2-15.6c-0.3-1.3-0.8-2.6-1.4-3.9c-0.5-1.1-1.2-2-2.3-2.8
		C113.4,55.5,112.8,55.2,112.9,54.5z"/>
	<path class="st52" d="M127.7,69.9c-0.2-1.2-0.5-2.5-0.7-3.8c1.3,0.6,2,1.9,3.2,2.5c1.8,1.6,3.5,3.3,5.4,4.8
		c0.8,0.6,0.9,1.2,0.7,2.1c-0.1,0.5-0.3,1-0.4,1.6c-0.4,0-0.6,0.5-1,0.6c-0.6-0.7,0-1.5-0.1-2.3c0-0.5,0.1-1-0.4-1.4
		c-1.7-1.2-3.1-2.6-4.7-3.9c-0.6-0.5-0.9-0.5-1.2,0.2C128.2,70.3,127.9,70.2,127.7,69.9z"/>
	<path class="st104" d="M149.2,102.6c-0.1,0.3-0.3,0.6-0.6,0.5c-1.2-0.3-2.5-0.4-3.5-1.1c-2-1.5-3.8-3.1-5.4-5.1
		c-1.4-1.8-2.4-3.9-3.5-5.9c-0.1-0.1,0-0.3,0-0.5c0.2-0.2,0.5-0.1,0.7,0c0.8,0.3,0.9,1,0.9,1.7c0.4,1.1,1.1,2.1,1.8,3.1l0,0
		c1.7,2.8,4.1,4.7,7.1,6c0.7,0.3,1.4,0.7,2.1,1.1C148.9,102.3,149.1,102.3,149.2,102.6z"/>
	<path class="st105" d="M140.1,79.4c-0.6-0.6-0.1-1.2,0-1.8c2.2,1.6,4.1,3.4,6.1,5.2c0.8,0.7,1.6,1.4,2.3,2.2c0.1,0.4,0.3,0.9,0,1.3
		c-1.2,0.3-1.4-1-2.1-1.3c-1.5-1.6-3-3.2-4.8-4.4C140.9,80.3,140.6,79.7,140.1,79.4z"/>
	<path d="M137,90.7c-0.3-0.1-0.6-0.1-0.8-0.2c-1-1.8-1.1-3.8-1.2-5.8c0-0.4,0-0.9-0.2-1.3c-0.5-2-0.6-3.9,0.3-5.9
		c0.2-0.3,0-1.3,0.9-0.5c-0.7,4.6-0.4,9.1,1.1,13.5C137,90.5,137,90.6,137,90.7z"/>
	<path class="st0" d="M82,25.9c-0.6-0.5-1.2-1.1-1.9-1.6c0.2-0.6,0.4-1.3,0.2-1.9c-0.1-0.5,0.1-0.9,0.2-1.3c0.1-0.3,0.3-0.6,0.6-0.5
		c0.4,0.1,0.3,0.4,0.1,0.7c-0.2,0.4,0,0.7,0.3,1c0.6,0.5,0.7,1.2,1,1.9C82.9,24.9,82.6,25.4,82,25.9z"/>
	<path class="st0" d="M111.5,49.9c-0.2,0.4-0.5,0.6-0.7,0.3c-1.3-1.4-3.1-2.3-4.3-3.8c-0.2-0.3-0.7-0.6-0.3-0.9c0.4-0.4,0.7,0,1,0.3
		c0.9,0.9,1.7,2,3.2,1.9c0.1,0,0.2,0.1,0.3,0.1C111.4,48.3,110.8,49.4,111.5,49.9z"/>
	<path class="st0" d="M137,90.7c0-0.1,0-0.2,0-0.3c0.1-0.3,0.3-0.6,0.4-0.9c0.1-0.4-0.1-0.9,0.4-1c0.7-0.1,0.7,0.6,0.9,1
		c0.3,0.6,0.5,1.2,0.7,1.9c0.2,0.8-0.3,1.1-1.6,0.8C137.5,91.7,137.2,91.2,137,90.7z"/>
	<path class="st0" d="M87.2,28.3c-0.8,0-1.4-0.4-1.9-0.8c-0.5-0.4-0.8-0.9-1.5-0.9c-0.3,0-0.3-0.3-0.2-0.5c0.1-0.5,0.1-1.1,0.7-1.2
		c0.5-0.1,1-0.1,1.5-0.1c0.4,0,0.6,0.3,0.5,0.5c-0.7,1.2,0,1.9,0.9,2.6c0.1,0,0.1,0.1,0.1,0.2C87.2,28.2,87.2,28.2,87.2,28.3z"/>
	<path d="M148.4,86.3c0-0.4,0.1-0.8,0.1-1.3c1.3,1.2,2.7,2.3,4,3.5c-0.1,0.4-0.5,0.3-0.7,0.6c-0.5,0.2-0.7-0.3-1.1-0.5
		C149.9,87.8,148.9,87.3,148.4,86.3z"/>
	<path class="st106" d="M75.9,20.8c-0.1,0.2-0.1,0.4-0.2,0.6c-0.2,0.3,0.1,1.2-0.7,1c-0.5-0.1-1.2,0-1.3-0.7c-0.1-0.7,0.4-1.1,1-1.4
		c0.2-0.1,0.5,0.1,0.7-0.1C75.7,20.2,75.9,20.4,75.9,20.8z"/>
	<path class="st0" d="M139.5,95.3c0-0.5-0.1-1.1-0.1-1.6c0-0.4,0.2-0.6,0.6-0.7c0.4,0,0.4,0.3,0.5,0.6c0,0.2,0.1,0.3,0.1,0.5
		C141,95.4,140.9,95.5,139.5,95.3L139.5,95.3z"/>
	<path class="st0" d="M138,86.5c-0.1,0.4-0.2,0.9-0.8,0.8c-0.4-0.1-0.5-0.7-0.4-1.1c0.1-0.5,0.6-0.8,1-0.7
		C138.2,85.6,138.1,86.2,138,86.5z"/>
	<path class="st0" d="M113.1,52c-0.4-0.1-0.8-0.3-0.6-0.7c0.1-0.3,0.3-0.8,0.7-0.6c0.4,0.2,0.5,0.8,0.5,1.2
		C113.7,52.3,113.3,52,113.1,52z"/>
	<path class="st107" d="M149.2,102.6c-0.2-0.1-0.3-0.1-0.5-0.2c1.6-0.1,3,0.6,4.4,1C151.7,103.5,150.5,102.7,149.2,102.6z"/>
	<path class="st0" d="M176.9,108.6c-0.3-0.2-0.5-0.5-0.5-0.8c0.1-0.3,0.4-0.2,0.6-0.1c0.3,0.1,0.5,0.3,0.4,0.6
		C177.3,108.6,177.2,108.7,176.9,108.6z"/>
	<path class="st108" d="M152.2,100.2c1.3-0.1,2.5,0.5,3.7,0.8c-0.9,0.2-1.7-0.4-2.5-0.4C153,100.4,152.6,100.3,152.2,100.2z"/>
	<path class="st0" d="M149,99.4c0.4,0.1,0.8,0.2,1.2,0.4c-0.4,0.3-0.8,0.6-1.3,0.4C148.9,100.1,149,99.7,149,99.4z"/>
	<path class="st19" d="M147.7,98.5c0.2-0.2,0.7-0.3,0.5-0.8c0.1-0.1,0.2-0.1,0.3-0.1c0.2,0.1,0.4,0.3,0.4,0.5
		c-0.1,0.3-0.4,0.5-0.7,0.6C148,98.6,147.9,98.5,147.7,98.5z"/>
	<path class="st109" d="M135,77.5c-0.3,1.5-0.2,3-0.2,4.5c0,0.4,0,0.9,0,1.3c-0.1,0.1-0.2,0.3-0.2,0.4c-0.3,1.3-0.9,1.9-2.4,1.6
		c-0.6-0.1-0.6,0.4-0.3,0.8c0.3,0.5,0.5,1,0.5,1.5c-0.1,0.6-0.2,1.1-1,0.9c-0.7-0.1-0.6-0.7-0.8-1.1c-0.9-2.6-1.4-5.3-1.7-8
		c-0.2-2.8-0.6-5.7-0.4-8.5c0-0.3,0-0.7,0.3-0.9c0-0.4-0.5-0.8,0-1.3c1.7,1.1,3.1,2.8,4.9,3.9c1.8,1.1,1.9,2.5,1.4,4.2
		C134.8,77.1,134.9,77.3,135,77.5z"/>
	<path class="st8" d="M111.7,72.3c-0.6,0.7-1.1,1.4-1.6,2.2c-0.2,0.2-0.4,0.3-0.7,0.3c-0.2,0-0.4-0.1-0.4-0.3c0-0.1,0-0.3,0-0.4
		c2.8-3.8,2.2-8.4-0.6-12.3c-3.5-5-8-8.8-13.2-11.9c-1.9-1.2-4.2-1.7-5.9-3.2c-0.1-0.1-0.1-0.3-0.1-0.4c0.1-0.4,0.4-0.5,0.8-0.5
		c3.5,1,6.6,2.9,9.5,5c3.9,2.9,7.4,6.3,10.2,10.3c1.9,2.8,3,5.8,2.8,9.3c0,0.5-0.2,1-0.4,1.4C112.1,72.1,111.9,72.2,111.7,72.3z"/>
	<path class="st55" d="M109,74.4c0.2,0.1,0.4,0.1,0.6,0.2c-0.1,1.4-1.3,1.6-2.3,2c-0.2,0.1-0.4,0.2-0.6,0.3c-2.2,1-4.5,0.8-6.8,0.9
		c-3.4,0-6.7-0.9-10.1-0.4c-2.3,0.4-4.7,1-7,1.6c-0.7,0.2-1.2,0.1-1.7-0.4c-0.2-0.8,0.4-0.9,0.9-0.9c2.1,0,4-0.6,6-1.1
		c2.8-0.7,5.7-0.8,8.5-0.6c0.3,0,0.7,0.1,1,0.1c2.2,0.2,4.4,0.5,6.7,0.2c0.7-0.2,1.3-0.4,2-0.6C107.3,75.6,107.9,74.5,109,74.4z"/>
	<path class="st110" d="M111.7,72.3c0.1-0.1,0.1-0.3,0.2-0.4c0.6-0.3,1.2-0.2,1.8-0.1c0.4,0.1,0.8,0.3,1.2,0.3
		c3.3,0.3,5,2.2,5.5,5.3c0,0.3,0.3,0.5,0.4,0.7c0.2,0.4,0.3,0.8,0.5,1.2c0.3,0.2,0.3,0.5,0.3,0.8c-0.1,0.5,0.2,0.9,0.4,1.3
		c0,0.1,0,0.1,0,0.2c-0.3,0.5,0,1.5-0.8,1.5c-0.6,0-0.8-0.8-1-1.4c-0.2-0.7-0.5-1.1-1.2-0.4c-0.7,0.6-0.7-0.5-1.2-0.5
		c-0.4-0.2-0.5-0.5-0.5-0.8c0-0.1,0.1-0.2,0.2-0.2c-0.1-1,0.6-1.8,0.7-2.8c0.2-1.6-1-3.3-2.7-3.7c-1-0.3-2-0.7-3-0.4
		C112.2,72.8,111.9,72.7,111.7,72.3z"/>
	<path class="st111" d="M123.1,82.3c1.2,2.6,2.2,5.4,3.8,7.8c1,1.5,2.2,2.8,3.3,4.2c0.3,0.4,0.7,0.8,1.3,1c0.5,0.2,0.9,0.1,1.2-0.2
		c0.4-0.4,0.2-0.8,0-1.1c-0.2-0.4-0.4-0.7-0.6-1.1c0.1-0.2,0.2-0.3,0.4-0.4c0.4,0.3,0.4,0.9,0.7,1.3c0.3,0.6,0.8,1.2,0,1.9
		c-0.8,0.7-1.6,0.9-2.5,0.4c-0.9-0.6-1.7-1.3-2.1-2.3c-0.7-1.5-2.2-2.4-3-3.8c-0.9-1.6-1.9-3.1-2.3-4.9c-0.2-1-0.9-1.8-0.9-2.8
		C122.6,82,122.8,82.3,123.1,82.3z"/>
	<path d="M132.5,92.4c-0.1,0.2-0.2,0.3-0.4,0.4c-2.2-3.9-3.4-8.2-3.8-12.6c-0.3-3.4-0.7-6.9-0.6-10.3c0.3,0.1,0.6,0.2,0.9,0.2
		c-0.1,4.6,0.2,9.1,1.1,13.6c0.3,1.7,0.7,3.4,1.5,4.9C131.6,89.9,132.1,91.2,132.5,92.4z"/>
	<path class="st68" d="M117.6,79.6c0,0.1,0,0.2-0.1,0.2c-0.2,0.2-0.4,0.5-0.7,0.5c-0.2,0-0.3,0-0.5,0c-0.6-0.1-1.5-0.3-1.5,0.7
		c0,0.9,0.7,1.1,1.5,0.9c0.4,0,0.8-0.2,1.2,0c-0.2,0.5-0.6,0.9-1,1.3c-1.1,0.9-1.6,0.9-2.7,0c-1.9-1.6-2-1.9-1.4-3.5
		c0.4-1,1.1-1.3,2.1-1.3C115.8,78.3,116.7,78.7,117.6,79.6z"/>
	<path class="st52" d="M123.1,82.3c-0.3,0.4-0.5,0-0.8-0.2c-0.1-0.2-0.2-0.4-0.3-0.6c0,0,0,0,0,0c-0.2-0.5-0.6-0.9-0.6-1.5
		c0-0.3,0-0.5-0.1-0.8c0.3,0,0.6,0,0.8,0c0.8,0.4,0.3,1.1,0.5,1.7C122.8,81.4,122.9,81.8,123.1,82.3z"/>
	<path class="st68" d="M107.3,76.5c0.8-0.7,1.9-0.9,2.3-2c0.2,0,0.4-0.1,0.5-0.1C109.7,76.2,109,76.7,107.3,76.5z"/>
	<path class="st112" d="M117.5,81.9c-0.4,0.1-0.7,0.4-1.1,0.2c-0.2-0.7-0.1-1.4,0.5-1.9c0.2-0.2,0.4-0.4,0.7-0.4
		c0.1,0.3,0.2,0.6,0.3,0.9C117.7,81.1,117.6,81.5,117.5,81.9z"/>
	<path class="st68" d="M99.9,87.5c-0.7,0.6-1.5,1-2.4,1.2C98,87.4,99,86.9,99.9,87.5z"/>
	<path class="st113" d="M92.5,86.3c0.4-0.4,0.7-0.3,1.1,0c0,0.3,0,0.7-0.5,0.7C92.6,87,92.4,86.7,92.5,86.3z"/>
	<path class="st114" d="M102.8,91.2c0.5,0.1,1-0.2,1.4-0.4c0.8-0.2,1.6-0.3,2.4-0.2c-0.5,0.5-0.9,1.4-1.9,1.1
		c-0.4-0.1-0.6,0.3-0.6,0.6c0,0.6,0,1.2,0.4,1.7c0.3,0.3,0.6,0,0.9-0.2c0.6-0.3,1.2-0.6,1.5-1.3c0.2-0.3,0.5-0.6,0.8-0.6
		c1.8,0.1,3.7-0.2,5.5,0.6c0.4,0.2,0.8,0.4,0.9,0.8c0.2,0.7,0.5,1.2,1.4,0.9c0.1,0,0.4,0.1,0.4,0.2c-0.1,0.8,0.6,1.7,0,2.5
		c-0.3-0.5-0.6-1-0.9-1.4c-0.5-0.7-1.3-0.9-2-0.4c-0.8,0.5,0.2,0.4,0.3,0.6c-0.2,0.5-0.5,1.1-0.5,1.7c-0.1,0.8-0.8,0.7-1.3,0.9
		c-2.1-0.4-4.3,0-6.4-0.2c-0.4-0.7-1.3-1-1.9-1.5c-0.3-0.7-0.9-0.5-1-0.1c-1,2.7-3.4,2-5.4,2.4c-0.7,0.1-1.4,0-2.1,0.1
		c-0.3,0-0.6,0.2-0.8-0.2c-0.1-0.3,0-0.6,0.2-0.8c1-1,2-2.1,3-3.1C98.7,93.4,100.9,92.5,102.8,91.2z"/>
	<path class="st6" d="M108.5,90.3c0.5-0.7,1.2-0.6,1.8-0.2c0.9,0.6,1.8,0.7,2.8,0.8c1.1,0.1,2.1,0.5,2.8,1.4
		C113.5,91.6,111,91,108.5,90.3z"/>
	<path class="st115" d="M82.2,107.1c4.5-1.2,9-2,13.6-2.8c1.2-0.2,2.5-0.2,3.8-0.3c0.5-0.1,1-0.2,1.4-0.4c2.5-0.1,5.1-0.2,7.6-0.3
		c0.4,0.1,1-0.2,1.1,0.5c-1.9,0.1-3.7,0.2-5.6,0.3c-5.5,0.3-10.9,1-16.3,2.3c-1.7,0.4-3.5,0.7-5.3,1
		C82.4,107.6,82.1,107.5,82.2,107.1z"/>
	<path class="st116" d="M82.2,107.1c0,0.3,0.2,0.3,0.4,0.4c-1,0.6-2.2,0.3-3.1,0.9c-0.3-0.1-0.5-0.1-0.9-0.3
		c0.4-0.2,0.7-0.3,0.9-0.5C80.4,107.5,81.3,107.3,82.2,107.1z"/>
	<path class="st117" d="M109.8,103.8c-0.2-0.4-0.8-0.3-1.1-0.5c0.7,0,1.4,0,2.1,0c0.1,0.1,0.3,0.2,0.2,0.3
		C110.6,103.9,110.2,104.1,109.8,103.8z"/>
	<path class="st118" d="M112.6,97.4c-0.5-0.8-0.3-1.3,0.5-1.7c0.3,0.1,0.7,0.2,1,0.4c0.4,0.3,0.6,0.7,0.4,1.2
		c-0.2,0.5-0.6,0.4-1.1,0.3C113.1,97.5,112.8,97.5,112.6,97.4z"/>
	<path class="st119" d="M103,96.7c0.9,0.1,1.9,0.1,1.9,1.5c-0.2,0.5-0.8,0.3-1,0.8c-0.5-0.2-1.1,0.3-1.4-0.5
		C102.2,97.7,102.4,97.2,103,96.7z"/>
	<path class="st120" d="M36.5,42.1c0.5,0.9,1.2,1.8,1,3c-0.8-0.6-0.8-1.6-1.4-2.2C36.1,42.7,36.1,42.3,36.5,42.1z"/>
	<path class="st121" d="M41.7,50.7c0.2-0.2,0.4-0.3,0.6-0.5c0.5-0.5,0.7-0.2,1,0.3c0.9,1.7,0.9,3.6,0.9,5.4c0,0.8-0.2,1.6-0.3,2.3
		c-0.3,0.4-0.6,0.9-0.9,1.3c-0.6,0.7-1.2,0.9-1.8,0.1c-0.4-0.5-0.9-0.7-1.5-0.5c-1.1,0.4-1.5-0.2-1.9-1c0.2-0.7,0.3-1.5,0.8-2.1
		c1-1.1,1.6-2.5,2.3-3.8C41.1,51.8,41.4,51.2,41.7,50.7z"/>
	<path class="st6" d="M35.2,62.4c0-1.2,0.2-2.3,1.5-2.7C36.3,60.7,36,61.7,35.2,62.4z"/>
	<path class="st6" d="M38.5,56.1c-0.2,0.7-0.3,1.5-0.8,2.1c-0.1,0.1-0.3,0.3-0.4,0.4C37.6,57.7,37.5,56.6,38.5,56.1z"/>
	<path class="st122" d="M58.2,16.5c-1.2,0.1-0.5,0.8-0.3,1.3c-0.8,1,0,1.8,0.3,2.6c-0.2,0.1-0.5,0.1-0.4,0.5
		c-1.3-0.5-2.1-1.6-3.1-2.4c-1.5-1.2-3.2-2-4.9-2.8c-0.7-0.3-0.9-0.5-0.4-1.1c1.2-1.5,2.5-3,4.1-3.9c0.9-0.5,2.5-0.7,3.8-0.3
		c2.4,0.7,4.8,1.2,7.2,2c1.6,0.5,2.9,1.7,4.2,2.8c0.4,0.3,0.7,0.6,1.1,0.7c0.3,0.4,0.1,0.7-0.2,0.8c-1.4,0.5-2.7,1.3-4.2,0.1
		c-0.1-0.1-0.2-0.3-0.3-0.4c-1.3-1.4-2-1.5-3.1,0c-0.4,0.5-0.6,0.5-1,0.3c-0.5-0.3-1.1-0.3-1.6-0.6C58.7,15.6,58.3,15.9,58.2,16.5z"
		/>
	<path class="st123" d="M57.7,20.9c-0.1-0.3,0-0.6,0.4-0.5c0.7,0.2,1.2,0.5,1.2,1.3c-0.5,0.1-0.8-0.2-1.2-0.3
		C58,21.2,57.9,21.1,57.7,20.9z"/>
	<path class="st124" d="M68,28.5c-1.2-0.3-2.2-1-3.2-1.6c-0.6-0.3-0.5-0.7,0-1c1.7-1,3.4-1.9,5.1-2.9c0.8-0.4,1.7-0.7,2.5-1.1
		c0.4-0.2,0.7-0.2,1,0.4c0.5,1.1,1.4,1.2,2.4,0.7c0.6-0.3,1.1-0.3,1.6,0.1c1.3,1.1,2.6,2.1,3.9,3.2c0.3,0.3,0.6,0.6,0.4,1.1
		c-0.1,0.5-0.5,0.5-1,0.6c-1.9,0.5-3.8,0.8-5.8,1.2c-0.9,0.2-1-0.1-0.8-0.9c0.3-0.7,0.1-1.3-0.1-1.9c-0.5-1.2-0.9-1.5-2.4-1.2
		c-1.1,0.2-2,1.2-2,2.1C69.6,29,69.6,29,68,28.5z"/>
	<path class="st125" d="M71.7,28.5c-0.8-0.2-1.5-0.3-1.2-1.4c0.3-1.1,1-0.9,1.8-0.8c1.1,0.1,0.9,1,0.8,1.5
		C73.1,28.7,72.4,28.9,71.7,28.5z"/>
	<path class="st6" d="M17.3,61.5c-0.4,1.2-0.3,2.5-1.2,3.5c-0.4-1.3,0.7-2.3,0.8-3.4C16.9,61.6,17.2,61.5,17.3,61.5z"/>
	<path class="st126" d="M90,33.9c0,0.6-0.5,0.7-1,0.8c-2.2,0.3-3.5,2-4.7,3.5c-0.9,1.2-0.3,2.9,0.7,4.2c0.3,0.4,0.7,0.7,0.6,1.3
		c0.1,0.1,0,0.3-0.1,0.3c-2-0.4-3.9,0.1-5.9-0.2c-4-0.5-7.8,0.6-11.4,2.2c-2,0.9-3.8,2.2-5.3,3.9c-0.4,0.5-0.7,0.9-0.8,1.5
		c-0.2,0.9-0.5,1.7-1.1,2.4c-0.1,0.1-0.2,0.1-0.3,0.2c-0.4,0-0.9,0.1-1.3,0.3C58.8,54,59,53.4,58.9,53c-0.5-2.5-1.1-4.9-2.5-7.1
		c-0.2-0.4-0.4-1-1.1-0.4c-0.3,0.3-0.7,0.6-1.1,0.7c-1.5,1.9-2.2,4.3-2.5,6.6c-0.3,2-0.5,4.1-0.9,6.1c0,0.8,0.3,1.7-0.1,2.5
		c-1.6,0.6-1.8,0.5-1.9-1.5c-0.6-0.7-0.1-1.6-0.2-2.4c0.4-1.6,0.1-3.3,0.1-4.9c-0.3-2.2-0.8-4.3-2.4-6c-1-1-0.6-2,0.1-2.8
		c1.4-1.6,2.4-3.4,3.9-4.9c2.1-2.2,4-4.6,6.3-6.6c0.4-0.4,0.9-0.8,1.1-1.3c1.3-1.8,1.7-1.6,4-0.5c0.7,0.3,1.2,0.9,1.8,1.3
		c0.2,0.6-0.5,1-0.4,1.6c-1.6,1-3,2.2-3.2,4.3c-0.2,1.2,0.9,3.8,2,4.5c1.3,0.8,2.6,0.2,3.7-0.5c2.3-1.5,3-3.3,2.2-6
		c-0.1-0.3-0.2-0.6-0.1-0.9c0.1-0.4,0.1-0.8,0.4-1.1c1.8,0.1,3.5,0.3,5.3,0.6c2.8,0.5,5.6,0,8.2-1.2c0.9-0.4,1.8-0.7,2.5-1.3
		c0.4-0.2,0.9-0.2,1.1-0.5c1-1.1,1.5-0.3,2,0.4C87.9,32.7,88.9,33.4,90,33.9z"/>
	<path class="st127" d="M63,33.1c-0.6-0.7,0.3-0.9,0.4-1.4c1.6,0.5,3.3,0.9,4.6,2c0,0.4,0.3,0.8-0.3,1c-1.2-0.4-2.1-1.3-3.5-1.3
		C63.8,33.4,63.3,33.6,63,33.1z"/>
	<path class="st6" d="M48.7,57.5c0.1,0.8,0.1,1.6,0.2,2.4c-0.1,0.2-0.1,0.3-0.2,0.5C47.8,59.4,48.3,58.5,48.7,57.5z"/>
	<path class="st0" d="M96.5,76.3c-0.7,0-1.4,0.1-2.1,0C91.1,76,88.1,77,85,77.7C84,77.9,83,78.1,82,78c-0.5,0-0.8,0-0.9,0.6
		c-0.1,0.5-0.5,0.7-1,0.6c-0.9,0.3-1.8-0.1-2.5-0.4c-4.1-2-8-4.3-11-7.9c-0.9-1-1.4-2.2-2-3.4c-1.7-2.6-3.2-5.3-3.7-8.5
		c-0.1-0.5-0.3-1.1,0.1-1.6c0.6-0.5,0.9,0.1,1.2,0.4c0.3,0.2,0.6,0.5,1,0.3c0.4-0.3,0.3-0.7,0.1-1c-0.5-0.9-0.4-1.6,0.3-2.4
		c0.3-0.4,0.4-0.9,0.3-1.4c-0.1-0.9,0.1-1.7,0.6-2.5c0.4-0.6,0.2-1.2-0.2-1.7c0.4-0.9,1-1.5,2-1.7c0.3,0.2,0.4,0.5,0.8,0.5
		c0.6,0,1.1-0.2,1.6-0.6c0.5-0.5-0.4-0.7-0.2-1.2c2.3-1.4,4.8-2.3,7.5-1.9c0.3,0.8,0.3,0.8,1.2,0.8c-0.3-0.3-0.7-0.5-0.4-0.9
		c1.5-0.5,3-0.2,4.5,0.1c0.5,0.3,0.7,0.7,0.9,1.2c0.3,0.7,0.1,1.1-0.6,1.1c-1.2-0.1-1.3,0.4-0.7,1.3c0.1,0.1,0.1,0.3,0,0.5
		c-0.1,0.1-0.2,0.2-0.3,0.2c-2.1,0-4.2,0.2-6.3,0.1c-0.1,0-0.1-0.1-0.2-0.1c-0.2-0.3,0-1-0.5-1c-0.5,0-0.5,0.6-0.7,1
		c-0.3,0.4-0.7,0.6-1.3,0.4c-0.1-0.1-0.1-0.3-0.1-0.5c0-0.3,0.1-0.7-0.4-0.7c-0.2,0-0.3,0.1-0.4,0.2c-0.3,0.5,0.3,0.5,0.4,0.8
		c0.1,0.1,0.1,0.2,0.2,0.3c-0.2,0.8-0.9,0.9-1.4,1.3c-0.3,0.3-0.7,0.6-0.9,1c-0.4,0.4-0.7,1.1-1.5,0.9c-0.5-0.5-0.2-1,0.1-1.4
		c0.4-0.6,1-1.2,1.4-1.8c-1,0.6-1.9,1.3-2.8,2c-0.4,0.3-0.3,0.6,0.2,0.8c0.3,0.1,0.6,0.2,0.8,0.5c0,0.6-0.5,0.8-0.8,1.1
		c-0.8,0.7-1.2,1.5-1,2.6c0,2.6,0.3,5.1,1.9,7.3c1.8,2.6,3.5,5.3,5.8,7.6c3.2,4.2,7.5,4.5,12.1,3.2c1.3-0.4,2.6-0.8,3.9-1.3
		c0.4-0.2,0.8-0.4,1.3,0c0.2,0.5,0.1,1,0.2,1.5c0.2,0.7,0.5,1.1,1.3,1.1c0.7,0,0.7-0.6,0.7-1.1c0-0.5,0.2-0.9,0.8-1
		c0.5-0.1,1.1,0,1.2,0.4C94.7,74.8,95.8,75.4,96.5,76.3z"/>
	<path class="st7" d="M73.2,99.5c-3.9-0.3-6-5.5-5.3-8.4c0.9-3.5,1.3-4.2,4.7-6c1.7-0.9,3.6-1.2,5.6-0.6c2.7,0.7,6.1,6.3,5,9.7
		C82,98,77.2,100.6,73.2,99.5z"/>
	<path class="st114" d="M61,61.8c-0.2,0.6-0.2,1.6-1.2,0.6c-0.4-0.4-0.9-0.2-1.1,0.3c-0.2,0.7-0.4,1.3-0.3,2
		c0.2,1.2,0.2,2.5,0.3,3.7c0,0.7-0.1,1.3-1,0.6c-0.1-0.1-0.3-0.1-0.5-0.2c-1.2-0.8-0.8-2-0.8-3c0.1-0.7,0.1-1.3,0.1-2
		c0.1-0.9,0.3-1.8,0.7-2.7c1-1.1,0.9-2.5,1.5-3.7c0.4-0.4,0.9-0.5,1.3-0.8C60.6,58.3,61.3,60,61,61.8z"/>
	<path class="st2" d="M64.8,67.1c1.8,4.1,5,6.7,8.7,9c2.1,1.3,4.2,2.5,6.7,3c0.2,0.2,0.4,0.5,0.6,0.7c-0.9,0.7-2.2,0.7-3.1-0.2
		c-0.8-0.8-1.9-1.1-2.9-1.6c-1.4-0.6-2.6-1.6-3.9-2.4c-2.1-1.5-3.7-3.6-5.6-5.3c-0.8-0.8-1-2-1.2-3.1C64.3,67.1,64.6,67.2,64.8,67.1
		z"/>
	<path class="st19" d="M57.2,69.3c0.7,1.1,1.1,2.4,1.4,3.7c0.1,0.5,0,1-0.3,1.4c-0.8,1.1-1.6,1.2-2.5,0.1c-1.7-2-3.2-4.3-3.9-6.9
		c0.2-0.2,0.4-0.2,0.7-0.2c0.7,0.5,0.8,1.3,1.1,2c0.6,1.3,1.4,2.5,2.3,3.7c0.3,0.4,0.7,0.8,1.3,0.5c0.5-0.3,0.3-0.8,0.1-1.3
		c-0.3-0.9-0.8-1.7-0.7-2.6C56.8,69.6,57,69.4,57.2,69.3z"/>
	<path d="M64.8,67.1c-0.2,0.2-0.4,0.2-0.6,0.2c-1.4-1.7-2-3.8-3.1-5.5c0.1-1-0.5-1.9-0.6-2.9c-0.1-0.8-0.2-1.5-0.3-2.3
		c-0.6-1.1-0.2-2.1,0.5-3c0.1,0,0.2,0,0.2,0c0.9,0,0.6,0.7,0.7,1.2c-0.1,0.9-0.2,1.7-0.4,2.5c0,2,0.7,3.9,1.4,5.7
		C63,64.6,64.1,65.8,64.8,67.1z"/>
	<path class="st128" d="M24.1,96.2c-0.1,0.1-0.2,0.2-0.3,0.3c-0.4,0.1-0.5,1.1-1,0.8c-0.5-0.3-0.1-1,0.1-1.4
		c1.3-2.6,1.3-5.6,2.2-8.3c0.1-0.4,0.3-0.9,0.4-1.3c0.5,0.8,0.3,1.6,0.1,2.4c-0.6,2.1-0.7,4.3-1.4,6.4
		C24.1,95.3,24.1,95.8,24.1,96.2z"/>
	<path d="M57.2,69.3c-0.1,0.2-0.2,0.4-0.4,0.4c-1.3-1.3-1.1-3-1.3-4.6c-0.1-0.4,0-0.9,0.1-1.4c0.2-1,0.4-2.1,0.9-3.1
		c0.4-0.6,0.4-1.3,0.9-1.9c0.9-0.1,0.8,0.6,0.7,1.1c-0.1,0.4-0.3,0.8-0.4,1.2c-0.3,1-0.5,1.9-0.8,2.9c-0.2,0.6-0.3,1.2,0,1.8
		c-0.2,1.1-0.1,2.1,0.5,3C57.3,69,57.2,69.2,57.2,69.3z"/>
	<path d="M52.5,67.5c-0.2,0.2-0.4,0.2-0.6,0.2c-0.7-2-1-4.1-1.1-6.3c-0.1-0.8-0.1-1.6-0.2-2.3c0-0.7,0.3-1,1-0.8
		c0.3,0.5,0.2,1,0.2,1.5c0,2.2,0,4.5,0.7,6.7C52.7,66.8,52.7,67.1,52.5,67.5z"/>
	<path class="st89" d="M22.1,106.4c-0.8,0-1.3-0.6-2-0.5c-0.2,0-0.4-0.2-0.3-0.4c0-0.3,0.3-0.3,0.5-0.2
		C20.9,105.4,21.7,105.4,22.1,106.4z"/>
	<path class="st129" d="M33.5,97.5c0.7-0.6,1.4-0.7,2.3-0.6c1.6,0.1,3.3-0.2,4.9,0.2c0.9,0.2,1.5,0.6,2.2,1.1
		c0.9,0.7,2.2,0.7,3.1,1.6c1.6,1.6,3.3,3.1,4,5.3c0.1,0.3,0.2,0.6,0.2,0.8c0,0.3,0.1,0.6-0.3,0.7c-0.3,0-0.3-0.3-0.4-0.5
		c-0.3-0.8-0.7-1.5-1.5-0.3c-0.1,0-0.2,0-0.2-0.1c-0.4-0.2-0.8-0.5-1.1-0.1c-0.5,0.5,0.4,0.6,0.4,1c-1,0.4-1.8-0.4-2.8-0.3
		c-1.2,0.1-2.5-0.3-3.7-0.5c-0.3-0.3-0.6-0.6-0.4-1.1c0.2-0.5,0.7-0.7,1.1-0.9c0.8-0.5,1.4-1.1,1.3-2.1c0-0.2-0.3,0-0.1,0
		c0.1,0,0.1,0,0.1,0.1c0,0.3-0.1,0.6-0.5,0.5c-0.2-0.4-0.1-0.8-0.1-1.2c0.2-0.8-0.1-1-0.8-0.8c-0.9,0.3-1.6,0.8-1.8,1.8
		c-0.1,0.4,0,0.8-0.3,1.2c-0.1,0-0.2,0-0.3,0c-0.2-0.1-0.3-0.2-0.4-0.3c-1.4-1.5-2.6-1.3-3.4,0.6c-0.2,0.4-0.2,0.9-0.7,1.2
		c-1.7,0.7-3.2,0-4.7-0.5c-1.1-0.4-2.3-0.8-3.4-1.5c-0.7-0.5-0.7-1-0.1-1.4c1-0.8,2-1.6,3-2.4c1-0.8,1.3-0.6,1.9,0.6
		c0.4,0.7,0.6,1.9,1.9,1.3c0.6-0.3,0.3-0.5,0.1-0.8C33.1,99.1,33.6,98.4,33.5,97.5z"/>
	<path class="st130" d="M34,104.5c0.2-1.1,0.5-2,1.5-2.7c1.1-0.8,1.4-0.9,2.3,0.1c0.3,0.3,0.5,0.6,0.7,1c0.5,0.9,0.3,1.7-0.3,2.5
		c-0.6-0.2-1.4-0.1-1.9-0.7c0.1-0.1,0.2-0.1,0.3-0.2c0.6-0.3,0.5-0.8,0.4-1.3c-0.4-0.7-0.8-0.5-1.2,0c-0.3,0.4-0.5,0.9-0.9,1.1
		C34.6,104.3,34.4,104.7,34,104.5z"/>
	<path class="st131" d="M33.5,97.5c0.5,1.1,0.2,1.8-0.8,2.3c-1.2-0.3-1.4-0.8-1.1-1.9C31.9,97.1,32.4,97,33.5,97.5z"/>
	<path class="st132" d="M36.6,104.7c-0.1,0-0.2,0-0.2,0c-0.5-0.1-0.9-0.3-1.4-0.4c0-0.6,0.5-1,0.8-1.5c0.5-0.7,1.2-0.5,1.6,0.3
		C37.2,103.7,37.4,104.4,36.6,104.7z"/>
	<path class="st133" d="M38.3,105.4c-0.1-0.1-0.2-0.3-0.2-0.3c0.9-0.6,0.2-1.5,0.5-2.2c0.1,0,0.2,0,0.3,0.1c0.6,0.4,0.5,1.4,1.4,1.7
		c0.1,0.4,0.1,0.7,0.2,1.1C39.7,105.6,39,105.5,38.3,105.4z"/>
	<path class="st134" d="M47,106.5c-0.4-0.2-1.1,0-1.2-0.7c0-0.4,0.2-0.7,0.6-0.8c0.6-0.1,1.3-0.1,1.5,0.7
		C47.9,106.3,47.4,106.4,47,106.5z"/>
	<path class="st135" d="M122,78.5c-0.8-2.2-1-4.5-1.5-6.8c-0.1-0.5-0.1-1-0.2-1.4c1.4-0.5,1.6-1.3,0.9-2.6c-0.4-0.8-0.6-1.7-0.5-2.6
		c0.1-0.9-0.6-1.6-0.9-2.4c0-0.5,0.3-0.8,0.8-0.9c1.2,0.7,1.1,2,1.6,3.1c1.2,4.4,2,8.9,3,13.3c0.2,1,0.4,2.1,0.6,3.1
		c0,0.4,0.3,0.8,0,1.1c-1.2-0.4-1.2-1.6-1.5-2.5c-0.2-0.6-0.3-1-0.6-1.6c-0.4-0.7-0.3-1.7-0.4-2.6c0-0.3,0.1-0.6,0-0.9
		c-0.1-0.5-0.5-0.5-0.7-0.1c-0.2,0.5-0.7,1-0.4,1.6C122.6,77.1,122.4,77.7,122,78.5z"/>
	<path class="st8" d="M125,78.2c-1.1-4.5-1.8-9-3-13.4c0.5-0.5,1.2-0.6,1.8-0.8c0.2,0.8,0.5,1.5,0.7,2.3c0.8,1.5,0.8,3.1,0.5,4.8
		c0,0.7,0,1.4,0,2.1c0.8,1.6,0.8,3.4,0.6,5.1C125.4,78.3,125.2,78.5,125,78.2z"/>
	<path class="st0" d="M125.5,78.1c-0.1-1.7-0.1-3.4-0.4-5c1.5-0.8,1.3-0.7,1.8,0.8c0.4,1.1,0.1,2,0,2.9c-0.2,1.5,0.2,2.8,1,4
		c0.4,0.6,0.1,1-0.2,1.4c-0.5,0.6-0.6-0.2-1-0.3c-0.1,0-0.2-0.1-0.4-0.1c-0.3-0.1-0.3-0.4-0.4-0.7C125.6,80,125.3,79.1,125.5,78.1z"
		/>
	<path class="st0" d="M125.1,71c-0.2-1.6-0.3-3.2-0.5-4.8c0.8,0.1,1.4-0.4,1.8-1.1c0,1.4,0,2.8-0.2,4.2
		C126.1,69.9,126.3,71,125.1,71z"/>
	<path class="st135" d="M122.7,80.9c-0.2-0.6-0.4-1.1-0.5-1.7c0-0.2-0.1-0.4-0.1-0.5C123.2,79.1,123.2,79.1,122.7,80.9z"/>
	<path class="st136" d="M126,81c0.1,0.2,0.2,0.4,0.3,0.6c-0.1,0.3,0.2,0.6-0.1,0.9c0,0-0.2-0.2-0.3-0.3c-0.1-0.4-0.1-0.7-0.2-1.1
		C125.7,81.1,125.8,81,126,81z"/>
	<path class="st0" d="M120.8,61.8c-0.5,0.1-0.7,0.4-0.8,0.8c-0.5-0.2-0.9-0.6-1.4-0.4c-0.6-1.5-1.2-3.1-1.9-4.6
		c0.3-0.3,0.5-0.4,0.7,0c0.3,0.6,0.9,0.8,1.5,0.7c0.9-0.1,1.5,0.3,2,0.9c0.6,0.6,0.9,1.4,1.8,1.7c0.5,0.2,0.5,1.1,0.3,1.7
		c-0.8,0-1.2-0.7-1.7-1.1C120.9,61.1,121,61.6,120.8,61.8z"/>
	<path d="M120.8,61.8c-0.1-0.3-0.2-0.7-0.3-1.1c1.2,0.3,1.8,1.2,2.6,2c0.3,0.4,0.6,0.8,0.7,1.3c-0.4,0.7-1.1,0.7-1.8,0.8
		C121.6,63.8,121.2,62.8,120.8,61.8z"/>
	<path class="st137" d="M120.8,78.1c-0.2-0.1-0.6-0.2-0.6-0.3c0-1.1-1-1.9-1-3c-0.1-1-0.6-1.5-1.5-1.7c-1.9-0.5-3.8-1.1-5.8-1.3
		c0.8-2.8,0-5.4-1-8c-0.9-2.4-2.6-4.2-4.2-6c-3.1-3.5-6.6-6.7-10.8-9c-1.9-1-3.7-2.1-5.8-2.8c-0.5-0.4-1.6-0.2-1.2-1.4
		c0.9-0.5,1.9-1,2.8-1.5c1.9-1.1,2.4-2.9,1.4-4.9C93,38,92.7,37.7,93,37.4c0.3-0.2,0.5,0.1,0.7,0.3c2.1,1.9,4.2,3.7,6.3,5.6
		c4.3,3.7,8.5,7.5,12.8,11.2c0.1,0.2,0.2,0.4,0.4,0.5c2.7,1.6,3.6,4.3,4.3,7.1c0.9,3.1,1.5,6.3,2,9.6
		C120,73.8,120.6,75.9,120.8,78.1z"/>
	<path class="st138" d="M89.4,35.8c2.6,0.7,3.6,2.4,3.1,4.7C92.1,43,90,44,87.2,43.2c-1.4-0.4-2.6-2.7-2.2-4.4
		C85.5,37.1,88,35.4,89.4,35.8z"/>
	<path class="st139" d="M88.9,44.7c0,0.8,0.8,0.9,1.2,1.4c-0.3-0.1-0.6,0.1-0.7,0.4c-1.4,0.2-2.6-0.5-3.9-0.8
		c-0.1-0.1-0.2-0.1-0.3-0.3c-0.2-0.6-0.2-1.2,0.4-1.6c0-0.1,0.1-0.2,0.1-0.2C86.5,44.4,87.8,44.3,88.9,44.7z"/>
	<path class="st109" d="M148.9,98.1c-0.1-0.1-0.3-0.3-0.4-0.4c-0.3-0.5-0.3-0.9,0-1.4c-0.6,0.3-1,0.4-1-0.6c0-2-0.6-3.8-2.2-5.1
		c-1.3-1-1.3-1.1-0.2-2.4c0.3-0.4,0.3-0.8,0.1-1.3c-0.2-0.3-0.4-0.6-0.8-0.5c-0.3,0.1-0.2,0.5-0.2,0.8c0,0.2,0.1,0.5,0,0.7
		c-0.1,0.3-0.4,0.5-0.6,0.5c-1.1-0.1-2.1-0.1-3.2-0.2c-0.1-0.4-0.1-0.9-0.2-1.3c2.1-0.6,2.8-1.8,1.5-4.5c-0.3-0.6-1-1.3-0.3-2.1
		c1.3,0.5,2.1,1.6,3.1,2.4c0.7,0.6,1.3,1.4,1.9,2.1c0.1,2.2,2,2.7,3.5,3.7c0.4,0.3,0.7,0,1-0.2c0.3,0.2,0.6,0.5,0.8,0.7
		c0.1,0.2,0.2,0.4,0.4,0.6c-0.1,0.1-0.2,0.2-0.3,0.2c0.2,0,0.2-0.2,0.3-0.2c0.7,0.1,0.9,0.6,1.3,1.1c-0.4,0.6,0.1,0.8,0.4,1.1
		c0.3,0.3,0.8,0.5,0.7,1c-0.3,0.4-0.6,0.5-1,0.7c-1-0.2-1.6,0.1-1.5,1.2c-0.3,0.4-0.1,0.8-0.1,1.2c-0.9,0.2-1.4,0.8-2,1.5
		C149.7,97.7,149.2,97.8,148.9,98.1L148.9,98.1z"/>
	<path class="st109" d="M154.4,92.8c0-0.8-0.9-0.8-1.3-1.3c-0.6-0.7-0.2-0.7,0.4-0.8c1.5,1.3,3,2.5,4.5,3.8c1.3,1.2,2.6,2.4,3.9,3.6
		c0.8,0.7,1.2,1.8,2.3,2.3c0.2,0.1,0.3,0.3,0.2,0.5c-0.1,0.2-0.4,0.1-0.6,0.1c-0.8-0.2-1.6-0.3-2.4-0.5c-1.3-0.3-2.5-0.3-3.8-0.2
		c-1.2,0.1-2.2-0.4-3.3-0.8c-1.7-0.6-3.5-1-5.3-1.5c0.1-0.4,0.3-0.7,0.8-0.8c0.3-0.1,0.6-0.2,0.6-0.5c-0.4-1.4,0.3-1.1,1.1-0.7
		c0.2,0.1,0.4-0.1,0.5-0.2c0.3-0.2,0.6-0.2,0.9-0.3C154.4,94.9,154.6,94.5,154.4,92.8z"/>
	<path class="st109" d="M145.5,86.8c0.1,0.8,0.4,1.5-0.7,2c-0.9,0.4-0.1,0.9,0.3,1.2c1.4,0.9,2.2,2.3,2.6,3.9c0.2,0.7,0.5,1.5,0,2.3
		c0.3,0.3,0.6-0.3,0.9-0.1c0,0.5-0.1,1-0.1,1.6c-0.1,0-0.2,0-0.3,0c-4.1-1.9-6.6-5.1-7.8-9.4c0.9-0.5,1.7-0.5,2.6-0.1
		c0.5,0.2,0.9,0.1,1.1-0.4C144.6,87.5,145,87,145.5,86.8z"/>
	<path class="st109" d="M141.5,80.3c-0.2,1,0.3,1.7,0.8,2.4c0.9,1.3,0.4,3.5-0.9,4.2c-0.4,0.2-0.8,0.2-1.2,0.1
		c-0.5-1.3-0.4-2.6-0.2-3.9c-0.1-0.6,0.8-1.3-0.3-1.7c0.1-0.6,0.3-1.3,0.4-1.9C141,79.1,140.9,80.2,141.5,80.3z"/>
	<path class="st109" d="M139.7,81.3c0.4-0.1,0.7-0.2,1,0.2c0.2,0.4,0,0.7-0.3,0.9c-0.1,0.1-0.2,0.3-0.3,0.5
		C139.9,82.4,139.8,81.9,139.7,81.3z"/>
	<path class="st0" d="M118.6,62.2c0.7-0.8,1.2-0.5,1.4,0.4c0.9,0.9,1.1,1.9,1,3.2c0,0.7,0.3,1.5,0.6,2.2c0.7,1.8,0.6,1.9-1.3,2.2
		C119.8,67.6,119.2,64.9,118.6,62.2z"/>
	<path class="st109" d="M151,88.3c-0.2,1-0.6,1-1.3,0.3c-0.3-0.3-0.8-0.6-1.2-0.8c-1.5-0.5-2.2-1.5-1.9-3.1c0.8,0.3,1,1.4,1.9,1.5
		C149.3,86.9,150.1,87.6,151,88.3z"/>
	<path class="st0" d="M80.7,48.3c0-0.4-0.2-0.7-0.5-1c-0.2-0.2-0.4-0.4-0.2-0.7c0.2-0.3,0.4-0.5,0.8-0.4c0.4,0.1,0.9,0.1,1.4,0
		c-0.3-0.5-0.5-1.1-0.8-1.6c1.4-0.6,2.6-0.2,3.7,0.7l0,0c1.4,0.6,3,0.7,4.3,1.3c7.9,3.3,14.6,8.1,19.5,15.2c1.5,2.2,2.4,4.6,2.3,7.2
		c-0.1,1.9-0.5,3.8-2.1,5.2c-0.8,0.6-1.5,0.1-2.2-0.4c-0.3,0.8,0.1,1.6-0.5,2.2c-0.6,0.2-1.3,0.4-1.9,0.6c-1.2,0.1-2.3-0.2-3.5-0.2
		c-0.5,0-0.8-0.3-1.2-0.5c-0.7-0.4-0.7-1,0.1-1.2c0.8-0.3,1.4-0.7,1.9-1.3c0.4-0.5,1-0.7,1.7-0.5c0.6,0.2,1.2-0.1,1.8-0.3
		c-0.3-0.6-1.2-0.7-0.9-1.5c0.5-0.7,1.4-1.1,1.7-2.1c0.7-2.1,0.5-4-0.9-5.8c-2.2-2.8-4.9-4.8-7.6-6.9c-2.4-1.9-5.2-3.3-7.9-4.7
		c-0.9-0.5-1.9-0.6-2.8-1c-1.5-0.6-3-0.9-4.5-1.3C81.6,48.8,81.1,48.8,80.7,48.3z"/>
	<path class="st0" d="M106.4,76c0-0.7,0-1.4,0-2.1c0-0.2-0.1-0.4,0.1-0.5c0.2-0.1,0.4,0,0.5,0.2c0.6,0.6,1.3,0.8,2,0.6
		c0,0.1,0,0.1-0.1,0.2C108.2,75,107.4,75.8,106.4,76z"/>
	<path class="st140" d="M89.4,46.6c-1.5-0.4-3-0.6-4.3-1.3c1.4,0.4,2.9,0.8,4.3,1.2C89.4,46.5,89.4,46.6,89.4,46.6z"/>
	<path class="st0" d="M104.3,71.1c0.1,0.6,0.6,0.6,1,0.8c0.2,0.1,0.4,0.3,0.4,0.6c0,0.3-0.3,0.4-0.5,0.4c-0.8,0-1.4,0.8-2.3,0.1
		c-0.3-0.2-0.9,0.4-1.2,0.9c-0.3,0.4-0.6,0.7-1,0.9c-0.4,0.2-1.3,0-1,0.6c0.1,0.3,0.8,0.8,1.6,0.8c1.1,0,2.2,0,3.3,0.4
		c-1.8,0.6-3.6,0.1-5.4,0.1c-0.5,0-1.1,0.2-1.7-0.2c0.6-1.2,0.9-2.1-1.1-2.1c-1,0-1.6-1.5-2.4-2.3c0.9-0.6,2-0.2,2.9-0.4
		c0.4,0,0.9,0.1,1.3,0.2c0.9,1,1.1,1,2,0c0.8-0.5,1.7-0.5,2.6-0.4c0.5,0.5,0.7,0.3,0.9-0.2C103.8,71.1,104,70.9,104.3,71.1z"/>
	<path class="st0" d="M94,72.2c0.5,0.1,1,0.2,1.3,0.7c0.5,0.8,0.9,1.7,2.2,1.1c0.4-0.2,0.7,0.4,1,0.8c0.2,0.4,0.1,0.7-0.3,0.9
		c-0.3,0.2-0.6,0.3-0.7,0.7c-0.3-0.1-0.6-0.2-1-0.2c-1-0.5-2.1-0.8-2.2-2.3c0-0.4-0.6-0.7-1.1-0.6c-0.4,0.1-0.6,0.5-0.5,0.9
		c0.2,0.8,0.1,1.4-0.9,1.4c-0.9,0-1.5-0.4-1.7-1.3c-0.1-0.5-0.1-1.1,0.1-1.6C91.3,71.9,92.6,71.7,94,72.2z"/>
	<path class="st17" d="M120,79.2c-0.1,0.2-0.2,0.5-0.4,0.4c-0.4-0.1-0.5-0.4-0.4-0.8c0-0.3,0.2-0.3,0.5-0.3
		C119.9,78.7,120,79,120,79.2z"/>
	<path class="st17" d="M121.3,80c0.3,0.4,0.7,0.9,0.6,1.5C121.5,81.1,121,80.8,121.3,80z"/>
	<path class="st141" d="M116.9,80.2c0,0.7-0.3,1.3-0.5,1.9c-0.8,0.4-1.4,0.2-1.8-0.6c-0.3-0.6-0.2-1.2,0.4-1.6
		C115.6,79.6,116.2,80,116.9,80.2z"/>
	<path class="st142" d="M51.5,59.8c0-0.5,0.1-1,0.1-1.5c-0.5-1.5-0.1-3,0.3-4.4c0.5-1.8,1-3.6,1.4-5.4c0.3-0.9,0.3-1.9,1.1-2.6
		c0.4-0.1,0.4-0.7,0.9-0.6c0.5,0,0.7,0.4,0.9,0.7c2.5,3.9,3.2,8,1.4,12.4c-0.8,0.5-0.5,1.6-1,2.2c-0.3,1.1-0.6,2.2-1,3.4
		c-0.8,0.1-1.1-0.5-1.6-0.9c-0.2-0.3-0.2-0.6-0.2-0.9c-0.1-0.8,0.3-1.4,0.6-2.1c0.5-1.3,0.9-2.7,1.1-4.1c0.2-2.1,0.2-4.3-0.4-6.1
		c-0.2,3-0.9,6.2-1.4,9.5C53.1,59.9,52.3,60,51.5,59.8z"/>
	<path class="st143" d="M85.1,45.3c-1.2-0.3-2.4-0.7-3.7-0.7c-1.5-0.3-3-0.5-4.6-0.3c-0.3,0.2-0.5,0.2-0.8,0
		c-2.6,0.1-5.1,0.8-7.4,1.9c-0.6,0.6-1.3,1.1-2.2,1.2c-0.8,0.4-1.4,0.9-1.9,1.5c-0.9,1.7-2.2,3.2-2.7,5.1c-0.1,0.3-0.2,0.6-0.6,0.8
		c-0.3-0.3,0.2-1-0.4-1.2c0.5-1,0.7-2.1,1.2-3.1c0.7-1.5,2-2.5,3.3-3.4c3.7-2.6,7.9-3.6,12.2-4c0.5-0.1,1.1,0,1.6,0.1
		c2.1,0.7,4.3-0.4,6.4,0.5C85.3,44.3,85.5,44.8,85.1,45.3z"/>
	<path class="st2" d="M63,33.1c1.8-0.2,3.5,0,4.7,1.6c0.8,1.9,1,3.8-0.2,5.6c-1,1.5-3.3,2.7-5.1,2.5c-0.5-0.1-1-0.3-1.3-0.7
		c-2.7-3.3-2.3-6.9,1.6-8.8C62.9,33.2,62.9,33.2,63,33.1z"/>
	<path class="st6" d="M57.5,58.3c1.5-4.7,1-9.1-2.2-13c0-0.2-0.1-0.5,0.3-0.6c0.5-0.1,0.6,0.3,0.9,0.6c1.1,1.7,1.8,3.6,2.3,5.5
		c0.3,1.1,0.4,2.3,0.7,3.4c0.6,1.1,0.6,2.1-0.2,3c-0.3,1-0.5,2-0.9,2.9c-0.1,0.4-0.4,0.8-0.8,1.1c-0.4-0.8,0.7-1.6-0.1-2.4
		C57.3,58.6,57.4,58.5,57.5,58.3z"/>
	<path class="st26" d="M52.2,54.1c-0.4,1.4-0.3,2.8-0.6,4.2c-0.4,0.1-0.8,0.3-1,0.8c-0.3-1,0.3-1.8,0.4-2.8
		c0.2-3.5,0.9-6.9,2.5-10.1c0.2-0.5,0.5-0.5,0.9-0.4c-0.2,0.9-0.5,1.7-0.7,2.6C53,50.3,52.5,52.1,52.2,54.1z"/>
	<path class="st144" d="M59.2,57.2c0.3-1,0.3-2,0.2-3c0.2-0.7,0.6-0.7,1.2-0.5c-0.2,1-0.6,1.9-0.5,3C59.9,56.9,60.1,58,59.2,57.2z"
		/>
	<path class="st145" d="M65.1,56c-0.5-1.3,0.2-2.1,1.1-2.9c0.3-0.3,0.6-0.5,1-0.7c0.1-0.1,0.2-0.2,0.3-0.2c0.6-0.2,0.8-0.7,1.3-1
		c0.4,0.1,0.6-0.1,0.9-0.4c1-1.3,2.5-1.7,4-1.7c2.9-0.1,5.7-0.3,8.5,0.7c1.6,0.6,3.3,1,4.9,1.3c4.3,1,7.8,3.4,11.2,6
		c1.5,1.2,2.9,2.5,4.4,3.6c1.4,1.1,2.4,2.5,3,4.1c0.8,2,0.3,3.8-1.2,5.4c-0.4,0.4-0.9,0.5-1.3,0.6c-2.4,0.8-4.9,0.5-7.4,0.7
		c-1.7-0.2-3.4,0.1-5.1,0.2c-0.7-0.3-1.2-0.3-1.6,0.4c-0.1,0.1-0.3,0.2-0.5,0.2c-0.2,0-0.4,0-0.5-0.1c-0.2-0.1-0.5-0.2-0.7-0.3
		c-0.6-0.3-0.8-0.6-0.3-1.2c1.5-1.8,1.1-3.8,0.3-5.7c-0.2-0.7-0.9-1.1-1.7-1.1c-0.7,0.2-1.3,0.6-1.9,0.8c-1.3,0.9-2.4,1.1-3.3-0.6
		c-0.3-0.6-1.2-1-2.1-0.8c-0.6,0.1-0.9,0.3-0.7,1c0,0.3-0.1,0.5-0.3,0.6c-0.8-0.2-1.6,0-2.4,0.2c-2,0.6-3.8-0.1-5.1-1.7
		c-0.9-1.1-1.6-2.3-3.3-1.7c-0.9-1.1-1-2.5-1.1-3.9C65.6,57.2,65.9,56.4,65.1,56z"/>
	<path class="st146" d="M95.7,71.4c1-0.2,2.1-0.4,3.2-0.2c1.7,0.2,3.5-0.2,5.1-0.9c0.9-0.4,1.8-1.7,1.8-3.1c0-2.5-1.2-4.4-3-6
		c-1.9-1.7-3.9-3.3-5.9-4.8c-3-2.2-6.1-4.1-9.7-4.9c-2.3-0.5-4.6-1.3-6.9-1.8c-2.8-0.6-5.6-0.4-8.3,0.1c-0.9,0.2-1.5,0.7-2,1.5
		c-0.2,0.3-0.8,1.2-1-0.1c0.5-1,1.5-1.5,2.4-2.1c0.1-0.2,0.3-0.3,0.6-0.2c0.4-0.1,0.8-0.2,1.2-0.4c0.4-0.4,0.8-0.4,1.2,0
		c1.6-0.4,3.4,0.1,5-0.4c0.4-0.1,1,0.2,1.4,0.3c2.2,0.4,4.3,1,6.3,1.7c4.3,1.2,8,3.7,11.5,6.4c2.1,1.6,4.2,3.2,5.9,5.3
		c1.1,1.3,2.3,2.6,2.3,4.5c0,2-0.4,3.8-2.3,4.8c-0.2,0.1-0.4,0.2-0.7,0.3c-0.2,0.2-0.5,0.4-0.8,0.2c-0.9,0.1-1.8,0.3-2.7,0.4
		c-0.7,0.3-1.4,0.5-2.1,0c-0.4,0-0.9,0.1-1.3-0.1C96.6,71.6,95.9,71.9,95.7,71.4z"/>
	<path class="st0" d="M61.3,54.9c0.7-2.2,1.3-4.4,3.2-5.9c0.9,0.4,0.9,1,0.4,1.7c-0.5,0.8-0.8,1.4-0.7,2.4c0.1,0.7,0,1.6-0.8,2.2
		c-0.6,0.4-0.2,1.1,0.1,1.6c0.3,0.5,0.5,1.1-0.1,1.5c-0.6,0.4-1.1,0.1-1.5-0.4c-0.2-0.3-0.4-0.7-0.8-0.5
		C60.9,56.6,61.1,55.8,61.3,54.9z"/>
	<path class="st147" d="M88.2,72.2c0.2,0,0.3,0.1,0.5,0.1c0.3,0.1,0.4,0.4,0.4,0.7c-2.9,1.1-5.9,2.3-9.1,2c-3-0.2-5.5-1.4-7.2-4.1
		c-0.1-0.4,0.2-0.6,0.5-0.8c1.1,0.6,2.1,1.5,3.1,2.2c1.8,1.4,3.7,1.5,5.8,1.3c1.7-0.2,3.3-0.6,4.8-1.2
		C87.3,72.4,87.8,72.1,88.2,72.2z"/>
	<path d="M73.2,70.3c-0.2,0.2-0.3,0.5-0.5,0.7c-1.8-1.5-3-3.5-4.3-5.3c-0.5-0.7-1.1-1.3-1.4-2.2c0.2-0.6,0.5-0.3,0.8-0.1
		c0.3,0.3,0.6,0.6,0.9,0.9c1.2,1.4,2.1,3.1,3.4,4.5C72.6,69.2,73.1,69.7,73.2,70.3z"/>
	<path d="M89.1,73c-0.2-0.2-0.4-0.4-0.4-0.7c0.1-0.1,0.2-0.1,0.3-0.2c0.4-0.4,0.9-0.5,1.5-0.6c1.7-0.2,3.5-0.7,5.2-0.2
		c0.4,0.2,0.9,0.1,1.1,0.6c-1,0.1-1.9,0.2-2.9,0.2c-1.3,0-2.6,0.2-3.8,0.6C89.7,72.5,89.5,73,89.1,73z"/>
	<path class="st2" d="M67.8,63.6c-0.2-0.1-0.4-0.5-0.8-0.2c-1.7-2.2-2-4.8-1.9-7.5c0.3-0.4,0.6-0.6,0.7,0c0.1,0.5,0.2,1.1,0.2,1.6
		c-0.1,1.4,0.3,2.7,0.8,3.9c0.3,0.4,0.7,0.7,1,1C68.1,63,68.2,63.3,67.8,63.6z"/>
	<path class="st0" d="M67.5,52.2c-0.1,0.1-0.2,0.1-0.3,0.2c-0.2-0.1-0.5-0.1-0.7-0.2c-0.4-0.1-1-0.1-1-0.7c-0.1-0.5,0.5-0.6,0.8-0.9
		c0.7-0.6,1.7-1,2.2-1.8c0.3-0.5,0.8-0.4,1.1-0.1c0.4,0.4,0,0.6-0.3,0.9C68.3,50.2,67.4,50.9,67.5,52.2z"/>
	<path class="st0" d="M64.5,63.9c-0.8-1-1.9-1.7-2-3.1c0-0.4-0.1-0.8,0.3-1.1c0.3-0.2,0.7-0.7,1.1-0.5c0.5,0.2,0.2,0.7,0.1,1.1
		c-0.3,1,0.3,1.8,0.5,2.7C64.5,63.3,64.8,63.5,64.5,63.9z"/>
	<path class="st0" d="M66.4,47.5c0.7-0.5,1.4-0.9,2.2-1.2c0.2,0.4,1.2,0.4,0.9,0.8c-0.5,0.8-1.4,1.1-2.4,1.2
		C66.4,48.3,66.4,48,66.4,47.5z"/>
	<path class="st0" d="M71.7,48.9c-0.2,0.1-0.4,0.1-0.6,0.2c-0.1-0.1-0.2-0.1-0.3-0.2c-0.2-0.3-1.1-0.2-0.7-0.8
		c0.2-0.3,0.7-0.8,1.2-0.7c0.7,0.2,0.6,0.7,0.4,1.2C71.8,48.6,71.8,48.7,71.7,48.9z"/>
	<path class="st0" d="M76,44.3c0.3-0.2,0.5,0,0.8,0c0.2,0.6,1,0.3,1.1,0.9C75.8,45.6,75.8,45.6,76,44.3z"/>
	<path class="st0" d="M74.2,48.5c-0.4,0-0.8,0-1.2,0c-0.5-0.7,0.2-0.9,0.4-1.4c0.1-0.2,0.3-0.1,0.5,0C74.4,47.5,74.3,48,74.2,48.5z"
		/>
	<path class="st148" d="M86.9,50.1c-2.1-0.6-4.2-1.1-6.3-1.7c0,0,0.1-0.1,0.1-0.1c1.7,0.4,3.5,0.9,5.2,1.3
		C86.3,49.7,86.7,49.7,86.9,50.1z"/>
	<path class="st0" d="M77,47.2c-0.2,0.4-0.6,0.5-1,0.4c-0.5-0.1-0.5-0.5-0.4-0.9c0.1-0.3,0.1-0.7,0.6-0.4C76.5,46.6,77,46.7,77,47.2
		z"/>
	<path class="st0" d="M79.1,86.1c2.3,1.4,3.6,4.3,3,7c-0.7,3.5-2.7,5.4-6,5.8c-4.2,0.5-7.6-2.5-7.5-6.7c0.1-4.5,3-7,7.6-6.9
		C77.2,85.4,78.2,85.6,79.1,86.1z"/>
	<path class="st149" d="M79.1,86.1c-1-0.3-2-0.5-2.9-0.8C77.3,85.2,78.2,85.4,79.1,86.1z"/>
	<path class="st19" d="M56.8,65.9c-0.8-0.6-0.5-1.2,0-1.8C57,64.7,56.9,65.3,56.8,65.9z"/>
	<path class="st135" d="M54.2,63.1c0.6,0.1,0.9,0.7,1.5,0.9c0,2,0.3,3.9,1.1,5.7c0.3,1,0.7,1.9,1,2.9c0.2,0.5,0.2,1.2-0.3,1.5
		c-0.6,0.3-1.1,0-1.5-0.5c-1.6-1.8-2.6-3.9-3.5-6.1c-0.7-2.5-1-5.1-1-7.7c0.7-0.1,1.3-0.4,2-0.2c0.7,1,0.1,2.1,0.4,3.2
		c-0.2,0.7-0.1,1.4-0.1,2.2c0,0.2,0.1,0.4-0.1,0.8c0.2-0.5,0-0.8,0.1-1C54,64.1,53.6,63.5,54.2,63.1z"/>
	<path class="st150" d="M57.5,58.3c0,0.2,0,0.4,0,0.5c-0.3,0.6-0.3,1.3-0.8,1.9C56.8,59.8,57,59,57.5,58.3z"/>
	<path class="st151" d="M40.2,104.6c-1.6,0.4-0.9-1.1-1.4-1.7c-0.1-1.9,0.7-3,2.5-3.4c0.4-0.1,0.6,0,0.9,0.2
		c0.3,0.3,0.3,0.7-0.1,0.9c-0.3,0.2-0.6,0.1-0.9,0.2c-0.5,0.1-0.7,0.4-0.8,0.8c0,0.3,0,0.6,0.3,0.8c0.4,0.3,0.7-0.1,0.9-0.3
		c0.1-0.1,0.3-0.2,0.4-0.2c0.2-0.2,0.4-0.5,0.7-0.8c0.3,1.4-0.5,2.1-1.5,2.8C40.9,104.2,40.4,104.1,40.2,104.6z"/>
	<path class="st152" d="M42,102c-0.4,0.5-0.7,1.3-1.4,1c-0.6-0.3-0.8-0.9-0.5-1.6c0.4-0.9,1.2-0.9,2-0.6
		C42.3,101.2,42.1,101.6,42,102z"/>
	<path class="st133" d="M36.6,104.7c0.6-0.4,0.4-1.1,0.7-1.6c0.3,0.4-0.1,0.9,0,1.3C37.4,105.1,36.9,104.8,36.6,104.7z"/>
	<path class="st153" d="M126,81c-0.1,0.1-0.2,0.1-0.3,0.2c-0.2-1-0.4-2.1-0.6-3.1c0.2,0.1,0.4,0.1,0.5-0.1
		C125.9,79,125.8,80.1,126,81z"/>
	<path class="st70" d="M88.8,38.2c1.2,0.3,1.6,1,1.4,1.9c-0.3,0.8-0.9,1-1.7,0.9c-0.9-0.2-1.4-1.2-1.1-2.3
		C87.6,37.8,88.3,38.2,88.8,38.2z"/>
	<path class="st109" d="M151.4,92.6c-0.1,0.4-2,1.6-2.4,1.6c-0.6-0.1-0.8-0.5-0.8-1c0.1-1,1.1-1,1.6-1.6c0.3-0.4,0.9-0.1,1.3,0.1
		C151.4,91.9,151.5,92.2,151.4,92.6z"/>
	<path class="st154" d="M154.4,92.8c0.8,1.1,0.7,1.8-0.5,2.4c-0.6,0.3-1.3,0.7-2.1,0.5c-0.6-0.6-0.6-0.8,0.1-1
		c0.9-0.1,1.4-0.5,1.6-1.3C153.7,93.1,154,92.9,154.4,92.8z"/>
	<path class="st155" d="M153.5,93.4c0.2,1.4-0.1,1.7-1.6,1.3C151.6,92.8,151.6,92.8,153.5,93.4z"/>
	<path class="st156" d="M145.5,86.8c-0.2,0.7-0.5,1.3-1.4,1c-0.4-0.5-0.4-1.3,0-1.6C144.6,85.8,145.2,86.2,145.5,86.8z"/>
	<path class="st109" d="M152.2,89.6c0,0.2-0.1,0.3-0.1,0.5c-0.1,0.3-0.2,0.5-0.5,0.3c-0.1,0-0.3-0.2-0.3-0.3c0-0.3,0.3-0.3,0.5-0.4
		C151.8,89.7,152,89.6,152.2,89.6C152.2,89.6,152.2,89.6,152.2,89.6z"/>
	<path class="st0" d="M98.1,72.1c0.7,0,1.4,0,2.1,0c-0.1,0.6-0.4,1.1-1.1,1C98.5,73,98,72.8,98.1,72.1z"/>
	<path class="st0" d="M102.9,71.7c0.3-0.1,0.5-0.1,0.8-0.2c0.1,0.5-0.3,0.9-0.6,0.9C102.8,72.4,102.8,71.9,102.9,71.7z"/>
	<path class="st26" d="M53.8,62.8c-0.4-1-0.1-2.1-0.2-3.2c0.2-3.5,1.1-6.8,1.5-10.2c1,2.2,1.2,4.4,0.8,6.7c-0.2,1.5-0.6,3-1.2,4.4
		c-0.1,0.6-0.6,1.2-0.5,1.9C54.2,62.6,54.2,62.9,53.8,62.8z"/>
	<path class="st157" d="M52.2,54.1c0.1-2,0.7-3.8,1.5-5.6C53.2,50.3,52.7,52.2,52.2,54.1z"/>
	<path class="st158" d="M53.8,62.8c0.3,0,0.3-0.3,0.4-0.4c0,0.3,0,0.5,0.1,0.8c-0.1,0.6-0.2,1.2-0.2,1.7c0,0.3-0.1,0.3-0.3,0.2
		C53.7,64.3,53.3,63.5,53.8,62.8z"/>
	<path class="st159" d="M54.7,60.4c0.4-1.5,0.8-2.9,1.2-4.4C55.8,57.6,55.4,59,54.7,60.4z"/>
	<path class="st135" d="M60.7,36.9c0.7-2.6,1.9-3.4,4.2-2.8c2.4,0.6,3.3,2.2,2.6,4.6c-0.6,2.3-2.6,3.3-5.1,2.7
		C60.7,41.1,60.1,39.3,60.7,36.9z"/>
	<path class="st160" d="M67.8,63.6c0.1-0.3,0.1-0.6-0.2-0.9c-0.4-0.3-0.6-0.7-0.8-1.2c0.2,0,0.5,0.2,0.6,0.1
		c1.2-1.2,1.6,0.1,2.1,0.7c0.5,0.5,1,1,1.4,1.5c1.5,1.6,3.2,1.5,4.9,0.7c0.7-0.3,1.2-0.1,1.6,0.4c0.5,0.2,0.7,0.9,1.4,0.5
		c0.2-0.1,0.3-0.4,0.3-0.6c-0.2-0.8-1-0.4-1.5-0.6c-0.5-0.2-0.7-0.6-0.2-0.9c0.7-0.4,1.5-0.7,2.3-0.1c0.7,0.5,1.6,0.9,1.8,1.9
		c0.1,0.5,0.5,0.4,0.9,0.2c0.4-0.3,0.7-0.8,1.4-0.7c0,0.7-1.1,1.4-0.2,2.2c1.5,0.5,1.8,0.2,2-1.4c0.1-0.6-0.1-1.1-0.1-1.6
		c1.2-0.3,1.9,0.4,2.2,1.3c0.5,1.3,0.7,2.6,0.5,4C88.1,70,88,70.9,87,71.3c0.2,0.7,1.1,0.3,1.3,1c-2.9,1.5-6,2-9.2,1.9
		c-0.4,0-0.8-0.1-1.1-0.3c-1.6-1.2-3.6-1.8-4.8-3.5c-0.6-0.3-0.8-0.9-1.2-1.4c-0.7-1.4-1.2-3-2.4-4.2c-0.4-0.4-0.6-0.4-1-0.3
		C68.2,64.3,68.1,63.9,67.8,63.6z"/>
	<path class="st135" d="M92.5,59.2c0.7,0.2,1.5,0.4,2.2,0.6c1,0.7,0.9,2.6-0.2,3.3c-0.8,0.5-1.7,0.3-2.5-0.2c-0.7-0.4-1.1-1.1-1-2
		C91.1,60,91.5,59.3,92.5,59.2z"/>
	<path class="st53" d="M92.5,59.2c-0.7,0.6-1.5,1.2-1.2,2.3c0.3,1.1,1.2,1.4,2.2,1.5c0.5,0.1,1.1-0.2,1.2-0.7c0.3-0.9,0.9-1.8,0-2.7
		c0.3-0.3,0.7-0.5,1-0.1c0.3,0.5,0.6,1,0.4,1.6c-0.2,1.1-2.2,3-3.4,3.1c-0.1,0-0.2,0-0.4-0.1c-0.7-0.2-2-2.3-2-3.4
		c0-1.2,0.8-1.8,1.7-2.3c0.2-0.1,0.5-0.2,0.7,0C93,58.8,92.6,58.9,92.5,59.2z"/>
	<path class="st161" d="M78.5,55.4c0.2-0.8,0.7-0.4,0.9-0.1c0.6,0.7-0.2,3-1.1,3.6c-0.9,0.6-1.8,0.1-2.4-1.2
		c-0.1-0.2-0.2-0.5-0.3-0.7c-0.8-1.2-0.2-2.4,1.3-2.5c0.5-0.1,0.4,0.2,0.2,0.5c0.1,0.4-0.3,0.7-0.4,1c-0.2,0.7,0,1.3,0.7,1.5
		c0.7,0.2,0.9-0.4,1-0.9C78.5,56.2,78.4,55.8,78.5,55.4z"/>
	<path class="st162" d="M103,66.4c0.4-0.3,0.8-0.4,1.1,0c0.3,0.5,0.1,1.2-0.3,1.5c-0.8,0.7-1.6,1.1-2.8,0.8c-1.2-0.3-1.5-1.1-1.7-2
		c-0.2-0.8,1-2.2,1.8-2.2c0.3,0,0.5,0.2,0.5,0.6c-0.2,0.2-0.4,0.4-0.6,0.6c-0.4,0.5-0.4,1,0.1,1.4c0.5,0.4,1,0.4,1.4-0.1
		C102.6,66.9,102.7,66.5,103,66.4z"/>
	<path class="st163" d="M78.5,55.4c0.7,0.9,0.1,1.7-0.3,2.4c-0.2,0.4-0.8,0.2-1.2,0c-0.5-0.3-1-0.6-0.8-1.3c0.1-0.6,0.3-1.1,0.9-1.4
		C77.6,55.1,78,55.2,78.5,55.4z"/>
	<path class="st164" d="M103,66.4c-0.3,1.3-0.8,1.7-1.8,1.2c-0.6-0.3-0.9-0.8-0.9-1.4c0.1-0.7,0.4-1.2,1.3-1.1
		C102.2,65.3,102.7,65.8,103,66.4z"/>
	<path class="st165" d="M83.5,67.1c-0.8-1-0.7-1.5,0.3-2.5c0.6-0.3,1.2-0.5,1.8-0.8c0.6,0.5,0.6,1,0.3,1.7
		C84.7,65.4,84,66.1,83.5,67.1z"/>
	<path class="st166" d="M77.7,64.2c1-0.5,1.9-0.2,1.9,0.6c0,0.4,0,0.9-0.6,1.1c-0.8,0.2-1.2-0.2-1.4-0.9
		C77.6,64.7,77.6,64.5,77.7,64.2z"/>
	<path class="st167" d="M87.3,56c-0.2,0.5-0.4,1-1,0.9c-0.5-0.1-0.7-0.6-0.5-1.1c0.1-0.5,0.4-0.8,0.9-0.7
		C87.2,55.2,87.3,55.6,87.3,56z"/>
	<path class="st160" d="M90.5,71.6c-0.4,0.4-0.9,0.6-1.5,0.6C89.2,71.1,89.6,70.8,90.5,71.6z"/>
	<path class="st145" d="M68.6,64.4c0.7-0.8,0.9-0.8,1.2,0c0.1,0.2,0.1,0.5,0.3,0.6c1.4,0.8,1.3,2.5,2,3.7c0,0-0.1,0.1-0.2,0.2
		C70.6,67.7,69.7,65.9,68.6,64.4z"/>
	<path class="st55" d="M75.8,88.3c1.9,0.5,3.4,2.9,2.9,4.7c-0.6,2.1-2.8,2.8-4.5,2.4c-1.8-0.4-3.1-2.9-2.6-4.6
		C72.1,89.2,74.3,87.9,75.8,88.3z"/>
	<path class="st168" d="M53.7,65c0.1-0.1,0.2-0.1,0.3-0.2c0.2,0.5,0.3,1-0.2,1.6C53.8,65.9,53.7,65.4,53.7,65z"/>
	<path class="st169" d="M63.3,39.4c-0.8-0.2-1.4-1-1.3-1.6c0.1-0.6,2-1.7,2.5-1.5c0.7,0.3,1,0.9,0.8,1.7
		C65.1,39.1,64.2,39.6,63.3,39.4z"/>
	<path class="st170" d="M83.5,67.1c0.3-1.8,0.8-2.1,2.4-1.6C86.1,67.2,85.3,67.7,83.5,67.1z"/>
	<path class="st171" d="M75.7,89.8c1.9,0.5,2.3,1.2,1.8,3.2c-0.3,1.2-1.6,1.8-3,1.4c-1.3-0.4-2.1-1.7-1.7-3.1
		C73.2,89.7,73.9,89.3,75.7,89.8z"/>
</g>
</svg>
