<?xml version="1.0" encoding="utf-8"?>
<!-- Generator: Adobe Illustrator 27.1.0, SVG Export Plug-In . SVG Version: 6.00 Build 0)  -->
<svg version="1.1" id="Capa_1" xmlns="http://www.w3.org/2000/svg" xmlns:xlink="http://www.w3.org/1999/xlink" x="0px" y="0px"
	 viewBox="0 0 687.8 756.2" style="enable-background:new 0 0 687.8 756.2;" xml:space="preserve">
<style type="text/css">
	.st0{fill:#FAFAFA;}
	.st1{fill:#FBFBFB;}
	.st2{fill:#FCFCFC;}
	.st3{fill:#F9F9F9;}
	.st4{fill:#F7F7F7;}
	.st5{fill:#1D1D1D;}
	.st6{fill:#F2F2F2;}
	.st7{fill:#DADADA;}
	.st8{fill:#D3D3D3;}
	.st9{fill:#DDDDDD;}
	.st10{fill:#1B1B1B;}
	.st11{fill:#858585;}
	.st12{fill:#B4B4B4;}
	.st13{fill:#878787;}
	.st14{fill:#9E9E9E;}
	.st15{fill:#1E1E1E;}
	.st16{fill:#CDCDCD;}
	.st17{fill:#1F1F1F;}
	.st18{fill:#D7D7D7;}
	.st19{fill:#CFCFCF;}
	.st20{fill:#AEAEAE;}
	.st21{fill:#C2C2C2;}
	.st22{fill:#1A1A1A;}
	.st23{fill:#C6C6C6;}
	.st24{fill:#E2E2E2;}
	.st25{fill:#9B9B9B;}
	.st26{fill:#A5A5A5;}
	.st27{fill:#C9C9C9;}
	.st28{fill:#989898;}
	.st29{fill:#6D6D6D;}
	.st30{fill:#636363;}
	.st31{fill:#A0A0A0;}
	.st32{fill:#AAAAAA;}
	.st33{fill:#CACACA;}
	.st34{fill:#868686;}
	.st35{fill:#9F9F9F;}
	.st36{fill:#222222;}
	.st37{fill:#262626;}
	.st38{fill:#242424;}
	.st39{fill:#232323;}
	.st40{fill:#181818;}
	.st41{fill:#212121;}
	.st42{fill:#808080;}
	.st43{fill:#202020;}
	.st44{fill:#5D5D5D;}
	.st45{fill:#909090;}
	.st46{fill:#8B8B8B;}
	.st47{fill:#0F0F0F;}
	.st48{fill:#8C8C8C;}
	.st49{fill:#B0B0B0;}
	.st50{fill:#272727;}
	.st51{fill:#7D7D7D;}
	.st52{fill:#9D9D9D;}
	.st53{fill:#050505;}
	.st54{fill:#5F5F5F;}
	.st55{fill:#9A9A9A;}
	.st56{fill:#141414;}
	.st57{fill:#A3A3A3;}
	.st58{fill:#BCBCBC;}
	.st59{fill:#A2A2A2;}
	.st60{fill:#8C8B8C;}
	.st61{fill:#1C1C1C;}
	.st62{fill:#131313;}
	.st63{fill:#BABABA;}
	.st64{fill:#6E6E6E;}
	.st65{fill:#7B7B7B;}
	.st66{fill:#080808;}
	.st67{fill:#929292;}
</style>
<path class="st0" d="M40.6,70.2c5.2-4.1,10.8-5.3,16.6-5.5c8-4.3,14,5.1,20,5.9c-5.7-3.5-12.8-6.4-19.9-9.1
	C50.9,63.1,45.4,58.8,40,55c-5.4-3.8-7.4-11-5.5-18.8c2.1-8.9,7.6-8.9,13-7.1c3.9,1.3,6.3,5.5,9,9.5c3.6,5.3,7.7,9.7,12.6,15.6
	c-0.4-10.4-0.6-19-1-27.6c-0.2-5.2,0.3-10.3,2.6-14.3C74.3,5.7,79,1.6,85,6.1c6.3,4.8,6,12.6,3.7,20.8c-1.3,4.7-3.2,8.8-6.8,10.6
	c-3.3-4.3-0.1-10.6-2.7-16.6c-4.1,8.5-1.7,17.6-2.9,25.7c-0.2,2,2.4,0.5,1,0.6C77.2,42,77.3,37,82.2,37.1c0.2,3.9-0.1,8,0.7,11.6
	c1.2,5.5,2.2,13.6,4.9,15.3c4.3,2.8,2.9-7.2,5.7-9.8c6.8-6.4,13.7-11.2,21.6-3.9c0.2,4-2,4.6-3.8,5.6c-11,3.7-16.3,12.9-14.5,25.4
	c2,14.1,17.1,27.3,26.8,23c12.7-5.6,20.2-21.5,30.9-34.2c-7.4,7.7-11,19.9-20.2,20.9c-1.5-0.8-2.6-2-2.2-4.8
	c10.7-9.1,16.6-24.9,24.5-37.8c6.8-11.1,13.1-23.6,24.2-25.9c17.1-3.6,29.9,10.8,32.3,36c-1.5,26.3-10.8,36.8-27.2,30.4
	c-7.4-8.7-14.1-17.8-8.3-33.5c0.3-3.8,1.8-6.3,5.5-9.6c-4.5,3.1-7.4,4.7-10.4,6.2c-3.7,6-7.3,11.6-10.3,19
	c-7.9,19.5-19,36.8-33.2,46.6c-5.3,3.7-14.7,8.5-20.7-3.9c-1-2-3.7-2.1-5.6-3.1c-3,13.6,1.8,29.2-5,41.8
	c-7,14.6-17.2,21.9-28.5,26.7c-6.6,7.9-14.4,5.2-21.9,5.4c-1.7-1.3-2.2-3.5-2.2-6c1.4-8.2,6.4-6.5,10.1-7.2
	c9.8-1.6,18.6-6.6,26.6-14.8c8.9-9.1,12.3-27.7,7.9-41.8c-3-9.7-11.5-15-17.3-10c-5.5,4.6-7.4,11.3-2.3,22.5
	c0.7-9.6-0.6-19.3,7.3-19.1c5.6,0.1,10.9,9.9,11.3,20.7c0.6,14.7-6.8,30-17.2,36.2c-11.8,7-25,6.5-36.4,15.2
	c-2.8,1.6-5.7,3.1-8.6,4.2c-8,2.4-12.6,10.1-14,21.4c-1.6,12.6,3.3,21.7,12.5,25c4.2,1.5,9.4,0.7,9.6,10.3
	c-14.8,9.4-25.7-0.8-30-24.4c-4-29.6,3.9-45.5,24.8-51c5.3-1.4,10.4-4.1,15.9-3.3c3.9-1.3,7.8-2.5,11.8-3.8
	c3.4-7.7,10.2-7.9,14.6-14.1c-8.5-0.8-14.4-6.7-16.5-18.5C52.4,109.8,58,98.1,67,87c-3.7-0.3-7,0-9.3-3.4c-1.6-6.7-4.4-6.6-8.3-1.7
	c3.2-0.2,6.6-2.5,8.6,2.4c-0.6,12.4-5,17.2-13.2,14.3c-3.4-1.4-8-0.5-8-8.4C36.8,83.1,33.6,74.5,40.6,70.2z"/>
<path class="st1" d="M476.3,64.7c1-8,0.9-16.5,4.4-23.5c2.8-8,6-15.5,11.3-20.7c0.9-0.8,1.9-1.4,2.9-1.8c5.8-1.3,11.5-1.4,17.3,0.1
	c10.9,7.1,19.5,18.5,26.6,32.1c5.1,9.7,11.3,17.5,17.5,25.4c1.5,1.9,4.2,5.7,4.6-1.7c1.2-23.2,7.3-29.9,26.6-29.2
	c2.8,0.4,5.2,1.8,7.4,4.5c2,3.4,4.2,6.6,3.8,11.8c3.2-5,4-11.5,5.6-17.6c0.9-3.6,1.2-8.3,5.1-7.7c3.3,3.4,3.4,7.7,2.2,10.7
	c1.2-7-0.1-15.8-1.1-29.4c-2.2,8.5-0.4,14.7-3.7,17.8c-1.1,0.6-2.2,0.6-3.3,0.2c-6.6-6.1-7.5-15.2-5.4-24.9
	c1.8-8.2,6.5-11.2,12.2-10.7c6.5,0.6,11.1,4.6,12,14.9c0.1,8.9,0.3,17.8,0.5,26.7c0,0.1,0.6,0.3,0.9,0.2c0.3-0.1,0.5-0.6,0.8-1
	c1.6-2,2.9-5.1,5.5-3.6c4-2.6,7.9-5.4,11.9-7.9c4.6-2.9,9.3-3.2,11.7,4c2.1,6.2,2.8,13.6-1.3,19.6c-3.6,5.2-7.7,8.4-12.8,8.7
	c-3.3,0.2-6.7,0.6-10,2.4c3.4,0.4,6.8,0.6,10.1,1.3c5.3,1.2,10,4.1,11.9,12.4c1.7,7.3,1.4,14.1-3,19.2c-4.2,4.8-8.4,2.7-12.2-1.5
	c-1.6-1.8-2.8-4.3-4.2-6.5c-0.6-4.4,1.6-4.6,3.6-5.2c1.7-0.2,3.3,1.1,6.1-0.7c-7.8-6.3-15-7.2-22.7-3.4c-1.4,2.8-7.2,2.3-3.1,9.1
	c7.1,1.9,11.2,8.2,13.9,17.9c2.7,9.6,3.8,19.5-0.8,27.1c-5.1,8.4-12.4,10.6-20.1,4.6c6.9,14.8,15.7,23.9,27.9,24.4
	c11.4,0.5,22,6.3,32.8,10.3c6,2.2,9.3,11.1,12.7,18.5c0.7,2.7-0.1,4.4-1.8,5.4c-6.6,0.7-6.9-10.9-11.9-13.2
	c-8.5-8.4-18.5-8.1-28-10.9c-15.7-2.4-31-6.3-38.9-30.3c-3.1-9.3-3.8-18.5,1.6-26.7c3.1-4.7,6.8-6.6,11.3-4.9
	c5.6,2.1,2.6,9,3.5,14.5c4.4-2.4,4.6-7.1,3.7-12.2c-1.1-6.1-4.2-9-8.2-10c-10.9-2.8-20,14.3-17.5,32.5c2.4,17.5,12.2,23.7,21.7,29.6
	c7.2,4.5,14.9,7.6,23,7.6c10.1,3,21,2.6,29.6,13c3.5,3.9,5.4,9.2,6.4,15.2c1.8,10.5-1.8,19.7-8.6,22.5c-4.2,1.7-8.2,1.6-11.1-4.2
	c-1.3-2.6-1.9-5.7-0.3-8.3c3.2-5.3,6.9-2.7,10.4-0.8c3.9-10.1,1-19.5-7.4-24c-5.9-3.2-12.3-4.2-18.4-3.1c-16.8,3-30.2-9.5-43.9-19.9
	c-8.1-6.2-12.5-27.2-10-40.8c0.8-4.5,4.3-10.9-3.2-8.9c-2.5,2.2-4.9,2.5-6.9-1.3c-0.6-9.3,5.4-10.7,8.7-15.2c7-9.6,8.4-17.7,4.4-28
	c-4.3-11.1-10.7-11.1-18.4,3.4c6.9-5.9,12.3-10.1,15.3,0.9c2.3,8.3-1.1,17.8-8.2,23.2c-10.5,7.8-23.4,4.4-34.3-9.3
	c-5.5-6.9-9.9-15.4-15.5-22.1c-5.4-9-10.3-18.7-17.3-25.4c-12-8.1-22.5-2.1-25.3,14.3c-1.4,7.8,0.5,14.1,4.8,18.5
	c4.4,4.6,8.3,2.7,11.3-4.6c-3.4,2.4-6.8,3.6-9.2-1.2c-2.6-5-4.3-10.5-0.4-16.1c1.7-0.2,3.4-0.4,5.1-0.4c9-0.3,13,4.4,13.2,15.3
	c0.3,10.8-5.6,20.5-13,20.5c-6,0-12.3,1.9-17.8-3.7C480.6,75.5,474.9,72.1,476.3,64.7z"/>
<path class="st0" d="M200.2,730c-11.5,6.4-22.2,8.1-32.6-5.2c-9.6-12.3-17.3-27.2-26.2-40.4c-5.7-8.5-11.8-15.3-22.3-14.1
	c4.8,5,6.3,10.7,7.1,17.2c1.1,9.2-3.9,12.6-7.1,17.1c-6.4,9-18.1,6.7-24.7-3.8c-2-3.2-4-6.6-6-9.8c-4.1-6-2.5-13.7-3-21
	c-5,0.5-10,7.6-15,0.2c-1.6-2-3.3-4-4.9-5.9c-0.7-4.4,1.7-5.3,3.6-6.6c1.3-0.5,2.7-0.7,4.1-0.9c12.4-1.5,16.1-5.6,17.9-19.3
	c2.4-18.3-0.9-30.1-10.4-37.5c-7.6-5.9-15.6-10.4-23.9-13.6c-10.5-3.8-21.7-1.9-31.9-8.7c-1.9-1.3-3.7-2.2-5-4.6
	c-4.2-4.3-6.3-10.7-7.5-17.5c-2.1-12,6.2-24.6,14.6-22.3c6.4,1.8,7.7,7.6,4.3,18.2c5.9-8.6,5.9-16.5,1.7-21.8
	c-5.1-6.5-11.2-3.6-15.8,2.9c-7.9,11.1-7.1,24.3,2.1,39.9c10.1,11.6,22.3,10.4,34,12.6c7.1,4.9,16.7,2.3,21.3,14.8
	c0,2.8-1.1,4.4-2.8,5.1c-8-4.9-16.9-4.7-24.7-10.2c-0.7-0.2-1.4-0.4-2.1-0.6c-5.2,2.9-9.8,1-14.1-3.5c-2.2-0.9-4.4-1.8-6.6-2.7
	c-5.1-0.3-9.1-3.6-12.3-9.3c-2.7-5-5.4-10-8.1-15c-2.2-11.5-3.9-23,2.4-33.2C8.2,519,13.6,514,21.5,515c6.2,0.8,12.8-3,18.6,3.4
	c8.7,9.9,9.3,20.2,2.2,35.9c-3.9,5.9-8.6,7.9-14,6.5c-3.8-0.2-4.8,1.6-2.1,6.2c0.7,0.8,1.5,1.5,2.2,2.3c4-2.3,7.4,0.6,11,2.3
	c6.5,2.6,13.2,0.4,19.8,1.5c10.3,3,20.7,5.7,29.1,16.2c2.6,2.8,5.1,5.5,7.7,8.3c4.1,6.9,7.9,13.9,5,23.9
	c-0.2,22.5-0.2,22.4,14.6,18.4c1.3-0.3,2.7,0.1,4,0.1c1.2,1.9,1.2,4,0.5,6.2c-7.5,6.8-16.5,10.8-21.2,23.2
	c-3.3,8.6-2.2,19.9,3.2,24.2c5.1,4.1,10.5,5.1,13.7-5.6c-4.4,3.6-8.7,10-13,0.5c-3.6-7.9-1.7-17.9,4.7-25.1
	c8.9-10,22.6-8.4,33.6,4.1c8.5,9.6,15.9,20.9,23,32.6c3.7,5.5,7.9,10.3,11.6,15.9c11.5,10.8,21,7.7,26.2-8.6
	c2.8-8.7,0.6-15.8-3.6-21.8c-3.7-5.4-7.4-4.1-11.3,2.9c4.1,1.7,9.5,0,10.4,8c0.6,5.5-0.8,9.8-4.2,12.7c-7.5,3.7-12.7,0.3-15.6-10.5
	c-2.8-10.6,0.1-19.5,9.1-28.1c2.5-0.2,5-0.5,7.6-0.7c9.6-3.3,12.2,8.3,16.3,16.6C216,705.5,207.9,717.7,200.2,730z"/>
<path class="st0" d="M463.7,41.9c1.2,1.6,2.4,3.3,3.6,4.9c1.6,12-2.8,14.1-9.5,12.3c-6.9-0.1-13.9-0.1-20.8-0.2
	c-8.5,3.9-17.1,3.3-25.8,2.7c-25.9,0.2-51.9-0.4-77.8,0.3c-1.1,0.4-2.3,0.7-3.4,0.9c-9.3-2.4-18.8-0.7-28.2-1.1
	c-0.5,0-1.1,0.1-1.7,0.1c-0.7,0-1.4,0-2.2,0c-0.6,0-1.2,0-1.8-0.1c-14.5-0.1-29.1,0-43.6,0c-5.5-0.4-11,1.1-16.3-2
	c-2-7.3,1.6-8.6,5-10c15.8-0.4,31.6-0.1,47.5-0.2c1.4,0-0.3,0.1,1,0c-0.5,0-1,0-1.6,0c-9,0-17.9,0-26.8,0c-6.7-0.2-13.4,0.4-20-0.4
	c-1.8-0.8-3.6-1.6-3.2-5.2c13-0.3,26-0.6,39-0.9c16-1.8,32.1-1.4,48.1-0.2c22.8-4.7,45.8-1,68.6-2.3c16.4-1,32.9-0.4,49.4-0.4
	C450.1,39.6,457.1,35.6,463.7,41.9z"/>
<path class="st2" d="M299.5,713.4c-1.9-0.1-3.8-0.2-5.8-0.3c-1.3-0.6-1.9,0.5-2.2,2.2c-3.9,3.8-8.1,1.5-12.2,1.6
	c-13.1-2.6-26.3-0.3-39.4-1.3c-1.2-0.1-2.3-0.6-3.4-1.4c-3.1-7.6,1.2-8.4,4.4-10.1c1.2-0.1,2.4,0.1,3.6,0.6
	c16.1,0.1,32.3,2.9,48.4-1.9c16.8-1,33.7-1.4,50.4,1.9c13.3,0.3,26.6-0.4,39.8,0.4c19.5-4.1,39.1,1.6,58.6-1.7
	c-18.6,3.1-37.3-2.2-55.9,1.4c-13.4,0.5-26.8-1.2-40.2,0.2c-1.1,0-2.2-0.3-3.2-0.9c-3.3-1.3-6.9,0.5-10-2.3c-1.1-1-2.2-2.7-0.7-4.7
	c1.2-1.6,2.5-1,3.7,0.1c6.8-0.1,13.5-0.1,20.3-0.2c21.3-2.5,42.6-0.4,63.9-1.2c5.8-0.2,11.7,1.1,17.5-0.9c0.6-0.4,1.3-0.4,1.9,0
	c7.7,2.6,15.7-0.6,23.5,1.8c7.5,5.9,6.3,11.4-0.4,16.5c-8.4,1.2-16.8,1.5-25.2-0.2c-7.5-0.1-15-0.2-22.5-0.3
	c-14.8,2.8-29.6,1.1-44.4,1.1C346.5,714.1,323,715.2,299.5,713.4z"/>
<path class="st3" d="M30.5,487.6c-6.1,14.8-9.2,2.8-12.9-3.1c-0.8-14.2-1.4-28.3,0-42.5c0-1,0-2.1,0-3.1c-1.6-6.6-0.5-13.4-0.7-20.1
	c1.7-13.9,0.9-28,0.6-42c-0.5-1.6-0.4-3.2,0.2-4.7c0-1.1,0-2.1,0-3.2c0-0.9,0.1-1.8,0.1-2.7c0.4-26.6-0.6-53.1,0.5-79.7
	c0.4-1.7,1.1-3,2.1-3.9c8.9,1.6,3.8,11.5,4.9,17.7C23,311.8,23.8,323.4,25,335c0,20.2,0,40.3,0,60.5c0.1,10.3,4.5,20.2,2.4,25.6
	c1.7-5.5-2-15.6-2.3-26c0.6-29.6-0.9-59.1-0.2-88.7c1.2-2.9,2.9-3.2,4.9-2.4c2.5,4.1,1.5,8.6,0.8,13.1c0,13.2-0.1,26.5-0.1,39.7
	c1.9,4.8,1.8,10,1.8,15.3c0.3,13.7-0.6,27.5,0.5,41.2c0.6,2.5,0.6,5,0.2,7.5c-1.2,13.2-1,26.5,0,39.7
	C31.3,469.4,34.1,479.1,30.5,487.6z"/>
<path class="st4" d="M70.4,670.1c2.1,0,4.2,0.4,6.2-0.2c11.7-3.8,11.7-3.9,11.8,15c0,2,0,4,0,6.1C84,700,82,710.1,82,721.2
	c-9.3-2.2-3,6.8-4.2,10.4c1.4-2.6,0.4-7.6,4.4-7.3c5.8,4.9,7.9,12.4,6.1,21.6c-1.7,8.6-7.5,7.3-11.3,6.5c-6.8-1.4-8.8-10.2-9.1-19.1
	c-0.3-8.9-0.3-17.9,1.9-26.5c-3.6-2.6,6-11.8-2.8-11.8c-4.8,1-9.5,0.7-14.3,0.8c-3.4-0.4-7.1,0.1-9.2-5.3l-0.6,1l0.5-1
	c-9.1-9.1-10.1-16-4.1-29.1c6.9-6.1,11.9-3.1,17.1,5.4C59.7,672.1,63.9,686,70.4,670.1z"/>
<path class="st5" d="M34.8,241.1c-1.4-3.8-3.5-6.1-6.5-5.7C17.5,236.8,11.8,229,9.9,214c-1.8-14.3,2.5-25.9,12.6-33.3
	c1.1-0.8,2.5-0.4,3.8-0.5c1.4,7.3-3.1,10.4-5.1,15.4c-3.3,8.6-4.3,16,4.4,19.9c-1.2-4.3-3.1-8.4,0.4-11.7c2.5-2.4,5.2-2.6,7.8-1.2
	c5.1,2.5,7.2,8.6,8.6,15.7c0.3,5.9-1.4,10.4-4.4,14C37,235.1,35.9,238.1,34.8,241.1z"/>
<path class="st6" d="M69.8,691.2c4.1-1,6.9,0.1,4.2,7.3c-1.1,3-2.9,5.5-4.3,8.2c-4.8-1.4-5.2,4.7-6.8,8.6c-4.9,5-8.7,11.6-15.5,13.4
	c-11.3,3-13.3,1.6-13-14.8c0.1-3.9,1.1-6.6,2.4-9.5c1.5-5.7,5.2-7,8.4-9.4c4.2-0.1,7.8,0.5,5.2,8.9c-1,2.9-3.8,3.9-3.9,9
	c5.4-2,10.8-2.8,8.3-14.2C58.5,690.6,65.1,695.4,69.8,691.2z"/>
<path class="st7" d="M40.8,216.7c-4-9-7.9-18.5-17-7.9c2.8,3.8,7.6-1.4,8.5,5.4c0.2,1.5-0.6,4-1.4,5c-3.3,3.6-6.5,1.4-9.6-0.9
	c-7.5-5.7-6.6-14.7-3.4-23.2c2.1-5.5,5.6-9.9,8.4-14.7c2.9-1.1,5.8-2.1,8.7-3.2c3.8-1.4,7.6-2.6,11.5-0.6c0.1,2,0.3,4.1,0.4,6.1
	c-6.5,6.8-16.4,1.7-20.9,13.8c3.2-0.3,7.4-2.8,10.2,3.2c1.7,5.2,6.6,7,6.7,13.9C43.8,216.6,42.8,217.3,40.8,216.7z"/>
<path class="st8" d="M69.9,660.8c-1.7,0.3-3.5,0.5-4.4,3.3c-3.1-1.6-4.6-5.5-6.2-9.2c-0.8-11.3-3.9-23,2.8-32.8l-0.3,0.4
	c2.1-5.7,6.1-5.7,9.6-6.6c3.3-0.8,3.8-3.2,2.9-7.2c-1.8-0.7-3.4-1.7-2.9-5.2c0.8-0.9,1.5-1.7,2.3-2.6c10.5,2.3,17.7,24.7,11.4,36.1
	c-3.2,5.7-7.2,9.2-10-1c-1-3.7-2.3-6.5-5.3-5.2c-2.8,1.2-3,4.9-3.4,8.5C65.5,647.2,70.1,653.2,69.9,660.8z"/>
<path class="st9" d="M119.4,645c0-1.7,0-3.3,0-5c0.7-0.2,1.4-0.4,2.1-0.6c16.8,2.5,24.1,23.7,35,38c0.7,1,1.4,2.1,2.1,3.1
	c4.3,7.4,4.9,18.9,11.8,23.5c3.3,6.1,8.3,7.9,12.9,10.8c1.2,2.3,1.2,4.4-0.7,6c-3.4,0.8-6.9,1.4-9.3-3.5c-4.6-2.1-6.1-9-9.3-13.4
	C151.7,680.1,137.5,659.4,119.4,645z"/>
<path class="st10" d="M414.4,59.2c7.5,3.2,15-2,22.5-0.3c-4.1,4.3-8.6,5.8-13.5,5.8c-38.5,0-77.1,0-115.6,0c-2.7,0-5.6,0.7-7.7-2.9
	l-0.2-0.5c9.8-2.1,19.7-1.4,29.5-0.4c0.5,0.1,1,0.1,1.5,0.1c23.7-1.9,47.5-0.3,71.2-0.9C406.2,60,410.3,61,414.4,59.2z"/>
<path class="st10" d="M30.5,487.6c-0.1-9.1-1.7-18.5,1.4-27.2c-1-13.3-1-26.6,0-39.8c0-1.9,0-3.9,0-5.8c-1.7-14.4,0.7-29-1.3-43.4
	c0-4.8-0.1-9.7-0.1-14.5c4.1,3.2,3.9,8.8,3.9,14.4c0,34.8,0,69.5-0.1,104.3C34.4,480.3,35.5,486.2,30.5,487.6z"/>
<path class="st10" d="M36.3,199.5c-6.3-2.6-11.4,0.3-16.5,9.8c-0.3-12.2,2.1-19.2,9-21.6c6-2.1,12.1-3.5,18.1-5.2
	c7.8,2.7,15.1-0.9,22.5-3.3c-1.4,8-5.7,7.1-9.8,7.2c-6.7,0.1-13.4,1.1-20.1,2.3C32,190,34.5,194.1,36.3,199.5z"/>
<path class="st10" d="M236.2,57.7c5.3,0.4,10.6,0.9,15.9,1.3c15.3,3.3,30.7-1,46,2.2l-0.2,0.5c-7.4,6.3-15.5,2.8-23.2,2.7
	c-13.4-0.2-26.9,3.1-40.1-2.5c-2-0.8-4.1-1-4.9-4.5C231.9,55.5,234.1,55.3,236.2,57.7z"/>
<path class="st10" d="M88.1,589.2c-9.1-6.3-18.4-12-28.6-13.7c-6.9-3.4-14.2,0.9-21.1-2.4c-3.4-1.3-6.8-2.6-10.2-3.9
	c1.1-1.1,2.4-3.4,3.4-3.2c17.4,4.9,35.7,3.1,52,15.4C85.9,583.2,87.7,585.3,88.1,589.2z"/>
<path class="st10" d="M181.4,715.1c-5.2-0.4-9.3-3.3-11-11.1c2.4,1.5,4.8,3.1,8.4,5.4c-2.9-11-5.3-20.9-1-30.7
	c2.1-4.8,4.5-8.8,8.8-8.2c-1.2,1.7-2.5,3.2-3.6,5c-4.1,6.5-6.5,13.6-4.3,22.9c3,12.4,10,6.9,15.5,8.3c0.6,1.4,0.7,2.9,0.2,4.4
	C190.9,718.4,185.9,715.1,181.4,715.1z"/>
<path class="st10" d="M236.1,712.1c0.5,0.4,1,0.6,1.6,0.7c13.9,3.7,27.9-0.4,41.8,2.2c4,0.1,8.1,0.2,12.1,0.2
	c-1.1,1.1-2.2,3.2-3.2,3.1c-19-0.6-38.2,3.8-57.1-2.9c-4.6-1.6-11-4.1-5.6-14.8C229.1,704.6,232.7,708,236.1,712.1z"/>
<path class="st11" d="M236.1,712.1c-5.4,0.1-11,0.4-10.4-11.4c3-3.3,6.5-3.7,10-3.8c0.8,0.3,1.5,0.7,2.3,1
	c5.1,4.8,12.3-4.4,16.8,5.3c-3.7,5.8-8.5,2.5-12.8,3.3C239.4,706.9,236.9,707.5,236.1,712.1z"/>
<path class="st12" d="M29.8,305.3c-1.1,0-2.2,0-3.3,0c-3-4.9-1.9-10.7-1.7-16.3c0.1-2.8,0.7-6.1-2.6-5.6c-0.5,0.7-1,0.9-1.7,0.8
	c-0.6,0.6-1.3,0.8-2.1,0.7c-0.2-0.4-0.4-0.9-0.7-1.3c4.4-2.4,0.1-21.3,10.7-12.1C33.6,282.5,31.7,293.9,29.8,305.3z"/>
<path class="st10" d="M17.7,368.8c-4.3-21.5-1-43.4-1.8-65.1c-0.2-6.6-1.9-14.1,2-20l0.9-0.2c-0.2,28.6,0.8,57.1-0.6,85.7
	L17.7,368.8z"/>
<path class="st13" d="M236.2,57.7c-2.2-0.1-4.3-0.2-6.5-0.3c-1.5-1.6-2.9-3.2-4.4-4.8c1-12.9,7.5-9.1,12.8-8.8c0.7,1,1.4,2,2,3
	c1.2,1.4,2.9,2.4,2,5.4C239.3,52.1,237,53.3,236.2,57.7z"/>
<path class="st10" d="M18.3,417.8c-0.2,7-0.5,14-0.7,21.1c-3.1-22.3-3.1-44.6,0-66.8c0.3,0.9,0.5,1.8,0.6,2.8
	C19.2,389.2,19.1,403.5,18.3,417.8z"/>
<path class="st10" d="M42.2,554.2c3.6-12.5,5.5-24.8-2.2-35.9C51.5,524.7,52.5,541.5,42.2,554.2z"/>
<path class="st10" d="M71.4,603.5c1,1.8,1.9,3.5,2.9,5.3c-8.9-5.8-19.5-4-27.5-13.9C55.1,597.4,63.9,596.9,71.4,603.5z"/>
<path class="st10" d="M97.9,152.6c1.8-14.2,4.1-28.1,1.3-43c-0.8-4.2,2.3,1.2,3.7,1.2C101.6,124.8,106.5,140.4,97.9,152.6z"/>
<path class="st10" d="M29.8,305.3c0.1-11.3,2.1-22.7-1.3-33.7c3.8,0.6,4.1,5,4,8.9c-0.4,12.2,1.3,24.7-1.9,36.6
	C30.4,313.2,30.1,309.2,29.8,305.3z"/>
<path class="st10" d="M172.7,52.1c3.2-8.7,8.1-10.3,15-7.8c-3.8,4.2-6.9,7.8-10.1,11.3C175.9,54.4,174.3,53.3,172.7,52.1z"/>
<path class="st10" d="M74.3,608.7c2.9,2.7,5.4,5.8,6,12.8c-6.6-3.9-12.8-5.1-18.5,1C63.1,612.3,71.7,616.3,74.3,608.7z"/>
<path class="st10" d="M17.6,442c0,14.2,0,28.3,0,42.5C14.7,470.3,14.6,456.2,17.6,442z"/>
<path class="st10" d="M6,530.5c-3.1,10.7-2.7,22-2.4,33.2C-1.8,547.7-1.3,540,6,530.5z"/>
<path class="st10" d="M210.5,686.4c-5.5-5.4-7.4-18.3-16.3-16.6C202.8,666.2,207.2,670.7,210.5,686.4z"/>
<path class="st10" d="M62.1,622.1c-4.8,10.2-2.1,21.9-2.8,32.8C57.4,643.4,52.9,631.5,62.1,622.1z"/>
<path class="st10" d="M457.7,59.2c5.3-0.6,10.4-1.5,9.5-12.3c5.1,3.2,1.7,7.7,0.9,11.8C464.7,59.6,461.4,67.8,457.7,59.2z"/>
<path class="st10" d="M100.8,621.4c0.1-8.8-3.1-16.1-5-23.9C103,603,105,610.8,100.8,621.4z"/>
<path class="st14" d="M40.8,216.7c0.7-1.1,1.4-2.2,2.2-3.3c4,9.4,1.4,15.1-4.9,18.8C39.5,227.2,41.4,222.4,40.8,216.7z"/>
<path class="st10" d="M44.8,697.5c-2.7,2.3-5.4,4.6-8.1,6.8c-0.5-7.4,5.4-8.3,6.7-13.9c3.1,0.5,6.2,0.9,9.3,1.4
	C52.3,700.3,46.5,692.9,44.8,697.5z"/>
<path class="st10" d="M30.7,590.8c4.7,1.2,9.4,2.3,14.1,3.5c-5.8,5.7-11.2,2.7-16.5-1.5c0.2-0.4,0.3-1,0.5-1.1
	C29.4,591.2,30,591,30.7,590.8z"/>
<path class="st10" d="M47.7,496.5c-3.7,5.3-5.5,11-10.5,7.3C39.3,496.9,43.2,497.1,47.7,496.5z"/>
<path class="st10" d="M224.5,691.6c-0.3,2.8-1.3,4.6-3.2,4.7c-1.9,0.2-3.1-1.7-3.3-4.3c-0.2-2.3,1.3-3.3,2.6-3.4
	C222.2,688.6,224,688.5,224.5,691.6z"/>
<path class="st10" d="M26.1,566.9c-5-0.8-4.5-7.5-5.7-12.9c2.6,2.2,5.2,4.5,7.8,6.7C27.5,562.8,26.8,564.9,26.1,566.9z"/>
<path class="st10" d="M11.7,578.8c4.1,3.1,8.2,6.2,12.3,9.3C18.2,589.9,13.4,588.7,11.7,578.8z"/>
<path class="st1" d="M638.8,661.4c0.6,0.2,1.1,0,1.5-0.9c2.7-6,5.5-6,8.4-0.2c1.4,4.3,2.8,8.5,4.1,12.8c3.6,14.8-4.1,17.3-10.2,21.3
	c2.8,1.4,4.6,3.2,8.1,8.4c3.5,5.7,6.3,12.5,3.5,19.8c-3.6,9.5-10.3,3.5-15.6,4.9c-6.6-3.1-10.5-12.4-16.6-16.1
	c-0.9,9.4,3.6,19.8-2.3,28.6c-0.6,7.4-3.9,11-8.5,12.8c-2.2,4.5-4.3,4.3-6.3-0.2c-6.4-2.9-5.2-11.2-6-18.1
	c0.3-12.2,7.6-23.3,1.9-35.6c-2.7,6.1-6.1,12-12.4,11.2c-3.5,0-6.9,0-10.4,0.1c-7.5-0.6-14-5.4-15.6-16.1
	c-1.6-10.7,1.1-20.9,9.1-26.1c-11.1,0.3-19.8,6.4-26.8,18.8c-7.6,13.4-15.5,26.3-23.7,38.9c-5.3,8.2-12.6,9.1-19.9,8.6
	c-1.1-3,0-5.2,1.2-7.3c-0.1-5.6-4.1-3.9-5.9-6.3c-5.7-7.1-7.6-15.4-4.7-25.3c2.4-8.1,6.5-7.7,10.7,0.6c-0.3,5.1-3.3,7.3-5.3,10.6
	c5.8,11.8,12.9,8.9,19.1,2.2c4.2-4.6,7.9-10.7,10.4-18.3c7.1-21.4,18.6-37.3,32.8-47.7c9.8-7.2,20.6-5.2,31,5.3
	c-5.5-13.4-4.2-26.2,0.1-38.9c2.1-4.9,3.9-4.5,5.5,0.6c0.9,7.6-1.2,15-0.3,22.7c1.6,14.4,6.9,21.6,15.8,21c8.8-0.6,11.3-6.7,7-24.1
	c0.1,12.3-1.1,20.2-8.7,19.1c-6.2-0.9-10.3-9.8-9.7-21.8c0.7-13,4.9-23,12.4-30c10.1-9.4,21.5-13.5,32.9-17.3c6.3-2.4,13.3,0,19-6.2
	c12.7-10.4,16-28.1,7.5-41.5c-4.3-6.8-9.8-8.6-14.9-3.4c-5,5.1-4.9,12.5,0.6,21.4c-3.1-8-2.2-12.8,1.9-15.2c4.5-2.6,8.1-0.8,10,6.2
	c0.2,1.5-0.1,2.8-0.8,3.9c-2.2,11.2-7.7,15.2-14.8,12.5c-6.9-2.6-9.7-11.5-9.4-20.9c0.5-12.2,4.9-20.8,14.1-21.8
	c14.7-5.6,21.7,5.9,25.4,24.7c6.6,13.9,3.8,29.2-7,39.4c-14.2,14.2-31.4,13.7-47.2,20.4c-2,0.8-4,0.6-5.3,3.6
	c-1.6,5.2-5.8,6.2-8,10.6c1.3,2.2,3.7,2.2,4.7,5c7.8,7.3,10.4,18.7,7.6,33.3c1.2,7.3-2,11.7-5.5,14.5c-5.9,4.6-1.5,7.2,0.4,10.4
	c-0.1,2.9-1.2,4.3-3.1,4.5c0.8,2.4,2.2,0.6,3.1,0.5c4.3-0.8,8.8,0.9,13-1.9c1.4-1.1,4.1-2.4,3.8-3.4c-1.1-3.1-3.2,0.3-5-0.3
	c-1.5,0-2.9-0.6-4.1-2.2C630.8,665.5,634.5,663.1,638.8,661.4z"/>
<path class="st3" d="M673.6,472.5c0,3.4-0.2,6.8-0.1,10.2c0.2,4.3-0.7,8.1-3.2,9.9c-3.4,2.4-5.5-1.1-7.2-5
	c-2.7-13,0.5-26.7-1.8-39.7l-0.5,0.3c0.2-42.6,0.4-85.2,0.6-127.8c2.1-12-1.1-24.5,1.8-36.4l0.1,0c0.8-1.3,1.8-1.7,3-1.2
	c2.3,1.8,2.7,4.8,2.6,8.2c-1.3,13.7-0.7,27.5-0.4,41.3c0.7,7.2-1.1,14.5,0.8,21.6c0.9,3.5,2.3,6.6,4.2,9.1c0.1,4,0.2,8.1,0.3,12.1
	c-0.1,3-0.1,6-0.2,9C675.1,413.5,675.1,443,673.6,472.5z"/>
<path class="st15" d="M669.3,182.1c5.1,1.8,7,8.8,10.2,13.6c7.9,8,4.2,18,1.6,26.9c-3.5,11.7-12.5,20-19.7,18
	c-6.2-1.7-13.4-2.9-14.6-15.4c-1.1-10.8,3-18.7,12.3-23.6c2.8,2.6,6.5,3.5,8.1,8.5c-3.2,1.9-8-2-9.7,4.7c-0.8,3.1,1.8,6.3,3.6,6.2
	c4.6-0.2,10.1,0.1,12.1-8c2.3-9.7,0.8-18.6-4-26.3C668.4,185.1,668.5,183.5,669.3,182.1z"/>
<path class="st16" d="M578.1,110.5c1.4,3.8,4,2.4,6.2,2.9c-13.9,9.2-25.9,5.5-36.6-10.4C538.8,90,530.8,76.5,524,61.2
	c-8.4-19.2-14.7-21.9-28.5-15c3.2-11.8,7.7-13.8,19.1-8.7c6.2,6.3,11.2,14.1,14.5,24.1c4.7,2.2,6,9.2,8.9,13.9
	c9.8,15.8,19.8,30.7,35.7,31.4C575.5,107,576.9,108.5,578.1,110.5z"/>
<path class="st17" d="M514.7,37.4c-6.6,1.7-14.5-2.3-19.1,8.7c-0.8,1.4-1.6,2.9-2.3,4.3c0,2-0.1,4,0,6c0.2,5,0.3,10.8,5,10.7
	c6.1-0.1,1-8.2,3.7-11.8c5.6,5.8,5.4,14.2,2,20.2c-3.7,6.4-9.5,7.4-14.6,0.9c-4.7-6-7.8-13.8-6.1-22.5c2-10.2,6-19.7,13.7-22.6
	C503.2,28.8,509.8,28.6,514.7,37.4z"/>
<path class="st16" d="M594.8,609.7c-1.2-3.6-2.7-1.3-4.2-0.4c3.6-13.7,10.9-20.1,20.1-24.9c14.5-7.5,29.6-8.2,44.5-11.3
	c5-1.1,9.2-3.1,12.2-9.3c2-0.6,2.6,1.1,2.8,3.5c-0.3,5-4.1,6.1-5.2,10.1c-5.1,9.4-12.2,1.4-18,4.4
	C628.1,584.5,610.9,594.8,594.8,609.7z"/>
<path class="st8" d="M659.1,201.6c-0.2,0.4-0.2,1.2-0.5,1.3c-7,4.2-11.2,11.1-10,22.8c0.9,8.8,6,10.3,10.6,11.4
	c7.6,1.8,14.4-0.6,18.3-11.4c3.5-9.5,5.7-19.4,1.9-29.9c0.9-1.4,1.9-2.9,2.8-4.3c5.7,15.6,4.6,29.1-4.3,41.9
	c-7.3,10.5-15.3,12.7-24.3,7.4c-7.5-4.4-10.6-14-8.4-24.5C647,207.8,650,197.4,659.1,201.6z"/>
<path class="st18" d="M503.4,728.4c-0.7,2-1.5,4-2.2,5.9c-10.3-0.4-17.3-7.4-20.9-21.9c-3-12.3-2.8-23.4,3.7-33.6
	c9.3-14.4,19.3-12.2,25.8,6c0.9,3.6,1.7,7.3-1,10.1c-3.4-0.3-3.9-5-5.5-8c-5.2-9.6-10.9-9.1-15.3,1.5c-4.5,11-1.6,24.6,6.7,32.4
	C497.5,723.7,501.5,723.4,503.4,728.4z"/>
<path class="st19" d="M673.4,362.9c-4.6,0.8-6.7-2-6.2-8.8c1.6-22.2-1.6-44.6,0.9-66.8c0.3-2.6-0.7-4.9-3-3.5l-0.9,0.3l-0.9-0.2
	c1.6-4.9-1.6-14.8,4.7-14.1c5,0.6,5.4,9.1,5.4,15.8C673.3,311.4,673.4,337.1,673.4,362.9z"/>
<path class="st20" d="M299.5,713.4c34.5-0.2,68.9-0.3,103.4-0.5c3.8,0,7.6,0,11.4,0.1c-5.2,6.1-11.2,2.3-16.7,2.4
	c-30.5,0.4-60.9,0.1-91.4,0C304,715.3,301.4,716.9,299.5,713.4z"/>
<path class="st21" d="M437,695.1c-3,3.9-6.6,2.3-9.9,2.3c-23.8,0-47.6-0.2-71.4-0.3c5-5.3,10.7-2.2,16.1-2.2
	C393.5,694.7,415.3,695,437,695.1z"/>
<path class="st2" d="M325,697.2c1.4,0.1,2.7,0.2,4.1,0.3c0.7,4.2-0.7,6.3-3.2,7.5c-4.7,0-9.3,0.7-14-0.5c-9.3-2-18.5-0.4-27.8,0.3
	c-4.1,0.3-8.3,0.9-12.1-2.2c-1.2-1.1-1.5-2.7-1-4.6c10.3-0.2,20.7-0.5,31-0.7C309.7,695.3,317.3,695.3,325,697.2z"/>
<path class="st22" d="M82.1,724.3c-5.3,4.4,2.1,8.2,0.3,12.7c-0.9,2.2,0.6,6.4-2.8,6.3c-2.2-0.1-3.7-0.6-4.2-4.7
	c-1.2-9.5-2.1-18.9,1.1-28.7c3.2,2.3,0.1,11.7,5.4,11.3C82,722.2,82.1,723.2,82.1,724.3z"/>
<path class="st23" d="M635.9,86.2c-1.5,0.1-3,0.3-3.8,2.6c-5.3-8.6-10.7-11.2-16.1-0.2c-1,0.1-2,0.5-3,0.4c-1.7-0.2-1.1-1.5-1.4-3.5
	c-0.8-7.7,2.3-8.3,5.9-8.7C624.5,76.3,633,69.9,635.9,86.2z"/>
<path class="st24" d="M271,697.9c0,0.8,0,1.6,0,2.5c-1.1,3.3-2.9,5.1-5.3,5.8c-3.8-0.2-8,2.4-11.1-3.2c-4.8-6.7-11.8,1.9-16.6-5.2
	C249,695.4,260,698.2,271,697.9z"/>
<path class="st25" d="M507.9,694.2c2.2-2.4,1.5-6.1,1.9-9.3c3.3,16.5,1.4,19.7-12.6,21.8c0-4.4,1.5-7.3,4-9.3
	C503.5,696.4,505.4,693.9,507.9,694.2z"/>
<path class="st26" d="M326.8,703.1c0.7-1.9,1.5-3.7,2.2-5.6c2.1-2.7,4.2-4.1,6.4-0.1c-0.6,0.2-1.4,0.3-1.9,0.8
	c-0.8,0.8-1.5,1.9,0.1,2.6c3.3,1.3,7.2-2.7,10,2.6C338.1,706.1,332.4,706.4,326.8,703.1z"/>
<path class="st27" d="M663.2,283.9c-0.5,12.1,1.5,24.5-1.8,36.4C661.7,308.2,659.5,295.7,663.2,283.9z"/>
<path class="st28" d="M669.6,567.1c-0.7-1.1-1.4-2.2-2.1-3.3c-0.2-6.5,7.6-11.6,1.6-19.2c-0.2-0.5-0.2-1,0-1.6c7-4.9,6.7,3.7,6.9,9
	C676.3,558.8,675.3,565.4,669.6,567.1z"/>
<path class="st29" d="M436.8,713.2c8.4,0.1,16.8,0.1,25.2,0.2C453.6,716,445.2,717.8,436.8,713.2z"/>
<path class="st21" d="M462.4,696.9c-7.9,1.3-15.8,2.4-23.5-1.8C446.8,694.8,454.7,693.9,462.4,696.9z"/>
<path class="st30" d="M325,697.2c-7.7,0-15.3,0-23,0C309.7,692.5,317.3,693.9,325,697.2z"/>
<path class="st10" d="M588.4,710.2c6.2-4.6,11.2-10.7,12.8-21.3c6.7,16.7,5.8,31.7-2.3,45.7c-3.4-2.4-1.9,2.1-2.2,3.6
	c-0.4,1.7-0.5,3.6-0.9,7.3c-4.5-7.6-3.8-13.3-0.9-19.6c5.3-11.6,5.2-11.6-4.5-12.6C589.7,713.3,589.1,711.3,588.4,710.2z"/>
<path class="st31" d="M673.6,472.5c0-29.5,0-59,0-88.5c3.7,6.6,1.9,14.6,1.8,21.7C674.9,428,677.6,450.5,673.6,472.5z"/>
<path class="st32" d="M661.3,447.8c3.5,13,1,26.5,1.8,39.7C659.2,474.6,661.9,461.1,661.3,447.8z"/>
<path class="st10" d="M658.5,447.5c0,11.5,0,22.5,0,33.5C656.9,469.9,655.6,458.8,658.5,447.5z"/>
<path class="st33" d="M132,86.3c0.8,1.1,1.6,2.1,2.4,3.2c-8.5,14.1-25,11-29.4-5.4c-1.3-4.6-1.3-8.9,1.1-12.6c2.2-3.2,4.3-2,6.2,0.8
	c1.4,2,3,2.8,4.4,0.4c1.6-2.6,1.1-5.6,0.1-8.4c-1.5-4.4-5.9-5.5-6.2-11.4c1.4-0.9,2.9-1.8,4.3-2.7c5.7,3.7,11.3,7.9,11.2,18.8
	c-0.1,9.7-3.8,15.4-11.4,17.9C121.6,91.6,126.8,88.1,132,86.3z"/>
<path class="st34" d="M325.1,42.7c-16,0.1-32.1,0.1-48.1,0.2C293,39.2,309.1,39.3,325.1,42.7z"/>
<path class="st35" d="M57.4,61.5c8.1,0.1,16,1.3,21.8,11.9c-7.3-2.9-14.6-5.8-21.9-8.7C57.3,63.6,57.3,62.6,57.4,61.5z"/>
<path class="st10" d="M482.5,31.3c3.9-2,5.7-10.4,11-8.3c-4.3,6.1-8.6,12.2-12.9,18.2C481.3,37.9,481.9,34.6,482.5,31.3z"/>
<path class="st10" d="M463.7,41.9c-6.8-0.6-13.6-1.3-20.4-1.9C450.2,36.7,457.2,33.6,463.7,41.9z"/>
<path class="st36" d="M110.7,53c3,3.1,7.1,3.5,9.5,8.3c3.3,6.8,3.4,13.5-1.6,18.1c-3.7,3.5-8.3,5.9-9-4.8c-0.1-1.7-0.7-3.3-1.6-2.1
	c-1.2,1.6-2.7,4.7-2.3,6.2c2,8.4,5.6,14.8,12.1,16.1c6,1.2,11.5-0.9,16.6-5.3c10.5-5.6,15.9-20.2,24.4-29.3
	c-8.6,21.5-18.8,41.3-35.7,49.1c-14.7,6.8-32.8-17.8-29.3-38C96.2,58.6,100.8,50.5,110.7,53z"/>
<path class="st37" d="M46.5,176.4c-3.8,2.4-7.7,0.6-11.5,0.6c10.3-8.4,22.3-8.1,33.1-13.7C81.3,156.6,88.6,140,86,123
	c-1.1-7.1-4-10.3-8.2-11.8c-2.3-0.9-3.9,1.5-5.2,4c-1.5,3.1-0.1,4.6,1.7,5.3c2.6,1,4.8,2.3,3.3,7.1c-1.3,4.3-3.9,5.3-6.9,5.1
	c-2.9-0.3-4.9-1.2-6.1-6.2c-2.4-10.8,0.9-24.3,7.6-28.4c6.4-3.9,18.7,3.2,20.9,13.2c5.5,25.5,1.7,45-16.3,55.2
	C67,171.9,56.8,174.3,46.5,176.4z"/>
<path class="st37" d="M188.8,54.8c1.7,4.5-4.9,9.9-0.1,12.5c4.6,2.5,6.3-4.6,7.4-9.8c2-9.8-0.5-16.2-7.3-19.7
	c-5.1-2.6-10,0.4-15.4-0.3c9.3-10.8,22.2-8.8,28.6,3.9c6.9,13.7,5,27.6-4.3,37.9c-3.4,3.8-5.8,3.4-9.1,0.5c-4.6-3.9-7.4-9.5-7-17.1
	C181.6,56.9,184.9,54.7,188.8,54.8z"/>
<path class="st38" d="M82.2,37.1c-6,6-1.9,13.8-1,21.7c-7.8-7.9-10.5-33.5-5.2-42.3c1.6-2.7,3.3-5.5,6.1-3.5c3,2.2,3.7,6.2,2.4,10.3
	c-1.4,4.6-2.6,9.2-2.5,14.3C81.9,37.5,82.2,37.1,82.2,37.1z"/>
<path class="st37" d="M63.4,57.5c-8.7,2.2-13.9-5-19.9-8.7c-2.2-1.4-5.5-4.2-3-8.9c1.7-3.2,4.7-3.9,7.3-0.9
	C52.8,44.7,57.7,50.7,63.4,57.5z"/>
<path class="st39" d="M57.4,82.7c-3.1-1.2-5.1,2-7.3,4.3c-2.3,2.4-4.8,5.2-6.9-0.1c-2-5.1-0.6-9.2,3.1-10.2c4.6-1.3,9-5.6,14.8-2.3
	c-0.7,3.4-5.7,3.5-4,8.6C57.2,83.1,57.4,82.7,57.4,82.7z"/>
<path class="st17" d="M578.1,110.5c-20.4,5.7-31-15-42-34.1c-2.6-4.5-4.6-9.9-6.9-14.8c7.6,0.7,8.9,12.4,14.3,17.5
	c5.1,4.9,9.7,10.8,15.3,14.9c9.2,6.6,16.9,2,24-5.9c3.6-4,4-10.2,1.9-16.5c-1.2-3.4-3.1-3.8-5.2-3.5c-2.7,0.4-2,3.4-1.4,5.6
	c0.8,3.4,0.8,6-2.1,6.5c-3.1,0.6-5.6-1.1-6.3-5.8c-0.9-6.2-1-12.7,3.7-15.6c6.1-3.8,12.6-7.1,18,2.2c8.1,14,6.3,30.4-4.5,41.6
	C584,105.5,581,107.8,578.1,110.5z"/>
<path class="st17" d="M640.2,174c-14.1,2.1-26.3-6.4-38.1-15.5c-7.6-5.9-12.5-26.5-9.4-38.9c3.2-12.7,8.6-22,19.5-22.4
	c5.9-0.2,9.1,3.1,11.8,9.3c2.9,6.5,2.3,13.5,0.5,20.3c-1.1,4.2-3.7,5.6-6.8,5.4c-2.7-0.2-4.8-1.8-5.9-5.1c-2-5.7,1.5-5.3,3.6-6.3
	c1.6-0.8,2-2.5,1.6-4.7c-0.5-2.4-2-2.2-3.4-2.5c-7.3-1.8-12.8,7.4-11.1,18.9c2.2,15.6,8.4,26.5,18.8,31.4c6.2,3,12.6,5,19,7.5
	c0.8,0.6,1,1.2,0.8,1.7C640.7,173.7,640.5,174,640.2,174z"/>
<path class="st22" d="M606.6,34c1.2-4.1-0.3-7.3-1.3-11.1c-0.8-3-2-8.3,2.2-9.7c3.5-1.2,5.6,0.1,6.4,6.3c1.7,13.1,0,25.1-3.2,37.9
	c-4.5-6.3,3.2-13.9-1.7-19.2C608.3,36.6,606.9,35.9,606.6,34z"/>
<path class="st40" d="M644.5,37.3c2.7-0.4,3.8,0.3,4.4,2.5c1.1,3.9,0.2,7.5-2,9.1c-5,3.7-10.1,7.2-15.4,9.7c-3.1,1.4-4.9-1.8-2.8-6
	C632.7,44,639.4,41,644.5,37.3z"/>
<path class="st41" d="M635.9,86.2c-4.9-8.2-10.9-11.8-18.4-9.5c7-6.3,14.3-2.9,21.5-1.7c3.4,0.6,6.9,1.9,7.7,8.1
	c0.4,3.3,0,6.1-2.1,7.8C640.6,94.2,638.7,88.3,635.9,86.2z"/>
<path class="st10" d="M606.6,34c0.8,1.4,1.6,2.8,2.4,4.2c-3.6,8.9-2.7,20.9-9.2,28.2c-1.9-4.1-4-8.7-6.1-13.3
	c9.5,1.2,11.4-7.4,11.3-18.7C605.5,33.9,606,33.7,606.6,34z"/>
<path class="st42" d="M640.2,174c0.1-0.9,0.1-1.8,0-2.6c10.5-0.7,19.9,4.5,29.2,10.7c-0.1,1.5-0.1,3.1-0.2,4.6
	C660.7,176.6,649.6,179.3,640.2,174z"/>
<path class="st17" d="M69.9,660.8c-6.2-7.4-7.9-17.1-6.6-28.3c0.9-7.5,4.3-10.3,9-8.7c4.3,1.4,8.5,3.9,6.1,12.7
	c-0.2,0.9-2.7,0.7-0.8,2.5c1.5,1.4,3.6,1.3,4.7-0.8c5.2-10.1,2.8-19.9-1.5-28.9c-1.7-3.5-4.7-5.7-7.2-8.4
	c-5.2-9.9-13.9-7.9-20.5-13.2c-0.1-5.8,2.4-3.9,4.5-3.3c8.9,1.8,17.4,6.4,25.5,11.7C93.6,603,98,622,94.3,641.8
	C91.4,657.6,85,662.6,69.9,660.8z"/>
<path class="st43" d="M119.4,645c13.6,2.3,22.3,15.9,30.6,29.8c5.3,8.9,10.6,18,14.1,29c-9.1-6.6-13.2-21-21.2-29.5
	c-8.3-8.8-16.6-16.3-27.4-12.4c-9.8,3.5-14.1,14.9-10.5,25.6c0.9,2.8,1.7,3.8,3.6,3.8c1.6,0,2.4-1.2,2.5-3.6c0.1-4.2-1.5-10,3.5-10
	c2.9,0,5,2.4,5.5,7.4c0.6,6.2-0.1,11.5-4.2,13.9c-5.8,3.5-12.4,6.5-17.1-1.6c-5.2-9-8.8-19.7-3-31.5
	C101.5,653.8,109.6,647.2,119.4,645z"/>
<path class="st17" d="M194.2,708l0-1.3c-0.5-3.2,1-5.7,1.5-8.4c0.7-4-1.6-6.5-4-7.3c-2-0.7-4.2-0.2-4.1,4.3c0,1.9,2.1,5-1,5.3
	c-1.9,0.1-3.2-2.3-3.4-4.9c-0.3-5.5-0.8-11.9,3-15c3.6-2.9,7.2-7.5,12.2-1.8c5.5,6.5,9.5,14.5,8,24.2c-1.7,11-6.4,20.7-14.4,23.8
	c-7.2,2.7-14.3,1.6-18.6-9.6c3.4,1.8,6.7,3.5,10.3,1.2C186.8,714.2,193.3,717.2,194.2,708z"/>
<path class="st5" d="M17.4,573.3c-9.3-13.2-10.7-31.5-3.2-44c5.5-9.2,12.4-8.7,19.7-5.5c6.3,2.8,4.4,9.8,4.8,16
	c0.5,6.3-1.1,10.9-4.9,13.5c-4.4,2.9-6.9-1.5-9.5-5.3c0.4-3.7,1.8-2.2,2.9-1.7c2.7,1.3,5.3,0.2,5.6-3.7c0.3-3.9-2.3-5.7-5-6
	c-5.2-0.6-9.2,2.4-12.5,8.3c-2.9,5.2-1.7,9.7,0.3,14.9c1.3,3.5,2,7.5,4.1,10.2C20.3,573.1,19.4,574.1,17.4,573.3z"/>
<path class="st44" d="M17.4,573.3c0.8-1.1,1.6-2.3,2.4-3.4c7,8.3,15.3,10.3,23.9,11.3c4.7,0.5,9.7-1,14,3.1c-1.5,1.1-3,2.2-4.5,3.3
	C40.8,585.6,27.9,586,17.4,573.3z"/>
<path class="st45" d="M38.4,573.1c7,1.6,14.3-3.3,21.1,2.4C52.5,574.4,45.2,578.6,38.4,573.1z"/>
<path class="st46" d="M407.8,51.7c-21.5,0.1-43,0.2-64.5,0.3c0-0.7,0-1.4,0.1-2.1c18.9-6.7,38.2-0.7,57.3-3.6
	c4.4-0.7,8.9,0.2,13.3,0.4C414.3,54.8,409.4,48.8,407.8,51.7z"/>
<path class="st47" d="M242.1,52.2c-0.7-1.8-1.3-3.6-2-5.4c6.8-0.1,13.6-0.1,20.4-0.2c9.8,2.2,19.5,2.2,29.3,0c4.8,0,9.6,0,14.4,0
	c0,1.7-0.1,3.4-0.1,5.1C283.4,53.6,262.7,53,242.1,52.2z"/>
<path class="st48" d="M414.4,59.2c-11.7,5.1-23.6,1.8-35.4,2c-16,0.3-32.1-0.1-48.1-0.2c15.3-5.8,30.9-1.5,46.3-2.3
	C389.6,58,402,59,414.4,59.2z"/>
<path class="st49" d="M407.8,51.7c2.1-1.7,4.1-3.3,6.2-5c12.8-0.2,25.6-1.5,38.3,1.8C437.6,52.9,422.7,53.7,407.8,51.7z"/>
<path class="st46" d="M298.1,61.3c-15.3-1.2-30.8,2.9-46-2.2C267.4,59.5,282.9,55.6,298.1,61.3z"/>
<path class="st50" d="M343.4,49.9c-0.1,0.7-0.1,1.4-0.1,2.1c-7.3,1.2-14.6,2.1-24.1-0.6C328.7,47.1,335.9,42.7,343.4,49.9z"/>
<path class="st48" d="M329.3,60.9c-9.8,0.1-19.7,0.2-29.5,0.4C309.7,56.6,319.5,57.8,329.3,60.9z"/>
<path class="st51" d="M289.7,46.7c-9.8,4.2-19.5,4.2-29.3,0C270.2,46.7,280,46.7,289.7,46.7z"/>
<path class="st52" d="M385,703.8c3.2-4,7.3-3.2,10.9-3.2c17.4-0.2,34.7,0.2,52.1,0.3c1.8,0,3.4,0.3,4.7,4.3
	c-22.8,2.3-45.3,2.7-67.8,1c-0.6-0.6-0.8-1.1-0.5-1.6C384.6,704,384.8,703.8,385,703.8z"/>
<path class="st53" d="M326.8,703.1c5.6,0.1,11.3,0.1,16.9,0.2l-0.2,0.4c0.7,0.7,1,1.3,0.7,1.9c-0.3,0.6-0.5,0.8-0.8,0.8
	c-17.2,0.2-34.5,0.4-51.7,0.6c-16.6,1.8-33.3,2.1-49.9-0.2l0.1-0.3c3.6-5.7,8.4-2.3,12.6-3.5c4-0.1,8-0.2,12-0.3
	c15.3-1,30.7-1.5,46,0.3C317.4,703,322.1,703.1,326.8,703.1z"/>
<path class="st21" d="M241.8,706.8c16.6,0.1,33.3,0.1,49.9,0.2C275.1,711.6,258.5,711.3,241.8,706.8z"/>
<path class="st54" d="M343.5,706.3c0.2-0.9,0.2-1.8,0.1-2.7c13.8-2.2,27.6-1.3,41.4,0.2c-0.1,0.8-0.1,1.5-0.1,2.3
	C371.1,706.2,357.3,706.3,343.5,706.3z"/>
<path class="st55" d="M279.5,715c-14,0.6-27.9,1.9-41.8-2.2C251.6,712.7,265.6,711.2,279.5,715z"/>
<path class="st56" d="M22.3,283.4c0.1-3.1,0.6-5.9,2.7-8.7c2.5,10.3,0.1,20.7,1.5,30.6c-0.1,31.4-0.2,62.8-0.3,94.2
	c-0.8,1.3-1.5,1.3-2.2-0.2c-0.2-22.2-0.4-44.5-0.6-66.7c-0.6-11.3-0.9-22.6,0.2-33.8C18.8,294.5,26.5,287.8,22.3,283.4z"/>
<path class="st12" d="M18.2,369.2c0.2-28.6,0.4-57.1,0.6-85.7c0.6,0.3,1.2,0.5,1.9,0.8c-0.3,23-0.6,45.9-0.9,68.9
	C19.7,358.6,20.4,364.2,18.2,369.2z"/>
<path class="st57" d="M24.1,399.3c0.7,0.1,1.4,0.1,2.2,0.2c2.7,12.2,2.1,24.6,1.4,40.2C20.1,425.3,29.4,410.9,24.1,399.3z"/>
<path class="st57" d="M25.2,441.5c5.2,11.5,0.2,21.7,2.8,31.3c-0.9,0.2-1.9,0.3-2.8,0.5C25.2,463.6,25.2,453.8,25.2,441.5z"/>
<path class="st12" d="M18.3,417.8c0-14.3,0-28.7-0.1-43C21.2,389.1,20.6,403.5,18.3,417.8z"/>
<path class="st58" d="M30.6,371.3c2.7,14.3,1.5,28.9,1.3,43.4C29.1,400.4,30.3,385.8,30.6,371.3z"/>
<path class="st58" d="M31.9,420.5c0,13.3,0,26.6,0,39.8C29.5,447.1,29.6,433.8,31.9,420.5z"/>
<path class="st12" d="M23.7,298.8c-0.1,11.3-0.1,22.6-0.2,33.8C21,321.3,21.5,310.1,23.7,298.8z"/>
<path class="st15" d="M50.8,682.9c-1.9-1.1-4.1-1.6-5.7-3.3c-2.4-2.4-3.9-6.2-1.9-10.3c2.4-4.9,5.5-3.8,8-0.3
	c3,4.3,5.1,10.1,10,10.4C58.9,687.5,54.5,682.8,50.8,682.9z"/>
<path class="st55" d="M50.8,682.9c3.4-1.9,7.7,2.6,10.4-3.5c5.4,1,10.5-1.9,15.8-2.2C69.3,689,60.1,686.5,50.8,682.9z"/>
<path class="st59" d="M44.8,697.5c1.8-4.3,5.5-3,7.9-5.7c5.7-0.2,11.4-0.4,17.1-0.6c-4.8,2.9-9.6,5.8-14.4,8.7
	c-1.4,4.7-3.4,6.9-6.6,3.1C52.4,693.5,45.9,699.7,44.8,697.5z"/>
<path class="st5" d="M48.7,703c2.7,1.2,4.3-2.5,6.6-3.1c3.8,0.3,8.6-0.3,3.3,8.1c-2.6,4.1-5.7,6.9-9.3,8.9c-3.1,1.7-6.6,6-8.8,0.1
	c-2-5.4,1.6-8.9,4.4-11.7C46.1,704.2,47.5,703.7,48.7,703z"/>
<path class="st60" d="M194.2,708c0.4,12-5.3,10.9-10.6,10.4c-0.7-1.1-1.5-2.2-2.2-3.3C185.2,710.7,191.3,715.7,194.2,708z"/>
<path class="st22" d="M594.8,609.7c3.8-13.9,13.1-17,21.2-21.3c9.9-5.3,20.4-8.6,31.2-6.6c-7.3,3.3-14.5,6.7-21.8,10
	c-14,6.3-22.2,19.9-22.5,36.6c-0.2,8,1.9,13.6,6.7,17.2c2.9,2.1,5.5,1.2,7.1-2.9c2.2-5.9-1.3-5-3.4-5.7c-2.4-0.7-2.5-3.3-1.7-5.6
	c1.4-3.7,3.4-6.2,6.7-5.4c5.4,1.3,8.2,6.7,7.3,13.8c-1,7.9-1.6,17.3-9.5,18.5C596.6,661.3,588.2,642,594.8,609.7z"/>
<path class="st43" d="M534.2,688c5.7-17,15.8-27.7,26.1-37.7c8.2-7.9,20-3.7,29,8.9c6.3,8.7,7.3,21.4,3.4,34.6
	c-2.4,8.2-7.4,9.3-11.9,9.3c-5.3,0.1-10.3-4.3-12.2-11.8c-1.6-6.2,0.7-12.3,5.5-13.7c5.2-1.5,3.9,3.1,3.4,8.3
	c-0.4,4.4,2.1,6,4.8,2.5c2.1-2.7,4-5,3.1-10.1c-1.1-6.7-2.4-12.6-7.4-15c-10.1-4.8-19.7-4.2-28,6.5c-5.4,6.9-10.4,14.4-15.6,21.6
	c-0.6-0.7-0.9-1.4-0.8-2.3C533.8,688.4,534,688,534.2,688z"/>
<path class="st10" d="M507.9,694.2c-1.5,4.5-2.7,9.9-6.7,3.2c1-3.1,1-6.2-1.7-6.7c-2.5-0.4-4.4,1.5-5.7,5.1
	c-4.1,11.5,0.9,23.9,10.7,25.7c2.9,0.5,5.8,0.1,9.5,0.1c-3.2,6.5-6.9,6.6-10.6,6.8c-16-1.2-25.5-20.4-19.4-39.4
	c2.6-8.2,6.6-15.5,12.8-14.8C504.2,675,507.2,683.9,507.9,694.2z"/>
<path class="st61" d="M669.6,567.1c2.7-8.2,9-16.5-0.5-24.1c-0.7-1.1-1.3-2.1-2-3.2c-3.1-5-7.2-4.7-9.4-0.1c-2.7,5.6,1.5,7.8,7,8.9
	c-8.7,5.9-12.9,1.2-14.3-6.4c-1.2-6.7-1.9-14.8,5.2-18.5c7.5-3.9,14.2-4.3,19.5,5.3c6.6,11.8,7.1,26.4,1.8,36.5
	c-3,5.8-7.3,9.1-11.7,12C664.5,572,669.3,571.7,669.6,567.1z"/>
<path class="st62" d="M613.2,703.8c-0.1,10.9,1.7,21.7,0.5,32.9c-0.6,5.6-2,9-5.3,8.5c-3.5-0.6-4.8-5.2-3.5-10.2
	c1.3-5.4,3-10.6,4.5-15.9C612.3,714.8,606.8,706.1,613.2,703.8z"/>
<path class="st39" d="M626.2,700.8c8.8-1.5,14.1,4.6,20,8c2.5,1.5,4.1,5.1,3,8.3c-1.4,4.1-5,3.7-7.2,1.6
	C637.1,713.9,632.5,708.1,626.2,700.8z"/>
<path class="st61" d="M636.2,673.2c3.4-0.5,5.9-11.4,9.8-2.7c3.2,7-1,9.3-4.8,10.9c-1,0.4-1.9,1-2.9,1.5c-2.9,1-5.8,2.3-8.5-1.2
	C630.1,675.6,634.2,676.1,636.2,673.2z"/>
<path class="st63" d="M636.2,673.2c-1.9,2.5-3.7,5-5.9,7.9c2.4,4.1,5.5,0.8,8.1,1.7c-5.1,5.4-10.5,3.1-15.7,1.2
	c-1.2-0.4-4.1-0.5-3.4-3.8c0.3-1.6,2.8-2.3,4.3-3.4c2.9-1.2,5.9-2.4,8.8-3.7C633.6,673.2,634.9,673.2,636.2,673.2z"/>
<path class="st64" d="M629.1,693c-7.7,3.2-13.1-0.2-17.8-8C617,687.5,622.6,690,629.1,693z"/>
<path class="st51" d="M613.2,703.8c-4.4,3.4,0.2,11.6-3.8,15.2c-0.3-5-0.4-10-0.9-14.9c-0.3-2.5-1.1-5.5,1.1-6.1
	C612,697.4,612.8,700.7,613.2,703.8z"/>
<path class="st65" d="M534.2,688c0.1,1.2,0.2,2.4,0.3,3.5c-0.9,6.7-4.5,10.3-8.3,16.7C526.8,697.8,530.7,693.1,534.2,688z"/>
<path class="st66" d="M665.1,283.8c-0.3-3-0.8-6.2,1.4-8.1c1.5-1.3,2.8,0.2,2.7,2.5c-1,25.3,2.9,50.8-2,75.9
	c-1.2-6.1-3.3-12.1-0.4-18.3c-1-15.4-0.8-30.8-0.1-46.2C667,287.1,667.4,284.7,665.1,283.8z"/>
<path class="st37" d="M667.4,379.1c2.6,30.6,2.5,60.9,0,91.1C667.4,439.9,667.4,409.5,667.4,379.1z"/>
<path class="st28" d="M666.7,289.5c0,15.4,0.1,30.8,0.1,46.2C663.6,320.4,664.7,304.9,666.7,289.5z"/>
<path class="st67" d="M312.6,703c-15.3-0.1-30.7-0.2-46-0.3c1-2.7,2.9-1.8,4.4-2.4C284.8,702.8,298.9,696,312.6,703z"/>
</svg>
