<?xml version="1.0" encoding="utf-8"?>
<!-- Generator: Adobe Illustrator 27.1.0, SVG Export Plug-In . SVG Version: 6.00 Build 0)  -->
<svg version="1.1" id="Capa_1" xmlns="http://www.w3.org/2000/svg" xmlns:xlink="http://www.w3.org/1999/xlink" x="0px" y="0px"
	 viewBox="0 0 348.4 418.7" style="enable-background:new 0 0 348.4 418.7;" xml:space="preserve">
<style type="text/css">
	.st0{fill:#FEFEFE;}
	.st1{fill:#192C30;}
	.st2{fill:#5E6062;}
	.st3{fill:#7A8E91;}
	.st4{fill:#5D5D5F;}
	.st5{fill:#FFFFFF;}
	.st6{fill:#192E31;}
	.st7{fill:#FEFFFF;}
	.st8{fill:#182D2F;}
	.st9{fill:#1A2F31;}
	.st10{fill:#192E30;}
	.st11{fill:#192F32;}
	.st12{fill:#192F31;}
	.st13{fill:#182E32;}
	.st14{fill:#1C3033;}
	.st15{fill:#3B4545;}
	.st16{fill:#5A5A5A;}
	.st17{fill:#6B6A6B;}
	.st18{fill:#223434;}
	.st19{fill:#3F4647;}
	.st20{fill:#595858;}
	.st21{fill:#43514F;}
	.st22{fill:#AEB1B0;}
	.st23{fill:#545555;}
	.st24{fill:#6E6E6E;}
	.st25{fill:#5C5C5C;}
	.st26{fill:#616161;}
	.st27{fill:#5A6563;}
	.st28{fill:#4A5553;}
	.st29{fill:#5E5D5E;}
	.st30{fill:#2E3C3B;}
	.st31{fill:#424A48;}
	.st32{fill:#7A7A7A;}
	.st33{fill:#343E3E;}
	.st34{fill:#4C4F4F;}
	.st35{fill:#454C4B;}
	.st36{fill:#33413F;}
	.st37{fill:#1E2F30;}
	.st38{fill:#4E5453;}
	.st39{fill:#5E5E5E;}
	.st40{fill:#838383;}
	.st41{fill:#1D2828;}
	.st42{fill:#5D5D5D;}
	.st43{fill:#8E8E8E;}
	.st44{fill:#475050;}
	.st45{fill:#4A5453;}
	.st46{fill:#6D6D6D;}
	.st47{fill:#6F7777;}
	.st48{fill:#444E4C;}
	.st49{fill:#696969;}
	.st50{fill:#676767;}
	.st51{fill:#C2C9CA;}
	.st52{fill:#4A5757;}
	.st53{fill:#344142;}
	.st54{fill:#99A7A5;}
	.st55{fill:#BABDC0;}
	.st56{fill:#748385;}
	.st57{fill:#CBD1D0;}
	.st58{fill:#6F7576;}
	.st59{fill:#313939;}
	.st60{fill:#50585A;}
	.st61{fill:#4A5253;}
	.st62{fill:#565C5D;}
	.st63{fill:#4C5655;}
	.st64{fill:#9FA0A3;}
	.st65{fill:#7E8C8B;}
	.st66{fill:#3B4241;}
	.st67{fill:#575F60;}
	.st68{fill:#90A1A1;}
	.st69{fill:#C8D0CF;}
	.st70{fill:#4F5657;}
	.st71{fill:#575B5B;}
	.st72{fill:#454A49;}
	.st73{fill:#0F1F1F;}
	.st74{fill:#7A8788;}
	.st75{fill:#424B4A;}
	.st76{fill:#121E1F;}
	.st77{fill:#596264;}
	.st78{fill:#313A39;}
	.st79{fill:#869597;}
	.st80{fill:#464D4C;}
	.st81{fill:#586364;}
	.st82{fill:#3B4644;}
	.st83{fill:#BBC1C1;}
	.st84{fill:#B2BEBF;}
	.st85{fill:#424B49;}
	.st86{fill:#8F9E9C;}
	.st87{fill:#747C7F;}
	.st88{fill:#2A3434;}
	.st89{fill:#737F81;}
	.st90{fill:#5B5F5E;}
	.st91{fill:#586160;}
	.st92{fill:#717C7F;}
	.st93{fill:#243433;}
	.st94{fill:#646E6D;}
	.st95{fill:#343D3C;}
	.st96{fill:#A4ADAF;}
	.st97{fill:#687375;}
	.st98{fill:#BFC7C9;}
	.st99{fill:#363D40;}
	.st100{fill:#717E80;}
	.st101{fill:#838E8C;}
	.st102{fill:#868686;}
	.st103{fill:#595859;}
	.st104{fill:#BBBDBD;}
	.st105{fill:#AAB1B0;}
	.st106{fill:#484B4D;}
	.st107{fill:#71797C;}
	.st108{fill:#768183;}
	.st109{fill:#778083;}
	.st110{fill:#889493;}
	.st111{fill:#7D8686;}
	.st112{fill:#7C8A89;}
	.st113{fill:#818689;}
	.st114{fill:#DDDDDF;}
	.st115{fill:#1D2E31;}
	.st116{fill:#666665;}
	.st117{fill:#737373;}
	.st118{fill:#7C888A;}
	.st119{fill:#636D6F;}
	.st120{fill:#9FAAAD;}
</style>
<path class="st0" d="M4.3,252.5c1.2-1.1,2.3-2.3,3.5-3.4c0.7-2.2,2.6-3.4,4.2-4.8C30,228,48.2,212,66,195.5c1.1-0.6,2.2-1.4,3.5-1.3
	c3.5-1.2,5.4-4.4,8.2-6.5c0.6-2.3-0.2-4.4-1.1-6.5c-1.3-3.4-2.1-6.9-0.5-10.5c-3.2-16.9,0.7-32.6,7.7-47.8
	c4.1-11.7,8.5-23.3,14.1-34.4c6.4-12.7,16-23,25.3-33.5c3.5-3.9,7.4-7.3,11.5-10.4c12.7-5.8,23.7-14.6,36.3-20.7
	c7-3.4,14.2-5.4,22-5.7c24.3-0.9,47.3,3.3,69.6,13.7c15.2,7.1,30.4,13.8,44,23.9c3.3,2.4,6.2,5.4,9.2,8.2c1.4,1.3,2.4,3.3,4.6,3.6
	c3-0.1,5,2,6.7,3.8c5.3,5.8,11.6,10.4,17.3,15.6c0.6,0.6,1.1,1.2,1.6,1.9c4.6,6.1,10.2,11.3,15,17.2c3.7,5.8,8.3,11.1,9.2,18.5
	c0.3,2.7,3.6,3.8,5,6.1c7.9,12.8,17.2,24.8,22.2,39.2c1.2,3.5,2.4,6.9,1.9,10.6c0.2,0.7,0.4,1.5,0.5,2.2c2.7,3.8,3.6,8.4,3.8,12.7
	c0.6,12.4,2.1,24.9-2.8,36.9c-0.3,0.6-0.2-0.2-0.1,0.5c1.3,17.5-10.2,29.1-19.2,41.7c-2.7,3.7-5.1,7.8-8.8,10.8
	c-4.3,4.3-9.5,7.6-13.1,12.6c-2.4,4.6-5.4,8.4-9.3,12c-6.1,5.7-11,12.7-17.6,17.9c-2.2,1.7-4.1,3.8-6.6,5.3
	c-3.2,1.6-6.4,3.2-8.5,6.3c-6.2,3.4-12.7,5.6-19.9,4.8c-1-0.1-2-0.5-2.9,0.1c-8.5,5.1-16.9,2.4-25.4,0c-1.4-0.8-2.9-0.6-4.3,0
	c-1.9,0.8-3.6,0.4-5.1-0.8c-0.5-0.1-0.9-0.1-1.4-0.2c-2.4,0.2-4.9,1.8-7.3-0.3l0.1,0c-4.7-0.7-9.7,0.7-14.1-2.2l0,0.3l0.1-0.3
	c-3.4,0.1-6.3-2.2-9.7-1.8c-4.7,0.5-9.2,1.4-12.5,5.2c-1.1,1.2-2.5,2.2-4.2,2.5c-1.5,0.5-2.5,1.6-3.6,2.6
	c-12.6,11.1-24.4,23-37.4,33.7c-1.6,1.3-2.2,3.3-3.4,4.9c-7.3,8-16,14.7-24,22c-2.8,2.6-6.8,2.2-10.3,2.9c-3.7,0.6-7.5,1.2-11.2,1.8
	c-7.1,0.9-13.5-0.9-19-5.5c-0.6-0.4-1.3-0.7-1.9-1.1c-1.6,0.1-3-0.3-3.6-2c-0.7-0.9-1.6-1.6-2.7-1.7c-3.5-0.4-6-2.4-8-5.1
	c-4.5-3.5-8.4-7.6-12.3-11.8c-5.6-6.5-10.7-13.3-17.5-18.7c-6.3-4.8-11.6-10.7-16.7-16.7c-0.4-0.5-0.7-1-0.8-1.6
	c-0.8-3-3.8-3.7-5.7-5.5c-2.3-3.2-5.2-5.9-7.8-8.8c-2.6-2.9-5.2-5.7-7.7-8.7c-2.4-4.5-5.3-8.5-8.2-12.7c-5-7.1-9-15.2-12.6-23.2
	c-1.1-2.3-1.7-5.1-0.2-7.7c-0.3-2.7-0.7-5.4-1.8-7.9c-0.9-1.1-0.8-2.2-0.4-3.5c-0.1-0.9-0.2-1.8-0.3-2.7c-1.5-1.8-0.7-3.7,0.5-4.9
	C-1.8,261.1,0,255.9,4.3,252.5z"/>
<path class="st1" d="M373.1,284c7-10.8,15.7-20.4,22.3-31.4c2.1-3.5,3.1-7.1,3.3-11.2c0.3-5.6,1.1-11.2,2.5-16.6
	c1.8-6.9,1.1-13.6,1.4-20.5c0.2-7.4-2.5-14.2-2.5-21.4c4.2-1.3,7,1.5,9.7,3.9c2.3,2,0.5,3.8-1.6,4.3c-3.7,0.9-2.3,2.6-0.8,4.1
	c2.1,2.1,4.4,4.2,7.9,3c2.1-0.7,3.9-0.6,5.3,1.3c1.1,1.5,1.3,3.2,0.3,4.7c-1.1,1.8-2.7,2.8-5,2.1c-2.8-0.8-5,0.9-6.5,2.6
	c-1.4,1.6,1,2.8,1.9,4.1c0.7,1.1,1,2.3,0.3,3.3c-3.3,4.5-5,9.7-6.9,14.8c-0.5,1.4-2.8,1.3-3,3.5c3.8-0.5,5.6,0.3,3.7,4.6
	c-0.8,1.8,0.5,4.5,0.7,6.8c0.4,4.5-0.9,5.1-5.1,5.3c-2.4,0.1-5.4,2.3-5.6,5.6c-0.3,4.4-4,8.4-1.2,13.3c0.8,1.4-1.5,4.3-3.3,5.1
	c-2.7,1.3-4.6,3.5-6.2,5.5c-2.5,3.2-5.6,4.1-9.2,5.1c-6.1,1.8-9.9,7.1-14,11.5c-1.8,1.8,1.3,2.3,2.7,2.8c1.3,0.5,3.4,0.6,2.9,2.7
	c-0.5,2-2.2,0.6-3.4,0.7c-0.7,0.1-1.8,0.1-1.9,0.3c-0.7,4.3-7.1,4.6-6.6,9.6c0.1,0.8-0.5,1.7-1.5,1.7c-1.1,0-1.2-1-1-1.8
	c0.4-1.4-0.1-2.5-1.3-2.8c-1.1-0.3-1.7,0.8-2.2,1.7c-0.5,0.9-1.9,1.6,0,2.7c2.4,1.4,1.2,2.9-0.4,3.8c-5.5,3.1-9.7,7.4-13.5,12.3
	c-2.7,3.4-6.6,5.4-10,8.1c-0.3,0.2-1,0.5-1.2,0.4c-1-0.8-1.1-3.4-3.2-1.7c-1.4,1.1-0.2,2.9-0.5,4.3c-0.5,2.7-3.5,3.5-4.7,5.6
	c-1.5,2.4-2.9,3.7-6,2.5c-2-0.8-3.6,0.6-4.8,2.5c-1.4,2.3-3.2,1.9-3.6-0.8c-0.3-1.9-1.2-3.5-2.3-4.9c-1.4-1.6-2.6-4.5-4.5,0.3
	c-1.2,3.1-4.6,5.4-7.3,7.8c-1.8,1.6-3.9,0.2-5.5-1c-1.4-1-3.2-2-2.7-4.3c0.2-0.8,1.9-1.9,0.2-2.2c-2-0.4-4.2-1.4-6.3-0.3
	c-1,0.6-1.7,2.3-1.1,3.1c3.7,4.7,0.6,7.1-2.8,9.6c-0.9-0.1-1.3-0.6-1.3-1.5c3.5-4.5,1.1-9.4,0.7-14.1c0-0.4,0.1-0.6,0.3-0.7
	c0.3-0.1,0.4-0.1,0.5,0c5,1,9.7,3.6,15.1,2.3c10.5-2.5,21.6-2.4,31.8-6.7c3.5-1.7,5.5-5.2,8.8-7c9.1-7.4,17.4-15.7,25.6-24
	c3.2-3.3,4.7-7.9,8.5-10.7C363.4,292.4,369,289,373.1,284z"/>
<path class="st1" d="M399.5,180.5c-3.5-8.7-5.2-18.3-10.8-26.1c-6-8.4-10.4-17.9-17.5-25.6c-0.5-0.6-0.9-1.4-1.1-2.2
	c-1.7-7-5.9-12.8-9.5-18.8c-4.3-6.9-10.1-12.4-15.8-18c-8.1-7.4-16.2-14.9-24.3-22.3c-1.2-1.9-3.8-4.3-1.8-6c2.1-1.9,5.8-0.6,7.8,1
	c3.5,2.8,6.6,6.1,8.4,10.3c0.1,0.3,0.5,0.7,0.5,0.8c-3.7,6.6,2.7,4.1,4.8,5.2c1.9,0.9,3.3,2.2,4.7,3.6c6.5,6.6,11.7,14.4,19.3,20.1
	c1.1,0.8,1.9,2.4,2.4,3.7c1.4,4.2,4.5,6.5,8.2,8c1.7,0.7,3,1.3,3.6,3.1c0.5,1.8,3,3.3,1.2,5.4c-1.7,2-3.2,0.1-4.7-0.8
	c-1.3-0.8-2.7-0.6-3.4,0.9c-0.9,2,0.6,2.7,2.1,3.1c9.8,2.8,13.5,12.4,20.3,18.5c0.5,0.4,0.7,1.9,0.4,2.3c-3.3,3.9-0.2,8-0.1,11.8
	c0.1,4.6,5.3,6.8,8.5,9.8c3.6,3.4,3.9,5.6-0.6,7.8C400,177.4,402,180.2,399.5,180.5z"/>
<path class="st1" d="M86.3,413.9c-2.1-2.8-5-4.4-8.1-5.7c1-0.5,2-1,3-1.5l0,0c1.5,1.2,2.1,3.7,4.5,3.4c1.1-0.1,1.4-1.3,1.7-2.3
	c0.2-0.6,0.3-1.8,0.2-1.8c-3.8-1.3-4.4-6.1-9-7.2c-4.2-1-8.4-3-12.8-4.1c-2-0.5-2.8-2.7-2.3-4c1.4-3.2-0.8-4.5-2.4-6.3
	c-8.2-9.1-16.3-18.3-24.6-27.3c-4.3-4.7-4.4-4.6,1.6-7.2c0.5-0.1,0.9-0.1,1.3,0.1c0.2,0.3,0.5,0.5,0.7,0.8
	c2.6,5.3,6.8,9.5,11.4,12.9c7.1,5.3,13.5,11.6,18.1,18.8c2.9,4.6,5.5,8.4,10.3,11.1c2.5,1.4,4.5,3.7,7.2,5c2.3,1.9,4.6,3.8,6.9,5.7
	c-1.6,0.9-3.1,1.8-4.1,3.6c-2,3.7-1.4,5.5,2.7,6c1.2,0.1,2.8-0.8,3.4,1c0.4,1.1-0.6,1.7-1.3,2.4c-1.2,1.3-2.4,1.2-4,0.4
	C88.9,416.8,87.7,415.3,86.3,413.9z"/>
<path class="st1" d="M132.6,412.9c11-2.8,17-12.5,25.5-18.8c2.7-2.1,5.1-4.7,7.6-7c6.7-7.2,14.3-13.3,21.5-19.9
	c8.1-7.3,15.9-15,24.6-21.7c0.4-0.3,0.9-0.5,1.2-0.9c7.1-8.9,15.6-7.7,24.6-3.7c-0.9,0.6-1.8,0.6-2.8,0.3c-5.8-1.9-11.1,0.4-15.6,3
	c-6.7,3.8-14.1,7.1-19.2,13.4c-1.4,1.6-3.2,2.8-3.7,5.1c-0.4,1.9-1.9,3.4-3.8,3.6c-4.1,0.5-6.4,3.5-8.6,6.2
	c-3.4,4.1-7,7.9-11.7,10.6c-0.4,0.2-1.1,0.5-1.2,0.8c-1.5,6.9-8.9,9.7-10.8,16.3c-0.3,1.2-1,1.6-2,1.7c-7.4,1.2-11,7.1-14.9,12.4
	c-0.8,1.1-2.4,1.9-2.5,1.7C139.5,410.9,134.9,414.7,132.6,412.9z"/>
<path class="st1" d="M39.5,350.1c-0.4,0-0.9-0.1-1.3-0.1c-1.2-1.3-2.2-2.9-4.5-1.4c-3,2.1-4.1,0-4-2.5c0.1-3.6-1.3-4.7-4.9-5.2
	c-3.2-0.5-5.4-3.6-7.9-5.7c-1.5-1.2-2.6-3-4-4.4c-1.5-1.5-1.5-3.1-0.8-5c2-4.9,0.5-8-5-8.5c-3.6-0.3-5.4-1.5-5.9-5.1
	c-0.2-1.4,0-2.5,0.7-3.8c1.7-2.9,0.1-7.4-3-8.2c-1-0.3-2.3,0.8-3.9,1.4c0.2-4.6-0.3-8.9-1.9-13.1c-1-2.5,0-4.6,3.3-4.5
	c3,14.8,11.9,26.5,19.9,38.7c0.8,1.1,1.3,2.2,1.7,3.5c2,3.6,5.3,6.1,7.8,9.3c2.9,2.8,5.1,6.3,8.4,8.7
	C35.9,346.1,37.7,348.1,39.5,350.1z"/>
<path class="st1" d="M84,122.9c-0.1,4.1-1.7,7.9-3,11.6c-4.2,11.8-5.8,23.8-4.8,36.2c-1.7-2.7-1.5-6.3-3.9-8.7
	c-0.5-0.5-1.2-2.1,0.8-1.7c2.2,0.4,1.8-1.3,1.3-2c-3.6-5.2-0.4-9.5,1.6-14.1c-3.2,0-5.3-1.8-3.1-4.8c3.6-4.7,5.5-10.4,9-15.2
	C82.6,123.4,83,122.8,84,122.9z"/>
<path class="st1" d="M102.3,409.2c6.2,2.4,12.2,5.2,19,5.5c-0.9,2.6-2.9,4.3-4.6,6.4c-1.6-1.4-0.2-2.5,0.1-3.6
	c0.6-2.5-1.1-2.3-2.6-2.4c-1.6-0.1-2.6,0.3-2.2,2.3c0.5,2.1,0.9,4.2,1.3,6.3c0.3,1.4,0.2,2.8-1.6,3c-1.6,0.2-2.8-0.8-2.6-2.3
	c0.5-4.1-3.9-6.6-3.2-10.8c0.2-0.8-0.1-1.5-1.5-1.1C99.7,414.1,101.1,411.6,102.3,409.2z"/>
<path class="st1" d="M4.3,252.5c-3.2,5.9-7.7,11.1-10.3,17.4c-2.6,0.5-5.4-0.1-7.8,2c1.9-2.5,2-4.9,1.7-7.8
	c-0.4-3.7,2.9-5.1,6.2-5.5c3-0.3,6.3,0.2,6.5-4.5C0.7,252.4,2.8,252.5,4.3,252.5z"/>
<path class="st1" d="M69.5,194.1c-0.7,0.5-1.4,1-2.1,1.5c-1.8,0.6-3,2.1-4.3,3.3c-17.2,15.4-34.3,30.9-51.5,46.3
	c-1.3,1.2-2.4,2.8-4.3,3.2c-0.7-2.2,1.5-2.6,2.5-3.5c15.6-14.2,31.3-28.2,46.9-42.3c2.1-1.9,4-4,6.2-5.7c1.7-1.4,1.2-2.8,0.7-5
	c4.5,2.5,7.3,0.9,8.8-3.3c0.3-0.8,0.5-1.7,1.5-1.6c0.4,0,1,0.3,1.2,0.7c0.5,1-0.4,1.4-1,2C72.6,191.2,71.1,192.7,69.5,194.1z"/>
<path class="st2" d="M270.6,34.5c-0.9,3.6,3.2,3.1,5.1,6.3c-10.3-3.3-19.8-1.4-29.2-1.9c2.1-4.4,6.1-2.6,9.4-2.9
	c0.1,0,0.2-0.2,0.2-0.3c0-0.2-0.1-0.3-0.2-0.5c-0.1-0.4,0-0.7,0.2-1C261,32.6,265.8,34.3,270.6,34.5z"/>
<path class="st3" d="M7.4,248.5c18.4-16.6,36.8-33.1,55.3-49.6c1.4-1.3,2.5-3.2,4.8-3.2c-19.9,17.8-39.8,35.7-59.7,53.5
	C7.6,249,7.5,248.7,7.4,248.5z"/>
<path class="st1" d="M63.1,171.4c-0.4-1.8-3.3-3.7-0.6-5.9c1.7-1.4,3.7-0.9,5.4,0.7c2.2,2.1,1.4,4.7,0.1,6.4
	C66.5,174.4,64.6,173,63.1,171.4z"/>
<path class="st1" d="M76.2,170.7c0.9,4.9,1.8,9.8,2.7,14.7c0.2,1.2,0,1.9-1.2,2.4c-0.9-2.3-1.1-4.7-3.7-6.3
	C72,180,73.9,172.5,76.2,170.7z"/>
<path class="st1" d="M237.6,340.9c4.7,0.7,9.4,1.5,14.1,2.2c-3.9,1.8-8.3-0.1-12.6,2.2C236.2,346.9,238.2,342.5,237.6,340.9z"/>
<path class="st4" d="M187,29.1c-0.2,0.2-0.4,0.4-0.6,0.6c-2.7,2.5-6,1.3-9,1.5c-2.4,0.4-4.7,1.1-7.9,0c4.5-2.9,9.2-2.2,13.3-3.5
	C184.5,27.3,185.9,27.8,187,29.1z"/>
<path class="st1" d="M269.3,343.5c-0.3,0.3-0.5,0.5-0.8,0.8c-1.3,0.3-2.3,1-2.9,2.3c-0.5,1.1-2,2-2.7,0.8c-0.8-1.3-3.7-1.3-2.7-3.8
	C263.2,343.5,266.3,343.5,269.3,343.5z"/>
<path class="st1" d="M73.4,183.8c-3.3,2.1-5.4,3.2-7.7,0.9c-0.5-0.6-1.4-1.7-0.7-2C67.6,181.4,69.9,182.8,73.4,183.8z"/>
<path class="st1" d="M251.6,343.1c2.4,0.2,4.9-0.6,7.3,0.3c-0.3,0.2-0.5,0.4-0.8,0.5c-1.8,0.6,0.8,4.3-3,3.8
	C251.9,347.3,252.8,344.5,251.6,343.1z"/>
<path class="st1" d="M81.2,406.7c-0.5-0.3-1.1-0.8-1.7-1c-2-0.4-4.5,0-4.4-3.3c0.1-0.9,1-1.1,1.4-0.6
	C78.2,403.3,83.2,401.8,81.2,406.7C81.2,406.7,81.2,406.7,81.2,406.7z"/>
<path class="st1" d="M-0.1,248c-2.3,2.9-4,2.8-6.1,0.2C-4.1,248.1-2.4,248-0.1,248z"/>
<path class="st1" d="M-5.7,272.6c0.6,1.1,0.7,2.3,0.4,3.5c-1.3,0-3.1,0-3.2-1.5C-8.6,273.5-7.2,272.6-5.7,272.6z"/>
<path class="st1" d="M96.8,406.1c1.5,0.2,2.6,1.1,3.6,2c-1.4,0.5-2.9,1.9-4.3,0.5C95.2,407.8,96.2,406.8,96.8,406.1z"/>
<path class="st1" d="M-7.9,256.2c-0.6,0.6-1.3,0.5-1.8,0c-0.6-0.6-1.2-1.3-0.4-2.1c0.4-0.3,1.3-0.3,1.8,0
	C-7.5,254.6-7.5,255.5-7.9,256.2z"/>
<path class="st5" d="M186.9,25c1.1-0.9,2.3-1.1,3.6-0.5c3.1,0.7,5.4,2.9,8.5,3.7c1.5,0.4,1.8,2.1,2.2,3.6c0.4,1.5,0.1,3.4,2.2,4
	c2.7,1.9,5.3,1.4,7.8-0.3c2.2-0.4,3.5,1,4.8,2.3c3.1,3.2,5.7,6.9,9.2,9.6c0.8,0.6,1.6,2,2.3,1.7c5.1-1.7,9.7,1.9,14.7,1.4
	c0.4-0.3,0.8-0.6,1.2-0.8c2.9-1.5,5.5-3.4,7.6-5.9c0.2-0.4,0.3-0.9,0.3-1.3c0.2-0.2,0.5-0.4,0.7-0.7c1-4,3.2-4.8,5.7-1.6
	c2.8,3.6,6.2,1,9.2,1.7c0.5,0,1,0.1,1.5,0.2c4.1,1,7.6,2.6,10.6,5.9c3.4,3.8,7.8,6.6,11.7,9.9c0.5,0.2,0.9,0.5,1.3,0.8
	c4.1,3.2,6.8,7.2,6.4,12.7c-0.3,0.9-1.3,1.4-1.4,2.5c-0.5,0.9-1,1.8-1.6,2.7c0.1,2.2,1.9,3.4,3.2,5c4.9,5.3,10.6,10,14.4,16.3
	c1.4,2.2,3.5,2.3,5.7,1.2c1.5-0.7,2.6-2.1,3.8-3.1c5.6-4.8,14-4.1,18.7,1.5c1,1.2,2.5,1.5,3.8,2.2c3.4,1.8,6.5,4,8.3,7.5
	c-3.6,5.8-0.7,9,4.3,12.1c3.4,2.1,2.6,5.8,0.6,8.4c-2.7,3.4-1.3,5.3,1.5,7.2c1.7,1.1,3.1,2.6,3.6,4.6c0.7,3,1.7,5.3,5.5,5.8
	c3,0.4,2.3,3.4,1.1,5.2c-2,3.3-5.6,4.8-8.5,2.3c-4.9-4.2-7.3-1.4-9.9,2.2c-0.2,0.4-0.5,0.9-0.8,1.3c-2.9,3.9-6.8,4-11,3
	c-3.8-1-6.5-3.3-7.8-7.1c-2.6-5.7-9.4-11-13.9-10.7c-1.3,0.6-2.2,1.7-3.1,2.7c-2,1.9-4,3.9-6.3,5.5c-0.4,0.3-0.9,0.5-1.3,0.7
	c-3.2,1.1-5.2,0.1-5.4-3.4c-0.1-1.2-0.4-2.3-1-3.3c-0.5-1.1-1.3-2.2-2.6-1.9c-1.6,0.5-0.9,1.8-0.6,2.9c0.6,2.5-0.2,4.5-2.3,6.1
	c-2.3,1.7-3.4,0-5-1.3c-2-1.6-3.7,0.1-5.2,1.4c-3.8,3.2-7,7.1-11.7,9.1c-0.5,0.3-0.9,0.5-1.4,0.8c-3.5,1.7-6.4,4.4-8.7,7.3
	c-5.6,6.9-12.7,12.1-19,18.2c-2.7,2.1-4.5,5.4-8,6.7c-6.5,3.3-9.8,9.8-15.1,14.3c-2.1,2.5-4.4,4.8-7.1,6.6c-5,2.8-6.2,9.4-11.8,11.8
	c-2.2,0.9-4.1,2.2-6.4,0.8c-0.5-0.2-0.9-0.6-1.2-1.1c2.6-4.6,0.4-8.4-2-12.3c-1.2-1.9-2.3-3.2-4.6-3.1c-3.2,0.1-5.9-1.1-6.4-4.3
	c-0.5-3,1.4-5.7,3.5-7.8c3.7-3.5,7.8-6.4,12.4-8.7c0.4-0.2,1-0.9,1.2-0.7c4.1,2.9,8.8-0.3,12.9,1.5c1.3,0.6,2.5,1.2,3.7,0.2
	c3.9-3.1,8.5-5.6,11.4-9.5c4.1-5.6,8.9-9.9,15-13.3c4.2-2.3,7.8-6,10.6-9.7c2.9-3.9,6.1-6.9,10.2-9.2c2.7-1.5,3.7-3.2,2.7-6.9
	c-1.5-6.1-1.3-12.4,3.9-17.5c4.5-4.3,4.5-9.7,0.4-14.7c-2.4-2.9-2.5-5.4,0.6-7.6c2.9-2,4.1-5.6,7.1-7.6c1.3-0.9,1.6-2.8,0.4-4
	c-7.3-7.6-13.9-15.9-22.5-22.1c-4.3-3.1-10.2-1.7-14.9-5.2c-2.8-2-11.6,5.2-12.7,9.8c-0.6,2.3-1.4,3.6-3.9,3.5
	c-1.4-0.1-2.8,0.2-3.6,1.3c-3.4,4.7-8.9,6.9-13,10.8c-3.8,3.7-8.5,6.2-14.1,6.1c-2.7-0.1-4.1,2-5.8,3.4c-1.1,0.9-1.9,2.3-3.1,3.2
	c-1.6,1.1-3.6,1.7-5.1,0.3c-1.7-1.6-0.5-3.4,0.7-4.9c1-1.3,2.4-2.3,3.2-3.7c-5.1,4.2-10,8.6-14.8,13.1c-1.2,1.1-3,2.7-2,4.2
	c3.6,5.3-0.1,10-0.8,14.8c-0.8,4.8-5.8,7-9.3,10c-5.7,4.9-11.1,10.2-13.7,17.2c-1.3,3.6,1.1,7.7,3.5,10.7c3,3.8,5.7,7.8,8.9,11.4
	c2.1,2.3,1.9,4-0.5,5.7c-2.2,1.5-3.2,4.2-5.5,5.7c-3.3,0.1-7.2,2.3-9.1-2.6c-2.1-0.6-3-2.2-4.1-4c-1.9-3-3.8-6.3-8.1-6.6
	c-1.3-0.2-1.8-1.5-2.8-2.2c-1.1-2.8,2.1-5.8-0.1-8.6c-0.8-4.5-5.6-5.8-7.7-9.4c-0.7-1.3-3.7-1.2-4.4,0.4c-2.6,5.3-8.7,6.4-12.1,10.6
	c-1.8,3.1-4.9,4.9-7.4,7.3c-1.9,1.8-2.6,3.4-0.7,5.5c1,1.9,0.8,3.7-1.4,4.4c-2,0.7-3.5-0.2-4.1-2.3c-1.5-2.1-2-4.7-1.3-7
	c1-3.2,0-5.4-2.2-7.3c-0.8-4.3,2.3-11.8,5.6-13.7c1.3-2.9-0.7-5-1.7-7.4c-2.2-2.5-4-5,1-6.3c3.3,0.3,6.1,3.3,9.8,1.9
	c0.5,0,0.9,0,1.4,0.1c3.9-5.6,11.8-7.1,14.2-14.1c0.3-0.7,0.5-1.4,0.8-2.1c1.7-2.4,2.7-4.7,1-7.7c-0.9-1.5-1-3.2,0.4-5.1
	c2.6-3.5,1.5-6.6-2-8.8c-1.3-0.8-2.3-1.9-3.3-3c-3.5-3.9-3.3-7.3,1-10.4c2.8-2,4-4.2,4.1-7.8c0.1-3.7,3.5-6.8,3-10.8
	c0.5-1.7,1.6-2.3,3.3-2.3c3,0,4.6-1.9,4.8-4.6c0.3-4.7,3.3-7.2,7-9.3c3.5-2,5.5-6.2,9.9-7c1.5-0.3,3.1-0.9,3.7,0.9
	c0.6,1.7-1,2.3-2.3,2.6c-5.8,1.5-8.5,6.6-11.9,10.6c-2,2.4-1.8,5.5,1.5,7.6c2,1.3,4.2,2.6,5,5.3c1.9,1.9,3.3,4.4,6.1,5.3
	c2.8,1.4,4.6,0.2,6.4-1.9c2.6-3.2,4.7-6.7,8.9-8.4c2.3-0.9,2.9-3.5,1.5-6c-1.3-2.4-3-4.7-4.3-7.1c-3.4-4.7-1-8.4,6.2-9.6
	c2.9-1.9,5.1-4.7,8.8-5.2c4.1-0.3,5.5-2.4,5.8-6.6C179.5,29.1,183.6,27.1,186.9,25z"/>
<path class="st5" d="M351.7,242.5c1-0.4,1.9-0.8,2.9-1.3c3.2,0.9,3.7,5,6.8,6c2.3,3,2.7,5.7-1.1,7.7c-4.5,3.5-8.5,7.7-8.2,13.7
	c0.3,5.5-2.6,7-6.8,6.9c-3.8,0-5.6,1.1-5.5,5.1c0.1,2.6-1.1,5-3,6.6c-8,6.9-14.2,15.8-23.2,21.9c-5.4,3.6-6,7.1-4.1,12.3
	c1,2.7,2.1,2.5,3.8,0.7c2.2-2.3,4.6-4.3,7.2-6.1c2.6-1.7,5-4.6,8.4-2.9c3.1,1.5-0.5,4.6,0.9,6.8c-0.1,1.7,0.6,3.9-1.7,4.5
	c-3.8,1-5.9,4.2-8.8,6.3c-2.6,1.3-4.8,4.5-8.4,1.1c-0.9-0.9-3.8,0.1-4.5,2.5c-0.9,2.2-2.7,2.3-4.4,1.3c-1.5-0.9-1.3-2.5-0.6-3.9
	c0.5-1,0.8-2.1,1.1-3.3c0-6.7-2.3-8.5-8.2-6.1c-3,0-2.9-1.7-1.4-3.3c1.5-1.5,2.4-3,1.8-5.2c-3-3.3-5.8-6.1-10-1.2
	c-1.9,2.1-5,3-7.8,3.9c-2.6-1.4-5-3.8-8.4-1.9c-3.6,3.4-7.1,3.6-11.1,0.2c-2.1-1.8-2.9-3.4-2.1-5.9c-0.4-1.4-0.3-2.8,0.2-4.2
	c-0.1-1.5-1.3-2.9-2.2-3.1c-6.4-1.1-7.9-8-13.2-10.6c-3.6-1.8-4.4-7-8.6-8.6c-1.3-0.5-2.1-2-3,0.6c-0.8,2.3-3.2,1.7-4.6,0.5
	c-2-1.8-4-1.9-6-0.8c-4,2.3-6.5,1.2-8.3-2.8c-0.3-0.7-1-1.3-1.9-1.5c-0.5-0.1-0.8-0.4-1-0.9c-0.9-3.3,0.6-5.2,3.4-6.7
	c7.2-4,7.6-6.9,1.9-12.9c-2-2.1-3.9-4.4-5.9-6.6c-1.9-2.1-2.5-4.2-0.6-6.6c3.5-8.4,6-8.6,12.9-2.5c7.7,6.8,14.4,14.2,20.4,22.5
	c4,5.7,9.1,6.2,13.2,0.7c6.7-9.1,15.6-6.1,24-5.3c2.6,0.2,4.6,0.4,7-0.8c4.8-2.5,7.2-1.5,9.5,3.2c2.4,4.9,5.3,5.3,8.3,0.8
	c1.9-2.8,4-5.3,7.2-6.7c3-1.3,4-3.5,2.6-6.4c-1.7-3.7-1-6.7,1.7-9.6c1.1-1.2,2.3-2.8,2.5-4.3c0.9-7.6,6.4-11.7,11.3-16.4
	c2.3-2.1,3-4.3,1-7c-0.6-0.8-1.2-1.9-1-2.8c1.4-5.3,2.3-11.1,5.4-15.4c2.6-3.6,6.1-7,9.4-10.3c5.8-5.8,10.4-6.5,17.8-2.9
	c3.6,1.8,11.2-2.8,11.6-7.1c0.2-1.6,0-3.3,0.8-4.9c1.8-3.5,4.4-3.7,7.6-1.5c5.1,3.5,6.1,7.7,3.7,13c-0.8,1.7-0.9,3.3,0.6,4.5
	c2.5,2.1,2.4,4.1,0,6.2c-2.8,2.4-1.7,5-0.4,7.6c-1,1.5-2.2,2.9-2.4,4.8c0,0.2,0,0.4,0,0.5c3.6,3.4,2.8,6.5-0.6,9.4
	c-1,3.1-1.8,7.1-5.2,7.5c-3.4,0.4-5.2-3.2-6.9-6c-0.9-1-1.8-1.9-2.6-2.9c-1.8-2.2-3.9-3.9-6.7-2c-2.4,1.7-4,4-2.1,7.1
	c2.9,3.5,2.2,6-1.4,8.8c-3.9,3.1-8,6.2-11,10.4C345,242.1,347.3,243.7,351.7,242.5z"/>
<path class="st6" d="M234.9,160.9c-7.2,7-15.8,12.1-24.2,17.5c-4.7,3-10.1,4.3-15.7,4.3c-4.8,0-9.6,0.1-14.4,0.1
	c-9,0-20.4-10.9-22.3-21.2c-2-10.4-1-19.9,6.7-28.3c5.3-5.8,9.9-12.3,15.5-17.9c3.5-3.9,7.4-7.3,11.5-10.5
	c11-8.9,22.3-17.3,37.3-16.7c12.4,0.5,29.9,7.5,31.4,22.7c1.6,16.3-4.1,29.1-14.9,40.5C242.4,154.8,238.8,158,234.9,160.9z"/>
<path class="st7" d="M383,199.5c-2.9-2.8-3.6-5.5,0.1-8.3c1.3-1,2-2.7,0.7-3.9c-2.8-2.7-2-5.4-1-8.6c1.5-4.7-1.1-9.1-5.8-10.9
	c-2.4-0.9-5.3,2.2-4.8,5.3c0.3,1.9,2,4.2-0.5,5.3c-3.9,1.8-6.3,6.1-11.1,6.3c-0.8,0-1.6-0.4-2.3-0.9c-5.1-3.8-10.3-3.9-14.5,0
	c-4.1,3.9-6.3,9.7-12,12.1c1.8,5.7-3.6,9.3-4.2,14.3c-0.2,1.2,0.8,2.3,1.7,2.9c3.2,2.1,1.7,4.4,0,6.2c-3,3.1-6.2,6-9.4,8.8
	c-1.1,0.9-2,1.8-2.1,3.2c-0.1,5.2-2.3,9.3-6.2,12.7c-1.8,1.5-0.2,3.1,0.4,4.5c2.6,6.5,2.5,7.1-3.7,9.8c-2.6,1.1-4.4,2.7-5.5,5.4
	c-1.2,3-3.4,5.2-6.9,4.7c-3.3-0.4-4.5-3-5.1-6c-0.7-3.3-3.7-4.5-6.6-2.2c-3,2.5-5.6,4.2-9,0.7c-1-1.1-2.2,0-3.3,0.1
	c-1.8,0.2-3.8,1.3-5.4,0.3c-5.9-3.7-8.9,1-12.1,4.3c-7.5,7.6-11,7.7-17.6-1c-5.3-7-10.5-14.1-17.6-19.5c-0.7-0.5-1.5-0.8-2.1-1.4
	c-6.3-6.1-6.4-6.1-11.6,1c0.5-5.7-4.4-14.7-10.6-16.8c-4.9-1.7-4.5-6.9-7.9-9.4c-1.4-1,0.9-2.7,2.2-3.6c0.8-0.6,1.5-1.5,0.8-2.5
	c-0.2-0.4-1.3-0.6-1.7-0.4c-6.5,3-6.6-2.7-8.4-6.1c3.1,1.1,4.9,4.9,9.5,3.4c1.7-0.6,4.7,2.6,3.4,5.3c-2.3,4.7,0.2,7.8,2.4,11.2
	c1.9,0.9,4,2.2,5.8,0c1.8-2.2,3.7-1.7,5.7-0.4c1.1,0.7,2.4,1.7,3.5,0.3c0.9-1.1-0.2-2.1-0.9-3c-2.3-2.6-1.6-4.7,0.7-6.8
	c1.1-1,2.6-1.6,2.9-3.2c2.8-1.3,4.5-4,6.7-6c6-3.4,9.5-9.5,14.7-13.7c0.8-0.6,1.2-1.6,2.4-1.6c2.4-0.8,3-3.7,5.2-4.7
	c6.9-4.9,12.9-10.8,18.9-16.7c3.7-3.7,6.9-8,11.6-10.7c4.2-0.8,7.6-3,10-6.6c1.6-2.4,3.3-3.2,6.3-2c5.9,2.5,9.1,0,8.1-6.4
	c-0.2-1.1-0.4-2,0.7-2.6c1.3-0.7,2.2,0.1,3.1,0.9c1.3,1.3,1.6,2.9,1.7,4.6c0.1,3.8,1.6,4.6,4.8,2.5c3-1.6,5.5-3.8,7.4-6.7
	c0.5-0.9,0.5-2.4,2.2-2c1.9-0.9,4.2-1.4,5.6,0.2c3.5,3.7,8.5,5.7,10.8,10.6c0.9,4,3.9,5.6,7.4,6.8c3.4,2.8,7-1.2,10.4,0.5
	c-0.1-0.2-0.3-0.2-0.4-0.4c-1.1-0.9-0.9-2-0.6-3.2c4.5-5.6,5.5-5.8,11.3-2.5c3.4,1.9,8.5-0.7,9.2-4.6c0.4-2.3-1-3.1-2.7-3.4
	c-2.9-0.5-4.3-2.4-5.1-4.9c-0.5-1.4-0.9-3.1-2.2-3.8c-4.5-2.4-4.5-5.6-2.2-9.5c1.9-3.2,1.5-5.9-1.5-8.4c-1.4-1.2-2.7-2.4-3.9-3.8
	c-1.3-1.6-1.8-3.2,0.8-4.1c2.1,3.2,5.8,5,7.1,9.1c1.8,5.9,4.3,11.6,4.6,17.8c0.1,1.2-0.3,2.5,1.2,2.9c1.1,0.3,1.8-0.3,2.2-1.4
	c0.8-2.3,2.5-1.1,2.9-0.2c1.2,2.5,3.6,4.2,4.1,7.3c0.4,2.5,1.9,4.9-2.3,5.2c-1.1,0.1-1.6,1-1.7,2.2c0,1.4,0.8,2.1,2.1,2.4
	c2.9,0.8,4.9,2.5,5.3,5.7c-1.6,0.2-2.9-1.3-4.6-1.3c1.8,1.4,1.8,1.4,4.6,1.3c-0.3,7.9,0.2,8.4,9,9.8c0.8,0.1,1.2,0.5,1.2,1.2
	c0,1.1-0.5,2-1.6,2.2c-5.5,1.2-4.1,6.2-4.7,9.5c-0.4,2.4,2.7,3.2,5.3,3.1c1-0.1,2.2,0.1,2.2,1.3c0,1.6-1.2,1-2.2,1.1
	C384.2,190,382.4,193.4,383,199.5z"/>
<path class="st8" d="M129.9,336.9c-2.7,3.3-2.4,5.7,1.1,8.6c5.9,4.9,11.3,10.2,16.8,15.5c1,0.9,1.6,1.2,2.9,0.7
	c2.3-0.9,4.9-1.5,6.6-3.3c7.6-8.1,18-11.9,26.7-18.4c2.6-2,6-3.1,8.7-5.3c1-0.8,2.1-1,3.1,0.1c1.3,1.4,0.3,2.4-0.8,3.3
	c-1.9,1.6-3.8,3.2-5.7,4.9c-3.3,1.3-4.9,4.8-8.1,6.1c-7.2,3.5-11.9,9.9-17.9,14.8c-3.1,2.6-6.2,5-10.1,6.2c-4,1.3-8.2,2.1-11.5,5.4
	c0.5-3.6,0-6.7-1.6-9.6c-2-2.7-3.8-5.6-6.9-7.2c-3.2-1.2-5.5-3.6-7.8-5.9c-4.8-4.7-7.9-4.3-13.4-0.8c-7.4,4.7-12.4,11.2-17.3,18
	c-1,1.4-2.1,2.3-3.7,1.1c-2-1.6,0.1-2.4,0.9-3.5c2.7-3.3,5.3-6.7,8-10c3.2-4.5,8.2-7,11.4-11.4c0.1-0.5,0.1-1,0.2-1.5
	c-3.5-4.6-7.3-8.9-11.6-12.8c-4.5-3.2-8.5-3.9-12.8,0.9c-2.4,2.7-7.1,2.5-9.5,5.7c-3.4,1.7-5.4,5.3-8.8,6.9
	c-0.1,0.1-0.3,0.2-0.4,0.3c-1.5,1.4-2.7,3.5-5.2,3.1c-0.7-0.1-1.7-1.1-1.7-1.6c0.5-2.5,2.9-2.8,4.6-4c2.8-2,5.4-4.3,8.1-6.5
	c4.1-2.4,6.9-6.6,11-9c1.5-0.6,0.8-2.7,2.5-3.2c0.6-0.2,1.8-0.3,1.8-0.6c0.6-5.1,5.4-6.3,8.4-9c7.7-7.3,15.4-14.5,23.1-21.8
	c1.6-1.5,3.1-3,4.8-4.3c2.1-1.7,4.9-4.7,7.1-1.7c2,2.7-2.2,3.7-3.9,4.9c-2.8,1.9-5.2,4.3-6.9,7c-4,6.8-10,11.4-15.8,16.3
	c-2.7,2.3-4.4,4.9-0.8,8.1c4.2,3.8,8.1,7.8,12.3,11.6c2,1.8,4.8,3.7,6.7,0.3c3.8-6.6,11.2-8.9,16-14.3c3-3.3,6.5-6.2,9.8-9.2
	c1.1-1,2.4-1.8,3.6-2.6c2-1.2,2.5,0.7,3.5,1.6c1.5,1.3,0.6,2.4-0.6,3.2c-7.1,4.2-12.4,10.5-18.8,15.6
	C135.1,331.5,132.4,334.2,129.9,336.9z"/>
<path class="st9" d="M130.5,250.6c-7.5-3.6-12.8-9.8-18.4-15.7c-8.7-9-9.4-20.7-11.1-32.1c-0.6-4.2-0.4-8.6-0.6-12.9
	c-0.8-12.6,8.3-19.5,20.2-15.4c4.5,3.7,9,7.5,12.9,11.9c0.4,5.4,3,11-2.7,15.7c-3.1,2.5-5.6,2.4-8.4,0.5c-3-2-5.5-4.8-8.1-7.3
	c-2.5-2.4-1.7-4.4,0.1-6.4c2.2-2.5,4.2-1.4,6.5,0.2c2,1.4,2,4.7,5.1,5c1.5-7.1-6.1-14.7-13-13c-2.9,0.7-4.4,3.2-4.5,5.9
	c-0.4,9.3-0.7,18.5,1.9,27.6c0.5,1.7,1.9,2.1,2.7,3.2c1.9,2.9,4.1,5.4,6.8,7.5c7.1,5.4,14.1,11,21.4,16.1c3.9,2.7,8,5.2,13.4,3.9
	c3.2-0.8,9.2,6.1,9.6,10.5c0.8,9.5,6.3,17,10,25.3c3.1,7,6.5,13.7,11.1,19.8c-2.2,1.7-3.5-0.2-4.4-1.5c-2.2-3-5-5.2-7.9-7.4
	c-2.9-2.1-4.8-4.9-4.3-8.9c0.3-2.4-1-4.2-3.5-4.7c-2.5-0.5-2.8,1.7-3.5,3.4c-0.6,1.5-0.8,4.7-3.4,1.2c-5.8-6.5-9-14.1-9.2-22.7
	c-0.1-3.2-1.1-3.2-3.5-3.6c-4.6-0.7-8.9-2.3-12.8-4.9c-2.1-2.7,0.7-3.4,2-3.4c6-0.2,11.9,1.2,17,3.8c3,1.5,5.2,5.3,4.1,9.4
	c-1.1,4,0.6,6.3,4,8c1.7-0.8,1-2.3,0.9-3.5c-0.1-1.8-1-3.5-1.3-5.3c-1.9-9.6-1.9-10.1-11.3-10.3c-6.1-0.2-9.9-4-14.2-7
	C130.9,245.3,132.7,248.9,130.5,250.6z"/>
<path class="st10" d="M98,314.7c-0.1,2.5-0.6,4.8-3.9,4.3c-2.8-0.4-1.7,1.6-1.8,2.9c-0.3,3.3-1.5,4.6-4.6,2.4c1.2-1.3,1.1-2.7,0.2-4
	c-4.7-6.5-7.6-14-12.6-20.3c-2.5-3.1-4.5-2.4-6.9-0.1c-2.2,2-4.5,3.9-6.8,5.8c-4.3,2.8-7.4,7-11.7,9.8c-1.9,1.6-4,3-5.8,4.8
	c-2.1,2.1-3.5,2.8-6,0.1c-2.8-3-0.2-3.7,1.3-5.2c2.9-2.8,6.4-4.6,9.8-6.4c6.7-3.7,11.9-8.8,16.7-14.6c1.7-2.1,1.9-4.2,1-6.5
	c-3.8-8.9-9.6-16.1-17.6-21.6c-1.8-1.3-3.6-1.1-5.3,0.6c-3.7,3.5-7.5,6.8-11.6,10c2.2-7.8,6.7-14.4,11.6-20.4
	c4.8-6,9.7-12.1,15.5-17.3c1.7-1.5,4.3-1.9,5.1-4.4c4.2-5.1,9.6-8.9,14.3-13.5c1.3-1.3,2.9-2.2,3.8-3.9c1.8-1.7,3.7-3.3,5.6-5
	c1.1,2.1-0.5,3.2-1.4,4.5c-10.4,14.6-20.1,29.7-34.3,41.1c-1.7,1.3-2.3,1.9,0.2,3.8c5.5,4.1,12.5,6.4,15.4,13.9
	c0.9,2.4,4.7,3.8,6,6.8c0.7,1.6,2.1,1.3,3.2,0.1c8.7-8.6,19-15.5,26.6-25.2c0.8-1,1.9-3.6,3.7-1.6c1.3,1.5,5,2.7,2.1,5.9
	c-0.8,0.8-1.1,2-2.3,2.5c-5.4,2.3-9.6,6.1-12.8,11.1c-2.4,3.3-6.4,5.2-8.6,8.7c-0.6,0.8-1.3,1.5-2,2.3c-5.3,5.6-5.3,5.6-1.1,12.3
	c0.8,1.3,1.4,2.6,2.1,3.9c3.4,4.6,7.1,8.9,11.5,12.6C97.1,314.8,97.5,314.7,98,314.7z"/>
<path class="st5" d="M195.4,225.8c-4.1-0.9-4.1-5.2-6.3-7.7c-0.9-1,0.9-1.7,1.9-2.4c1.4-0.9,1.9-2.3,1.1-3.9c-0.6-1.2-1.8-2.6-3-2.1
	c-4.7,2.2-6.5-1.4-8.9-3.9c0.3-3.5,1.5-7,4.4-8.8c2.9-1.8,3.5-3.2,1.3-5.8c-0.7-0.9-1.8-1.8-0.7-3c0.9-1,2.2-1,3.3-0.6
	c3.5,1.4,6.9,2.4,10.2-0.6c0.3-0.3,1.4-0.2,1.9,0.1c4.7,3.4,7.7,0.4,10.8-2.6c2.7-2.7,5.2-4.7,9.6-3.4c2.8,0.8,5.4-0.8,4.9-4.5
	c-0.3-2.5,1-3.7,2.9-4.6c11.2-4.9,17.9-14.7,26.1-23c5.8-5.8,10.1-11.9,10-20.5c0-2,1.8-3.5,3.4-4.8c2.8-2.3,3.1-4.7,0.7-7.7
	c-4.9-6-4.5-10.4,1.2-15.4c2.4-2.1,3.6-5.1,6.4-6.9c1.5-0.9,0.8-2.7-0.4-3.9c-6.2-6.3-12.4-12.7-18.6-19c-0.8-0.8-1.8-1-2.8-0.7
	c-4.4,1.5-7.5-0.7-10.1-3.6c-3-3.2-6.1-3.1-9.4-1.2c-3.6,2.1-7.4,4.3-6.7,9.4c0.2,1.5,0.7,2.9,0.9,4.4c0.1,1.3-0.6,2.3-1.8,2.7
	c-1.6,0.4-1.8-0.8-2.2-2c-1.3-4.1-3.6-3-5.8-0.8c-6.4,6.5-13,14-21.7,15.7c-8.4,1.7-13.1,8.5-20.8,11c-4.3,1.4-10.2,5.9-7.9,13.9
	c0.7,2.6-2.7,6.8-5.5,9.4c-5.4,4.9-11.1,9.5-15.6,15.3c-1.5,1.9-3.4,3.5,0.6,4.4c1.5,0.3,1.5,1,1.1,2.1c-0.4,1.3-0.9,2.8-0.2,3.9
	c1.9,2.8,3,4.6-2.1,4.1c-2.6-0.2-2.4,2-1,3.4c3.3,3.1,4.9,7.6,8.2,10.6c3.5,3.2,4.1,5.9-0.9,8.1c-0.6,0.3-1,0.9-1.5,1.3
	c-1.2,1.4-1.5,4-4.4,2.6c8.9-8,9.1-8.2,0.7-16.9c-3.8-3.9-5.7-8.8-8.8-13c-0.6-0.9-0.9-1.8-0.2-2.7c4.9-6.6,9.9-13,16.5-18.1
	c4-3.2,10.1-5.5,7.7-12.8c-0.2-0.7,0.4-2,1.1-2.6c2.2-2,2.1-3.9,0.1-6c-2.2-2.5-1.7-4.8,0.7-6.9c5.5-4.9,10.9-9.8,16.4-14.7
	c1.2-1.1,3-2.6,4.3-1.2c1.3,1.4-0.4,3-1.6,4.1c-1.6,1.5-3.2,2.9-4.8,4.4c-0.6,0.6-1.1,1.5-0.6,2.2c0.5,0.8,1.5,0.4,2.3,0.3
	c3.5-0.4,4-4.2,6.6-5.8c1.2-0.8,2.3-2.2,3.8-2c6.8,0.9,11.2-3.3,16.3-6.7c5.7-3.8,9.6-10.2,17-11.4c1.2-0.2,0.8-1.7,1.2-2.5
	c2.6-5,7-8.4,11.7-11.1c2.2-1.3,4.8,0,6.6,2.2c1.4,1.7,2.8,3.7,4.8,0.4c0.8-1.4,2.1-1.3,3.4-0.2c2.5,2.4,5.3,4.6,7.7,7
	c5.6,5.7,11.2,11.6,16.7,17.4c1.9,2,2.5,4.3,0.3,6.6c-2.5,2.7-4.9,5.4-7.4,8c-1.4,1.5-2.2,2.9-0.4,4.7c6,6.2,6.4,10.4,0.2,16.7
	c-4,4.1-4.1,8.8-4.6,13.7c-0.1,1.2,0,2.2,1.2,3.1c4.1,3.1,1.2,5.5-1.1,7.6c-1.7,1.5-3.9,2.5-6,3.4c-2.3,1-4.1,2.2-4.3,4.9
	c0,0.5-0.2,1.2-0.5,1.4c-5.9,2.9-8.2,10.6-15.5,11.6c-1.6,0.2-2.2,1.1-2.5,2.5c-0.4,1.6-1.5,2.7-3.1,2.8c-2.1,0.1-2.6,1.6-3.4,3.1
	c-3.1,6.7-10.2,9.1-15.1,14c-0.5,0.5-2.2,0.7-2.3,0.5c-2.9-6.1-9.4,1.4-13-3.5c-0.9-1.2-2.8,2.6-5.3,3.4c-4.6,1.4-8.3,4.8-10.9,8.9
	c-2.3,3.7-0.6,6.9,3.6,6.4c2.9-0.3,4.4,1.1,5.8,3c1,1.3,1.6,2.9,2.6,4.2c2.5,3.1,7,6.1-0.4,8.8C195.2,224.4,195.4,225.3,195.4,225.8
	z"/>
<path class="st11" d="M158.2,283.1c2.9,1.5,1.9-1.6,1.9-2.1c0.2-3.2,1.4-5.2,4.9-4.6c3.5,0.6,6.6,3.4,5.4,6.4
	c-1.8,4.5,0.9,6.5,3.3,8.1c3.5,2.3,6.5,4.8,8.6,8.4c0.6,1,1.5,1.8,2.8,1.7c5.6,7.7,13,12,22.6,12.8c6.9,0.6,16.7-4,20.1-10.1
	c1.1-2,1.1-3.7-0.7-5.4c-2-2-4.1-3.6-7-2.5c-1.5,0.6-3.1,1.2-4.1,3.8c3-2.7,4.8-1.4,6.4,0.7c1.2,1.5,0.5,3-0.8,3.9
	c-2.4,1.6-5,3-7.9,1.5c-5.1-2.8-5.2-8.5-0.2-11.7c2.3-1.5,4.6-3.2,6.9-4.8c3.8-2.5,11.8,1.1,14.9,6.4c5.3,9.2-3,21.2-11.6,24.2
	c-13.4,4.7-25.6,2.8-37.2-5c-4.2-3-6.5-7.8-10.7-10.7c-0.7-0.7-1.4-1.3-2-2c-3.9-2.8-6.1-7.3-10.1-10
	C161,289.6,159.6,286.4,158.2,283.1z"/>
<path class="st7" d="M330,319.9c-0.2-0.4-0.4-0.9-0.7-1.3c-1-1.5,1.6-3.9-0.9-4.7c-2.4-0.8-3.6,1.5-5.4,2.7
	c-3.6,2.4-6.9,4.9-9.6,8.4c-1.8,2.3-4.2,2.2-4.9-1.3c-0.4-2.3-1.6-4.4-2-6.6c-0.7-4.4,3-7.5,6-9.3c9.6-5.8,15.3-15.5,23.9-22.2
	c1.6-1.3,2.5-3.5,1.8-6.3c-0.9-3.9,1.8-6,5.7-5.3c4.8,0.8,6.5-0.6,7-5.2c0.7-6.1,3.4-11.2,9.4-13.8c-2.3,3.2-5,6.1-6.8,9.5
	c-1.5,2.8-0.8,5.5,3.2,5.9c0.7,2.9-1.5,5.4-0.9,8.9c3.6-3.1,7-5.8,10.2-8.7c0.6-0.5,1.1-1.6,1.7-1.7c4.7-0.9,8.5-2.9,10-7.9
	c0.2,1,0.2,2,0.5,2.9c1.7,5.2,1.2,7-4,8.1c-7.6,1.7-11.1,7.7-15.6,12.9c-1.4,1.6,0.9,3.2-0.6,5c-3.9-2.3-5.5-0.3-6.2,3.6
	c-0.2,1.5-1.3,2.6-2.4,3.7c-2.6,2.6-6.7,4.2-4.4,9.6c1.1,2.6-7,9.8-10.6,9.5C331.3,315.9,330.3,317.3,330,319.9z"/>
<path class="st7" d="M119.9,372.5c3,3.3,6.1,6.4,8.8,9.9c1.6,2.1,2.9,2.1,4.2,0.1c1.1-1.7,2.2-2.5,4-1.4c2,1.2,4.1,2.7,4.2,5.2
	c0.1,2.7-2.3,2.9-3.9,2.4c-5.2-1.8-9.4-1-13.1,3.4c-1.6,1.9-4,1.2-5.9-0.2c-2.6-1.8-4.9-1.4-7.3,0.3c-3.6,2.5-8.3,3.3-10.8,7.6
	c-0.8,1.3-6.8-2.6-7.2-4.8c-0.7-4.3-2.5-8.9,2.6-12c0.1-0.1,0.3-0.3,0.3-0.4c-2.2-5.5,3.3-7.2,5.3-10.6c4.3-7.6,10.5-8.5,16.8-2.3
	c0.8,0.8,1.6,1.7,2.3,2.6C120.1,372.3,120,372.4,119.9,372.5z"/>
<path class="st7" d="M62.8,338.5c-2.5,0.7-5.1,1.4-7.6,2.2c-2.4,0.8-2.9,2.4-2,4.7c2.6,6.6,7.6,9.6,14.4,7.4c5.6-1.9,11.6-2,16.9-5
	c3-1.7,6.7,0,9.2,2.2c2.3,2.1-0.1,4.2-1.8,5.1c-3.3,1.6-4.4,3.4-3,7.1c0.8,2,0.3,4.9-2.6,4.7c-4.1-0.2-7.4,1.3-10.9,2.9
	c-1,0.4-2,1-2.6-0.9c-1.9-5.5-4.6-7-10.6-5.5c-2.6,0.7-4.4-0.1-5.6-1.9c-3.7-5.5-9.5-9.1-12.8-15.1c-1.4-2.5-4.9-3.8-7.4-5.7
	c-0.2-2.5-1.6-4-4-4.5c-2.1-3.4,3-4.8,2.4-8c-0.1-0.5,1.9,0.2,3,0.5c2.1,3.8,4.5,7.2,7.5,10.4c2.2,2.4,3.9,2.7,6.7,0.6
	C55.2,337.3,58.8,334.4,62.8,338.5z"/>
<path class="st7" d="M126.6,255.4c1.4-0.3,2.9-1.1,4.2,0.2c1.6,0.9,1.5,2.4,1.2,3.8c-0.5,2.4,0.4,4,2.6,4.9c7.7,1,12.8,6,12.1,12
	c-2.6,0.7-4-1-5.4-2.7c-0.7-0.9-1.7-2.2-2.8-1.1c-1.2,1.1-0.4,2.5,0.6,3.5c1.7,1.7,3.9,2.6,6,3.6c2.5,1.2,4.5,2.8,5.5,5.4
	c0.3,4.8,4.2,7.3,6.9,10.6c3.2,3.9,3,4.3-1.6,5.6c-2.8,0.8-5.6,1.8-8.4,2.8c0-5.8,0-5.8-4.7-5.2c-3.4-1.6-5.7-3.3-2.7-7.4
	c1.6-2.2-2.3-9.8-5.7-12.2c-3.9-2.8-6,0.5-8.4,2.5c-2.2-0.7-2.6-2.4-1.8-4.2c1.2-2.6,0.7-4.9-0.4-7.3c-1.1-3.2-2.9-6.1-5.3-8.1
	c-2.4-2-1.7-4.7-2-6.8c-0.2-2.3,2.4-1,3.9-0.8C122.5,254.5,123.8,259.5,126.6,255.4z"/>
<path class="st7" d="M18.6,304.3c2.7-1.9,4-4.1,2.2-7.5c-1.4-2.7,0.1-6,2.8-5.3c4.9,1.2,8.2-1.5,12-3c3.2-1.3,6.1-2.8,9.7-0.3
	c3,2.1,5.7-2.1,8.9-1.1c2-0.1,4.2,1,2.1,2.5c-6.3,4.5-8.9,12.8-16.5,15.9c-5,5-9.6,10.4-16.3,13.3C19.3,314.8,17.7,310,18.6,304.3z"
	/>
<path class="st5" d="M377.7,260.8c-1.4,1.5-1.2,2.9-0.1,4.5c0.9,1.3,0.4,2.6-0.4,3.7c-1,1.4-2.5,0.9-3.5,0.2
	c-2.6-1.9-3.8-0.5-5.6,1.5c-3.3,3.6-7.2,6.7-10.9,10c-0.9,0.8-2,1.5-3.1,0.9c-1.3-0.7-1.1-2-0.5-3c1.5-2.6,0.3-6.1,3.1-8.1
	c4.9-1.8,7.3-6,8.6-10.6c0.6-2.1,1.1-3.3,3.5-2.9c2.4-0.7,2.7-2.9,2.6-4.7c-0.1-3,1.1-5.7,1.6-8.6c0.2-1.3,0.3-2.8,1.8-3.3
	c5.3-1.6,8.4-5.4,10.6-10.2c0.5-0.3,1-0.5,1.5-0.5c0.8,0,1.7,0.1,2.5,0c1.4-0.3,2.7-0.3,3.4,1.2c0.7,1.4-0.1,2.7-1.1,3.5
	c-4.4,3.3-3.5,6.8-0.4,10.3c-0.4,3.7-2.8,5.9-5.7,7.4C381.6,253.9,379.7,257.3,377.7,260.8z"/>
<path class="st12" d="M168.8,235.1c-1,1-2,2-3.6,2c-3.1,0.5-6.1,0.9-9.2,0.3c-7-3.7-13.2-14.6-11.7-20.6c0-0.4,0.1-0.6,0.4-0.8
	c0.2-0.2,0.4-0.3,0.4-0.2c2.7-1.1,3.2,0.6,3.3,2.7c0.2,5.6,4.4,8.7,7.8,12.2c0.8,0.8,2,1.1,3.2,1c1.3-0.1,2.9-0.1,3-1.8
	c0.1-1.4-1.3-1.7-2.4-2c-0.6-0.2,0.2,0-0.5,0c-4.2-0.2-7.7-1.4-7.7-6.4c0-3.8,3.4-6.2,8.9-6.3c2.6,0,3.6-1.2,3.9-3.5
	c0.2-1.4-0.4-3.1,1.5-3.8c4.2-1.3,7.8,0.4,11.1,2.5c4.9,3.1,5.6,13.4,1.3,17.3c-1.9,1.7-3.4,4.1-6.2,4.7c0.5-2.1,2.3-2.8,3.5-4.2
	C173.6,230.4,170.5,232,168.8,235.1z"/>
<path class="st7" d="M42.4,229.1c-0.1-6.1,0.9-7.6,6.8-8.8c5.3-1.1,8.7-4.4,11.6-8.7c1-1.4,1.1-3.9,3.4-3.7c1.9,0.2,2.9,2,3.6,3.8
	c0.8,2.2,0.8,4.2-1.4,5.7c-3.3,2.4-4,4.2,1,5c2.2,0.3,2.3,1.6,0.5,3c-1.9,1.5-3.8,3.2-5.7,4.8c-4.4,4.6-8,10.3-14.8,12
	c-0.2-0.2-0.4-0.5-0.7-0.7c-1-3.7,2.6-5,4-7.7C47.1,233.5,43.7,233.1,42.4,229.1z"/>
<path class="st7" d="M62.8,338.5c-4.5-1.5-8.3,0.2-11.1,3.4c-2.3,2.7-4,2.2-6,0c-2.3-2.6-4.8-5.1-6.8-7.8c-1.1-1.4-2.6-3.2-1-5.4
	c3.2-0.6,6.3-1.8,7.9-4.8c1.8-3.3,4-3,6.5-1.4c2.4,1.4,4.6,2.6,7.2,0.3c1.4-1.2,2.4-0.5,2.9,1.2c1,3.6-1.2,7.8,2.5,10.9
	C65.6,335.4,64,337.5,62.8,338.5z"/>
<path class="st6" d="M185.2,235c5.3-4.7,11-3.4,12.1,3.3c1.1,6.6,3.1,13.2,2.5,20c-0.2,1.8-0.3,3.6-0.8,5.3c-1.3,4.3-4,7.9-8.6,7.7
	c-4-0.1-7-2.9-9-7c-4.5-9.2-3.5-17.7,1.5-26.3C183.5,236.8,184.3,235.9,185.2,235z"/>
<path class="st5" d="M125.5,209.4c5.9-2.4,12-4.5,13.7-11.9c0.4-1.6,2.7-2.8,4.1-4.1c2.3-4.7,4.9-5.2,8-1.5c0.4,0.5,0.7,1.1,1.1,1.7
	c4.6,6.3,4.5,8.7-2.2,12.9c-5.6,3.5-9.9,8.2-14.8,12.3c-3.7,3-5.7,3-7.7-1.2C126.6,215,122.3,213.1,125.5,209.4z"/>
<path class="st7" d="M96.4,251.7c-1.8-2-3.2-4.3-6.6-2.6c-1.4,0.7-2.1-0.2-1.6-1.8c2-6.3,6.5-10.8,11.2-15.1
	c0.7-0.7,1.5-0.8,2.1-0.1c4.5,5.4,10.4,9.7,13.5,16.3c-1.7,3.3-3.8,2.8-5.7,0.3c-1.4-1.9-2.7-2.7-4.9-1.6
	C101.2,247.8,100.3,252.5,96.4,251.7z"/>
<path class="st7" d="M255.5,308.9c1.2,5.5,7,8,13.2,5.6c-3.2,1.9-3.8,6.1-7.2,8c-1.7,1-0.8,2.6,0.3,3.8c1.9,2.1,3.8,4.2,5.6,6.3
	c2.4,2.9,0.3,4.7-1.9,6c-2.5,1.4-4.1,0.4-4.4-2.5c3.5-0.5,4.4-2,1.7-4.6c-3-2.9-6-5.5-4.5-10.6c0.5-1.8-1.7-1.4-2.7-0.5
	c-1.9,1.6-3.7,3.4-5.5,5.1c-3.4,3.3-6.9,6.4-12.7,3.2c4,5.3,6.2,5.4,10.9,1.1c4.9-4.4,8.4-3.7,10.3,2.1c-4.2-2.8-7.3-2.7-10.3,2.3
	c-2.9,4.6-6.4,4.2-10.3,0.3c-0.8-0.8-1.8-1.5-2.5-2.4c-2.6-3.3-5.1-6.1-8.2-0.4c-1,1.8-2.7,1.2-4.1-0.3c-2-2.1-1.6-4.3,0-6.2
	c2.7-3.2,7.1-3.6,10.8-1.3c8.4,5.2,17.4,1.1,19.4-8.8C253.8,312.7,254,310.6,255.5,308.9z"/>
<path class="st11" d="M130.5,250.6c-2.2-3.9,1.8-6.6,1.8-10.7c2.9,1.9,4.8,4,6.7,5.8c3.8,3.8,8.2,3.8,12.8,3.3
	c6.2-0.6,8.5,0.7,8.6,6.7c0,5,2.7,9.4,2.2,14.5c-0.3,2.8-1.1,2.7-3,1.7c-5-2.6-6.2-5.3-5-10.9c0.6-2.8-3-9-5.8-9.1
	c-3.7-0.1-7.1-1.5-10.6-2.3c-2.4-0.6-4.6-1-5.4,2.2C131.7,251.9,131,251.4,130.5,250.6z"/>
<path class="st5" d="M258.6,331.7c-4.8-5.1-5.5-5.1-10.1,0.1c-3.9,4.4-10.5,3.3-13.1-2.1c-0.5-1-0.6-1.9,0.3-2.7
	c0.8-0.8,2-0.9,2.7-0.3c4.7,4.3,7.4,0.4,10.3-2.3c2.1-1.9,4.4-3.5,6-6c1.3-2.1,3.2-1.5,4.9-0.7c2.2,1,1.7,2.8,0.6,4.2
	c-2.1,2.8-0.9,4.4,1.5,6.1c1.5,1,2.6,2.6,3.8,3.9c1.3,1.4,2.4,3,0.7,4.8c-1.9,2-3.6,1.1-5-0.6C259.9,334.9,258.9,333.5,258.6,331.7z
	"/>
<path class="st13" d="M166.1,207.6c0.1,1.5,0.3,2.9,0.3,4.4c-0.1,3.3-3,5.8-5.9,4.5c-3.2-1.5-4.6,0.4-6.4,2.1
	c-1.5,1.4-1.7,3.2-0.7,5c1.3,2.4,3.4,2.8,6,2.4c2.7-0.4,5.5,0.5,5.5,3.4c0,3.2-3,4-5.8,3.9c-4.9-0.1-12.4-9.2-12.3-14.9
	c0-1.5,0.4-2.6-1.6-2.3c1.4-2.9,4.1-4.5,6.5-6.3l0,0.2c4.2,0.6,8.3,1,11.5-2.4C164.2,207.6,165.1,207.6,166.1,207.6z"/>
<path class="st14" d="M243,72.7c8,2.3,14.7,6.8,20.2,12.9c2.9,3.2,4,7.2,3,11.6c-0.5,2.3-1.7,4.1-4.5,3.5c-2.3-0.5-3.2-1.9-2.6-4.4
	c0.7-3.2-0.9-5.7-3-8c-3.9-4.3-8.5-7.8-13.2-11.2C241.3,75.6,241.2,74.2,243,72.7z"/>
<path class="st7" d="M207.6,278.1c0.7,0.3,1.7,0.5,2.2,1c2.3,3.2,4.9,4.6,8.9,2.5c1.9-1,3.9-0.3,5.5,1.2c0.9,0.8,2.2,1.2,3.2,0.6
	c1.5-0.9,0.4-2-0.1-3c-0.5-0.8-0.7-1.6,0.1-2.2c0.9-0.8,2.2-0.5,2.7,0.4c1.7,3.3,6.1,4.1,7.2,8c0.4,1.5,1.8,3.2,3.2,3.7
	c5.4,2.2,7.2,8.6,12.9,10.4c1.4,0.4,2.7,2,2.5,4c-1.5-1.9-3.1-3.4-5.6-3.8c-1.3-0.2-2.8-0.7-3.3-2c-2.4-5.6-8.5-7.8-11.7-12.7
	c-0.1-0.1-0.2-0.3-0.3-0.4c-2.4-2.3-16.3-2.7-18.8-0.5c-2.5,2.2-4.9,4.5-7.4,6.7c-3.1,2.6-4.5,5.7-3.2,9.7c0.5,1.6,0.9,3.3-0.8,4.5
	c-1.8,1.3-3.2-0.4-4.5-1.1c-2.1-1.3-4.2-2.7-4.8-5.4c-0.4-1.5-0.6-3.5,0.8-4.1c4-1.6,5.4-6,9.4-7.8c4.6-2.1,5-5.5,2.5-9.1
	C207.8,278.5,207.7,278.3,207.6,278.1z"/>
<path class="st5" d="M125.5,209.4c-0.5,4.6,3.3,6.8,5.5,9.9c0.9,1.3,2.7,0.1,3.9-0.9c6.2-5.4,12.3-10.9,18.5-16.2
	c2.5-2.1,2.4-4.1,0.3-6.3c-0.7-0.7-1.3-1.5-2-2.2c-3.8-4.1-3.9-4.1-8.4-0.3c-0.2-0.2-0.4-0.5-0.7-0.7c3.2-4.3-3-3.9-3.2-6.5
	c0-0.9,0.1-1.9,0.1-2.8c2.2,3.2,5.7,0.8,8.4,1.9c2.1,0.2,3-1.6,4.4-2.6c-3.1,4.9-1.1,9.1,2.2,12.8c3.1,3.4,2.6,6.2-0.8,8.8
	c-6,4.4-11.7,9.2-17.3,14.1c-3.6,3.2-2.8,5.6,0.3,8.1c1.9,1.5,4.1,2.8,5.6,4.9c0.6,0.9,2.1,1.7,1.2,2.9c-0.8,1.1-2.4,1.4-3.6,0.9
	c-1.9-0.7-3.7-1.6-5-3.2c-5.1-3.1-5.8-9.2-8.8-13.7c-1.1-1.7-1.2-4.2-2.9-6c-1.7-1.9-0.4-2.9,1.6-3.4
	C125.1,208.9,125.3,209.1,125.5,209.4z"/>
<path class="st7" d="M165.6,313.2c5.8-5.3,6-5.3,8.2,2.3c0.6,2.1,1.8,2.8,3.8,3.3c1.6,0.4,3.8,0.1,4.7,2.2c1,2.2,3.1,4.2,0.1,6.5
	c-2.7,2.1-4.2,0.1-5.8-1.6c-1.3-1.5-2.7-2.9-4-4.4c-1.6-1.8-3.6-2.5-5.8-1.2c-2,1.2-3.7,1.4-5.2-0.6c-1.8-2.6,0.9-3.4,2-4.8
	C164.3,314.2,165,313.8,165.6,313.2z"/>
<path class="st7" d="M96.4,251.7c3.4-0.3,4.6-4.4,8-4.5c-1.4,1.2-2.7,2.4-4,3.7c-0.7,0.7-1.9,1.8-1.7,2.3c2.9,6.9-4.2,8.9-6.7,12.9
	c-2.1,3.3-5.7,5.9-8.3,9.1c-1,1.2-2.3,2.6-4.2,1.2c0.5-1.2,2.2-1.5,2.3-2.9c-0.5,1.3-1.5,2.1-3,2.2c2.7-6-2.5-9-5-13
	c0.4-1.2,1.3-0.9,2.2-0.6c1.7,3.7,2.8,4.1,7.4,2.3c5.2-2,8.3-4.9,11.6-8.6C96.1,254.5,96.9,253.4,96.4,251.7z"/>
<path class="st5" d="M353.7,110.2c-1.2,1.3-1.4,2.3,0.4,3.6c6.4,4.5,7,6.9,4.4,13.9c-1,2.6-1.4,5.3,1.6,7c1.8,1,2.2,2.9,2.9,4.5
	c0.8,1.7,1.8,3.2,3.7,3.8c3,1,5.8,2.4,4.2,6.4c-1.7,4-6.8,6.4-10.1,4.1c-4.6-3.2-7.7-1.4-10.8,1.9c3.6-6.6,6.1-7.4,11.6-3.6
	c3,2.1,7.5,0,8-3.6c0.3-2.3-1.1-2-2.4-1.7c-2.9,0.7-3.8-0.8-4.3-3.3c-0.6-3.1-1.7-5.8-4.8-7.7c-3-1.8-4.7-4.3-1.3-8.1
	c2.3-2.6,3.5-5.9-2-8c-6-2.3-6.2-5.9-1.5-11.3c0.2,0,0.4,0.1,0.6,0.1c0,0.2,0,0.4,0.1,0.6C353.7,109.3,353.7,109.7,353.7,110.2z"/>
<path class="st7" d="M297.1,81.7c-1.3-1.4-2.8-2.8-1.9-5.1c3.8,5.3,9.6,8.6,13.6,13.6c0.6,0.8,1.3,1.5,2,2.2c1.7,1.7,1.9,6,4.5,5.2
	c3.9-1.2,7.5-4,11-6.4c1.2-0.8,0.4-2.1-0.5-3c-2-2.2-3.7-4.6-6.4-6.2c-2.9-1.7-3.5-4.4-3-8.2c2.4,1.9,4.4,3.3,6.3,4.8
	c1.3,4.5,4,7.1,8.8,6.8c0.4,0.9,0.7,2.4,1.2,2.5c5.6,1.4,8.6,5.8,11.5,10.2c-2.3,1.7-3.8,0.7-4.3-1.7c-0.6-2.7-1.9-3.2-4.3-2.3
	c-0.6,0.3-1.4,0.6-1.9,0.3c-6.1-4.1-9.7,0.7-13.7,3.8c-4,3.1-5.3,2.7-8.7-1.4C307.2,91.7,302.7,86.2,297.1,81.7z"/>
<path class="st7" d="M296.8,73.9c0.3-0.7,0.5-1.4,0.8-2.1c1.7-4.1-1.9-10.4-7.1-12.4c-4.5-5.6-11.5-8.7-15.4-14.9
	c0-0.3,0-0.5-0.1-0.8c2.1,0.1,3,2,4.2,3.2c2.5,2.5,5.2,4.7,9.1,3.9c0.6-0.1,1.7-0.2,1.9,0.1c2.4,4.5,8.5,5.6,10.1,10.7
	c0.8,2.6,2.2,4.5,5.1,4.6c3.2,0.2,5.4,2.7,6.7,4.6c2.1,3.1-1.5,2.7-3.4,3c-0.2-0.9,0.1-2.1-1.2-2.2c-0.2,0-0.1,1.4-0.3,2.2
	C303.9,71.7,300.3,68.8,296.8,73.9z"/>
<path class="st7" d="M142.2,336.4c-3.5-1.9-1.5-3.7,0.8-5.6c1.5-1.3,3.1-2.5,4.3-4.1c1.6-2.2,2.9-4.4,5.7-1.6c2.4,2.4,5.1,4.7,1,8.1
	c-1.2,1-2,2.6-3,3.9C147.5,341.1,145.9,341.1,142.2,336.4z"/>
<path class="st7" d="M118.7,68.8c1.3,1.6,1.6,4.1,0.5,5.1c-4.2,4-0.4,11.3-6.4,14.6c-4.6,2.5-4.7,6.4-0.9,10c1,0.9,2.3,1.4,3.2,2.3
	c2.4,2.5,4.5,5.2,1.6,8.7c-1.6,1.9-1.3,3.7-0.4,5.5c1.6,3.1,0.8,5.4-1.8,7.3c0.9-2.6,1.9-5.2,0.2-8c-1-1.6-0.5-3.3,0.6-5.1
	c1.9-3.1,1.4-6-1.9-8.1c-3-1.9-4.6-5.5-8.9-5.8c-2.3-0.1-1.7-7.3,1.6-8c9.7-2.2,8.6-10.7,11.5-17C117.9,69.9,118.4,69.4,118.7,68.8z
	"/>
<path class="st7" d="M391.3,244.5c-3.7-3.5-5.9-6.9-0.3-10.6c0.8-0.5,1.4-1.6,1-2.6c-0.5-1.4-1.6-0.6-2.5-0.3
	c-1.2,0.4-2.2,0-3.1-0.9c0-1.6,1.4-2.1,2.3-3c3.1-3.4,2.9-5-1.3-6.9c-0.7-0.3-1.6-0.5-1.8-1.4c2.3-5,4.7-10,7-15
	c5.9,2.4,6.1,3.1,1.5,8.4c-0.3-0.1-0.2,0-0.1,0c0,0,0,0,0,0c-0.7-0.1-0.4,0.6,0.1,0c0.4,5.9,0.3,11.8,0.4,17.7
	c0,1.8-0.7,3.2-1.9,4.4C389.4,237.3,388.8,240.7,391.3,244.5z"/>
<path class="st1" d="M87.2,398.7c-3.2,1.6-4.4-1.7-6.1-2.9c-2.5-1.9-4-4.4-8-3c-2.5,0.9-4.9-2.9-3.2-5.2c1.7-2.4,0.4-3.7-1-5.1
	c-7.3-7.7-13.6-16.2-22.7-22.1c-2.9-1.9-5.4-5.4-5.9-9.5c5.6,5.7,10.6,12,16.9,17c5.3,4.5,9.4,10.2,14.2,15.2
	c1.3,1.3,2.2,2.9,3.9,3.8C78.5,391.4,83.4,394.5,87.2,398.7z"/>
<path class="st7" d="M210.2,329.7c1.7,2,1.8,3.8,0.6,6c-2.1,3.6-5.7,4.8-9,6.7c-0.8,0.5-1.7,0.4-2.2-0.4c-0.8-1.5-1.3-3.5-0.4-4.7
	c2.2-2.8,4.4-5.5,6-8.9C206.5,325.5,208.5,329.2,210.2,329.7z"/>
<path class="st15" d="M111.3,399.9c-1.7-0.4-3.3-0.9-5-1.3c0-0.4,0-0.8,0-1.3c12,2.3,23.3-1.3,34.7-4.7c0.1,0.6,0.2,1.2,0.3,1.7
	c-4,1.3-7.9,2.6-12.1,4c1.7,1.1,3.6-0.1,5.1,1.8c-4.7,1.2-9.2,2.4-13.9,2.4c-1.5,0-3.2-0.9-4.3,0.9c-2.7,1.4-2.5-1.2-4-2.7
	c3.7-0.5,6.8-0.8,9.9-1.1C118.4,399.9,114.9,401,111.3,399.9z"/>
<path class="st7" d="M76,262c-0.7,0.2-1.4,0.4-2.2,0.6c-2.1-1.9-4.8-0.8-7.1-1.3c-2.1-0.5-3.8-1.2-4.6-3.2c-0.5-1.3-0.5-2.6,0.5-3.8
	c1.1-1.2,2.1-0.1,3.1,0.2c3.3,1.2,6.5,3.7,9.8-0.4c1.1-1.3,3.3-0.8,4.3,0.8c1,1.5-0.4,2.3-1.6,2.9C76.5,258.6,76.1,260.2,76,262z"/>
<path class="st5" d="M297.1,81.7c6.4,3.7,10.7,9.6,14.9,15.3c2.3,3.1,4.3,3.7,7.3,1.1c2.1-1.8,4.6-3.2,6.8-4.9
	c1.7-1.2,3.4-1.3,5.1-0.3c1.4,0.8,2.8,1.4,4.3,0.7c3.3-1.5,4.9-0.7,5.3,3c0.2,1.9,1.9,2,3.5,1.7c1.4,1,2.7,2,4.1,3
	c1.9,1.9,5.4,2.8,4.6,6.6c-3.3-3.6-7.3-6.1-11.5-8.8c-3.2-2-6.2-3.1-9.6-4.3c-3.3-1.3-5.6-1.1-7.9,1.4c-1.3,1.5-2.8,2.8-4.4,4
	c-2.9,2.1-6,1.5-7.8-1.3C307.7,92.6,301.9,87.6,297.1,81.7z"/>
<path class="st16" d="M206.2,31.5c10.4-6.8,35.4-2.5,41.1,7.7C233.5,33.6,221,26.3,206.2,31.5z"/>
<path class="st7" d="M150.6,285c-3.3-2.4-6.6-4.8-10.5-6.2c-2.2-0.8-4-2.3-4-5c0-1.5,0-3.1,1.8-3.6c1.7-0.5,3.5-0.4,4.3,1.4
	c1,2.3,2.3,3.9,4.7,4.7c-0.4,0.7-2.5,2-0.4,2.2C150.7,279.2,150.2,282.2,150.6,285z"/>
<path class="st7" d="M124.9,208.6c-1.6,1.3-1.8,2.7-0.3,4.2c1.5,1.4,1.8,3.6,3,5c3.5,4.2,3.1,10.3,7.4,14c-2,0-3.1-1.5-3.8-2.9
	c-2.5-4.5-5.3-8.3-10.9-9.4c-1.3-0.3-2.9-1.9-2.2-3.4c0.8-2,2.1-0.2,3.2,0.2c1.1,0.4,2.7,1.7,3.2-0.4c0.4-1.6-0.8-2.8-2.4-3.2
	c-1.5-0.4-3.8,1.4-4.5-1.5c0.1-0.9,0.8-1.3,1.4-1.8c0.8-0.5,1.2-1.5,2.3-1.6C122.5,208,123.7,208.3,124.9,208.6z"/>
<path class="st7" d="M302.6,328.4c-0.1,1,0,2-0.2,2.9c-1.2,4.6,0.9,4.5,4.1,3c-1.7,4.6-5.6,4.3-9.1,3.2c-2.9-0.9-5.2-1.3-7.9,0.4
	c-1.3,0.8-3.6,1.4-4.6-0.1c-1.2-1.8,1.4-2.1,2.2-3.1c2.2-3.2,4.5-4.2,8.3-2C299.6,334.9,300.8,330.7,302.6,328.4z"/>
<path class="st7" d="M32.1,262.5c0.1,0.3,0.2,0.7,0.2,1c-0.9,4.7-2.4,10.2-7.1,11c-4.7,0.8-6.3-5.3-10.2-8.5c3-1.1,4.5,0.5,6.3,0.9
	c3.3,1,6.1,0.6,8.1-2.5C30,263.5,30.8,262.6,32.1,262.5z"/>
<path class="st17" d="M148.7,48.3c4.5-3.4,8.3-7.6,13.4-10.3c3.1-1.6,6.2-3.1,9.9-2.5c-14.7,6.2-26.3,16-35.7,29.2
	c0.8-7.3,6-11.1,10.7-15.1C147.3,48.8,147.9,48.4,148.7,48.3z"/>
<path class="st7" d="M89.9,219.9c2.6-2.1,4.2-4.7,7.1-2.8c2,1.2,1.5,3.2,1.2,5c-0.4,2.2-8.1,5.7-10,4.7c-1.9-0.9-1.5-2.6-0.8-3.8
	C88.1,221.4,89.5,220.3,89.9,219.9z"/>
<path class="st7" d="M88.5,205.7c-2.8-1.9-2.1-3.8-0.2-5.8c1.8-1.9,3.5-3,5.7-0.3c2.2,2.8,4.1,6.6,1.8,8.9
	C93.2,211.1,90.6,207.6,88.5,205.7z"/>
<path class="st18" d="M116.7,164.8c-5.4,0.7-10,3.1-13.9,6.9c-0.9,0.9-2.1,2.8-3.6,1.2c-1.2-1.3-0.2-2.8,0.9-3.9
	c4.4-4.3,9-8.2,15.8-7.8C117.4,162.1,118.1,163.2,116.7,164.8z"/>
<path class="st7" d="M148.7,48.3c-0.5,0.4-1.1,0.9-1.6,1.3c-5.9,0.9-9,5.8-12.6,9.6c-2.2,2.2-3,5.5,1.1,7.9c2,1.2,4.1,2.9,4.3,5.7
	c-1.4-2.1-3.7-3.2-5.6-4.8c-3.3-2.7-3.8-6.2-1-9.1c3.7-3.9,5.6-10.1,12.3-10.6c0.6,0,1.3-0.6,1.1-1.4c-0.2-1.1-1.2-1.1-2-0.8
	c-2.2,0.7-4.2,1.8-6,3.4c-1.4,1.3-2.5,3.2-4.9,3.1c2.4-3,4.6-6.1,8.8-7.3C146.1,44.3,147.9,44.7,148.7,48.3z"/>
<path class="st19" d="M109.1,320.4c8.3-9.3,14-20.8,23.9-28.7c0.4,0.3,0.8,0.7,1.1,1c-1.2,1.5-2.2,3.2-3.6,4.6
	C123,304.6,117.9,314.2,109.1,320.4z"/>
<path class="st20" d="M190.5,282.7c-2.2-0.4-1.9-1.3-0.5-2.4c6.3-4.7,10.3-11.4,14.9-17.6c1.4-1.9,2.5-3.9,2.8-6.5
	c2.7,1.9,1.7,4.1,0.6,6.1c-2.5,4.7-6.2,8.5-9.3,12.7C196.5,278.2,193.8,280.8,190.5,282.7z"/>
<path class="st7" d="M93.6,305.4c-2.5-3.4-6.5-5.7-7.4-10.2c-0.3-1.4-1.4-3,0.2-4.1c1.9-1.2,2.9,0.6,4,1.8c0.8,0.8,1.5,1.7,2.3,2.6
	c-0.1,2.6,1.9,4,3.1,5.9C97.1,303.6,97.8,305.9,93.6,305.4z"/>
<path class="st21" d="M96.9,279.3c-1.4,1.9-3,3.4-5.3,4.6c-0.6-2.4,1.4-3.4,2.5-4.5c4.5-4.4,9.3-8.5,14-12.7c1.1-1,2.2-2.1,3.8-0.5
	c1.9,1.9-0.3,2.5-1.1,3.4c-3.1,3.4-6.2,6.6-9.6,9.7c0.3-2.7,2.2-4.2,3.8-5.9C100.9,273.5,99.4,277,96.9,279.3z"/>
<path class="st5" d="M385.5,218.8c2.9-0.2,6.3-0.2,7,3c1,4.5-2.4,6.8-6.2,8.3c-1.4-1.5,0.4-3.4-0.4-5C386,223,383.3,221,385.5,218.8
	z"/>
<path class="st7" d="M368,215.7c0.3,0.4,0.7,0.7,1,1.1c5.2,5.8,5.7,5.7,10-1c0.4-0.5,0.7-1.1,1.1-1.6c0.6,2.1-0.6,3.8-1.5,5.5
	c-1.1,2.2-2.5,4.3-1.6,7c1.1,3.3-0.9,4-3.8,2.5c-1.2,0,0.4,0.6,0.3,1.7c-0.3-1,0.4-2.2-0.3-1.7c-1.1,3.1-2.4,3.3-3.8,1.6
	c-1.1-1.3-1.5-3.1-0.3-4c4.3-3.5,2.2-6.3-0.6-9.2C368.1,217.2,368.1,216.3,368,215.7z"/>
<path class="st22" d="M211.8,345.5c-15.4,13.8-30.8,27.7-46.1,41.5c0.1-1.7,1.4-2.5,2.5-3.5c13.3-12,26.6-23.9,39.9-35.8
	C209.1,346.6,210.1,345.4,211.8,345.5z"/>
<path class="st7" d="M158.4,54.6c1.9,1.9,3.3,4.1,4.6,6.5c1.9,3.5,1.6,5.9-2,7.6c-2.6,1.2-4.1,3.1-5.5,5.4c-3.3,5.3-6.1,6.3-9.6,3.9
	c2.6-0.2,4.4-1.2,6-3.6c1.6-2.4,3.9-4.8,6.5-6c4.9-2.3,4.7-5.1,2.4-9.1C159.9,57.9,158.1,56.7,158.4,54.6z"/>
<path class="st5" d="M267.3,42.7c-4.3,1.1-8.5,2.6-11.9-2.5c-1.6-2.4-2.3,1.2-3.7,1.6c-0.2-1.3-0.4-2.6-0.6-3.9
	c-0.3-1.6-1.5-3.3,0.1-4.7c1.7-1.4,2.9,0.8,4.5,1c2.2,4.1,4.8,7.7,10.3,6.9C266.9,41.3,267.4,41.7,267.3,42.7z"/>
<path class="st23" d="M158,187.2c5.7,2.3,11.4,4.2,17.3,5.6c0.9,0.2,2.2,0.2,2.1,1.6c-0.1,1.6-1.5,1.7-2.6,1.5
	C168.2,194.8,162.1,192.8,158,187.2z"/>
<path class="st24" d="M110.4,107.2c-3.6,9.1-7.2,18.3-10.9,27.4c-0.4-0.2-0.8-0.3-1.2-0.5c2.5-9.6,6.2-18.7,10.7-27.4
	C109.5,106.8,109.9,107,110.4,107.2z"/>
<path class="st25" d="M302.6,77.7c8,1.1,13,6.4,17.7,11.9c-0.3,0.5-0.7,0.9-1,1.4C313.7,86.6,308.1,82.2,302.6,77.7z"/>
<path class="st7" d="M186.9,25c-3.9,3.1-7.1,6.4-6.8,12.2c0.2,5.2-4.3,2.1-6.7,2.7c3-2.2,6.7-4.3,1.2-7.8c-1-0.6-0.6-2.4,0.5-2.1
	C180.4,31.4,182.6,25.9,186.9,25z"/>
<path class="st26" d="M241.6,43.2c-1.2,0.6-2.3,0.1-3.4-0.2c-4.6-1.5-9.1-3.1-13.6-4.6c-0.7-0.2-1.3-0.5-1.2-1.3
	c0.1-1.1,0.9-1.4,1.7-1.3c5.7,0.8,10.9,2.9,16,5.4C242.1,41.7,242.1,42.4,241.6,43.2z"/>
<path class="st27" d="M30.2,285.1c-0.1-3,2-3.9,3.3-5.2c3.2-2.9,6.6-5.5,9.5-8.7c1.9-2.1,4.4-3.6,8-1.3
	C42.3,272.9,37.5,280.3,30.2,285.1z"/>
<path class="st7" d="M42.4,229.1c3.2,4.3,7.1,3.9,11.6,1.1c-0.2,5.7-6,6.9-7.3,11.2c-0.2-0.3-0.6-0.6-0.6-0.7
	C48.3,235.6,42.7,233.2,42.4,229.1z"/>
<path class="st28" d="M119.3,352.7c-5.9,5.3-12.1,10.2-18.2,15.2C105.6,360.9,111.7,355.9,119.3,352.7z"/>
<path class="st29" d="M207.6,278.1c-0.1,0.3,0,0.5,0.3,0.6c-2.8,3.7-6.5,6.5-10.1,9.4c-1.2,1-3.3,1.7-4.3-0.3
	c-0.8-1.7,1.2-2,2.3-2.4c4.3-1.7,6.4-6.7,11.1-7.8C207.1,277.8,207.3,278,207.6,278.1z"/>
<path class="st30" d="M242.9,317.4c-1.9,0.9-3.2,5.8-5.4,2.8c-2.1-2.8,2.7-3,4.3-4.4c3-2.7,4.8-6.2,7-9.5c0.5-0.8,0.6-2.2,1.8-1.8
	c1.4,0.5,1,2.2,0.4,3C248.5,311.1,247.7,315.8,242.9,317.4z"/>
<path class="st7" d="M39.8,305.4c3.9-3.9,9.1-6.7,10.8-12.6c0.5-1.7,2.4-1.5,3.7-2.2c2.2-1.2,2.8-2.4-0.1-3.6
	c1.6-0.8,3.2-1.6,4.8-2.4c0.3,0.4,0.7,0.7,1,1.1C53.5,292.5,49.3,301.4,39.8,305.4z"/>
<path class="st7" d="M18.6,304.3c0,5.4,3.3,9.6,4.9,14.4c-0.6,1.1-0.8,2.9-2.5,2.4c-2.2-0.6-3.7-3.5-3.1-4.5
	c1.8-3.2-0.4-5.6-0.8-8.3C16.9,306.8,17.6,305.4,18.6,304.3z"/>
<path class="st5" d="M169.2,247.5c-1.2-1.6-3.2-3.3-0.8-5c2.2-1.6,4.7,0.1,6.3,1.4c1.9,1.5,0.9,3.7-0.7,5.1
	C171.6,251.1,170.6,248.7,169.2,247.5z"/>
<path class="st31" d="M14.3,273.3c-2.5,6.7-5.5,13.2-0.3,20.9C6.5,290.4,7.2,279.1,14.3,273.3z"/>
<path class="st32" d="M361.1,221.6c1.1-2-0.6-4.2,0.3-6.3c3,7-1.4,18.1-9.8,23.7c3.1-5.6,7.4-10.5,9.3-16.7
	C360.7,221.9,360.8,221.7,361.1,221.6z"/>
<path class="st33" d="M171,327.1c1.2-0.6,2.4,0.2,1.5,1c-6.9,6.3-13.5,13-21.7,17.9c0-0.1-0.1-0.2-0.1-0.4c0-0.2,0-0.3,0.1-0.5
	C157.2,338.8,163.8,332.5,171,327.1z"/>
<path class="st34" d="M78.5,345.6c5-5.2,9.4-11.2,17.5-11.8C89.9,337.2,84.6,341.9,78.5,345.6z"/>
<path class="st35" d="M55.2,319.5c0-2.8,1.9-4.2,3.6-5.6c4.5-3.9,8.9-7.9,13.4-11.8c0.3,0.4,0.7,0.8,1,1.2
	C67.3,308.6,61.3,314,55.2,319.5z"/>
<path class="st7" d="M385.9,225.1c1.5,1.5,0.3,3.3,0.4,5c-1.7,4.7-4.9,8-9.4,10c-1.7,0.7-3,1.9-4,3.5c-1-2-0.8-3.9,1.5-4.3
	C382.3,237.7,382.9,230.5,385.9,225.1z"/>
<path class="st36" d="M81.8,190.6c0.9-0.4,1.7-1.1,3.9-0.4c-6.5,5-11.1,11.3-18.3,14.6c-0.1,0-0.3-0.1-0.3-0.2c-0.1-0.1,0-0.3,0-0.5
	C71.4,199.1,76.5,194.8,81.8,190.6z"/>
<path class="st5" d="M243.6,50.6c-1.1,1.1-3.1,2.4-3.9,1.4c-4.4-5.6-12.2,3-16.3-4.2c-2-3.5-5.4-6.2-8.2-9.3c1.7-1.6,2.2,0.4,3,1.2
	c2.1,2.1,3.9,4.5,6.1,6.5c2.9,2.7,6,3.9,9.6,1.1c2.4,0.9,4.2,3,6.9,3.2C241.7,50.8,242.7,48.8,243.6,50.6z"/>
<path class="st37" d="M133.4,186.5c-3.2-0.2-4.3-2.9-6.3-4.8c-1.6-1.6-3.5-3.5-6-4.1c-2.1-0.5-1.5-1.7-0.6-2.9
	C126.9,176.4,130.5,181.1,133.4,186.5z"/>
<path class="st7" d="M90.3,152.3c-1.5,0.4-4.3-0.7-3.1,2.7c0.1,0.4-0.2,1.2-0.5,1.3c-3.7,1.4-2.6,4.9-3.3,7.6
	c-1.2-2.5-3.6-4.9,0.2-7.4c1.2-0.8,1.2-2.5,0.5-4.1c-0.6-1.3-1.1-2.8,0.1-4.1C86.9,148.6,89.6,148.8,90.3,152.3z"/>
<path class="st38" d="M84.7,230c-5.9,6.7-11.6,13.6-17.4,20.3C71.5,242.1,77.6,235.7,84.7,230z"/>
<path class="st7" d="M203.3,35.8c-0.5-0.1-1.3-0.1-1.3-0.4c-1.3-6.3-7.3-7.7-11.5-10.9c3.8,0.3,7.2,2.6,11.3,1.9
	c1.7-0.3,1.8,1.7,1,3C201.2,31.7,202,33.7,203.3,35.8z"/>
<path class="st12" d="M163.2,207.6c-3.4,5.8-5.8,6.3-11.5,2.4C155.2,207.8,159.2,207.4,163.2,207.6z"/>
<path class="st7" d="M233.8,47.3c-4.2,3.6-5.7,3.5-9.9-0.5c-2.9-2.7-4.6-6.8-8.8-8.3c-1.1-1.4-2.4-2.5-4.1-3c2.4-1.4,4,0.1,5.5,1.7
	c2,2.1,3.9,4.5,6,6.5C225.7,46.8,229.1,49.2,233.8,47.3z"/>
<path class="st5" d="M331.6,85.7c-2.1,2.4-4,2.2-6.1-0.2c-1.4-1.6-3.3-2.7-4.6-4.3c-2.4-2.9,0.5-2.1,1.8-2.3c1.8,1,3.7,2.1,5.5,3.1
	c0.5,3,2.4,0.5,3.5,0.9C331.7,83.8,331.7,84.7,331.6,85.7z"/>
<path class="st39" d="M283.8,323c-2.5,3.6-9.4,5.8-12.6,4.2c-0.6-0.3-1.3-0.7-1-1.4c0.2-0.5,0.9-1,1.4-1
	C275.6,324.1,279.6,323.6,283.8,323z"/>
<path class="st40" d="M290.5,316.1c-6,4-12.5,6.7-20.1,5.4C277.9,322.4,283.3,316.4,290.5,316.1z"/>
<path class="st7" d="M93.1,192.7c-1.4,1.1-2.8,1.2-4-0.1c-1.5-1.7-1.5-3.7,0-5.4c1.4-1.6,2.6-0.4,3.7,0.8
	C94.2,189.5,94.7,191.1,93.1,192.7z"/>
<path class="st41" d="M18.8,258.2c-0.9,0.8-1.8,1.6-2.9,2.6c-0.6-2,1-2.9,1.6-4.1c5-5.5,10.7-10.2,16.4-14.9
	c1.1-0.3,1.8-2.1,3.7-1.1c-0.8,0.9-1.6,1.8-2.3,2.7C29.3,247.9,23.8,252.9,18.8,258.2z"/>
<path class="st7" d="M133.7,52.6c-3.2,2.5-5.7,5.3-6.1,9.8c-0.2,2.5-1.9,4.6-4.9,4.7c-1.6,0.1-2.9,0.5-4,1.7
	c-0.1-1.2,0.2-2.9,1.3-2.8c5.2,0.3,5.3-3.1,6.3-6.9C127.2,56,130.1,53.5,133.7,52.6z"/>
<path class="st42" d="M144.7,68.2c-1.3-7.2,5.3-8.8,9-12.5C151.7,60.5,145.8,62.6,144.7,68.2z"/>
<path class="st43" d="M106,104.4c-2.6,6.5-5.3,13.1-7.9,19.6c0.6-7.4,3.5-13.8,6.8-20.1C105.3,104.1,105.7,104.3,106,104.4z"/>
<path class="st44" d="M136.2,299.2c-4.4,3.9-8.7,7.8-14.1,12.7c3.5-6.8,8.4-10.1,12.8-14C135.4,298.3,135.8,298.8,136.2,299.2z"/>
<path class="st45" d="M243,72.7c-0.5,1.4-0.5,2.9-0.1,4.3c-2.4-0.9-4.4-2.8-7.2-2.8c-1,0-2-0.7-1.7-1.9c0.3-1.2,1.5-1.2,2.4-1.2
	C238.7,71.2,240.9,71.6,243,72.7z"/>
<path class="st46" d="M156.4,61.4c-3.1,3.7-6.6,7.3-9.4,11.7C145.9,68.5,149.1,64.5,156.4,61.4z"/>
<path class="st7" d="M188.8,325.9c-0.7-0.9-2.1-2.2-0.4-3.2c2.3-1.4,4,0.8,5.7,1.9c1,0.6,1.5,2,0.1,2.8
	C192.1,328.5,190.3,327.7,188.8,325.9z"/>
<path class="st7" d="M90.3,152.3c-2.1-1.3-4.1-2.6-6.2-3.9c2.5-1,4.4-2.3,3.1-5.5C89,145.8,93.8,147.7,90.3,152.3z"/>
<path class="st7" d="M123.8,270.2c3.3,1.7,5.3,3.6,1.7,7.1c-1.3,1.3-0.8,3,0.5,4.3c-3.3-0.4-3-2.9-2.9-5.2
	C123.2,274.3,123.5,272.2,123.8,270.2z"/>
<path class="st47" d="M73.1,249.1c2.9-4.8,6.2-9.3,10.8-12.7C81.1,241.3,77.8,245.8,73.1,249.1z"/>
<path class="st7" d="M361.1,221.6c0.1,0.3,0,0.5-0.2,0.7c-5.6,4.9-11.1,9.9-16.7,14.8c2-4.6,6.3-7.1,9.9-10c3.3-2.7,4.4-5.3,2.4-9.1
	C357.7,219.6,359.5,220.5,361.1,221.6z"/>
<path class="st7" d="M277.1,316.4c3.1-2.7,7.4-3.3,10-6.9c1.4-2,5.7,0.5,7.8,4.3c-3.5-2.8-6.8-4.4-10.6-0.1
	C282.6,315.6,279.9,316.6,277.1,316.4z"/>
<path class="st48" d="M72.1,328.9c2.1-4.8,7-6.7,9.8-10.8C80.6,323.5,76.2,326.1,72.1,328.9z"/>
<path class="st49" d="M369.1,232.9c-0.5,4.5-1.8,8.4-6.2,10.3C364,239.2,366.2,235.9,369.1,232.9z"/>
<path class="st50" d="M364.1,226.8c-0.2,4-0.7,8-4.9,11.8C358.9,233.1,362.4,230.4,364.1,226.8z"/>
<path class="st7" d="M86.8,178.3c4.2,2.4,4.6,2.3,5.1-1.9c-0.1-0.4,0-0.7,0.2-0.7c0.2-0.1,0.4,0,0.5,0.1c2.2,2,1.6,4.1,0.3,6.2
	c-0.6,1-1.5,1.7-2.9,1.2C87.8,182.2,86.4,180.9,86.8,178.3z"/>
<path class="st7" d="M150,356.5c-2.8-2.6-4.1-5.4-5.5-8.5C150,348.2,150.9,351.4,150,356.5z"/>
<path class="st51" d="M111.3,399.9c4.6-0.4,9.2-0.8,14.7-1.3c-4.3,3.1-8.8,1.9-12.7,3c0.4,1.2,1,2.2,2.7,1.8c0.3,1.4-0.5,2-1.6,1.2
	C112.9,403.6,111.6,402,111.3,399.9z"/>
<path class="st52" d="M117.6,274.1c-3.4,3.1-6.8,6.1-10.2,9.2c-0.3-0.4-0.7-0.7-1-1.1c2.9-3.6,6.7-6.4,10.1-9.4
	C116.8,273.3,117.2,273.7,117.6,274.1z"/>
<path class="st53" d="M40.9,280.9c2.5-4.1,6.6-6.2,10.7-8.3c0.3,0.3,0.5,0.7,0.8,1c-3.6,2.8-7.2,5.5-10.7,8.3
	C41.4,281.5,41.1,281.2,40.9,280.9z"/>
<path class="st7" d="M113.7,124.5c0.4,3-0.5,5.4-3.5,6.1c-4.8,1.1-6.1,6.7-10.7,8C102.9,132.6,110.1,130.4,113.7,124.5z"/>
<path class="st54" d="M171,327.1c-6.8,6-13.5,12-20.3,18.1C156.6,338.1,163.2,331.9,171,327.1z"/>
<path class="st55" d="M75.2,386.7c-5.7-3.6-9.1-9.5-13.8-14.1c-1.5-1.5-2.9-3.2-4.3-4.8c3.2,0.8,4.5,3.8,6.5,5.9
	C67.6,377.9,71.3,382.4,75.2,386.7z"/>
<path class="st56" d="M82.8,217.1c-3.1,5.2-8.5,8.1-12.6,12.4c-1.7,1.8-3.7,3.4-5.5,5c0.5-3,3.2-4.1,5.1-5.8
	C74,224.7,78.4,220.9,82.8,217.1z"/>
<path class="st57" d="M35.7,233.8c0.8-1.1,1.7-1.9,4.3-1.6c-5.7,5.2-10.8,9.7-15.9,14.3c-0.5-0.4-0.6-0.9-0.2-1.5
	C27.8,241.2,32.4,238.1,35.7,233.8z"/>
<path class="st7" d="M47.4,242.1c6-2.6,9.7-8.1,14.8-12c-2.8,5.5-7.5,9.2-12.5,12.4C48.8,243,48,242.6,47.4,242.1z"/>
<path class="st58" d="M25.6,257.2c3.9-5.4,9-9.5,15.5-13.7c-1.2,3.1-2.8,4-4.2,5C32.6,250.7,30.4,255.6,25.6,257.2z"/>
<path class="st59" d="M25.6,257.2c4-2.5,6.5-7.1,11.3-8.6c-4.7,4.1-8.9,8.8-13.7,14.3C22.9,259.5,24.5,258.5,25.6,257.2z"/>
<path class="st49" d="M284.8,331.7c-2.5,0.2-4.9,1.8-7.5,0.7c-0.8-0.4-0.8-1.6,0.1-2c2.4-1,4.9-1.9,7.5-0.8
	C285.8,330,285.4,331,284.8,331.7z"/>
<path class="st60" d="M116.8,278.3c-1.4,4.2-5.1,6.2-8.3,8.7C109.9,282.9,113.4,280.6,116.8,278.3z"/>
<path class="st61" d="M113.8,273.3c-3.1,2.8-6.1,5.5-9.2,8.3C106.2,277.2,109.3,274.5,113.8,273.3z"/>
<path class="st7" d="M266,41.2c-6.6,1.6-7.3,1.1-10.3-6.9C258.8,37,261.6,40.3,266,41.2z"/>
<path class="st7" d="M139.5,186c2,2.9,5.2,0.2,8,1.6c-1.7,1.8-3.3,3.4-4.8,5C141.9,190.2,139.7,188.6,139.5,186z"/>
<path class="st1" d="M344.9,89.9c6.3,5,12.1,10.6,15.8,18C355.4,101.9,350.2,95.9,344.9,89.9z"/>
<path class="st62" d="M76.5,306.5c-2.7,3.1-5.3,6.3-9.6,8.1C69.1,310.1,71.9,307.7,76.5,306.5z"/>
<path class="st63" d="M44.6,283.1c2.2-3.1,4.6-6.1,9.8-7.8C51.4,279.6,48.5,281.9,44.6,283.1z"/>
<path class="st7" d="M93.6,305.4c3.5-1,2.1-3,0.9-4.8c-1.1-1.6-2.8-2.9-1.8-5.2c1.1,2.2,2.3,4.4,4.1,6.1c1.2,1.2,2.6,2.6,1.1,4.3
	C96.6,307.4,95,306.5,93.6,305.4z"/>
<path class="st7" d="M372.9,243.6c0.5,3.6-0.8,7.1-1.4,10.6c-0.2,1.4-0.9,2.9-2.9,2.6c1.3-1.6,2.3-3.5,1.9-5.5
	C369.9,248.2,371.1,245.9,372.9,243.6z"/>
<path class="st64" d="M33.8,241.8c-5.5,5-10.9,9.9-16.4,14.9C21.9,250.7,27.5,245.9,33.8,241.8z"/>
<path class="st5" d="M307.5,73.8c-0.8-1.4-3.3-2.3-2.1-4.4c0.8-1.3,2.3-0.9,3.4,0.1c1.7,1.4,1.9,2.9,0.1,4.4
	C308.4,73.8,307.9,73.8,307.5,73.8z"/>
<path class="st65" d="M18.8,258.2c4.6-5.9,10-10.9,16.5-14.8C29.7,248.4,24.2,253.3,18.8,258.2z"/>
<path class="st66" d="M35.7,233.8c-2.7,5.3-8.2,7.7-11.8,12c-0.9,1.2-1.3,3.2-3.5,2C25.5,243.1,30.6,238.5,35.7,233.8z"/>
<path class="st67" d="M137,300.8c-1.5,3.7-4.2,6.3-8.1,9C130.3,304.9,133.9,303,137,300.8z"/>
<path class="st68" d="M161,342.6c-2.4,1.4-2.3-0.3-1.2-1.3c4.6-3.8,8.2-8.8,13.8-11.4c-0.3,2.9-2.7,4-4.6,5.4
	C166.1,337.6,163.3,339.8,161,342.6z"/>
<path class="st69" d="M81.8,190.6c-4.9,4.5-9.9,9-14.8,13.5C70.9,198.5,76,194.1,81.8,190.6z"/>
<path class="st7" d="M306.6,334.2c0.3-2.9,3.2-4.1,4.5-3.1c3.3,2.5,5.7,0.2,8.4-0.5c-2.5,2.1-4.5,5.6-8.6,1.9
	C309.8,331.6,307.8,333.1,306.6,334.2z"/>
<path class="st70" d="M101.3,335.5c-2.8,3.9-5.5,5.9-9.2,6.8C94.3,339.4,96.9,337.1,101.3,335.5z"/>
<path class="st7" d="M142.8,298.8c1.6-1.5,3.6-2.5,5.3-0.8c1.8,1.8,0,4-0.6,6C146.3,301.8,146.5,298.6,142.8,298.8z"/>
<path class="st71" d="M128.7,407.6c-3.6,0-7.2,0-10.8,0c3.5-2.6,7.2-1.8,10.8-1.4C128.7,406.7,128.7,407.1,128.7,407.6z"/>
<path class="st72" d="M17.2,287c-1.7-3.3-0.8-6.1,2.2-9C19.8,281.6,18.6,284.3,17.2,287z"/>
<path class="st73" d="M161,342.6c3.2-5.3,8.7-8.2,12.7-12.7c0.3-0.1,0.5-0.3,0.8-0.4c-0.1,3.9-3.8,4.8-6,6.9
	C166,338.5,163.5,340.6,161,342.6z"/>
<path class="st74" d="M373.1,284c-3.6,5.6-9.2,8.9-13.8,13.4C362.8,291.8,368.4,288.4,373.1,284z"/>
<path class="st75" d="M182.6,334.3c-1.9,3.5-5.5,4.7-8.5,6.7C175.9,337.4,179.2,335.8,182.6,334.3z"/>
<path class="st7" d="M92.6,175.8c-0.2,0.2-0.5,0.4-0.7,0.7c-2.1-2.1-1.7-4,0.4-5.8c2.7-2.3,5.4-4.8,8-7.2c-0.9,3.4-4.1,4.6-6.2,6.9
	C92.6,171.9,90.8,173.3,92.6,175.8z"/>
<path class="st76" d="M167.5,342.7c-0.5-0.3-1.5,1.9-1.6-0.3c3.6-4,7.5-7.6,12-10.7c0.4,0,0.9,0.1,1.3,0.1
	C176,336.2,171.7,339.4,167.5,342.7z"/>
<path class="st7" d="M243.6,50.6c-0.9,0-1.9-0.1-2.8-0.1c3.4-2.7,6.9-5.3,10.3-8c0.2,0.2,0.4,0.5,0.7,0.7
	C249.5,46.3,246.8,48.8,243.6,50.6z"/>
<path class="st77" d="M96.6,314.8c-5-3.2-8.6-7.5-11.5-12.6C89,306.4,92.8,310.6,96.6,314.8z"/>
<path class="st78" d="M123,369c1.4-3.9,4.4-4.9,6.5-7.6C129.2,365.7,128.4,366.5,123,369z"/>
<path class="st79" d="M100,331.7c4.8,3.4,8.6,7.7,11.6,12.8C107.4,340.5,103.6,336.2,100,331.7z"/>
<path class="st7" d="M134.7,264.4c-5.3-1.1-2.9-5.6-3.8-8.7c2.5,0.3,3.1,1.7,2.3,3.9C132.3,261.6,133.3,263,134.7,264.4z"/>
<path class="st80" d="M98.5,344c1.1-2.9,3.3-4.4,6-5.4C103.4,341.5,101.4,343.2,98.5,344z"/>
<path class="st5" d="M163.1,201.5c-0.5-0.9-0.7-1.9,0.2-2.6c1.2-0.8,2.2-0.2,3,0.7c0.7,0.9,0.9,1.8-0.2,2.5
	C165,202.8,163.9,202.5,163.1,201.5z"/>
<path class="st5" d="M124.5,161.9c4.8,2.4,1.3,5.2,0.3,7.8c-2.8-0.8-0.6-2.3-0.5-3.6C123.8,164.7,123.9,163.3,124.5,161.9z"/>
<path class="st7" d="M126.6,255.4c0.7,1,1.3,2.1,0.3,3.1c-0.8,0.8-2,0.2-2.7-0.4c-1.4-1.1-2.6-2.5-3.9-3.8
	C122.5,254.7,124.3,256.4,126.6,255.4z"/>
<path class="st7" d="M32.1,262.5c-2.4,1.3-2.9,4.5-5.7,5.3c-1.8,0.5-3.6,0.6-5.1-0.9C25.9,267.9,28.3,263.5,32.1,262.5z"/>
<path class="st5" d="M331.8,82.9c-0.5,0.6-1.2,1.2-1.6,1.8c-0.9,1.5-1.8,1.7-3,0.5c-1.9-1.9,0.2-2.4,1.1-3.2
	C329.4,82.3,330.6,82.6,331.8,82.9z"/>
<path class="st81" d="M111.4,346c-2.8,4.8-7.7,7.6-11.4,11.4C102.7,352.5,107.4,349.7,111.4,346z"/>
<path class="st82" d="M115.9,363c0.7-3.7,3.2-5.3,6.6-5.9C120.3,359.1,118.1,361,115.9,363z"/>
<path class="st7" d="M104.4,247.2c2-1.9,3.6-1.6,5,0.8c1.5,2.6,3.5,2.4,5.5,0.5c-1.1,3.8-3.3,3.6-5.6,1.2
	C108,248.1,106.6,247.1,104.4,247.2z"/>
<path class="st83" d="M167.5,342.7c3.9-3.6,7.8-7.3,11.7-10.9C176.5,336.8,172.3,340,167.5,342.7z"/>
<path class="st84" d="M177.8,331.6c-4,3.6-8,7.1-12,10.7C168.9,337.8,172.8,334.1,177.8,331.6z"/>
<path class="st85" d="M136.4,310.3c-0.2-3,2.2-4.3,2.6-6.5c0-0.2,0.9-0.5,1.2-0.4c0.7,0.3,0.8,0.9,0.6,1.6
	C139.9,307.1,139,309,136.4,310.3z"/>
<path class="st86" d="M96.9,279.3c1.5-3.8,5.2-5.4,7.9-7.9c0.3-0.3,1.4-0.6,1.4,0.5c0,0.5-0.8,1-1.2,1.4
	C101.4,274.1,99.8,277.6,96.9,279.3z"/>
<path class="st87" d="M175.8,304c5.1,2.1,6.7,7.6,10.7,10.7C181.4,312.7,179.9,307,175.8,304z"/>
<path class="st88" d="M79.2,248.7c1.1-4,4.7-5.6,7.5-8.1C84.8,243.9,81.4,245.8,79.2,248.7z"/>
<path class="st7" d="M122.4,321.3c0.4-2.6,2.3-3.6,4.5-4.2C126.2,319.4,124.6,320.6,122.4,321.3z"/>
<path class="st89" d="M49.9,315.4c3.8-3.4,7-7.5,11.7-9.8C57.9,309.1,54.7,313.2,49.9,315.4z"/>
<path class="st90" d="M191.9,104.9c-3.8,3.5-7.7,7-11.5,10.5C183.4,110.9,187.2,107.3,191.9,104.9z"/>
<path class="st7" d="M294.9,313.8c1.4,1.8,0.8,3.3-0.7,4.7c-1.4,1.3-2.1,2.7,0.3,3.8c-1.1,0.7-2.1,0.7-2.9-0.5
	c-0.7-1-0.3-1.9,0.5-2.6C293.8,317.8,294.5,315.9,294.9,313.8z"/>
<path class="st7" d="M380.1,214.2c3.1-3.1,1.5-6.5,0.5-9.9C385.2,209.5,385.2,209.5,380.1,214.2z"/>
<path class="st91" d="M83.6,197.2c-1.6,3.6-3.3,5.2-6.3,6.4C78.4,200.6,80,198.8,83.6,197.2z"/>
<path class="st92" d="M163.7,292c4.4,2.2,6.7,6.6,10.1,10C169.3,299.7,167.1,295.3,163.7,292z"/>
<path class="st7" d="M173.3,39.9c-3.1,1.4-5.3,4.3-8.8,5.2C166.7,42,169.1,39.4,173.3,39.9z"/>
<path class="st93" d="M116.7,164.8c-0.3-1.2-0.5-2.4-0.8-3.6c2.3-0.5,4.2,0.5,4.2,2.6C120.1,165.6,118.1,165.3,116.7,164.8z"/>
<path class="st7" d="M98.1,138.6c-3.9,2.6-6.7-0.5-9.8-1.9C91.8,135.8,94.6,138.8,98.1,138.6z"/>
<path class="st94" d="M234.9,160.9c3.6-3.2,7.2-6.5,10.8-9.7C243,155.4,239.4,158.6,234.9,160.9z"/>
<path class="st95" d="M9.1,259.2c2.4-2.2,4.7-4.5,7.1-6.7c1-1.1,1.4-3.4,3.8-1.9c-1.2,1.1-2.3,2.3-3.5,3.4
	C14.2,256,13,259.4,9.1,259.2z"/>
<path class="st96" d="M85.3,327.4c-3.2,3.5-6.9,6.5-11,9C77.4,332.8,81.2,329.9,85.3,327.4z"/>
<path class="st7" d="M351.7,242.5c-1.4,1.3-3.2,2.3-4.7,0.5c-1.4-1.6-4.6-2.6-2.8-5.9C345.3,240.9,347.5,243.1,351.7,242.5z"/>
<path class="st13" d="M156,237.4c3-0.8,6.1-0.7,9.2-0.3C162.2,238.8,159.1,238.9,156,237.4z"/>
<path class="st7" d="M32.5,336.2c3.6-0.5,4.9,0.9,4,4.5C35.2,339.1,33.9,337.6,32.5,336.2z"/>
<path class="st7" d="M78.9,275.6c1.7-1,1.8-4.1,4.8-3.8c-0.4,2.4-1.6,4-4.1,4.5C79.3,276.1,79.1,275.8,78.9,275.6z"/>
<path class="st97" d="M34.2,344.2c-3.9-1.8-5.8-5.7-8.7-8.6c0-0.4,0.1-0.5,0.3-0.5c0.1,0,0.3,0.1,0.4,0.2
	C28.9,338.2,31.5,341.2,34.2,344.2z"/>
<path class="st98" d="M26.2,335.3c-0.2,0.1-0.5,0.2-0.7,0.3c-2.6-3.1-6.2-5.3-7.5-9.4C20.7,329.2,23.5,332.3,26.2,335.3z"/>
<path class="st99" d="M77.7,310.5c-1.2,2.9-2.7,4.2-5.4,5.4C73,312.6,74.4,311.2,77.7,310.5z"/>
<path class="st100" d="M86.1,283.7c1.8-3.9,5.7-5.9,8.6-8.7C92.9,278.9,89,280.9,86.1,283.7z"/>
<path class="st101" d="M19.9,250.5c-1.8-0.5-2.4,1.4-3.8,1.9c0.5-2.4,2.6-3.3,4.2-4.7c1.7,0.3,2.3-1.4,3.5-2
	c0.1,0.2,0.2,0.5,0.3,0.7C22.8,247.9,21.3,249.2,19.9,250.5z"/>
<path class="st13" d="M168.8,235.1c1.2-3.9,4.8-5.4,7.8-7.4c-1.5,1.5-2.9,3-4.4,4.5C171.3,233.3,170.3,234.5,168.8,235.1z"/>
<path class="st102" d="M106.9,127.4c-0.3-2.8,0.7-4.8,2.3-7C109.6,124.2,109.6,124.2,106.9,127.4z"/>
<path class="st7" d="M267.3,42.7c-0.4-0.5-0.9-1-1.3-1.5c3.4-0.6,6.6-0.1,9.1,2.6C272.2,45,270,42.7,267.3,42.7z"/>
<path class="st103" d="M190.5,282.7c2.8-2.5,5.7-5,8.5-7.5C196.9,278.6,194.4,281.5,190.5,282.7z"/>
<path class="st104" d="M68.9,345.2c3-2.3,5-5.8,8.8-6.9C74.9,340.8,72.8,344.1,68.9,345.2z"/>
<path class="st105" d="M9.1,259.2c3.3-0.5,4.8-3.7,7.3-5.2c-1,3.2-3.9,4.7-6.3,6.5C9.1,261.3,8.4,260.5,9.1,259.2z"/>
<path class="st106" d="M72.4,319.7c2.2-2.9,3.5-4.5,6.4-4.1C77.4,317.6,76.1,319,72.4,319.7z"/>
<path class="st7" d="M211.1,35.5c-2.5,2.9-5.1,3.6-7.8,0.3C205.9,36.4,208.5,36.1,211.1,35.5z"/>
<path class="st107" d="M325.1,332.1c-2.8,2.4-5,5.8-8.8,7C319.2,336.7,321.3,333.4,325.1,332.1z"/>
<path class="st7" d="M124.2,166.1c0.2,1.2-0.5,2.5,0.5,3.6c0.9,1,1.8,2,2.7,3C124.2,171.6,120.8,170.5,124.2,166.1z"/>
<path class="st7" d="M361.4,247.2c-3.4-0.8-4.4-4.1-6.8-6C359.1,240.8,358.6,245.8,361.4,247.2z"/>
<path class="st7" d="M119.8,210.5c-0.7,0.2-1.4,0.4-2.2,0.6c-1.9-2.6-2.1-4.7,1.7-5.6C119.1,207.2,120.1,208.8,119.8,210.5z"/>
<path class="st7" d="M396.4,198.1c-0.7,0.4-1.3,0.7-1.8,0.1c-0.5-0.7-0.4-1.6,0.2-2.2c0.7-0.7,1.5-0.7,2.1,0.1
	C397.5,196.8,396.9,197.5,396.4,198.1z"/>
<path class="st5" d="M119.8,210.5c-1.5-1.5-2.2-3.1-0.4-5c0.7,0.7,1.3,1.5,2,2.2C121.1,208.8,121.5,210.3,119.8,210.5z"/>
<path class="st108" d="M129.9,336.9c2-3.3,4.7-5.9,8.4-7.4C135.5,332,132.7,334.5,129.9,336.9z"/>
<path class="st109" d="M168.4,336.4c1.7-2.6,5.4-3.4,6-6.9c1.6-0.4,2.4,0.2,1.1,1.4C173.4,333,171.7,335.7,168.4,336.4z"/>
<path class="st7" d="M353.1,108c-0.2-3.1-3.1-4.4-4.6-6.6c2.9,1.7,6.2,3,5.3,7.4C353.5,108.5,353.3,108.3,353.1,108z"/>
<path class="st7" d="M125.5,324.5c1.8-2.6,3-3.8,5.5-4.1C130,323.2,127.9,323,125.5,324.5z"/>
<path class="st110" d="M151.6,209.8c-2.2,2.1-4.4,4.2-6.5,6.3c-0.3,0.2-0.6,0.4-0.9,0.6C145.6,213.3,148.3,211.2,151.6,209.8z"/>
<path class="st111" d="M133.3,358.6c3.6,1.2,5.4,4,6.9,7.2C137.9,363.4,135.6,361,133.3,358.6z"/>
<path class="st112" d="M119.7,225.5c-3.2-1.6-5.5-4.1-6.8-7.5C115.1,220.5,117.4,223,119.7,225.5z"/>
<path class="st113" d="M181.2,349c2.4-2.4,4.7-5,8.1-6.1C186.9,345.3,184.6,347.8,181.2,349z"/>
<path class="st114" d="M187.6,26.1c2.8-1.5,6-1,9-1.5c1.6,0.4,3.2,0.7,4.8,1.1c0,0.2,0.1,0.5,0.1,0.7c-2.6,0.2-5.2,0.1-7.7,0.5
	c-2.1,0.3-4.7-0.9-6.3,1.7C186.8,27.8,187.6,26.9,187.6,26.1z"/>
<path class="st5" d="M307,149.5c-3.7,2.4-4.6,2.2-5.6-2c-0.5-2.2-0.5-4.6-3.9-5.5c1.4,4.7,1.3,8.4-3.9,10.3c-2.2,0.8-3.9,1.1-6-0.3
	c-2.9-2-4.7-1.1-4.2,2c0.5,2.8-0.1,3-2.6,2.9c-2.9-0.1-5,3.4-8.3,2.2c5-2.2,8.4-6.4,12.4-9.8c4.5-3.8,5.8-3.7,8.4,1.5
	c2.7-1.6,4.5-3.3,2.3-6.7c-1-1.5-0.3-2.9,1.2-3.8c1.6-1,2.8-0.3,4,0.9c1.6,1.6,2.7,3.6,2.5,5.8C302.8,150.4,304.8,150,307,149.5z"/>
<path class="st5" d="M213.1,212.5c0,1.8-1.5,2.5-2.4,3.6c-1.9,2.1-3.3,4.1,0.4,5.8c2.8,1.3,2.2,4,1.1,5.5c-1.4,1.9-4.2,1.5-5.7-0.2
	c-1.8-2-2.8-2.8-5-0.5c-2,2.1-4.3,1-6-1c5.4,1.3,8.9-2.6,11.4-5.9C208.8,217.3,210.9,214.8,213.1,212.5z"/>
<path class="st5" d="M272.6,159c-8.4,8.5-16.8,17-25.9,24.7c-1.4,1.1-2.4,2.9-4.5,2.8c9.2-7.7,17.4-16.3,25.9-24.7
	C269.3,160.6,270.4,158.9,272.6,159z"/>
<path class="st5" d="M267.3,42.7c2.8-1,5.1,1.1,7.7,1.1c3.6,3.6,6.3,8.1,11.7,9.7c2.5,0.7,1.3,4.7,3.8,6c-5.3-2.8-9.7-7.1-13.5-11.4
	C274.1,44.8,270,45.4,267.3,42.7z"/>
<path class="st5" d="M236.9,191.1c-5.3,5.5-9.9,11.9-17.1,15.4c4.8-3.8,7.9-9.4,12.9-13C234,192.6,235,191,236.9,191.1z"/>
<path class="st5" d="M290.5,59.5c2.9,0.5,9.2,6,9.5,8.3c0.3,2-1.2,2.9-2.4,4.1C296.8,66.8,295,62.4,290.5,59.5z"/>
<path class="st5" d="M333.1,151.6c-3.3-3.1-6.6-6.3-9.9-9.3c-1.9-1.7-4.2-1.5-6.5-1.4c1.3-1.3,3-2.2,4.4-1
	C325.5,143.3,331,145.7,333.1,151.6z"/>
<path class="st5" d="M349.9,155.3c0.5,1.3,1.1,2.7,1.9,4.7c-3.8-2.6-8,2.6-11.3-1.6C344.2,158.9,347.6,158.9,349.9,155.3z"/>
<path class="st5" d="M243.6,50.6c2.7-2.5,5.4-4.9,8.2-7.4C250.1,46.9,247.4,49.4,243.6,50.6z"/>
<path class="st5" d="M314.5,142.8c-1.4,3.4-3.9,5.6-7.4,6.7C309.5,147.3,312,145.1,314.5,142.8z"/>
<path class="st6" d="M225.7,241.5c-2.8-6.2-2.8-13.2-4.6-19.6c-0.4-1.5,0.6-2.6,1.4-3.6c3.3-4.7,6.3-9.5,10.9-13.2
	c3.3-2.7,5.8-6.3,8.7-9.4c7-6.9,14.1-13.5,21.8-19.5c11-7.6,22.8-13.7,35.6-17.4c6.2-1.8,10.7,3.1,15.7,5.8c0.8,0.5,1.4,1.5,2.2,2
	c9.6,5.7,10.2,14.5,8.7,24.2c-1.6,11-6.8,20.4-13.6,28.8c-4.1,5-7.7,10.4-11.9,15.3c-4.3,4.8-9.1,9-14.2,12.8
	c-3.9,2.3-37.2,10.5-41.4,10.1c-1.9-0.2-3.9-0.8-5.8-1.3C234.1,252,229.7,247,225.7,241.5z"/>
<path class="st115" d="M330.5,165.1c-2.5-4.9-6.7-10-14.2-11.3c-1-0.2-1.6-1.2-1.2-2.4c0.5-1.2,1.6-1.1,2.5-0.9
	c5.7,0.9,10.9,3,14.6,7.7c4,5,9.2,7.5,15.4,8.2c4.4,0.4,8.6,0,11.7-3.9c1.4-1.7,3.1-1.8,4.9-0.7c1.9,1.2,1.7,3.1,1.2,4.9
	c-1.2,4.2-7,8.3-12.6,8.3C344.6,175,337,173,330.5,165.1z"/>
<path class="st116" d="M322,217c-8.4,15-17.8,29.1-35.2,35.3c6.6-5,13.8-9.2,19.5-15.5C311.9,230.5,316,223.1,322,217z"/>
<path class="st5" d="M372.8,161.1c-0.4-0.8-2.8-1.9-0.9-3.1c2-1.3,4.5-0.5,6.1,1.6c0.6,0.8,1.8,1.2,0.3,2.5
	C376.1,164.1,374.5,163.7,372.8,161.1z"/>
<path class="st117" d="M296.2,258.6c2.5-4.6,5.8-6.8,9.7-8.1C303.7,253.8,301.8,257.5,296.2,258.6z"/>
<path class="st118" d="M263.9,176.1c-7.3,6.5-14.5,13-21.8,19.5C248.4,188.1,255.6,181.5,263.9,176.1z"/>
<path class="st119" d="M225.7,241.5c4.5,5,9,10,13.5,15C233.4,252.6,229.1,247.5,225.7,241.5z"/>
<path class="st120" d="M286.4,247.7c4.7-4.3,9.4-8.6,14.2-12.8C296.8,240.2,292,244.4,286.4,247.7z"/>
<path class="st5" d="M146.1,155.2c-0.6,0.6-1.2,0.7-1.7,0.1c-0.7-0.8-0.8-1.8-0.2-2.8c0.4-0.6,1-1,1.6-0.5
	C146.9,153,146.5,154.1,146.1,155.2z"/>
<path class="st5" d="M334.6,310.4c-3.2-2-2.2-3.9-0.6-6.2c2.7-3.9,5.9-7.5,7.9-11.9c1.3-2.8,3.7-2.9,5.8-1.2c1.9,1.5,2.5,4,0.4,5.6
	c-4.2,3.3-6,7.4-6.5,12.6C341.1,313.7,338,313.9,334.6,310.4z"/>
<path class="st6" d="M187,236.2c1.2-1.6,2.8-1.5,4.5-1.1c1.9,0.5,2.1,2,2.1,3.5c0,2.1,0.7,4.3-0.4,6.4c-1,1.9-0.2,3.4,1.1,5
	c2.6,3.2,3.7,6.5,0.5,10.3c-1,1.1-0.8,3.2-1.5,4.7c-0.8,1.7-2.4,2.2-4.2,1.9c-1.3-0.2-2.4-0.9-2.5-2.1c-0.2-2.1,1.8-2,3.1-2.5
	c1.4-0.5,3.4-1,3-2.7c-0.5-2.3-2.9-1.5-4.7-1.7c-1.7-0.2-3.5,3.2-5-0.1c-1.2-2.6-0.8-5.3,1.3-6.8c3.7-2.7,3.3-5.6,1.4-9
	C184.4,239.5,184.7,237.6,187,236.2z"/>
<path class="st5" d="M208.9,287.7c0.3,1.9-0.5,3.3-1.8,4.3c-3.2,2.5-4.2,5.8-3.6,9.7c0.1,1,0.6,2.1-0.4,2.7
	c-1.2,0.7-2.2-0.1-3.2-0.7c-3.8-2.6-3.9-5.8-0.3-8.7c1.5-1.2,2.8-2.8,4.3-4C205.3,289.7,206.3,287.8,208.9,287.7z"/>
<path class="st5" d="M393.1,213.7c-0.8,0.8-1.7,0.8-2.5-0.1c-1.1-1.2-0.1-2.1,0.7-2.8c0.8-0.7,1.6-1.2,2.4-0.1
	C394.9,212.1,393.7,212.8,393.1,213.7z"/>
<path class="st5" d="M289.1,336.1c0.2-1.4,0.5-2.6,2.1-2.8c0.7-0.1,1.3,0.5,1,1.2C291.7,335.9,290.7,336.6,289.1,336.1z"/>
<path class="st5" d="M370.5,230.3c-1.1-2.3,0-3.5,1.4-4.6c1.2-0.9,2.3-1.1,3.3,0.5c0.9,1.6,0.5,2.8-0.8,3.9
	C372.9,231.5,371.6,230.5,370.5,230.3z"/>
</svg>
