<?xml version="1.0" encoding="utf-8"?>
<!-- Generator: Adobe Illustrator 27.1.0, SVG Export Plug-In . SVG Version: 6.00 Build 0)  -->
<svg version="1.1" id="Capa_1" xmlns="http://www.w3.org/2000/svg" xmlns:xlink="http://www.w3.org/1999/xlink" x="0px" y="0px"
	 viewBox="0 0 435.3 408.6" style="enable-background:new 0 0 435.3 408.6;" xml:space="preserve">
<style type="text/css">
	.st0{fill:#FEFEFE;}
	.st1{fill:#192C30;}
	.st2{fill:#5E6062;}
	.st3{fill:#7A8E91;}
	.st4{fill:#5D5D5F;}
	.st5{fill:#FFFFFF;}
	.st6{fill:#192E31;}
	.st7{fill:#FEFFFF;}
	.st8{fill:#182D2F;}
	.st9{fill:#1A2F31;}
	.st10{fill:#192E30;}
	.st11{fill:#192F32;}
	.st12{fill:#192F31;}
	.st13{fill:#182E32;}
	.st14{fill:#1C3033;}
	.st15{fill:#3B4545;}
	.st16{fill:#5A5A5A;}
	.st17{fill:#6B6A6B;}
	.st18{fill:#223434;}
	.st19{fill:#3F4647;}
	.st20{fill:#595858;}
	.st21{fill:#43514F;}
	.st22{fill:#AEB1B0;}
	.st23{fill:#545555;}
	.st24{fill:#6E6E6E;}
	.st25{fill:#5C5C5C;}
	.st26{fill:#616161;}
	.st27{fill:#5A6563;}
	.st28{fill:#4A5553;}
	.st29{fill:#5E5D5E;}
	.st30{fill:#2E3C3B;}
	.st31{fill:#424A48;}
	.st32{fill:#7A7A7A;}
	.st33{fill:#343E3E;}
	.st34{fill:#4C4F4F;}
	.st35{fill:#454C4B;}
	.st36{fill:#33413F;}
	.st37{fill:#1E2F30;}
	.st38{fill:#4E5453;}
	.st39{fill:#5E5E5E;}
	.st40{fill:#838383;}
	.st41{fill:#1D2828;}
	.st42{fill:#5D5D5D;}
	.st43{fill:#8E8E8E;}
	.st44{fill:#475050;}
	.st45{fill:#4A5453;}
	.st46{fill:#6D6D6D;}
	.st47{fill:#6F7777;}
	.st48{fill:#444E4C;}
	.st49{fill:#696969;}
	.st50{fill:#676767;}
	.st51{fill:#C2C9CA;}
	.st52{fill:#4A5757;}
	.st53{fill:#344142;}
	.st54{fill:#99A7A5;}
	.st55{fill:#BABDC0;}
	.st56{fill:#748385;}
	.st57{fill:#CBD1D0;}
	.st58{fill:#6F7576;}
	.st59{fill:#313939;}
	.st60{fill:#50585A;}
	.st61{fill:#4A5253;}
	.st62{fill:#565C5D;}
	.st63{fill:#4C5655;}
	.st64{fill:#9FA0A3;}
	.st65{fill:#7E8C8B;}
	.st66{fill:#3B4241;}
	.st67{fill:#575F60;}
	.st68{fill:#90A1A1;}
	.st69{fill:#C8D0CF;}
	.st70{fill:#4F5657;}
	.st71{fill:#575B5B;}
	.st72{fill:#454A49;}
	.st73{fill:#0F1F1F;}
	.st74{fill:#7A8788;}
	.st75{fill:#424B4A;}
	.st76{fill:#121E1F;}
	.st77{fill:#596264;}
	.st78{fill:#313A39;}
	.st79{fill:#869597;}
	.st80{fill:#464D4C;}
	.st81{fill:#586364;}
	.st82{fill:#3B4644;}
	.st83{fill:#BBC1C1;}
	.st84{fill:#B2BEBF;}
	.st85{fill:#424B49;}
	.st86{fill:#8F9E9C;}
	.st87{fill:#747C7F;}
	.st88{fill:#2A3434;}
	.st89{fill:#737F81;}
	.st90{fill:#5B5F5E;}
	.st91{fill:#586160;}
	.st92{fill:#717C7F;}
	.st93{fill:#243433;}
	.st94{fill:#646E6D;}
	.st95{fill:#343D3C;}
	.st96{fill:#A4ADAF;}
	.st97{fill:#687375;}
	.st98{fill:#BFC7C9;}
	.st99{fill:#363D40;}
	.st100{fill:#717E80;}
	.st101{fill:#838E8C;}
	.st102{fill:#868686;}
	.st103{fill:#595859;}
	.st104{fill:#BBBDBD;}
	.st105{fill:#AAB1B0;}
	.st106{fill:#484B4D;}
	.st107{fill:#71797C;}
	.st108{fill:#768183;}
	.st109{fill:#778083;}
	.st110{fill:#889493;}
	.st111{fill:#7D8686;}
	.st112{fill:#7C8A89;}
	.st113{fill:#818689;}
	.st114{fill:#DDDDDF;}
	.st115{fill:#1D2E31;}
	.st116{fill:#666665;}
	.st117{fill:#737373;}
	.st118{fill:#7C888A;}
	.st119{fill:#636D6F;}
	.st120{fill:#9FAAAD;}
</style>
<path class="st0" d="M18.1,234.4c1.2-1.1,2.3-2.3,3.5-3.4c0.7-2.2,2.6-3.4,4.2-4.8c18-16.3,36.2-32.3,54-48.8
	c1.1-0.6,2.2-1.4,3.5-1.3c3.5-1.2,5.4-4.4,8.2-6.5c0.6-2.3-0.2-4.4-1.1-6.5c-1.3-3.4-2.1-6.9-0.5-10.5c-3.2-16.9,0.7-32.6,7.7-47.8
	c4.1-11.7,8.5-23.3,14.1-34.4c6.4-12.7,16-23,25.3-33.5c3.5-3.9,7.4-7.3,11.5-10.4c12.7-5.8,23.7-14.6,36.3-20.7
	c7-3.4,14.2-5.4,22-5.7c24.3-0.9,47.3,3.3,69.6,13.7c15.2,7.1,30.4,13.8,44,23.9c3.3,2.4,6.2,5.4,9.2,8.2c1.4,1.3,2.4,3.3,4.6,3.6
	c3-0.1,5,2,6.7,3.8c5.3,5.8,11.6,10.4,17.3,15.6c0.6,0.6,1.1,1.2,1.6,1.9c4.6,6.1,10.2,11.3,15,17.2c3.7,5.8,8.3,11.1,9.2,18.5
	c0.3,2.7,3.6,3.8,5,6.1c7.9,12.8,17.2,24.8,22.2,39.2c1.2,3.5,2.4,6.9,1.9,10.6c0.2,0.7,0.4,1.5,0.5,2.2c2.7,3.8,3.6,8.4,3.8,12.7
	c0.6,12.4,2.1,24.9-2.8,36.9c-0.3,0.6-0.2-0.2-0.1,0.5c1.3,17.5-10.2,29.1-19.2,41.7c-2.7,3.7-5.1,7.8-8.8,10.8
	c-4.3,4.3-9.5,7.6-13.1,12.6c-2.4,4.6-5.4,8.4-9.3,12c-6.1,5.7-11,12.7-17.6,17.9c-2.2,1.7-4.1,3.8-6.6,5.3
	c-3.2,1.6-6.4,3.2-8.5,6.3c-6.2,3.4-12.7,5.6-19.9,4.8c-1-0.1-2-0.5-2.9,0.1c-8.5,5.1-16.9,2.4-25.4,0c-1.4-0.8-2.9-0.6-4.3,0
	c-1.9,0.8-3.6,0.4-5.1-0.8c-0.5-0.1-0.9-0.1-1.4-0.2c-2.4,0.2-4.9,1.8-7.3-0.3h0.1c-4.7-0.7-9.7,0.7-14.1-2.2v0.3l0.1-0.3
	c-3.4,0.1-6.3-2.2-9.7-1.8c-4.7,0.5-9.2,1.4-12.5,5.2c-1.1,1.2-2.5,2.2-4.2,2.5c-1.5,0.5-2.5,1.6-3.6,2.6
	c-12.6,11.1-24.4,23-37.4,33.7c-1.6,1.3-2.2,3.3-3.4,4.9c-7.3,8-16,14.7-24,22c-2.8,2.6-6.8,2.2-10.3,2.9c-3.7,0.6-7.5,1.2-11.2,1.8
	c-7.1,0.9-13.5-0.9-19-5.5c-0.6-0.4-1.3-0.7-1.9-1.1c-1.6,0.1-3-0.3-3.6-2c-0.7-0.9-1.6-1.6-2.7-1.7c-3.5-0.4-6-2.4-8-5.1
	c-4.5-3.5-8.4-7.6-12.3-11.8c-5.6-6.5-10.7-13.3-17.5-18.7c-6.3-4.8-11.6-10.7-16.7-16.7c-0.4-0.5-0.7-1-0.8-1.6
	c-0.8-3-3.8-3.7-5.7-5.5c-2.3-3.2-5.2-5.9-7.8-8.8s-5.2-5.7-7.7-8.7c-2.4-4.5-5.3-8.5-8.2-12.7c-5-7.1-9-15.2-12.6-23.2
	c-1.1-2.3-1.7-5.1-0.2-7.7c-0.3-2.7-0.7-5.4-1.8-7.9c-0.9-1.1-0.8-2.2-0.4-3.5c-0.1-0.9-0.2-1.8-0.3-2.7c-1.5-1.8-0.7-3.7,0.5-4.9
	C12,243,13.8,237.8,18.1,234.4z"/>
<path class="st1" d="M386.9,265.9c7-10.8,15.7-20.4,22.3-31.4c2.1-3.5,3.1-7.1,3.3-11.2c0.3-5.6,1.1-11.2,2.5-16.6
	c1.8-6.9,1.1-13.6,1.4-20.5c0.2-7.4-2.5-14.2-2.5-21.4c4.2-1.3,7,1.5,9.7,3.9c2.3,2,0.5,3.8-1.6,4.3c-3.7,0.9-2.3,2.6-0.8,4.1
	c2.1,2.1,4.4,4.2,7.9,3c2.1-0.7,3.9-0.6,5.3,1.3c1.1,1.5,1.3,3.2,0.3,4.7c-1.1,1.8-2.7,2.8-5,2.1c-2.8-0.8-5,0.9-6.5,2.6
	c-1.4,1.6,1,2.8,1.9,4.1c0.7,1.1,1,2.3,0.3,3.3c-3.3,4.5-5,9.7-6.9,14.8c-0.5,1.4-2.8,1.3-3,3.5c3.8-0.5,5.6,0.3,3.7,4.6
	c-0.8,1.8,0.5,4.5,0.7,6.8c0.4,4.5-0.9,5.1-5.1,5.3c-2.4,0.1-5.4,2.3-5.6,5.6c-0.3,4.4-4,8.4-1.2,13.3c0.8,1.4-1.5,4.3-3.3,5.1
	c-2.7,1.3-4.6,3.5-6.2,5.5c-2.5,3.2-5.6,4.1-9.2,5.1c-6.1,1.8-9.9,7.1-14,11.5c-1.8,1.8,1.3,2.3,2.7,2.8c1.3,0.5,3.4,0.6,2.9,2.7
	c-0.5,2-2.2,0.6-3.4,0.7c-0.7,0.1-1.8,0.1-1.9,0.3c-0.7,4.3-7.1,4.6-6.6,9.6c0.1,0.8-0.5,1.7-1.5,1.7c-1.1,0-1.2-1-1-1.8
	c0.4-1.4-0.1-2.5-1.3-2.8c-1.1-0.3-1.7,0.8-2.2,1.7c-0.5,0.9-1.9,1.6,0,2.7c2.4,1.4,1.2,2.9-0.4,3.8c-5.5,3.1-9.7,7.4-13.5,12.3
	c-2.7,3.4-6.6,5.4-10,8.1c-0.3,0.2-1,0.5-1.2,0.4c-1-0.8-1.1-3.4-3.2-1.7c-1.4,1.1-0.2,2.9-0.5,4.3c-0.5,2.7-3.5,3.5-4.7,5.6
	c-1.5,2.4-2.9,3.7-6,2.5c-2-0.8-3.6,0.6-4.8,2.5c-1.4,2.3-3.2,1.9-3.6-0.8c-0.3-1.9-1.2-3.5-2.3-4.9c-1.4-1.6-2.6-4.5-4.5,0.3
	c-1.2,3.1-4.6,5.4-7.3,7.8c-1.8,1.6-3.9,0.2-5.5-1c-1.4-1-3.2-2-2.7-4.3c0.2-0.8,1.9-1.9,0.2-2.2c-2-0.4-4.2-1.4-6.3-0.3
	c-1,0.6-1.7,2.3-1.1,3.1c3.7,4.7,0.6,7.1-2.8,9.6c-0.9-0.1-1.3-0.6-1.3-1.5c3.5-4.5,1.1-9.4,0.7-14.1c0-0.4,0.1-0.6,0.3-0.7
	c0.3-0.1,0.4-0.1,0.5,0c5,1,9.7,3.6,15.1,2.3c10.5-2.5,21.6-2.4,31.8-6.7c3.5-1.7,5.5-5.2,8.8-7c9.1-7.4,17.4-15.7,25.6-24
	c3.2-3.3,4.7-7.9,8.5-10.7C377.2,274.3,382.8,270.9,386.9,265.9z"/>
<path class="st1" d="M413.3,162.4c-3.5-8.7-5.2-18.3-10.8-26.1c-6-8.4-10.4-17.9-17.5-25.6c-0.5-0.6-0.9-1.4-1.1-2.2
	c-1.7-7-5.9-12.8-9.5-18.8c-4.3-6.9-10.1-12.4-15.8-18c-8.1-7.4-16.2-14.9-24.3-22.3c-1.2-1.9-3.8-4.3-1.8-6c2.1-1.9,5.8-0.6,7.8,1
	c3.5,2.8,6.6,6.1,8.4,10.3c0.1,0.3,0.5,0.7,0.5,0.8c-3.7,6.6,2.7,4.1,4.8,5.2c1.9,0.9,3.3,2.2,4.7,3.6c6.5,6.6,11.7,14.4,19.3,20.1
	c1.1,0.8,1.9,2.4,2.4,3.7c1.4,4.2,4.5,6.5,8.2,8c1.7,0.7,3,1.3,3.6,3.1c0.5,1.8,3,3.3,1.2,5.4c-1.7,2-3.2,0.1-4.7-0.8
	c-1.3-0.8-2.7-0.6-3.4,0.9c-0.9,2,0.6,2.7,2.1,3.1c9.8,2.8,13.5,12.4,20.3,18.5c0.5,0.4,0.7,1.9,0.4,2.3c-3.3,3.9-0.2,8-0.1,11.8
	c0.1,4.6,5.3,6.8,8.5,9.8c3.6,3.4,3.9,5.6-0.6,7.8C413.8,159.3,415.8,162.1,413.3,162.4z"/>
<path class="st1" d="M100.1,395.8c-2.1-2.8-5-4.4-8.1-5.7c1-0.5,2-1,3-1.5l0,0c1.5,1.2,2.1,3.7,4.5,3.4c1.1-0.1,1.4-1.3,1.7-2.3
	c0.2-0.6,0.3-1.8,0.2-1.8c-3.8-1.3-4.4-6.1-9-7.2c-4.2-1-8.4-3-12.8-4.1c-2-0.5-2.8-2.7-2.3-4c1.4-3.2-0.8-4.5-2.4-6.3
	c-8.2-9.1-16.3-18.3-24.6-27.3c-4.3-4.7-4.4-4.6,1.6-7.2c0.5-0.1,0.9-0.1,1.3,0.1c0.2,0.3,0.5,0.5,0.7,0.8
	c2.6,5.3,6.8,9.5,11.4,12.9c7.1,5.3,13.5,11.6,18.1,18.8c2.9,4.6,5.5,8.4,10.3,11.1c2.5,1.4,4.5,3.7,7.2,5c2.3,1.9,4.6,3.8,6.9,5.7
	c-1.6,0.9-3.1,1.8-4.1,3.6c-2,3.7-1.4,5.5,2.7,6c1.2,0.1,2.8-0.8,3.4,1c0.4,1.1-0.6,1.7-1.3,2.4c-1.2,1.3-2.4,1.2-4,0.4
	C102.7,398.7,101.5,397.2,100.1,395.8z"/>
<path class="st1" d="M146.4,394.8c11-2.8,17-12.5,25.5-18.8c2.7-2.1,5.1-4.7,7.6-7c6.7-7.2,14.3-13.3,21.5-19.9
	c8.1-7.3,15.9-15,24.6-21.7c0.4-0.3,0.9-0.5,1.2-0.9c7.1-8.9,15.6-7.7,24.6-3.7c-0.9,0.6-1.8,0.6-2.8,0.3c-5.8-1.9-11.1,0.4-15.6,3
	c-6.7,3.8-14.1,7.1-19.2,13.4c-1.4,1.6-3.2,2.8-3.7,5.1c-0.4,1.9-1.9,3.4-3.8,3.6c-4.1,0.5-6.4,3.5-8.6,6.2
	c-3.4,4.1-7,7.9-11.7,10.6c-0.4,0.2-1.1,0.5-1.2,0.8c-1.5,6.9-8.9,9.7-10.8,16.3c-0.3,1.2-1,1.6-2,1.7c-7.4,1.2-11,7.1-14.9,12.4
	c-0.8,1.1-2.4,1.9-2.5,1.7C153.3,392.8,148.7,396.6,146.4,394.8z"/>
<path class="st1" d="M53.3,332c-0.4,0-0.9-0.1-1.3-0.1c-1.2-1.3-2.2-2.9-4.5-1.4c-3,2.1-4.1,0-4-2.5c0.1-3.6-1.3-4.7-4.9-5.2
	c-3.2-0.5-5.4-3.6-7.9-5.7c-1.5-1.2-2.6-3-4-4.4c-1.5-1.5-1.5-3.1-0.8-5c2-4.9,0.5-8-5-8.5c-3.6-0.3-5.4-1.5-5.9-5.1
	c-0.2-1.4,0-2.5,0.7-3.8c1.7-2.9,0.1-7.4-3-8.2c-1-0.3-2.3,0.8-3.9,1.4c0.2-4.6-0.3-8.9-1.9-13.1c-1-2.5,0-4.6,3.3-4.5
	c3,14.8,11.9,26.5,19.9,38.7c0.8,1.1,1.3,2.2,1.7,3.5c2,3.6,5.3,6.1,7.8,9.3c2.9,2.8,5.1,6.3,8.4,8.7C49.7,328,51.5,330,53.3,332z"
	/>
<path class="st1" d="M97.8,104.8c-0.1,4.1-1.7,7.9-3,11.6c-4.2,11.8-5.8,23.8-4.8,36.2c-1.7-2.7-1.5-6.3-3.9-8.7
	c-0.5-0.5-1.2-2.1,0.8-1.7c2.2,0.4,1.8-1.3,1.3-2c-3.6-5.2-0.4-9.5,1.6-14.1c-3.2,0-5.3-1.8-3.1-4.8c3.6-4.7,5.5-10.4,9-15.2
	C96.4,105.3,96.8,104.7,97.8,104.8z"/>
<path class="st1" d="M116.1,391.1c6.2,2.4,12.2,5.2,19,5.5c-0.9,2.6-2.9,4.3-4.6,6.4c-1.6-1.4-0.2-2.5,0.1-3.6
	c0.6-2.5-1.1-2.3-2.6-2.4c-1.6-0.1-2.6,0.3-2.2,2.3c0.5,2.1,0.9,4.2,1.3,6.3c0.3,1.4,0.2,2.8-1.6,3c-1.6,0.2-2.8-0.8-2.6-2.3
	c0.5-4.1-3.9-6.6-3.2-10.8c0.2-0.8-0.1-1.5-1.5-1.1C113.5,396,114.9,393.5,116.1,391.1z"/>
<path class="st1" d="M18.1,234.4c-3.2,5.9-7.7,11.1-10.3,17.4c-2.6,0.5-5.4-0.1-7.8,2c1.9-2.5,2-4.9,1.7-7.8
	c-0.4-3.7,2.9-5.1,6.2-5.5c3-0.3,6.3,0.2,6.5-4.5C14.5,234.3,16.6,234.4,18.1,234.4z"/>
<path class="st1" d="M83.3,176c-0.7,0.5-1.4,1-2.1,1.5c-1.8,0.6-3,2.1-4.3,3.3c-17.2,15.4-34.3,30.9-51.5,46.3
	c-1.3,1.2-2.4,2.8-4.3,3.2c-0.7-2.2,1.5-2.6,2.5-3.5c15.6-14.2,31.3-28.2,46.9-42.3c2.1-1.9,4-4,6.2-5.7c1.7-1.4,1.2-2.8,0.7-5
	c4.5,2.5,7.3,0.9,8.8-3.3c0.3-0.8,0.5-1.7,1.5-1.6c0.4,0,1,0.3,1.2,0.7c0.5,1-0.4,1.4-1,2C86.4,173.1,84.9,174.6,83.3,176z"/>
<path class="st2" d="M284.4,16.4c-0.9,3.6,3.2,3.1,5.1,6.3c-10.3-3.3-19.8-1.4-29.2-1.9c2.1-4.4,6.1-2.6,9.4-2.9
	c0.1,0,0.2-0.2,0.2-0.3c0-0.2-0.1-0.3-0.2-0.5c-0.1-0.4,0-0.7,0.2-1C274.8,14.5,279.6,16.2,284.4,16.4z"/>
<path class="st3" d="M21.2,230.4c18.4-16.6,36.8-33.1,55.3-49.6c1.4-1.3,2.5-3.2,4.8-3.2c-19.9,17.8-39.8,35.7-59.7,53.5
	C21.4,230.9,21.3,230.6,21.2,230.4z"/>
<path class="st1" d="M76.9,153.3c-0.4-1.8-3.3-3.7-0.6-5.9c1.7-1.4,3.7-0.9,5.4,0.7c2.2,2.1,1.4,4.7,0.1,6.4
	C80.3,156.3,78.4,154.9,76.9,153.3z"/>
<path class="st1" d="M90,152.6c0.9,4.9,1.8,9.8,2.7,14.7c0.2,1.2,0,1.9-1.2,2.4c-0.9-2.3-1.1-4.7-3.7-6.3
	C85.8,161.9,87.7,154.4,90,152.6z"/>
<path class="st1" d="M251.4,322.8c4.7,0.7,9.4,1.5,14.1,2.2c-3.9,1.8-8.3-0.1-12.6,2.2C250,328.8,252,324.4,251.4,322.8z"/>
<path class="st4" d="M200.8,11c-0.2,0.2-0.4,0.4-0.6,0.6c-2.7,2.5-6,1.3-9,1.5c-2.4,0.4-4.7,1.1-7.9,0c4.5-2.9,9.2-2.2,13.3-3.5
	C198.3,9.2,199.7,9.7,200.8,11z"/>
<path class="st1" d="M283.1,325.4c-0.3,0.3-0.5,0.5-0.8,0.8c-1.3,0.3-2.3,1-2.9,2.3c-0.5,1.1-2,2-2.7,0.8c-0.8-1.3-3.7-1.3-2.7-3.8
	C277,325.4,280.1,325.4,283.1,325.4z"/>
<path class="st1" d="M87.2,165.7c-3.3,2.1-5.4,3.2-7.7,0.9c-0.5-0.6-1.4-1.7-0.7-2C81.4,163.3,83.7,164.7,87.2,165.7z"/>
<path class="st1" d="M265.4,325c2.4,0.2,4.9-0.6,7.3,0.3c-0.3,0.2-0.5,0.4-0.8,0.5c-1.8,0.6,0.8,4.3-3,3.8
	C265.7,329.2,266.6,326.4,265.4,325z"/>
<path class="st1" d="M95,388.6c-0.5-0.3-1.1-0.8-1.7-1c-2-0.4-4.5,0-4.4-3.3c0.1-0.9,1-1.1,1.4-0.6C92,385.2,97,383.7,95,388.6
	L95,388.6z"/>
<path class="st1" d="M13.7,229.9c-2.3,2.9-4,2.8-6.1,0.2C9.7,230,11.4,229.9,13.7,229.9z"/>
<path class="st1" d="M8.1,254.5c0.6,1.1,0.7,2.3,0.4,3.5c-1.3,0-3.1,0-3.2-1.5C5.2,255.4,6.6,254.5,8.1,254.5z"/>
<path class="st1" d="M110.6,388c1.5,0.2,2.6,1.1,3.6,2c-1.4,0.5-2.9,1.9-4.3,0.5C109,389.7,110,388.7,110.6,388z"/>
<path class="st1" d="M5.9,238.1c-0.6,0.6-1.3,0.5-1.8,0c-0.6-0.6-1.2-1.3-0.4-2.1c0.4-0.3,1.3-0.3,1.8,0
	C6.3,236.5,6.3,237.4,5.9,238.1z"/>
<path class="st5" d="M200.7,6.9c1.1-0.9,2.3-1.1,3.6-0.5c3.1,0.7,5.4,2.9,8.5,3.7c1.5,0.4,1.8,2.1,2.2,3.6c0.4,1.5,0.1,3.4,2.2,4
	c2.7,1.9,5.3,1.4,7.8-0.3c2.2-0.4,3.5,1,4.8,2.3c3.1,3.2,5.7,6.9,9.2,9.6c0.8,0.6,1.6,2,2.3,1.7c5.1-1.7,9.7,1.9,14.7,1.4
	c0.4-0.3,0.8-0.6,1.2-0.8c2.9-1.5,5.5-3.4,7.6-5.9c0.2-0.4,0.3-0.9,0.3-1.3c0.2-0.2,0.5-0.4,0.7-0.7c1-4,3.2-4.8,5.7-1.6
	c2.8,3.6,6.2,1,9.2,1.7c0.5,0,1,0.1,1.5,0.2c4.1,1,7.6,2.6,10.6,5.9c3.4,3.8,7.8,6.6,11.7,9.9c0.5,0.2,0.9,0.5,1.3,0.8
	c4.1,3.2,6.8,7.2,6.4,12.7c-0.3,0.9-1.3,1.4-1.4,2.5c-0.5,0.9-1,1.8-1.6,2.7c0.1,2.2,1.9,3.4,3.2,5c4.9,5.3,10.6,10,14.4,16.3
	c1.4,2.2,3.5,2.3,5.7,1.2c1.5-0.7,2.6-2.1,3.8-3.1c5.6-4.8,14-4.1,18.7,1.5c1,1.2,2.5,1.5,3.8,2.2c3.4,1.8,6.5,4,8.3,7.5
	c-3.6,5.8-0.7,9,4.3,12.1c3.4,2.1,2.6,5.8,0.6,8.4c-2.7,3.4-1.3,5.3,1.5,7.2c1.7,1.1,3.1,2.6,3.6,4.6c0.7,3,1.7,5.3,5.5,5.8
	c3,0.4,2.3,3.4,1.1,5.2c-2,3.3-5.6,4.8-8.5,2.3c-4.9-4.2-7.3-1.4-9.9,2.2c-0.2,0.4-0.5,0.9-0.8,1.3c-2.9,3.9-6.8,4-11,3
	c-3.8-1-6.5-3.3-7.8-7.1c-2.6-5.7-9.4-11-13.9-10.7c-1.3,0.6-2.2,1.7-3.1,2.7c-2,1.9-4,3.9-6.3,5.5c-0.4,0.3-0.9,0.5-1.3,0.7
	c-3.2,1.1-5.2,0.1-5.4-3.4c-0.1-1.2-0.4-2.3-1-3.3c-0.5-1.1-1.3-2.2-2.6-1.9c-1.6,0.5-0.9,1.8-0.6,2.9c0.6,2.5-0.2,4.5-2.3,6.1
	c-2.3,1.7-3.4,0-5-1.3c-2-1.6-3.7,0.1-5.2,1.4c-3.8,3.2-7,7.1-11.7,9.1c-0.5,0.3-0.9,0.5-1.4,0.8c-3.5,1.7-6.4,4.4-8.7,7.3
	c-5.6,6.9-12.7,12.1-19,18.2c-2.7,2.1-4.5,5.4-8,6.7c-6.5,3.3-9.8,9.8-15.1,14.3c-2.1,2.5-4.4,4.8-7.1,6.6c-5,2.8-6.2,9.4-11.8,11.8
	c-2.2,0.9-4.1,2.2-6.4,0.8c-0.5-0.2-0.9-0.6-1.2-1.1c2.6-4.6,0.4-8.4-2-12.3c-1.2-1.9-2.3-3.2-4.6-3.1c-3.2,0.1-5.9-1.1-6.4-4.3
	c-0.5-3,1.4-5.7,3.5-7.8c3.7-3.5,7.8-6.4,12.4-8.7c0.4-0.2,1-0.9,1.2-0.7c4.1,2.9,8.8-0.3,12.9,1.5c1.3,0.6,2.5,1.2,3.7,0.2
	c3.9-3.1,8.5-5.6,11.4-9.5c4.1-5.6,8.9-9.9,15-13.3c4.2-2.3,7.8-6,10.6-9.7c2.9-3.9,6.1-6.9,10.2-9.2c2.7-1.5,3.7-3.2,2.7-6.9
	c-1.5-6.1-1.3-12.4,3.9-17.5c4.5-4.3,4.5-9.7,0.4-14.7c-2.4-2.9-2.5-5.4,0.6-7.6c2.9-2,4.1-5.6,7.1-7.6c1.3-0.9,1.6-2.8,0.4-4
	c-7.3-7.6-13.9-15.9-22.5-22.1c-4.3-3.1-10.2-1.7-14.9-5.2c-2.8-2-11.6,5.2-12.7,9.8c-0.6,2.3-1.4,3.6-3.9,3.5
	c-1.4-0.1-2.8,0.2-3.6,1.3c-3.4,4.7-8.9,6.9-13,10.8c-3.8,3.7-8.5,6.2-14.1,6.1c-2.7-0.1-4.1,2-5.8,3.4c-1.1,0.9-1.9,2.3-3.1,3.2
	c-1.6,1.1-3.6,1.7-5.1,0.3c-1.7-1.6-0.5-3.4,0.7-4.9c1-1.3,2.4-2.3,3.2-3.7c-5.1,4.2-10,8.6-14.8,13.1c-1.2,1.1-3,2.7-2,4.2
	c3.6,5.3-0.1,10-0.8,14.8c-0.8,4.8-5.8,7-9.3,10c-5.7,4.9-11.1,10.2-13.7,17.2c-1.3,3.6,1.1,7.7,3.5,10.7c3,3.8,5.7,7.8,8.9,11.4
	c2.1,2.3,1.9,4-0.5,5.7c-2.2,1.5-3.2,4.2-5.5,5.7c-3.3,0.1-7.2,2.3-9.1-2.6c-2.1-0.6-3-2.2-4.1-4c-1.9-3-3.8-6.3-8.1-6.6
	c-1.3-0.2-1.8-1.5-2.8-2.2c-1.1-2.8,2.1-5.8-0.1-8.6c-0.8-4.5-5.6-5.8-7.7-9.4c-0.7-1.3-3.7-1.2-4.4,0.4c-2.6,5.3-8.7,6.4-12.1,10.6
	c-1.8,3.1-4.9,4.9-7.4,7.3c-1.9,1.8-2.6,3.4-0.7,5.5c1,1.9,0.8,3.7-1.4,4.4c-2,0.7-3.5-0.2-4.1-2.3c-1.5-2.1-2-4.7-1.3-7
	c1-3.2,0-5.4-2.2-7.3c-0.8-4.3,2.3-11.8,5.6-13.7c1.3-2.9-0.7-5-1.7-7.4c-2.2-2.5-4-5,1-6.3c3.3,0.3,6.1,3.3,9.8,1.9
	c0.5,0,0.9,0,1.4,0.1c3.9-5.6,11.8-7.1,14.2-14.1c0.3-0.7,0.5-1.4,0.8-2.1c1.7-2.4,2.7-4.7,1-7.7c-0.9-1.5-1-3.2,0.4-5.1
	c2.6-3.5,1.5-6.6-2-8.8c-1.3-0.8-2.3-1.9-3.3-3c-3.5-3.9-3.3-7.3,1-10.4c2.8-2,4-4.2,4.1-7.8c0.1-3.7,3.5-6.8,3-10.8
	c0.5-1.7,1.6-2.3,3.3-2.3c3,0,4.6-1.9,4.8-4.6c0.3-4.7,3.3-7.2,7-9.3c3.5-2,5.5-6.2,9.9-7c1.5-0.3,3.1-0.9,3.7,0.9
	c0.6,1.7-1,2.3-2.3,2.6c-5.8,1.5-8.5,6.6-11.9,10.6c-2,2.4-1.8,5.5,1.5,7.6c2,1.3,4.2,2.6,5,5.3c1.9,1.9,3.3,4.4,6.1,5.3
	c2.8,1.4,4.6,0.2,6.4-1.9c2.6-3.2,4.7-6.7,8.9-8.4c2.3-0.9,2.9-3.5,1.5-6c-1.3-2.4-3-4.7-4.3-7.1c-3.4-4.7-1-8.4,6.2-9.6
	c2.9-1.9,5.1-4.7,8.8-5.2c4.1-0.3,5.5-2.4,5.8-6.6C193.3,11,197.4,9,200.7,6.9z"/>
<path class="st5" d="M365.5,224.4c1-0.4,1.9-0.8,2.9-1.3c3.2,0.9,3.7,5,6.8,6c2.3,3,2.7,5.7-1.1,7.7c-4.5,3.5-8.5,7.7-8.2,13.7
	c0.3,5.5-2.6,7-6.8,6.9c-3.8,0-5.6,1.1-5.5,5.1c0.1,2.6-1.1,5-3,6.6c-8,6.9-14.2,15.8-23.2,21.9c-5.4,3.6-6,7.1-4.1,12.3
	c1,2.7,2.1,2.5,3.8,0.7c2.2-2.3,4.6-4.3,7.2-6.1c2.6-1.7,5-4.6,8.4-2.9c3.1,1.5-0.5,4.6,0.9,6.8c-0.1,1.7,0.6,3.9-1.7,4.5
	c-3.8,1-5.9,4.2-8.8,6.3c-2.6,1.3-4.8,4.5-8.4,1.1c-0.9-0.9-3.8,0.1-4.5,2.5c-0.9,2.2-2.7,2.3-4.4,1.3c-1.5-0.9-1.3-2.5-0.6-3.9
	c0.5-1,0.8-2.1,1.1-3.3c0-6.7-2.3-8.5-8.2-6.1c-3,0-2.9-1.7-1.4-3.3c1.5-1.5,2.4-3,1.8-5.2c-3-3.3-5.8-6.1-10-1.2
	c-1.9,2.1-5,3-7.8,3.9c-2.6-1.4-5-3.8-8.4-1.9c-3.6,3.4-7.1,3.6-11.1,0.2c-2.1-1.8-2.9-3.4-2.1-5.9c-0.4-1.4-0.3-2.8,0.2-4.2
	c-0.1-1.5-1.3-2.9-2.2-3.1c-6.4-1.1-7.9-8-13.2-10.6c-3.6-1.8-4.4-7-8.6-8.6c-1.3-0.5-2.1-2-3,0.6c-0.8,2.3-3.2,1.7-4.6,0.5
	c-2-1.8-4-1.9-6-0.8c-4,2.3-6.5,1.2-8.3-2.8c-0.3-0.7-1-1.3-1.9-1.5c-0.5-0.1-0.8-0.4-1-0.9c-0.9-3.3,0.6-5.2,3.4-6.7
	c7.2-4,7.6-6.9,1.9-12.9c-2-2.1-3.9-4.4-5.9-6.6c-1.9-2.1-2.5-4.2-0.6-6.6c3.5-8.4,6-8.6,12.9-2.5c7.7,6.8,14.4,14.2,20.4,22.5
	c4,5.7,9.1,6.2,13.2,0.7c6.7-9.1,15.6-6.1,24-5.3c2.6,0.2,4.6,0.4,7-0.8c4.8-2.5,7.2-1.5,9.5,3.2c2.4,4.9,5.3,5.3,8.3,0.8
	c1.9-2.8,4-5.3,7.2-6.7c3-1.3,4-3.5,2.6-6.4c-1.7-3.7-1-6.7,1.7-9.6c1.1-1.2,2.3-2.8,2.5-4.3c0.9-7.6,6.4-11.7,11.3-16.4
	c2.3-2.1,3-4.3,1-7c-0.6-0.8-1.2-1.9-1-2.8c1.4-5.3,2.3-11.1,5.4-15.4c2.6-3.6,6.1-7,9.4-10.3c5.8-5.8,10.4-6.5,17.8-2.9
	c3.6,1.8,11.2-2.8,11.6-7.1c0.2-1.6,0-3.3,0.8-4.9c1.8-3.5,4.4-3.7,7.6-1.5c5.1,3.5,6.1,7.7,3.7,13c-0.8,1.7-0.9,3.3,0.6,4.5
	c2.5,2.1,2.4,4.1,0,6.2c-2.8,2.4-1.7,5-0.4,7.6c-1,1.5-2.2,2.9-2.4,4.8c0,0.2,0,0.4,0,0.5c3.6,3.4,2.8,6.5-0.6,9.4
	c-1,3.1-1.8,7.1-5.2,7.5c-3.4,0.4-5.2-3.2-6.9-6c-0.9-1-1.8-1.9-2.6-2.9c-1.8-2.2-3.9-3.9-6.7-2c-2.4,1.7-4,4-2.1,7.1
	c2.9,3.5,2.2,6-1.4,8.8c-3.9,3.1-8,6.2-11,10.4C358.8,224,361.1,225.6,365.5,224.4z"/>
<path class="st6" d="M248.7,142.8c-7.2,7-15.8,12.1-24.2,17.5c-4.7,3-10.1,4.3-15.7,4.3c-4.8,0-9.6,0.1-14.4,0.1
	c-9,0-20.4-10.9-22.3-21.2c-2-10.4-1-19.9,6.7-28.3c5.3-5.8,9.9-12.3,15.5-17.9c3.5-3.9,7.4-7.3,11.5-10.5
	c11-8.9,22.3-17.3,37.3-16.7c12.4,0.5,29.9,7.5,31.4,22.7c1.6,16.3-4.1,29.1-14.9,40.5C256.2,136.7,252.6,139.9,248.7,142.8z"/>
<path class="st7" d="M396.8,181.4c-2.9-2.8-3.6-5.5,0.1-8.3c1.3-1,2-2.7,0.7-3.9c-2.8-2.7-2-5.4-1-8.6c1.5-4.7-1.1-9.1-5.8-10.9
	c-2.4-0.9-5.3,2.2-4.8,5.3c0.3,1.9,2,4.2-0.5,5.3c-3.9,1.8-6.3,6.1-11.1,6.3c-0.8,0-1.6-0.4-2.3-0.9c-5.1-3.8-10.3-3.9-14.5,0
	c-4.1,3.9-6.3,9.7-12,12.1c1.8,5.7-3.6,9.3-4.2,14.3c-0.2,1.2,0.8,2.3,1.7,2.9c3.2,2.1,1.7,4.4,0,6.2c-3,3.1-6.2,6-9.4,8.8
	c-1.1,0.9-2,1.8-2.1,3.2c-0.1,5.2-2.3,9.3-6.2,12.7c-1.8,1.5-0.2,3.1,0.4,4.5c2.6,6.5,2.5,7.1-3.7,9.8c-2.6,1.1-4.4,2.7-5.5,5.4
	c-1.2,3-3.4,5.2-6.9,4.7c-3.3-0.4-4.5-3-5.1-6c-0.7-3.3-3.7-4.5-6.6-2.2c-3,2.5-5.6,4.2-9,0.7c-1-1.1-2.2,0-3.3,0.1
	c-1.8,0.2-3.8,1.3-5.4,0.3c-5.9-3.7-8.9,1-12.1,4.3c-7.5,7.6-11,7.7-17.6-1c-5.3-7-10.5-14.1-17.6-19.5c-0.7-0.5-1.5-0.8-2.1-1.4
	c-6.3-6.1-6.4-6.1-11.6,1c0.5-5.7-4.4-14.7-10.6-16.8c-4.9-1.7-4.5-6.9-7.9-9.4c-1.4-1,0.9-2.7,2.2-3.6c0.8-0.6,1.5-1.5,0.8-2.5
	c-0.2-0.4-1.3-0.6-1.7-0.4c-6.5,3-6.6-2.7-8.4-6.1c3.1,1.1,4.9,4.9,9.5,3.4c1.7-0.6,4.7,2.6,3.4,5.3c-2.3,4.7,0.2,7.8,2.4,11.2
	c1.9,0.9,4,2.2,5.8,0s3.7-1.7,5.7-0.4c1.1,0.7,2.4,1.7,3.5,0.3c0.9-1.1-0.2-2.1-0.9-3c-2.3-2.6-1.6-4.7,0.7-6.8
	c1.1-1,2.6-1.6,2.9-3.2c2.8-1.3,4.5-4,6.7-6c6-3.4,9.5-9.5,14.7-13.7c0.8-0.6,1.2-1.6,2.4-1.6c2.4-0.8,3-3.7,5.2-4.7
	c6.9-4.9,12.9-10.8,18.9-16.7c3.7-3.7,6.9-8,11.6-10.7c4.2-0.8,7.6-3,10-6.6c1.6-2.4,3.3-3.2,6.3-2c5.9,2.5,9.1,0,8.1-6.4
	c-0.2-1.1-0.4-2,0.7-2.6c1.3-0.7,2.2,0.1,3.1,0.9c1.3,1.3,1.6,2.9,1.7,4.6c0.1,3.8,1.6,4.6,4.8,2.5c3-1.6,5.5-3.8,7.4-6.7
	c0.5-0.9,0.5-2.4,2.2-2c1.9-0.9,4.2-1.4,5.6,0.2c3.5,3.7,8.5,5.7,10.8,10.6c0.9,4,3.9,5.6,7.4,6.8c3.4,2.8,7-1.2,10.4,0.5
	c-0.1-0.2-0.3-0.2-0.4-0.4c-1.1-0.9-0.9-2-0.6-3.2c4.5-5.6,5.5-5.8,11.3-2.5c3.4,1.9,8.5-0.7,9.2-4.6c0.4-2.3-1-3.1-2.7-3.4
	c-2.9-0.5-4.3-2.4-5.1-4.9c-0.5-1.4-0.9-3.1-2.2-3.8c-4.5-2.4-4.5-5.6-2.2-9.5c1.9-3.2,1.5-5.9-1.5-8.4c-1.4-1.2-2.7-2.4-3.9-3.8
	c-1.3-1.6-1.8-3.2,0.8-4.1c2.1,3.2,5.8,5,7.1,9.1c1.8,5.9,4.3,11.6,4.6,17.8c0.1,1.2-0.3,2.5,1.2,2.9c1.1,0.3,1.8-0.3,2.2-1.4
	c0.8-2.3,2.5-1.1,2.9-0.2c1.2,2.5,3.6,4.2,4.1,7.3c0.4,2.5,1.9,4.9-2.3,5.2c-1.1,0.1-1.6,1-1.7,2.2c0,1.4,0.8,2.1,2.1,2.4
	c2.9,0.8,4.9,2.5,5.3,5.7c-1.6,0.2-2.9-1.3-4.6-1.3c1.8,1.4,1.8,1.4,4.6,1.3c-0.3,7.9,0.2,8.4,9,9.8c0.8,0.1,1.2,0.5,1.2,1.2
	c0,1.1-0.5,2-1.6,2.2c-5.5,1.2-4.1,6.2-4.7,9.5c-0.4,2.4,2.7,3.2,5.3,3.1c1-0.1,2.2,0.1,2.2,1.3c0,1.6-1.2,1-2.2,1.1
	C398,171.9,396.2,175.3,396.8,181.4z"/>
<path class="st8" d="M143.7,318.8c-2.7,3.3-2.4,5.7,1.1,8.6c5.9,4.9,11.3,10.2,16.8,15.5c1,0.9,1.6,1.2,2.9,0.7
	c2.3-0.9,4.9-1.5,6.6-3.3c7.6-8.1,18-11.9,26.7-18.4c2.6-2,6-3.1,8.7-5.3c1-0.8,2.1-1,3.1,0.1c1.3,1.4,0.3,2.4-0.8,3.3
	c-1.9,1.6-3.8,3.2-5.7,4.9c-3.3,1.3-4.9,4.8-8.1,6.1c-7.2,3.5-11.9,9.9-17.9,14.8c-3.1,2.6-6.2,5-10.1,6.2c-4,1.3-8.2,2.1-11.5,5.4
	c0.5-3.6,0-6.7-1.6-9.6c-2-2.7-3.8-5.6-6.9-7.2c-3.2-1.2-5.5-3.6-7.8-5.9c-4.8-4.7-7.9-4.3-13.4-0.8c-7.4,4.7-12.4,11.2-17.3,18
	c-1,1.4-2.1,2.3-3.7,1.1c-2-1.6,0.1-2.4,0.9-3.5c2.7-3.3,5.3-6.7,8-10c3.2-4.5,8.2-7,11.4-11.4c0.1-0.5,0.1-1,0.2-1.5
	c-3.5-4.6-7.3-8.9-11.6-12.8c-4.5-3.2-8.5-3.9-12.8,0.9c-2.4,2.7-7.1,2.5-9.5,5.7c-3.4,1.7-5.4,5.3-8.8,6.9
	c-0.1,0.1-0.3,0.2-0.4,0.3c-1.5,1.4-2.7,3.5-5.2,3.1c-0.7-0.1-1.7-1.1-1.7-1.6c0.5-2.5,2.9-2.8,4.6-4c2.8-2,5.4-4.3,8.1-6.5
	c4.1-2.4,6.9-6.6,11-9c1.5-0.6,0.8-2.7,2.5-3.2c0.6-0.2,1.8-0.3,1.8-0.6c0.6-5.1,5.4-6.3,8.4-9c7.7-7.3,15.4-14.5,23.1-21.8
	c1.6-1.5,3.1-3,4.8-4.3c2.1-1.7,4.9-4.7,7.1-1.7c2,2.7-2.2,3.7-3.9,4.9c-2.8,1.9-5.2,4.3-6.9,7c-4,6.8-10,11.4-15.8,16.3
	c-2.7,2.3-4.4,4.9-0.8,8.1c4.2,3.8,8.1,7.8,12.3,11.6c2,1.8,4.8,3.7,6.7,0.3c3.8-6.6,11.2-8.9,16-14.3c3-3.3,6.5-6.2,9.8-9.2
	c1.1-1,2.4-1.8,3.6-2.6c2-1.2,2.5,0.7,3.5,1.6c1.5,1.3,0.6,2.4-0.6,3.2c-7.1,4.2-12.4,10.5-18.8,15.6
	C148.9,313.4,146.2,316.1,143.7,318.8z"/>
<path class="st9" d="M144.3,232.5c-7.5-3.6-12.8-9.8-18.4-15.7c-8.7-9-9.4-20.7-11.1-32.1c-0.6-4.2-0.4-8.6-0.6-12.9
	c-0.8-12.6,8.3-19.5,20.2-15.4c4.5,3.7,9,7.5,12.9,11.9c0.4,5.4,3,11-2.7,15.7c-3.1,2.5-5.6,2.4-8.4,0.5c-3-2-5.5-4.8-8.1-7.3
	c-2.5-2.4-1.7-4.4,0.1-6.4c2.2-2.5,4.2-1.4,6.5,0.2c2,1.4,2,4.7,5.1,5c1.5-7.1-6.1-14.7-13-13c-2.9,0.7-4.4,3.2-4.5,5.9
	c-0.4,9.3-0.7,18.5,1.9,27.6c0.5,1.7,1.9,2.1,2.7,3.2c1.9,2.9,4.1,5.4,6.8,7.5c7.1,5.4,14.1,11,21.4,16.1c3.9,2.7,8,5.2,13.4,3.9
	c3.2-0.8,9.2,6.1,9.6,10.5c0.8,9.5,6.3,17,10,25.3c3.1,7,6.5,13.7,11.1,19.8c-2.2,1.7-3.5-0.2-4.4-1.5c-2.2-3-5-5.2-7.9-7.4
	c-2.9-2.1-4.8-4.9-4.3-8.9c0.3-2.4-1-4.2-3.5-4.7s-2.8,1.7-3.5,3.4c-0.6,1.5-0.8,4.7-3.4,1.2c-5.8-6.5-9-14.1-9.2-22.7
	c-0.1-3.2-1.1-3.2-3.5-3.6c-4.6-0.7-8.9-2.3-12.8-4.9c-2.1-2.7,0.7-3.4,2-3.4c6-0.2,11.9,1.2,17,3.8c3,1.5,5.2,5.3,4.1,9.4
	c-1.1,4,0.6,6.3,4,8c1.7-0.8,1-2.3,0.9-3.5c-0.1-1.8-1-3.5-1.3-5.3c-1.9-9.6-1.9-10.1-11.3-10.3c-6.1-0.2-9.9-4-14.2-7
	C144.7,227.2,146.5,230.8,144.3,232.5z"/>
<path class="st10" d="M111.8,296.6c-0.1,2.5-0.6,4.8-3.9,4.3c-2.8-0.4-1.7,1.6-1.8,2.9c-0.3,3.3-1.5,4.6-4.6,2.4
	c1.2-1.3,1.1-2.7,0.2-4c-4.7-6.5-7.6-14-12.6-20.3c-2.5-3.1-4.5-2.4-6.9-0.1c-2.2,2-4.5,3.9-6.8,5.8c-4.3,2.8-7.4,7-11.7,9.8
	c-1.9,1.6-4,3-5.8,4.8c-2.1,2.1-3.5,2.8-6,0.1c-2.8-3-0.2-3.7,1.3-5.2c2.9-2.8,6.4-4.6,9.8-6.4c6.7-3.7,11.9-8.8,16.7-14.6
	c1.7-2.1,1.9-4.2,1-6.5c-3.8-8.9-9.6-16.1-17.6-21.6c-1.8-1.3-3.6-1.1-5.3,0.6c-3.7,3.5-7.5,6.8-11.6,10c2.2-7.8,6.7-14.4,11.6-20.4
	c4.8-6,9.7-12.1,15.5-17.3c1.7-1.5,4.3-1.9,5.1-4.4c4.2-5.1,9.6-8.9,14.3-13.5c1.3-1.3,2.9-2.2,3.8-3.9c1.8-1.7,3.7-3.3,5.6-5
	c1.1,2.1-0.5,3.2-1.4,4.5c-10.4,14.6-20.1,29.7-34.3,41.1c-1.7,1.3-2.3,1.9,0.2,3.8c5.5,4.1,12.5,6.4,15.4,13.9
	c0.9,2.4,4.7,3.8,6,6.8c0.7,1.6,2.1,1.3,3.2,0.1c8.7-8.6,19-15.5,26.6-25.2c0.8-1,1.9-3.6,3.7-1.6c1.3,1.5,5,2.7,2.1,5.9
	c-0.8,0.8-1.1,2-2.3,2.5c-5.4,2.3-9.6,6.1-12.8,11.1c-2.4,3.3-6.4,5.2-8.6,8.7c-0.6,0.8-1.3,1.5-2,2.3c-5.3,5.6-5.3,5.6-1.1,12.3
	c0.8,1.3,1.4,2.6,2.1,3.9c3.4,4.6,7.1,8.9,11.5,12.6C110.9,296.7,111.3,296.6,111.8,296.6z"/>
<path class="st5" d="M209.2,207.7c-4.1-0.9-4.1-5.2-6.3-7.7c-0.9-1,0.9-1.7,1.9-2.4c1.4-0.9,1.9-2.3,1.1-3.9c-0.6-1.2-1.8-2.6-3-2.1
	c-4.7,2.2-6.5-1.4-8.9-3.9c0.3-3.5,1.5-7,4.4-8.8s3.5-3.2,1.3-5.8c-0.7-0.9-1.8-1.8-0.7-3c0.9-1,2.2-1,3.3-0.6
	c3.5,1.4,6.9,2.4,10.2-0.6c0.3-0.3,1.4-0.2,1.9,0.1c4.7,3.4,7.7,0.4,10.8-2.6c2.7-2.7,5.2-4.7,9.6-3.4c2.8,0.8,5.4-0.8,4.9-4.5
	c-0.3-2.5,1-3.7,2.9-4.6c11.2-4.9,17.9-14.7,26.1-23c5.8-5.8,10.1-11.9,10-20.5c0-2,1.8-3.5,3.4-4.8c2.8-2.3,3.1-4.7,0.7-7.7
	c-4.9-6-4.5-10.4,1.2-15.4c2.4-2.1,3.6-5.1,6.4-6.9c1.5-0.9,0.8-2.7-0.4-3.9c-6.2-6.3-12.4-12.7-18.6-19c-0.8-0.8-1.8-1-2.8-0.7
	c-4.4,1.5-7.5-0.7-10.1-3.6c-3-3.2-6.1-3.1-9.4-1.2c-3.6,2.1-7.4,4.3-6.7,9.4c0.2,1.5,0.7,2.9,0.9,4.4c0.1,1.3-0.6,2.3-1.8,2.7
	c-1.6,0.4-1.8-0.8-2.2-2c-1.3-4.1-3.6-3-5.8-0.8c-6.4,6.5-13,14-21.7,15.7c-8.4,1.7-13.1,8.5-20.8,11c-4.3,1.4-10.2,5.9-7.9,13.9
	c0.7,2.6-2.7,6.8-5.5,9.4c-5.4,4.9-11.1,9.5-15.6,15.3c-1.5,1.9-3.4,3.5,0.6,4.4c1.5,0.3,1.5,1,1.1,2.1c-0.4,1.3-0.9,2.8-0.2,3.9
	c1.9,2.8,3,4.6-2.1,4.1c-2.6-0.2-2.4,2-1,3.4c3.3,3.1,4.9,7.6,8.2,10.6c3.5,3.2,4.1,5.9-0.9,8.1c-0.6,0.3-1,0.9-1.5,1.3
	c-1.2,1.4-1.5,4-4.4,2.6c8.9-8,9.1-8.2,0.7-16.9c-3.8-3.9-5.7-8.8-8.8-13c-0.6-0.9-0.9-1.8-0.2-2.7c4.9-6.6,9.9-13,16.5-18.1
	c4-3.2,10.1-5.5,7.7-12.8c-0.2-0.7,0.4-2,1.1-2.6c2.2-2,2.1-3.9,0.1-6c-2.2-2.5-1.7-4.8,0.7-6.9c5.5-4.9,10.9-9.8,16.4-14.7
	c1.2-1.1,3-2.6,4.3-1.2s-0.4,3-1.6,4.1c-1.6,1.5-3.2,2.9-4.8,4.4c-0.6,0.6-1.1,1.5-0.6,2.2c0.5,0.8,1.5,0.4,2.3,0.3
	c3.5-0.4,4-4.2,6.6-5.8c1.2-0.8,2.3-2.2,3.8-2c6.8,0.9,11.2-3.3,16.3-6.7c5.7-3.8,9.6-10.2,17-11.4c1.2-0.2,0.8-1.7,1.2-2.5
	c2.6-5,7-8.4,11.7-11.1c2.2-1.3,4.8,0,6.6,2.2c1.4,1.7,2.8,3.7,4.8,0.4c0.8-1.4,2.1-1.3,3.4-0.2c2.5,2.4,5.3,4.6,7.7,7
	c5.6,5.7,11.2,11.6,16.7,17.4c1.9,2,2.5,4.3,0.3,6.6c-2.5,2.7-4.9,5.4-7.4,8c-1.4,1.5-2.2,2.9-0.4,4.7c6,6.2,6.4,10.4,0.2,16.7
	c-4,4.1-4.1,8.8-4.6,13.7c-0.1,1.2,0,2.2,1.2,3.1c4.1,3.1,1.2,5.5-1.1,7.6c-1.7,1.5-3.9,2.5-6,3.4c-2.3,1-4.1,2.2-4.3,4.9
	c0,0.5-0.2,1.2-0.5,1.4c-5.9,2.9-8.2,10.6-15.5,11.6c-1.6,0.2-2.2,1.1-2.5,2.5c-0.4,1.6-1.5,2.7-3.1,2.8c-2.1,0.1-2.6,1.6-3.4,3.1
	c-3.1,6.7-10.2,9.1-15.1,14c-0.5,0.5-2.2,0.7-2.3,0.5c-2.9-6.1-9.4,1.4-13-3.5c-0.9-1.2-2.8,2.6-5.3,3.4c-4.6,1.4-8.3,4.8-10.9,8.9
	c-2.3,3.7-0.6,6.9,3.6,6.4c2.9-0.3,4.4,1.1,5.8,3c1,1.3,1.6,2.9,2.6,4.2c2.5,3.1,7,6.1-0.4,8.8C209,206.3,209.2,207.2,209.2,207.7z"
	/>
<path class="st11" d="M172,265c2.9,1.5,1.9-1.6,1.9-2.1c0.2-3.2,1.4-5.2,4.9-4.6s6.6,3.4,5.4,6.4c-1.8,4.5,0.9,6.5,3.3,8.1
	c3.5,2.3,6.5,4.8,8.6,8.4c0.6,1,1.5,1.8,2.8,1.7c5.6,7.7,13,12,22.6,12.8c6.9,0.6,16.7-4,20.1-10.1c1.1-2,1.1-3.7-0.7-5.4
	c-2-2-4.1-3.6-7-2.5c-1.5,0.6-3.1,1.2-4.1,3.8c3-2.7,4.8-1.4,6.4,0.7c1.2,1.5,0.5,3-0.8,3.9c-2.4,1.6-5,3-7.9,1.5
	c-5.1-2.8-5.2-8.5-0.2-11.7c2.3-1.5,4.6-3.2,6.9-4.8c3.8-2.5,11.8,1.1,14.9,6.4c5.3,9.2-3,21.2-11.6,24.2c-13.4,4.7-25.6,2.8-37.2-5
	c-4.2-3-6.5-7.8-10.7-10.7c-0.7-0.7-1.4-1.3-2-2c-3.9-2.8-6.1-7.3-10.1-10C174.8,271.5,173.4,268.3,172,265z"/>
<path class="st7" d="M343.8,301.8c-0.2-0.4-0.4-0.9-0.7-1.3c-1-1.5,1.6-3.9-0.9-4.7c-2.4-0.8-3.6,1.5-5.4,2.7
	c-3.6,2.4-6.9,4.9-9.6,8.4c-1.8,2.3-4.2,2.2-4.9-1.3c-0.4-2.3-1.6-4.4-2-6.6c-0.7-4.4,3-7.5,6-9.3c9.6-5.8,15.3-15.5,23.9-22.2
	c1.6-1.3,2.5-3.5,1.8-6.3c-0.9-3.9,1.8-6,5.7-5.3c4.8,0.8,6.5-0.6,7-5.2c0.7-6.1,3.4-11.2,9.4-13.8c-2.3,3.2-5,6.1-6.8,9.5
	c-1.5,2.8-0.8,5.5,3.2,5.9c0.7,2.9-1.5,5.4-0.9,8.9c3.6-3.1,7-5.8,10.2-8.7c0.6-0.5,1.1-1.6,1.7-1.7c4.7-0.9,8.5-2.9,10-7.9
	c0.2,1,0.2,2,0.5,2.9c1.7,5.2,1.2,7-4,8.1c-7.6,1.7-11.1,7.7-15.6,12.9c-1.4,1.6,0.9,3.2-0.6,5c-3.9-2.3-5.5-0.3-6.2,3.6
	c-0.2,1.5-1.3,2.6-2.4,3.7c-2.6,2.6-6.7,4.2-4.4,9.6c1.1,2.6-7,9.8-10.6,9.5C345.1,297.8,344.1,299.2,343.8,301.8z"/>
<path class="st7" d="M133.7,354.4c3,3.3,6.1,6.4,8.8,9.9c1.6,2.1,2.9,2.1,4.2,0.1c1.1-1.7,2.2-2.5,4-1.4c2,1.2,4.1,2.7,4.2,5.2
	c0.1,2.7-2.3,2.9-3.9,2.4c-5.2-1.8-9.4-1-13.1,3.4c-1.6,1.9-4,1.2-5.9-0.2c-2.6-1.8-4.9-1.4-7.3,0.3c-3.6,2.5-8.3,3.3-10.8,7.6
	c-0.8,1.3-6.8-2.6-7.2-4.8c-0.7-4.3-2.5-8.9,2.6-12c0.1-0.1,0.3-0.3,0.3-0.4c-2.2-5.5,3.3-7.2,5.3-10.6c4.3-7.6,10.5-8.5,16.8-2.3
	c0.8,0.8,1.6,1.7,2.3,2.6C133.9,354.2,133.8,354.3,133.7,354.4z"/>
<path class="st7" d="M76.6,320.4c-2.5,0.7-5.1,1.4-7.6,2.2c-2.4,0.8-2.9,2.4-2,4.7c2.6,6.6,7.6,9.6,14.4,7.4c5.6-1.9,11.6-2,16.9-5
	c3-1.7,6.7,0,9.2,2.2c2.3,2.1-0.1,4.2-1.8,5.1c-3.3,1.6-4.4,3.4-3,7.1c0.8,2,0.3,4.9-2.6,4.7c-4.1-0.2-7.4,1.3-10.9,2.9
	c-1,0.4-2,1-2.6-0.9c-1.9-5.5-4.6-7-10.6-5.5c-2.6,0.7-4.4-0.1-5.6-1.9c-3.7-5.5-9.5-9.1-12.8-15.1c-1.4-2.5-4.9-3.8-7.4-5.7
	c-0.2-2.5-1.6-4-4-4.5c-2.1-3.4,3-4.8,2.4-8c-0.1-0.5,1.9,0.2,3,0.5c2.1,3.8,4.5,7.2,7.5,10.4c2.2,2.4,3.9,2.7,6.7,0.6
	C69,319.2,72.6,316.3,76.6,320.4z"/>
<path class="st7" d="M140.4,237.3c1.4-0.3,2.9-1.1,4.2,0.2c1.6,0.9,1.5,2.4,1.2,3.8c-0.5,2.4,0.4,4,2.6,4.9c7.7,1,12.8,6,12.1,12
	c-2.6,0.7-4-1-5.4-2.7c-0.7-0.9-1.7-2.2-2.8-1.1c-1.2,1.1-0.4,2.5,0.6,3.5c1.7,1.7,3.9,2.6,6,3.6c2.5,1.2,4.5,2.8,5.5,5.4
	c0.3,4.8,4.2,7.3,6.9,10.6c3.2,3.9,3,4.3-1.6,5.6c-2.8,0.8-5.6,1.8-8.4,2.8c0-5.8,0-5.8-4.7-5.2c-3.4-1.6-5.7-3.3-2.7-7.4
	c1.6-2.2-2.3-9.8-5.7-12.2c-3.9-2.8-6,0.5-8.4,2.5c-2.2-0.7-2.6-2.4-1.8-4.2c1.2-2.6,0.7-4.9-0.4-7.3c-1.1-3.2-2.9-6.1-5.3-8.1
	c-2.4-2-1.7-4.7-2-6.8c-0.2-2.3,2.4-1,3.9-0.8C136.3,236.4,137.6,241.4,140.4,237.3z"/>
<path class="st7" d="M32.4,286.2c2.7-1.9,4-4.1,2.2-7.5c-1.4-2.7,0.1-6,2.8-5.3c4.9,1.2,8.2-1.5,12-3c3.2-1.3,6.1-2.8,9.7-0.3
	c3,2.1,5.7-2.1,8.9-1.1c2-0.1,4.2,1,2.1,2.5c-6.3,4.5-8.9,12.8-16.5,15.9c-5,5-9.6,10.4-16.3,13.3C33.1,296.7,31.5,291.9,32.4,286.2
	z"/>
<path class="st5" d="M391.5,242.7c-1.4,1.5-1.2,2.9-0.1,4.5c0.9,1.3,0.4,2.6-0.4,3.7c-1,1.4-2.5,0.9-3.5,0.2
	c-2.6-1.9-3.8-0.5-5.6,1.5c-3.3,3.6-7.2,6.7-10.9,10c-0.9,0.8-2,1.5-3.1,0.9c-1.3-0.7-1.1-2-0.5-3c1.5-2.6,0.3-6.1,3.1-8.1
	c4.9-1.8,7.3-6,8.6-10.6c0.6-2.1,1.1-3.3,3.5-2.9c2.4-0.7,2.7-2.9,2.6-4.7c-0.1-3,1.1-5.7,1.6-8.6c0.2-1.3,0.3-2.8,1.8-3.3
	c5.3-1.6,8.4-5.4,10.6-10.2c0.5-0.3,1-0.5,1.5-0.5c0.8,0,1.7,0.1,2.5,0c1.4-0.3,2.7-0.3,3.4,1.2c0.7,1.4-0.1,2.7-1.1,3.5
	c-4.4,3.3-3.5,6.8-0.4,10.3c-0.4,3.7-2.8,5.9-5.7,7.4C395.4,235.8,393.5,239.2,391.5,242.7z"/>
<path class="st12" d="M182.6,217c-1,1-2,2-3.6,2c-3.1,0.5-6.1,0.9-9.2,0.3c-7-3.7-13.2-14.6-11.7-20.6c0-0.4,0.1-0.6,0.4-0.8
	c0.2-0.2,0.4-0.3,0.4-0.2c2.7-1.1,3.2,0.6,3.3,2.7c0.2,5.6,4.4,8.7,7.8,12.2c0.8,0.8,2,1.1,3.2,1c1.3-0.1,2.9-0.1,3-1.8
	c0.1-1.4-1.3-1.7-2.4-2c-0.6-0.2,0.2,0-0.5,0c-4.2-0.2-7.7-1.4-7.7-6.4c0-3.8,3.4-6.2,8.9-6.3c2.6,0,3.6-1.2,3.9-3.5
	c0.2-1.4-0.4-3.1,1.5-3.8c4.2-1.3,7.8,0.4,11.1,2.5c4.9,3.1,5.6,13.4,1.3,17.3c-1.9,1.7-3.4,4.1-6.2,4.7c0.5-2.1,2.3-2.8,3.5-4.2
	C187.4,212.3,184.3,213.9,182.6,217z"/>
<path class="st7" d="M56.2,211c-0.1-6.1,0.9-7.6,6.8-8.8c5.3-1.1,8.7-4.4,11.6-8.7c1-1.4,1.1-3.9,3.4-3.7c1.9,0.2,2.9,2,3.6,3.8
	c0.8,2.2,0.8,4.2-1.4,5.7c-3.3,2.4-4,4.2,1,5c2.2,0.3,2.3,1.6,0.5,3c-1.9,1.5-3.8,3.2-5.7,4.8c-4.4,4.6-8,10.3-14.8,12
	c-0.2-0.2-0.4-0.5-0.7-0.7c-1-3.7,2.6-5,4-7.7C60.9,215.4,57.5,215,56.2,211z"/>
<path class="st7" d="M76.6,320.4c-4.5-1.5-8.3,0.2-11.1,3.4c-2.3,2.7-4,2.2-6,0c-2.3-2.6-4.8-5.1-6.8-7.8c-1.1-1.4-2.6-3.2-1-5.4
	c3.2-0.6,6.3-1.8,7.9-4.8c1.8-3.3,4-3,6.5-1.4c2.4,1.4,4.6,2.6,7.2,0.3c1.4-1.2,2.4-0.5,2.9,1.2c1,3.6-1.2,7.8,2.5,10.9
	C79.4,317.3,77.8,319.4,76.6,320.4z"/>
<path class="st6" d="M199,216.9c5.3-4.7,11-3.4,12.1,3.3c1.1,6.6,3.1,13.2,2.5,20c-0.2,1.8-0.3,3.6-0.8,5.3c-1.3,4.3-4,7.9-8.6,7.7
	c-4-0.1-7-2.9-9-7c-4.5-9.2-3.5-17.7,1.5-26.3C197.3,218.7,198.1,217.8,199,216.9z"/>
<path class="st5" d="M139.3,191.3c5.9-2.4,12-4.5,13.7-11.9c0.4-1.6,2.7-2.8,4.1-4.1c2.3-4.7,4.9-5.2,8-1.5c0.4,0.5,0.7,1.1,1.1,1.7
	c4.6,6.3,4.5,8.7-2.2,12.9c-5.6,3.5-9.9,8.2-14.8,12.3c-3.7,3-5.7,3-7.7-1.2C140.4,196.9,136.1,195,139.3,191.3z"/>
<path class="st7" d="M110.2,233.6c-1.8-2-3.2-4.3-6.6-2.6c-1.4,0.7-2.1-0.2-1.6-1.8c2-6.3,6.5-10.8,11.2-15.1
	c0.7-0.7,1.5-0.8,2.1-0.1c4.5,5.4,10.4,9.7,13.5,16.3c-1.7,3.3-3.8,2.8-5.7,0.3c-1.4-1.9-2.7-2.7-4.9-1.6
	C115,229.7,114.1,234.4,110.2,233.6z"/>
<path class="st7" d="M269.3,290.8c1.2,5.5,7,8,13.2,5.6c-3.2,1.9-3.8,6.1-7.2,8c-1.7,1-0.8,2.6,0.3,3.8c1.9,2.1,3.8,4.2,5.6,6.3
	c2.4,2.9,0.3,4.7-1.9,6c-2.5,1.4-4.1,0.4-4.4-2.5c3.5-0.5,4.4-2,1.7-4.6c-3-2.9-6-5.5-4.5-10.6c0.5-1.8-1.7-1.4-2.7-0.5
	c-1.9,1.6-3.7,3.4-5.5,5.1c-3.4,3.3-6.9,6.4-12.7,3.2c4,5.3,6.2,5.4,10.9,1.1c4.9-4.4,8.4-3.7,10.3,2.1c-4.2-2.8-7.3-2.7-10.3,2.3
	c-2.9,4.6-6.4,4.2-10.3,0.3c-0.8-0.8-1.8-1.5-2.5-2.4c-2.6-3.3-5.1-6.1-8.2-0.4c-1,1.8-2.7,1.2-4.1-0.3c-2-2.1-1.6-4.3,0-6.2
	c2.7-3.2,7.1-3.6,10.8-1.3c8.4,5.2,17.4,1.1,19.4-8.8C267.6,294.6,267.8,292.5,269.3,290.8z"/>
<path class="st11" d="M144.3,232.5c-2.2-3.9,1.8-6.6,1.8-10.7c2.9,1.9,4.8,4,6.7,5.8c3.8,3.8,8.2,3.8,12.8,3.3
	c6.2-0.6,8.5,0.7,8.6,6.7c0,5,2.7,9.4,2.2,14.5c-0.3,2.8-1.1,2.7-3,1.7c-5-2.6-6.2-5.3-5-10.9c0.6-2.8-3-9-5.8-9.1
	c-3.7-0.1-7.1-1.5-10.6-2.3c-2.4-0.6-4.6-1-5.4,2.2C145.5,233.8,144.8,233.3,144.3,232.5z"/>
<path class="st5" d="M272.4,313.6c-4.8-5.1-5.5-5.1-10.1,0.1c-3.9,4.4-10.5,3.3-13.1-2.1c-0.5-1-0.6-1.9,0.3-2.7
	c0.8-0.8,2-0.9,2.7-0.3c4.7,4.3,7.4,0.4,10.3-2.3c2.1-1.9,4.4-3.5,6-6c1.3-2.1,3.2-1.5,4.9-0.7c2.2,1,1.7,2.8,0.6,4.2
	c-2.1,2.8-0.9,4.4,1.5,6.1c1.5,1,2.6,2.6,3.8,3.9c1.3,1.4,2.4,3,0.7,4.8c-1.9,2-3.6,1.1-5-0.6C273.7,316.8,272.7,315.4,272.4,313.6z
	"/>
<path class="st13" d="M179.9,189.5c0.1,1.5,0.3,2.9,0.3,4.4c-0.1,3.3-3,5.8-5.9,4.5c-3.2-1.5-4.6,0.4-6.4,2.1
	c-1.5,1.4-1.7,3.2-0.7,5c1.3,2.4,3.4,2.8,6,2.4c2.7-0.4,5.5,0.5,5.5,3.4c0,3.2-3,4-5.8,3.9c-4.9-0.1-12.4-9.2-12.3-14.9
	c0-1.5,0.4-2.6-1.6-2.3c1.4-2.9,4.1-4.5,6.5-6.3v0.2c4.2,0.6,8.3,1,11.5-2.4C178,189.5,178.9,189.5,179.9,189.5z"/>
<path class="st14" d="M256.8,54.6c8,2.3,14.7,6.8,20.2,12.9c2.9,3.2,4,7.2,3,11.6c-0.5,2.3-1.7,4.1-4.5,3.5
	c-2.3-0.5-3.2-1.9-2.6-4.4c0.7-3.2-0.9-5.7-3-8c-3.9-4.3-8.5-7.8-13.2-11.2C255.1,57.5,255,56.1,256.8,54.6z"/>
<path class="st7" d="M221.4,260c0.7,0.3,1.7,0.5,2.2,1c2.3,3.2,4.9,4.6,8.9,2.5c1.9-1,3.9-0.3,5.5,1.2c0.9,0.8,2.2,1.2,3.2,0.6
	c1.5-0.9,0.4-2-0.1-3c-0.5-0.8-0.7-1.6,0.1-2.2c0.9-0.8,2.2-0.5,2.7,0.4c1.7,3.3,6.1,4.1,7.2,8c0.4,1.5,1.8,3.2,3.2,3.7
	c5.4,2.2,7.2,8.6,12.9,10.4c1.4,0.4,2.7,2,2.5,4c-1.5-1.9-3.1-3.4-5.6-3.8c-1.3-0.2-2.8-0.7-3.3-2c-2.4-5.6-8.5-7.8-11.7-12.7
	c-0.1-0.1-0.2-0.3-0.3-0.4c-2.4-2.3-16.3-2.7-18.8-0.5s-4.9,4.5-7.4,6.7c-3.1,2.6-4.5,5.7-3.2,9.7c0.5,1.6,0.9,3.3-0.8,4.5
	c-1.8,1.3-3.2-0.4-4.5-1.1c-2.1-1.3-4.2-2.7-4.8-5.4c-0.4-1.5-0.6-3.5,0.8-4.1c4-1.6,5.4-6,9.4-7.8c4.6-2.1,5-5.5,2.5-9.1
	C221.6,260.4,221.5,260.2,221.4,260z"/>
<path class="st5" d="M139.3,191.3c-0.5,4.6,3.3,6.8,5.5,9.9c0.9,1.3,2.7,0.1,3.9-0.9c6.2-5.4,12.3-10.9,18.5-16.2
	c2.5-2.1,2.4-4.1,0.3-6.3c-0.7-0.7-1.3-1.5-2-2.2c-3.8-4.1-3.9-4.1-8.4-0.3c-0.2-0.2-0.4-0.5-0.7-0.7c3.2-4.3-3-3.9-3.2-6.5
	c0-0.9,0.1-1.9,0.1-2.8c2.2,3.2,5.7,0.8,8.4,1.9c2.1,0.2,3-1.6,4.4-2.6c-3.1,4.9-1.1,9.1,2.2,12.8c3.1,3.4,2.6,6.2-0.8,8.8
	c-6,4.4-11.7,9.2-17.3,14.1c-3.6,3.2-2.8,5.6,0.3,8.1c1.9,1.5,4.1,2.8,5.6,4.9c0.6,0.9,2.1,1.7,1.2,2.9c-0.8,1.1-2.4,1.4-3.6,0.9
	c-1.9-0.7-3.7-1.6-5-3.2c-5.1-3.1-5.8-9.2-8.8-13.7c-1.1-1.7-1.2-4.2-2.9-6c-1.7-1.9-0.4-2.9,1.6-3.4
	C138.9,190.8,139.1,191,139.3,191.3z"/>
<path class="st7" d="M179.4,295.1c5.8-5.3,6-5.3,8.2,2.3c0.6,2.1,1.8,2.8,3.8,3.3c1.6,0.4,3.8,0.1,4.7,2.2c1,2.2,3.1,4.2,0.1,6.5
	c-2.7,2.1-4.2,0.1-5.8-1.6c-1.3-1.5-2.7-2.9-4-4.4c-1.6-1.8-3.6-2.5-5.8-1.2c-2,1.2-3.7,1.4-5.2-0.6c-1.8-2.6,0.9-3.4,2-4.8
	C178.1,296.1,178.8,295.7,179.4,295.1z"/>
<path class="st7" d="M110.2,233.6c3.4-0.3,4.6-4.4,8-4.5c-1.4,1.2-2.7,2.4-4,3.7c-0.7,0.7-1.9,1.8-1.7,2.3c2.9,6.9-4.2,8.9-6.7,12.9
	c-2.1,3.3-5.7,5.9-8.3,9.1c-1,1.2-2.3,2.6-4.2,1.2c0.5-1.2,2.2-1.5,2.3-2.9c-0.5,1.3-1.5,2.1-3,2.2c2.7-6-2.5-9-5-13
	c0.4-1.2,1.3-0.9,2.2-0.6c1.7,3.7,2.8,4.1,7.4,2.3c5.2-2,8.3-4.9,11.6-8.6C109.9,236.4,110.7,235.3,110.2,233.6z"/>
<path class="st5" d="M367.5,92.1c-1.2,1.3-1.4,2.3,0.4,3.6c6.4,4.5,7,6.9,4.4,13.9c-1,2.6-1.4,5.3,1.6,7c1.8,1,2.2,2.9,2.9,4.5
	c0.8,1.7,1.8,3.2,3.7,3.8c3,1,5.8,2.4,4.2,6.4c-1.7,4-6.8,6.4-10.1,4.1c-4.6-3.2-7.7-1.4-10.8,1.9c3.6-6.6,6.1-7.4,11.6-3.6
	c3,2.1,7.5,0,8-3.6c0.3-2.3-1.1-2-2.4-1.7c-2.9,0.7-3.8-0.8-4.3-3.3c-0.6-3.1-1.7-5.8-4.8-7.7c-3-1.8-4.7-4.3-1.3-8.1
	c2.3-2.6,3.5-5.9-2-8c-6-2.3-6.2-5.9-1.5-11.3c0.2,0,0.4,0.1,0.6,0.1c0,0.2,0,0.4,0.1,0.6C367.5,91.2,367.5,91.6,367.5,92.1z"/>
<path class="st7" d="M310.9,63.6c-1.3-1.4-2.8-2.8-1.9-5.1c3.8,5.3,9.6,8.6,13.6,13.6c0.6,0.8,1.3,1.5,2,2.2c1.7,1.7,1.9,6,4.5,5.2
	c3.9-1.2,7.5-4,11-6.4c1.2-0.8,0.4-2.1-0.5-3c-2-2.2-3.7-4.6-6.4-6.2c-2.9-1.7-3.5-4.4-3-8.2c2.4,1.9,4.4,3.3,6.3,4.8
	c1.3,4.5,4,7.1,8.8,6.8c0.4,0.9,0.7,2.4,1.2,2.5c5.6,1.4,8.6,5.8,11.5,10.2c-2.3,1.7-3.8,0.7-4.3-1.7c-0.6-2.7-1.9-3.2-4.3-2.3
	c-0.6,0.3-1.4,0.6-1.9,0.3c-6.1-4.1-9.7,0.7-13.7,3.8c-4,3.1-5.3,2.7-8.7-1.4C321,73.6,316.5,68.1,310.9,63.6z"/>
<path class="st7" d="M310.6,55.8c0.3-0.7,0.5-1.4,0.8-2.1c1.7-4.1-1.9-10.4-7.1-12.4c-4.5-5.6-11.5-8.7-15.4-14.9
	c0-0.3,0-0.5-0.1-0.8c2.1,0.1,3,2,4.2,3.2c2.5,2.5,5.2,4.7,9.1,3.9c0.6-0.1,1.7-0.2,1.9,0.1c2.4,4.5,8.5,5.6,10.1,10.7
	c0.8,2.6,2.2,4.5,5.1,4.6c3.2,0.2,5.4,2.7,6.7,4.6c2.1,3.1-1.5,2.7-3.4,3c-0.2-0.9,0.1-2.1-1.2-2.2c-0.2,0-0.1,1.4-0.3,2.2
	C317.7,53.6,314.1,50.7,310.6,55.8z"/>
<path class="st7" d="M156,318.3c-3.5-1.9-1.5-3.7,0.8-5.6c1.5-1.3,3.1-2.5,4.3-4.1c1.6-2.2,2.9-4.4,5.7-1.6c2.4,2.4,5.1,4.7,1,8.1
	c-1.2,1-2,2.6-3,3.9C161.3,323,159.7,323,156,318.3z"/>
<path class="st7" d="M132.5,50.7c1.3,1.6,1.6,4.1,0.5,5.1c-4.2,4-0.4,11.3-6.4,14.6c-4.6,2.5-4.7,6.4-0.9,10c1,0.9,2.3,1.4,3.2,2.3
	c2.4,2.5,4.5,5.2,1.6,8.7c-1.6,1.9-1.3,3.7-0.4,5.5c1.6,3.1,0.8,5.4-1.8,7.3c0.9-2.6,1.9-5.2,0.2-8c-1-1.6-0.5-3.3,0.6-5.1
	c1.9-3.1,1.4-6-1.9-8.1c-3-1.9-4.6-5.5-8.9-5.8c-2.3-0.1-1.7-7.3,1.6-8c9.7-2.2,8.6-10.7,11.5-17C131.7,51.8,132.2,51.3,132.5,50.7z
	"/>
<path class="st7" d="M405.1,226.4c-3.7-3.5-5.9-6.9-0.3-10.6c0.8-0.5,1.4-1.6,1-2.6c-0.5-1.4-1.6-0.6-2.5-0.3
	c-1.2,0.4-2.2,0-3.1-0.9c0-1.6,1.4-2.1,2.3-3c3.1-3.4,2.9-5-1.3-6.9c-0.7-0.3-1.6-0.5-1.8-1.4c2.3-5,4.7-10,7-15
	c5.9,2.4,6.1,3.1,1.5,8.4c-0.3-0.1-0.2,0-0.1,0l0,0c-0.7-0.1-0.4,0.6,0.1,0c0.4,5.9,0.3,11.8,0.4,17.7c0,1.8-0.7,3.2-1.9,4.4
	C403.2,219.2,402.6,222.6,405.1,226.4z"/>
<path class="st1" d="M101,380.6c-3.2,1.6-4.4-1.7-6.1-2.9c-2.5-1.9-4-4.4-8-3c-2.5,0.9-4.9-2.9-3.2-5.2c1.7-2.4,0.4-3.7-1-5.1
	c-7.3-7.7-13.6-16.2-22.7-22.1c-2.9-1.9-5.4-5.4-5.9-9.5c5.6,5.7,10.6,12,16.9,17c5.3,4.5,9.4,10.2,14.2,15.2
	c1.3,1.3,2.2,2.9,3.9,3.8C92.3,373.3,97.2,376.4,101,380.6z"/>
<path class="st7" d="M224,311.6c1.7,2,1.8,3.8,0.6,6c-2.1,3.6-5.7,4.8-9,6.7c-0.8,0.5-1.7,0.4-2.2-0.4c-0.8-1.5-1.3-3.5-0.4-4.7
	c2.2-2.8,4.4-5.5,6-8.9C220.3,307.4,222.3,311.1,224,311.6z"/>
<path class="st15" d="M125.1,381.8c-1.7-0.4-3.3-0.9-5-1.3c0-0.4,0-0.8,0-1.3c12,2.3,23.3-1.3,34.7-4.7c0.1,0.6,0.2,1.2,0.3,1.7
	c-4,1.3-7.9,2.6-12.1,4c1.7,1.1,3.6-0.1,5.1,1.8c-4.7,1.2-9.2,2.4-13.9,2.4c-1.5,0-3.2-0.9-4.3,0.9c-2.7,1.4-2.5-1.2-4-2.7
	c3.7-0.5,6.8-0.8,9.9-1.1C132.2,381.8,128.7,382.9,125.1,381.8z"/>
<path class="st7" d="M89.8,243.9c-0.7,0.2-1.4,0.4-2.2,0.6c-2.1-1.9-4.8-0.8-7.1-1.3c-2.1-0.5-3.8-1.2-4.6-3.2
	c-0.5-1.3-0.5-2.6,0.5-3.8c1.1-1.2,2.1-0.1,3.1,0.2c3.3,1.2,6.5,3.7,9.8-0.4c1.1-1.3,3.3-0.8,4.3,0.8c1,1.5-0.4,2.3-1.6,2.9
	C90.3,240.5,89.9,242.1,89.8,243.9z"/>
<path class="st5" d="M310.9,63.6c6.4,3.7,10.7,9.6,14.9,15.3c2.3,3.1,4.3,3.7,7.3,1.1c2.1-1.8,4.6-3.2,6.8-4.9
	c1.7-1.2,3.4-1.3,5.1-0.3c1.4,0.8,2.8,1.4,4.3,0.7c3.3-1.5,4.9-0.7,5.3,3c0.2,1.9,1.9,2,3.5,1.7c1.4,1,2.7,2,4.1,3
	c1.9,1.9,5.4,2.8,4.6,6.6c-3.3-3.6-7.3-6.1-11.5-8.8c-3.2-2-6.2-3.1-9.6-4.3c-3.3-1.3-5.6-1.1-7.9,1.4c-1.3,1.5-2.8,2.8-4.4,4
	c-2.9,2.1-6,1.5-7.8-1.3C321.5,74.5,315.7,69.5,310.9,63.6z"/>
<path class="st16" d="M220,13.4c10.4-6.8,35.4-2.5,41.1,7.7C247.3,15.5,234.8,8.2,220,13.4z"/>
<path class="st7" d="M164.4,266.9c-3.3-2.4-6.6-4.8-10.5-6.2c-2.2-0.8-4-2.3-4-5c0-1.5,0-3.1,1.8-3.6c1.7-0.5,3.5-0.4,4.3,1.4
	c1,2.3,2.3,3.9,4.7,4.7c-0.4,0.7-2.5,2-0.4,2.2C164.5,261.1,164,264.1,164.4,266.9z"/>
<path class="st7" d="M138.7,190.5c-1.6,1.3-1.8,2.7-0.3,4.2c1.5,1.4,1.8,3.6,3,5c3.5,4.2,3.1,10.3,7.4,14c-2,0-3.1-1.5-3.8-2.9
	c-2.5-4.5-5.3-8.3-10.9-9.4c-1.3-0.3-2.9-1.9-2.2-3.4c0.8-2,2.1-0.2,3.2,0.2c1.1,0.4,2.7,1.7,3.2-0.4c0.4-1.6-0.8-2.8-2.4-3.2
	c-1.5-0.4-3.8,1.4-4.5-1.5c0.1-0.9,0.8-1.3,1.4-1.8c0.8-0.5,1.2-1.5,2.3-1.6C136.3,189.9,137.5,190.2,138.7,190.5z"/>
<path class="st7" d="M316.4,310.3c-0.1,1,0,2-0.2,2.9c-1.2,4.6,0.9,4.5,4.1,3c-1.7,4.6-5.6,4.3-9.1,3.2c-2.9-0.9-5.2-1.3-7.9,0.4
	c-1.3,0.8-3.6,1.4-4.6-0.1c-1.2-1.8,1.4-2.1,2.2-3.1c2.2-3.2,4.5-4.2,8.3-2C313.4,316.8,314.6,312.6,316.4,310.3z"/>
<path class="st7" d="M45.9,244.4c0.1,0.3,0.2,0.7,0.2,1c-0.9,4.7-2.4,10.2-7.1,11c-4.7,0.8-6.3-5.3-10.2-8.5c3-1.1,4.5,0.5,6.3,0.9
	c3.3,1,6.1,0.6,8.1-2.5C43.8,245.4,44.6,244.5,45.9,244.4z"/>
<path class="st17" d="M162.5,30.2c4.5-3.4,8.3-7.6,13.4-10.3c3.1-1.6,6.2-3.1,9.9-2.5c-14.7,6.2-26.3,16-35.7,29.2
	c0.8-7.3,6-11.1,10.7-15.1C161.1,30.7,161.7,30.3,162.5,30.2z"/>
<path class="st7" d="M103.7,201.8c2.6-2.1,4.2-4.7,7.1-2.8c2,1.2,1.5,3.2,1.2,5c-0.4,2.2-8.1,5.7-10,4.7c-1.9-0.9-1.5-2.6-0.8-3.8
	C101.9,203.3,103.3,202.2,103.7,201.8z"/>
<path class="st7" d="M102.3,187.6c-2.8-1.9-2.1-3.8-0.2-5.8c1.8-1.9,3.5-3,5.7-0.3c2.2,2.8,4.1,6.6,1.8,8.9
	C107,193,104.4,189.5,102.3,187.6z"/>
<path class="st18" d="M130.5,146.7c-5.4,0.7-10,3.1-13.9,6.9c-0.9,0.9-2.1,2.8-3.6,1.2c-1.2-1.3-0.2-2.8,0.9-3.9
	c4.4-4.3,9-8.2,15.8-7.8C131.2,144,131.9,145.1,130.5,146.7z"/>
<path class="st7" d="M162.5,30.2c-0.5,0.4-1.1,0.9-1.6,1.3c-5.9,0.9-9,5.8-12.6,9.6c-2.2,2.2-3,5.5,1.1,7.9c2,1.2,4.1,2.9,4.3,5.7
	c-1.4-2.1-3.7-3.2-5.6-4.8c-3.3-2.7-3.8-6.2-1-9.1c3.7-3.9,5.6-10.1,12.3-10.6c0.6,0,1.3-0.6,1.1-1.4c-0.2-1.1-1.2-1.1-2-0.8
	c-2.2,0.7-4.2,1.8-6,3.4c-1.4,1.3-2.5,3.2-4.9,3.1c2.4-3,4.6-6.1,8.8-7.3C159.9,26.2,161.7,26.6,162.5,30.2z"/>
<path class="st19" d="M122.9,302.3c8.3-9.3,14-20.8,23.9-28.7c0.4,0.3,0.8,0.7,1.1,1c-1.2,1.5-2.2,3.2-3.6,4.6
	C136.8,286.5,131.7,296.1,122.9,302.3z"/>
<path class="st20" d="M204.3,264.6c-2.2-0.4-1.9-1.3-0.5-2.4c6.3-4.7,10.3-11.4,14.9-17.6c1.4-1.9,2.5-3.9,2.8-6.5
	c2.7,1.9,1.7,4.1,0.6,6.1c-2.5,4.7-6.2,8.5-9.3,12.7C210.3,260.1,207.6,262.7,204.3,264.6z"/>
<path class="st7" d="M107.4,287.3c-2.5-3.4-6.5-5.7-7.4-10.2c-0.3-1.4-1.4-3,0.2-4.1c1.9-1.2,2.9,0.6,4,1.8c0.8,0.8,1.5,1.7,2.3,2.6
	c-0.1,2.6,1.9,4,3.1,5.9C110.9,285.5,111.6,287.8,107.4,287.3z"/>
<path class="st21" d="M110.7,261.2c-1.4,1.9-3,3.4-5.3,4.6c-0.6-2.4,1.4-3.4,2.5-4.5c4.5-4.4,9.3-8.5,14-12.7c1.1-1,2.2-2.1,3.8-0.5
	c1.9,1.9-0.3,2.5-1.1,3.4c-3.1,3.4-6.2,6.6-9.6,9.7c0.3-2.7,2.2-4.2,3.8-5.9C114.7,255.4,113.2,258.9,110.7,261.2z"/>
<path class="st5" d="M399.3,200.7c2.9-0.2,6.3-0.2,7,3c1,4.5-2.4,6.8-6.2,8.3c-1.4-1.5,0.4-3.4-0.4-5
	C399.8,204.9,397.1,202.9,399.3,200.7z"/>
<path class="st7" d="M381.8,197.6c0.3,0.4,0.7,0.7,1,1.1c5.2,5.8,5.7,5.7,10-1c0.4-0.5,0.7-1.1,1.1-1.6c0.6,2.1-0.6,3.8-1.5,5.5
	c-1.1,2.2-2.5,4.3-1.6,7c1.1,3.3-0.9,4-3.8,2.5c-1.2,0,0.4,0.6,0.3,1.7c-0.3-1,0.4-2.2-0.3-1.7c-1.1,3.1-2.4,3.3-3.8,1.6
	c-1.1-1.3-1.5-3.1-0.3-4c4.3-3.5,2.2-6.3-0.6-9.2C381.9,199.1,381.9,198.2,381.8,197.6z"/>
<path class="st22" d="M225.6,327.4c-15.4,13.8-30.8,27.7-46.1,41.5c0.1-1.7,1.4-2.5,2.5-3.5c13.3-12,26.6-23.9,39.9-35.8
	C222.9,328.5,223.9,327.3,225.6,327.4z"/>
<path class="st7" d="M172.2,36.5c1.9,1.9,3.3,4.1,4.6,6.5c1.9,3.5,1.6,5.9-2,7.6c-2.6,1.2-4.1,3.1-5.5,5.4c-3.3,5.3-6.1,6.3-9.6,3.9
	c2.6-0.2,4.4-1.2,6-3.6s3.9-4.8,6.5-6c4.9-2.3,4.7-5.1,2.4-9.1C173.7,39.8,171.9,38.6,172.2,36.5z"/>
<path class="st5" d="M281.1,24.6c-4.3,1.1-8.5,2.6-11.9-2.5c-1.6-2.4-2.3,1.2-3.7,1.6c-0.2-1.3-0.4-2.6-0.6-3.9
	c-0.3-1.6-1.5-3.3,0.1-4.7c1.7-1.4,2.9,0.8,4.5,1c2.2,4.1,4.8,7.7,10.3,6.9C280.7,23.2,281.2,23.6,281.1,24.6z"/>
<path class="st23" d="M171.8,169.1c5.7,2.3,11.4,4.2,17.3,5.6c0.9,0.2,2.2,0.2,2.1,1.6c-0.1,1.6-1.5,1.7-2.6,1.5
	C182,176.7,175.9,174.7,171.8,169.1z"/>
<path class="st24" d="M124.2,89.1c-3.6,9.1-7.2,18.3-10.9,27.4c-0.4-0.2-0.8-0.3-1.2-0.5c2.5-9.6,6.2-18.7,10.7-27.4
	C123.3,88.7,123.7,88.9,124.2,89.1z"/>
<path class="st25" d="M316.4,59.6c8,1.1,13,6.4,17.7,11.9c-0.3,0.5-0.7,0.9-1,1.4C327.5,68.5,321.9,64.1,316.4,59.6z"/>
<path class="st7" d="M200.7,6.9c-3.9,3.1-7.1,6.4-6.8,12.2c0.2,5.2-4.3,2.1-6.7,2.7c3-2.2,6.7-4.3,1.2-7.8c-1-0.6-0.6-2.4,0.5-2.1
	C194.2,13.3,196.4,7.8,200.7,6.9z"/>
<path class="st26" d="M255.4,25.1c-1.2,0.6-2.3,0.1-3.4-0.2c-4.6-1.5-9.1-3.1-13.6-4.6c-0.7-0.2-1.3-0.5-1.2-1.3
	c0.1-1.1,0.9-1.4,1.7-1.3c5.7,0.8,10.9,2.9,16,5.4C255.9,23.6,255.9,24.3,255.4,25.1z"/>
<path class="st27" d="M44,267c-0.1-3,2-3.9,3.3-5.2c3.2-2.9,6.6-5.5,9.5-8.7c1.9-2.1,4.4-3.6,8-1.3C56.1,254.8,51.3,262.2,44,267z"
	/>
<path class="st7" d="M56.2,211c3.2,4.3,7.1,3.9,11.6,1.1c-0.2,5.7-6,6.9-7.3,11.2c-0.2-0.3-0.6-0.6-0.6-0.7
	C62.1,217.5,56.5,215.1,56.2,211z"/>
<path class="st28" d="M133.1,334.6c-5.9,5.3-12.1,10.2-18.2,15.2C119.4,342.8,125.5,337.8,133.1,334.6z"/>
<path class="st29" d="M221.4,260c-0.1,0.3,0,0.5,0.3,0.6c-2.8,3.7-6.5,6.5-10.1,9.4c-1.2,1-3.3,1.7-4.3-0.3c-0.8-1.7,1.2-2,2.3-2.4
	c4.3-1.7,6.4-6.7,11.1-7.8C220.9,259.7,221.1,259.9,221.4,260z"/>
<path class="st30" d="M256.7,299.3c-1.9,0.9-3.2,5.8-5.4,2.8c-2.1-2.8,2.7-3,4.3-4.4c3-2.7,4.8-6.2,7-9.5c0.5-0.8,0.6-2.2,1.8-1.8
	c1.4,0.5,1,2.2,0.4,3C262.3,293,261.5,297.7,256.7,299.3z"/>
<path class="st7" d="M53.6,287.3c3.9-3.9,9.1-6.7,10.8-12.6c0.5-1.7,2.4-1.5,3.7-2.2c2.2-1.2,2.8-2.4-0.1-3.6
	c1.6-0.8,3.2-1.6,4.8-2.4c0.3,0.4,0.7,0.7,1,1.1C67.3,274.4,63.1,283.3,53.6,287.3z"/>
<path class="st7" d="M32.4,286.2c0,5.4,3.3,9.6,4.9,14.4c-0.6,1.1-0.8,2.9-2.5,2.4c-2.2-0.6-3.7-3.5-3.1-4.5
	c1.8-3.2-0.4-5.6-0.8-8.3C30.7,288.7,31.4,287.3,32.4,286.2z"/>
<path class="st5" d="M183,229.4c-1.2-1.6-3.2-3.3-0.8-5c2.2-1.6,4.7,0.1,6.3,1.4c1.9,1.5,0.9,3.7-0.7,5.1
	C185.4,233,184.4,230.6,183,229.4z"/>
<path class="st31" d="M28.1,255.2c-2.5,6.7-5.5,13.2-0.3,20.9C20.3,272.3,21,261,28.1,255.2z"/>
<path class="st32" d="M374.9,203.5c1.1-2-0.6-4.2,0.3-6.3c3,7-1.4,18.1-9.8,23.7c3.1-5.6,7.4-10.5,9.3-16.7
	C374.5,203.8,374.6,203.6,374.9,203.5z"/>
<path class="st33" d="M184.8,309c1.2-0.6,2.4,0.2,1.5,1c-6.9,6.3-13.5,13-21.7,17.9c0-0.1-0.1-0.2-0.1-0.4c0-0.2,0-0.3,0.1-0.5
	C171,320.7,177.6,314.4,184.8,309z"/>
<path class="st34" d="M92.3,327.5c5-5.2,9.4-11.2,17.5-11.8C103.7,319.1,98.4,323.8,92.3,327.5z"/>
<path class="st35" d="M69,301.4c0-2.8,1.9-4.2,3.6-5.6c4.5-3.9,8.9-7.9,13.4-11.8c0.3,0.4,0.7,0.8,1,1.2
	C81.1,290.5,75.1,295.9,69,301.4z"/>
<path class="st7" d="M399.7,207c1.5,1.5,0.3,3.3,0.4,5c-1.7,4.7-4.9,8-9.4,10c-1.7,0.7-3,1.9-4,3.5c-1-2-0.8-3.9,1.5-4.3
	C396.1,219.6,396.7,212.4,399.7,207z"/>
<path class="st36" d="M95.6,172.5c0.9-0.4,1.7-1.1,3.9-0.4c-6.5,5-11.1,11.3-18.3,14.6c-0.1,0-0.3-0.1-0.3-0.2c-0.1-0.1,0-0.3,0-0.5
	C85.2,181,90.3,176.7,95.6,172.5z"/>
<path class="st5" d="M257.4,32.5c-1.1,1.1-3.1,2.4-3.9,1.4c-4.4-5.6-12.2,3-16.3-4.2c-2-3.5-5.4-6.2-8.2-9.3c1.7-1.6,2.2,0.4,3,1.2
	c2.1,2.1,3.9,4.5,6.1,6.5c2.9,2.7,6,3.9,9.6,1.1c2.4,0.9,4.2,3,6.9,3.2C255.5,32.7,256.5,30.7,257.4,32.5z"/>
<path class="st37" d="M147.2,168.4c-3.2-0.2-4.3-2.9-6.3-4.8c-1.6-1.6-3.5-3.5-6-4.1c-2.1-0.5-1.5-1.7-0.6-2.9
	C140.7,158.3,144.3,163,147.2,168.4z"/>
<path class="st7" d="M104.1,134.2c-1.5,0.4-4.3-0.7-3.1,2.7c0.1,0.4-0.2,1.2-0.5,1.3c-3.7,1.4-2.6,4.9-3.3,7.6
	c-1.2-2.5-3.6-4.9,0.2-7.4c1.2-0.8,1.2-2.5,0.5-4.1c-0.6-1.3-1.1-2.8,0.1-4.1C100.7,130.5,103.4,130.7,104.1,134.2z"/>
<path class="st38" d="M98.5,211.9c-5.9,6.7-11.6,13.6-17.4,20.3C85.3,224,91.4,217.6,98.5,211.9z"/>
<path class="st7" d="M217.1,17.7c-0.5-0.1-1.3-0.1-1.3-0.4c-1.3-6.3-7.3-7.7-11.5-10.9c3.8,0.3,7.2,2.6,11.3,1.9
	c1.7-0.3,1.8,1.7,1,3C215,13.6,215.8,15.6,217.1,17.7z"/>
<path class="st12" d="M177,189.5c-3.4,5.8-5.8,6.3-11.5,2.4C169,189.7,173,189.3,177,189.5z"/>
<path class="st7" d="M247.6,29.2c-4.2,3.6-5.7,3.5-9.9-0.5c-2.9-2.7-4.6-6.8-8.8-8.3c-1.1-1.4-2.4-2.5-4.1-3c2.4-1.4,4,0.1,5.5,1.7
	c2,2.1,3.9,4.5,6,6.5C239.5,28.7,242.9,31.1,247.6,29.2z"/>
<path class="st5" d="M345.4,67.6c-2.1,2.4-4,2.2-6.1-0.2c-1.4-1.6-3.3-2.7-4.6-4.3c-2.4-2.9,0.5-2.1,1.8-2.3c1.8,1,3.7,2.1,5.5,3.1
	c0.5,3,2.4,0.5,3.5,0.9C345.5,65.7,345.5,66.6,345.4,67.6z"/>
<path class="st39" d="M297.6,304.9c-2.5,3.6-9.4,5.8-12.6,4.2c-0.6-0.3-1.3-0.7-1-1.4c0.2-0.5,0.9-1,1.4-1
	C289.4,306,293.4,305.5,297.6,304.9z"/>
<path class="st40" d="M304.3,298c-6,4-12.5,6.7-20.1,5.4C291.7,304.3,297.1,298.3,304.3,298z"/>
<path class="st7" d="M106.9,174.6c-1.4,1.1-2.8,1.2-4-0.1c-1.5-1.7-1.5-3.7,0-5.4c1.4-1.6,2.6-0.4,3.7,0.8
	C108,171.4,108.5,173,106.9,174.6z"/>
<path class="st41" d="M32.6,240.1c-0.9,0.8-1.8,1.6-2.9,2.6c-0.6-2,1-2.9,1.6-4.1c5-5.5,10.7-10.2,16.4-14.9
	c1.1-0.3,1.8-2.1,3.7-1.1c-0.8,0.9-1.6,1.8-2.3,2.7C43.1,229.8,37.6,234.8,32.6,240.1z"/>
<path class="st7" d="M147.5,34.5c-3.2,2.5-5.7,5.3-6.1,9.8c-0.2,2.5-1.9,4.6-4.9,4.7c-1.6,0.1-2.9,0.5-4,1.7
	c-0.1-1.2,0.2-2.9,1.3-2.8c5.2,0.3,5.3-3.1,6.3-6.9C141,37.9,143.9,35.4,147.5,34.5z"/>
<path class="st42" d="M158.5,50.1c-1.3-7.2,5.3-8.8,9-12.5C165.5,42.4,159.6,44.5,158.5,50.1z"/>
<path class="st43" d="M119.8,86.3c-2.6,6.5-5.3,13.1-7.9,19.6c0.6-7.4,3.5-13.8,6.8-20.1C119.1,86,119.5,86.2,119.8,86.3z"/>
<path class="st44" d="M150,281.1c-4.4,3.9-8.7,7.8-14.1,12.7c3.5-6.8,8.4-10.1,12.8-14C149.2,280.2,149.6,280.7,150,281.1z"/>
<path class="st45" d="M256.8,54.6c-0.5,1.4-0.5,2.9-0.1,4.3c-2.4-0.9-4.4-2.8-7.2-2.8c-1,0-2-0.7-1.7-1.9c0.3-1.2,1.5-1.2,2.4-1.2
	C252.5,53.1,254.7,53.5,256.8,54.6z"/>
<path class="st46" d="M170.2,43.3c-3.1,3.7-6.6,7.3-9.4,11.7C159.7,50.4,162.9,46.4,170.2,43.3z"/>
<path class="st7" d="M202.6,307.8c-0.7-0.9-2.1-2.2-0.4-3.2c2.3-1.4,4,0.8,5.7,1.9c1,0.6,1.5,2,0.1,2.8
	C205.9,310.4,204.1,309.6,202.6,307.8z"/>
<path class="st7" d="M104.1,134.2c-2.1-1.3-4.1-2.6-6.2-3.9c2.5-1,4.4-2.3,3.1-5.5C102.8,127.7,107.6,129.6,104.1,134.2z"/>
<path class="st7" d="M137.6,252.1c3.3,1.7,5.3,3.6,1.7,7.1c-1.3,1.3-0.8,3,0.5,4.3c-3.3-0.4-3-2.9-2.9-5.2
	C137,256.2,137.3,254.1,137.6,252.1z"/>
<path class="st47" d="M86.9,231c2.9-4.8,6.2-9.3,10.8-12.7C94.9,223.2,91.6,227.7,86.9,231z"/>
<path class="st7" d="M374.9,203.5c0.1,0.3,0,0.5-0.2,0.7c-5.6,4.9-11.1,9.9-16.7,14.8c2-4.6,6.3-7.1,9.9-10c3.3-2.7,4.4-5.3,2.4-9.1
	C371.5,201.5,373.3,202.4,374.9,203.5z"/>
<path class="st7" d="M290.9,298.3c3.1-2.7,7.4-3.3,10-6.9c1.4-2,5.7,0.5,7.8,4.3c-3.5-2.8-6.8-4.4-10.6-0.1
	C296.4,297.5,293.7,298.5,290.9,298.3z"/>
<path class="st48" d="M85.9,310.8c2.1-4.8,7-6.7,9.8-10.8C94.4,305.4,90,308,85.9,310.8z"/>
<path class="st49" d="M382.9,214.8c-0.5,4.5-1.8,8.4-6.2,10.3C377.8,221.1,380,217.8,382.9,214.8z"/>
<path class="st50" d="M377.9,208.7c-0.2,4-0.7,8-4.9,11.8C372.7,215,376.2,212.3,377.9,208.7z"/>
<path class="st7" d="M100.6,160.2c4.2,2.4,4.6,2.3,5.1-1.9c-0.1-0.4,0-0.7,0.2-0.7c0.2-0.1,0.4,0,0.5,0.1c2.2,2,1.6,4.1,0.3,6.2
	c-0.6,1-1.5,1.7-2.9,1.2C101.6,164.1,100.2,162.8,100.6,160.2z"/>
<path class="st7" d="M163.8,338.4c-2.8-2.6-4.1-5.4-5.5-8.5C163.8,330.1,164.7,333.3,163.8,338.4z"/>
<path class="st51" d="M125.1,381.8c4.6-0.4,9.2-0.8,14.7-1.3c-4.3,3.1-8.8,1.9-12.7,3c0.4,1.2,1,2.2,2.7,1.8c0.3,1.4-0.5,2-1.6,1.2
	C126.7,385.5,125.4,383.9,125.1,381.8z"/>
<path class="st52" d="M131.4,256c-3.4,3.1-6.8,6.1-10.2,9.2c-0.3-0.4-0.7-0.7-1-1.1c2.9-3.6,6.7-6.4,10.1-9.4
	C130.6,255.2,131,255.6,131.4,256z"/>
<path class="st53" d="M54.7,262.8c2.5-4.1,6.6-6.2,10.7-8.3c0.3,0.3,0.5,0.7,0.8,1c-3.6,2.8-7.2,5.5-10.7,8.3
	C55.2,263.4,54.9,263.1,54.7,262.8z"/>
<path class="st7" d="M127.5,106.4c0.4,3-0.5,5.4-3.5,6.1c-4.8,1.1-6.1,6.7-10.7,8C116.7,114.5,123.9,112.3,127.5,106.4z"/>
<path class="st54" d="M184.8,309c-6.8,6-13.5,12-20.3,18.1C170.4,320,177,313.8,184.8,309z"/>
<path class="st55" d="M89,368.6c-5.7-3.6-9.1-9.5-13.8-14.1c-1.5-1.5-2.9-3.2-4.3-4.8c3.2,0.8,4.5,3.8,6.5,5.9
	C81.4,359.8,85.1,364.3,89,368.6z"/>
<path class="st56" d="M96.6,199c-3.1,5.2-8.5,8.1-12.6,12.4c-1.7,1.8-3.7,3.4-5.5,5c0.5-3,3.2-4.1,5.1-5.8
	C87.8,206.6,92.2,202.8,96.6,199z"/>
<path class="st57" d="M49.5,215.7c0.8-1.1,1.7-1.9,4.3-1.6c-5.7,5.2-10.8,9.7-15.9,14.3c-0.5-0.4-0.6-0.9-0.2-1.5
	C41.6,223.1,46.2,220,49.5,215.7z"/>
<path class="st7" d="M61.2,224c6-2.6,9.7-8.1,14.8-12c-2.8,5.5-7.5,9.2-12.5,12.4C62.6,224.9,61.8,224.5,61.2,224z"/>
<path class="st58" d="M39.4,239.1c3.9-5.4,9-9.5,15.5-13.7c-1.2,3.1-2.8,4-4.2,5C46.4,232.6,44.2,237.5,39.4,239.1z"/>
<path class="st59" d="M39.4,239.1c4-2.5,6.5-7.1,11.3-8.6c-4.7,4.1-8.9,8.8-13.7,14.3C36.7,241.4,38.3,240.4,39.4,239.1z"/>
<path class="st49" d="M298.6,313.6c-2.5,0.2-4.9,1.8-7.5,0.7c-0.8-0.4-0.8-1.6,0.1-2c2.4-1,4.9-1.9,7.5-0.8
	C299.6,311.9,299.2,312.9,298.6,313.6z"/>
<path class="st60" d="M130.6,260.2c-1.4,4.2-5.1,6.2-8.3,8.7C123.7,264.8,127.2,262.5,130.6,260.2z"/>
<path class="st61" d="M127.6,255.2c-3.1,2.8-6.1,5.5-9.2,8.3C120,259.1,123.1,256.4,127.6,255.2z"/>
<path class="st7" d="M279.8,23.1c-6.6,1.6-7.3,1.1-10.3-6.9C272.6,18.9,275.4,22.2,279.8,23.1z"/>
<path class="st7" d="M153.3,167.9c2,2.9,5.2,0.2,8,1.6c-1.7,1.8-3.3,3.4-4.8,5C155.7,172.1,153.5,170.5,153.3,167.9z"/>
<path class="st1" d="M358.7,71.8c6.3,5,12.1,10.6,15.8,18C369.2,83.8,364,77.8,358.7,71.8z"/>
<path class="st62" d="M90.3,288.4c-2.7,3.1-5.3,6.3-9.6,8.1C82.9,292,85.7,289.6,90.3,288.4z"/>
<path class="st63" d="M58.4,265c2.2-3.1,4.6-6.1,9.8-7.8C65.2,261.5,62.3,263.8,58.4,265z"/>
<path class="st7" d="M107.4,287.3c3.5-1,2.1-3,0.9-4.8c-1.1-1.6-2.8-2.9-1.8-5.2c1.1,2.2,2.3,4.4,4.1,6.1c1.2,1.2,2.6,2.6,1.1,4.3
	C110.4,289.3,108.8,288.4,107.4,287.3z"/>
<path class="st7" d="M386.7,225.5c0.5,3.6-0.8,7.1-1.4,10.6c-0.2,1.4-0.9,2.9-2.9,2.6c1.3-1.6,2.3-3.5,1.9-5.5
	C383.7,230.1,384.9,227.8,386.7,225.5z"/>
<path class="st64" d="M47.6,223.7c-5.5,5-10.9,9.9-16.4,14.9C35.7,232.6,41.3,227.8,47.6,223.7z"/>
<path class="st5" d="M321.3,55.7c-0.8-1.4-3.3-2.3-2.1-4.4c0.8-1.3,2.3-0.9,3.4,0.1c1.7,1.4,1.9,2.9,0.1,4.4
	C322.2,55.7,321.7,55.7,321.3,55.7z"/>
<path class="st65" d="M32.6,240.1c4.6-5.9,10-10.9,16.5-14.8C43.5,230.3,38,235.2,32.6,240.1z"/>
<path class="st66" d="M49.5,215.7c-2.7,5.3-8.2,7.7-11.8,12c-0.9,1.2-1.3,3.2-3.5,2C39.3,225,44.4,220.4,49.5,215.7z"/>
<path class="st67" d="M150.8,282.7c-1.5,3.7-4.2,6.3-8.1,9C144.1,286.8,147.7,284.9,150.8,282.7z"/>
<path class="st68" d="M174.8,324.5c-2.4,1.4-2.3-0.3-1.2-1.3c4.6-3.8,8.2-8.8,13.8-11.4c-0.3,2.9-2.7,4-4.6,5.4
	C179.9,319.5,177.1,321.7,174.8,324.5z"/>
<path class="st69" d="M95.6,172.5c-4.9,4.5-9.9,9-14.8,13.5C84.7,180.4,89.8,176,95.6,172.5z"/>
<path class="st7" d="M320.4,316.1c0.3-2.9,3.2-4.1,4.5-3.1c3.3,2.5,5.7,0.2,8.4-0.5c-2.5,2.1-4.5,5.6-8.6,1.9
	C323.6,313.5,321.6,315,320.4,316.1z"/>
<path class="st70" d="M115.1,317.4c-2.8,3.9-5.5,5.9-9.2,6.8C108.1,321.3,110.7,319,115.1,317.4z"/>
<path class="st7" d="M156.6,280.7c1.6-1.5,3.6-2.5,5.3-0.8c1.8,1.8,0,4-0.6,6C160.1,283.7,160.3,280.5,156.6,280.7z"/>
<path class="st71" d="M142.5,389.5c-3.6,0-7.2,0-10.8,0c3.5-2.6,7.2-1.8,10.8-1.4C142.5,388.6,142.5,389,142.5,389.5z"/>
<path class="st72" d="M31,268.9c-1.7-3.3-0.8-6.1,2.2-9C33.6,263.5,32.4,266.2,31,268.9z"/>
<path class="st73" d="M174.8,324.5c3.2-5.3,8.7-8.2,12.7-12.7c0.3-0.1,0.5-0.3,0.8-0.4c-0.1,3.9-3.8,4.8-6,6.9
	C179.8,320.4,177.3,322.5,174.8,324.5z"/>
<path class="st74" d="M386.9,265.9c-3.6,5.6-9.2,8.9-13.8,13.4C376.6,273.7,382.2,270.3,386.9,265.9z"/>
<path class="st75" d="M196.4,316.2c-1.9,3.5-5.5,4.7-8.5,6.7C189.7,319.3,193,317.7,196.4,316.2z"/>
<path class="st7" d="M106.4,157.7c-0.2,0.2-0.5,0.4-0.7,0.7c-2.1-2.1-1.7-4,0.4-5.8c2.7-2.3,5.4-4.8,8-7.2c-0.9,3.4-4.1,4.6-6.2,6.9
	C106.4,153.8,104.6,155.2,106.4,157.7z"/>
<path class="st76" d="M181.3,324.6c-0.5-0.3-1.5,1.9-1.6-0.3c3.6-4,7.5-7.6,12-10.7c0.4,0,0.9,0.1,1.3,0.1
	C189.8,318.1,185.5,321.3,181.3,324.6z"/>
<path class="st7" d="M257.4,32.5c-0.9,0-1.9-0.1-2.8-0.1c3.4-2.7,6.9-5.3,10.3-8c0.2,0.2,0.4,0.5,0.7,0.7
	C263.3,28.2,260.6,30.7,257.4,32.5z"/>
<path class="st77" d="M110.4,296.7c-5-3.2-8.6-7.5-11.5-12.6C102.8,288.3,106.6,292.5,110.4,296.7z"/>
<path class="st78" d="M136.8,350.9c1.4-3.9,4.4-4.9,6.5-7.6C143,347.6,142.2,348.4,136.8,350.9z"/>
<path class="st79" d="M113.8,313.6c4.8,3.4,8.6,7.7,11.6,12.8C121.2,322.4,117.4,318.1,113.8,313.6z"/>
<path class="st7" d="M148.5,246.3c-5.3-1.1-2.9-5.6-3.8-8.7c2.5,0.3,3.1,1.7,2.3,3.9C146.1,243.5,147.1,244.9,148.5,246.3z"/>
<path class="st80" d="M112.3,325.9c1.1-2.9,3.3-4.4,6-5.4C117.2,323.4,115.2,325.1,112.3,325.9z"/>
<path class="st5" d="M176.9,183.4c-0.5-0.9-0.7-1.9,0.2-2.6c1.2-0.8,2.2-0.2,3,0.7c0.7,0.9,0.9,1.8-0.2,2.5
	C178.8,184.7,177.7,184.4,176.9,183.4z"/>
<path class="st5" d="M138.3,143.8c4.8,2.4,1.3,5.2,0.3,7.8c-2.8-0.8-0.6-2.3-0.5-3.6C137.6,146.6,137.7,145.2,138.3,143.8z"/>
<path class="st7" d="M140.4,237.3c0.7,1,1.3,2.1,0.3,3.1c-0.8,0.8-2,0.2-2.7-0.4c-1.4-1.1-2.6-2.5-3.9-3.8
	C136.3,236.6,138.1,238.3,140.4,237.3z"/>
<path class="st7" d="M45.9,244.4c-2.4,1.3-2.9,4.5-5.7,5.3c-1.8,0.5-3.6,0.6-5.1-0.9C39.7,249.8,42.1,245.4,45.9,244.4z"/>
<path class="st5" d="M345.6,64.8c-0.5,0.6-1.2,1.2-1.6,1.8c-0.9,1.5-1.8,1.7-3,0.5c-1.9-1.9,0.2-2.4,1.1-3.2
	C343.2,64.2,344.4,64.5,345.6,64.8z"/>
<path class="st81" d="M125.2,327.9c-2.8,4.8-7.7,7.6-11.4,11.4C116.5,334.4,121.2,331.6,125.2,327.9z"/>
<path class="st82" d="M129.7,344.9c0.7-3.7,3.2-5.3,6.6-5.9C134.1,341,131.9,342.9,129.7,344.9z"/>
<path class="st7" d="M118.2,229.1c2-1.9,3.6-1.6,5,0.8c1.5,2.6,3.5,2.4,5.5,0.5c-1.1,3.8-3.3,3.6-5.6,1.2
	C121.8,230,120.4,229,118.2,229.1z"/>
<path class="st83" d="M181.3,324.6c3.9-3.6,7.8-7.3,11.7-10.9C190.3,318.7,186.1,321.9,181.3,324.6z"/>
<path class="st84" d="M191.6,313.5c-4,3.6-8,7.1-12,10.7C182.7,319.7,186.6,316,191.6,313.5z"/>
<path class="st85" d="M150.2,292.2c-0.2-3,2.2-4.3,2.6-6.5c0-0.2,0.9-0.5,1.2-0.4c0.7,0.3,0.8,0.9,0.6,1.6
	C153.7,289,152.8,290.9,150.2,292.2z"/>
<path class="st86" d="M110.7,261.2c1.5-3.8,5.2-5.4,7.9-7.9c0.3-0.3,1.4-0.6,1.4,0.5c0,0.5-0.8,1-1.2,1.4
	C115.2,256,113.6,259.5,110.7,261.2z"/>
<path class="st87" d="M189.6,285.9c5.1,2.1,6.7,7.6,10.7,10.7C195.2,294.6,193.7,288.9,189.6,285.9z"/>
<path class="st88" d="M93,230.6c1.1-4,4.7-5.6,7.5-8.1C98.6,225.8,95.2,227.7,93,230.6z"/>
<path class="st7" d="M136.2,303.2c0.4-2.6,2.3-3.6,4.5-4.2C140,301.3,138.4,302.5,136.2,303.2z"/>
<path class="st89" d="M63.7,297.3c3.8-3.4,7-7.5,11.7-9.8C71.7,291,68.5,295.1,63.7,297.3z"/>
<path class="st90" d="M205.7,86.8c-3.8,3.5-7.7,7-11.5,10.5C197.2,92.8,201,89.2,205.7,86.8z"/>
<path class="st7" d="M308.7,295.7c1.4,1.8,0.8,3.3-0.7,4.7c-1.4,1.3-2.1,2.7,0.3,3.8c-1.1,0.7-2.1,0.7-2.9-0.5
	c-0.7-1-0.3-1.9,0.5-2.6C307.6,299.7,308.3,297.8,308.7,295.7z"/>
<path class="st7" d="M393.9,196.1c3.1-3.1,1.5-6.5,0.5-9.9C399,191.4,399,191.4,393.9,196.1z"/>
<path class="st91" d="M97.4,179.1c-1.6,3.6-3.3,5.2-6.3,6.4C92.2,182.5,93.8,180.7,97.4,179.1z"/>
<path class="st92" d="M177.5,273.9c4.4,2.2,6.7,6.6,10.1,10C183.1,281.6,180.9,277.2,177.5,273.9z"/>
<path class="st7" d="M187.1,21.8c-3.1,1.4-5.3,4.3-8.8,5.2C180.5,23.9,182.9,21.3,187.1,21.8z"/>
<path class="st93" d="M130.5,146.7c-0.3-1.2-0.5-2.4-0.8-3.6c2.3-0.5,4.2,0.5,4.2,2.6C133.9,147.5,131.9,147.2,130.5,146.7z"/>
<path class="st7" d="M111.9,120.5c-3.9,2.6-6.7-0.5-9.8-1.9C105.6,117.7,108.4,120.7,111.9,120.5z"/>
<path class="st94" d="M248.7,142.8c3.6-3.2,7.2-6.5,10.8-9.7C256.8,137.3,253.2,140.5,248.7,142.8z"/>
<path class="st95" d="M22.9,241.1c2.4-2.2,4.7-4.5,7.1-6.7c1-1.1,1.4-3.4,3.8-1.9c-1.2,1.1-2.3,2.3-3.5,3.4
	C28,237.9,26.8,241.3,22.9,241.1z"/>
<path class="st96" d="M99.1,309.3c-3.2,3.5-6.9,6.5-11,9C91.2,314.7,95,311.8,99.1,309.3z"/>
<path class="st7" d="M365.5,224.4c-1.4,1.3-3.2,2.3-4.7,0.5c-1.4-1.6-4.6-2.6-2.8-5.9C359.1,222.8,361.3,225,365.5,224.4z"/>
<path class="st13" d="M169.8,219.3c3-0.8,6.1-0.7,9.2-0.3C176,220.7,172.9,220.8,169.8,219.3z"/>
<path class="st7" d="M46.3,318.1c3.6-0.5,4.9,0.9,4,4.5C49,321,47.7,319.5,46.3,318.1z"/>
<path class="st7" d="M92.7,257.5c1.7-1,1.8-4.1,4.8-3.8c-0.4,2.4-1.6,4-4.1,4.5C93.1,258,92.9,257.7,92.7,257.5z"/>
<path class="st97" d="M48,326.1c-3.9-1.8-5.8-5.7-8.7-8.6c0-0.4,0.1-0.5,0.3-0.5c0.1,0,0.3,0.1,0.4,0.2
	C42.7,320.1,45.3,323.1,48,326.1z"/>
<path class="st98" d="M40,317.2c-0.2,0.1-0.5,0.2-0.7,0.3c-2.6-3.1-6.2-5.3-7.5-9.4C34.5,311.1,37.3,314.2,40,317.2z"/>
<path class="st99" d="M91.5,292.4c-1.2,2.9-2.7,4.2-5.4,5.4C86.8,294.5,88.2,293.1,91.5,292.4z"/>
<path class="st100" d="M99.9,265.6c1.8-3.9,5.7-5.9,8.6-8.7C106.7,260.8,102.8,262.8,99.9,265.6z"/>
<path class="st101" d="M33.7,232.4c-1.8-0.5-2.4,1.4-3.8,1.9c0.5-2.4,2.6-3.3,4.2-4.7c1.7,0.3,2.3-1.4,3.5-2
	c0.1,0.2,0.2,0.5,0.3,0.7C36.6,229.8,35.1,231.1,33.7,232.4z"/>
<path class="st13" d="M182.6,217c1.2-3.9,4.8-5.4,7.8-7.4c-1.5,1.5-2.9,3-4.4,4.5C185.1,215.2,184.1,216.4,182.6,217z"/>
<path class="st102" d="M120.7,109.3c-0.3-2.8,0.7-4.8,2.3-7C123.4,106.1,123.4,106.1,120.7,109.3z"/>
<path class="st7" d="M281.1,24.6c-0.4-0.5-0.9-1-1.3-1.5c3.4-0.6,6.6-0.1,9.1,2.6C286,26.9,283.8,24.6,281.1,24.6z"/>
<path class="st103" d="M204.3,264.6c2.8-2.5,5.7-5,8.5-7.5C210.7,260.5,208.2,263.4,204.3,264.6z"/>
<path class="st104" d="M82.7,327.1c3-2.3,5-5.8,8.8-6.9C88.7,322.7,86.6,326,82.7,327.1z"/>
<path class="st105" d="M22.9,241.1c3.3-0.5,4.8-3.7,7.3-5.2c-1,3.2-3.9,4.7-6.3,6.5C22.9,243.2,22.2,242.4,22.9,241.1z"/>
<path class="st106" d="M86.2,301.6c2.2-2.9,3.5-4.5,6.4-4.1C91.2,299.5,89.9,300.9,86.2,301.6z"/>
<path class="st7" d="M224.9,17.4c-2.5,2.9-5.1,3.6-7.8,0.3C219.7,18.3,222.3,18,224.9,17.4z"/>
<path class="st107" d="M338.9,314c-2.8,2.4-5,5.8-8.8,7C333,318.6,335.1,315.3,338.9,314z"/>
<path class="st7" d="M138,148c0.2,1.2-0.5,2.5,0.5,3.6c0.9,1,1.8,2,2.7,3C138,153.5,134.6,152.4,138,148z"/>
<path class="st7" d="M375.2,229.1c-3.4-0.8-4.4-4.1-6.8-6C372.9,222.7,372.4,227.7,375.2,229.1z"/>
<path class="st7" d="M133.6,192.4c-0.7,0.2-1.4,0.4-2.2,0.6c-1.9-2.6-2.1-4.7,1.7-5.6C132.9,189.1,133.9,190.7,133.6,192.4z"/>
<path class="st7" d="M410.2,180c-0.7,0.4-1.3,0.7-1.8,0.1c-0.5-0.7-0.4-1.6,0.2-2.2c0.7-0.7,1.5-0.7,2.1,0.1
	C411.3,178.7,410.7,179.4,410.2,180z"/>
<path class="st5" d="M133.6,192.4c-1.5-1.5-2.2-3.1-0.4-5c0.7,0.7,1.3,1.5,2,2.2C134.9,190.7,135.3,192.2,133.6,192.4z"/>
<path class="st108" d="M143.7,318.8c2-3.3,4.7-5.9,8.4-7.4C149.3,313.9,146.5,316.4,143.7,318.8z"/>
<path class="st109" d="M182.2,318.3c1.7-2.6,5.4-3.4,6-6.9c1.6-0.4,2.4,0.2,1.1,1.4C187.2,314.9,185.5,317.6,182.2,318.3z"/>
<path class="st7" d="M366.9,89.9c-0.2-3.1-3.1-4.4-4.6-6.6c2.9,1.7,6.2,3,5.3,7.4C367.3,90.4,367.1,90.2,366.9,89.9z"/>
<path class="st7" d="M139.3,306.4c1.8-2.6,3-3.8,5.5-4.1C143.8,305.1,141.7,304.9,139.3,306.4z"/>
<path class="st110" d="M165.4,191.7c-2.2,2.1-4.4,4.2-6.5,6.3c-0.3,0.2-0.6,0.4-0.9,0.6C159.4,195.2,162.1,193.1,165.4,191.7z"/>
<path class="st111" d="M147.1,340.5c3.6,1.2,5.4,4,6.9,7.2C151.7,345.3,149.4,342.9,147.1,340.5z"/>
<path class="st112" d="M133.5,207.4c-3.2-1.6-5.5-4.1-6.8-7.5C128.9,202.4,131.2,204.9,133.5,207.4z"/>
<path class="st113" d="M195,330.9c2.4-2.4,4.7-5,8.1-6.1C200.7,327.2,198.4,329.7,195,330.9z"/>
<path class="st114" d="M201.4,8c2.8-1.5,6-1,9-1.5c1.6,0.4,3.2,0.7,4.8,1.1c0,0.2,0.1,0.5,0.1,0.7c-2.6,0.2-5.2,0.1-7.7,0.5
	c-2.1,0.3-4.7-0.9-6.3,1.7C200.6,9.7,201.4,8.8,201.4,8z"/>
<path class="st5" d="M320.8,131.4c-3.7,2.4-4.6,2.2-5.6-2c-0.5-2.2-0.5-4.6-3.9-5.5c1.4,4.7,1.3,8.4-3.9,10.3
	c-2.2,0.8-3.9,1.1-6-0.3c-2.9-2-4.7-1.1-4.2,2c0.5,2.8-0.1,3-2.6,2.9c-2.9-0.1-5,3.4-8.3,2.2c5-2.2,8.4-6.4,12.4-9.8
	c4.5-3.8,5.8-3.7,8.4,1.5c2.7-1.6,4.5-3.3,2.3-6.7c-1-1.5-0.3-2.9,1.2-3.8c1.6-1,2.8-0.3,4,0.9c1.6,1.6,2.7,3.6,2.5,5.8
	C316.6,132.3,318.6,131.9,320.8,131.4z"/>
<path class="st5" d="M226.9,194.4c0,1.8-1.5,2.5-2.4,3.6c-1.9,2.1-3.3,4.1,0.4,5.8c2.8,1.3,2.2,4,1.1,5.5c-1.4,1.9-4.2,1.5-5.7-0.2
	c-1.8-2-2.8-2.8-5-0.5c-2,2.1-4.3,1-6-1c5.4,1.3,8.9-2.6,11.4-5.9C222.6,199.2,224.7,196.7,226.9,194.4z"/>
<path class="st5" d="M286.4,140.9c-8.4,8.5-16.8,17-25.9,24.7c-1.4,1.1-2.4,2.9-4.5,2.8c9.2-7.7,17.4-16.3,25.9-24.7
	C283.1,142.5,284.2,140.8,286.4,140.9z"/>
<path class="st5" d="M281.1,24.6c2.8-1,5.1,1.1,7.7,1.1c3.6,3.6,6.3,8.1,11.7,9.7c2.5,0.7,1.3,4.7,3.8,6c-5.3-2.8-9.7-7.1-13.5-11.4
	C287.9,26.7,283.8,27.3,281.1,24.6z"/>
<path class="st5" d="M250.7,173c-5.3,5.5-9.9,11.9-17.1,15.4c4.8-3.8,7.9-9.4,12.9-13C247.8,174.5,248.8,172.9,250.7,173z"/>
<path class="st5" d="M304.3,41.4c2.9,0.5,9.2,6,9.5,8.3c0.3,2-1.2,2.9-2.4,4.1C310.6,48.7,308.8,44.3,304.3,41.4z"/>
<path class="st5" d="M346.9,133.5c-3.3-3.1-6.6-6.3-9.9-9.3c-1.9-1.7-4.2-1.5-6.5-1.4c1.3-1.3,3-2.2,4.4-1
	C339.3,125.2,344.8,127.6,346.9,133.5z"/>
<path class="st5" d="M363.7,137.2c0.5,1.3,1.1,2.7,1.9,4.7c-3.8-2.6-8,2.6-11.3-1.6C358,140.8,361.4,140.8,363.7,137.2z"/>
<path class="st5" d="M257.4,32.5c2.7-2.5,5.4-4.9,8.2-7.4C263.9,28.8,261.2,31.3,257.4,32.5z"/>
<path class="st5" d="M328.3,124.7c-1.4,3.4-3.9,5.6-7.4,6.7C323.3,129.2,325.8,127,328.3,124.7z"/>
<path class="st6" d="M239.5,223.4c-2.8-6.2-2.8-13.2-4.6-19.6c-0.4-1.5,0.6-2.6,1.4-3.6c3.3-4.7,6.3-9.5,10.9-13.2
	c3.3-2.7,5.8-6.3,8.7-9.4c7-6.9,14.1-13.5,21.8-19.5c11-7.6,22.8-13.7,35.6-17.4c6.2-1.8,10.7,3.1,15.7,5.8c0.8,0.5,1.4,1.5,2.2,2
	c9.6,5.7,10.2,14.5,8.7,24.2c-1.6,11-6.8,20.4-13.6,28.8c-4.1,5-7.7,10.4-11.9,15.3c-4.3,4.8-9.1,9-14.2,12.8
	c-3.9,2.3-37.2,10.5-41.4,10.1c-1.9-0.2-3.9-0.8-5.8-1.3C247.9,233.9,243.5,228.9,239.5,223.4z"/>
<path class="st115" d="M344.3,147c-2.5-4.9-6.7-10-14.2-11.3c-1-0.2-1.6-1.2-1.2-2.4c0.5-1.2,1.6-1.1,2.5-0.9
	c5.7,0.9,10.9,3,14.6,7.7c4,5,9.2,7.5,15.4,8.2c4.4,0.4,8.6,0,11.7-3.9c1.4-1.7,3.1-1.8,4.9-0.7c1.9,1.2,1.7,3.1,1.2,4.9
	c-1.2,4.2-7,8.3-12.6,8.3C358.4,156.9,350.8,154.9,344.3,147z"/>
<path class="st116" d="M335.8,198.9c-8.4,15-17.8,29.1-35.2,35.3c6.6-5,13.8-9.2,19.5-15.5C325.7,212.4,329.8,205,335.8,198.9z"/>
<path class="st5" d="M386.6,143c-0.4-0.8-2.8-1.9-0.9-3.1c2-1.3,4.5-0.5,6.1,1.6c0.6,0.8,1.8,1.2,0.3,2.5
	C389.9,146,388.3,145.6,386.6,143z"/>
<path class="st117" d="M310,240.5c2.5-4.6,5.8-6.8,9.7-8.1C317.5,235.7,315.6,239.4,310,240.5z"/>
<path class="st118" d="M277.7,158c-7.3,6.5-14.5,13-21.8,19.5C262.2,170,269.4,163.4,277.7,158z"/>
<path class="st119" d="M239.5,223.4c4.5,5,9,10,13.5,15C247.2,234.5,242.9,229.4,239.5,223.4z"/>
<path class="st120" d="M300.2,229.6c4.7-4.3,9.4-8.6,14.2-12.8C310.6,222.1,305.8,226.3,300.2,229.6z"/>
<path class="st5" d="M159.9,137.1c-0.6,0.6-1.2,0.7-1.7,0.1c-0.7-0.8-0.8-1.8-0.2-2.8c0.4-0.6,1-1,1.6-0.5
	C160.7,134.9,160.3,136,159.9,137.1z"/>
<path class="st5" d="M348.4,292.3c-3.2-2-2.2-3.9-0.6-6.2c2.7-3.9,5.9-7.5,7.9-11.9c1.3-2.8,3.7-2.9,5.8-1.2c1.9,1.5,2.5,4,0.4,5.6
	c-4.2,3.3-6,7.4-6.5,12.6C354.9,295.6,351.8,295.8,348.4,292.3z"/>
<path class="st6" d="M200.8,218.1c1.2-1.6,2.8-1.5,4.5-1.1c1.9,0.5,2.1,2,2.1,3.5c0,2.1,0.7,4.3-0.4,6.4c-1,1.9-0.2,3.4,1.1,5
	c2.6,3.2,3.7,6.5,0.5,10.3c-1,1.1-0.8,3.2-1.5,4.7c-0.8,1.7-2.4,2.2-4.2,1.9c-1.3-0.2-2.4-0.9-2.5-2.1c-0.2-2.1,1.8-2,3.1-2.5
	c1.4-0.5,3.4-1,3-2.7c-0.5-2.3-2.9-1.5-4.7-1.7c-1.7-0.2-3.5,3.2-5-0.1c-1.2-2.6-0.8-5.3,1.3-6.8c3.7-2.7,3.3-5.6,1.4-9
	C198.2,221.4,198.5,219.5,200.8,218.1z"/>
<path class="st5" d="M222.7,269.6c0.3,1.9-0.5,3.3-1.8,4.3c-3.2,2.5-4.2,5.8-3.6,9.7c0.1,1,0.6,2.1-0.4,2.7
	c-1.2,0.7-2.2-0.1-3.2-0.7c-3.8-2.6-3.9-5.8-0.3-8.7c1.5-1.2,2.8-2.8,4.3-4C219.1,271.6,220.1,269.7,222.7,269.6z"/>
<path class="st5" d="M406.9,195.6c-0.8,0.8-1.7,0.8-2.5-0.1c-1.1-1.2-0.1-2.1,0.7-2.8c0.8-0.7,1.6-1.2,2.4-0.1
	C408.7,194,407.5,194.7,406.9,195.6z"/>
<path class="st5" d="M302.9,318c0.2-1.4,0.5-2.6,2.1-2.8c0.7-0.1,1.3,0.5,1,1.2C305.5,317.8,304.5,318.5,302.9,318z"/>
<path class="st5" d="M384.3,212.2c-1.1-2.3,0-3.5,1.4-4.6c1.2-0.9,2.3-1.1,3.3,0.5c0.9,1.6,0.5,2.8-0.8,3.9
	C386.7,213.4,385.4,212.4,384.3,212.2z"/>
</svg>
