<?xml version="1.0" encoding="utf-8"?>
<!-- Generator: Adobe Illustrator 27.1.0, SVG Export Plug-In . SVG Version: 6.00 Build 0)  -->
<svg version="1.1" id="Capa_1" xmlns="http://www.w3.org/2000/svg" xmlns:xlink="http://www.w3.org/1999/xlink" x="0px" y="0px"
	 viewBox="0 0 480.5 101.5" style="enable-background:new 0 0 480.5 101.5;" xml:space="preserve">
<style type="text/css">
	.st0{fill:#27343D;}
	.st1{fill:#29363F;}
	.st2{fill:#131920;}
	.st3{fill:#161C23;}
	.st4{fill:#151C22;}
	.st5{fill:#0F151B;}
	.st6{fill:#14191D;}
	.st7{fill:#F9F9F9;}
	.st8{fill:#11171E;}
	.st9{fill:#12171D;}
	.st10{fill:#0C1118;}
	.st11{fill:#0A0D13;}
	.st12{fill:#32383E;}
	.st13{fill:#697277;}
	.st14{fill:#A4ACB1;}
	.st15{fill:#02060B;}
	.st16{fill:#6F7579;}
	.st17{fill:#636A6E;}
	.st18{fill:#11171F;}
	.st19{fill:#909497;}
	.st20{fill:#515A5F;}
	.st21{fill:#95989D;}
	.st22{fill:#838A8C;}
	.st23{fill:#AFB2B4;}
	.st24{fill:#202527;}
	.st25{fill:#A6ADB1;}
	.st26{fill:#F9F8F9;}
	.st27{fill:#F8FAF9;}
	.st28{fill:#F8F9F9;}
	.st29{fill:#F8F8F9;}
	.st30{fill:#F8F9FA;}
	.st31{fill:#F9F9FA;}
	.st32{fill:#F8F8F8;}
	.st33{fill:#F7F9F9;}
	.st34{fill:#969DA0;}
	.st35{fill:#F1F3F4;}
	.st36{fill:#899097;}
	.st37{fill:#A8AFB3;}
	.st38{fill:#A6ACB0;}
	.st39{fill:#82898D;}
	.st40{fill:#969D9F;}
	.st41{fill:#677076;}
	.st42{fill:#A1A7AC;}
	.st43{fill:#959A9D;}
	.st44{fill:#D2D7D8;}
	.st45{fill:#ABB1B4;}
	.st46{fill:#CCCED0;}
	.st47{fill:#7F888F;}
	.st48{fill:#B4BCC1;}
	.st49{fill:#EEF3F4;}
	.st50{fill:#B9BFC4;}
	.st51{fill:#586369;}
	.st52{fill:#81888F;}
	.st53{fill:#B8BDC0;}
	.st54{fill:#636B70;}
	.st55{fill:#ACB1B6;}
	.st56{fill:#9DA5A9;}
	.st57{fill:#BBC0C4;}
	.st58{fill:#8F9499;}
	.st59{fill:#979FA4;}
	.st60{fill:#BBC3C9;}
	.st61{fill:#B4B9BD;}
	.st62{fill:#72797B;}
	.st63{fill:#A4AEB3;}
	.st64{fill:#7C848B;}
	.st65{fill:#E1E7E9;}
	.st66{fill:#B9BDC0;}
	.st67{fill:#7A838B;}
	.st68{fill:#B3BABD;}
	.st69{fill:#BFC1C3;}
	.st70{fill:#AAACB0;}
	.st71{fill:#97A1A5;}
	.st72{fill:#767C82;}
	.st73{fill:#999FA3;}
	.st74{fill:#B8BCC2;}
	.st75{fill:#858C91;}
	.st76{fill:#9EA8AD;}
	.st77{fill:#787D80;}
	.st78{fill:#93979B;}
	.st79{fill:#5C6266;}
	.st80{fill:#767D81;}
	.st81{fill:#B4BCC3;}
	.st82{fill:#3F4042;}
	.st83{fill:#9AA1A4;}
	.st84{fill:#939BA0;}
	.st85{fill:#8E9497;}
	.st86{fill:#8B9598;}
	.st87{fill:#8D979F;}
	.st88{fill:#889399;}
	.st89{fill:#8B949B;}
	.st90{fill:#7D868C;}
	.st91{fill:#96A2A8;}
	.st92{fill:#F8F8F7;}
	.st93{fill:#F4F6F5;}
	.st94{fill:#BDC5C9;}
	.st95{fill:#8B939B;}
	.st96{fill:#ABB3B9;}
	.st97{fill:#81888E;}
	.st98{fill:#A6ACB1;}
	.st99{fill:#9A9EA3;}
	.st100{fill:#787C7E;}
	.st101{fill:#1D2128;}
	.st102{fill:#6E7274;}
	.st103{fill:#414649;}
	.st104{fill:#949A9B;}
	.st105{fill:#898C8E;}
	.st106{fill:#3E4245;}
	.st107{fill:#323943;}
	.st108{fill:#5C6264;}
	.st109{fill:#2F3238;}
	.st110{fill:#37383B;}
	.st111{fill:#7E8184;}
</style>
<path class="st0" d="M93.9,66c-1.1-2.2-2.9-3.3-5.5-3c-1.9,0.2-3.9,0.2-5.5-1.2c-0.3-2.4,1.9-2.3,3.1-3.2c-11.2-2-22.5-2.2-33.7-3.7
	c-12.2-1.6-24.9-1-36.4-6.8c1.6,2.3,4.7,1.9,6.2,4.1c0.4,1.2-0.4,1.9-1.1,2.7c-1.2-0.8-2.5-1.3-4-0.9c-2.6,0.2-4.8-0.3-6-3
	c-0.4-0.9-0.9-1.7-1.2-2.6c-1.5-5.9-0.9-6.5,4.8-5.5c12.8,2.1,25.4,5,38.3,6.1c1.1-0.6,2.3-1,3.5-0.4c3.1,2.7,6.6,0.2,10,0.5
	c6.3,0.6,12.7,0.4,19,0.1c1.9,0.2,3.8,0.1,5.5-1.2c1.4-1.4,2.9-2.7,5.1-2.7c3.5,0,3.1-3.2,4.1-5.2c-0.2-2.3,0.7-4,2.8-5.1
	c0.3-0.3,0.6-0.7,1-1c0.9,0.5,1.9,0.5,2.7,1.2c1.3,1.2,1.3,3,3.7,3.8c2.8,1,1.7,3.7-1,5.5c3.3,1.2,5.6-0.5,7.9-1.3
	c0.8-0.4,1.7-0.8,2.6-0.7c1.8,1.2,2.5,2.9,1.9,5c-2.6,2.4-6.2,2.1-8.1,3.1c13.4-1.4,21.7-11.1,28.8-22.6c2-3.2,3.2-7,6.6-9.3
	c1.3,0,2.6-0.8,3.8,0.3c1.3-0.3,2.7-0.7,4-1c1.5,0.4,3.6-2,4.5,1c-0.9,2.3,3.3,0.9,2.4,3.2c-0.8,2-2.7,2.9-4.4,3.8
	c-4.2,2.3-8.4,4.6-10.2,9.4c-2.8,2.8-2.7,8.5-7.5,8.3c0.4-0.2,2.2-1.2,2.9,0.5c0.7,1.7-1.3,2.2-2.6,2.8c-1.8,0.8-3.8,1.1-5.5,1.9
	c-0.7,0.1-1.3,0.3-1.2,0.3c0.6-0.1,1.9-0.4,3.1-1c2.6-0.6,5-1.9,7.7-2.2c1.2-0.1,2.6-0.1,2.8,1.3c0.2,1.1-1,1.7-2,2
	c-2.9,0.9-5.7,2.1-7.9,2c13.4-1.8,25.1-7.4,31.7-21c1.1-2.2,2.1-4.6,4.3-6c0.8-0.5,1.8-0.9,2.7-1.1c2.7-0.4,4.8-2,7-3.4
	c2.1-1.3,4.2-2.5,6.6-3.4c1.9-0.7,4.4-1.5,5.3,0.6c0.9,2.1-1.9,2.6-3.3,3.5c-1.5,1-2.9,2.1-4.4,3.1c-3.4,4.6-7.8,8-12.2,11.6
	c-1,1.8,1.1,3.3,0.6,5c-1.2,1.2-0.1,2.6-0.4,3.9c-1.5,1.5-3.5,2.2-5.4,2.9c-2.3,0.5-4.1,1.6-5.7,3.3c-0.6,0.3-1.3,0.4-2,0.4
	c-0.8,0.1-1.6-0.1-2.3,0.2c3-0.3,6.2-0.1,9.2-1.1c15.4-3.3,27.3-11.1,34-25.8c1.2-2.6,2.2-5.3,4.1-7.4c2.4-2.6,1.2-4-1.2-5.2
	c2.5-3.2,6.4-2.1,9.5-3.2c1.8-0.1,3.2,3.6,5.4,0.6c2.3-1.1,4.6-2.6,7.4-1.7c7-0.7,13.8-3.1,20.9-2.5c2-1,4.1-0.4,6.2-0.8
	c5.3-1,10.5-2.1,15.8-3.1c2.8-0.3,5.7-2.5,8,0.9c0.3,1.2-0.6,2-1.1,2.9c1.1,0.7-3.5,1.9,0.2,2.4c3.6-1.3,7.1-2.8,11-3
	c1.1,0.5,2.7,0.4,2.3,2.3c-2.5,2.8-6.4,2.1-9.4,3.8c-6.3,2.1-11,6.1-14.6,12.2c6.3-2.8,10.1-9.1,17.2-9.6c1.6-0.1,3.6-1.6,4.8,0.9
	c-0.1,0.5-0.1,1.1-0.5,1.4c-6.5,5.1-10.6,12.7-18,16.8c-1.4,0.8-2.9,1.4-4.1,2.5c-2.4,3.4-6.2,4.4-9.8,5.3c-2.7,0.6-5.1,1.8-7.6,2.5
	c2.2,0.3,4.1-3.4,6.8-0.9c1.2,3.1,3.7,1.3,5.5,1.1c12.2-1.5,22.1-7.8,30.7-16.1c6.6-6.3,13.6-12.2,20-18.6c0.6-0.5,1-1.2,1.2-2
	c0.3-1.2,1.6-0.9,2.4-1.5c5.4,2.2,10.7-1,16-0.4c2.7-2.4,5.3-2.4,8,0c3,0.4,6.2-0.3,9,1.2c0.4,1.1,1.5,1.4,2.2,2.1
	c0.4,1.7-2.5,1-2.1,2.8c-3.4,3.1-8.9,3.2-11,7.9c2,0.1,3.9-2.8,6.1-0.5c1,3.6-3.1,5.4-2.9,8.7c-0.2,0.4-0.5,0.7-0.9,1
	c-1.2,1.1-3,0.9-4.4,1.8c0.7-0.4,1.4-0.3,2.1,0.1c0.3,0.7,0,1.3-0.5,1.8c-1.6,1.2-3.7,1.7-4.5,3.6c-0.2,0.3-0.9,0.2-0.7,0.7
	c0.1,0.2,0.8,0.1,1.2,0.3c0.4,0.2,0.6,0.5,0.8,0.8c0.9,1.2,2.2,0.5,3.4,0.6c2-0.1,3.9,0.6,5.8,1c1,0.2,2.6,0.4,2.3,1.9
	c-0.3,1.3-1.7,1.4-2.8,1.4c-2,0-3.9-0.1-5.8-0.6c2.2,0.8,4.8,0,6.7,1.8c1.2,2.8,1.2,2.8-0.9,4.3c5.1,0.7,9.6,3.1,14.5,4.1
	c4,0.6,6.3,3.9,9.4,6c0.7,0.5,1.4,1.1,1.1,2c-0.3,0.8-1.2,1.1-2,1.2c-3.8,0.7-7.4-0.6-11.2-1.9c0.5,1.1,1.2,1.6,1.7,2.2
	c1.5,2.1,4.4,2.4,5.6,4.7c-0.8,2.2,4.8,5.5-1.1,6.8c-0.9-0.3-2-0.1-2.5-1.1c-6.9-8.6-14.5-16.5-23.1-23.2
	c-10.6-8.2-23.1-6.5-35.4-5.7c1.4-0.1,2.9-0.2,4.1,0.9c-0.3,3.2-2.6,1.2-4.1,1.9c0,0,0,0.1,0.4,0c1.5-0.4,2.9,0.6,4.3,0.2
	c0.8,0.1,1.6,0.3,2.4,0.7c0.9,0.4,2.1,0.9,1.9,1.9c-0.2,1.3-1.6,1.5-2.8,1.4c-1.5,0-2.9-0.5-4.3-1c-1-0.6-2-0.9-3.1-1
	c-0.7,0,0.1,0.2-0.5,0c0.3,0.1,0.7,0.1,1.1,0.1c0.7,0.1,1.3,0.4,1.8,0.8c-2.3,2.5,0.4,4.4,1.6,5c3.4,1.9,6.9,3.9,10.7,5
	c3.3,1.3,6.9,2.2,9.6,4.8c-0.1,1-2,2.6,0.9,2.7c1.3,0.1,2.6,0.2,3.9,0.2c2.2,0.5,6.3-1,4.3,4c0.1,0.4,0,0.9-0.2,1.3
	c-3.5,2.1-6.7-0.5-10-0.9c-2.8-0.4-5.3-1.8-8-2.4c-0.1,0-0.2,0.3-0.2,0.4c0,0.1,0.1,0.3,0.2,0.5c2.6,2.4,5.4,4.5,8.7,5.8
	c0.4,0.3,0.7,0.6,1,1c0.4,0.8,0.8,1.7,0.3,2.6c-0.3,0.3-0.7,0.6-1,1c-4.7,0.2-9.3,2.5-14,0.1c-0.9,0-1.7-0.1-2.6-0.1
	c-4.5-1.8-9.1,1.6-13.6-0.5c-3.3-1-6.1-3.5-9.8-3.3c-0.9,0.2-1.9,0.5-2.8,0.3c-4.7-2.5-8.2-6.4-11-10.7c-6.7-10.4-16.9-14.5-28.2-17
	c-2.5-0.6-4.9-0.1-7.4,0.5c-2.2,0.5-4.5,1.5-6.8,0.1c-1.2-2.7,1-3,2.6-3.8c3.7-1.6,7.6-2.3,11.4-3.6c10.1-3.6,17.3-10.2,22-19.8
	c2.5-5.1,4.9-10.1,8.4-15.1c-3.5-1.4-6.7-0.3-9.8,0.2c-3,0.2-5.6,1.6-8.4,2.5c-3.6,1.2,2.3,1.1,0.2,1.9c-0.1,0.5-0.3,0.9-0.7,1.2
	c-4.7,3.4-10.3,5.5-13.7,9.2c1-0.5,2.4-1.8,3.9-3.2c0.8-0.8,1.7-1.8,3-1.1c1.5,1,0.8,2.3,0.2,3.5c-1.2,1.9-2.1,4.1-4,5.5
	c-1,1.6-4.3,1.5-3.4,4.5c-0.6,2.6-3,3.2-4.7,4.6c-0.6,1.3-4.1,0.6-2.5,3.5c-3.2,5.1-8.9,6.4-13.2,8.7c2,0,4.8-2.3,7.1,0.7
	c2.5,2.2,5.8,1,8.6,1.7c1.8,0.4,3.7,0,5.4,0.5c1.4,0.4,3.2,0.6,3.6,2.3c0.5,2.1-2.7,0.4-2.7,2.2c-1.9,2.6-3.8,0-5.5,0.1
	c3.3,1.3,7,1.9,10.5,3.3c1.1,0.4,2.2,0.9,2.9,2c-0.2,2.9-1.9,3.2-4.1,2.4c-1.9-0.6-3.6-1.5-5.4-2.2c2.7,1,5.3,2.4,8.3,3.1
	c1.3,0.3,3.4,0.8,2.9,2.7c-0.5,1.8-2.4,2.1-4.2,1.9c-1-0.1-1.9-1-2.8-0.8c-0.7,0.2,0.1,1,0.2,1.6c1,3.7,4.8,4.4,7.1,6.7
	c-0.9,1.6,2,1.7,1.2,3.2c1.4,4.4,5.3,6.3,8.7,8.8c1.2,0.8,3.8,1.3,1.9,3.8c-0.4,0.4-0.9,0.5-1.4,0.3c-2.5-0.9-5.7,1.2-7.8-1.7
	c-0.4-1,3.6-0.8,0.5-2.8c-7.2-4.9-12.9-11.6-17-19.2c-6.3-11.5-23.3-19.3-36.3-14.8c1.9,0.5,3.6,0.7,4.9,1.9
	c0.8,0.6-0.2,1.7,0.6,2.2c5.5,3,8.8,8.3,12.9,12.7c1.4,1.5,3.5,2.3,5.3,3.5c1.9,1.4,4.2,2.4,4.7,5.1c-0.4,1.7-1.4,1.6-2.6,1
	c-2.5-1.2-5-2.3-7.3-3.8c3.7,2.6,8,4,12,5.9c0.4,0.3,0.6,0.7,0.8,1.1c-1,2.5-2.9,1.6-4.5,1.1c-1.5-0.5-2.8-1.4-5.1-1.8
	c1.8,0.6,3,0.7,3.7,1.8c0.2,1.3,0.8,2.6-0.2,3.8c2,2.3,4,4.5,6,6.8c-0.5,3.2-2.5,1.9-4.2,1.4c-4.5-4.5-8.5-9.4-11.7-14.8
	C208.6,66,196.7,57,179.9,55c-2.8-0.9-5.8-0.7-8.6-0.5c5.5,1.1,10.7,2.9,15.4,6c0.7,1.3,0.8,2.6-0.1,3.9c-3.4,0.8-5.7-2-8.7-2.5
	c-2.2-0.9-4.4-1.4-6.6-2c-1.4-0.4-2.6-1.5-4.1-1.5c2.1,0.3,1.7,3.8,4.3,3.4c2.9,1.4,6.2,2.1,8.6,4.4c1.1,1.6,2.5,3,4.3,3.8
	c0.8,0.5,1.4,1,1.9,1.8c1,2.6,3.4,3.7,5.3,5.2c4.7,4.1,5,5.6,1.9,9.6c-0.9,0.7-1.7,1.5-2.8,1.9c-2.3,0.3-0.7,2.5-1.7,3.5
	c1.2,2.7,2.4,5.3,3.6,8c0.1,0.1,0,0.3-0.1,0.5c-1.4,1.1-3.2,0.3-4.7,0.6c-0.7,0.4-1.4,0.5-2-0.1c-9.7-1.3-19.1-3.6-28.2-7.5
	c-1.3-0.6-2.4-1.8-4.6-1.3c1,2.3,2,4.6,3,6.8c0,1.5-0.5,2.4-2.2,1.9c-2-0.3-4-0.7-6-1c-2.1,0.6-3.9,0.2-5-1.9c-3-0.5-5.7-2.4-9-2.1
	c-4.3-0.2-8.3-1.1-11-5c-4.3-2-8.6-4-12.8-6"/>
<path class="st1" d="M335.8,37.1c0-0.4,0-0.8,0-1.2c-0.1-1.3,0.9-1.8,1.8-1.9c8.6-0.9,15.6-4.8,21.2-11.1c1.1,0.2,2.2-0.3,3.3-0.5
	c3.6-0.5,7-2.3,10.6-2.3c2.8,0,5.8,0.6,3.1,4.6c-0.9,0.7-2,1.6-3,1.6c-2.6-0.1-0.2,1.6-0.9,2.1c-1.9,7.6-8.5,5.2-13.4,6.5
	c3.5-0.1,6.9,0.3,10.2-0.7c9.9,0,17.8-3.6,22.7-12.7c0.8-1.4,2.1-2.6,3.9-2.9c0.5,0,1,0.2,1.4,0.5c-1,2-3.1,3.3-3.7,5.7
	c1.9,1.4,3.2-0.9,4.9-0.7c1-0.8,1.8-0.5,2.4,0.5c0.8,1.6,0.7-0.8,1.2-0.3c3.6-0.9,7.3-1.2,10.8-2.3c8.2-1.7,16.4-3.3,24.9-2.8
	c2.2-0.1,4.4-0.2,6.5-0.2c7.5-0.7,15-0.1,22.5-0.3c2.5,0,5-0.3,7.4,0.1c1.8,0.3,3.9,1.4,0.8,3.3c-3.2,0.4-6.4,0.8-9.7,1.2
	c-4.3,0.5-8.5,0.9-12.8,0.9c-9.9,0-19.7,0.2-27.3,0.9c5.2-1,12.8-0.2,20.3-0.9c4.3,0.4,8.7-0.9,12.9,0.9c7.6,0.8,15.3,0.5,22.6,3.2
	c0.1,0,0.2,0.4,0.1,0.5c-0.1,0.2-0.4,0.4-0.6,0.6c-2.6,1-5.1-0.7-7.7,0c-11.3-0.4-22.5-2.2-33.4-1.6c4.6,0.2,9.7-0.4,14.8,0.3
	c0.3,0.6,0.2,1.2-0.4,1.6c-13.3,0.2-26.6,2.2-39.9,0.1c-3.6,0.2-7.2-0.4-10.8,0.4c-2.7,0.5-5.9-0.5-8,2.2c-0.6,0.8-1.3,1.4-2.3,1.4
	c-2.7-0.9-5.1-0.6-7.3,1.3c-1.4,1.2-3,2.3-4.8,2.3c-3.8,0-2.7,2.1-2.1,4.1c0.6,1.9,3.7,1.4,3.7,3.8c-0.4,0.3-0.7,0.3-1.1,0.1
	c-0.7,0-1.3,0-2,0c-0.9,0.5-1.8,0.8-2.8,0.4c-0.9-0.4-1.5-1.2-2.1-1.9c-3.1-2.2-6.4-2.8-10.1-1.8c-1.2,0.3-2.3,0.7-3.6,0.6
	c-5.3-2.1-10.6-4.3-16.4-4.7C341.3,36.1,338.4,37.9,335.8,37.1z"/>
<path class="st2" d="M87.8,59.1c-1.2,1.7-4.1,0.3-5,2.7c-5.7,1.6-11.3-2.1-17-0.6c-3.5,1.3-6.8,0.7-10-1.1c-3.1-2.2-6.7-0.7-10-1.1
	c-1.3,0.7-2.2,0-3-0.9c-4.7-0.7-9.3-1.5-14-2.2c-0.9,0.9-1.9,1-3,0.3c-1.7-0.3-2.9-2.4-5-1.3c0-0.9,0.4-1.6,1.2-2
	c2.5-2,5.2-0.5,7.7-0.3c18.6,2.3,37.3,3.2,55.9,5.4C86.5,58.2,87.2,58.5,87.8,59.1z"/>
<path class="st3" d="M178.3,24.3c-0.9,0.2-1.8,0.5-2.8,0.7c-1.1-2.4,1.4-3.8,1.7-6.2c-2-0.9-4-0.1-6,0.3c-3.4-0.1-6.9,1.1-10.3,0.2
	c-0.8-2.3-3.2,0.9-4-1.2c1.3-0.6,2.7-1.3,4-1.9c0.6-0.7,1.3-0.6,2-0.2c4.7-0.6,9.4-1.5,14.1-1.7c2.1-0.1,4.8-1.7,6.4,1.7
	c0.5,1,2.9-0.1,4.4-0.9c1.8-1,3.7-1.9,5.5-2.8c2.4-2.6,5.2-3.5,8.6-2.2c2-0.3,4-0.6,6-1c3.3-0.9,6.7-0.9,10,0.1
	c-3,2.1-6.9,0.9-10,2.7c-1.6,2.1-4,2.2-6.2,2.4C192.8,15.4,185.4,19.5,178.3,24.3z"/>
<path class="st4" d="M105.7,35c-1.2,0.8-1.8,0.4-1.8-1c1.2-2,2.2-4.2,4.2-5.6c0.3-3.4,3.8-4.2,5.2-6.6c4.3-3.4,8.8-6.1,14.6-5
	c6.4-1.5,13-1.9,19.1-4.4c0.7-1.4,1.8-1.1,2.9-0.5c1.5-0.7,3.4-1.6,4.6-0.5c1.5,1.3,0.2,3.1-0.9,4.4c-0.9,1-0.7,2.2-0.7,3.3
	c-1-0.3-2.3,1.2-3.2-0.3c-0.5-1.3-0.1-2.2,1.2-2.7c-6.6,2.2-13.6,2.5-20.3,4.2c-8.4,2.3-15.9,5.9-21.7,12.7
	C108.1,34,107.1,34.9,105.7,35z"/>
<path class="st5" d="M253.2,78.4c0.1-1.1-2.4-0.9-1.2-2.5c2.1-1.5,4.2-0.3,6.1,0.3c11.2,3.4,22.6,4.6,34.2,4.8
	c0.5,0,0.9-0.2,0.9-0.1c-4.3-0.3-8.3-1.4-10.5-6c0.6-0.3,1.3-0.6,1.9-0.8c3.1,0.2,5.4,2.8,8.4,3.3c2.3,1.7,6,0.7,7.7,3.7
	c-1.4,4.9-6.2,1.9-8.9,3.9c-5.1-0.7-10.2-0.6-15.3,0c-0.6,0.1-1.2,0.1-1.8,0.2c-1.3,0.7-2.1-0.2-3-1
	C265.4,82.9,258.9,82.1,253.2,78.4z"/>
<path class="st6" d="M361.6,23c-0.7,0.1-1.4,1.2-1.9-0.2c-1.1-5,3.3-8.3,3.8-12.8c-4.1-2.3-8.5,1.7-12.5-0.8c-1-2.1,1.9-0.7,1.8-2
	c5.5-3.6,11.2-1.6,16.9-0.8c0.4,3.5-3.5,4.5-4.3,7.3c-0.3,0.9-1,1.8-0.4,2.7c0.7,1.2,1.7,0.3,2.6,0c2.4-0.6,4.8-1,7.2-1.6
	c5.1-0.6,10.1-1.9,15.2,0c2,0.4,4.1,0.9,6.1,1c3.7,0.3,1,2,0.7,3.1c-0.4,0-0.9-0.1-1.3-0.1C383.8,17.9,372.4,17.5,361.6,23z"/>
<path class="st7" d="M474.2,45"/>
<path class="st8" d="M232.7,96.6c-6,0.7-11.9-0.9-17.8-1.4c-6.5-1-13-2.6-19.1-5.1c-1-0.4-1.9-0.1-2.8-0.2c-1.2,0-2.4,0.1-2.1-1.7
	c0.7-0.7,1.4-1.3,2-2c4.6-0.3,8.6,1.9,13,2.7c7.6,1.4,15.4,2.2,22.7,4.9c1.3,1.8,2.7,1.9,4.2,0.3C234.9,94.9,233.5,95.7,232.7,96.6z
	"/>
<path class="st9" d="M374.6,42.9c0.8,0.4,1.2,1.1,1.2,1.9c-0.1,0.9-2.8,1.1-0.5,2.6c1.4,0.9,2,2.4,2.4,4c2.3,2.5,4.8,4.8,7.6,6.8
	c0.9,0.7,2.6,1.3,2.2,2.8c-0.4,1.3-1.9,0.8-3,1.1c-0.9,0.2-1.8,0.7-2.7,1.1c-1.7,1.6-3.6,2.7-6,2c-3-0.1-6-0.2-8.9-0.3
	c-1-2.8,1.2-2.9,2.9-3.2c2.3-0.4,4.7,0.1,6.9-0.5c2.2-0.4,4.3-1.4,5.8-1.1c-7-5.6-13.5-12.9-21.7-18.3c0.8-1.1,1.9-0.7,3-0.8
	C367.6,40.8,371.1,41.8,374.6,42.9z"/>
<path class="st10" d="M226.8,87.1c0.8-1-1.2-2.2,0.2-3.3c3.8-1,7.4,0.9,11.1,1c5.5,1.5,11.6,1,16.7,4.2c2.3,2.2,5.7-0.3,8,1.8
	c-5,1-10,1-15-0.1c-5.7,0.1-11-1.7-16.3-3.3C229.8,87.1,228.4,86.8,226.8,87.1z"/>
<path class="st11" d="M338.8,78.2c-3.3,1.6-6.7,1-10,0c-1-0.1-2-0.2-3-0.3c-0.3-0.6-0.7-1.2-1-1.8c4.4-3.1,9.6-0.4,14.2-2
	c1.3-0.4,2.7-0.7,4-1.1c4-0.5,8-1.2,12-2.3c1.8-0.5,3.8-1.3,5.6,0.2c0.7,0.3,1.4,0.6,2.1,0.9c-3.3,2.3-7.4,2-10.9,3.3
	c-1.9,2.4-4.3,2.7-7,1.8"/>
<path class="st12" d="M400.7,25.5c-1.2,0-1.5-1.9-2.9-1.5c2.3-1.1,4.6-2.2,6.9-3.3c2-2.5,5-2,7.6-2.6c3.5-1,7.2-1.4,10.5-3.1
	c0.4-0.3,0.8-0.4,1.2-0.1c0.2,0.4,0.3,0.8,0.3,1.2c0.3,0.3-1.6,1.1,0.3,1.3c1.3,0.1,2,1.1,0.5,2.2c-5,1.2-10,2-15,3.2
	C407,23.8,403.6,23.8,400.7,25.5z"/>
<path class="st13" d="M432.6,13.9c1.7-1.7,4.3-0.7,6.2-1.8c2.2-2,5,0.5,7.3-1c1.6,0,3.2,0,4.8,0c3.3,1,7.3-2,10,1.9
	c-6.4,2.4-13.4,1.3-19.9,3.2c-1.1,0.2-2.2,0.7-3.4-0.8c3-1.3,6.4-1.1,10.5-2.7c-5.3,1.7-9.6,2-13.7,2.8
	C433.4,15.3,432.9,14.7,432.6,13.9z"/>
<path class="st9" d="M388.8,43.2c-2.5,0-4.3,2.6-7,1.7c-1.4-1.5-4.1-0.7-5-3c6.2-1,12.7-1.3,18.2-5.1c0.2-1.9-2.5-2.2-2.2-4
	c0.6-0.2,1.2-0.5,1.8-0.7c1.5,1.8,5.4,2.4,4.9,4.8c-0.6,3-4.6,3.4-7.1,5C391.4,42.5,390,42.7,388.8,43.2z"/>
<path class="st14" d="M433.7,14.9c4.7-0.6,9.4-1.2,14-1.9c0,0.2,0.1,0.4,0.1,0.5c-3,0.6-6.1,1.1-9.1,1.7c0,0.2,0,0.4,0,0.6
	c0.7,0.1,1.5,0.2,2.2,0.4c-1.3,0.8-2.7,1-4.2,0.7c-3.1-1-5.6,0.5-8,2.2c-1.1,0.6-2.1,0.9-3.1-0.2c-1-1.8-3-0.1-4.3-1.3
	c0.9-0.4,1.7-0.7,2.5-1.1C426.8,14,430.2,14.5,433.7,14.9z"/>
<path class="st7" d="M425.7,18.9c1.2,0.4,2.2,0.1,3.2-0.7c0.9-1.1,1.9-0.8,2.9-0.2c1.5,1.7,3.6,0.7,5.4,1.1
	c-8.4,1.3-16.8,2.7-25.2,4c-0.9,0.3-2,0.9-1.9-0.9C415.2,21.2,420.3,19.4,425.7,18.9z"/>
<path class="st15" d="M292.8,6.2c-0.7-0.7-1.3-1.3-2-2c0.6-0.1,1.3-0.1,1.9-0.2c6,0,12.1-0.8,18.1,0c2.3,0.1,4.6,0.1,6.9,0.2
	c-0.7,0.6-1.3,1.2-2,1.8c-3,2.6-6.7,1-10,1.6C301.5,7.3,297,8.6,292.8,6.2z"/>
<path class="st7" d="M85.4,49.1c-9.9,2.1-19.9,1.4-29.8,0c0.7-0.7,1.5-0.8,2.3-0.2"/>
<path class="st7" d="M142.8,99c0-0.3,0-0.6,0-1"/>
<path class="st16" d="M377.8,62c-2.5,1.6-5.3,0.7-8,1c-1.3,0.1-3.2-0.7-2.9,1.9c-1,0-2,0.1-3,0.1c-2.1-1.2-5.3-0.8-6-4.1
	C364.6,60.1,371.3,59.5,377.8,62z"/>
<path class="st17" d="M472.8,30.2c-3,0-6,0-9,0.1c-3-0.1-5.9-0.2-8.9-0.3c-0.4-0.3-0.7-0.6-1.1-0.9c-0.2-0.2-0.2-0.5-0.1-0.7
	c4.5-1,9.1-0.1,13.6,0c1.8,0,3.6,0.6,5.4-0.2c2.6-0.6,4.8,1.2,7.3,1C477.7,30.5,475.1,29.5,472.8,30.2z"/>
<path class="st7" d="M457.8,24.9c-4.3,0-8.5-0.1-12.8-0.1c1.8-2.8,4.8-0.3,6.9-1.5c4.3-0.1,8.6-0.1,12.8-0.2
	C462.8,25.2,459.8,22.9,457.8,24.9z"/>
<path class="st18" d="M460.8,13.1c-3.1-1.9-6.9,0-10-1.9c0.6-0.1,1.2-0.2,1.8-0.3c5.5-0.8,11-0.2,16.6-0.3c0.9,0,1.6,0.3,1.4,1.4
	C467.4,12.4,464.1,12.7,460.8,13.1z"/>
<path class="st19" d="M466.6,18.1c0.1,0.2,0.2,0.5,0.4,0.7c-7.8,0-15.5,0.1-23.3,0.1C451.3,17.1,459,18.3,466.6,18.1z"/>
<path class="st20" d="M310.9,4c-6,0.4-12.1,1.2-18.1,0c1-0.4,2-0.7,3.1-1.1c3.3,0,6.7,0,10,0.1C307.5,3.3,309.2,3.7,310.9,4z"/>
<path class="st21" d="M470.7,12c-2.2-1.9-4.9-1-7.3-1.1c-3.6-0.2-7.1,0-10.7,0c1.9-1.3,4.1-0.3,6.1-1c2.7,0,5.3-0.1,8-0.1
	c1.2,0.1,2.5,0.1,3.7,0.4C471.4,10.5,472.3,11.2,470.7,12z"/>
<path class="st22" d="M389.9,14.9c-5.1,0-10.1,0-15.2,0c1.5-1.1,3.4-0.6,5.1-1.1c2.3-0.6,4.6-1.4,6.9,0
	C387.8,14.2,388.9,14.6,389.9,14.9z"/>
<path class="st23" d="M276.7,84.9c5.1-1.3,10.2-1.3,15.3,0C286.8,84.9,281.7,84.9,276.7,84.9z"/>
<path class="st12" d="M431.8,18c-1,0.1-1.9,0.1-2.9,0.2c2.4-1.6,4.8-3.2,7.8-1.3C435,17,433.3,17.2,431.8,18z"/>
<path class="st24" d="M423.8,15.2c1.4-0.5,3,0,4.2-1.1c1.5-0.1,3.1-0.2,4.6-0.3c0.6,0.1,1.1,0.3,1,1.1c-3.3,0.6-6.5,1.1-9.8,1.7
	C423.9,16.2,423.8,15.7,423.8,15.2z"/>
<path class="st25" d="M412.9,29.3c-0.1,0.2-0.2,0.5-0.3,0.7c-3.3,0-6.6,0-10-0.1C406,28.8,409.5,29.1,412.9,29.3z"/>
<path class="st26" d="M121.8,84c-3.3-2.3-6.9-4.3-9.6-7.5c1.5-0.8,2.3,1.4,3.7,0.5c0.5-1.3-0.6-2.1-1.2-3c-1.3-2.3,1-0.2,1-0.9
	c2,0.3,3.3,1.7,4.9,2.8c-1.4-1.5-3.6-2.1-4.8-3.9c-2.5-2.5-6.6-3.6-7-8c2.5-3-2.7-2-2-4c-0.3-0.1-0.5-0.2-0.8-0.2
	c-0.1-1.9,1-1.2,2-1c0.8,0.1,1.6,0.3,2.5,0.4c-0.7-2.5-3.3-1.8-4.5-3.1c22.7-2.9,36.4,9.5,45.4,41.3c-8.5-1.4-16.3-4.2-23.6-8.4
	C125.8,87.3,122.7,87,121.8,84z"/>
<path class="st27" d="M145.8,62.1c-4.1-2-8.2-4-12.4-6.2c12.8-3.1,27.9,3.7,35.9,9.4c11.3,8.1,13.4,21.3,19.3,33
	c-8-0.8-15.5-2.3-22.2-5.7c-2.2-1.1-6.6-2.2-5.3-7.3c0.2-0.9-3.9-3-6-4.6c-0.8-2.2-0.9-4.8-3.3-6.3c-1.6-1-0.7-2.5-0.3-3.7
	c-0.9-0.8-2-1.3-2.3-2.6C149.6,65.2,146.5,64.3,145.8,62.1z"/>
<path class="st28" d="M228.6,93.6c-12.2-1.2-24.3-2.9-35.8-7.6c2.8-2.1,2.3-4.5-1.8-8.2c-1-2.6-4-3.4-5.2-5.8
	c-0.6-0.4-1.2-0.8-1.8-1.2c-0.8-1.9-3.1-2.2-4.2-3.8c-2.9-1.4-5.8-2.8-8.8-4.3c0.9-2.5,2.7-1.2,4.2-1.1c3.2,0.9,6.1,2.4,9.3,3.3
	c2.1,0,2.8,2.5,4.9,2.4c2.2,0.1,3.8,1.4,5.1,2.9c1.6,1.9,1.2-1.4,2.1-0.7c0.5-0.7-0.4-0.5-0.5-0.8c-1.9-4.1-7.2-4-9.4-7.8
	c-5.8-2.4-11.7-4.5-17.8-6.1c3.4-2.9,7.2-1,10.9-1c15.8,1.8,28.2,9,36.3,23C219.7,83,224,88.4,228.6,93.6z"/>
<path class="st28" d="M360.6,70.9c-6,0.9-11.6,3.5-17.8,3.1c-1.2,1-2.4-0.1-3.6,0.1c-3.1,0.4-4.5-1.6-5.5-4.1
	c-0.3-0.1-0.6-0.2-0.8-0.3c1.7-2.2,4.2-2.7,6.4-2c3,1,5.7,0.7,8.2-0.6c-1.3-0.5-2.8,0.3-4.3,0.1c-4.1-0.4-8-1.5-12-2.3
	c-1.7-0.7-3.5-0.6-5.2-1c-0.5-0.2-0.9-0.4-1.3-0.8c-3.3-1.4-6.5-2.9-9.8-4.3c-1.6-0.5,3.6-1.5-0.3-2.2c-3.2-0.6-3-2.1,0.4-5.2
	c5.2,1,10.5,0.7,15.5,2c0.8,0.1,0.2-1.1,0.2-0.5c-5.7,0.2-11.2-1.7-16.9-1.1c-4.6,1.1-8-1-11.3-3.7c-0.5-0.1-1.1-0.2-1.6-0.4
	c-0.1-1.8,0.9-1.3,1.9-0.9c2.4,0.4,4.8,0.9,7.2,1.3c0.1-0.3,0.3-0.6,0.4-0.9c-1.5-0.5-2.9-1-4.4-1.5c0-2.1,1.4-1.3,2.5-1.2
	c-1-0.5-2.2-0.6-2.9-1.5c-2.4-0.4-4.7-0.7-8.5-1.3c21.5-5.2,38.7-1.2,52.2,15.1c3.2,3.8,6.9,7.2,10.3,10.9
	C360.5,68.7,362.3,69.3,360.6,70.9z"/>
<path class="st28" d="M282.8,74.9c3.4,3.1,7.8,4.6,12,6.4c-12.4,1.7-24.3-0.2-36.1-3.6c-2.2-0.6-4.5-1.2-6.7-1.8
	c-3.6-1.3-6.9-2.9-8.3-6.8c2-1.5,4-1.6,5.5,0.5c1.1,1.5,2.2,2.7,4.1,3c1.6,0.3,3.1,0.8,4.5,1.5c0.7,0.3,1.5,0.8,2.2,0.9
	c0.6,0.1,1,1.6,1.6,0.6c0.4-0.6-0.3-1.5-1.2-1.7c-0.4-0.2-0.7-0.5-1-0.8c-4.9-3.1-7-8.3-10-12.9c-0.9-0.4-1.8-0.9-2.8-1.3
	c-2.2-0.6,2.7-1.2,0-1.8c-2-0.5-4-1-5.2-3c-0.2,0-0.4,0-0.5-0.1c-0.2-0.2-0.3-0.4-0.4-0.6c1.2-0.2,2.4-0.5,4.4-0.9
	c-7.1-2.5-13.8-1.5-20.2-2.9c0-0.1-0.1-0.3-0.2-0.4c0.2-0.1,0.3-0.1,0.5-0.2c0.6-0.2,1.3-0.2,1.5-1c0.8-0.7,1.6-0.7,2.4-0.1
	c5.7,0,11-2.8,17.1-1c10.7,3.2,20,7.6,26.2,17.5C275,68.7,278.3,72.4,282.8,74.9z"/>
<path class="st29" d="M229.1,47.9c-0.8,0-1.6,0.1-2.4,0.1c-3.5-1.7-6.9,1-11,0.3c5.9-4.1,12.7-5.5,17.3-10.5
	c-0.4-1.4,0.6-1.7,1.5-1.8c2.1-0.2-0.2-1.4,0.5-1.8c1.9-1.4,3.8-2.9,5.8-4.3c-0.2-2,2-3,2.1-4.8c1.3-1.7,2.6-3.4,3.9-5.1
	c1-0.6,1.8-1.5,2.8-1.8c3.4-1.2,3.9-4,4.4-6.9c0.3-0.1,0.5-0.2,0.8-0.3c1.6-3.5,6.2-2.8,8.2-5.8c4.1-1.5,8.3-1,13.4-1.6
	c-6.2,8.4-9.6,17.5-14.9,25.3c-5.8,8.6-14.9,12.2-24.4,15.2C234.3,45,230.8,44.7,229.1,47.9z"/>
<path class="st30" d="M254.8,89.1c-5.7-0.8-11.4-1.4-17-3.1c-1.5-1.5-4.2-1.5-4.9-4c-0.3-0.1-0.6-0.2-0.8-0.2
	c-0.8-1.2-1.8-2.3-2.3-3.7c-1.2-1.8-2.9-3.1-4.7-4.3c-2.8-2.7-5-5.9-8.1-8.3c-0.7-0.6-1.7-1.4-0.9-2.5c0.7-1,1.7-0.6,2.7-0.3
	c-0.4-0.3-0.9-0.4-1.3-0.5c-1.6-0.5-4-1-3.5-2.7c0.7-2.4,2.9-0.1,4.2-0.1c-3.4-2.3-8.3-0.7-11.4-4.3c-2.9-0.5-5.8-1.1-10-1.9
	c5.7-2,10.2-3.8,15.1-3.1c11.4,1.5,21,6.1,27.1,16.5c5.1,8.7,11.9,15.8,20.6,22.3C257.3,88.9,256.1,89,254.8,89.1z"/>
<path class="st30" d="M292.8,6.2c4.3,0,8.6,0,12.9,0c2.6,0.7,5.3,0.1,7.9,0.4c0.8,0.1,2.1-0.4,2,1.3c-6.5,6.2-13,12.4-19.5,18.5
	c-9.8,9.1-20.5,16.3-34.3,17.7c-2.3,0.2-4.5,0.5-6.7-0.6c0.5-1.3,1.7-1.1,2.5-1.6c3-3.4,7.6-3.8,11.3-5.8c2.4-0.7,2-3.2,2.9-4.8
	c3.9-2.7,7.8-5.2,10.3-9.9c1.6-3.1,5.7-4.8,8.7-7.2c0.7-1.3,1.3-2.6,2.2-3.7c0.6,0.2-0.3-0.2,0.4-0.2c0.5,0,0.4-0.2,0-0.2
	c-2.9,0.4-5.7,1.7-8.7,1.1c-0.9-0.3-2-0.5-1.8-1.8C286.3,8.3,289.6,7.2,292.8,6.2z"/>
<path class="st31" d="M210.9,31.1c3.5-3.3,7.4-6.1,9.3-10.9c1.3-3.4,5.3-4.7,8.5-6.2c1.9-2.9,5-4,8.1-4.8c2.9-0.8,5.8-1.2,9.5-1
	c-8.3,9.5-13.7,20.5-22.4,29c-5.7,5.6-12.7,9.2-20.3,11.3c-6,1.7-12.2,3-18.4,4.4c-0.7,0.2-1.5-0.1-3-0.3
	c9.1-4.3,18.3-7.1,25.6-13.4c1.2-3.6,4.1-5.8,6.5-8.1C213.3,31.2,212.5,34.4,210.9,31.1z"/>
<path class="st29" d="M178.3,24.3c8.2-7.9,18.6-10.7,29.5-12.4c1.8,0,3.6,0,6.4,0c-8,8.7-10.1,20.5-18.9,27.9
	c-7.1,6-15.1,10-24.4,11.4c-2.3,0.1-4.9,1.8-6.9-0.9c0.6-0.1,1.1-0.2,1.7-0.3c2-2.5,5-1.9,7.7-2.4c0.5-0.1,0.9-0.3,1.4-0.4
	c-0.6,0-1.2,0.4-1.8,0.4c-1,0.1-2,0.2-2-1.3c1.9-0.8,3.8-1.5,5.7-2.3c2.5-3,6.2-4.6,8.2-6.6c1.5-0.7,0.4-1.3,0.9-0.8
	c0.1,0.1,0,0.3-0.3,0.3c-1.4,0-3.5,3.6-4.1-0.7c1.5-1.5,2.3-3.3,2.1-5.5c2.2-2.1,6-3.3,4.5-7.6c2.3-2.9,5.8-3.9,9.9-5.9
	c-5.4-0.5-8.8,1.7-12.4,3.6C183.1,22,181.3,24.4,178.3,24.3z"/>
<path class="st27" d="M129.9,19.1c6.9-1.4,13.9-2.8,20.8-4.3c0.6,1.7-1,2.6-1.1,3.9c-4.9,6.9-8.6,14.5-14.2,21
	c-7.1,8.3-16,12-26.8,11.4c4.3-1.5,8.7-2.9,13-4.4c-0.3-1.4,2.1-4.2-1.9-3.8c-0.7,0.3-1.3,0.7-2,1c-1.7,1.4-2.3-0.6-3.2-1.2
	c-2.6-2-4.5-4.8-6.5-7.2c-1.4-1.7,1.5-5.2,4.5-5.8c2.8-0.5,5.5-1.2,8-2.5c1.2-0.6,3.1-1.7,3.9,0.1c0.7,1.7-1.2,2.4-2.6,2.9
	c-0.7,0.2-1.4,0.6-2,0.8c0.8,0.4,2.3-1.4,2.8,0.3c0.5,1.7-1.4,1.9-2.3,2.6c2.4-1,4.2-3,6.6-4.2c2.7-1.3,2.9-3.9,2.2-6.1
	C128.6,21.8,129.1,20.6,129.9,19.1z"/>
<path class="st28" d="M274.6,48.2c-1.7-0.1-3.3-0.1-5-0.3c-0.7-0.1-1.7,0.6-2-0.6c1.9,0.4,0.3-2.5,2.6-2.4
	c11.7,0.5,23.3,1.6,30.6,12.3c5,7.4,11,13.6,18,19c-3.7,0.9-7.4,0.6-11.1,0.1c-3.5-0.9-7.4,0.6-10.8-1.3c-0.6-1.4-2.2-1-3.1-1.8
	c-1.7-2.8,0.6-2.8,2.9-3.1c-2.3-1.6-4.1-2.8-6-4.1c-1.1-0.7-0.7-1-1.7-3.4c-0.8-1.8-3.2-2.2-5.1-2.7c-0.7-0.7,0.7-1.9-0.5-2.5
	c-7.3-3.9-15.3-5.9-23.2-8.3c2.1,0.1,4.3,0.2,6.4,0.3c2.6,0.5,5.2,0.4,7.8,0.1C277.1,49.1,274.7,48.6,274.6,48.2z"/>
<path class="st32" d="M170.9,18.1c2.5-1.8,5.4-0.7,8.3-1c-0.3,3.1-2.8,5.1-3.6,7.9c-2.1,3.4-4.4,6.6-6.3,10.1
	c-5.8,10.4-15.4,14.7-26.5,16.7c-2.3,0.4-4.6,0.5-7,0.2c4.3-1.4,8.7-2.7,13-4.1c-3.8-0.8-7.2,0.9-10.7,1.4c-0.9,0.2-1.9,0.9-1.9-0.9
	c3-1.2,6-2.3,10-3.9c-3.9-1-6,1.5-8.9,1c5.2-2.1,8.9-5.8,11.8-10.3c2.8-5.1,7.4-7.8,11.1-6.6c0,0.7-0.4,1.1-1,1.7
	c1.8-0.9,2.7-2.6,4-3.8C165.8,23.8,167.8,20.5,170.9,18.1z"/>
<path class="st33" d="M326.9,10.2c0.5-0.1,1.1-0.3,1.6-0.4c0.9-1.7-0.6-1.1-1.3-1.3c-0.9-0.3-2.5,0.7-2.3-1.3
	c6.8-1.4,13.7-1.9,21.4-0.7c-8,6.6-13.2,14.6-20.3,20.9c-6,5.3-13.3,8.1-21,9.9c-0.9,0.1-2.1,0.9-1.9-1c0.9-0.5,1.9-1,2.8-1.5
	c-0.1-0.3-0.1-0.6-0.2-0.9c-2.9,0.5-5.7,0.9-8.5,1.4c-0.1-0.1-0.2-0.3-0.3-0.4c3.3-1.6,6.6-3.3,9.9-4.9c0-5.6,3.6-8.4,8.3-10
	c1.6-0.5,0.6-1.3,0.9-1.9c1.6-0.7,3.2-1.4,4.8-2.1C322.1,13.3,325.3,12.7,326.9,10.2z"/>
<path class="st32" d="M377.8,62c-6.7,0.6-13.3-0.6-20-1.1c-1.8-1.1-3.2-2.8-4.6-4.9c5.5,1.3,10.5,3.9,17.2,2.8
	c-5.1-1.5-6.9-6.3-11.5-7.1c-5.2-1.7-9.1-5.4-13.3-8.6c-3.4-1-6.9-1.9-10.3-2.9c4-0.3,7.8,0.3,12.5-0.3c-3.3-1.7-6.3-1.4-9-2.1
	c1.1-2.8,3.2-0.9,4.9-1c6,0.6,11.9,1.4,17,5c4,1.1,7.2,3.3,10.1,6.1c4.2,4.2,8.3,8.5,13.5,12.1C382.3,61.6,380,61.7,377.8,62z"/>
<path class="st33" d="M351.1,9.2c5-0.8,10.1-1.5,15.7-0.8c-3.3,4.5-5,9.6-7.1,14.5c-4.7,6.8-10.8,11.2-19.3,11.8
	c-1.5,0.1-3.4-0.3-4.6,1.2c-1.4,0-2.8,0-4.2,0c0.4-2.1,2.1-1.5,3.1-2c0.7-2.1,3.9-1.3,4.3-3.7c0.5-0.2,1-0.4,0.9-1.2
	c-0.5-1.8,2.4-1.2,2-2.9c0.3-0.1,0.5-0.1,0.7-0.2c1.1-2,2.9-3.5,4.4-5.1c2.3-2.5-1.1-1.7-1.3-2.6c-1.3-2.6-2.4,0-3.5,0.3
	c-1.7,0.5-3.1,1.9-5.3,1.8C339.7,13.7,345.3,11.4,351.1,9.2z"/>
<path class="st34" d="M129.9,19.1c0.4,2.5,1.7,4.8,0.9,7.5c-2,6.6-8.8,5.9-13.4,8.5c1.6-1.1,3.2-2.3,5.7-4.1
	c-2.5,0.9-4.1,1.4-6.5,2.2c2.5-3,5.4-3.8,7.3-5.8c-4.4,4-12.1,0.9-15.6,8.2c1.5-0.7,2.5-1.2,3.7-1.8c0.4,1.8-1.5,2.2-1.7,3.5
	c1.5,0.6,2.3-1.4,3.8-1.2c1.2,1.4-4,5.9,2.4,5c1.9-0.3-2.4,3.3,1.3,2.8c-1.9,1.7-4.5,1.8-6.7,2.9c-2.1,1.1-1.3-2.4-3.3-2.2
	c-0.6,0.1,0.7-0.9,1-1.4c0.6-1,3.4-0.5,1.5-3.1c-1.7-2.2-2,0.6-3.1,0.5c-0.3,0-0.6,0-1.6,0.1c3.1-2.3,0.3-3.9,0-5.9
	C111.6,26.5,120.1,21.8,129.9,19.1z"/>
<path class="st35" d="M87.8,59.1c-22-1.6-43.9-3.1-65.8-6.2c-2.9-1.2-5.8-2.3-8.7-3.6c-0.9-0.4-1.9-1.1-1.2-2.3
	c0.5-0.9,1.4-0.7,2.2-0.5c1.8,0.3,3.8,0.3,5.3,1.1C31,53.5,43.5,52,55.4,53.7c10,1.4,20.1,2.2,30.2,3.4c1.1,0.1,2.5,0.4,3.2,1.1
	C89.5,58.8,88.3,58.9,87.8,59.1z"/>
<path class="st36" d="M249.7,60.2c4.3,0.8,4,5.5,6.6,7.9c1.1,1.1,2.4,1.8,3.6,2.4c1.7,0.9,1,1.5,0.1,2.3c-2.1,1.9-4.7-0.2-7,0.9
	c-1.5-1-4.4,0-4.4-3.4c0-0.5-2.8-2.2-4.8-1.3c-2.1-0.8,0.4-2.9-1.5-4c3.2-0.2,5.9,3.8,9,0.4c-5.2-2.1-10.3-4.3-15.4-6.4
	c3.6-0.9,6.3,0.9,9.2,2.1C247.1,61.9,248.5,62.4,249.7,60.2z"/>
<path class="st37" d="M170.9,18.1c0.2,0.3,0.6,0.7,0.5,0.8c-2.4,2.7-3.9,6.3-7.4,8c-1.4,0.6-2.1,2.7-4.2,2c-4.8,0-7.2,4.1-10.8,6.2
	c-1-4.5,3.2-5.5,5.5-7.5c2.8-2.4,6.3-3.9,9.8-6c-2.5-1.4-3.4,1.7-5.4,1c-0.8-2,1.4-2.3,2-3.4C164,17.5,167.5,18.5,170.9,18.1z"/>
<path class="st38" d="M283,9.3c0.7,0.3,1.3,0.7,2,1c-0.2,1.5-1.4,1.6-2.3,1.8c3.3,0.2,6.5-3.2,10.2-0.9c0.9,2.1-0.8,2.3-2,2.9
	c-4.3-1.1-10,1.6-13.1,4.5c-2.8,2.6-6.7,4.1-10.1,6.1C270.1,16.6,274.4,12.3,283,9.3z"/>
<path class="st39" d="M206.8,55.1c5.2,0.9,10.1,2.5,14.4,5.6c-2.2-0.5-4.3-1-7.6-1.7c3.1,2.1,5.9,2.4,7.8,4.6
	c-1.8,1.5-3.4-1.3-5-0.1c3.6,2.4,5.7,6.5,9.8,8.6c2.4,1.2-1.1,0.9-1.1,1.8c-4.9-2.2-8.6-5.6-11-10.5c-0.4-0.7-1.9-0.7-2.5-1.4
	c-0.3-0.3-4.7-0.7-0.4-2c-0.6-1.7-2.3-1.4-3.4-1.7C205.4,57.5,205.4,56.6,206.8,55.1z"/>
<path class="st40" d="M302.6,48.2c4,0.5,7.3,2.9,11.2,3.8l-0.1-0.1c-1.7,5.1,4.6,3.4,5.4,6.4c-1.3,1.1-3.1-1.5-4.2,0.6
	c-3.7-0.9-7.1-2.8-10.4-4.6c-0.3-0.2-5.2-0.2-1-2.7c0.4-0.2-0.8-0.7-1.3-0.9C298.9,49.3,302.8,49.1,302.6,48.2z"/>
<path class="st41" d="M333.8,70.1c2.4,0.1,2.7,4.1,5.6,3c-0.1,2.6-2.1,1.8-3.4,1.8c-7.6,0.2-14.7-1.4-20.9-5.9
	c-1.6-0.3-2.4-1.5-1.9-2.9c0.7-1.8,2-0.3,2.9,0c4.9,1.4,9.8,2.9,14.7,4.4C331.9,71,333,71.6,333.8,70.1z"/>
<path class="st42" d="M152.6,70.2c0.9,0.4,2.2,0.7,1.8,1.9c-0.5,1.9-2.3-0.9-3.2,0.7c1.9,2.4,7.4,3.1,3.8,8c-3.7-2-7.7-5-8.8-8.1
	c-1.3-3.9-4.4-5.2-6.3-7.8c0.5-0.2,1-0.4,1.5-0.6c0.7-0.1,1.4,0,2,0.4C146.7,66.2,148.8,69.6,152.6,70.2z"/>
<path class="st43" d="M186.8,61.1c6.1,1.3,9.4,6.4,14,10c-2,1.5-2.9-1.1-4.3-0.5c0.3,1.2,2.4,1.3,1.7,3.2c-3.8-0.9-5.7-4.7-9.3-5.8
	c-0.6-1.3-2.1-2.1-2-3.7C186.8,63.2,186.8,62.1,186.8,61.1z"/>
<path class="st44" d="M236.8,9.2c-2.8,1.4-4.9,4.1-8.1,4.8c-1.6-2.4-3.3-0.3-4.4,0.4c-5.1,3-10,6.3-15.2,9.5
	C211.8,17.4,225.6,10.2,236.8,9.2z"/>
<path class="st45" d="M253.9,11.3c1.3,5.8-0.2,7.6-7.1,8.8c0.4-0.9,0.7-1.7,1.6-4c-4.4,3.4-7.7,5.9-11,8.4
	C241.6,18.4,247.4,14.4,253.9,11.3z"/>
<path class="st46" d="M325.7,63.1c1.8-0.2,3.6-0.6,5.1,0.7c4.1,2,8.3,3.1,12.9,2.3c1.9-0.3,3.6,0,5.2,1.2c-3.1,2.7-6.3,3.8-10.4,1.7
	c-1.2-0.6-3.9-0.4-5.6,0.9c-0.9,0-1.9-0.3-1.8-1.2c0.2-1.4,1.7-0.2,2.7-1.1c-1.5-0.2-2.8-0.3-4-0.4
	C328.5,65.6,324.5,67.1,325.7,63.1z"/>
<path class="st47" d="M345.7,43.1c6,0.4,8.6,6.2,13.3,8.6c-6.1-1.2-11.8-3.6-17.6-5.6C342.4,43.8,346.9,48.2,345.7,43.1z"/>
<path class="st48" d="M326.9,10.2c-0.1,4-3.4,4.6-6.1,5.8c0-3.3-1.9-1.9-3.3-1.2c-3.7,1.7-7.3,3.5-11.1,4.8
	C312.3,14.6,319.4,12,326.9,10.2z"/>
<path class="st49" d="M315.1,69.1c6,2.2,12,4.5,18.4,4.9c2,0.1,4.2,1,6-0.9c1.1,0.3,2.3,0.6,3.4,0.9c-0.7,1.3-2,0.7-3,1.1
	c-5,0.7-10.1,0.6-15.1,0.1C320.5,74.7,317.7,72,315.1,69.1z"/>
<path class="st50" d="M142.8,65c-0.5-0.3-0.9-0.5-1.4-0.8c-2.8-3.5-7.3-4.1-11.2-7.1c4.6,0.8,8,2.9,11.7,4.5c1,0.4,2.3,2.8,3.8,0.4
	c1.8,1.7,6.1,1.7,4.1,6C146.8,68.6,145.3,65.6,142.8,65z"/>
<path class="st51" d="M269.8,37c-4,1.6-8.1,3.2-12.1,4.7c-2.9-2.2-4.9,2.4-8.6,0.6c4-1.6,7.4-3,10.9-4.2c3-1.1,6.1-2,7.9-5
	C270.5,33.5,268.9,35.9,269.8,37z"/>
<path class="st52" d="M315.9,18.1c-1.2,0.9,5.6,0.6,0.3,2.3c-3.5,1.1-5.9,3.6-8.1,6.4c-0.8,1,1,3-1.5,3.1c-1.8-3.2-3.7-6.3,1.7-8.2
	C311,20.8,313.4,19.3,315.9,18.1z"/>
<path class="st53" d="M181.9,36.1c0.1,1.7,1.1,1.1,2,0.8c1.7-0.5,3-2.1,5.8-1.4c-5.3,2.2-7.7,7.4-13,8.4c-2.9-1.5-1-2.7,0.3-3.9
	C178.5,38.6,178.3,35,181.9,36.1z"/>
<path class="st54" d="M181.9,36.1c-2.8-0.2-2.1,4.1-4.9,3.9c-0.7-0.9-0.9-2-2.2-2.7c-1.4-0.8-0.9-1.9,0.7-2.3c2-1.2,3.9-2.5,5.7-3.8
	c1.2-0.9,2.3-1.2,3.5-0.1c-0.4,0.3-0.8,0.6-1.1,0.9C186,34.7,182.6,34.8,181.9,36.1z"/>
<path class="st55" d="M184.8,31.1c-3.9-0.7-5.7,3.7-9.2,3.9c4.2-3.9,9.1-7,12.3-11.9c0.2,1.6,2,1.5,3,2.4
	C188.7,27.4,187.4,30,184.8,31.1z"/>
<path class="st56" d="M121.8,84c2.2,1.5,5,2.1,6,5.1c-7.9-1.8-13.9-6.4-19.2-12.4c3.3,2.2,6.5,4.6,9.9,6.6
	C119.3,83.8,120.3,86.1,121.8,84z"/>
<path class="st57" d="M232.9,82c1.9,1,4.5,1.2,4.9,4c-3.8,0.2-7.1-1.9-10.8-2.1c-2-1.4-5.4-0.9-5.9-4.8c3,1.2,5.8,2.4,8.7,3.4
	C230.9,82.8,232.2,84.1,232.9,82z"/>
<path class="st58" d="M345.7,18.1c0.9-0.3,1.9-0.6,2.8-0.9c0.9-0.3,1.7-0.3,2,0.7c0.2,0.5,0.1,1.6-0.3,1.8c-3,1.5-3.7,5.8-7.6,6.2
	c0-0.8-2.5-0.7-0.8-1.9C343.9,22.4,344.3,20,345.7,18.1z"/>
<path class="st59" d="M174.9,63c-1.3,0-2.5-1.2-3.8-0.3c-3.8,0.5-3.2-4.6-6.3-5.1c4.6,0.4,9,1.4,13.2,3.3c-0.3,0.8-0.9,1.1-1.7,1.4
	C175.8,62.5,175.3,62.6,174.9,63z"/>
<path class="st45" d="M262.9,5.2c0.3,0.7,2.9,1,0.4,2.1c-2.8,1.3-5.8,2.4-8.6,3.6c-1.2-3-3,1.3-4.4-0.6C254,7.6,258.2,5.7,262.9,5.2
	z"/>
<path class="st60" d="M293.8,73c0.9-0.5,1.9-1.2,3-0.6c1.2,0.7,0.6,1.6,0.1,2.4c-6.8-0.6-12.5-3.7-18.1-7.5
	C283.8,69.2,288.8,71.1,293.8,73z"/>
<path class="st61" d="M241.7,54.1c2.7,0.6,5.3,1.4,7.6,3.2c-0.8,0.6-1.6,1-2.4,1.5c-4.6-1.6-9.2-3.2-14.6-5
	C236.2,52.4,238.7,56,241.7,54.1z"/>
<path class="st62" d="M210.9,31.1c2.5,1.6,3.1-2.2,5.8-1.6c-3.4,3.1-5.3,7-8.8,9.7C205.4,35.1,207.4,32.8,210.9,31.1z"/>
<path class="st63" d="M283.5,57.3c0.6,0.3,1.4,0.4,1.6,0.8c0.6,1.1-0.9,1.1-1.2,1.8c-5.4-1-10.6-2.3-16.4-5.1
	C273.7,54.6,278.2,58.3,283.5,57.3z"/>
<path class="st64" d="M229.7,78.1c1.3,0.9,3.5,1.2,2.3,3.7c-5.3-2.1-10.4-4.5-14.5-8.8c2.6,1.5,5.2,3.1,8,4.4
	C226.8,78,228,80.1,229.7,78.1z"/>
<path class="st65" d="M176,61.8c0.4-0.9,1.3-0.7,2-0.9c3,1.1,5.9,2.3,8.9,3.4c1,1.1,2.7,1.7,2,3.7c-1.4-0.7-2.8-1.4-4.2-2.1
	C181.9,64.3,178.4,64.1,176,61.8z"/>
<path class="st66" d="M324.9,7.2c1.1,1.5,2.7,0.6,4.1,0.8c0.6,0.1,1.4,0.2,1.1,1c-0.2,0.4-1,0.5-1.6,0.8c-4.6-2.6-8.6,1.5-13.9,1.4
	C318.2,8.8,321.3,7.4,324.9,7.2z"/>
<path class="st67" d="M272.5,59.2c3.9,1.6,7.7,3.1,11.6,4.7c-4.5,0.3-8.3-1.7-12-3.5C272.2,60,272.4,59.6,272.5,59.2z"/>
<path class="st38" d="M171,46.3c2,1.7,4.1-1.1,6.4,0.2c-3.6,2.7-7.8,2.5-11.6,3.5C166.4,47.1,168.7,46.7,171,46.3z"/>
<path class="st68" d="M149.5,83.8c3.7,2.3,6.4,3.9,9.1,5.6C155.2,88.8,151.2,89.4,149.5,83.8z"/>
<path class="st69" d="M274.6,48.2c1.9-0.2,3.8-0.6,6.6,1.3c-5.5,0.9-9.9,1.1-14.4-0.2C269.3,48.6,272.2,49.8,274.6,48.2z"/>
<path class="st37" d="M157.3,21.6c-3.2,2-5.9,3.7-9.2,5.8C151.7,22.2,154.1,20.6,157.3,21.6z"/>
<path class="st70" d="M269.8,37c-1.2-1,0.3-3.3-1.8-3.9c1.3-0.7,2.6-1.3,3.9-2C273.1,33.8,273,35.9,269.8,37z"/>
<path class="st71" d="M108,58.9c-0.7,0.3-1.7-0.1-2,1c-3.1-1-6.1-2-9.2-2.9C100.9,56,104.4,57.3,108,58.9z"/>
<path class="st72" d="M305.7,43.1c1.9,0.2,3.9,0.5,5.4,2.1c-1.7,0.9-3.6-0.9-5.1,0.6c-1.9,0.4-3.5-0.8-5.3-1.2
	C302.3,43.5,304.5,44.9,305.7,43.1z"/>
<path class="st73" d="M235,34.3c1.1,1.6,2.3-1,3.5,0.2c-0.7,2.9-4,1.8-5.5,3.4c-0.8,0-1.6,0-2.7,0C231.7,36.2,233.2,35.1,235,34.3z"
	/>
<path class="st74" d="M294,76.8c-0.4,0.4-0.8,0.7-1.1,1.1c-3.1-0.5-5.4-2.6-8.1-3.9c1.5-2.2,2.8,0.1,4,0.4
	C290.6,75,292.3,76,294,76.8z"/>
<path class="st75" d="M185.8,72c2.3,1.4,5.8,1.8,5.2,5.8C189.2,76,185,76.3,185.8,72z"/>
<path class="st71" d="M106.8,60.1c2,0.7,3.9,1.7,5.5,3.2c-0.8,1.9-2.7-1.3-3.4,0.8c-1.8-0.4-3.3-1.4-4.7-2.5
	C104.8,60.5,106.6,61.8,106.8,60.1z"/>
<path class="st76" d="M164,50.3c2.2,1.5,4.7,0.2,6.9,0.9c-4,1.2-8.1,0.7-12.3,0.7C160.3,50.8,162,49.9,164,50.3z"/>
<path class="st77" d="M119.8,43c1.3-1.5,2.9-2.5,5.1-3.2c0.3,2.1-5.5,3.5-0.8,5.7c-0.7,0.8-1.4,1.4-2.5,1.3
	C120,46,121.1,43.9,119.8,43z"/>
<path class="st78" d="M242.9,25.1c1.8,2.7-0.6,3.6-2.1,4.8c-0.6-0.4-3,0.8-1.8-1.3C239.8,27.2,241.6,26.3,242.9,25.1z"/>
<path class="st79" d="M325.7,63.1c0,2.7,3.1,2.2,4,4c-1.8-0.1-3.5,0-5.3-0.7c-3.5-1.4-0.9-2.2,0.2-3.1
	C325,63.2,325.4,63.1,325.7,63.1z"/>
<path class="st41" d="M324.7,75.2c5,0,10.1-0.1,15.1-0.1c-4.9,2-10,0.5-15,1C324.8,75.8,324.8,75.5,324.7,75.2z"/>
<path class="st80" d="M179.9,53.9c-3.6,0.5-7.4-0.9-10.9,1c-2.4-0.3-1.7-1.3-0.1-1.4C172.5,53.2,176.3,52.3,179.9,53.9z"/>
<path class="st81" d="M184.5,80.5c2.2,1.7,3.8,2.9,6.3,4.9C187.1,84.9,185,84.4,184.5,80.5z"/>
<path class="st82" d="M115.8,72c2.9,1.6,5.7,3.3,7.9,6c-3.1-1-5.6-2.7-8-4.8C115.8,72.8,115.8,72.4,115.8,72z"/>
<path class="st83" d="M338.9,30.2c1.6,4.7-3,2.4-4.3,3.7C334.1,30.3,337.3,31.2,338.9,30.2z"/>
<path class="st84" d="M315.6,7.8c-3.1-1.9-6.8,0.2-9.9-1.6c3.3-0.1,6.7-0.2,10-0.2C316.5,6.7,317.1,7.3,315.6,7.8z"/>
<path class="st85" d="M307.7,76.2c3.7,0,7.4-0.1,11.1-0.1C315.1,77.9,311.4,77,307.7,76.2z"/>
<path class="st86" d="M179.8,67c1.9,0.7,4.5,0.6,4.2,3.8C182,70.3,180.3,69.4,179.8,67z"/>
<path class="st87" d="M302.9,46.9c-0.6,0.3-1.6,0-1.9,0.9c-1.9,0.3-3.2-0.9-4.8-1.8C298.6,45.6,300.8,45.8,302.9,46.9z"/>
<path class="st88" d="M303,36.2c0.3,1,1.3,0.7,1.9,1c-2,1-4.1,1.7-6.7,1.4C299.5,36.8,301.3,36.6,303,36.2z"/>
<path class="st58" d="M341.9,26.1c0.5,0.5,1.5,1.4,1.4,1.6c-0.8,1.2-2.1,1.3-3.4,1.4c-0.6-0.1-1.7,0-1.9-0.3
	c-0.6-1.1,0.6-1.2,1.2-1.5C340,26.7,341,26.4,341.9,26.1z"/>
<path class="st89" d="M179.8,27.7c-1.7,1.4-3.4,2.9-5,4.3C175.7,29.7,177.1,28,179.8,27.7z"/>
<path class="st90" d="M343.9,36.9c-1.5,0.7-3.5-0.3-4.9,1c-1.1-0.2-2.5,0.9-3.2-0.8C338.5,36.4,341.2,35.7,343.9,36.9z"/>
<path class="st91" d="M136.1,48.3c0.6,0.3,1.3,0.6,1.9,0.9c-2,1.1-4.2,1.4-6.8,1.7C132.5,48.8,134.4,48.9,136.1,48.3z"/>
<path class="st92" d="M361.6,23c3.4-3.5,7.8-5.1,12.4-5.6c6.4-0.8,12.9-0.9,19.4-0.2c1.1,0.1,2.5-0.2,1.9,1.8
	c-1.6,0.7-2.4,2.3-3.1,3.7c-5,9.3-13.2,12.9-23.4,12.6c-4.3-0.1-8.8,1.9-12.9-1c5.2-1,10.5-1.2,15.6-3.4c-1.3-1.5-2.6,0.2-3.8-0.4
	c1-1.5,2.7-1.6,4-2.3c0.5-1.7,2.8-1.9,3.2-3.8c1.2-3,0.8-3.7-2.2-3.2c-2.9,0.5-5.8,1.4-8.7,2.2C363.2,23.5,362.3,24.4,361.6,23z"/>
<path class="st93" d="M392.8,32.8c1.6,1.2,3.1,2.4,5.1,3.9c-6.9,3.8-13.3,7.1-21.1,5.2c0.6-2.2-0.4-3.5-2.6-4.3
	c5.1-1,9.6-2.2,13-5.8C389.6,29.3,390.9,32.7,392.8,32.8z"/>
<path class="st94" d="M472.6,28.1c-6.3,1.7-12.6,0.8-19,0.2c-5.6,0-11.3,0-16.9,0c10.6-1.6,21.3-2,31.9-0.2
	C470,28.3,471.3,28.1,472.6,28.1z"/>
<path class="st95" d="M451.9,23.3c-2.1,1.5-4.9-0.2-6.9,1.5c-7.6,0.5-15.3-0.3-22.9,0.3C432.1,24.5,441.9,22.4,451.9,23.3z"/>
<path class="st96" d="M374.6,42.9c-3.7,0.2-7.3-0.3-10.7-1.9C367.9,39,371.3,40.5,374.6,42.9z"/>
<path class="st97" d="M356,34.2c4.2,2,8.6,0.1,12.9,1c-5.1,1.5-10.2,0.5-16.3,0.7C353.9,34,354.9,34,356,34.2z"/>
<path class="st98" d="M410,22.3c0.6,0.3,1.3,0.6,1.9,0.9c-3.6,1.5-7.4,1.6-11.2,2.4C403.3,22.9,406.7,23,410,22.3z"/>
<path class="st99" d="M375,24.3c2.4,4.2-2.3,2.4-3.2,3.8C370.1,24.4,373.8,25.4,375,24.3z"/>
<path class="st100" d="M136.6,90.8c-3.6-1-6.4-3.1-9-5.5C131.4,85.6,133.8,88.6,136.6,90.8z"/>
<path class="st101" d="M142.8,65c2.9-0.4,4.6,2.3,7,3c0.9,0.7,1.9,1.4,2.8,2.2C148,71,145.7,67.5,142.8,65z"/>
<path class="st102" d="M162.4,77.5c2.2,1.6,4.4,3.2,6.7,4.8c-0.2,0.3-0.4,0.6-0.6,0.9c-2.6-1.1-4.7-2.9-6.9-4.7
	C161.8,78.2,162.1,77.8,162.4,77.5z"/>
<path class="st103" d="M176,61.8c3,1.1,6.2,1.9,8.7,4.1c-3.6,0-6.4-2.4-9.8-2.9C174.8,62.2,175.3,62,176,61.8z"/>
<path class="st104" d="M327.8,58c4.9,0.1,9.8,0.6,14.7,2.3c-1.9,1.5-3.9,0.3-6,1.2c3.2,0.4,6,0.6,8.4,2.1
	c-6.9,0.9-13.3-0.8-19.8-2.6c-2-0.5-1.3-1.7-0.4-2.8C325.7,57.2,326.7,57.4,327.8,58z"/>
<path class="st105" d="M313.8,52.1c6.3-2.2,12.2,0.2,18.2,1.4C325.9,53.7,319.8,53.3,313.8,52.1C313.7,52,313.8,52.1,313.8,52.1z"/>
<path class="st79" d="M343.8,66c-4.8,2.3-9-0.3-13.4-1.6c0-0.1,0.1-0.3,0.1-0.4c0.1-0.1,0.2-0.2,0.4-0.3
	C335.2,64.5,339.5,65.3,343.8,66z"/>
<path class="st106" d="M327.8,58c-1,0.1-2.1,0.1-3.1,0.2c-2.4-0.6-4.7-1.2-7.5-3.5C321.4,55.7,324.9,55.7,327.8,58z"/>
<path class="st36" d="M260.8,73.1c0.8,0.3,1.5,0.6,2.3,0.8c1.9,0.4-1.8,2.6,0.9,2.7c-0.6,0.9-1.5,0.5-2.1,0.3
	c-1.4-0.4-2.7-1.1-4-1.6C257.2,72.4,260.1,74.2,260.8,73.1z"/>
<path class="st107" d="M260.8,73.1c-1,0.7-2,1.5-3,2.2c-1.6-0.5-3.2-1-4.8-1.5c2.1-2.1,4.5-1.4,7-0.9
	C260.2,72.9,260.5,73,260.8,73.1z"/>
<path class="st108" d="M259.9,19.2c-3.1,2.3-5.7,5.1-8.4,7.7c-0.4,0.3-1.4,2.7-2.6,0.3c-0.6-1.3-1-2.1,0.6-3
	C252.8,22.2,255.9,19.9,259.9,19.2z"/>
<path class="st109" d="M292.9,11.2c-4.6-0.1-8.8,2.2-13.8,2.9c1.2-3.2,4.2-2.4,5.9-3.8c4-0.6,8.1-1.6,12.7-1.3
	C296.2,10.8,294.4,10.6,292.9,11.2z"/>
<path class="st110" d="M159.8,28.9c1.6-0.3,2.3-2.3,4.2-2c-1.9,3-4.9,4.6-8.3,5.8C157,31.4,158.4,30.2,159.8,28.9z"/>
<path class="st111" d="M328.4,19.2c-4.3,2.8-9.1,4.2-14.1,4.6C318.6,21.1,323.4,20,328.4,19.2z"/>
</svg>
